<svg width="9" height="9" viewBox="0 0 9 9" fill="none" xmlns="http://www.w3.org/2000/svg">
<path fill-rule="evenodd" clip-rule="evenodd" d="M4.5 2.25H3.95356V4.5V5.04641H4.5H6.17143V4.5H4.5V2.25ZM4.5 7.84286C2.63571 7.84286 1.125 6.33215 1.125 4.46786C1.125 2.60358 2.63571 1.09286 4.5 1.09286C6.36428 1.09286 7.875 2.60358 7.875 4.46786C7.875 6.33215 6.36428 7.84286 4.5 7.84286ZM4.5 0C2.025 0 -3.92369e-06 1.99286 -3.92369e-06 4.5C-3.92369e-06 6.975 1.99285 9 4.5 9C6.975 9 9 7.00714 9 4.5C9 2.025 6.975 0 4.5 0Z" fill="white"/>
</svg>
