<svg width="63" height="53" viewBox="0 0 63 53" fill="none" xmlns="http://www.w3.org/2000/svg">
<path d="M10.5347 0.0061626C4.57254 0.104417 -0.0978121 4.9189 0.00155697 10.8142C0.100926 16.6112 4.87064 21.2292 10.7334 21.2292C10.8328 21.2292 10.8328 21.2292 10.9322 21.2292C16.8943 21.1309 21.5646 16.3164 21.4653 10.4212C21.4653 7.57178 20.2728 4.9189 18.1861 2.9538C16.1987 0.98871 13.4164 -0.0920921 10.5347 0.0061626ZM10.9322 19.7554C10.8328 19.7554 10.8328 19.7554 10.7334 19.7554C5.6656 19.7554 1.59146 15.7269 1.49209 10.7159C1.39272 5.70494 5.46686 1.47998 10.5347 1.38173C10.634 1.38173 10.634 1.38173 10.7334 1.38173C13.1183 1.38173 15.4038 2.26602 17.1924 3.93635C18.9811 5.60668 19.9747 7.86654 19.9747 10.3229C20.0741 15.5304 16 19.6571 10.9322 19.7554Z" transform="translate(21.959 10.9409)" fill="#99CEFF"/>
<path d="M62.9006 2.59532C62.9555 2.59532 63.0007 2.55059 62.9935 2.49618C62.948 2.15376 62.6677 1.90754 62.3044 1.90754H49.5852C49.1877 1.90754 48.8896 2.2023 48.8896 2.59532C48.8896 2.98834 49.1877 3.2831 49.5852 3.2831H60.5095C61.0617 3.2831 61.5095 3.73082 61.5095 4.2831V40.1112C61.5095 40.6635 61.0617 41.1112 60.5095 41.1112H48.4157C47.4445 41.1112 47.0179 39.8298 47.7373 39.1773C47.9565 38.9785 48.1746 38.7722 48.3927 38.5566C48.6909 38.2618 48.6909 37.7705 48.3927 37.4758H48.3927L46.6936 35.7957C46.3109 35.4173 46.2985 34.8054 46.6466 34.395C48.0956 32.6861 49.1881 30.8843 49.9713 28.7558C50.1566 28.2524 50.6898 27.9571 51.2077 28.0968L53.4651 28.7055C53.5282 28.7225 53.5885 28.7498 53.6524 28.7633C53.8203 28.7989 53.9882 28.7158 54.1562 28.6328C54.3242 28.5498 54.4212 28.3965 54.5072 28.2323C54.5386 28.1723 54.5627 28.1084 54.5802 28.0429C55.6482 24.0505 55.7371 20.2483 54.653 16.2527C54.5539 15.8608 54.1584 15.6643 53.7621 15.7606C53.7598 15.7612 53.7575 15.7617 53.7552 15.7623L51.4082 16.3249C50.8885 16.4494 50.3657 16.1421 50.1899 15.6375C49.4702 13.5715 48.3924 11.7283 46.9563 10.0166C46.6051 9.59798 46.6244 8.97494 47.021 8.5991L48.6831 7.0241C48.6883 7.01922 48.6934 7.01434 48.6983 7.00924C48.7951 6.90871 48.8896 6.71711 48.8896 6.52551C48.8896 6.329 48.7902 6.13249 48.6908 6.03424C45.7335 3.01259 42.4828 1.1513 38.4536 0.0666614C38.3892 0.0493313 38.3273 0.0214444 38.262 0.00800619C38.0947 -0.0264096 37.9275 0.0562718 37.7603 0.138953C37.5916 0.222334 37.4945 0.376475 37.4082 0.541327C37.3775 0.600162 37.3539 0.662472 37.3362 0.726485L36.7252 2.94164C36.582 3.46098 36.0533 3.77057 35.524 3.67046C33.3074 3.25126 31.1851 3.24364 28.9685 3.60101C28.4381 3.68653 27.9209 3.36177 27.793 2.83996L27.228 0.535475C27.2274 0.53314 27.2268 0.530778 27.2262 0.528449C27.1254 0.13778 26.7291 -0.0572623 26.3328 0.0406984C24.431 0.510806 22.8023 1.16086 21.1852 1.99085C21.0415 2.06461 20.8903 2.07288 20.7379 2.0192C20.7149 2.01108 20.6918 2.00579 20.6688 2.00579H0.892883C0.827752 2.00579 0.762857 1.99776 0.69805 1.99127C0.259601 1.94737 0 2.22856 0 2.59532V41.8972C0 42.2902 0.298107 42.585 0.695584 42.585C0.695584 42.585 0.695584 42.585 0.695584 42.585H15.2035C15.6009 42.585 15.8991 42.2902 15.8991 41.8972C15.8991 41.5042 15.6009 41.2094 15.2035 41.2094H2.49054C1.93825 41.2094 1.49054 40.7617 1.49054 40.2094V4.28311C1.49054 3.73082 1.93825 3.2831 2.49054 3.2831H15.4795C16.4599 3.2831 16.897 4.60866 16.1795 5.27683C16.0512 5.39638 15.9245 5.51784 15.7997 5.64122C15.7003 5.73947 15.6009 5.93598 15.6009 6.13249C15.6009 6.329 15.7003 6.52551 15.7997 6.62377L17.4988 8.30386C17.8815 8.68224 17.8939 9.2941 17.5459 9.70455C16.0969 11.4134 15.0043 13.2153 14.2211 15.3437C14.0358 15.8472 13.5026 16.1424 12.9847 16.0028L10.6427 15.3712C10.6359 15.3694 10.629 15.3676 10.6222 15.366C10.2282 15.2736 9.83668 15.4701 9.73817 15.8597C8.64511 19.8882 8.54574 23.7201 9.6388 27.7485C9.73788 28.1404 10.1333 28.3369 10.5297 28.2407C10.532 28.2401 10.5343 28.2395 10.5366 28.239L12.8836 27.6764C13.4033 27.5518 13.9261 27.8592 14.1019 28.3638C14.8238 30.4362 15.9061 32.2843 17.3488 34.0005C17.6951 34.4125 17.6828 35.0243 17.3001 35.4026L15.6009 37.0827C15.3028 37.3775 15.3028 37.8688 15.6009 38.1635C18.582 41.2094 21.8612 43.0763 25.9353 44.1571C26.3293 44.2545 26.7232 44.0623 26.8269 43.6763C26.8288 43.6693 26.8306 43.6623 26.8325 43.6554L27.5329 41.1162C27.6392 40.7306 28.0327 40.5024 28.4226 40.5915C28.5791 40.6273 28.7431 40.6631 28.9194 40.6989C28.9754 40.7102 29.0158 40.7593 29.0158 40.8164V50.6244C29.0158 51.1767 28.5681 51.6244 28.0158 51.6244H14.5079C14.1104 51.6244 13.8123 51.9192 13.8123 52.3122C13.8123 52.7052 14.1104 53 14.5079 53H49.6845C50.082 53 50.3801 52.7052 50.3801 52.3122C50.3801 51.9192 50.082 51.6244 49.6845 51.6244H36.276C35.7237 51.6244 35.276 51.1767 35.276 50.6244V41.1839C35.276 40.9646 35.4184 40.77 35.6345 40.733C35.9264 40.683 36.2306 40.8657 36.3011 41.1533L36.9365 43.745C36.9556 43.8229 36.9604 43.9049 36.9871 43.9805C37.0415 44.1342 37.1841 44.2752 37.2634 44.3536C37.3628 44.4518 37.4621 44.4518 37.6609 44.4518C37.6884 44.4518 37.7083 44.4518 37.7248 44.4518C37.8143 44.4518 37.9034 44.4399 37.9896 44.4159C39.6955 43.9415 41.3082 43.375 42.741 42.6306C42.7983 42.6008 42.8618 42.585 42.9264 42.585C42.9271 42.585 42.9278 42.585 42.9285 42.585L62.203 42.6832C62.2044 42.6833 62.2057 42.6833 62.207 42.6833C62.2124 42.6833 62.2178 42.6833 62.2232 42.6832C62.4193 42.6825 62.7019 42.5846 62.7019 42.3885C62.7019 42.2902 62.8013 42.2902 62.8013 42.192V42.0937C62.8013 41.9955 62.8013 41.9955 62.8013 41.8972V2.69469C62.8013 2.63981 62.8457 2.59532 62.9006 2.59532ZM33.7855 50.7227C33.7855 51.275 33.3378 51.7227 32.7855 51.7227H31.4069C30.8547 51.7227 30.4069 51.275 30.4069 50.7227V42.1068C30.4069 41.5192 30.9114 41.0599 31.4988 41.0776C31.8957 41.0896 32.2968 41.0896 32.6937 41.0776C33.281 41.0599 33.7855 41.5192 33.7855 42.1068V50.7227ZM37.4893 39.7515C37.4713 39.6757 37.4669 39.5961 37.4414 39.5224C37.388 39.3675 37.2439 39.2251 37.164 39.1461C37.0647 39.0478 36.9653 39.0478 36.7666 39.0478C36.7314 39.0478 36.7087 39.0478 36.6896 39.0478C36.6087 39.0478 36.5278 39.0578 36.4492 39.0768C33.3186 39.8337 30.5661 39.8228 27.4259 38.9496C27.0333 38.8525 26.6406 39.0431 26.5353 39.4265C26.5327 39.436 26.5302 39.4456 26.5275 39.455L25.9147 41.6096C25.7621 42.1461 25.199 42.4563 24.6723 42.2728C22.1456 41.3926 19.9738 40.124 17.9545 38.3668C17.5285 37.9961 17.5233 37.3436 17.9248 36.9465L19.5757 35.3141C19.8738 35.0194 19.8738 34.5281 19.5757 34.2333C17.3164 31.9022 15.931 29.5711 15.1316 26.4806C15.1132 26.4094 15.0875 26.3397 15.0539 26.2743C15.0044 26.1776 14.9548 26.0851 14.9053 26.0089C14.8469 25.9191 14.7583 25.8528 14.6551 25.8244C14.546 25.7943 14.437 25.7863 14.328 25.7842C14.2495 25.7827 14.1712 25.7927 14.0949 25.811L11.9047 26.336C11.367 26.4649 10.8242 26.1332 10.7189 25.5904C10.2072 22.9505 10.2142 20.4632 10.7912 17.8234C10.9099 17.2802 11.467 16.9638 12.0028 17.1128L14.1959 17.7227C14.2051 17.7253 14.2145 17.7278 14.2239 17.7299C14.6166 17.8201 15.0059 17.6236 15.1041 17.2353C15.9984 14.0911 17.3896 11.733 19.7744 9.47315C19.8738 9.3749 19.9732 9.17839 19.9732 8.98188C19.9732 8.78537 19.8738 8.58886 19.7744 8.49061L18.1381 6.87258C17.731 6.47012 17.743 5.80675 18.1821 5.43951C20.2549 3.70579 22.4224 2.50499 24.9337 1.64004C25.4747 1.4537 26.0496 1.78404 26.1858 2.33977L26.7294 4.55691C26.73 4.55925 26.7306 4.56161 26.7312 4.56394C26.832 4.95461 27.2283 5.14965 27.6246 5.05169C30.774 4.27318 33.5334 4.26572 36.6754 5.12479C36.7358 5.14133 36.794 5.16778 36.8552 5.18138C36.8758 5.18595 36.8963 5.18873 36.9169 5.18994C37.214 5.20736 37.5699 5.1132 37.7114 4.85137C37.7404 4.79782 37.7686 4.72745 37.7853 4.6689L38.3771 2.58818C38.5297 2.0517 39.0928 1.74147 39.6195 1.92495C42.1462 2.80515 44.318 4.0738 46.3373 5.83096C46.7632 6.20165 46.7685 6.85421 46.367 7.25125L44.7161 8.88362C44.6167 8.98188 44.5173 9.17839 44.5173 9.3749C44.5173 9.57141 44.6167 9.76792 44.7161 9.86617C46.9754 12.1973 48.3608 14.5284 49.1602 17.6189C49.1786 17.6901 49.2043 17.7598 49.2379 17.8253C49.2874 17.9219 49.337 18.0144 49.3865 18.0906C49.4449 18.1804 49.5335 18.2467 49.6367 18.2751C49.7458 18.3052 49.8548 18.3132 49.9638 18.3153C50.0423 18.3168 50.1206 18.3068 50.1969 18.2885L52.3871 17.7635C52.9248 17.6346 53.4676 17.9663 53.5729 18.5091C54.0846 21.149 54.0776 23.6363 53.5006 26.2761C53.3819 26.8193 52.8248 27.1357 52.289 26.9867L50.1728 26.3982C50.1124 26.3814 50.0546 26.3551 49.9934 26.3415C49.8242 26.3039 49.655 26.3876 49.4858 26.4712C49.3159 26.5552 49.2187 26.711 49.1319 26.8772C49.1024 26.9337 49.0795 26.9937 49.0618 27.055C48.1666 30.153 46.7794 32.487 44.418 34.7246C44.1199 35.0194 44.1199 35.5107 44.418 35.8054C44.418 35.8054 44.418 35.8054 44.418 35.8054L46.0544 37.4235C46.4614 37.8259 46.4494 38.4893 46.0103 38.8565C43.9394 40.5887 41.774 41.7889 39.2656 42.6536C38.7221 42.841 38.145 42.5068 38.0119 41.9476L37.4893 39.7515Z" fill="#99CEFF"/>
</svg>
