<svg width="68" height="61" viewBox="0 0 68 61" fill="none" xmlns="http://www.w3.org/2000/svg">
<path d="M0.293387 28.612C0.384992 28.6692 0.497345 28.6839 0.593827 28.7324C0.646154 28.7587 0.698481 28.7853 0.750807 28.7853C0.957637 28.7853 1.16447 28.6814 1.26788 28.5775C1.26788 28.5775 1.26788 28.5775 1.26788 28.5775L20.5031 9.2487C20.6065 9.14479 20.7099 8.93695 20.7099 8.72911C20.7099 8.52128 20.6065 8.31344 20.5031 8.20952C15.6426 3.22146 10.0581 0.623508 3.23276 0C3.14348 0 3.0542 0 2.97324 0.0167169C2.76134 0.060469 2.58798 0.257187 2.50952 0.458827C2.49788 0.488736 2.48713 0.519828 2.476 0.551677C2.4347 0.669893 2.39985 0.791465 2.38895 0.916213L0.0370941 27.8373C0.0303225 27.9148 0.010106 27.9908 0.0024711 28.0683C-0.0190951 28.287 0.102415 28.4929 0.293387 28.612ZM3.76232 2.67658C3.81228 2.11957 4.30989 1.70986 4.86329 1.79054C9.89074 2.52356 14.2781 4.62875 18.0965 8.03462C18.5154 8.40828 18.5215 9.05566 18.1243 9.45236L3.63028 23.9292C2.96916 24.5895 1.84412 24.063 1.92759 23.1323L3.76232 2.67658Z" transform="translate(33.2383)" fill="#99CEFF"/>
<path d="M55.3945 33.3568C55.3776 33.2028 55.2774 33.0675 55.198 32.9345C55.092 32.7568 54.9376 32.6278 54.7348 32.5473C54.695 32.5315 54.6534 32.5211 54.6114 32.5128L31.5346 27.9578C31.5179 27.9545 31.5012 27.9506 31.4845 27.947C31.0793 27.8615 30.6801 28.169 30.5788 28.5763C30.4773 28.9841 30.7739 29.3918 31.1757 29.5053C31.1913 29.5097 31.2072 29.5132 31.2231 29.5164L52.5396 33.7806C53.0876 33.8902 53.4411 34.4293 53.301 34.9704C49.999 47.722 37.4788 56.1691 24.2705 54.2441C17.2382 53.3088 11.0333 49.6717 6.79333 43.9562C2.55332 38.3446 0.795268 31.2782 1.726 24.3157C2.76015 16.6258 7.20699 9.76717 13.8255 5.61044C18.1912 2.78333 23.194 1.41947 28.4069 1.51886C28.9726 1.52965 29.3989 2.02501 29.3479 2.58849L28.3037 14.1313C28.3036 14.1316 28.3036 14.1319 28.3036 14.1321L27.2735 25.6221C27.2708 25.6518 27.2691 25.6816 27.2707 25.7113C27.2919 26.1116 27.5946 26.498 27.9934 26.498C27.9934 26.498 27.9934 26.498 28.0968 26.498C28.4961 26.498 28.799 26.2075 28.8196 25.8135C28.8211 25.7849 28.8219 25.7563 28.8244 25.7277L29.7513 14.9642C29.7514 14.9635 29.7515 14.9627 29.7515 14.9619L30.9885 0.978104C30.9911 0.948804 30.9925 0.919399 30.9923 0.889985C30.992 0.81504 30.9897 0.741057 30.9757 0.672945C30.9322 0.460995 30.737 0.28635 30.5356 0.207269C30.507 0.196056 30.4774 0.185661 30.447 0.174962C30.327 0.132646 30.2032 0.0970189 30.0763 0.0870729C24.0412 -0.386039 18.1147 1.07297 12.9982 4.36343C6.06943 8.62407 1.41576 15.8983 0.278193 24.1079C-0.755956 31.486 1.10551 38.9681 5.65577 44.8915C10.1026 50.9187 16.7212 54.7637 24.0636 55.8028C25.408 56.0107 26.649 56.1146 27.9934 56.1146C41.0958 56.1146 52.7573 46.8064 55.3797 33.5554C55.3922 33.4926 55.4013 33.428 55.3953 33.3643C55.3951 33.3618 55.3948 33.3593 55.3945 33.3568Z" transform="translate(0 4.88538)" fill="#99CEFF"/>
<path d="M20.5167 0.233815C20.2068 -0.0776188 19.6905 -0.0779386 19.3801 0.232856C19.3795 0.233492 19.3788 0.234134 19.3782 0.234773L0.248349 19.5616C0.247717 19.5623 0.247084 19.5629 0.246451 19.5635C0.0402546 19.7714 -0.0626863 20.0826 0.0405702 20.3939C0.135877 20.6812 0.319016 20.8803 0.58999 20.9097C0.637078 20.9148 0.684591 20.9169 0.73148 20.9236L27.4785 24.7484C27.5254 24.7551 27.5727 24.7585 27.6201 24.7585H27.6523C27.8592 24.7585 27.9626 24.6546 28.1694 24.5506C28.3763 24.4467 28.4797 24.2389 28.4797 24.031C29.7206 14.8863 27.0319 6.67673 20.5167 0.233815ZM27.1323 21.9732C27.0871 22.5326 26.5745 22.9281 26.0187 22.8507L4.40253 19.8389C3.5859 19.7251 3.2501 18.7275 3.83171 18.1431L19.271 2.62865C19.6696 2.22819 20.3223 2.23651 20.6951 2.66101C25.4669 8.09436 27.7179 14.717 27.1323 21.9732Z" transform="translate(39.2266 9.53442)" fill="#99CEFF"/>
</svg>
