<svg width="68" height="68" viewBox="0 0 68 68" fill="none" xmlns="http://www.w3.org/2000/svg">
<path fill-rule="evenodd" clip-rule="evenodd" d="M34.0098 68C31.8482 68.0018 29.6913 67.797 27.5687 67.3882C27.3639 67.3494 27.1828 67.2311 27.065 67.0592C26.9472 66.8872 26.9021 66.6754 26.9399 66.4704C26.9596 66.3698 26.999 66.274 27.0559 66.1887C27.1127 66.1034 27.1861 66.0302 27.2714 65.9733C27.3567 65.9165 27.4525 65.8771 27.5531 65.8574C27.6538 65.8377 27.7572 65.8381 27.8577 65.8586C29.8864 66.2393 31.9457 66.4327 34.0098 66.4364C41.9787 66.4288 49.6652 63.4845 55.5997 58.1661C61.5341 52.8477 65.3002 45.5286 66.1777 37.6081C67.0552 29.6877 64.9826 21.7217 60.3562 15.2333C55.7299 8.74486 48.8742 4.18928 41.1003 2.43753C33.3263 0.68579 25.1795 1.86083 18.2174 5.73797C11.2553 9.61511 5.96651 15.9222 3.36222 23.4536C0.757922 30.9849 1.02094 39.2119 4.10087 46.5616C7.18079 53.9112 12.8616 59.8677 20.0571 63.2924C20.2348 63.3859 20.3694 63.5443 20.4332 63.7347C20.497 63.925 20.485 64.1328 20.3996 64.3145C20.3142 64.4962 20.1622 64.638 19.9749 64.7103C19.7877 64.7827 19.5797 64.7802 19.3943 64.7031C11.8407 61.1098 5.87674 54.858 2.64317 47.1435C-0.590401 39.429 -0.866673 30.7932 1.86718 22.8878C4.60103 14.9824 10.1531 8.36225 17.4616 4.29345C24.7701 0.224639 33.3219 -1.00721 41.4816 0.833476C49.6413 2.67416 56.8363 7.45827 61.6902 14.2707C66.5441 21.0831 68.7163 29.4457 67.7915 37.7592C66.8667 46.0727 62.9095 53.7533 56.6772 59.3324C50.4448 64.9116 42.3746 67.9975 34.0098 68ZM34.0098 61.202C29.589 61.2008 25.235 60.1217 21.3253 58.0582C17.4156 55.9948 14.068 53.0093 11.5724 49.3602C9.07685 45.7111 7.50863 41.5084 7.0036 37.1165C6.49858 32.7246 7.07198 28.2759 8.67415 24.1556C10.2763 20.0353 12.8589 16.3678 16.1982 13.4707C19.5375 10.5737 23.5328 8.53441 27.838 7.52978C32.1432 6.52514 36.6284 6.58548 40.9051 7.70528C45.1817 8.82509 49.121 10.9706 52.3814 13.9562C52.4542 14.024 52.5128 14.1057 52.554 14.1964C52.5952 14.2871 52.618 14.385 52.6212 14.4846C52.6244 14.5841 52.6078 14.6832 52.5724 14.7763C52.5371 14.8693 52.4836 14.9545 52.4152 15.0269C52.3491 15.0996 52.269 15.1584 52.1797 15.1997C52.0905 15.2409 51.994 15.2637 51.8957 15.2669C51.7974 15.2701 51.6995 15.2535 51.6078 15.2181C51.516 15.1827 51.4322 15.1292 51.3615 15.0609C46.5604 10.6553 40.2657 8.23721 33.7499 8.29529C27.2341 8.35337 20.9835 10.8833 16.2617 15.3737C11.5399 19.8642 8.69919 25.9801 8.31411 32.4848C7.92902 38.9895 10.0281 45.3977 14.1871 50.4139C18.3461 55.43 24.2547 58.6798 30.7181 59.5063C37.1815 60.3327 43.7177 58.6742 49.005 54.8659C54.2924 51.0576 57.9365 45.3838 59.2005 38.9915C60.4645 32.5992 59.2541 25.9654 55.8142 20.4313C55.7107 20.2617 55.6778 20.0583 55.7223 19.8646C55.7667 19.6708 55.885 19.5022 56.0521 19.3947C56.1356 19.3414 56.2288 19.3053 56.3264 19.2884C56.4239 19.2716 56.5238 19.2742 56.6203 19.2963C56.7168 19.3185 56.8079 19.3598 56.8884 19.4175C56.9688 19.4752 57.0369 19.5483 57.0888 19.6326C59.6534 23.7495 61.0703 28.4774 61.1923 33.3262C61.3143 38.1751 60.1371 42.9684 57.7827 47.2091C55.4283 51.4497 51.9824 54.9835 47.8024 57.4439C43.6223 59.9044 38.8602 61.2019 34.0098 61.202ZM24.6116 39.3082C24.6116 39.7237 24.2748 40.0605 23.8593 40.0605H18.7288C18.1765 40.0605 17.7288 39.6128 17.7288 39.0605V38.97C17.7288 38.4177 18.1765 37.97 18.7288 37.97H24.2515C24.4504 37.97 24.6116 38.1312 24.6116 38.33V39.3082ZM26.9229 27.6639C26.9229 28.1654 26.5164 28.5719 26.0149 28.5719H21.0231C20.4708 28.5719 20.0231 28.1242 20.0231 27.5719V27.4814C20.0231 26.9291 20.4708 26.4814 21.0231 26.4814H26.4071C26.692 26.4814 26.9229 26.7123 26.9229 26.9972V27.6639ZM48.1326 39.0605C48.1326 39.6128 47.6849 40.0605 47.1326 40.0605H42.0833C41.6135 40.0605 41.2326 39.6797 41.2326 39.2099V38.97C41.2326 38.4177 41.6804 37.97 42.2326 37.97H42.4755H47.1326C47.6849 37.97 48.1326 38.4177 48.1326 38.97V39.0605ZM50.4269 27.5719C50.4269 28.1242 49.9792 28.5719 49.4269 28.5719H44.2388C43.8456 28.5719 43.5269 28.2532 43.5269 27.86V27.4814C43.5269 26.9291 43.9746 26.4814 44.5269 26.4814H44.6311H49.4269C49.9792 26.4814 50.4269 26.9291 50.4269 27.4814V27.5719ZM42.1674 33.945C42.1674 34.4973 41.7197 34.945 41.1674 34.945H40.9133H26.9489C26.4652 34.945 26.0731 34.553 26.0731 34.0693V33.8545C26.0731 33.3022 26.5209 32.8545 27.0731 32.8545H27.3411H41.3055C41.7816 32.8545 42.1674 33.2404 42.1674 33.7164V33.945ZM41.0947 45.3293C40.9927 45.8731 40.4686 46.2306 39.9251 46.1273L39.8334 46.1099C39.2918 46.007 38.9356 45.485 39.0373 44.9431L40.9133 34.945L41.3055 32.8545L43.2572 22.4532C43.3592 21.9094 43.8833 21.5519 44.4268 21.6552L44.5183 21.6725C45.0599 21.7755 45.4161 22.2975 45.3144 22.8394L44.6311 26.4814L44.2388 28.5719L42.4755 37.97L42.0833 40.0605L41.0947 45.3293ZM25.0004 45.3293C24.8984 45.8731 24.3743 46.2306 23.8308 46.1273L23.7393 46.1099C23.1977 46.007 22.8415 45.485 22.9432 44.9431L23.8593 40.0605L24.2515 37.97L26.0149 28.5719L26.4071 26.4814L27.1629 22.4531C27.2649 21.9094 27.789 21.5518 28.3325 21.6551L28.4242 21.6726C28.9658 21.7755 29.322 22.2975 29.2203 22.8394L27.3411 32.8545L26.9489 34.945L25.0004 45.3293Z" fill="#99CEFF"/>
<path d="M26.0149 28.5719C26.5164 28.5719 26.9229 28.1654 26.9229 27.6639V26.9972C26.9229 26.7123 26.692 26.4814 26.4071 26.4814L26.0149 28.5719Z" fill="#99CEFF"/>
<path d="M26.0731 34.0693C26.0731 34.553 26.4652 34.945 26.9489 34.945L27.3411 32.8545H27.0731C26.5209 32.8545 26.0731 33.3022 26.0731 33.8545V34.0693Z" fill="#99CEFF"/>
<path d="M23.8593 40.0605C24.2748 40.0605 24.6116 39.7237 24.6116 39.3082V38.33C24.6116 38.1312 24.4504 37.97 24.2515 37.97L23.8593 40.0605Z" fill="#99CEFF"/>
<path d="M41.2326 39.2099C41.2326 39.6797 41.6135 40.0605 42.0833 40.0605L42.4755 37.97H42.2326C41.6804 37.97 41.2326 38.4177 41.2326 38.97V39.2099Z" fill="#99CEFF"/>
<path d="M41.1674 34.945C41.7197 34.945 42.1674 34.4973 42.1674 33.945V33.7164C42.1674 33.2404 41.7816 32.8545 41.3055 32.8545L40.9133 34.945H41.1674Z" fill="#99CEFF"/>
<path d="M43.5269 27.86C43.5269 28.2532 43.8456 28.5719 44.2388 28.5719L44.6311 26.4814H44.5269C43.9746 26.4814 43.5269 26.9291 43.5269 27.4814V27.86Z" fill="#99CEFF"/>
</svg>
