<svg width="71" height="79" viewBox="0 0 71 79" fill="none" xmlns="http://www.w3.org/2000/svg">
<path d="M67.1204 48.4265C63.9018 46.575 59.8219 47.2838 57.4393 49.9409C57.0935 50.3265 56.5268 50.4611 56.0772 50.204L38.6084 40.2154C37.9532 39.8407 37.9334 38.903 38.5721 38.501L55.4415 27.8832C55.9169 27.584 56.5407 27.74 56.8888 28.1808C58.4023 30.0974 60.6906 31.1314 63.0659 31.1314C63.4839 31.1314 63.9019 31.1 64.3031 31.0372C64.8657 30.9493 65.4491 31.2536 65.5885 31.8056C66.2088 34.2603 66.5573 36.7254 66.5573 39.2768C66.5573 40.5042 66.4446 41.7316 66.332 42.959C66.332 43.4054 66.5573 43.8517 67.0078 43.8517H67.1204C67.5709 43.8517 67.9087 43.5169 67.9087 43.0706C68.0214 41.7316 68.134 40.5042 68.134 39.1653C68.134 36.0732 67.6928 32.9812 66.8103 30.1055C66.7966 30.0608 66.83 30.0155 66.8767 30.0155C66.8888 30.0155 66.9007 30.0123 66.9112 30.0063C70.6153 27.8816 71.8475 23.0921 69.7107 19.4153C67.5737 15.738 62.741 14.5089 59.0263 16.6172C59.0166 16.6227 59.0197 16.6252 59.0085 16.6258C58.9503 16.6289 58.8276 16.6633 58.7871 16.6215C54.5513 12.2488 49.2268 9.28512 43.3524 7.83728C43.2888 7.82161 43.2439 7.76464 43.2439 7.69915C43.2439 3.45904 39.7525 -1.66269e-09 35.4728 -1.66269e-09C31.1931 -1.66269e-09 27.7017 3.45904 27.7017 7.69915C27.7017 7.76457 27.6567 7.82143 27.5931 7.83682C21.5789 9.2926 16.1205 12.3875 11.8737 16.9049C11.8404 16.9403 11.8229 16.9686 11.7774 16.9517C11.7184 16.9299 11.675 16.8293 11.6199 16.7988C7.91532 14.7503 3.13243 16.0971 1.00962 19.75C-0.00400656 21.7585 -0.229256 23.8785 0.221243 25.7754C0.784367 27.7839 2.02324 29.4576 3.93786 30.4619C5.17673 31.1314 6.41561 31.4661 7.76711 31.4661C8.44285 31.4661 9.1186 31.3545 9.79435 31.2429C11.3109 30.8673 12.5882 30.0175 13.6261 28.893C13.964 28.527 14.5081 28.414 14.9405 28.6612L32.4498 38.673C33.105 39.0477 33.1249 39.9854 32.4861 40.3874L15.6295 50.9972C15.1493 51.2994 14.5185 51.1368 14.17 50.6891C12.4231 48.4447 9.52088 47.3388 6.75171 47.8354C6.19128 47.936 5.60917 47.6349 5.46969 47.0828C4.84942 44.6281 4.50099 42.163 4.50099 39.6116C4.50099 38.7189 4.50099 37.7147 4.61361 36.822C4.61361 36.3757 4.27574 35.9294 3.82524 35.9294C3.37474 35.9294 2.92424 36.2641 2.92424 36.7104C2.81161 37.7147 2.81161 38.7189 2.81161 39.7232C2.81161 42.8048 3.24989 45.8864 4.12646 48.7539C4.14453 48.813 4.11516 48.8644 4.07476 48.9112C4.05323 48.9361 4.03256 48.9946 4.00406 49.0112C0.323582 51.1446 -0.89607 55.9179 1.23487 59.5847C2.24849 61.3701 3.93786 62.5975 5.96511 63.1554C6.64086 63.3785 7.31661 63.3785 7.99235 63.3785C9.3386 63.3785 10.6848 63.0464 11.9198 62.3821C11.9292 62.377 11.9262 62.3747 11.9369 62.3742C11.9953 62.3713 12.1183 62.337 12.159 62.379C16.3948 66.7515 21.719 69.7149 27.5932 71.1627C27.6568 71.1784 27.7017 71.2354 27.7017 71.3008C27.7017 75.541 31.1931 79 35.4728 79C39.7525 79 43.2439 75.541 43.2439 71.3008C43.2439 71.2354 43.2889 71.1786 43.3525 71.1632C49.3671 69.7073 54.8258 66.6121 59.0727 62.0942C59.1055 62.0594 59.1222 62.0317 59.1671 62.0479C59.2268 62.0694 59.2714 62.1701 59.3275 62.1995C60.5414 62.8368 61.8572 63.1554 63.0659 63.1554C65.7689 63.1554 68.4719 61.7048 69.8234 59.25C72.1885 55.233 70.837 50.5466 67.1204 48.4265ZM63.0659 17.4068C65.2057 17.4068 67.233 18.5226 68.3592 20.4195C70.0486 23.3206 69.035 27.0028 66.1068 28.7881C64.6426 29.5692 63.0659 29.7924 61.4891 29.4576C59.9124 29.0113 58.5609 28.0071 57.7725 26.6681C56.9841 25.2175 56.7589 23.6554 57.0968 22.0932C57.5473 20.5311 58.5609 19.1921 59.9124 18.411C60.926 17.7415 62.0523 17.4068 63.0659 17.4068ZM35.4728 1.78531C38.8516 1.78531 41.6672 4.46328 41.6672 7.92232C41.6672 11.2698 38.9642 14.0593 35.4728 14.0593C31.9814 14.0593 29.2784 11.3814 29.2784 7.92232C29.3911 4.46328 32.0941 1.78531 35.4728 1.78531ZM26.9577 9.86165C27.4899 9.70696 28.0315 10.0365 28.2353 10.5519C29.1779 12.9358 31.2641 14.7902 33.794 15.3638C34.2942 15.4772 34.6844 15.8998 34.6844 16.4126V33.2514C34.6844 33.6977 35.0223 34.0325 35.4728 34.0325C35.9233 34.0325 36.2612 33.6977 36.2612 33.2514V16.4126C36.2612 15.8998 36.6515 15.4772 37.1516 15.3638C39.6861 14.7891 41.7754 12.929 42.7155 10.5388C42.9163 10.0282 43.4489 9.69864 43.9776 9.84564C48.8014 11.187 53.2433 13.7256 56.8385 17.1544C57.2369 17.5343 57.2255 18.1623 56.8793 18.5902C56.1912 19.4405 55.6667 20.4222 55.4074 21.5353C55.1273 22.7379 55.0794 23.9405 55.3279 25.1431C55.4196 25.5869 55.2531 26.0549 54.8695 26.2962L35.9806 38.1764C35.668 38.373 35.2726 38.3813 34.952 38.1981L15.7378 27.2156C15.3016 26.9663 15.1253 26.4332 15.2626 25.9499C15.961 23.4915 15.3931 20.8519 13.7881 18.9397C13.4215 18.5029 13.3937 17.8467 13.806 17.4527C17.5799 13.8466 22.0415 11.2907 26.9577 9.86165ZM9.45648 29.6808C7.87973 30.1271 6.19036 29.904 4.72624 29.1229C1.79799 27.4492 0.784367 23.7669 2.47374 20.8658C3.59999 18.8573 5.62723 17.8531 7.76711 17.8531C8.78073 17.8531 9.79435 18.0763 10.808 18.6342C13.7362 20.3079 14.7498 23.9901 13.0605 26.8912C12.3847 28.2302 11.0332 29.2345 9.45648 29.6808ZM6.41561 61.2585C4.83886 60.8121 3.48736 59.8079 2.69899 58.4689C1.00962 55.5678 2.02324 51.8856 4.95149 50.1003C5.96511 49.5424 6.97873 49.3192 7.99235 49.3192C10.1322 49.3192 12.1595 50.435 13.2857 52.3319C14.0741 53.7825 14.2993 55.3446 13.9615 56.9068C13.511 58.4689 12.4973 59.8079 11.1458 60.589C9.68173 61.4816 7.99235 61.7048 6.41561 61.2585ZM35.4728 77.1031C32.0941 77.1031 29.2784 74.4251 29.2784 70.9661C29.2784 67.6186 31.9814 64.8291 35.4728 64.8291C38.9642 64.8291 41.6672 67.5071 41.6672 70.9661C41.6672 74.4251 38.8516 77.1031 35.4728 77.1031ZM44.1231 69.0202C43.5823 69.1778 43.034 68.8351 42.8342 68.3085C41.7223 65.377 38.8372 63.3785 35.5854 63.3785C32.2337 63.3785 29.4315 65.4657 28.3354 68.3307C28.1371 68.849 27.5999 69.1875 27.0654 69.0385C22.2475 67.6961 17.8111 65.1592 14.2197 61.734C13.8214 61.3541 13.8323 60.7258 14.1796 60.2988C14.8674 59.4533 15.3917 58.4918 15.6508 57.4647C15.9308 56.2627 15.9788 55.0607 15.7307 53.8587C15.6389 53.414 15.8064 52.9452 16.1913 52.7044L33.2666 42.0198C33.9326 41.603 34.7971 42.0818 34.7971 42.8675V59.0268C34.7971 59.4732 35.1349 59.8079 35.5854 59.8079C36.0359 59.8079 36.3738 59.4732 36.3738 59.0268V42.5627C36.3738 41.7948 37.2035 41.3134 37.8702 41.6946L55.3065 51.6647C55.7487 51.9175 55.9229 52.4609 55.7795 52.9497C55.3852 54.2938 55.3738 55.7498 55.7453 57.1299C55.9953 58.2032 56.4919 59.1543 57.1895 59.938C57.5846 60.3819 57.6353 61.0712 57.2048 61.481C53.4467 65.0577 49.0098 67.5959 44.1231 69.0202ZM68.5845 58.1342C66.8951 61.0353 63.1785 62.0395 60.2503 60.3658C58.7861 59.5847 57.7725 58.2458 57.322 56.6836C56.8715 55.1215 57.0968 53.4477 57.8851 52.1088C59.0114 50.1003 61.0386 49.096 63.1785 49.096C64.1921 49.096 65.2057 49.3192 66.2194 49.8771C69.1476 51.5508 70.2739 55.233 68.5845 58.1342Z" fill="#99CEFF"/>
</svg>
