<svg id="Group_152_copy" data-name="Group 152 copy" xmlns="http://www.w3.org/2000/svg" xmlns:xlink="http://www.w3.org/1999/xlink" viewBox="0 0 1026 555"><defs><linearGradient id="linear-gradient" x1="1027.33" y1="-8833.26" x2="1369.33" y2="-8833.26" gradientTransform="matrix(3, 0, 0, -3, -3082, -26222.28)" gradientUnits="userSpaceOnUse"><stop offset="0" stop-color="#3b4aff"/><stop offset="1" stop-color="#f00070"/></linearGradient></defs><title>People_TR</title><path d="M30,0h996L996,555H0Z" transform="translate(0 0)" style="fill:url(#linear-gradient)"/><path id="_150" data-name=" 150" d="M420.39,319.65a3,3,0,0,0,3.35-3.39V303.75a3,3,0,0,0-2.51-3.38,3,3,0,0,0-.84,0H396V193a5.14,5.14,0,0,0-.68-3,4,4,0,0,0-3.25-1H380.45a28.94,28.94,0,0,0-5,.4,16.56,16.56,0,0,0-4.63,1.57l-18.1,6.66a3.66,3.66,0,0,0-2.36,2.07,9.59,9.59,0,0,0-.39,2.86v6.67a2.8,2.8,0,0,0,.78,2.46,5.67,5.67,0,0,0,2.78.47h20.63v88.2H351.72a3,3,0,0,0-3.35,2.54,2.63,2.63,0,0,0,0,.84v12.51a3,3,0,0,0,3.34,3.39Zm85-31.19a19.51,19.51,0,0,1-6.2,8.37,20.7,20.7,0,0,1-9.14,3.83,67.07,67.07,0,0,1-11.32.89,158.3,158.3,0,0,1-16.72-.89q-8.46-.87-15.94-1.86a5,5,0,0,0-3.83.49,4.56,4.56,0,0,0-1.48,2.65l-1.38,7.66a7,7,0,0,0,.1,3.54,6.35,6.35,0,0,0,3.84,2.76,43.71,43.71,0,0,0,8.75,2.57q5,1,10.14,1.57c3.41.4,6.62.68,9.64.89s5.44.29,7.28.29A92.32,92.32,0,0,0,500.24,319a40.25,40.25,0,0,0,16.33-7.79,34.74,34.74,0,0,0,10.42-15,66.59,66.59,0,0,0,3.64-23.79q0-14.56-7.77-22.32a35.77,35.77,0,0,0-20.36-9.76l-37.38-5.51,4.13-26.76H520.6a3,3,0,0,0,3.51-2.47,3.09,3.09,0,0,0,0-.86V192.34a2.88,2.88,0,0,0-2.57-3.17,2.56,2.56,0,0,0-.78,0H456.07a6.68,6.68,0,0,0-4,1,5.6,5.6,0,0,0-1.67,3.73l-7.87,49.58a9.41,9.41,0,0,0,.69,5.51,6.77,6.77,0,0,0,5,2.75l43.28,7.29a26.68,26.68,0,0,1,11.9,4.72,12.45,12.45,0,0,1,4.23,10.42A37.51,37.51,0,0,1,505.35,288.46Zm106.41,29.61a41.37,41.37,0,0,0,13.87-8.94,43.08,43.08,0,0,0,8.85-12.8,73.91,73.91,0,0,0,4.92-14.85,94.31,94.31,0,0,0,2.06-15.24c.27-5.06.4-9.6.4-13.69A178.26,178.26,0,0,0,640.38,230a59.33,59.33,0,0,0-6.59-21,41.3,41.3,0,0,0-15-15.55q-9.93-6.06-27-6.09A48.94,48.94,0,0,0,572,191a41.63,41.63,0,0,0-13.47,9.15A43,43,0,0,0,550,212.91a75.64,75.64,0,0,0-4.72,14.38,88.51,88.51,0,0,0-2,13.85c-.26,4.48-.39,8.26-.39,11.41,0,4.61.13,9.52.39,14.77a110.08,110.08,0,0,0,1.87,15.45,67,67,0,0,0,4.62,14.55,41.45,41.45,0,0,0,8.56,12.39,37.94,37.94,0,0,0,13.58,8.55,55.18,55.18,0,0,0,19.77,3.15A53.48,53.48,0,0,0,611.76,318.07ZM606.25,210a21.39,21.39,0,0,1,8.46,9.47,45.59,45.59,0,0,1,3.83,15.09c.59,5.9.89,12.61.89,20.09a156.56,156.56,0,0,1-1.08,19.12,47.84,47.84,0,0,1-4.13,15,24,24,0,0,1-8.46,9.87,25.38,25.38,0,0,1-14.07,3.54,23.83,23.83,0,0,1-13.77-3.54,22.54,22.54,0,0,1-7.87-9.95,51.26,51.26,0,0,1-3.64-15.08,198.14,198.14,0,0,1,0-37.57,50.27,50.27,0,0,1,3.74-15.26,24.42,24.42,0,0,1,8-10.26,22.49,22.49,0,0,1,13.58-3.75A28.47,28.47,0,0,1,606.25,210Z" transform="translate(0 0)" style="fill:#fff"/><path d="M306.3,260.32h-.08a8.54,8.54,0,0,0-5.32,1.61,8.23,8.23,0,0,0-2.64,6.74v.09c0,7.5,4.4,13.93,8,13.93,3.75,0,8.59-6.76,8.59-13.93v-.08a7.94,7.94,0,0,0-3-6.78A9.45,9.45,0,0,0,306.3,260.32Z" transform="translate(0 0)" style="fill:none"/><path d="M265.9,202.6a7.88,7.88,0,0,0-3-6.78,9.4,9.4,0,0,0-5.54-1.58h-.08a8.61,8.61,0,0,0-5.33,1.59,8.27,8.27,0,0,0-2.64,6.76v.09c0,7.5,4.41,13.93,8,13.93s8.57-6.76,8.57-13.93Z" transform="translate(0 0)" style="fill:none"/><path d="M314.85,202.6a7.94,7.94,0,0,0-3-6.78,9.43,9.43,0,0,0-5.55-1.58h-.08a8.56,8.56,0,0,0-5.32,1.59,8.3,8.3,0,0,0-2.64,6.76v.09c0,7.5,4.4,13.93,8,13.93,3.75,0,8.59-6.76,8.59-13.93Z" transform="translate(0 0)" style="fill:none"/><path d="M257.36,260.32h-.07a8.57,8.57,0,0,0-5.34,1.61,8.23,8.23,0,0,0-2.64,6.74v.09c0,7.5,4.41,13.93,8,13.93s8.57-6.76,8.57-13.93v-.08a7.94,7.94,0,0,0-3-6.78A9.33,9.33,0,0,0,257.36,260.32Z" transform="translate(0 0)" style="fill:none"/><path d="M314.85,257.79a14.59,14.59,0,0,0-8.58-2.53,13.71,13.71,0,0,0-8.59,2.7l-.06.05a13.4,13.4,0,0,0-4.5,10.78c0,9,5.63,19,13.14,19,3.63,0,7.13-2.28,9.85-6.41A23.93,23.93,0,0,0,320,268.79a12.72,12.72,0,0,0-5.08-11Zm0,10.89v.08c0,7.17-4.84,13.93-8.59,13.93-3.6,0-8-6.43-8-13.93v-.09a8.23,8.23,0,0,1,2.64-6.74,8.54,8.54,0,0,1,5.32-1.61h.08a9.45,9.45,0,0,1,5.55,1.58A7.94,7.94,0,0,1,314.85,268.68Z" transform="translate(0 0)" style="fill:#fff"/><path d="M332.25,315.61a2.51,2.51,0,0,0-1.7-.93,2.57,2.57,0,0,0-.48,0H326V302.61a10.35,10.35,0,0,0-3.58-7.79,24.21,24.21,0,0,0-31.77,0,10.33,10.33,0,0,0-3.58,7.79v8a2.57,2.57,0,0,0,5.13,0V302.6a5.25,5.25,0,0,1,1.83-4,19.07,19.07,0,0,1,25,0,5.25,5.25,0,0,1,1.82,4v12.06H277.07V302.61a10.35,10.35,0,0,0-3.58-7.79,24.21,24.21,0,0,0-31.77,0,10.33,10.33,0,0,0-3.58,7.79v8a2.57,2.57,0,1,0,5.14,0v-8a5.24,5.24,0,0,1,1.82-4,19.06,19.06,0,0,1,25,0,5.22,5.22,0,0,1,1.83,4v12.06H234a2.56,2.56,0,0,0-2.73,2.27,2.54,2.54,0,0,0,2.26,2.8l.27,0h96.28a2.56,2.56,0,0,0,2.73-2.27A2.48,2.48,0,0,0,332.25,315.61Z" transform="translate(0 0)" style="fill:#fff"/><path d="M265.92,257.78a14.66,14.66,0,0,0-8.59-2.52,13.8,13.8,0,0,0-8.6,2.7l-.06.05a13.35,13.35,0,0,0-4.48,10.78,24.46,24.46,0,0,0,3.6,12.68c2.55,4.06,5.94,6.3,9.54,6.3s7.12-2.28,9.84-6.41A23.88,23.88,0,0,0,271,268.79a12.77,12.77,0,0,0-5.08-11Zm0,10.9v.08c0,7.17-4.83,13.93-8.57,13.93s-8-6.43-8-13.93v-.09a8.23,8.23,0,0,1,2.64-6.74,8.57,8.57,0,0,1,5.34-1.61h.07a9.33,9.33,0,0,1,5.54,1.58A7.94,7.94,0,0,1,265.9,268.68Z" transform="translate(0 0)" style="fill:#fff"/><path d="M247.79,215.38c2.55,4.06,5.94,6.29,9.54,6.29s7.12-2.27,9.84-6.4A23.87,23.87,0,0,0,271,202.71a12.74,12.74,0,0,0-5.08-11l0,0a14.71,14.71,0,0,0-8.59-2.55,13.78,13.78,0,0,0-8.6,2.72l-.06.05a13.29,13.29,0,0,0-4.48,10.78A24.48,24.48,0,0,0,247.79,215.38Zm9.54,1.23c-3.61,0-8-6.43-8-13.93v-.09a8.27,8.27,0,0,1,2.64-6.76,8.61,8.61,0,0,1,5.33-1.59h.08a9.4,9.4,0,0,1,5.54,1.58,7.88,7.88,0,0,1,3,6.78v.08C265.9,209.85,261.07,216.61,257.33,216.61Z" transform="translate(0 0)" style="fill:#fff"/><path d="M306.26,221.67c3.63,0,7.13-2.27,9.85-6.4A24,24,0,0,0,320,202.71a12.69,12.69,0,0,0-5.12-11,14.51,14.51,0,0,0-8.58-2.55,13.75,13.75,0,0,0-8.59,2.72l-.06.05a13.34,13.34,0,0,0-4.5,10.78C293.13,211.67,298.75,221.67,306.26,221.67Zm0-5.06c-3.6,0-8-6.43-8-13.93v-.09a8.3,8.3,0,0,1,2.64-6.76,8.56,8.56,0,0,1,5.32-1.59h.08a9.43,9.43,0,0,1,5.55,1.58,7.94,7.94,0,0,1,3,6.78v.08C314.85,209.85,310,216.61,306.26,216.61Z" transform="translate(0 0)" style="fill:#fff"/><path d="M233.94,253.65h96.18a2.53,2.53,0,0,0,0-5.06H326V236.53a10.3,10.3,0,0,0-3.58-7.79,24.21,24.21,0,0,0-31.77,0,10.3,10.3,0,0,0-3.58,7.79v8a2.6,2.6,0,0,0,.77,1.81,2.51,2.51,0,0,0,1.81.73,2.59,2.59,0,0,0,2.55-2.55v-7.94a5.26,5.26,0,0,1,1.83-4,19.06,19.06,0,0,1,25,0,5.3,5.3,0,0,1,1.82,4v12.06H277.07V236.53a10.3,10.3,0,0,0-3.58-7.79,24.21,24.21,0,0,0-31.77,0,10.3,10.3,0,0,0-3.58,7.79v8a2.57,2.57,0,1,0,5.14,0v-8a5.25,5.25,0,0,1,1.82-4,19.06,19.06,0,0,1,25,0,5.28,5.28,0,0,1,1.83,4v12.06h-38a2.53,2.53,0,0,0,0,5.06Z" transform="translate(0 0)" style="fill:#fff"/><path d="M360.25,377a1.46,1.46,0,0,1-.2.78.92.92,0,0,1-.84.32H355.1c-.77,0-1.15-.36-1.15-1.1V354.83h-2.66c-.73,0-1.1-.39-1.1-1.16V350.9c0-.77.37-1.16,1.1-1.16H354v-3.06a13.51,13.51,0,0,1,.55-4,7.53,7.53,0,0,1,1.76-3.06,7.94,7.94,0,0,1,3.15-2,13.84,13.84,0,0,1,4.71-.7q.57,0,1.47.06a16.58,16.58,0,0,1,1.88.23c.65.12,1.32.26,2,.43s1.32.38,1.94.61a1.21,1.21,0,0,1,.75.72,1.72,1.72,0,0,1,0,.9l-.4,2.31c-.12.39-.3.62-.55.69a2.62,2.62,0,0,1-1.13,0c-1.19-.15-2.22-.26-3.09-.31s-1.5-.09-1.88-.09a5.22,5.22,0,0,0-3.76,1.13,5,5,0,0,0-1.15,3.67v2.42h6.87a1,1,0,0,1,.84.29,1.39,1.39,0,0,1,.21.81v2.83a1.45,1.45,0,0,1-.21.9,1,1,0,0,1-.84.26h-6.87Z" transform="translate(0 0)" style="fill:#fff"/><path d="M389.91,374.77a19.4,19.4,0,0,1-5,2.71,15.76,15.76,0,0,1-5.69,1,10.6,10.6,0,0,1-3.84-.6,6.07,6.07,0,0,1-2.43-1.68,6.27,6.27,0,0,1-1.27-2.57,13.84,13.84,0,0,1-.38-3.35c0-3.39.85-5.85,2.66-7.37s4.55-2.28,8.21-2.28h7.4v-1.52a8.16,8.16,0,0,0-.26-2.19,3,3,0,0,0-1-1.49,4.1,4.1,0,0,0-1.85-.81,15,15,0,0,0-2.94-.23c-.47,0-1,0-1.71.05l-2.08.12c-.71,0-1.42.09-2.14.17s-1.35.14-1.93.17a3.44,3.44,0,0,1-1.19,0c-.21-.05-.35-.29-.43-.72l-.52-2.11a1.26,1.26,0,0,1,.11-.94,2.68,2.68,0,0,1,1.22-.78,14.67,14.67,0,0,1,2.19-.57c.85-.15,1.72-.27,2.6-.37s1.77-.17,2.63-.23,1.65-.08,2.35-.08a19.33,19.33,0,0,1,6,.75,7.41,7.41,0,0,1,3.38,2.11,6.81,6.81,0,0,1,1.5,3.32,25.45,25.45,0,0,1,.35,4.39V370.9a9.26,9.26,0,0,0,.08,1.35,1.86,1.86,0,0,0,.29.76,1.2,1.2,0,0,0,.61.37,5.1,5.1,0,0,0,1.1.17,1.73,1.73,0,0,1,.86.24.72.72,0,0,1,.24.63v2.43c0,.65-.47,1.06-1.39,1.21-.46.08-.93.15-1.39.2a10.25,10.25,0,0,1-1.33.09,6.22,6.22,0,0,1-3.26-.75,4.12,4.12,0,0,1-1.71-2.77Zm-.35-9.6h-7.05a5.39,5.39,0,0,0-3.47,1c-.85.67-1.27,1.95-1.27,3.84a3.52,3.52,0,0,0,.78,2.63,4.15,4.15,0,0,0,2.8.72,10.26,10.26,0,0,0,2-.23,15.08,15.08,0,0,0,2.19-.64c.73-.27,1.45-.56,2.14-.89s1.31-.65,1.85-1Z" transform="translate(0 0)" style="fill:#fff"/><path d="M423.44,372.69c.77,0,1.15.34,1.15,1V377a1,1,0,0,1-1.1,1.1H403.32a.87.87,0,0,1-1-1v-2.54a4.88,4.88,0,0,1,.09-.93,2.14,2.14,0,0,1,.55-1L416.85,355h-12.6a1,1,0,0,1-1.1-1.1v-3.12c0-.69.37-1,1.1-1h19a1.48,1.48,0,0,1,.83.18c.18.11.26.38.26.81v2.83a3,3,0,0,1-.69,1.91l-13.52,17.22Z" transform="translate(0 0)" style="fill:#fff"/><path d="M435.5,370.9c0,.88.21,1.43.61,1.64a4.84,4.84,0,0,0,2.11.32,2.74,2.74,0,0,1,.84.17.94.94,0,0,1,.32.58l.23,2.95a1.12,1.12,0,0,1-.75,1.1,6.12,6.12,0,0,1-1.91.55,15.72,15.72,0,0,1-1.85.14q-3.3,0-4.6-1.47a6.57,6.57,0,0,1-1.3-4.42v-34a1,1,0,0,1,1.1-1.1h4.11a1,1,0,0,1,1.09,1.1Z" transform="translate(0 0)" style="fill:#fff"/><path d="M461.54,374.77a19.34,19.34,0,0,1-4.94,2.71,15.8,15.8,0,0,1-5.69,1,10.62,10.62,0,0,1-3.85-.6,6.07,6.07,0,0,1-2.43-1.68,6.4,6.4,0,0,1-1.27-2.57,13.86,13.86,0,0,1-.37-3.35c0-3.39.84-5.85,2.66-7.37s4.54-2.28,8.2-2.28h7.4v-1.52A8.16,8.16,0,0,0,461,357a3,3,0,0,0-.95-1.49,4.15,4.15,0,0,0-1.85-.81,15.06,15.06,0,0,0-2.95-.23c-.46,0-1,0-1.71.05l-2.08.12c-.71,0-1.42.09-2.13.17s-1.36.14-1.94.17a3.38,3.38,0,0,1-1.18,0c-.22-.05-.36-.29-.44-.72l-.52-2.11a1.21,1.21,0,0,1,.12-.94,2.63,2.63,0,0,1,1.21-.78,14.82,14.82,0,0,1,2.2-.57c.84-.15,1.71-.27,2.6-.37s1.76-.17,2.63-.23,1.64-.08,2.34-.08a19.28,19.28,0,0,1,6,.75A7.41,7.41,0,0,1,465.7,352a6.81,6.81,0,0,1,1.5,3.32,25.45,25.45,0,0,1,.35,4.39V370.9a7.84,7.84,0,0,0,.09,1.35,1.73,1.73,0,0,0,.28.76,1.2,1.2,0,0,0,.61.37,5.2,5.2,0,0,0,1.1.17,1.82,1.82,0,0,1,.87.24.74.74,0,0,1,.23.63v2.43c0,.65-.46,1.06-1.39,1.21-.46.08-.92.15-1.39.2a10.25,10.25,0,0,1-1.33.09,6.27,6.27,0,0,1-3.26-.75,4.12,4.12,0,0,1-1.71-2.77Zm-.35-9.6h-7.05a5.41,5.41,0,0,0-3.47,1c-.84.67-1.27,1.95-1.27,3.84a3.52,3.52,0,0,0,.78,2.63,4.18,4.18,0,0,0,2.81.72,10.17,10.17,0,0,0,2-.23,15.08,15.08,0,0,0,2.19-.64c.74-.27,1.45-.56,2.14-.89s1.31-.65,1.85-1Z" transform="translate(0 0)" style="fill:#fff"/><path d="M506.62,364.94h-5.73l-3,12.25q-.18.87-.81.87h-3c-.65,0-.92-.33-.8-1l3-12.14H490q-.93,0-.69-.75l.63-2.54a1.08,1.08,0,0,1,1.16-.87h6.12l1.39-5.66h-6.18a1.16,1.16,0,0,1-.67-.15c-.13-.09-.16-.31-.08-.66l.69-2.43a1.56,1.56,0,0,1,.4-.66,1.12,1.12,0,0,1,.75-.21h6.13l2.49-10.34a1.58,1.58,0,0,1,.28-.66.9.9,0,0,1,.7-.21h3c.62,0,.85.33.7,1L504.36,351H510l2.55-10.34a1.46,1.46,0,0,1,.29-.66.86.86,0,0,1,.69-.21h3q.91,0,.75.87L514.71,351h6.35q1.05,0,.81.87l-.63,2.43a1.33,1.33,0,0,1-.35.61,1.05,1.05,0,0,1-.69.2h-6.48l-1.44,5.66h6.41c.66,0,.91.31.76.93l-.64,2.42a1,1,0,0,1-1,.81H511.3l-3,12.25a1.69,1.69,0,0,1-.29.67.7.7,0,0,1-.58.2h-2.94c-.74,0-1-.33-.81-1Zm-4.69-4.16h5.73l1.38-5.66h-5.72Z" transform="translate(0 0)" style="fill:#fff"/><path d="M544.57,364.31l3.51-7.52,7.84-16a2.55,2.55,0,0,1,.67-.86,2,2,0,0,1,1.24-.29h3.35a.83.83,0,0,1,.78.32,1.27,1.27,0,0,1,.21.72V377a1.38,1.38,0,0,1-.21.78c-.13.22-.41.32-.84.32h-4.21c-.78,0-1.16-.36-1.16-1.1V353.79h-.17l-2,4.45-6.34,12.94a2.62,2.62,0,0,1-.66.81,1.58,1.58,0,0,1-1,.29h-2.19a1.8,1.8,0,0,1-1.1-.26,2.51,2.51,0,0,1-.63-.72l-6.57-13.47-1.91-4H533V377a1.38,1.38,0,0,1-.21.78c-.13.22-.41.32-.84.32h-4.26a1,1,0,0,1-1.11-1.1V340.73a.92.92,0,0,1,1-1h3.62a2.38,2.38,0,0,1,1.22.23,2,2,0,0,1,.64.87L541,357l3.4,7.34Z" transform="translate(0 0)" style="fill:#fff"/><path d="M574.81,365.64a14.25,14.25,0,0,0,.5,3.64,5.08,5.08,0,0,0,1.3,2.28,4.9,4.9,0,0,0,2.13,1.19,11.88,11.88,0,0,0,3.07.34,36.28,36.28,0,0,0,3.7-.23l3.81-.4a2.35,2.35,0,0,1,1.13,0c.21.1.35.42.43,1l.35,1.91a2.2,2.2,0,0,1,0,1,1.64,1.64,0,0,1-1,.75,13.38,13.38,0,0,1-2,.6c-.77.18-1.58.32-2.43.44s-1.69.21-2.54.29-1.62.11-2.31.11a15.32,15.32,0,0,1-6.65-1.21,9.39,9.39,0,0,1-3.81-3.24,11.85,11.85,0,0,1-1.76-4.65,33.35,33.35,0,0,1-.44-5.46,35.91,35.91,0,0,1,.35-4.68,13.7,13.7,0,0,1,1.59-4.86,10.36,10.36,0,0,1,3.7-3.78,12.55,12.55,0,0,1,6.67-1.53,14.54,14.54,0,0,1,6.27,1.15,9.62,9.62,0,0,1,3.73,3,10.64,10.64,0,0,1,1.82,4.16,25.64,25.64,0,0,1,.55,4.65,4.55,4.55,0,0,1-.52,2.54,2.44,2.44,0,0,1-2.31,1Zm5.78-11.21a6.77,6.77,0,0,0-2.66.45,4.26,4.26,0,0,0-1.7,1.35,5.64,5.64,0,0,0-1,2.18,19.13,19.13,0,0,0-.41,2.89h11.44a13.29,13.29,0,0,0-.23-2.55,6.32,6.32,0,0,0-.83-2.2,4.31,4.31,0,0,0-1.74-1.55A6.46,6.46,0,0,0,580.59,354.43Z" transform="translate(0 0)" style="fill:#fff"/><path d="M615.27,375.87a1.25,1.25,0,0,1-.75,1.44,9.42,9.42,0,0,1-1.77.58c-.67.15-1.36.28-2.08.37s-1.38.17-2,.21-1.18,0-1.65,0a8.84,8.84,0,0,1-4-.72,4.74,4.74,0,0,1-2.11-2,7.55,7.55,0,0,1-.87-2.95,33.08,33.08,0,0,1-.17-3.52V354.83H597a1.14,1.14,0,0,1-.87-.26,1.26,1.26,0,0,1-.23-.84V350.9a1.41,1.41,0,0,1,.23-.87,1.07,1.07,0,0,1,.87-.29H600v-5.95a1.13,1.13,0,0,1,.32-.9,2,2,0,0,1,.78-.37l3.87-1c.77-.19,1.16,0,1.16.69v7.57h6.18c.47,0,.76.1.9.29a1.47,1.47,0,0,1,.2.81v2.89a1.4,1.4,0,0,1-.2.84,1.15,1.15,0,0,1-.9.26h-6.18v14.39a7.43,7.43,0,0,0,.17,1.79,1.73,1.73,0,0,0,.61,1,2.29,2.29,0,0,0,1.18.37c.5,0,1.14.06,1.91.06.43,0,1,0,1.82-.06s1.48-.1,2.05-.17a1,1,0,0,1,.7.11,1.17,1.17,0,0,1,.34.7Z" transform="translate(0 0)" style="fill:#fff"/><path d="M636.72,374.77a19.17,19.17,0,0,1-4.94,2.71,15.8,15.8,0,0,1-5.69,1,10.62,10.62,0,0,1-3.85-.6,6,6,0,0,1-2.42-1.68,6.29,6.29,0,0,1-1.28-2.57,13.86,13.86,0,0,1-.37-3.35q-.06-5.08,2.66-7.37t8.2-2.28h7.4v-1.52a8.16,8.16,0,0,0-.26-2.19,3,3,0,0,0-.95-1.49,4.1,4.1,0,0,0-1.85-.81,15,15,0,0,0-3-.23c-.46,0-1,0-1.7.05l-2.08.12c-.72,0-1.43.09-2.14.17s-1.36.14-1.94.17a3.38,3.38,0,0,1-1.18,0c-.22-.05-.36-.29-.44-.72l-.52-2.11a1.26,1.26,0,0,1,.12-.94,2.63,2.63,0,0,1,1.21-.78,14.82,14.82,0,0,1,2.2-.57c.84-.15,1.71-.27,2.6-.37s1.76-.17,2.63-.23,1.65-.08,2.34-.08a19.28,19.28,0,0,1,6,.75,7.41,7.41,0,0,1,3.38,2.11,6.81,6.81,0,0,1,1.5,3.32,24.49,24.49,0,0,1,.35,4.39V370.9a7.84,7.84,0,0,0,.09,1.35,1.73,1.73,0,0,0,.29.76,1.13,1.13,0,0,0,.6.37,5.2,5.2,0,0,0,1.1.17,1.82,1.82,0,0,1,.87.24.74.74,0,0,1,.23.63v2.43c0,.65-.46,1.06-1.39,1.21-.46.08-.92.15-1.38.2a10.49,10.49,0,0,1-1.33.09,6.28,6.28,0,0,1-3.27-.75,4.08,4.08,0,0,1-1.7-2.77Zm-.35-9.6h-7a5.36,5.36,0,0,0-3.46,1c-.85.67-1.28,1.95-1.28,3.84a3.52,3.52,0,0,0,.78,2.63,4.18,4.18,0,0,0,2.81.72,10.17,10.17,0,0,0,2-.23,15.58,15.58,0,0,0,2.2-.64c.73-.27,1.44-.56,2.13-.89s1.31-.65,1.85-1Z" transform="translate(0 0)" style="fill:#fff"/><path d="M671.71,340.85a1,1,0,0,1,1.15-1.16h4.34a.92.92,0,0,1,.84.32,1.57,1.57,0,0,1,.2.83V377a1.46,1.46,0,0,1-.2.78.92.92,0,0,1-.84.32h-4.34c-.77,0-1.15-.36-1.15-1.1V360.78H657.14V377a1.37,1.37,0,0,1-.2.78c-.13.22-.41.32-.84.32h-4.33c-.77,0-1.16-.36-1.16-1.1V340.84a1,1,0,0,1,1.16-1.15h4.33c.43,0,.71.1.84.32a1.49,1.49,0,0,1,.2.84v14.27h14.57Z" transform="translate(0 0)" style="fill:#fff"/><path d="M702.49,374.77a19.34,19.34,0,0,1-4.94,2.71,15.81,15.81,0,0,1-5.7,1,10.6,10.6,0,0,1-3.84-.6,6.07,6.07,0,0,1-2.43-1.68,6.4,6.4,0,0,1-1.27-2.57,13.86,13.86,0,0,1-.37-3.35q-.06-5.08,2.65-7.37c1.82-1.52,4.55-2.28,8.21-2.28h7.4v-1.52a8.16,8.16,0,0,0-.26-2.19,3,3,0,0,0-1-1.49,4.06,4.06,0,0,0-1.84-.81,15.13,15.13,0,0,0-2.95-.23c-.46,0-1,0-1.71.05l-2.08.12c-.71,0-1.42.09-2.14.17s-1.35.14-1.93.17a3.44,3.44,0,0,1-1.19,0c-.21-.05-.35-.29-.43-.72l-.52-2.11a1.21,1.21,0,0,1,.12-.94,2.58,2.58,0,0,1,1.21-.78,14.67,14.67,0,0,1,2.19-.57c.85-.15,1.72-.27,2.61-.37s1.76-.17,2.63-.23,1.64-.08,2.34-.08a19.33,19.33,0,0,1,6,.75,7.41,7.41,0,0,1,3.38,2.11,6.81,6.81,0,0,1,1.5,3.32,25.45,25.45,0,0,1,.35,4.39V370.9a9.26,9.26,0,0,0,.08,1.35,1.86,1.86,0,0,0,.29.76,1.2,1.2,0,0,0,.61.37,5.2,5.2,0,0,0,1.1.17,1.82,1.82,0,0,1,.87.24.74.74,0,0,1,.23.63v2.43c0,.65-.47,1.06-1.39,1.21-.46.08-.93.15-1.39.2a10.25,10.25,0,0,1-1.33.09,6.24,6.24,0,0,1-3.26-.75,4.12,4.12,0,0,1-1.71-2.77Zm-.35-9.6h-7a5.39,5.39,0,0,0-3.47,1c-.85.67-1.27,1.95-1.27,3.84a3.52,3.52,0,0,0,.78,2.63,4.15,4.15,0,0,0,2.8.72,10.26,10.26,0,0,0,2-.23,15.08,15.08,0,0,0,2.19-.64c.73-.27,1.45-.56,2.14-.89s1.31-.65,1.85-1Z" transform="translate(0 0)" style="fill:#fff"/><path d="M737.1,369.57a8.42,8.42,0,0,1-1,4.24,7.88,7.88,0,0,1-2.63,2.75,11.77,11.77,0,0,1-3.73,1.5,19.84,19.84,0,0,1-4.34.46,38.77,38.77,0,0,1-4.74-.31,18,18,0,0,1-4.21-1,2,2,0,0,1-1.1-.78,1.68,1.68,0,0,1-.12-1.12l.41-1.91c.07-.46.23-.74.46-.84a2,2,0,0,1,1,0c.62.12,1.3.21,2.05.29s1.5.15,2.25.2l2.14.15c.68,0,1.27.05,1.77.05a7.54,7.54,0,0,0,4-.78,2.75,2.75,0,0,0,1.22-2.51,5.67,5.67,0,0,0-.2-1.62,2.13,2.13,0,0,0-.73-1,4.12,4.12,0,0,0-1.41-.66,14.83,14.83,0,0,0-2.29-.44,38.72,38.72,0,0,1-4-.75,11.51,11.51,0,0,1-3.38-1.36,6.61,6.61,0,0,1-2.34-2.36,8.66,8.66,0,0,1,2.14-10.35,12.88,12.88,0,0,1,7.85-2.22c.58,0,1.26,0,2,.05s1.55.12,2.34.23,1.57.26,2.34.41a13.24,13.24,0,0,1,2.08.58c1,.38,1.37,1,1.21,1.73l-.46,2.08c-.08.43-.22.69-.43.78a2.19,2.19,0,0,1-1.13,0c-1.23-.15-2.58-.3-4-.43s-2.73-.2-3.81-.2c-1.85,0-3.07.25-3.67.78a3,3,0,0,0-.89,2.45,2.17,2.17,0,0,0,1.12,2.2,15.91,15.91,0,0,0,3.79.92c1.38.19,2.7.45,4,.75a10.92,10.92,0,0,1,3.32,1.39,6.92,6.92,0,0,1,2.31,2.49A8.52,8.52,0,0,1,737.1,369.57Z" transform="translate(0 0)" style="fill:#fff"/><path d="M765.18,378.06H761c-.78,0-1.17-.36-1.17-1.1q0-4.21,0-8.35c0-2.75,0-5.54,0-8.35a8.34,8.34,0,0,0-.78-3.9c-.52-1-1.65-1.47-3.38-1.47a7.11,7.11,0,0,0-2,.32c-.75.21-1.51.45-2.26.72s-1.45.56-2.11.86-1.17.54-1.56.7V377a1.22,1.22,0,0,1-.23.81,1,1,0,0,1-.87.29h-4.1c-.69,0-1-.36-1-1.1V338.42c0-.74.35-1.1,1-1.1h4.1c.78,0,1.16.36,1.16,1.1l0,14c.5-.31,1.11-.64,1.85-1s1.52-.71,2.37-1a18.82,18.82,0,0,1,2.67-.81,12.3,12.3,0,0,1,2.72-.32,10.43,10.43,0,0,1,4.75.9,6.43,6.43,0,0,1,2.64,2.4,9.05,9.05,0,0,1,1.16,3.49,33.07,33.07,0,0,1,.26,4.19V377C766.35,377.7,766,378.06,765.18,378.06Z" transform="translate(0 0)" style="fill:#fff"/><path d="M376,432a1,1,0,0,1-1.1,1.1h-4.1a1,1,0,0,1-.87-.29,1.22,1.22,0,0,1-.23-.81v-1.79l-.12-.06c-.58.39-1.24.78-2,1.19s-1.55.78-2.4,1.13a17.88,17.88,0,0,1-2.63.83,11.9,11.9,0,0,1-2.69.32,11,11,0,0,1-4.65-.81,5.8,5.8,0,0,1-2.57-2.25,8.36,8.36,0,0,1-1.1-3.41,37.18,37.18,0,0,1-.23-4.22v-17c0-.77.37-1.16,1.11-1.16h4.26c.69,0,1,.39,1,1.16v16.24a14.1,14.1,0,0,0,.17,2.37,4.53,4.53,0,0,0,.63,1.76,3.17,3.17,0,0,0,1.27,1.13,4.71,4.71,0,0,0,2.12.4,8,8,0,0,0,2.05-.29,18.36,18.36,0,0,0,2.21-.72q1.09-.44,2-.87c.62-.28,1.11-.52,1.5-.72V405.9a1.35,1.35,0,0,1,.23-.84,1,1,0,0,1,.87-.32h4.1c.73,0,1.1.39,1.1,1.16Zm-17.46-31.09a4.53,4.53,0,0,1-1.73-.26,2.23,2.23,0,0,1-1-.72,2.35,2.35,0,0,1-.44-1,9.46,9.46,0,0,1-.08-1.21,3.78,3.78,0,0,1,.6-2.2c.41-.58,1.29-.87,2.63-.87s2.22.28,2.6.84a3.82,3.82,0,0,1,.58,2.23,4.29,4.29,0,0,1-.58,2.28C360.73,400.55,359.86,400.87,358.51,400.87Zm11.16,0c-1.39,0-2.27-.32-2.63-1a4.52,4.52,0,0,1-.55-2.25,3.65,3.65,0,0,1,.63-2.2,3,3,0,0,1,2.55-.87c1.35,0,2.22.28,2.63.84a3.75,3.75,0,0,1,.6,2.23,4.38,4.38,0,0,1-.57,2.28C371.94,400.55,371.06,400.87,369.67,400.87Z" transform="translate(0 0)" style="fill:#fff"/><path d="M393.18,425c.43-1.19.82-2.31,1.19-3.35l.95-2.72c.31-.92.6-1.77.87-2.54l3.58-10.63a1.67,1.67,0,0,1,.46-.76,1.53,1.53,0,0,1,.93-.23h4.28c.46,0,.71.12.75.35a1.65,1.65,0,0,1-.12.81L392.6,442.66a1.82,1.82,0,0,1-.52.8,1.67,1.67,0,0,1-1,.24h-3.93c-.46,0-.72-.12-.78-.35a1.49,1.49,0,0,1,.09-.81l3.64-9.77L380,405.9a1.32,1.32,0,0,1-.09-.81c.06-.23.3-.35.72-.35H385a1.9,1.9,0,0,1,.81.12c.16.08.31.33.47.75l3.75,10.75L393,425Z" transform="translate(0 0)" style="fill:#fff"/><path d="M414.83,420.64a13.86,13.86,0,0,0,.49,3.64,5.17,5.17,0,0,0,1.3,2.28,4.94,4.94,0,0,0,2.14,1.19,11.75,11.75,0,0,0,3.06.34,36.28,36.28,0,0,0,3.7-.23l3.81-.4a2.34,2.34,0,0,1,1.13,0c.21.1.35.42.43,1l.35,1.91a2,2,0,0,1,0,1c-.1.27-.41.52-.95.75a13.38,13.38,0,0,1-2,.6c-.77.18-1.58.32-2.42.44s-1.7.21-2.55.29-1.61.11-2.31.11a15.24,15.24,0,0,1-6.64-1.21,9.35,9.35,0,0,1-3.82-3.24,11.85,11.85,0,0,1-1.76-4.65,33.37,33.37,0,0,1-.43-5.46,35.77,35.77,0,0,1,.34-4.68,13.7,13.7,0,0,1,1.59-4.86,10.36,10.36,0,0,1,3.7-3.78,12.55,12.55,0,0,1,6.67-1.53,14.56,14.56,0,0,1,6.28,1.15,9.66,9.66,0,0,1,3.72,3,10.5,10.5,0,0,1,1.82,4.16,25.64,25.64,0,0,1,.55,4.65,4.55,4.55,0,0,1-.52,2.54,2.44,2.44,0,0,1-2.31,1Zm5.77-11.21a6.71,6.71,0,0,0-2.65.45,4.23,4.23,0,0,0-1.71,1.35,5.64,5.64,0,0,0-.95,2.18,19.13,19.13,0,0,0-.41,2.89h11.45a14.14,14.14,0,0,0-.23-2.55,6.54,6.54,0,0,0-.84-2.2,4.31,4.31,0,0,0-1.74-1.55A6.46,6.46,0,0,0,420.6,409.43Z" transform="translate(0 0)" style="fill:#fff"/><path d="M458.78,424.57a8.31,8.31,0,0,1-1,4.24,7.71,7.71,0,0,1-2.63,2.75,11.72,11.72,0,0,1-3.72,1.5,19.91,19.91,0,0,1-4.34.46,38.77,38.77,0,0,1-4.74-.31,18.23,18.23,0,0,1-4.22-1,2,2,0,0,1-1.09-.78,1.68,1.68,0,0,1-.12-1.12l.41-1.91c.07-.46.23-.74.46-.84a2,2,0,0,1,1,0c.61.12,1.3.21,2.05.29s1.5.15,2.25.2l2.14.15c.68,0,1.26.05,1.76.05a7.58,7.58,0,0,0,4-.78,2.75,2.75,0,0,0,1.22-2.51,5.31,5.31,0,0,0-.21-1.62,2.05,2.05,0,0,0-.72-1,4.17,4.17,0,0,0-1.42-.66,14.44,14.44,0,0,0-2.28-.44,38.72,38.72,0,0,1-4-.75,11.51,11.51,0,0,1-3.38-1.36,6.53,6.53,0,0,1-2.34-2.36A8.68,8.68,0,0,1,440,406.39a12.93,12.93,0,0,1,7.86-2.22c.58,0,1.25,0,2,.05s1.55.12,2.34.23,1.57.26,2.34.41a13.24,13.24,0,0,1,2.08.58c1,.38,1.36,1,1.21,1.73l-.46,2.08c-.08.43-.22.69-.43.78a2.2,2.2,0,0,1-1.13,0c-1.23-.15-2.58-.3-4.05-.43s-2.73-.2-3.81-.2c-1.85,0-3.07.25-3.67.78a3.05,3.05,0,0,0-.9,2.45,2.17,2.17,0,0,0,1.13,2.2,15.78,15.78,0,0,0,3.79.92c1.38.19,2.7.45,3.95.75a11,11,0,0,1,3.33,1.39,6.92,6.92,0,0,1,2.31,2.49A8.52,8.52,0,0,1,458.78,424.57Z" transform="translate(0 0)" style="fill:#fff"/><path d="M470.35,397.23a6.68,6.68,0,0,1-.12,1.3,2.39,2.39,0,0,1-.49,1.07,2.43,2.43,0,0,1-1,.72,4.77,4.77,0,0,1-1.76.26,4.52,4.52,0,0,1-1.82-.29,2.45,2.45,0,0,1-1-.75,2.58,2.58,0,0,1-.46-1.07,6.29,6.29,0,0,1-.11-1.24,4,4,0,0,1,.66-2.34c.44-.64,1.36-.95,2.75-.95s2.35.3,2.77.89A4.11,4.11,0,0,1,470.35,397.23ZM470,432a1.46,1.46,0,0,1-.2.78.92.92,0,0,1-.84.32h-4.1c-.78,0-1.16-.36-1.16-1.1V405.84c0-.73.38-1.1,1.16-1.1H469a1,1,0,0,1,.84.32,1.46,1.46,0,0,1,.2.78Z" transform="translate(0 0)" style="fill:#fff"/><path d="M517.91,418.44a43.63,43.63,0,0,1-.32,5.14,12.75,12.75,0,0,1-1.59,4.89,9.68,9.68,0,0,1-3.8,3.64,14.59,14.59,0,0,1-7,1.41,13.81,13.81,0,0,1-6.81-1.41,9.65,9.65,0,0,1-3.72-3.64,13,13,0,0,1-1.53-4.89,48.09,48.09,0,0,1-.28-5.14,30.45,30.45,0,0,1,.37-4.51,13.06,13.06,0,0,1,1.64-4.65,10.48,10.48,0,0,1,3.72-3.64,12.82,12.82,0,0,1,6.61-1.47,14.91,14.91,0,0,1,6.71,1.27,9.66,9.66,0,0,1,3.84,3.32,12.23,12.23,0,0,1,1.76,4.59A31.32,31.32,0,0,1,517.91,418.44Zm-6.42.4a29.32,29.32,0,0,0-.23-4,7.15,7.15,0,0,0-.92-2.83,4.52,4.52,0,0,0-1.91-1.71,7.53,7.53,0,0,0-3.18-.58,6.79,6.79,0,0,0-3,.58,4.3,4.3,0,0,0-1.82,1.74,8,8,0,0,0-.93,2.86,26.85,26.85,0,0,0-.26,3.95,27.37,27.37,0,0,0,.26,4,8.06,8.06,0,0,0,.9,2.83,4.16,4.16,0,0,0,1.79,1.71,6.79,6.79,0,0,0,3,.58,8.12,8.12,0,0,0,3.21-.55,4.3,4.3,0,0,0,1.94-1.68,7.19,7.19,0,0,0,.92-2.86A30,30,0,0,0,511.49,418.84Z" transform="translate(0 0)" style="fill:#fff"/><path d="M529.59,425.9c0,.88.2,1.43.61,1.64a4.81,4.81,0,0,0,2.11.32,2.74,2.74,0,0,1,.84.17.89.89,0,0,1,.31.58l.24,2.95a1.13,1.13,0,0,1-.76,1.1,6.06,6.06,0,0,1-1.9.55,15.72,15.72,0,0,1-1.85.14q-3.3,0-4.6-1.47a6.57,6.57,0,0,1-1.3-4.42v-34a1,1,0,0,1,1.1-1.1h4.11a1,1,0,0,1,1.09,1.1Z" transform="translate(0 0)" style="fill:#fff"/><path d="M561.7,432a1.35,1.35,0,0,1-.21.81c-.13.2-.41.29-.83.29H556.5a.91.91,0,0,1-1-1v-1.82a.12.12,0,0,1-.09,0,.12.12,0,0,0-.09,0c-.5.34-1.1.71-1.79,1.11a18.87,18.87,0,0,1-2.25,1.12,16.52,16.52,0,0,1-2.52.83,10.81,10.81,0,0,1-2.57.31,9.42,9.42,0,0,1-4.65-1,7.36,7.36,0,0,1-2.89-2.86,13,13,0,0,1-1.5-4.48,36.37,36.37,0,0,1-.44-5.92,37.69,37.69,0,0,1,.49-6.33,12.74,12.74,0,0,1,1.77-4.77,7.93,7.93,0,0,1,3.49-3,13.91,13.91,0,0,1,5.75-1,20.42,20.42,0,0,1,7.17,1.33s.06,0,.06,0,0,0,.06,0v-12a1.46,1.46,0,0,1,.2-.86c.13-.19.43-.29.89-.29h4.11c.46,0,.75.11.86.32a1.67,1.67,0,0,1,.18.83Zm-6.3-21.26a24,24,0,0,0-3.63-.78,23.47,23.47,0,0,0-3-.21,6.82,6.82,0,0,0-2.67.47,3.56,3.56,0,0,0-1.74,1.56,8.42,8.42,0,0,0-.93,2.93,29,29,0,0,0-.29,4.55,30.23,30.23,0,0,0,.26,4.5,6.6,6.6,0,0,0,.84,2.6,3,3,0,0,0,1.39,1.22,5.3,5.3,0,0,0,2,.32,8,8,0,0,0,2-.29c.74-.19,1.47-.42,2.21-.69s1.42-.56,2.06-.85,1.17-.55,1.6-.78Z" transform="translate(0 0)" style="fill:#fff"/><path d="M591,433.06h-4.1a1,1,0,0,1-.87-.29,1.28,1.28,0,0,1-.23-.81v-1.79l-.12-.06c-.57.39-1.24.78-2,1.19s-1.55.78-2.4,1.13a17.88,17.88,0,0,1-2.63.83,11.84,11.84,0,0,1-2.69.32,11,11,0,0,1-4.65-.81,5.86,5.86,0,0,1-2.57-2.25,8.52,8.52,0,0,1-1.1-3.41,37.18,37.18,0,0,1-.23-4.22v-17c0-.77.37-1.16,1.11-1.16h4.26c.7,0,1,.39,1,1.16v16.24a14.1,14.1,0,0,0,.17,2.37,4.53,4.53,0,0,0,.63,1.76,3.17,3.17,0,0,0,1.27,1.13,4.73,4.73,0,0,0,2.13.4,7.94,7.94,0,0,0,2-.29,17.8,17.8,0,0,0,2.21-.72q1.09-.44,2-.87t1.5-.72V405.9a1.42,1.42,0,0,1,.23-.84,1,1,0,0,1,.87-.32H591c.73,0,1.1.39,1.1,1.16V432A1,1,0,0,1,591,433.06Z" transform="translate(0 0)" style="fill:#fff"/><path d="M657.36,203.14c0,.43-.25.64-.75.64h-2.48a.56.56,0,0,1-.64-.64l-.58-10.81q0-.75.81-.75h3.47c.35,0,.56.1.64.29a1.48,1.48,0,0,1,.11.46Z" transform="translate(0 0)" style="fill:#fff"/><path d="M687,228.8a1.42,1.42,0,0,1-.2.81,1,1,0,0,1-.84.29h-4.16a.91.91,0,0,1-1-1V227a.12.12,0,0,1-.09,0l-.09,0c-.5.34-1.1.71-1.79,1.11a21.44,21.44,0,0,1-2.25,1.12,16.52,16.52,0,0,1-2.52.83,10.81,10.81,0,0,1-2.57.31,9.53,9.53,0,0,1-4.65-1,7.49,7.49,0,0,1-2.89-2.86,13.27,13.27,0,0,1-1.5-4.48,40.19,40.19,0,0,1,.06-12.25,12.57,12.57,0,0,1,1.76-4.77,8,8,0,0,1,3.49-3,14.08,14.08,0,0,1,5.75-1,20.64,20.64,0,0,1,7.17,1.33s.06,0,.06,0,0,0,.06,0v-12a1.51,1.51,0,0,1,.2-.87c.13-.19.43-.28.89-.28h4.11c.46,0,.75.1.86.31a1.72,1.72,0,0,1,.18.84Zm-6.3-21.26a22.77,22.77,0,0,0-6.68-1,7,7,0,0,0-2.67.46,3.58,3.58,0,0,0-1.74,1.57,8.35,8.35,0,0,0-.93,2.93,37.3,37.3,0,0,0,0,9,6.66,6.66,0,0,0,.84,2.61,3,3,0,0,0,1.39,1.22,5.51,5.51,0,0,0,2,.32,8,8,0,0,0,2-.29c.74-.2,1.47-.43,2.21-.7s1.42-.55,2.06-.84,1.17-.55,1.6-.78Z" transform="translate(0 0)" style="fill:#fff"/><path d="M698.55,217.47a13.74,13.74,0,0,0,.49,3.64,5.15,5.15,0,0,0,1.3,2.29,4.82,4.82,0,0,0,2.14,1.18,11.71,11.71,0,0,0,3.06.35,36.28,36.28,0,0,0,3.7-.23l3.81-.41a2.44,2.44,0,0,1,1.13,0c.21.1.35.42.43,1l.35,1.9a2,2,0,0,1,0,1c-.1.27-.41.52-.95.75a12.29,12.29,0,0,1-2,.61c-.77.17-1.58.32-2.42.43s-1.7.22-2.55.29-1.61.12-2.31.12a15.39,15.39,0,0,1-6.64-1.21,9.35,9.35,0,0,1-3.82-3.24,11.85,11.85,0,0,1-1.76-4.65,33.54,33.54,0,0,1-.43-5.46,36,36,0,0,1,.34-4.69,13.65,13.65,0,0,1,1.59-4.85,10.46,10.46,0,0,1,3.7-3.79,12.56,12.56,0,0,1,6.68-1.53,14.53,14.53,0,0,1,6.27,1.16,9.66,9.66,0,0,1,3.72,3,10.5,10.5,0,0,1,1.82,4.16,25.64,25.64,0,0,1,.55,4.65,4.55,4.55,0,0,1-.52,2.54,2.43,2.43,0,0,1-2.31,1Zm5.78-11.21a6.72,6.72,0,0,0-2.66.46,4.14,4.14,0,0,0-1.71,1.35,5.64,5.64,0,0,0-1,2.18,19,19,0,0,0-.41,2.89h11.45a14.14,14.14,0,0,0-.23-2.55,6.59,6.59,0,0,0-.84-2.21,4.22,4.22,0,0,0-1.74-1.54A6.3,6.3,0,0,0,704.33,206.26Z" transform="translate(0 0)" style="fill:#fff"/><path d="M745.7,229.61a1.08,1.08,0,0,1-.87.29h-4.2a1,1,0,0,1-1.11-1.1l.06-16.24a8.65,8.65,0,0,0-.84-4.1c-.56-1-1.67-1.56-3.32-1.56a7.84,7.84,0,0,0-2,.29,19.55,19.55,0,0,0-2.25.72c-.75.29-1.46.58-2.11.87s-1.18.53-1.56.72v19.3a1,1,0,0,1-1.1,1.1h-4.1a1,1,0,0,1-1.1-1.1V202.74c0-.77.37-1.16,1.1-1.16h4.1c.73,0,1.1.39,1.1,1.16v1.73a.12.12,0,0,1,.09,0s0,0,.08,0a17.78,17.78,0,0,1,2-1.19,24.2,24.2,0,0,1,2.4-1.12,16.6,16.6,0,0,1,2.67-.84,12.23,12.23,0,0,1,2.72-.32,9.93,9.93,0,0,1,4.64.9,6.21,6.21,0,0,1,2.55,2.39,9,9,0,0,1,1.1,3.5,35.19,35.19,0,0,1,.23,4.19V228.8A1.22,1.22,0,0,1,745.7,229.61Z" transform="translate(0 0)" style="fill:#fff"/><path d="M371.15,175.17a1.61,1.61,0,0,0-1.31-1.83,32.81,32.81,0,0,0-4.15-.41c-1.14-.1-1.52-.7-1.12-1.79l1.72-4.87c-.9-.05-1.86-.12-2.88-.22s-2.07-.24-3.14-.41-2.14-.39-3.21-.64a16.31,16.31,0,0,1-3-1c-1.25-.5-1.94-1-2.09-1.42a3.31,3.31,0,0,1,0-1.72l.89-4.34c.25-1,.55-1.54.9-1.64a5.68,5.68,0,0,1,2,.07l3,.34c1.1.12,2.22.23,3.37.33s2.29.19,3.44.27,2.24.11,3.29.11q3.81,0,5.57-1.2a4.06,4.06,0,0,0,1.76-3.59,5.79,5.79,0,0,0-.37-2.21,3.49,3.49,0,0,0-1.24-1.45,7.82,7.82,0,0,0-2.17-1,29.46,29.46,0,0,0-3.18-.79c-2.14-.45-4.26-1-6.35-1.61a20.33,20.33,0,0,1-5.61-2.58,12.66,12.66,0,0,1-4-4.26,12.92,12.92,0,0,1-1.54-6.66,15.87,15.87,0,0,1,1.27-6.5,12.66,12.66,0,0,1,3.63-4.75,16.52,16.52,0,0,1,5.72-2.92,26.13,26.13,0,0,1,7.48-1c.7,0,1.61,0,2.73,0s2.35.11,3.67.26a40.48,40.48,0,0,1,4,.67,22.48,22.48,0,0,1,3.85,1.2c1.24.45,1.94.91,2.09,1.38a4,4,0,0,1,.08,1.76l-1,4.41a3.21,3.21,0,0,1-.38,1.09,1.06,1.06,0,0,1-.59.45,2.7,2.7,0,0,1-.94.07c-.37,0-.81-.06-1.31-.11-1.69-.25-3.43-.45-5.19-.6s-3.81-.22-6.1-.22a9.18,9.18,0,0,0-4.9,1,3.81,3.81,0,0,0-1.61,3.44,4.87,4.87,0,0,0,.34,1.95,3,3,0,0,0,1.12,1.27,6.72,6.72,0,0,0,2.06.86c.85.23,1.89.46,3.14.71q3.21.68,6.36,1.57a20.24,20.24,0,0,1,5.61,2.54,12.7,12.7,0,0,1,4,4.38,14.54,14.54,0,0,1,1.53,7.14,15.69,15.69,0,0,1-1.42,7,12.7,12.7,0,0,1-3.85,4.67,17.26,17.26,0,0,1-5.57,2.69,31.3,31.3,0,0,1-6.59,1.12l-1.12,3a13.59,13.59,0,0,1,4,.59,6.16,6.16,0,0,1,2.4,1.39,4.12,4.12,0,0,1,1.12,1.87,8.63,8.63,0,0,1,.26,2.13,7.27,7.27,0,0,1-2.47,5.61c-1.64,1.49-4.24,2.24-7.78,2.24-.4,0-.86,0-1.38,0s-1.08-.07-1.68-.15-1.19-.17-1.76-.29-1.08-.27-1.53-.42-.78-.5-.68-.89l.68-3.07c.05-.35.35-.5.89-.45l2.47.3a21.4,21.4,0,0,0,2.32.15,8.63,8.63,0,0,0,3.07-.52C370.7,177.37,371.15,176.52,371.15,175.17Z" transform="translate(0 0)" style="fill:#fff"/><path d="M408.1,119a9.34,9.34,0,0,1-.23,2,4.07,4.07,0,0,1-.86,1.8,4.45,4.45,0,0,1-1.79,1.27,8,8,0,0,1-3,.49,8.54,8.54,0,0,1-3.14-.49,4.14,4.14,0,0,1-2.66-3.1,11.08,11.08,0,0,1-.18-2,6.44,6.44,0,0,1,1.19-3.93q1.2-1.6,4.79-1.61a9.14,9.14,0,0,1,3,.41A4.54,4.54,0,0,1,407,115a3.74,3.74,0,0,1,.89,1.76A10.13,10.13,0,0,1,408.1,119Zm-.37,45a2.4,2.4,0,0,1-.27,1.12c-.17.35-.58.53-1.23.53H398a1.56,1.56,0,0,1-1.31-.45,2,2,0,0,1-.33-1.2V130.37a2,2,0,0,1,.33-1.23,1.67,1.67,0,0,1,1.31-.41h8.23c.65,0,1.06.19,1.23.56a2.49,2.49,0,0,1,.27,1.08Z" transform="translate(0 0)" style="fill:#fff"/><path d="M471.63,165.19c-.17.32-.58.49-1.23.49h-8.23a1.63,1.63,0,0,1-1.31-.42,1.8,1.8,0,0,1-.33-1.16V144.44c0-2.3-.35-3.82-1-4.57a4.13,4.13,0,0,0-3.14-1.12,10,10,0,0,0-3.29.71,28.46,28.46,0,0,0-3.37,1.46V164.1a2.31,2.31,0,0,1-.26,1.09c-.18.32-.61.49-1.31.49h-8.23a1.51,1.51,0,0,1-1.23-.42,1.8,1.8,0,0,1-.34-1.16V144.21c0-2.09-.34-3.53-1-4.3a3.86,3.86,0,0,0-3.05-1.16,10.42,10.42,0,0,0-3.28.67,26.49,26.49,0,0,0-3.5,1.5V164.1a2,2,0,0,1-.3,1.09c-.2.32-.64.49-1.34.49h-8.17a1.48,1.48,0,0,1-1.22-.42,1.75,1.75,0,0,1-.34-1.16V130.45a1.92,1.92,0,0,1,.34-1.2,1.43,1.43,0,0,1,1.22-.45h8.17c.7,0,1.14.18,1.34.53a2.21,2.21,0,0,1,.3,1.12v1.72l.15.07a19,19,0,0,1,5.23-3,15.94,15.94,0,0,1,5.76-1.09,13.25,13.25,0,0,1,5.91,1.24,7.67,7.67,0,0,1,3.74,3.85,24.86,24.86,0,0,1,5.95-3.63,16.55,16.55,0,0,1,6.69-1.46,12.17,12.17,0,0,1,6.17,1.31,8.45,8.45,0,0,1,3.29,3.4,12.55,12.55,0,0,1,1.31,4.71c.15,1.75.22,3.5.22,5.24V164.1A2.2,2.2,0,0,1,471.63,165.19Z" transform="translate(0 0)" style="fill:#fff"/><path d="M513.25,164.1a2.31,2.31,0,0,1-.26,1.09c-.18.32-.62.49-1.32.49h-8.28a1.52,1.52,0,0,1-1.21-.38,1.76,1.76,0,0,1-.3-1.12v-1.94a.18.18,0,0,1-.11,0,.12.12,0,0,0-.11,0,22.84,22.84,0,0,1-5.24,3,14.22,14.22,0,0,1-5.38,1.12,12.58,12.58,0,0,1-6.25-1.38A9.93,9.93,0,0,1,481,161a17.4,17.4,0,0,1-1.91-5.87,49,49,0,0,1-.52-7.44,53.92,53.92,0,0,1,.56-8.12,15.84,15.84,0,0,1,2.21-6.21,10.87,10.87,0,0,1,4.63-4,18.37,18.37,0,0,1,7.78-1.42,25.26,25.26,0,0,1,4.45.34,30.11,30.11,0,0,1,3.63.86l.07-.08V114.59a2.34,2.34,0,0,1,.3-1.23,1.41,1.41,0,0,1,1.28-.49h8.21q1.05,0,1.32.57a2.75,2.75,0,0,1,.26,1.15Zm-11.44-25.5a22.56,22.56,0,0,0-3.29-.67,23.11,23.11,0,0,0-2.54-.15,8,8,0,0,0-2.7.41,3.65,3.65,0,0,0-1.83,1.5,7.56,7.56,0,0,0-1,2.91,38,38,0,0,0,0,9.2,7.34,7.34,0,0,0,.83,2.62,2.62,2.62,0,0,0,1.42,1.23,6,6,0,0,0,2,.3,8.28,8.28,0,0,0,1.87-.22c.65-.15,1.29-.34,1.94-.56s1.26-.48,1.84-.75l1.53-.71Z" transform="translate(0 0)" style="fill:#fff"/><path d="M533.22,119a10,10,0,0,1-.22,2,4.2,4.2,0,0,1-.87,1.8,4.45,4.45,0,0,1-1.79,1.27,8,8,0,0,1-3,.49,8.54,8.54,0,0,1-3.14-.49,4.14,4.14,0,0,1-2.66-3.1,11.08,11.08,0,0,1-.18-2,6.44,6.44,0,0,1,1.19-3.93q1.2-1.6,4.79-1.61a9.14,9.14,0,0,1,3,.41A4.54,4.54,0,0,1,532.1,115a3.85,3.85,0,0,1,.9,1.76A10.82,10.82,0,0,1,533.22,119Zm-.37,45a2.4,2.4,0,0,1-.27,1.12c-.17.35-.58.53-1.23.53h-8.23a1.56,1.56,0,0,1-1.31-.45,2,2,0,0,1-.33-1.2V130.37a2,2,0,0,1,.33-1.23,1.67,1.67,0,0,1,1.31-.41h8.23c.65,0,1.06.19,1.23.56a2.49,2.49,0,0,1,.27,1.08Z" transform="translate(0 0)" style="fill:#fff"/><path d="M575.33,164.1a2.2,2.2,0,0,1-.27,1.09c-.17.32-.61.49-1.32.49h-8.28a1.49,1.49,0,0,1-1.2-.38,1.76,1.76,0,0,1-.3-1.12v-1.94a.16.16,0,0,1-.11,0,.16.16,0,0,0-.12,0,22.78,22.78,0,0,1-5.23,3,14.27,14.27,0,0,1-5.39,1.12,12.54,12.54,0,0,1-6.24-1.38,10,10,0,0,1-3.82-3.85,17.4,17.4,0,0,1-1.9-5.87,48.93,48.93,0,0,1-.53-7.44,53.92,53.92,0,0,1,.56-8.12,16,16,0,0,1,2.21-6.21,10.9,10.9,0,0,1,4.64-4,18.3,18.3,0,0,1,7.78-1.42,25.42,25.42,0,0,1,4.45.34,29.5,29.5,0,0,1,3.62.86l.08-.08V114.59a2.34,2.34,0,0,1,.3-1.23,1.41,1.41,0,0,1,1.28-.49h8.2q1.07,0,1.32.57a2.62,2.62,0,0,1,.27,1.15Zm-11.45-25.5a22.3,22.3,0,0,0-3.29-.67,23,23,0,0,0-2.54-.15,7.89,7.89,0,0,0-2.69.41,3.71,3.71,0,0,0-1.84,1.5,7.56,7.56,0,0,0-1,2.91,30.75,30.75,0,0,0-.29,4.75,29.41,29.41,0,0,0,.26,4.45,7.35,7.35,0,0,0,.82,2.62,2.66,2.66,0,0,0,1.42,1.23,6,6,0,0,0,2,.3,8.28,8.28,0,0,0,1.87-.22c.65-.15,1.3-.34,1.95-.56s1.26-.48,1.83-.75l1.53-.71Z" transform="translate(0 0)" style="fill:#fff"/><path d="M593.8,149.89a9.57,9.57,0,0,0,.67,3.52,5.42,5.42,0,0,0,1.61,2.13,5.49,5.49,0,0,0,2.47,1.05,19.41,19.41,0,0,0,3.33.26c1.14,0,2.51-.07,4.11-.22s3.16-.33,4.71-.53a4.55,4.55,0,0,1,1.87,0c.25.12.47.66.67,1.61l.6,3.51a4.32,4.32,0,0,1,0,2c-.15.48-.8.94-1.94,1.39-.75.25-1.64.48-2.66.71s-2.07.41-3.14.56-2.16.26-3.25.34-2.1.11-3,.11a22.42,22.42,0,0,1-9.09-1.57,13.43,13.43,0,0,1-5.39-4.15,14.78,14.78,0,0,1-2.58-6,37.3,37.3,0,0,1-.67-7.14,46.31,46.31,0,0,1,.45-6.06,17.12,17.12,0,0,1,2.17-6.35,13.77,13.77,0,0,1,5.12-5q3.4-2,9.31-2a20.81,20.81,0,0,1,8.68,1.53,13.14,13.14,0,0,1,5.12,4,14.42,14.42,0,0,1,2.51,5.5,27.56,27.56,0,0,1,.67,6,6.2,6.2,0,0,1-.86,3.55c-.57.82-1.66,1.23-3.25,1.23Zm5.38-13.08a4.55,4.55,0,0,0-3.85,1.6,8.45,8.45,0,0,0-1.38,4.75h10.39a8.49,8.49,0,0,0-1.12-4.52C602.47,137.42,601.13,136.81,599.18,136.81Z" transform="translate(0 0)" style="fill:#fff"/><path d="M656.73,165.19c-.17.32-.61.49-1.31.49H647.2c-1.1,0-1.65-.53-1.65-1.58q0-4.93,0-9.79c0-3.24,0-6.51,0-9.8,0-2.09-.37-3.58-1.09-4.45a4.27,4.27,0,0,0-3.48-1.31,10.41,10.41,0,0,0-3.89.86c-1.39.58-2.54,1-3.44,1.31V164.1a2.2,2.2,0,0,1-.26,1.09c-.17.32-.61.49-1.31.49H624a1.63,1.63,0,0,1-1.31-.42,1.8,1.8,0,0,1-.33-1.16V130.45a2,2,0,0,1,.33-1.2,1.56,1.56,0,0,1,1.31-.45h8.15c.7,0,1.14.18,1.31.53a2.4,2.4,0,0,1,.26,1.12v1.79a.21.21,0,0,1,.12,0,.12.12,0,0,0,.11,0,20.71,20.71,0,0,1,5.76-3,18.24,18.24,0,0,1,6-1.16,12.66,12.66,0,0,1,6.25,1.31,8.52,8.52,0,0,1,3.4,3.44,12.74,12.74,0,0,1,1.38,4.75,51,51,0,0,1,.26,5.23V164.1A2.2,2.2,0,0,1,656.73,165.19Z" transform="translate(0 0)" style="fill:#fff"/></svg>