<svg id="Group_152_copy" data-name="Group 152 copy" xmlns="http://www.w3.org/2000/svg" xmlns:xlink="http://www.w3.org/1999/xlink" viewBox="0 0 1026 555"><defs><linearGradient id="linear-gradient" x1="1027.33" y1="-8833.26" x2="1369.33" y2="-8833.26" gradientTransform="matrix(3, 0, 0, -3, -3082, -26222.28)" gradientUnits="userSpaceOnUse"><stop offset="0" stop-color="#3b4aff"/><stop offset="1" stop-color="#f00070"/></linearGradient></defs><title>People_ES</title><path d="M30,0h996L996,555H0Z" transform="translate(0 0)" style="fill:url(#linear-gradient)"/><path id="_150" data-name=" 150" d="M502.59,293.33a3,3,0,0,0,3.35-3.39V277.43a3,3,0,0,0-3.35-3.38H478.2V166.62a5.21,5.21,0,0,0-.69-3,4,4,0,0,0-3.25-1h-11.6a30.16,30.16,0,0,0-5,.39,16.73,16.73,0,0,0-4.62,1.58l-18.1,6.66a3.68,3.68,0,0,0-2.37,2.07,9.87,9.87,0,0,0-.39,2.86v6.66a2.81,2.81,0,0,0,.79,2.47,5.84,5.84,0,0,0,2.77.47h20.63v88.2H433.92a3,3,0,0,0-3.35,2.54,3.37,3.37,0,0,0,0,.84v12.51a3,3,0,0,0,2.51,3.38,3.29,3.29,0,0,0,.83,0Zm85-31.19a19.67,19.67,0,0,1-6.2,8.37,20.74,20.74,0,0,1-9.15,3.83,67,67,0,0,1-11.31.89,158.49,158.49,0,0,1-16.73-.89q-8.46-.87-15.93-1.87a5,5,0,0,0-3.84.5,4.51,4.51,0,0,0-1.47,2.65l-1.38,7.66a6.86,6.86,0,0,0,.1,3.54,6.33,6.33,0,0,0,3.83,2.76,43.8,43.8,0,0,0,8.76,2.57c3.34.65,6.72,1.18,10.13,1.57s6.62.68,9.64.89,5.44.29,7.28.29a91.78,91.78,0,0,0,21.15-2.26,40.06,40.06,0,0,0,16.33-7.79,34.82,34.82,0,0,0,10.43-15,66.82,66.82,0,0,0,3.64-23.79q0-14.56-7.77-22.33A35.82,35.82,0,0,0,584.7,214l-37.38-5.51,4.13-26.76H602.8a3,3,0,0,0,3.52-2.47,2.75,2.75,0,0,0,0-.86V166a2.88,2.88,0,0,0-2.56-3.17,2.91,2.91,0,0,0-.78,0H538.27a6.64,6.64,0,0,0-4,1,5.53,5.53,0,0,0-1.67,3.73l-7.87,49.58a9.21,9.21,0,0,0,.69,5.5,6.73,6.73,0,0,0,5,2.76l43.28,7.29a26.6,26.6,0,0,1,11.91,4.72,12.48,12.48,0,0,1,4.23,10.41A37.75,37.75,0,0,1,587.56,262.14ZM694,291.75a41.32,41.32,0,0,0,13.87-8.94,42.84,42.84,0,0,0,8.85-12.8,74.12,74.12,0,0,0,4.92-14.85,95.46,95.46,0,0,0,2.07-15.24c.26-5.06.39-9.6.39-13.69a176.41,176.41,0,0,0-1.47-22.51,59.35,59.35,0,0,0-6.6-21,41.32,41.32,0,0,0-15-15.56q-9.93-6-27.05-6.08a48.69,48.69,0,0,0-19.67,3.54,41.62,41.62,0,0,0-13.48,9.15,43.3,43.3,0,0,0-8.56,12.78A77.23,77.23,0,0,0,627.46,201a89.83,89.83,0,0,0-2,13.86c-.26,4.48-.39,8.26-.39,11.41,0,4.61.13,9.52.39,14.76a109.72,109.72,0,0,0,1.87,15.45A66.36,66.36,0,0,0,632,271a41.1,41.1,0,0,0,8.56,12.38,37.71,37.71,0,0,0,13.57,8.55,55,55,0,0,0,19.77,3.15A53.47,53.47,0,0,0,694,291.75Zm-5.51-108.1a21.28,21.28,0,0,1,8.46,9.47,45.8,45.8,0,0,1,3.84,15.08q.88,8.87.88,20.1a154.59,154.59,0,0,1-1.08,19.12,47.84,47.84,0,0,1-4.13,15,23.79,23.79,0,0,1-8.46,9.86,25.26,25.26,0,0,1-14.07,3.54,23.77,23.77,0,0,1-13.77-3.54,22.53,22.53,0,0,1-7.87-9.94,51.65,51.65,0,0,1-3.64-15.08,199.81,199.81,0,0,1,0-37.57,50.41,50.41,0,0,1,3.74-15.27,24.47,24.47,0,0,1,8-10.25,22.37,22.37,0,0,1,13.57-3.75A28.35,28.35,0,0,1,688.45,183.65Z" transform="translate(0 0)" style="fill:#fff"/><path d="M820.56,234.6h-.07a8.7,8.7,0,0,0-5.4,1.63,8.36,8.36,0,0,0-2.68,6.84v.09c0,7.61,4.46,14.14,8.12,14.14s8.71-6.86,8.71-14.14v-.07a8.06,8.06,0,0,0-3-6.89A9.65,9.65,0,0,0,820.56,234.6Z" transform="translate(0 0)" style="fill:none"/><path d="M779.58,176a8,8,0,0,0-3-6.88,9.59,9.59,0,0,0-5.62-1.6h-.08a8.64,8.64,0,0,0-5.41,1.62,8.35,8.35,0,0,0-2.68,6.85v.09c0,7.61,4.47,14.14,8.13,14.14s8.7-6.86,8.7-14.14Z" transform="translate(0 0)" style="fill:none"/><path d="M829.24,176.05a8,8,0,0,0-3-6.89,9.63,9.63,0,0,0-5.64-1.6h-.08a8.6,8.6,0,0,0-5.39,1.62,8.41,8.41,0,0,0-2.68,6.85v.09c0,7.61,4.46,14.14,8.12,14.14s8.71-6.86,8.71-14.14Z" transform="translate(0 0)" style="fill:none"/><path d="M770.92,234.6h-.08a8.65,8.65,0,0,0-5.41,1.63,8.33,8.33,0,0,0-2.68,6.84v.09c0,7.61,4.47,14.14,8.13,14.14s8.7-6.86,8.7-14.14v-.07a8.09,8.09,0,0,0-3-6.89A9.52,9.52,0,0,0,770.92,234.6Z" transform="translate(0 0)" style="fill:none"/><path d="M829.24,232a14.78,14.78,0,0,0-8.71-2.56,13.8,13.8,0,0,0-8.7,2.74l-.07,0a13.55,13.55,0,0,0-4.56,10.94c0,9.09,5.71,19.25,13.33,19.25,3.68,0,7.23-2.31,10-6.5a24.25,24.25,0,0,0,3.92-12.75,12.9,12.9,0,0,0-5.16-11.14Zm0,11.06v.07c0,7.28-4.91,14.14-8.71,14.14s-8.12-6.53-8.12-14.14v-.09a8.36,8.36,0,0,1,2.68-6.84,8.7,8.7,0,0,1,5.4-1.63h.07a9.65,9.65,0,0,1,5.64,1.6A8.06,8.06,0,0,1,829.24,243.09Z" transform="translate(0 0)" style="fill:#fff"/><path d="M846.9,290.7a2.56,2.56,0,0,0-1.73-.95,2,2,0,0,0-.49,0h-4.11V277.5a10.49,10.49,0,0,0-3.63-7.9,24.56,24.56,0,0,0-32.23,0,10.49,10.49,0,0,0-3.63,7.91v8.07a2.56,2.56,0,0,0,.77,1.83,2.6,2.6,0,0,0,4.43-1.84v-8.06a5.3,5.3,0,0,1,1.86-4,19.34,19.34,0,0,1,25.37,0,5.33,5.33,0,0,1,1.85,4v12.24H790.91V277.5a10.49,10.49,0,0,0-3.63-7.9,24.56,24.56,0,0,0-32.23,0,10.46,10.46,0,0,0-3.63,7.91v8.06a2.61,2.61,0,1,0,5.21,0v-8.06a5.29,5.29,0,0,1,1.85-4,19.33,19.33,0,0,1,25.37,0,5.3,5.3,0,0,1,1.86,4v12.24h-38.5a2.58,2.58,0,0,0-.48,5.14h97.95a2.61,2.61,0,0,0,2.78-2.31A2.58,2.58,0,0,0,846.9,290.7Z" transform="translate(0 0)" style="fill:#fff"/><path d="M779.6,232a14.83,14.83,0,0,0-8.71-2.56,14,14,0,0,0-8.72,2.74l-.07,0a13.55,13.55,0,0,0-4.55,10.94,24.87,24.87,0,0,0,3.66,12.86c2.59,4.12,6,6.39,9.67,6.39s7.23-2.31,10-6.5a24.18,24.18,0,0,0,3.92-12.75,13,13,0,0,0-5.15-11.14Zm0,11.06v.07c0,7.28-4.9,14.14-8.7,14.14s-8.13-6.53-8.13-14.14v-.09a8.33,8.33,0,0,1,2.68-6.84,8.65,8.65,0,0,1,5.41-1.63h.08a9.52,9.52,0,0,1,5.62,1.6A8.09,8.09,0,0,1,779.58,243.09Z" transform="translate(0 0)" style="fill:#fff"/><path d="M761.21,189c2.59,4.11,6,6.38,9.67,6.38s7.23-2.31,10-6.49a24.15,24.15,0,0,0,3.92-12.74A12.92,12.92,0,0,0,779.64,165l0,0a14.94,14.94,0,0,0-8.71-2.58,14,14,0,0,0-8.73,2.76l-.06.05a13.51,13.51,0,0,0-4.55,10.94A24.86,24.86,0,0,0,761.21,189Zm9.67,1.25c-3.66,0-8.13-6.53-8.13-14.14V176a8.35,8.35,0,0,1,2.68-6.85,8.64,8.64,0,0,1,5.41-1.62h.08a9.59,9.59,0,0,1,5.62,1.6,8,8,0,0,1,3,6.88v.08C779.58,183.4,774.68,190.26,770.88,190.26Z" transform="translate(0 0)" style="fill:#fff"/><path d="M820.53,195.39c3.68,0,7.23-2.31,10-6.49a24.24,24.24,0,0,0,3.92-12.74,12.9,12.9,0,0,0-5.2-11.17,14.73,14.73,0,0,0-8.71-2.58,13.92,13.92,0,0,0-8.71,2.76l-.06.05a13.5,13.5,0,0,0-4.56,10.94C807.21,185.24,812.91,195.39,820.53,195.39Zm0-5.13c-3.66,0-8.12-6.53-8.12-14.14V176a8.41,8.41,0,0,1,2.68-6.85,8.6,8.6,0,0,1,5.39-1.62h.08a9.63,9.63,0,0,1,5.64,1.6,8,8,0,0,1,3,6.89v.07C829.24,183.4,824.33,190.26,820.53,190.26Z" transform="translate(0 0)" style="fill:#fff"/><path d="M747.16,227.84h97.57a2.57,2.57,0,1,0,0-5.13h-4.16V210.46a10.44,10.44,0,0,0-3.63-7.9,24.56,24.56,0,0,0-32.23,0,10.43,10.43,0,0,0-3.63,7.91v8.07a2.59,2.59,0,0,0,2.62,2.58,2.61,2.61,0,0,0,2.58-2.59v-8.06a5.36,5.36,0,0,1,1.86-4,19.36,19.36,0,0,1,25.37,0,5.41,5.41,0,0,1,1.85,4.06v12.24H790.91V210.46a10.44,10.44,0,0,0-3.63-7.9,24.56,24.56,0,0,0-32.23,0,10.43,10.43,0,0,0-3.63,7.91v8.06a2.61,2.61,0,1,0,5.21,0v-8.06a5.34,5.34,0,0,1,1.85-4,19.34,19.34,0,0,1,25.37,0,5.35,5.35,0,0,1,1.86,4.05v12.24H747.16a2.57,2.57,0,1,0,0,5.13Z" transform="translate(0 0)" style="fill:#fff"/><path d="M203.27,293.64a1,1,0,0,1-.83.29h-4.16a1,1,0,0,1-1.1-1.1V276.42c0-2.16-.29-3.61-.87-4.37a3.65,3.65,0,0,0-3.06-1.12,6.4,6.4,0,0,0-1.82.29c-.68.19-1.35.41-2,.66a18.72,18.72,0,0,0-1.93.84l-1.62.81c0,.31,0,.71,0,1.21s0,1.08,0,1.74v16.35a1.28,1.28,0,0,1-.23.81,1.09,1.09,0,0,1-.87.29h-4.22c-.65,0-1-.37-1-1.1v-16.7a7.49,7.49,0,0,0-.81-3.93,3.28,3.28,0,0,0-3-1.27,7.54,7.54,0,0,0-1.7.23,14.06,14.06,0,0,0-2,.64c-.67.26-1.33.55-2,.86l-1.79.87v19.3a1,1,0,0,1-1.1,1.1h-4.16c-.69,0-1-.37-1-1.1V266.77c0-.77.35-1.16,1-1.16h4.1a1,1,0,0,1,1.16,1.16v1.67l.06.06c.58-.38,1.19-.78,1.85-1.18a13.45,13.45,0,0,1,2.11-1.07,19.17,19.17,0,0,1,2.28-.78,11.06,11.06,0,0,1,2.37-.38,12.73,12.73,0,0,1,4.54.78,6.62,6.62,0,0,1,3.38,3.27,28,28,0,0,1,4.79-2.84,12.75,12.75,0,0,1,5.38-1.21,9.81,9.81,0,0,1,4.5.87,6.17,6.17,0,0,1,2.55,2.34,8.77,8.77,0,0,1,1.1,3.44,36.07,36.07,0,0,1,.23,4.1v17A1.35,1.35,0,0,1,203.27,293.64Z" transform="translate(0 0)" style="fill:#fff"/><path d="M216.3,258.1a7.68,7.68,0,0,1-.11,1.3,2.46,2.46,0,0,1-.5,1.07,2.37,2.37,0,0,1-1,.72,5,5,0,0,1-1.76.26,4.7,4.7,0,0,1-1.82-.29,2.42,2.42,0,0,1-1-.75,2.51,2.51,0,0,1-.46-1.07,6.36,6.36,0,0,1-.12-1.24,3.92,3.92,0,0,1,.67-2.34c.44-.64,1.35-1,2.74-1s2.35.3,2.78.9A4.11,4.11,0,0,1,216.3,258.1ZM216,292.83a1.37,1.37,0,0,1-.2.78.92.92,0,0,1-.84.32h-4.1c-.77,0-1.16-.37-1.16-1.1V266.71c0-.73.39-1.1,1.16-1.1h4.1a.92.92,0,0,1,.84.32,1.37,1.37,0,0,1,.2.78Z" transform="translate(0 0)" style="fill:#fff"/><path d="M227.9,281.5a14.17,14.17,0,0,0,.49,3.64,5.15,5.15,0,0,0,1.3,2.29,4.82,4.82,0,0,0,2.14,1.18,11.82,11.82,0,0,0,3.06.35,36.28,36.28,0,0,0,3.7-.23l3.81-.41a2.44,2.44,0,0,1,1.13,0c.21.1.36.42.44,1l.34,1.9a2,2,0,0,1,0,1c-.09.27-.41.52-.95.75a12.15,12.15,0,0,1-2,.61c-.77.17-1.58.32-2.43.43s-1.7.22-2.54.29-1.62.12-2.32.12a15.42,15.42,0,0,1-6.64-1.21,9.35,9.35,0,0,1-3.82-3.24,12,12,0,0,1-1.76-4.65,33.54,33.54,0,0,1-.43-5.46,34.49,34.49,0,0,1,.35-4.69,13.84,13.84,0,0,1,1.58-4.85,10.54,10.54,0,0,1,3.7-3.79,12.58,12.58,0,0,1,6.68-1.53,14.53,14.53,0,0,1,6.27,1.16,9.69,9.69,0,0,1,3.73,3,10.79,10.79,0,0,1,1.82,4.16,26.56,26.56,0,0,1,.55,4.65,4.73,4.73,0,0,1-.52,2.54,2.46,2.46,0,0,1-2.32,1Zm5.78-11.21a6.72,6.72,0,0,0-2.66.46,4.36,4.36,0,0,0-1.71,1.35,5.64,5.64,0,0,0-.95,2.18,19.2,19.2,0,0,0-.4,2.89H239.4a14.14,14.14,0,0,0-.23-2.55,6.59,6.59,0,0,0-.84-2.21,4.2,4.2,0,0,0-1.73-1.54A6.35,6.35,0,0,0,233.68,270.29Z" transform="translate(0 0)" style="fill:#fff"/><path d="M291.87,293.64a1,1,0,0,1-.84.29h-4.16a1,1,0,0,1-1.1-1.1V276.42c0-2.16-.29-3.61-.87-4.37a3.62,3.62,0,0,0-3.06-1.12,6.4,6.4,0,0,0-1.82.29c-.67.19-1.35.41-2,.66a18.89,18.89,0,0,0-1.94.84l-1.62.81c0,.31,0,.71,0,1.21s0,1.08,0,1.74v16.35a1.28,1.28,0,0,1-.23.81,1.07,1.07,0,0,1-.87.29h-4.21c-.66,0-1-.37-1-1.1v-16.7a7.49,7.49,0,0,0-.81-3.93,3.28,3.28,0,0,0-3-1.27,7.62,7.62,0,0,0-1.71.23,14,14,0,0,0-2,.64c-.68.26-1.34.55-2,.86l-1.8.87v19.3a1,1,0,0,1-1.09,1.1h-4.17c-.69,0-1-.37-1-1.1V266.77c0-.77.35-1.16,1-1.16h4.11a1,1,0,0,1,1.15,1.16v1.67l.06.06c.58-.38,1.2-.78,1.85-1.18a14.39,14.39,0,0,1,2.11-1.07,19.17,19.17,0,0,1,2.28-.78,11.06,11.06,0,0,1,2.37-.38,12.69,12.69,0,0,1,4.54.78,6.58,6.58,0,0,1,3.38,3.27,27.72,27.72,0,0,1,4.8-2.84,12.67,12.67,0,0,1,5.37-1.21,9.86,9.86,0,0,1,4.51.87,6.14,6.14,0,0,1,2.54,2.34,8.61,8.61,0,0,1,1.1,3.44,36.07,36.07,0,0,1,.23,4.1v17A1.42,1.42,0,0,1,291.87,293.64Z" transform="translate(0 0)" style="fill:#fff"/><path d="M322.92,279.54a32.33,32.33,0,0,1-.55,6.3,11.68,11.68,0,0,1-1.94,4.68,8.75,8.75,0,0,1-3.81,2.92,16.29,16.29,0,0,1-6.18,1c-.93,0-1.9,0-2.92-.09s-2-.15-3-.29-1.92-.29-2.83-.49a22.25,22.25,0,0,1-2.4-.63,2.18,2.18,0,0,1-1.27-1.1,3.79,3.79,0,0,1-.29-1.45V254.34c0-.73.39-1.1,1.16-1.1H303a1.12,1.12,0,0,1,.93.32,1.31,1.31,0,0,1,.23.78v12.14a21.37,21.37,0,0,1,4-1.1,20.68,20.68,0,0,1,3.18-.29,14.07,14.07,0,0,1,5.84,1,8.46,8.46,0,0,1,3.55,2.95,11.46,11.46,0,0,1,1.77,4.56A35.51,35.51,0,0,1,322.92,279.54Zm-6.59.52a28.14,28.14,0,0,0-.29-4.34,9,9,0,0,0-.89-2.88,3.88,3.88,0,0,0-1.59-1.62,5.52,5.52,0,0,0-2.37-.58q-.93,0-1.68,0c-.5,0-1,.07-1.53.14s-1.09.19-1.71.32l-2.13.49v16.7c.92.16,1.89.27,2.92.35s2,.12,2.91.12a10.82,10.82,0,0,0,2.6-.29,4.09,4.09,0,0,0,2-1.19,6,6,0,0,0,1.3-2.63A18.43,18.43,0,0,0,316.33,280.06Z" transform="translate(0 0)" style="fill:#fff"/><path d="M334.85,292.83a1,1,0,0,1-1.11,1.1h-4.19a1,1,0,0,1-1.11-1.1V266.77c0-.77.37-1.16,1.11-1.16h4.14a1,1,0,0,1,1.16,1.16v2.54l.12.12a12.67,12.67,0,0,1,1.67-1.25,20.56,20.56,0,0,1,2.23-1.21c.79-.37,1.59-.7,2.4-1a12.16,12.16,0,0,1,2.25-.64,1.47,1.47,0,0,1,.93.06c.23.12.38.42.46.92l.4,3.88a2.26,2.26,0,0,1-.05.92c-.08.19-.43.35-1.05.46-.8.16-1.65.34-2.54.55s-1.75.45-2.6.7l-2.37.72a16.08,16.08,0,0,0-1.85.69Z" transform="translate(0 0)" style="fill:#fff"/><path d="M373,279.31a43.63,43.63,0,0,1-.32,5.14,12.7,12.7,0,0,1-1.59,4.88,9.63,9.63,0,0,1-3.8,3.65,14.61,14.61,0,0,1-7,1.41,13.8,13.8,0,0,1-6.8-1.41,9.61,9.61,0,0,1-3.72-3.65,12.63,12.63,0,0,1-1.53-4.88,48.16,48.16,0,0,1-.29-5.14,30.56,30.56,0,0,1,.38-4.51,13,13,0,0,1,1.64-4.65,10.4,10.4,0,0,1,3.72-3.64,12.66,12.66,0,0,1,6.6-1.48,15.06,15.06,0,0,1,6.72,1.27,9.59,9.59,0,0,1,3.83,3.33,12.06,12.06,0,0,1,1.76,4.59A30.17,30.17,0,0,1,373,279.31Zm-6.42.4a30.9,30.9,0,0,0-.23-4,7.26,7.26,0,0,0-.93-2.84,4.35,4.35,0,0,0-1.9-1.7,7.38,7.38,0,0,0-3.18-.58,6.67,6.67,0,0,0-3,.58,4.27,4.27,0,0,0-1.82,1.73,8.23,8.23,0,0,0-.92,2.86,27.09,27.09,0,0,0-.26,4,27.57,27.57,0,0,0,.26,4,8.27,8.27,0,0,0,.89,2.83,4.11,4.11,0,0,0,1.8,1.7,6.65,6.65,0,0,0,3,.58,8,8,0,0,0,3.21-.55,4.14,4.14,0,0,0,1.93-1.67,7.25,7.25,0,0,0,.93-2.86A31.9,31.9,0,0,0,366.54,279.71Z" transform="translate(0 0)" style="fill:#fff"/><path d="M398.94,285.43a8.43,8.43,0,0,1-1,4.25,8,8,0,0,1-2.63,2.75,11.87,11.87,0,0,1-3.73,1.5,19.84,19.84,0,0,1-4.34.46,38.88,38.88,0,0,1-4.74-.32,18.58,18.58,0,0,1-4.21-.95,2,2,0,0,1-1.1-.78,1.7,1.7,0,0,1-.12-1.13l.41-1.9c.07-.47.23-.75.46-.84a1.92,1.92,0,0,1,1,0c.62.11,1.3.21,2.05.29l2.25.2c.76.06,1.47.11,2.14.14s1.26.06,1.77.06a7.64,7.64,0,0,0,4-.78,2.77,2.77,0,0,0,1.22-2.51,5.58,5.58,0,0,0-.2-1.62,2.13,2.13,0,0,0-.73-1,4.31,4.31,0,0,0-1.41-.67,16.3,16.3,0,0,0-2.29-.43,38.72,38.72,0,0,1-4-.75,11.79,11.79,0,0,1-3.38-1.36A6.56,6.56,0,0,1,378,277.6a7.48,7.48,0,0,1-.87-3.84,7.57,7.57,0,0,1,3-6.5A12.89,12.89,0,0,1,388,265c.57,0,1.25,0,2,.06s1.55.12,2.34.23,1.57.25,2.34.41a13.27,13.27,0,0,1,2.08.57c1,.39,1.37,1,1.21,1.74l-.46,2.08c-.08.42-.22.68-.43.78a2.2,2.2,0,0,1-1.13,0c-1.23-.16-2.58-.3-4.05-.44s-2.73-.2-3.81-.2c-1.85,0-3.07.26-3.67.78a3.09,3.09,0,0,0-.9,2.46,2.15,2.15,0,0,0,1.13,2.19,15.21,15.21,0,0,0,3.79.93,38.63,38.63,0,0,1,4,.75,10.92,10.92,0,0,1,3.32,1.39,6.81,6.81,0,0,1,2.31,2.48A8.55,8.55,0,0,1,398.94,285.43Z" transform="translate(0 0)" style="fill:#fff"/><path d="M173.37,355.19c.42-1.19.82-2.31,1.18-3.35l1-2.72c.3-.92.59-1.77.86-2.54L180,335.94a1.61,1.61,0,0,1,.46-.75,1.5,1.5,0,0,1,.92-.23h4.28c.46,0,.71.12.75.35a1.63,1.63,0,0,1-.11.81l-13.47,36.75a1.89,1.89,0,0,1-.52.81,1.68,1.68,0,0,1-1,.23H167.3c-.46,0-.72-.11-.78-.34a1.32,1.32,0,0,1,.09-.81l3.64-9.77-10.12-26.87a1.39,1.39,0,0,1-.08-.81c0-.23.29-.35.72-.35h4.45a2,2,0,0,1,.81.12c.15.07.31.32.46.75l3.76,10.75,2.89,8.61Z" transform="translate(0 0)" style="fill:#fff"/><path d="M205.84,360a19.47,19.47,0,0,1-4.94,2.71,16,16,0,0,1-5.69,1,10.66,10.66,0,0,1-3.85-.6,6,6,0,0,1-2.42-1.68,6.27,6.27,0,0,1-1.27-2.57,13.36,13.36,0,0,1-.38-3.35q-.06-5.09,2.66-7.37c1.81-1.52,4.54-2.29,8.2-2.29h7.4v-1.51a8.11,8.11,0,0,0-.26-2.19,3,3,0,0,0-.95-1.49,4,4,0,0,0-1.85-.81,14.9,14.9,0,0,0-3-.24c-.46,0-1,0-1.7.06l-2.08.12c-.72,0-1.43.09-2.14.17s-1.36.14-1.94.17a3.38,3.38,0,0,1-1.18,0c-.22-.06-.36-.3-.44-.72l-.52-2.11a1.28,1.28,0,0,1,.12-.95,2.72,2.72,0,0,1,1.21-.77,12.71,12.71,0,0,1,2.2-.57c.85-.15,1.71-.28,2.6-.37s1.76-.17,2.63-.23,1.65-.09,2.34-.09a19.24,19.24,0,0,1,6,.76,7.48,7.48,0,0,1,3.38,2.1,6.89,6.89,0,0,1,1.5,3.33,24.49,24.49,0,0,1,.35,4.39v11.15a8,8,0,0,0,.09,1.36,1.63,1.63,0,0,0,.29.75,1.08,1.08,0,0,0,.6.38,6,6,0,0,0,1.1.17,2,2,0,0,1,.87.23.78.78,0,0,1,.23.64v2.43c0,.65-.46,1.06-1.39,1.21-.46.08-.92.14-1.38.2a10.49,10.49,0,0,1-1.33.09,6.28,6.28,0,0,1-3.27-.75A4.08,4.08,0,0,1,206,360Zm-.35-9.6h-7.05a5.42,5.42,0,0,0-3.46,1c-.85.68-1.28,2-1.28,3.85a3.53,3.53,0,0,0,.78,2.63,4.18,4.18,0,0,0,2.81.72,10.17,10.17,0,0,0,2-.23,17,17,0,0,0,2.2-.64c.73-.27,1.44-.57,2.13-.89s1.31-.65,1.85-1Z" transform="translate(0 0)" style="fill:#fff"/><path d="M253.69,354.78a8.43,8.43,0,0,1-1,4.25,7.87,7.87,0,0,1-2.63,2.75,11.77,11.77,0,0,1-3.73,1.5,19.81,19.81,0,0,1-4.33.46,36.74,36.74,0,0,1-4.74-.32,18.68,18.68,0,0,1-4.22-.95,2,2,0,0,1-1.1-.78,1.77,1.77,0,0,1-.11-1.13l.4-1.9c.08-.47.23-.74.46-.84a1.92,1.92,0,0,1,1,0c.62.11,1.3.21,2.05.29s1.51.14,2.26.2l2.14.15c.67,0,1.26.05,1.76.05a7.68,7.68,0,0,0,4-.78,2.76,2.76,0,0,0,1.21-2.51,5.63,5.63,0,0,0-.2-1.62,2.18,2.18,0,0,0-.72-1,4.17,4.17,0,0,0-1.42-.66,14.91,14.91,0,0,0-2.28-.44,38.44,38.44,0,0,1-4-.75,11.79,11.79,0,0,1-3.38-1.36,6.64,6.64,0,0,1-2.34-2.37,7.48,7.48,0,0,1-.87-3.84,7.57,7.57,0,0,1,3-6.5,12.89,12.89,0,0,1,7.86-2.23c.58,0,1.25,0,2,.06s1.55.12,2.34.23,1.57.25,2.34.41a12,12,0,0,1,2.08.58c1,.38,1.37,1,1.22,1.73l-.47,2.08a1,1,0,0,1-.43.78,2.19,2.19,0,0,1-1.13,0c-1.23-.15-2.58-.3-4-.44s-2.74-.2-3.82-.2c-1.85,0-3.07.26-3.67.78a3.12,3.12,0,0,0-.89,2.46,2.16,2.16,0,0,0,1.13,2.2,15.8,15.8,0,0,0,3.78.92,37.62,37.62,0,0,1,4,.75,10.92,10.92,0,0,1,3.32,1.39,6.72,6.72,0,0,1,2.31,2.48A8.55,8.55,0,0,1,253.69,354.78Z" transform="translate(0 0)" style="fill:#fff"/><path d="M262.84,350.85a14.32,14.32,0,0,0,.49,3.65,5.17,5.17,0,0,0,1.3,2.28,4.82,4.82,0,0,0,2.14,1.18,11.82,11.82,0,0,0,3.06.35,36.28,36.28,0,0,0,3.7-.23l3.82-.41a2.41,2.41,0,0,1,1.12,0c.21.1.36.42.44,1l.34,1.9a2,2,0,0,1,0,1c-.09.27-.41.52-1,.75a12.15,12.15,0,0,1-2,.61,24.5,24.5,0,0,1-2.43.43c-.85.12-1.7.22-2.54.29s-1.62.12-2.31.12a15.44,15.44,0,0,1-6.65-1.21,9.35,9.35,0,0,1-3.82-3.24,12,12,0,0,1-1.76-4.65,33.54,33.54,0,0,1-.43-5.46,34.49,34.49,0,0,1,.35-4.69,13.65,13.65,0,0,1,1.59-4.85,10.33,10.33,0,0,1,3.69-3.78,12.49,12.49,0,0,1,6.68-1.54,14.53,14.53,0,0,1,6.27,1.16,9.69,9.69,0,0,1,3.73,3,10.79,10.79,0,0,1,1.82,4.16,26.56,26.56,0,0,1,.55,4.65,4.73,4.73,0,0,1-.52,2.54,2.46,2.46,0,0,1-2.32,1Zm5.78-11.21a6.72,6.72,0,0,0-2.66.46,4.26,4.26,0,0,0-1.7,1.35,5.51,5.51,0,0,0-1,2.18,19.2,19.2,0,0,0-.4,2.89h11.44a14.14,14.14,0,0,0-.23-2.55,6.39,6.39,0,0,0-.84-2.21,4.2,4.2,0,0,0-1.73-1.54A6.35,6.35,0,0,0,268.62,339.64Z" transform="translate(0 0)" style="fill:#fff"/><path d="M323.05,363.28h-4.14c-.78,0-1.17-.37-1.17-1.1q0-4.21,0-8.35c0-2.75,0-5.54,0-8.35a8.34,8.34,0,0,0-.78-3.9c-.52-1-1.65-1.48-3.38-1.48a7.63,7.63,0,0,0-2,.32c-.75.22-1.5.46-2.25.73s-1.45.55-2.11.86-1.18.54-1.56.7v19.47a1.28,1.28,0,0,1-.23.81,1.08,1.08,0,0,1-.87.29h-4.1c-.69,0-1-.37-1-1.1V323.63c0-.73.35-1.09,1-1.09h4.1c.77,0,1.16.36,1.16,1.09v14a21,21,0,0,1,1.86-1c.73-.37,1.52-.71,2.37-1a18.82,18.82,0,0,1,2.67-.81,12.23,12.23,0,0,1,2.72-.32,10.43,10.43,0,0,1,4.75.9,6.27,6.27,0,0,1,2.63,2.4,8.89,8.89,0,0,1,1.16,3.49,31.32,31.32,0,0,1,.26,4.19v16.76C324.21,362.91,323.82,363.28,323.05,363.28Z" transform="translate(0 0)" style="fill:#fff"/><path d="M345.83,360a19.47,19.47,0,0,1-4.94,2.71,16,16,0,0,1-5.69,1,10.6,10.6,0,0,1-3.84-.6,6,6,0,0,1-2.43-1.68,6.27,6.27,0,0,1-1.27-2.57,13.84,13.84,0,0,1-.38-3.35q-.06-5.09,2.66-7.37c1.81-1.52,4.55-2.29,8.21-2.29h7.39v-1.51a7.73,7.73,0,0,0-.26-2.19,3,3,0,0,0-.95-1.49,4,4,0,0,0-1.85-.81,14.9,14.9,0,0,0-3-.24c-.46,0-1,0-1.7.06l-2.08.12c-.72,0-1.43.09-2.14.17s-1.36.14-1.94.17a3.39,3.39,0,0,1-1.18,0c-.21-.06-.36-.3-.43-.72l-.52-2.11a1.28,1.28,0,0,1,.11-.95,2.72,2.72,0,0,1,1.21-.77,12.71,12.71,0,0,1,2.2-.57c.85-.15,1.71-.28,2.6-.37s1.76-.17,2.63-.23,1.65-.09,2.34-.09a19.2,19.2,0,0,1,6,.76,7.43,7.43,0,0,1,3.38,2.1,6.9,6.9,0,0,1,1.51,3.33,25.5,25.5,0,0,1,.34,4.39v11.15a8,8,0,0,0,.09,1.36,1.63,1.63,0,0,0,.29.75,1.11,1.11,0,0,0,.61.38,5.68,5.68,0,0,0,1.09.17,1.88,1.88,0,0,1,.87.23.78.78,0,0,1,.23.64v2.43c0,.65-.46,1.06-1.39,1.21-.46.08-.92.14-1.38.2a10.37,10.37,0,0,1-1.33.09,6.28,6.28,0,0,1-3.27-.75A4.12,4.12,0,0,1,346,360Zm-.34-9.6h-7.05a5.43,5.43,0,0,0-3.47,1c-.85.68-1.27,2-1.27,3.85a3.53,3.53,0,0,0,.78,2.63,4.15,4.15,0,0,0,2.8.72,10.09,10.09,0,0,0,2-.23,16.59,16.59,0,0,0,2.2-.64c.73-.27,1.44-.57,2.14-.89s1.31-.65,1.85-1Z" transform="translate(0 0)" style="fill:#fff"/><path d="M381.83,363a1.07,1.07,0,0,1-.87.29h-4.2a1,1,0,0,1-1.11-1.1l.06-16.24a8.65,8.65,0,0,0-.84-4.1c-.56-1-1.66-1.56-3.32-1.56a8.23,8.23,0,0,0-2,.29,19.09,19.09,0,0,0-2.26.72c-.75.29-1.45.58-2.11.87l-1.56.72v19.3a1,1,0,0,1-1.1,1.1h-4.1a1,1,0,0,1-1.1-1.1V336.12c0-.77.37-1.16,1.1-1.16h4.1c.74,0,1.1.39,1.1,1.16v1.73a.12.12,0,0,1,.09,0,.12.12,0,0,0,.09,0,17.56,17.56,0,0,1,1.94-1.19,24.2,24.2,0,0,1,2.4-1.12,16.6,16.6,0,0,1,2.67-.84,12.38,12.38,0,0,1,2.73-.32,9.89,9.89,0,0,1,4.63.9,6.17,6.17,0,0,1,2.55,2.4,9,9,0,0,1,1.11,3.49,37.42,37.42,0,0,1,.23,4.19v16.76A1.22,1.22,0,0,1,381.83,363Z" transform="translate(0 0)" style="fill:#fff"/><path d="M424.83,363.28h-4.1a1.09,1.09,0,0,1-.87-.29,1.28,1.28,0,0,1-.23-.81v-1.79l-.11-.06c-.58.39-1.25.78-2,1.19a24.2,24.2,0,0,1-2.4,1.12,16.46,16.46,0,0,1-2.63.84,11.82,11.82,0,0,1-2.68.32,11,11,0,0,1-4.66-.81,5.86,5.86,0,0,1-2.57-2.25,8.56,8.56,0,0,1-1.09-3.41,34.92,34.92,0,0,1-.24-4.22v-17c0-.77.37-1.16,1.11-1.16h4.26c.7,0,1.05.39,1.05,1.16v16.24a15.33,15.33,0,0,0,.17,2.37,4.88,4.88,0,0,0,.63,1.76,3.17,3.17,0,0,0,1.27,1.13,4.79,4.79,0,0,0,2.13.4,7.94,7.94,0,0,0,2-.29,17.27,17.27,0,0,0,2.21-.72c.73-.29,1.4-.58,2-.87l1.49-.72v-19.3a1.42,1.42,0,0,1,.23-.84,1,1,0,0,1,.87-.32h4.1c.73,0,1.1.39,1.1,1.16v26.06A1,1,0,0,1,424.83,363.28Z" transform="translate(0 0)" style="fill:#fff"/><path d="M454.69,363a1.1,1.1,0,0,1-.88.29h-4.2a1,1,0,0,1-1.11-1.1l.06-16.24a8.65,8.65,0,0,0-.84-4.1c-.55-1-1.66-1.56-3.32-1.56a8.23,8.23,0,0,0-2,.29,19.7,19.7,0,0,0-2.26.72c-.75.29-1.45.58-2.11.87s-1.17.53-1.56.72v19.3a1,1,0,0,1-1.09,1.1h-4.11a1,1,0,0,1-1.1-1.1V336.12c0-.77.37-1.16,1.1-1.16h4.11c.73,0,1.09.39,1.09,1.16v1.73a.12.12,0,0,1,.09,0,.12.12,0,0,0,.09,0,18.56,18.56,0,0,1,1.94-1.19,24.2,24.2,0,0,1,2.4-1.12,16.93,16.93,0,0,1,2.67-.84,12.38,12.38,0,0,1,2.73-.32,9.89,9.89,0,0,1,4.63.9,6.14,6.14,0,0,1,2.56,2.4,9,9,0,0,1,1.1,3.49,37.42,37.42,0,0,1,.23,4.19v16.76A1.28,1.28,0,0,1,454.69,363Z" transform="translate(0 0)" style="fill:#fff"/><path d="M466.16,327.45a6.75,6.75,0,0,1-.12,1.3,2.33,2.33,0,0,1-.49,1.07,2.37,2.37,0,0,1-1,.72,5,5,0,0,1-1.76.26,4.7,4.7,0,0,1-1.82-.29,2.42,2.42,0,0,1-1-.75,2.46,2.46,0,0,1-.46-1.07,6.36,6.36,0,0,1-.12-1.24,4,4,0,0,1,.66-2.34c.45-.64,1.36-1,2.75-1s2.35.3,2.77.9A4,4,0,0,1,466.16,327.45Zm-.35,34.73a1.37,1.37,0,0,1-.2.78.92.92,0,0,1-.84.32h-4.1c-.77,0-1.16-.37-1.16-1.1V336.06c0-.73.39-1.1,1.16-1.1h4.1a.92.92,0,0,1,.84.32,1.37,1.37,0,0,1,.2.78Z" transform="translate(0 0)" style="fill:#fff"/><path d="M494.85,362.18a1.42,1.42,0,0,1-.2.81,1,1,0,0,1-.84.29h-4.16a.91.91,0,0,1-1-1v-1.83l-.09,0a.12.12,0,0,0-.09,0c-.5.34-1.1.71-1.79,1.11a19.65,19.65,0,0,1-2.25,1.12,16.52,16.52,0,0,1-2.52.83,10.81,10.81,0,0,1-2.57.31,9.53,9.53,0,0,1-4.65-1,7.49,7.49,0,0,1-2.89-2.86,13.27,13.27,0,0,1-1.5-4.48,36.46,36.46,0,0,1-.44-5.92,37.69,37.69,0,0,1,.49-6.33,12.74,12.74,0,0,1,1.77-4.77,8,8,0,0,1,3.49-3,14.08,14.08,0,0,1,5.75-1,20.64,20.64,0,0,1,7.17,1.33s.06,0,.06,0,0,0,.06,0v-12a1.46,1.46,0,0,1,.2-.86c.13-.2.43-.29.89-.29h4.11c.46,0,.75.1.86.31a1.72,1.72,0,0,1,.18.84Zm-6.3-21.26a24,24,0,0,0-3.63-.78,23.47,23.47,0,0,0-3.05-.21,6.86,6.86,0,0,0-2.67.47,3.51,3.51,0,0,0-1.74,1.56,8.42,8.42,0,0,0-.93,2.93,28.92,28.92,0,0,0-.29,4.55,31.5,31.5,0,0,0,.26,4.49,6.83,6.83,0,0,0,.84,2.61,3,3,0,0,0,1.4,1.22,5.42,5.42,0,0,0,2,.32,8,8,0,0,0,2-.29c.74-.2,1.47-.43,2.21-.7s1.42-.55,2.06-.84,1.17-.55,1.6-.78Z" transform="translate(0 0)" style="fill:#fff"/><path d="M523.63,348.66a43.56,43.56,0,0,1-.31,5.14,12.7,12.7,0,0,1-1.59,4.88,9.66,9.66,0,0,1-3.81,3.65,14.57,14.57,0,0,1-7,1.41,13.8,13.8,0,0,1-6.8-1.41,9.47,9.47,0,0,1-3.72-3.65,12.63,12.63,0,0,1-1.53-4.88,48.16,48.16,0,0,1-.29-5.14,30.56,30.56,0,0,1,.38-4.51,12.8,12.8,0,0,1,1.64-4.65,10.4,10.4,0,0,1,3.72-3.64,12.75,12.75,0,0,1,6.6-1.48,14.92,14.92,0,0,1,6.72,1.28,9.49,9.49,0,0,1,3.83,3.32,12.06,12.06,0,0,1,1.76,4.59A30.15,30.15,0,0,1,523.63,348.66Zm-6.41.4a30.9,30.9,0,0,0-.23-4,7.42,7.42,0,0,0-.93-2.84,4.41,4.41,0,0,0-1.9-1.7,7.53,7.53,0,0,0-3.18-.58,6.81,6.81,0,0,0-3,.58,4.22,4.22,0,0,0-1.82,1.73,8.23,8.23,0,0,0-.92,2.86,25.76,25.76,0,0,0-.26,4,26.23,26.23,0,0,0,.26,4,8.27,8.27,0,0,0,.89,2.83,4.22,4.22,0,0,0,1.79,1.71,6.84,6.84,0,0,0,3,.57,8,8,0,0,0,3.21-.55,4.19,4.19,0,0,0,1.93-1.67,7.41,7.41,0,0,0,.93-2.86A31.9,31.9,0,0,0,517.22,349.06Z" transform="translate(0 0)" style="fill:#fff"/><path d="M560.56,360a19.47,19.47,0,0,1-4.94,2.71,16,16,0,0,1-5.69,1,10.66,10.66,0,0,1-3.85-.6,6,6,0,0,1-2.42-1.68,6.27,6.27,0,0,1-1.27-2.57,13.36,13.36,0,0,1-.38-3.35q-.06-5.09,2.66-7.37c1.81-1.52,4.54-2.29,8.21-2.29h7.39v-1.51a7.73,7.73,0,0,0-.26-2.19,3,3,0,0,0-1-1.49,4,4,0,0,0-1.85-.81,14.9,14.9,0,0,0-3-.24c-.46,0-1,0-1.7.06l-2.08.12c-.72,0-1.43.09-2.14.17s-1.36.14-1.94.17a3.38,3.38,0,0,1-1.18,0c-.21-.06-.36-.3-.44-.72l-.52-2.11a1.33,1.33,0,0,1,.12-.95,2.72,2.72,0,0,1,1.21-.77,12.71,12.71,0,0,1,2.2-.57c.85-.15,1.71-.28,2.6-.37s1.76-.17,2.63-.23,1.65-.09,2.34-.09a19.24,19.24,0,0,1,6,.76,7.48,7.48,0,0,1,3.38,2.1,6.89,6.89,0,0,1,1.5,3.33,24.49,24.49,0,0,1,.35,4.39v11.15a8,8,0,0,0,.09,1.36,1.63,1.63,0,0,0,.29.75,1.08,1.08,0,0,0,.6.38,6,6,0,0,0,1.1.17,1.88,1.88,0,0,1,.87.23.78.78,0,0,1,.23.64v2.43c0,.65-.46,1.06-1.39,1.21-.46.08-.92.14-1.38.2a10.49,10.49,0,0,1-1.33.09,6.28,6.28,0,0,1-3.27-.75,4.12,4.12,0,0,1-1.7-2.78Zm-.35-9.6h-7.05a5.42,5.42,0,0,0-3.46,1c-.85.68-1.28,2-1.28,3.85a3.53,3.53,0,0,0,.79,2.63,4.15,4.15,0,0,0,2.8.72,10.17,10.17,0,0,0,2-.23,16.59,16.59,0,0,0,2.2-.64c.73-.27,1.44-.57,2.14-.89s1.3-.65,1.84-1Z" transform="translate(0 0)" style="fill:#fff"/><path d="M602.75,350.16H597l-3,12.25q-.16.87-.81.87h-3c-.66,0-.93-.33-.81-1l3-12.14h-6.24c-.61,0-.85-.25-.69-.75l.63-2.54a1.09,1.09,0,0,1,1.16-.87h6.13l1.38-5.66h-6.18a1.16,1.16,0,0,1-.67-.15c-.13-.09-.16-.32-.08-.66l.69-2.43a1.67,1.67,0,0,1,.41-.67,1.14,1.14,0,0,1,.75-.2h6.12l2.49-10.34a1.69,1.69,0,0,1,.29-.67.9.9,0,0,1,.69-.2h3c.61,0,.84.33.69,1l-2.48,10.23h5.66l2.54-10.34a1.85,1.85,0,0,1,.29-.67.93.93,0,0,1,.69-.2h3c.61,0,.87.29.75.87l-2.6,10.34h6.36q1,0,.81.87l-.64,2.43a1.17,1.17,0,0,1-.35.6,1,1,0,0,1-.69.21h-6.47L608.41,346h6.42c.65,0,.9.31.75.92l-.64,2.43a1,1,0,0,1-1,.81h-6.47l-3,12.25a1.7,1.7,0,0,1-.28.67.75.75,0,0,1-.58.2h-2.95c-.73,0-1-.33-.81-1ZM598.07,346h5.72l1.39-5.66h-5.73Z" transform="translate(0 0)" style="fill:#fff"/><path d="M639.26,349.52l3.51-7.51,7.84-15.95a2.57,2.57,0,0,1,.67-.87,2.08,2.08,0,0,1,1.24-.28h3.35a.85.85,0,0,1,.78.31,1.32,1.32,0,0,1,.2.73v36.23a1.37,1.37,0,0,1-.2.78.92.92,0,0,1-.84.32h-4.22c-.77,0-1.15-.37-1.15-1.1V339h-.18l-2,4.45-6.34,12.94a2.64,2.64,0,0,1-.67.81,1.61,1.61,0,0,1-1,.29H638a1.84,1.84,0,0,1-1.09-.26,2.51,2.51,0,0,1-.63-.72l-6.58-13.47-1.9-4h-.11v23.17a1.38,1.38,0,0,1-.21.78.93.93,0,0,1-.84.32h-4.26a1,1,0,0,1-1.11-1.1V326a.92.92,0,0,1,1.05-1H626a2.27,2.27,0,0,1,1.22.23,2,2,0,0,1,.64.86l7.84,16.19,3.4,7.33Z" transform="translate(0 0)" style="fill:#fff"/><path d="M668.06,350.85a14.32,14.32,0,0,0,.49,3.65,5.17,5.17,0,0,0,1.3,2.28A4.82,4.82,0,0,0,672,358a11.82,11.82,0,0,0,3.06.35,36.28,36.28,0,0,0,3.7-.23l3.81-.41a2.44,2.44,0,0,1,1.13,0c.21.1.36.42.43,1l.35,1.9a2,2,0,0,1,0,1c-.09.27-.41.52-1,.75a12.15,12.15,0,0,1-2,.61,24.5,24.5,0,0,1-2.43.43c-.85.12-1.7.22-2.54.29s-1.62.12-2.32.12a15.39,15.39,0,0,1-6.64-1.21,9.35,9.35,0,0,1-3.82-3.24A12,12,0,0,1,662,354.7a33.54,33.54,0,0,1-.43-5.46,34.49,34.49,0,0,1,.35-4.69,13.84,13.84,0,0,1,1.58-4.85,10.36,10.36,0,0,1,3.7-3.78,12.49,12.49,0,0,1,6.68-1.54,14.53,14.53,0,0,1,6.27,1.16,9.69,9.69,0,0,1,3.73,3,10.79,10.79,0,0,1,1.82,4.16,26.56,26.56,0,0,1,.55,4.65,4.73,4.73,0,0,1-.52,2.54,2.46,2.46,0,0,1-2.32,1Zm5.78-11.21a6.72,6.72,0,0,0-2.66.46,4.36,4.36,0,0,0-1.71,1.35,5.64,5.64,0,0,0-1,2.18,19.2,19.2,0,0,0-.4,2.89h11.44a14.14,14.14,0,0,0-.23-2.55,6.59,6.59,0,0,0-.84-2.21,4.2,4.2,0,0,0-1.73-1.54A6.38,6.38,0,0,0,673.84,339.64Z" transform="translate(0 0)" style="fill:#fff"/><path d="M707.07,361.08a1.26,1.26,0,0,1-.75,1.45,9.42,9.42,0,0,1-1.77.58c-.67.15-1.36.28-2.08.37s-1.38.16-2,.2-1.18.06-1.65.06a8.84,8.84,0,0,1-3.95-.72,4.8,4.8,0,0,1-2.11-2,7.72,7.72,0,0,1-.87-2.95,33.14,33.14,0,0,1-.17-3.53v-14.5h-2.89a1.14,1.14,0,0,1-.87-.26,1.28,1.28,0,0,1-.23-.84v-2.83a1.39,1.39,0,0,1,.23-.87,1.07,1.07,0,0,1,.87-.29h2.94V329a1.13,1.13,0,0,1,.32-.9,2,2,0,0,1,.78-.37l3.87-1c.77-.19,1.16,0,1.16.69V335h6.18c.47,0,.76.1.9.29a1.42,1.42,0,0,1,.2.81V339a1.42,1.42,0,0,1-.2.84,1.15,1.15,0,0,1-.9.26h-6.18v14.39a7.43,7.43,0,0,0,.17,1.79,1.7,1.7,0,0,0,.61.95,2.29,2.29,0,0,0,1.18.38c.5,0,1.14.06,1.91.06.42,0,1,0,1.82-.06s1.48-.1,2-.17a1,1,0,0,1,.7.11,1.17,1.17,0,0,1,.34.69Z" transform="translate(0 0)" style="fill:#fff"/><path d="M727.08,360a19.71,19.71,0,0,1-5,2.71,16,16,0,0,1-5.69,1,10.6,10.6,0,0,1-3.84-.6,6.07,6.07,0,0,1-2.43-1.68,6.27,6.27,0,0,1-1.27-2.57,13.84,13.84,0,0,1-.38-3.35c0-3.39.85-5.85,2.66-7.37s4.55-2.29,8.21-2.29h7.4v-1.51a8.11,8.11,0,0,0-.26-2.19,3,3,0,0,0-1-1.49,4,4,0,0,0-1.85-.81,14.86,14.86,0,0,0-2.94-.24q-.71,0-1.71.06l-2.08.12c-.71,0-1.43.09-2.14.17s-1.36.14-1.93.17a3.44,3.44,0,0,1-1.19,0c-.21-.06-.35-.3-.43-.72l-.52-2.11a1.28,1.28,0,0,1,.11-.95,2.77,2.77,0,0,1,1.22-.77,12.58,12.58,0,0,1,2.19-.57c.85-.15,1.72-.28,2.6-.37s1.77-.17,2.63-.23,1.65-.09,2.34-.09a19.31,19.31,0,0,1,6,.76,7.54,7.54,0,0,1,3.38,2.1,6.89,6.89,0,0,1,1.5,3.33,25.45,25.45,0,0,1,.35,4.39v11.15a8.16,8.16,0,0,0,.08,1.36,1.75,1.75,0,0,0,.29.75,1.15,1.15,0,0,0,.61.38,5.81,5.81,0,0,0,1.1.17,1.87,1.87,0,0,1,.86.23.75.75,0,0,1,.23.64v2.43c0,.65-.46,1.06-1.38,1.21-.46.08-.93.14-1.39.2a10.37,10.37,0,0,1-1.33.09,6.22,6.22,0,0,1-3.26-.75,4.12,4.12,0,0,1-1.71-2.78Zm-.35-9.6h-7.05a5.45,5.45,0,0,0-3.47,1c-.85.68-1.27,2-1.27,3.85a3.53,3.53,0,0,0,.78,2.63,4.15,4.15,0,0,0,2.8.72,10.09,10.09,0,0,0,2-.23,16.16,16.16,0,0,0,2.2-.64c.73-.27,1.45-.57,2.14-.89s1.31-.65,1.85-1Z" transform="translate(0 0)" style="fill:#fff"/><path d="M760.62,326.07a1,1,0,0,1,1.15-1.16h4.34a.94.94,0,0,1,.84.31,1.63,1.63,0,0,1,.2.84v36.12a1.46,1.46,0,0,1-.2.78,1,1,0,0,1-.84.32h-4.34c-.77,0-1.15-.37-1.15-1.1V346H746.05v16.18a1.37,1.37,0,0,1-.2.78.92.92,0,0,1-.84.32h-4.33c-.77,0-1.16-.37-1.16-1.1V326.06a1,1,0,0,1,1.16-1.15H745c.43,0,.71.1.84.32a1.49,1.49,0,0,1,.2.84v14.27h14.57Z" transform="translate(0 0)" style="fill:#fff"/><path d="M790,360A19.47,19.47,0,0,1,785,362.7a16,16,0,0,1-5.69,1,10.66,10.66,0,0,1-3.85-.6,6,6,0,0,1-2.42-1.68,6.27,6.27,0,0,1-1.27-2.57,13.36,13.36,0,0,1-.38-3.35q-.06-5.09,2.66-7.37c1.81-1.52,4.54-2.29,8.2-2.29h7.4v-1.51a7.73,7.73,0,0,0-.26-2.19,3,3,0,0,0-.95-1.49,4,4,0,0,0-1.85-.81,14.9,14.9,0,0,0-3-.24c-.46,0-1,0-1.7.06l-2.08.12c-.72,0-1.43.09-2.14.17s-1.36.14-1.94.17a3.38,3.38,0,0,1-1.18,0c-.21-.06-.36-.3-.44-.72l-.52-2.11a1.33,1.33,0,0,1,.12-.95,2.72,2.72,0,0,1,1.21-.77,12.71,12.71,0,0,1,2.2-.57c.85-.15,1.71-.28,2.6-.37s1.76-.17,2.63-.23,1.65-.09,2.34-.09a19.24,19.24,0,0,1,6,.76,7.48,7.48,0,0,1,3.38,2.1,6.89,6.89,0,0,1,1.5,3.33A24.49,24.49,0,0,1,796,345v11.15a8,8,0,0,0,.09,1.36,1.63,1.63,0,0,0,.29.75,1.08,1.08,0,0,0,.6.38,6,6,0,0,0,1.1.17,1.92,1.92,0,0,1,.87.23.78.78,0,0,1,.23.64v2.43c0,.65-.46,1.06-1.39,1.21-.46.08-.92.14-1.38.2a10.49,10.49,0,0,1-1.33.09,6.28,6.28,0,0,1-3.27-.75,4.12,4.12,0,0,1-1.7-2.78Zm-.35-9.6h-7.05a5.42,5.42,0,0,0-3.46,1c-.85.68-1.28,2-1.28,3.85a3.57,3.57,0,0,0,.78,2.63,4.2,4.2,0,0,0,2.81.72,10.17,10.17,0,0,0,2-.23,17,17,0,0,0,2.2-.64c.73-.27,1.44-.57,2.13-.89s1.31-.65,1.85-1Z" transform="translate(0 0)" style="fill:#fff"/><path d="M823.12,354.78a8.33,8.33,0,0,1-1,4.25,7.79,7.79,0,0,1-2.63,2.75,11.62,11.62,0,0,1-3.72,1.5,19.84,19.84,0,0,1-4.34.46,37,37,0,0,1-4.74-.32,18.58,18.58,0,0,1-4.21-.95,2,2,0,0,1-1.1-.78,1.7,1.7,0,0,1-.12-1.13l.41-1.9c.07-.47.23-.74.46-.84a1.92,1.92,0,0,1,1,0c.61.11,1.3.21,2.05.29s1.5.14,2.25.2l2.14.15c.68,0,1.26.05,1.77.05a7.64,7.64,0,0,0,4-.78,2.77,2.77,0,0,0,1.22-2.51,5.26,5.26,0,0,0-.21-1.62,2.05,2.05,0,0,0-.72-1,4.12,4.12,0,0,0-1.41-.66,14.83,14.83,0,0,0-2.29-.44,38.72,38.72,0,0,1-4-.75,11.79,11.79,0,0,1-3.38-1.36A6.48,6.48,0,0,1,802.2,347a7.48,7.48,0,0,1-.87-3.84,7.58,7.58,0,0,1,3-6.5,12.93,12.93,0,0,1,7.86-2.23c.58,0,1.26,0,2,.06s1.55.12,2.34.23,1.57.25,2.34.41a12.24,12.24,0,0,1,2.08.58c1,.38,1.37,1,1.21,1.73l-.46,2.08c-.08.42-.22.68-.43.78a2.2,2.2,0,0,1-1.13,0c-1.23-.15-2.58-.3-4-.44s-2.73-.2-3.81-.2c-1.85,0-3.07.26-3.67.78a3.08,3.08,0,0,0-.89,2.46,2.17,2.17,0,0,0,1.12,2.2,15.78,15.78,0,0,0,3.79.92,38.63,38.63,0,0,1,4,.75,10.92,10.92,0,0,1,3.32,1.39,6.89,6.89,0,0,1,2.31,2.48A8.55,8.55,0,0,1,823.12,354.78Z" transform="translate(0 0)" style="fill:#fff"/><path d="M849.75,363.28h-4.13c-.78,0-1.17-.37-1.17-1.1q0-4.21,0-8.35c0-2.75,0-5.54,0-8.35a8.34,8.34,0,0,0-.78-3.9c-.52-1-1.65-1.48-3.38-1.48a7.57,7.57,0,0,0-2,.32c-.75.22-1.5.46-2.25.73s-1.46.55-2.11.86-1.18.54-1.56.7v19.47a1.28,1.28,0,0,1-.23.81,1.09,1.09,0,0,1-.87.29h-4.1c-.7,0-1-.37-1-1.1V323.63c0-.73.34-1.09,1-1.09h4.1c.77,0,1.16.36,1.16,1.09v14c.5-.31,1.12-.65,1.85-1s1.53-.71,2.38-1a19.09,19.09,0,0,1,2.66-.81,12.38,12.38,0,0,1,2.73-.32,10.46,10.46,0,0,1,4.75.9,6.33,6.33,0,0,1,2.63,2.4,8.89,8.89,0,0,1,1.16,3.49,33.07,33.07,0,0,1,.26,4.19v16.76C850.92,362.91,850.53,363.28,849.75,363.28Z" transform="translate(0 0)" style="fill:#fff"/><path d="M187.14,204.4l5.68-11.74,7.26-14.51a5,5,0,0,1,1.12-1.38,3.43,3.43,0,0,1,2.09-.49h6.14c.69,0,1.12.19,1.27.56a2.94,2.94,0,0,1,.22,1.09v46.44a2.85,2.85,0,0,1-.22,1.13c-.15.34-.58.52-1.27.52h-8.38a1.56,1.56,0,0,1-1.31-.45,2,2,0,0,1-.33-1.2V201.49l-.23-.08-2.62,5.84-4.71,9.64a4.93,4.93,0,0,1-1.2,1.43,3.14,3.14,0,0,1-1.94.52h-3.66a3.26,3.26,0,0,1-2-.49A5,5,0,0,1,181.9,217L177,207l-2.61-5.68-.15.07v23a2.44,2.44,0,0,1-.27,1.13c-.17.34-.61.52-1.3.52h-8.38a1.44,1.44,0,0,1-1.23-.45,1.92,1.92,0,0,1-.34-1.2V177.93a1.94,1.94,0,0,1,.34-1.16,1.4,1.4,0,0,1,1.23-.49h6.43a4,4,0,0,1,2.13.42,3.57,3.57,0,0,1,1.16,1.38l7.26,14.73,5.53,11.59Z" transform="translate(0 0)" style="fill:#fff"/><path d="M242.78,221.53a18.05,18.05,0,0,1-3.21,2.32,22.65,22.65,0,0,1-3.52,1.61,19.92,19.92,0,0,1-3.51.9,21.72,21.72,0,0,1-3.14.26,13.06,13.06,0,0,1-5.35-.94,8,8,0,0,1-3.18-2.43,8.52,8.52,0,0,1-1.53-3.48,19.94,19.94,0,0,1-.41-4.15,14.25,14.25,0,0,1,.93-5.83,9.31,9.31,0,0,1,2.88-3.85,11.78,11.78,0,0,1,4.56-2.1,26.32,26.32,0,0,1,6-.63h8.61V202a6.54,6.54,0,0,0-.27-2,2.6,2.6,0,0,0-1-1.34,5.08,5.08,0,0,0-2-.79,17.77,17.77,0,0,0-3.37-.26c-.55,0-1.23,0-2.05.07l-2.58.15c-.9.05-1.8.13-2.7.23s-1.72.17-2.46.22a6.62,6.62,0,0,1-2.06,0c-.33-.1-.59-.52-.79-1.27l-.82-3.89a2.28,2.28,0,0,1,.26-1.61,4.73,4.73,0,0,1,2.14-1.31,22.23,22.23,0,0,1,2.95-.78c1.12-.23,2.27-.41,3.44-.56s2.33-.26,3.48-.34,2.14-.11,3-.11a29.53,29.53,0,0,1,8.41,1,10.84,10.84,0,0,1,4.86,2.77,8.81,8.81,0,0,1,2.21,4.41,30.68,30.68,0,0,1,.52,6v11.82a11.25,11.25,0,0,0,.12,1.87,1.93,1.93,0,0,0,.41,1,1.64,1.64,0,0,0,.82.49,7.74,7.74,0,0,0,1.42.22,2.31,2.31,0,0,1,1.27.34,1.18,1.18,0,0,1,.3.93V224c0,1-.72,1.64-2.17,1.94a19,19,0,0,1-4.63.53,11.76,11.76,0,0,1-4.87-.94,5.37,5.37,0,0,1-2.84-3.92Zm-1.12-11.07h-6.73a5.12,5.12,0,0,0-3.29,1c-.8.65-1.2,1.85-1.2,3.59a3.26,3.26,0,0,0,.71,2.4,3.93,3.93,0,0,0,2.66.67,12,12,0,0,0,4-.82,20.75,20.75,0,0,0,3.85-1.8Zm6.36-39c1,.55,1.17,1.29.37,2.24L239.57,185a2.82,2.82,0,0,1-.79.79,1,1,0,0,1-1.08-.11l-3.89-2.1a1.66,1.66,0,0,1-.71-.67,1.29,1.29,0,0,1,.18-1.12l7-12.87a1.51,1.51,0,0,1,1-.89,1.67,1.67,0,0,1,1.08.22Z" transform="translate(0 0)" style="fill:#fff"/><path d="M292.59,214.38a11.42,11.42,0,0,1-1.38,5.86,10.77,10.77,0,0,1-3.7,3.77,16.9,16.9,0,0,1-5.28,2.05,29.47,29.47,0,0,1-6.17.63c-.89,0-1.87,0-2.91-.11s-2.11-.18-3.18-.33-2.09-.32-3.07-.52a22.79,22.79,0,0,1-2.58-.67,5.26,5.26,0,0,1-2.39-1.37,2.59,2.59,0,0,1-.15-2.19l.82-3.56c.15-.7.38-1.12.68-1.27a3.15,3.15,0,0,1,1.72,0q2.61.45,5.68.71c2,.18,3.71.26,5,.26a9.35,9.35,0,0,0,4-.63,2.24,2.24,0,0,0,1.2-2.14,2.4,2.4,0,0,0-.9-2.21,8.76,8.76,0,0,0-3.29-.87c-2.05-.3-3.95-.65-5.72-1a16.07,16.07,0,0,1-4.68-1.8,8.77,8.77,0,0,1-3.18-3.22A10.68,10.68,0,0,1,262,200.4a11.47,11.47,0,0,1,1.15-5.25,10.82,10.82,0,0,1,3.16-3.75,14,14,0,0,1,4.8-2.25,23.33,23.33,0,0,1,6.08-.75c.84,0,1.78,0,2.8.11s2.06.18,3.1.3,2.06.29,3,.5a17.55,17.55,0,0,1,2.66.75,7.82,7.82,0,0,1,2.2,1.09c.48.38.59,1,.34,2L290.5,197a2.36,2.36,0,0,1-.64,1.27,2.89,2.89,0,0,1-1.61.08l-2.76-.34c-1-.12-2-.22-3-.3l-2.73-.19c-.84-.05-1.57-.07-2.17-.07-1.89,0-3.07.16-3.55.63a2.6,2.6,0,0,0-.71,1.91,1.73,1.73,0,0,0,1.32,1.82,27.85,27.85,0,0,0,3.34.79q2.93.38,5.55.93a13.8,13.8,0,0,1,4.62,1.83,9.37,9.37,0,0,1,3.19,3.39A11.45,11.45,0,0,1,292.59,214.38Z" transform="translate(0 0)" style="fill:#fff"/><path d="M355,224.45a2.27,2.27,0,0,1-.26,1.08c-.18.33-.62.49-1.32.49h-8.28a1.5,1.5,0,0,1-1.21-.38,1.74,1.74,0,0,1-.3-1.12v-1.94a.12.12,0,0,1-.11,0,.18.18,0,0,0-.11,0,22.89,22.89,0,0,1-5.24,3,14.41,14.41,0,0,1-5.38,1.12,12.47,12.47,0,0,1-6.25-1.39,9.86,9.86,0,0,1-3.81-3.85,17.33,17.33,0,0,1-1.91-5.87,49,49,0,0,1-.52-7.44,54,54,0,0,1,.56-8.12,15.85,15.85,0,0,1,2.21-6.2,10.8,10.8,0,0,1,4.63-4,18.2,18.2,0,0,1,7.78-1.43,26.34,26.34,0,0,1,4.45.34,32.13,32.13,0,0,1,3.63.86l.07-.07V174.94a2.35,2.35,0,0,1,.3-1.24,1.41,1.41,0,0,1,1.28-.48h8.21c.7,0,1.14.18,1.32.56a2.76,2.76,0,0,1,.26,1.16ZM343.6,199a20.4,20.4,0,0,0-5.84-.83,8,8,0,0,0-2.69.41,3.7,3.7,0,0,0-1.83,1.5,7.62,7.62,0,0,0-1,2.92,30.4,30.4,0,0,0-.3,4.75,31,31,0,0,0,.26,4.45,7.28,7.28,0,0,0,.83,2.61,2.64,2.64,0,0,0,1.42,1.24,6,6,0,0,0,2,.3,8.31,8.31,0,0,0,1.87-.23,17.7,17.7,0,0,0,1.94-.56,15.2,15.2,0,0,0,1.83-.75l1.54-.71Z" transform="translate(0 0)" style="fill:#fff"/><path d="M373.51,210.24a9.5,9.5,0,0,0,.68,3.51,5.42,5.42,0,0,0,1.6,2.14,5.58,5.58,0,0,0,2.47,1,18.45,18.45,0,0,0,3.33.26c1.15,0,2.52-.07,4.11-.22s3.17-.32,4.72-.52a4.64,4.64,0,0,1,1.87,0c.24.13.47.66.67,1.61l.6,3.52a4.33,4.33,0,0,1,0,2q-.22.71-1.95,1.38a25.28,25.28,0,0,1-2.65.71c-1,.23-2.07.41-3.14.56s-2.16.27-3.26.34-2.09.11-3,.11a22.25,22.25,0,0,1-9.09-1.57A13.39,13.39,0,0,1,365.1,221a14.74,14.74,0,0,1-2.58-6,36.69,36.69,0,0,1-.67-7.15,47.69,47.69,0,0,1,.44-6.05,17.29,17.29,0,0,1,2.17-6.36,14,14,0,0,1,5.13-5c2.26-1.35,5.37-2,9.31-2a20.73,20.73,0,0,1,8.67,1.53,13.27,13.27,0,0,1,5.13,4,14.41,14.41,0,0,1,2.5,5.5,27.65,27.65,0,0,1,.68,6A6.1,6.1,0,0,1,395,209c-.57.83-1.65,1.24-3.25,1.24Zm5.39-13.09a4.54,4.54,0,0,0-3.85,1.61,8.32,8.32,0,0,0-1.39,4.75h10.4a8.59,8.59,0,0,0-1.12-4.53C382.19,197.76,380.84,197.15,378.9,197.15Z" transform="translate(0 0)" style="fill:#fff"/></svg>