<svg id="Group_152_copy" data-name="Group 152 copy" xmlns="http://www.w3.org/2000/svg" xmlns:xlink="http://www.w3.org/1999/xlink" viewBox="0 0 1026 555"><defs><linearGradient id="linear-gradient" x1="1027.33" y1="-8833.26" x2="1369.33" y2="-8833.26" gradientTransform="matrix(3, 0, 0, -3, -3082, -26222.28)" gradientUnits="userSpaceOnUse"><stop offset="0" stop-color="#3b4aff"/><stop offset="1" stop-color="#f00070"/></linearGradient></defs><title>People_PT</title><path d="M30,0h996L996,555H0Z" transform="translate(0 0)" style="fill:url(#linear-gradient)"/><path id="_150" data-name=" 150" d="M538.53,293.33a3,3,0,0,0,3.35-3.39V277.43a3,3,0,0,0-3.35-3.38H514.14V166.62a5.21,5.21,0,0,0-.69-3,4,4,0,0,0-3.25-1H498.6a30.16,30.16,0,0,0-5,.39,16.73,16.73,0,0,0-4.62,1.58l-18.11,6.66a3.68,3.68,0,0,0-2.36,2.07,9.87,9.87,0,0,0-.39,2.86v6.66a2.81,2.81,0,0,0,.79,2.47,5.84,5.84,0,0,0,2.77.47h20.63v88.2H469.86a3,3,0,0,0-3.35,2.54,3.37,3.37,0,0,0,0,.84v12.51a3,3,0,0,0,2.5,3.38,3.37,3.37,0,0,0,.84,0Zm85-31.19a19.67,19.67,0,0,1-6.2,8.37,20.79,20.79,0,0,1-9.15,3.83,67,67,0,0,1-11.31.89,158.49,158.49,0,0,1-16.73-.89q-8.46-.87-15.93-1.87a5,5,0,0,0-3.84.5,4.58,4.58,0,0,0-1.48,2.65l-1.37,7.66a6.86,6.86,0,0,0,.1,3.54,6.33,6.33,0,0,0,3.83,2.76,43.8,43.8,0,0,0,8.76,2.57c3.34.65,6.72,1.18,10.13,1.57s6.62.68,9.64.89,5.44.29,7.28.29a91.78,91.78,0,0,0,21.15-2.26,40.06,40.06,0,0,0,16.33-7.79,34.82,34.82,0,0,0,10.43-15,67,67,0,0,0,3.64-23.79q0-14.56-7.77-22.33A35.85,35.85,0,0,0,620.64,214l-37.38-5.51,4.13-26.76h51.35a3,3,0,0,0,3.52-2.47,3.09,3.09,0,0,0,0-.86V166a2.89,2.89,0,0,0-3.34-3.15H574.21a6.64,6.64,0,0,0-4,1,5.59,5.59,0,0,0-1.68,3.73l-7.87,49.58a9.36,9.36,0,0,0,.69,5.5,6.77,6.77,0,0,0,5,2.76l43.28,7.29a26.6,26.6,0,0,1,11.91,4.72,12.48,12.48,0,0,1,4.23,10.41A37.75,37.75,0,0,1,623.5,262.14Zm106.4,29.61a41.42,41.42,0,0,0,13.87-8.94,43.21,43.21,0,0,0,8.85-12.8,74.12,74.12,0,0,0,4.92-14.85,95.46,95.46,0,0,0,2.07-15.24c.26-5.06.39-9.6.39-13.69a176.41,176.41,0,0,0-1.47-22.51,59.35,59.35,0,0,0-6.6-21,41.32,41.32,0,0,0-15-15.56q-9.93-6-27-6.08a48.69,48.69,0,0,0-19.67,3.54,41.62,41.62,0,0,0-13.48,9.15,43.3,43.3,0,0,0-8.56,12.78A77.23,77.23,0,0,0,663.4,201a88.63,88.63,0,0,0-2,13.86c-.26,4.48-.39,8.26-.39,11.41,0,4.61.13,9.52.39,14.76a109.72,109.72,0,0,0,1.87,15.45A66.87,66.87,0,0,0,667.92,271a41.46,41.46,0,0,0,8.56,12.38,37.84,37.84,0,0,0,13.58,8.55,55,55,0,0,0,19.77,3.15A53.47,53.47,0,0,0,729.9,291.75Zm-5.51-108.1a21.28,21.28,0,0,1,8.46,9.47,45.8,45.8,0,0,1,3.84,15.08q.88,8.87.88,20.1a156.56,156.56,0,0,1-1.08,19.12,47.84,47.84,0,0,1-4.13,15,23.79,23.79,0,0,1-8.46,9.86,25.26,25.26,0,0,1-14.07,3.54,23.77,23.77,0,0,1-13.77-3.54,22.53,22.53,0,0,1-7.87-9.94,51.65,51.65,0,0,1-3.64-15.08,199.81,199.81,0,0,1,0-37.57,50.41,50.41,0,0,1,3.74-15.27,24.47,24.47,0,0,1,8-10.25,22.37,22.37,0,0,1,13.57-3.75A28.35,28.35,0,0,1,724.39,183.65Z" transform="translate(0 0)" style="fill:#fff"/><path d="M852.09,234.6H852a8.67,8.67,0,0,0-5.39,1.63,8.33,8.33,0,0,0-2.68,6.84v.09c0,7.61,4.46,14.14,8.12,14.14s8.71-6.86,8.71-14.14v-.07a8.07,8.07,0,0,0-3-6.89A9.62,9.62,0,0,0,852.09,234.6Z" transform="translate(0 0)" style="fill:none"/><path d="M811.11,176a8,8,0,0,0-3.05-6.88,9.56,9.56,0,0,0-5.61-1.6h-.08a8.64,8.64,0,0,0-5.41,1.62,8.39,8.39,0,0,0-2.69,6.85v.09c0,7.61,4.47,14.14,8.13,14.14s8.7-6.86,8.7-14.14Z" transform="translate(0 0)" style="fill:none"/><path d="M860.77,176.05a8,8,0,0,0-3-6.89,9.63,9.63,0,0,0-5.64-1.6H852a8.58,8.58,0,0,0-5.39,1.62,8.38,8.38,0,0,0-2.68,6.85v.09c0,7.61,4.46,14.14,8.12,14.14s8.71-6.86,8.71-14.14Z" transform="translate(0 0)" style="fill:none"/><path d="M802.45,234.6h-.08a8.65,8.65,0,0,0-5.41,1.63,8.37,8.37,0,0,0-2.69,6.84v.09c0,7.61,4.47,14.14,8.13,14.14s8.7-6.86,8.7-14.14v-.07a8.09,8.09,0,0,0-3.05-6.89A9.49,9.49,0,0,0,802.45,234.6Z" transform="translate(0 0)" style="fill:none"/><path d="M860.77,232a14.78,14.78,0,0,0-8.71-2.56,13.82,13.82,0,0,0-8.71,2.74l-.07,0a13.61,13.61,0,0,0-4.56,10.94c0,9.09,5.71,19.25,13.34,19.25,3.68,0,7.23-2.31,10-6.5A24.26,24.26,0,0,0,866,243.2a12.93,12.93,0,0,0-5.16-11.14Zm0,11.06v.07c0,7.28-4.91,14.14-8.71,14.14s-8.12-6.53-8.12-14.14v-.09a8.33,8.33,0,0,1,2.68-6.84A8.67,8.67,0,0,1,852,234.6h.08a9.62,9.62,0,0,1,5.63,1.6A8.07,8.07,0,0,1,860.77,243.09Z" transform="translate(0 0)" style="fill:#fff"/><path d="M878.42,290.7a2.54,2.54,0,0,0-1.73-.95,1.93,1.93,0,0,0-.48,0H872.1V277.5a10.49,10.49,0,0,0-3.63-7.9,24.56,24.56,0,0,0-32.23,0,10.46,10.46,0,0,0-3.63,7.91v8.07a2.56,2.56,0,0,0,.77,1.83,2.6,2.6,0,0,0,4.43-1.84v-8.06a5.33,5.33,0,0,1,1.85-4,19.36,19.36,0,0,1,25.38,0,5.32,5.32,0,0,1,1.84,4v12.24H822.44V277.5a10.49,10.49,0,0,0-3.63-7.9,24.57,24.57,0,0,0-32.24,0,10.49,10.49,0,0,0-3.63,7.91v8.06a2.61,2.61,0,0,0,5.22,0v-8.06a5.32,5.32,0,0,1,1.84-4,19.35,19.35,0,0,1,25.38,0,5.3,5.3,0,0,1,1.86,4v12.24H778.73a2.58,2.58,0,0,0-.48,5.14h98a2.62,2.62,0,0,0,2.78-2.31A2.54,2.54,0,0,0,878.42,290.7Z" transform="translate(0 0)" style="fill:#fff"/><path d="M811.12,232a14.8,14.8,0,0,0-8.7-2.56,14,14,0,0,0-8.73,2.74l-.07,0a13.54,13.54,0,0,0-4.54,10.94,24.78,24.78,0,0,0,3.66,12.86c2.58,4.12,6,6.39,9.67,6.39s7.22-2.31,10-6.5a24.2,24.2,0,0,0,3.93-12.75,13,13,0,0,0-5.15-11.14Zm0,11.06v.07c0,7.28-4.9,14.14-8.7,14.14s-8.13-6.53-8.13-14.14v-.09a8.37,8.37,0,0,1,2.69-6.84,8.65,8.65,0,0,1,5.41-1.63h.08a9.49,9.49,0,0,1,5.61,1.6A8.09,8.09,0,0,1,811.11,243.09Z" transform="translate(0 0)" style="fill:#fff"/><path d="M792.74,189c2.58,4.11,6,6.38,9.67,6.38s7.22-2.31,10-6.49a24.16,24.16,0,0,0,3.93-12.74A13,13,0,0,0,811.17,165l0,0a14.91,14.91,0,0,0-8.7-2.58,14,14,0,0,0-8.73,2.76l-.07.05a13.53,13.53,0,0,0-4.54,10.94A24.77,24.77,0,0,0,792.74,189Zm9.67,1.25c-3.66,0-8.13-6.53-8.13-14.14V176a8.39,8.39,0,0,1,2.69-6.85,8.64,8.64,0,0,1,5.41-1.62h.08a9.56,9.56,0,0,1,5.61,1.6,8,8,0,0,1,3.05,6.88v.08C811.11,183.4,806.21,190.26,802.41,190.26Z" transform="translate(0 0)" style="fill:#fff"/><path d="M852.06,195.39c3.68,0,7.23-2.31,10-6.49A24.25,24.25,0,0,0,866,176.16a12.93,12.93,0,0,0-5.2-11.17,14.77,14.77,0,0,0-8.71-2.58,13.92,13.92,0,0,0-8.71,2.76l-.06.05a13.51,13.51,0,0,0-4.57,10.94C838.74,185.24,844.43,195.39,852.06,195.39Zm0-5.13c-3.66,0-8.12-6.53-8.12-14.14V176a8.38,8.38,0,0,1,2.68-6.85,8.58,8.58,0,0,1,5.39-1.62h.08a9.63,9.63,0,0,1,5.64,1.6,8,8,0,0,1,3,6.89v.07C860.77,183.4,855.86,190.26,852.06,190.26Z" transform="translate(0 0)" style="fill:#fff"/><path d="M778.69,227.84h97.57a2.57,2.57,0,1,0,0-5.13H872.1V210.46a10.47,10.47,0,0,0-3.63-7.9,24.56,24.56,0,0,0-32.23,0,10.43,10.43,0,0,0-3.63,7.91v8.07a2.59,2.59,0,0,0,2.62,2.58,2.62,2.62,0,0,0,2.58-2.59v-8.06a5.39,5.39,0,0,1,1.85-4,19.37,19.37,0,0,1,25.38,0,5.4,5.4,0,0,1,1.84,4.06v12.24H822.44V210.46a10.47,10.47,0,0,0-3.63-7.9,24.56,24.56,0,0,0-32.23,0,10.47,10.47,0,0,0-3.64,7.91v8.06a2.61,2.61,0,0,0,5.22,0v-8.06a5.36,5.36,0,0,1,1.84-4,19.36,19.36,0,0,1,25.38,0,5.41,5.41,0,0,1,1.86,4.05v12.24H778.69a2.57,2.57,0,1,0,0,5.13Z" transform="translate(0 0)" style="fill:#fff"/><path d="M183.27,293.64a1,1,0,0,1-.83.29h-4.16a1,1,0,0,1-1.1-1.1V276.42c0-2.16-.29-3.61-.87-4.37a3.65,3.65,0,0,0-3.06-1.12,6.4,6.4,0,0,0-1.82.29c-.68.19-1.35.41-2,.66a18.72,18.72,0,0,0-1.93.84l-1.62.81c0,.31,0,.71,0,1.21s0,1.08,0,1.74v16.35a1.28,1.28,0,0,1-.23.81,1.09,1.09,0,0,1-.87.29h-4.22c-.65,0-1-.37-1-1.1v-16.7a7.49,7.49,0,0,0-.81-3.93,3.28,3.28,0,0,0-3-1.27,7.54,7.54,0,0,0-1.7.23,14.06,14.06,0,0,0-2,.64c-.67.26-1.33.55-2,.86l-1.79.87v19.3a1,1,0,0,1-1.1,1.1h-4.16c-.69,0-1-.37-1-1.1V266.77c0-.77.35-1.16,1-1.16h4.1a1,1,0,0,1,1.16,1.16v1.67l.06.06c.58-.38,1.19-.78,1.85-1.18a13.45,13.45,0,0,1,2.11-1.07,19.17,19.17,0,0,1,2.28-.78,11.06,11.06,0,0,1,2.37-.38,12.73,12.73,0,0,1,4.54.78,6.62,6.62,0,0,1,3.38,3.27,28,28,0,0,1,4.79-2.84,12.75,12.75,0,0,1,5.38-1.21,9.81,9.81,0,0,1,4.5.87,6.17,6.17,0,0,1,2.55,2.34,8.77,8.77,0,0,1,1.1,3.44,36.07,36.07,0,0,1,.23,4.1v17A1.35,1.35,0,0,1,183.27,293.64Z" transform="translate(0 0)" style="fill:#fff"/><path d="M195.08,281.5a13.74,13.74,0,0,0,.49,3.64,5.15,5.15,0,0,0,1.3,2.29,4.79,4.79,0,0,0,2.13,1.18,11.85,11.85,0,0,0,3.07.35,36.28,36.28,0,0,0,3.7-.23l3.81-.41a2.44,2.44,0,0,1,1.13,0c.21.1.35.42.43,1l.35,1.9a2.08,2.08,0,0,1,0,1,1.64,1.64,0,0,1-1,.75,12.29,12.29,0,0,1-2,.61c-.77.17-1.58.32-2.42.43s-1.7.22-2.55.29-1.62.12-2.31.12a15.39,15.39,0,0,1-6.64-1.21,9.35,9.35,0,0,1-3.82-3.24,11.85,11.85,0,0,1-1.76-4.65,33.53,33.53,0,0,1-.44-5.46,36.18,36.18,0,0,1,.35-4.69,13.65,13.65,0,0,1,1.59-4.85,10.46,10.46,0,0,1,3.7-3.79,12.55,12.55,0,0,1,6.67-1.53,14.47,14.47,0,0,1,6.27,1.16,9.62,9.62,0,0,1,3.73,3,10.5,10.5,0,0,1,1.82,4.16,25.64,25.64,0,0,1,.55,4.65,4.55,4.55,0,0,1-.52,2.54,2.43,2.43,0,0,1-2.31,1Zm5.77-11.21a6.7,6.7,0,0,0-2.65.46,4.23,4.23,0,0,0-1.71,1.35,5.64,5.64,0,0,0-1,2.18,19.13,19.13,0,0,0-.41,2.89h11.45a13.29,13.29,0,0,0-.24-2.55,6.37,6.37,0,0,0-.83-2.21,4.29,4.29,0,0,0-1.74-1.54A6.32,6.32,0,0,0,200.85,270.29Z" transform="translate(0 0)" style="fill:#fff"/><path d="M259,293.64a1,1,0,0,1-.83.29h-4.16a1,1,0,0,1-1.1-1.1V276.42c0-2.16-.29-3.61-.87-4.37a3.65,3.65,0,0,0-3.06-1.12,6.4,6.4,0,0,0-1.82.29c-.68.19-1.35.41-2,.66a18.72,18.72,0,0,0-1.93.84l-1.62.81c0,.31,0,.71,0,1.21s0,1.08,0,1.74v16.35a1.28,1.28,0,0,1-.23.81,1.09,1.09,0,0,1-.87.29h-4.22c-.65,0-1-.37-1-1.1v-16.7a7.49,7.49,0,0,0-.81-3.93,3.28,3.28,0,0,0-3-1.27,7.54,7.54,0,0,0-1.7.23,14.06,14.06,0,0,0-2,.64c-.67.26-1.33.55-2,.86l-1.79.87v19.3a1,1,0,0,1-1.1,1.1h-4.16c-.69,0-1-.37-1-1.1V266.77c0-.77.35-1.16,1-1.16H223a1,1,0,0,1,1.16,1.16v1.67l.06.06c.58-.38,1.19-.78,1.85-1.18a13.45,13.45,0,0,1,2.11-1.07,19.17,19.17,0,0,1,2.28-.78,11.06,11.06,0,0,1,2.37-.38,12.63,12.63,0,0,1,4.53.78,6.6,6.6,0,0,1,3.39,3.27,28,28,0,0,1,4.79-2.84,12.75,12.75,0,0,1,5.38-1.21,9.81,9.81,0,0,1,4.5.87,6.17,6.17,0,0,1,2.55,2.34,8.77,8.77,0,0,1,1.1,3.44,36.07,36.07,0,0,1,.23,4.1v17A1.35,1.35,0,0,1,259,293.64Z" transform="translate(0 0)" style="fill:#fff"/><path d="M290.1,279.54a33.13,33.13,0,0,1-.55,6.3,11.83,11.83,0,0,1-1.94,4.68,8.81,8.81,0,0,1-3.81,2.92,16.31,16.31,0,0,1-6.19,1c-.92,0-1.9,0-2.92-.09s-2-.15-3-.29-1.93-.29-2.83-.49a21.64,21.64,0,0,1-2.4-.63,2.15,2.15,0,0,1-1.27-1.1,3.61,3.61,0,0,1-.29-1.45V254.34c0-.73.38-1.1,1.15-1.1h4.11a1.08,1.08,0,0,1,.92.32,1.24,1.24,0,0,1,.23.78v12.14a21.67,21.67,0,0,1,4-1.1,20.47,20.47,0,0,1,3.18-.29,14.1,14.1,0,0,1,5.84,1,8.52,8.52,0,0,1,3.55,2.95,11.45,11.45,0,0,1,1.76,4.56A34.42,34.42,0,0,1,290.1,279.54Zm-6.59.52a28.14,28.14,0,0,0-.29-4.34,9,9,0,0,0-.9-2.88,3.77,3.77,0,0,0-1.59-1.62,5.45,5.45,0,0,0-2.37-.58c-.61,0-1.17,0-1.67,0s-1,.07-1.53.14-1.09.19-1.71.32l-2.14.49v16.7c.93.16,1.9.27,2.92.35s2,.12,2.92.12a10.88,10.88,0,0,0,2.6-.29,4,4,0,0,0,2-1.19,5.94,5.94,0,0,0,1.3-2.63A18.36,18.36,0,0,0,283.51,280.06Z" transform="translate(0 0)" style="fill:#fff"/><path d="M302,292.83a1,1,0,0,1-1.11,1.1h-4.2a1,1,0,0,1-1.11-1.1V266.77c0-.77.37-1.16,1.11-1.16h4.14a1,1,0,0,1,1.17,1.16v2.54l.11.12a13.57,13.57,0,0,1,1.68-1.25,19.66,19.66,0,0,1,2.23-1.21c.78-.37,1.58-.7,2.39-1a12,12,0,0,1,2.26-.64,1.44,1.44,0,0,1,.92.06c.23.12.39.42.46.92l.41,3.88a2.06,2.06,0,0,1-.06.92c-.08.19-.42.35-1,.46-.81.16-1.66.34-2.54.55s-1.76.45-2.6.7l-2.37.72a16.08,16.08,0,0,0-1.85.69Z" transform="translate(0 0)" style="fill:#fff"/><path d="M340.13,279.31a41.58,41.58,0,0,1-.32,5.14,12.86,12.86,0,0,1-1.58,4.88,9.73,9.73,0,0,1-3.81,3.65,14.57,14.57,0,0,1-7,1.41,13.87,13.87,0,0,1-6.81-1.41,9.51,9.51,0,0,1-3.71-3.65,12.63,12.63,0,0,1-1.53-4.88,48.16,48.16,0,0,1-.29-5.14,30.45,30.45,0,0,1,.37-4.51,12.82,12.82,0,0,1,1.65-4.65,10.24,10.24,0,0,1,3.72-3.64,12.66,12.66,0,0,1,6.6-1.48,15.12,15.12,0,0,1,6.72,1.27,9.59,9.59,0,0,1,3.83,3.33,12.23,12.23,0,0,1,1.76,4.59A30.15,30.15,0,0,1,340.13,279.31Zm-6.41.4a30.9,30.9,0,0,0-.23-4,7.42,7.42,0,0,0-.93-2.84,4.38,4.38,0,0,0-1.91-1.7,7.36,7.36,0,0,0-3.17-.58,6.67,6.67,0,0,0-3,.58,4.22,4.22,0,0,0-1.82,1.73,8.44,8.44,0,0,0-.93,2.86,27.09,27.09,0,0,0-.26,4,27.57,27.57,0,0,0,.26,4,8.49,8.49,0,0,0,.9,2.83,4.08,4.08,0,0,0,1.79,1.7,6.67,6.67,0,0,0,3,.58,7.86,7.86,0,0,0,3.2-.55,4.17,4.17,0,0,0,1.94-1.67,7.41,7.41,0,0,0,.93-2.86A31.9,31.9,0,0,0,333.72,279.71Z" transform="translate(0 0)" style="fill:#fff"/><path d="M366.11,285.43a8.33,8.33,0,0,1-1,4.25,7.79,7.79,0,0,1-2.63,2.75,11.77,11.77,0,0,1-3.73,1.5,19.75,19.75,0,0,1-4.33.46,38.88,38.88,0,0,1-4.74-.32,18.81,18.81,0,0,1-4.22-.95,2.07,2.07,0,0,1-1.1-.78,1.77,1.77,0,0,1-.11-1.13l.4-1.9c.08-.47.23-.75.47-.84a1.91,1.91,0,0,1,1,0c.61.11,1.3.21,2.05.29l2.25.2c.75.06,1.46.11,2.14.14s1.26.06,1.76.06a7.68,7.68,0,0,0,4-.78,2.76,2.76,0,0,0,1.21-2.51,5.25,5.25,0,0,0-.2-1.62,2.05,2.05,0,0,0-.72-1,4.37,4.37,0,0,0-1.42-.67,16.12,16.12,0,0,0-2.28-.43,38.92,38.92,0,0,1-4-.75,11.9,11.9,0,0,1-3.38-1.36,6.64,6.64,0,0,1-2.34-2.37,8.69,8.69,0,0,1,2.14-10.34,12.91,12.91,0,0,1,7.86-2.23c.58,0,1.25,0,2,.06s1.55.12,2.34.23,1.57.25,2.35.41a13.27,13.27,0,0,1,2.08.57c1,.39,1.36,1,1.21,1.74l-.46,2.08a1,1,0,0,1-.44.78,2.15,2.15,0,0,1-1.12,0c-1.24-.16-2.59-.3-4.05-.44s-2.74-.2-3.81-.2c-1.85,0-3.08.26-3.67.78a3.09,3.09,0,0,0-.9,2.46,2.15,2.15,0,0,0,1.13,2.19,15.23,15.23,0,0,0,3.78.93,37.62,37.62,0,0,1,4,.75,11.08,11.08,0,0,1,3.33,1.39,6.81,6.81,0,0,1,2.31,2.48A8.67,8.67,0,0,1,366.11,285.43Z" transform="translate(0 0)" style="fill:#fff"/><path d="M395.76,294.56a17.54,17.54,0,0,1-.64,5,8.09,8.09,0,0,1-2.19,3.64,9.28,9.28,0,0,1-4,2.17,20.46,20.46,0,0,1-6.11.58,1.87,1.87,0,0,1-.75-.23,1.06,1.06,0,0,1-.52-.93l-.23-2.71c-.07-.46-.05-.77.09-.93a1.44,1.44,0,0,1,.84-.34c1.35-.27,2.47-.53,3.38-.78a6.56,6.56,0,0,0,2.19-1,3.38,3.38,0,0,0,1.19-1.64,8.56,8.56,0,0,0,.35-2.69v-28c0-.73.38-1.1,1.16-1.1h4.08c.78,0,1.17.37,1.17,1.1ZM396,258.1a7.68,7.68,0,0,1-.11,1.3,2.46,2.46,0,0,1-.5,1.07,2.4,2.4,0,0,1-1.05.72,5.11,5.11,0,0,1-1.78.26,4.76,4.76,0,0,1-1.83-.29,2.39,2.39,0,0,1-1-.75,2.53,2.53,0,0,1-.47-1.07,6.36,6.36,0,0,1-.12-1.24,3.87,3.87,0,0,1,.7-2.34,3.22,3.22,0,0,1,2.74-1c1.44,0,2.37.3,2.8.9A4,4,0,0,1,396,258.1Z" transform="translate(0 0)" style="fill:#fff"/><path d="M419.31,290.64a19.64,19.64,0,0,1-4.94,2.71,16,16,0,0,1-5.69,1,10.39,10.39,0,0,1-3.85-.61,5.85,5.85,0,0,1-2.42-1.67,6.29,6.29,0,0,1-1.28-2.57,13.88,13.88,0,0,1-.37-3.36c0-3.38.85-5.84,2.66-7.36s4.54-2.29,8.2-2.29H419V275a8.11,8.11,0,0,0-.26-2.19,3,3,0,0,0-.95-1.49,4,4,0,0,0-1.85-.81,15,15,0,0,0-2.95-.24c-.46,0-1,0-1.7.06l-2.09.12c-.71,0-1.42.09-2.13.17s-1.36.13-1.94.17a3.38,3.38,0,0,1-1.18,0c-.22-.06-.36-.3-.44-.72L403,268a1.24,1.24,0,0,1,.12-.95,2.72,2.72,0,0,1,1.21-.77,12.71,12.71,0,0,1,2.2-.57c.84-.15,1.71-.28,2.6-.37s1.76-.17,2.63-.23,1.64-.09,2.34-.09a19.28,19.28,0,0,1,6,.75,7.58,7.58,0,0,1,3.38,2.11,6.89,6.89,0,0,1,1.5,3.33,25.45,25.45,0,0,1,.35,4.39v11.15a8,8,0,0,0,.09,1.36,1.53,1.53,0,0,0,.29.75,1.08,1.08,0,0,0,.6.38,6,6,0,0,0,1.1.17,2,2,0,0,1,.87.23.78.78,0,0,1,.23.64v2.43c0,.65-.46,1.06-1.39,1.21-.46.08-.92.14-1.39.2a10.22,10.22,0,0,1-1.32.09,6.28,6.28,0,0,1-3.27-.75,4.08,4.08,0,0,1-1.7-2.78ZM419,281h-7a5.47,5.47,0,0,0-3.47,1c-.84.68-1.27,2-1.27,3.85a3.53,3.53,0,0,0,.78,2.63,4.18,4.18,0,0,0,2.81.72,10.17,10.17,0,0,0,2-.23,17,17,0,0,0,2.2-.64c.73-.27,1.44-.57,2.13-.89s1.31-.65,1.85-1Zm2.6-28.09c.58.31.66.74.23,1.28l-5.89,8.09a.82.82,0,0,1-1.1.34l-2.25-1c-.43-.23-.52-.59-.29-1.09l4.62-9c.23-.5.66-.62,1.27-.35Z" transform="translate(0 0)" style="fill:#fff"/><path d="M163.25,354.78a8.43,8.43,0,0,1-1,4.25,7.87,7.87,0,0,1-2.63,2.75,11.77,11.77,0,0,1-3.73,1.5,19.81,19.81,0,0,1-4.33.46,36.74,36.74,0,0,1-4.74-.32,18.68,18.68,0,0,1-4.22-.95,2,2,0,0,1-1.1-.78,1.84,1.84,0,0,1-.12-1.13l.41-1.9c.08-.47.23-.74.46-.84a1.92,1.92,0,0,1,1,0c.62.11,1.3.21,2.05.29s1.51.14,2.26.2l2.14.15c.67,0,1.26.05,1.76.05a7.68,7.68,0,0,0,4-.78,2.78,2.78,0,0,0,1.21-2.51,5.63,5.63,0,0,0-.2-1.62,2.13,2.13,0,0,0-.73-1,4,4,0,0,0-1.41-.66,14.91,14.91,0,0,0-2.28-.44,38.44,38.44,0,0,1-4-.75,11.79,11.79,0,0,1-3.38-1.36,6.64,6.64,0,0,1-2.34-2.37,7.48,7.48,0,0,1-.87-3.84,7.57,7.57,0,0,1,3-6.5,12.89,12.89,0,0,1,7.86-2.23c.58,0,1.25,0,2,.06s1.55.12,2.34.23,1.57.25,2.34.41a12,12,0,0,1,2.08.58c1,.38,1.37,1,1.22,1.73l-.47,2.08a1,1,0,0,1-.43.78,2.19,2.19,0,0,1-1.13,0c-1.23-.15-2.58-.3-4-.44s-2.74-.2-3.82-.2c-1.85,0-3.07.26-3.67.78a3.12,3.12,0,0,0-.89,2.46,2.17,2.17,0,0,0,1.12,2.2,16,16,0,0,0,3.79.92,37.62,37.62,0,0,1,4,.75,10.92,10.92,0,0,1,3.32,1.39,6.8,6.8,0,0,1,2.31,2.48A8.55,8.55,0,0,1,163.25,354.78Z" transform="translate(0 0)" style="fill:#fff"/><path d="M173.84,350.85a14.78,14.78,0,0,0,.49,3.65,5.27,5.27,0,0,0,1.3,2.28,4.88,4.88,0,0,0,2.14,1.18,11.85,11.85,0,0,0,3.07.35,35.94,35.94,0,0,0,3.69-.23l3.82-.41a2.45,2.45,0,0,1,1.13,0c.21.1.35.42.43,1l.35,1.9a2.2,2.2,0,0,1,0,1q-.15.4-1,.75a11.87,11.87,0,0,1-2,.61,24.5,24.5,0,0,1-2.43.43c-.84.12-1.69.22-2.54.29s-1.62.12-2.31.12a15.47,15.47,0,0,1-6.65-1.21,9.39,9.39,0,0,1-3.81-3.24,11.85,11.85,0,0,1-1.76-4.65,33.53,33.53,0,0,1-.44-5.46,36.18,36.18,0,0,1,.35-4.69,13.65,13.65,0,0,1,1.59-4.85,10.36,10.36,0,0,1,3.7-3.78,12.43,12.43,0,0,1,6.67-1.54,14.53,14.53,0,0,1,6.27,1.16,9.69,9.69,0,0,1,3.73,3,10.64,10.64,0,0,1,1.82,4.16,25.64,25.64,0,0,1,.55,4.65,4.63,4.63,0,0,1-.52,2.54,2.46,2.46,0,0,1-2.31,1Zm5.78-11.21a6.75,6.75,0,0,0-2.66.46,4.26,4.26,0,0,0-1.7,1.35,5.64,5.64,0,0,0-.95,2.18,19.13,19.13,0,0,0-.41,2.89h11.44a13.29,13.29,0,0,0-.23-2.55,6.19,6.19,0,0,0-.84-2.21,4.2,4.2,0,0,0-1.73-1.54A6.32,6.32,0,0,0,179.62,339.64Z" transform="translate(0 0)" style="fill:#fff"/><path d="M221.52,363.92a17.52,17.52,0,0,1-.64,5,8.09,8.09,0,0,1-2.19,3.64,9.28,9.28,0,0,1-4,2.17,20.43,20.43,0,0,1-6.1.58,1.87,1.87,0,0,1-.76-.23,1.06,1.06,0,0,1-.52-.93l-.23-2.71c-.07-.46,0-.77.09-.93a1.44,1.44,0,0,1,.84-.34c1.35-.27,2.47-.53,3.38-.78a6.46,6.46,0,0,0,2.19-1,3.46,3.46,0,0,0,1.19-1.65,8.56,8.56,0,0,0,.35-2.69v-28c0-.73.38-1.1,1.16-1.1h4.08c.78,0,1.17.37,1.17,1.1Zm.23-36.47a7.68,7.68,0,0,1-.11,1.3,2.46,2.46,0,0,1-.5,1.07,2.4,2.4,0,0,1-1,.72,5.11,5.11,0,0,1-1.78.26,4.76,4.76,0,0,1-1.83-.29,2.39,2.39,0,0,1-1-.75,2.47,2.47,0,0,1-.47-1.07,6.36,6.36,0,0,1-.12-1.24,3.87,3.87,0,0,1,.7-2.34,3.22,3.22,0,0,1,2.74-1c1.44,0,2.37.3,2.8.9A4,4,0,0,1,221.75,327.45Z" transform="translate(0 0)" style="fill:#fff"/><path d="M251.18,363.28h-4.1a1.09,1.09,0,0,1-.87-.29,1.28,1.28,0,0,1-.23-.81v-1.79l-.11-.06c-.58.39-1.25.78-2,1.19a25.11,25.11,0,0,1-2.39,1.12,17.13,17.13,0,0,1-2.63.84,12,12,0,0,1-2.69.32,11,11,0,0,1-4.65-.81,5.83,5.83,0,0,1-2.58-2.25,8.56,8.56,0,0,1-1.09-3.41,34.92,34.92,0,0,1-.24-4.22v-17c0-.77.37-1.16,1.11-1.16H233c.7,0,1.05.39,1.05,1.16v16.24a15.33,15.33,0,0,0,.17,2.37,4.88,4.88,0,0,0,.63,1.76,3.17,3.17,0,0,0,1.27,1.13,4.79,4.79,0,0,0,2.13.4,7.94,7.94,0,0,0,2-.29,17.27,17.27,0,0,0,2.21-.72c.73-.29,1.4-.58,2-.87l1.49-.72v-19.3a1.42,1.42,0,0,1,.23-.84,1,1,0,0,1,.87-.32h4.1c.74,0,1.1.39,1.1,1.16v26.06A1,1,0,0,1,251.18,363.28Z" transform="translate(0 0)" style="fill:#fff"/><path d="M282.48,363a1.08,1.08,0,0,1-.87.29h-4.2a1,1,0,0,1-1.11-1.1l.06-16.24a8.65,8.65,0,0,0-.84-4.1c-.56-1-1.67-1.56-3.32-1.56a8.31,8.31,0,0,0-2,.29,19.55,19.55,0,0,0-2.25.72c-.75.29-1.46.58-2.11.87s-1.18.53-1.56.72v19.3a1,1,0,0,1-1.1,1.1h-4.1a1,1,0,0,1-1.1-1.1V336.12c0-.77.37-1.16,1.1-1.16h4.1c.73,0,1.1.39,1.1,1.16v1.73a.12.12,0,0,1,.09,0s0,0,.08,0a17.78,17.78,0,0,1,1.95-1.19,24.2,24.2,0,0,1,2.4-1.12,16.6,16.6,0,0,1,2.67-.84,12.23,12.23,0,0,1,2.72-.32,9.93,9.93,0,0,1,4.64.9,6.17,6.17,0,0,1,2.55,2.4,8.85,8.85,0,0,1,1.1,3.49,35.19,35.19,0,0,1,.23,4.19v16.76A1.22,1.22,0,0,1,282.48,363Z" transform="translate(0 0)" style="fill:#fff"/><path d="M305.81,361.08a1.26,1.26,0,0,1-.75,1.45,9.42,9.42,0,0,1-1.77.58c-.67.15-1.36.28-2.08.37s-1.38.16-2,.2-1.18.06-1.65.06a8.84,8.84,0,0,1-4-.72,4.8,4.8,0,0,1-2.11-2,7.55,7.55,0,0,1-.87-2.95,33.14,33.14,0,0,1-.17-3.53v-14.5h-2.89a1.14,1.14,0,0,1-.87-.26,1.22,1.22,0,0,1-.23-.84v-2.83a1.33,1.33,0,0,1,.23-.87,1.07,1.07,0,0,1,.87-.29h2.94V329a1.13,1.13,0,0,1,.32-.9,2,2,0,0,1,.78-.37l3.87-1c.77-.19,1.16,0,1.16.69V335h6.18c.47,0,.76.1.9.29a1.42,1.42,0,0,1,.2.81V339a1.42,1.42,0,0,1-.2.84,1.15,1.15,0,0,1-.9.26h-6.18v14.39a7.43,7.43,0,0,0,.17,1.79,1.7,1.7,0,0,0,.61.95,2.29,2.29,0,0,0,1.18.38c.5,0,1.14.06,1.91.06.43,0,1,0,1.82-.06s1.48-.1,2.05-.17a1,1,0,0,1,.7.11,1.17,1.17,0,0,1,.34.69Z" transform="translate(0 0)" style="fill:#fff"/><path d="M327.26,360a19.47,19.47,0,0,1-4.94,2.71,16,16,0,0,1-5.69,1,10.62,10.62,0,0,1-3.85-.6,6,6,0,0,1-2.42-1.68,6.29,6.29,0,0,1-1.28-2.57,13.86,13.86,0,0,1-.37-3.35q-.06-5.09,2.66-7.37c1.81-1.52,4.54-2.29,8.2-2.29H327v-1.51a8.11,8.11,0,0,0-.26-2.19,3,3,0,0,0-.95-1.49,4,4,0,0,0-1.85-.81,15,15,0,0,0-3-.24c-.46,0-1,0-1.7.06l-2.08.12c-.72,0-1.43.09-2.14.17s-1.36.14-1.94.17a3.38,3.38,0,0,1-1.18,0c-.22-.06-.36-.3-.44-.72l-.52-2.11a1.28,1.28,0,0,1,.12-.95,2.72,2.72,0,0,1,1.21-.77,12.71,12.71,0,0,1,2.2-.57c.84-.15,1.71-.28,2.6-.37s1.76-.17,2.63-.23,1.65-.09,2.34-.09a19.24,19.24,0,0,1,6,.76,7.48,7.48,0,0,1,3.38,2.1,6.89,6.89,0,0,1,1.5,3.33,25.45,25.45,0,0,1,.35,4.39v11.15a8,8,0,0,0,.09,1.36,1.63,1.63,0,0,0,.29.75,1.08,1.08,0,0,0,.6.38,6,6,0,0,0,1.1.17,2,2,0,0,1,.87.23.78.78,0,0,1,.23.64v2.43c0,.65-.46,1.06-1.39,1.21-.46.08-.92.14-1.38.2a10.49,10.49,0,0,1-1.33.09,6.28,6.28,0,0,1-3.27-.75,4.08,4.08,0,0,1-1.7-2.78Zm-.35-9.6h-7.05a5.42,5.42,0,0,0-3.46,1c-.85.68-1.28,2-1.28,3.85a3.53,3.53,0,0,0,.78,2.63,4.18,4.18,0,0,0,2.81.72,10.17,10.17,0,0,0,2-.23,17,17,0,0,0,2.2-.64c.73-.27,1.44-.57,2.13-.89s1.31-.65,1.85-1Z" transform="translate(0 0)" style="fill:#fff"/><path d="M347.21,362.18a1,1,0,0,1-1.11,1.1h-4.2a1,1,0,0,1-1.11-1.1V336.12c0-.77.37-1.16,1.11-1.16H346a1,1,0,0,1,1.17,1.16v2.54l.11.12a13.57,13.57,0,0,1,1.68-1.25,19.66,19.66,0,0,1,2.23-1.21c.79-.37,1.58-.7,2.39-1a12,12,0,0,1,2.26-.64,1.44,1.44,0,0,1,.92.06c.23.12.39.42.47.93l.4,3.87a2.06,2.06,0,0,1-.06.92c-.08.19-.42.35-1,.46-.81.16-1.66.34-2.54.55s-1.76.45-2.6.7l-2.37.72a16.08,16.08,0,0,0-1.85.69Z" transform="translate(0 0)" style="fill:#fff"/><path d="M378.07,360a19.47,19.47,0,0,1-4.94,2.71,16,16,0,0,1-5.69,1,10.66,10.66,0,0,1-3.85-.6,6,6,0,0,1-2.42-1.68,6.41,6.41,0,0,1-1.28-2.57,13.86,13.86,0,0,1-.37-3.35q-.06-5.09,2.66-7.37c1.81-1.52,4.54-2.29,8.2-2.29h7.4v-1.51a8.11,8.11,0,0,0-.26-2.19,3,3,0,0,0-.95-1.49,4,4,0,0,0-1.85-.81,15,15,0,0,0-3-.24c-.46,0-1,0-1.7.06l-2.08.12c-.72,0-1.43.09-2.14.17s-1.36.14-1.94.17a3.38,3.38,0,0,1-1.18,0c-.22-.06-.36-.3-.44-.72l-.52-2.11a1.28,1.28,0,0,1,.12-.95,2.72,2.72,0,0,1,1.21-.77,12.71,12.71,0,0,1,2.2-.57c.85-.15,1.71-.28,2.6-.37s1.76-.17,2.63-.23,1.65-.09,2.34-.09a19.24,19.24,0,0,1,6,.76,7.48,7.48,0,0,1,3.38,2.1,6.89,6.89,0,0,1,1.5,3.33,25.45,25.45,0,0,1,.35,4.39v11.15a8,8,0,0,0,.09,1.36,1.63,1.63,0,0,0,.29.75,1.08,1.08,0,0,0,.6.38,6,6,0,0,0,1.1.17,2,2,0,0,1,.87.23.78.78,0,0,1,.23.64v2.43c0,.65-.46,1.06-1.39,1.21-.46.08-.92.14-1.38.2a10.49,10.49,0,0,1-1.33.09,6.28,6.28,0,0,1-3.27-.75,4.08,4.08,0,0,1-1.7-2.78Zm-.35-9.6h-7.05a5.42,5.42,0,0,0-3.46,1c-.85.68-1.28,2-1.28,3.85a3.53,3.53,0,0,0,.78,2.63,4.18,4.18,0,0,0,2.81.72,10.17,10.17,0,0,0,2-.23,17,17,0,0,0,2.2-.64c.73-.27,1.44-.57,2.13-.89s1.31-.65,1.85-1Z" transform="translate(0 0)" style="fill:#fff"/><path d="M432.33,363a1,1,0,0,1-.84.29h-4.16a1,1,0,0,1-1.1-1.1V345.77c0-2.16-.29-3.61-.86-4.36a3.63,3.63,0,0,0-3.07-1.13,6.84,6.84,0,0,0-1.82.29c-.67.19-1.35.41-2,.66a19.9,19.9,0,0,0-1.94.84l-1.61.81c0,.31,0,.71,0,1.21s0,1.08,0,1.74v16.35a1.22,1.22,0,0,1-.23.81,1.06,1.06,0,0,1-.86.29h-4.22c-.66,0-1-.37-1-1.1v-16.7a7.6,7.6,0,0,0-.8-3.93,3.29,3.29,0,0,0-3-1.27,7.47,7.47,0,0,0-1.7.23,13.65,13.65,0,0,0-2,.64c-.67.27-1.34.55-2,.86s-1.26.6-1.79.87v19.3a1,1,0,0,1-1.1,1.1h-4.16c-.7,0-1-.37-1-1.1V336.12c0-.77.34-1.16,1-1.16h4.1a1,1,0,0,1,1.16,1.16v1.67l.05.06c.58-.38,1.2-.78,1.85-1.18a14.39,14.39,0,0,1,2.11-1.07,19.17,19.17,0,0,1,2.28-.78,11.06,11.06,0,0,1,2.37-.38,12.69,12.69,0,0,1,4.54.78,6.58,6.58,0,0,1,3.38,3.27,27.06,27.06,0,0,1,4.8-2.83,12.53,12.53,0,0,1,5.37-1.22,9.86,9.86,0,0,1,4.51.87,6.08,6.08,0,0,1,2.54,2.34,8.61,8.61,0,0,1,1.1,3.44,36.07,36.07,0,0,1,.23,4.1v17A1.42,1.42,0,0,1,432.33,363Z" transform="translate(0 0)" style="fill:#fff"/><path d="M472.87,360a19.64,19.64,0,0,1-4.94,2.71,16,16,0,0,1-5.69,1,10.66,10.66,0,0,1-3.85-.6,6.07,6.07,0,0,1-2.43-1.68,6.4,6.4,0,0,1-1.27-2.57,13.86,13.86,0,0,1-.37-3.35q-.06-5.09,2.66-7.37c1.81-1.52,4.54-2.29,8.2-2.29h7.4v-1.51a8.11,8.11,0,0,0-.26-2.19,3,3,0,0,0-.95-1.49,4,4,0,0,0-1.85-.81,15,15,0,0,0-2.95-.24c-.46,0-1,0-1.7.06l-2.08.12c-.72,0-1.43.09-2.14.17s-1.36.14-1.94.17a3.38,3.38,0,0,1-1.18,0c-.22-.06-.36-.3-.44-.72l-.52-2.11a1.24,1.24,0,0,1,.12-.95,2.72,2.72,0,0,1,1.21-.77,12.71,12.71,0,0,1,2.2-.57c.85-.15,1.71-.28,2.6-.37s1.76-.17,2.63-.23,1.64-.09,2.34-.09a19.24,19.24,0,0,1,6,.76,7.48,7.48,0,0,1,3.38,2.1,6.89,6.89,0,0,1,1.5,3.33,25.45,25.45,0,0,1,.35,4.39v11.15a8,8,0,0,0,.09,1.36,1.53,1.53,0,0,0,.29.75,1.08,1.08,0,0,0,.6.38,6,6,0,0,0,1.1.17,2,2,0,0,1,.87.23.78.78,0,0,1,.23.64v2.43c0,.65-.46,1.06-1.39,1.21-.46.08-.92.14-1.38.2a10.49,10.49,0,0,1-1.33.09,6.28,6.28,0,0,1-3.27-.75A4.12,4.12,0,0,1,473,360Zm-.35-9.6h-7a5.47,5.47,0,0,0-3.47,1c-.84.68-1.27,2-1.27,3.85a3.53,3.53,0,0,0,.78,2.63,4.18,4.18,0,0,0,2.81.72,10.17,10.17,0,0,0,2-.23,17,17,0,0,0,2.2-.64c.73-.27,1.44-.57,2.13-.89s1.31-.65,1.85-1Zm-7.74-29.76a1.73,1.73,0,0,1,.69-.17c.19,0,.39.15.58.46l5.09,8.67c.3.46.25.81-.18,1L468.82,332a.78.78,0,0,1-1.09-.23l-6.36-7.91a.89.89,0,0,1-.29-.61c0-.21.15-.42.46-.61Z" transform="translate(0 0)" style="fill:#fff"/><path d="M518,350.16h-5.72l-3,12.25q-.18.87-.81.87h-3c-.66,0-.93-.33-.81-1l3-12.14h-6.24q-.93,0-.69-.75l.63-2.54a1.09,1.09,0,0,1,1.16-.87h6.12l1.39-5.66h-6.18a1.16,1.16,0,0,1-.67-.15c-.13-.09-.16-.32-.08-.66l.69-2.43a1.79,1.79,0,0,1,.4-.67,1.19,1.19,0,0,1,.76-.2H511l2.49-10.34a1.56,1.56,0,0,1,.29-.67.9.9,0,0,1,.69-.2h3c.62,0,.85.33.7,1l-2.49,10.23h5.67l2.54-10.34a1.69,1.69,0,0,1,.29-.67.91.91,0,0,1,.69-.2h3q.92,0,.75.87L526,336.23h6.35q1.05,0,.81.87l-.63,2.43a1.17,1.17,0,0,1-.35.6,1,1,0,0,1-.69.21h-6.47L523.61,346H530c.65,0,.9.31.75.92l-.64,2.43a1,1,0,0,1-1,.81h-6.47l-3,12.25a1.69,1.69,0,0,1-.29.67.71.71,0,0,1-.57.2h-3c-.73,0-1-.33-.81-1ZM513.27,346H519l1.38-5.66h-5.72Z" transform="translate(0 0)" style="fill:#fff"/><path d="M555.9,349.52l3.51-7.51,7.84-15.95a2.7,2.7,0,0,1,.67-.87,2.08,2.08,0,0,1,1.24-.28h3.35a.85.85,0,0,1,.78.31,1.32,1.32,0,0,1,.21.73v36.23a1.38,1.38,0,0,1-.21.78.91.91,0,0,1-.83.32h-4.22c-.77,0-1.16-.37-1.16-1.1V339h-.17l-2,4.45-6.34,12.94a2.48,2.48,0,0,1-.66.81,1.64,1.64,0,0,1-1,.29h-2.19a1.87,1.87,0,0,1-1.1-.26,2.51,2.51,0,0,1-.63-.72l-6.57-13.47-1.91-4h-.11v23.17a1.46,1.46,0,0,1-.2.78,1,1,0,0,1-.85.32h-4.26a1,1,0,0,1-1.11-1.1V326a.92.92,0,0,1,1-1h3.62a2.27,2.27,0,0,1,1.22.23,1.91,1.91,0,0,1,.64.86l7.84,16.19,3.4,7.33Z" transform="translate(0 0)" style="fill:#fff"/><path d="M586.15,350.85a13.88,13.88,0,0,0,.49,3.65,5.17,5.17,0,0,0,1.3,2.28,4.82,4.82,0,0,0,2.14,1.18,11.71,11.71,0,0,0,3.06.35,36.28,36.28,0,0,0,3.7-.23l3.81-.41a2.44,2.44,0,0,1,1.13,0c.21.1.35.42.43,1l.35,1.9a2,2,0,0,1,0,1c-.1.27-.41.52-.95.75a12.29,12.29,0,0,1-2,.61c-.77.18-1.58.32-2.42.43s-1.7.22-2.55.29-1.61.12-2.31.12a15.39,15.39,0,0,1-6.64-1.21,9.35,9.35,0,0,1-3.82-3.24,12,12,0,0,1-1.76-4.65,33.54,33.54,0,0,1-.43-5.46,36,36,0,0,1,.34-4.69,13.65,13.65,0,0,1,1.59-4.85,10.36,10.36,0,0,1,3.7-3.78,12.46,12.46,0,0,1,6.68-1.54,14.53,14.53,0,0,1,6.27,1.16,9.66,9.66,0,0,1,3.72,3,10.5,10.5,0,0,1,1.82,4.16,25.64,25.64,0,0,1,.55,4.65,4.55,4.55,0,0,1-.52,2.54,2.43,2.43,0,0,1-2.31,1Zm5.78-11.21a6.72,6.72,0,0,0-2.66.46,4.23,4.23,0,0,0-1.71,1.35,5.64,5.64,0,0,0-.95,2.18,20.5,20.5,0,0,0-.41,2.89h11.45a14.14,14.14,0,0,0-.23-2.55,6.59,6.59,0,0,0-.84-2.21,4.22,4.22,0,0,0-1.74-1.54A6.3,6.3,0,0,0,591.93,339.64Z" transform="translate(0 0)" style="fill:#fff"/><path d="M626.6,361.08a1.25,1.25,0,0,1-.75,1.45,9.56,9.56,0,0,1-1.76.58c-.68.15-1.37.28-2.08.37s-1.39.16-2,.2-1.18.06-1.64.06a8.86,8.86,0,0,1-4-.72,4.8,4.8,0,0,1-2.11-2,7.9,7.9,0,0,1-.87-2.95c-.11-1.12-.17-2.29-.17-3.53v-14.5h-2.89a1.14,1.14,0,0,1-.87-.26,1.28,1.28,0,0,1-.23-.84v-2.83a1.39,1.39,0,0,1,.23-.87,1.07,1.07,0,0,1,.87-.29h2.95V329a1.13,1.13,0,0,1,.31-.9,2.17,2.17,0,0,1,.78-.37l3.88-1c.77-.19,1.15,0,1.15.69V335h6.19c.46,0,.76.1.89.29a1.35,1.35,0,0,1,.2.81V339a1.35,1.35,0,0,1-.2.84,1.12,1.12,0,0,1-.89.26h-6.19v14.39a7.43,7.43,0,0,0,.17,1.79,1.7,1.7,0,0,0,.61.95,2.33,2.33,0,0,0,1.19.38c.5,0,1.13.06,1.9.06.43,0,1,0,1.82-.06s1.48-.1,2.06-.17a1,1,0,0,1,.69.11,1.23,1.23,0,0,1,.35.69Z" transform="translate(0 0)" style="fill:#fff"/><path d="M648.05,360a19.47,19.47,0,0,1-4.94,2.71,16,16,0,0,1-5.69,1,10.6,10.6,0,0,1-3.84-.6,6,6,0,0,1-2.43-1.68,6.27,6.27,0,0,1-1.27-2.57,13.84,13.84,0,0,1-.38-3.35q-.06-5.09,2.66-7.37c1.81-1.52,4.55-2.29,8.21-2.29h7.39v-1.51a7.73,7.73,0,0,0-.26-2.19,3,3,0,0,0-1-1.49,4,4,0,0,0-1.85-.81,14.9,14.9,0,0,0-3-.24c-.46,0-1,0-1.7.06l-2.08.12c-.72,0-1.43.09-2.14.17s-1.36.14-1.94.17a3.39,3.39,0,0,1-1.18,0c-.21-.06-.36-.3-.43-.72l-.53-2.11a1.33,1.33,0,0,1,.12-.95,2.72,2.72,0,0,1,1.21-.77,12.71,12.71,0,0,1,2.2-.57c.85-.15,1.71-.28,2.6-.37s1.76-.17,2.63-.23,1.65-.09,2.34-.09a19.2,19.2,0,0,1,6,.76,7.43,7.43,0,0,1,3.38,2.1,6.9,6.9,0,0,1,1.51,3.33,25.5,25.5,0,0,1,.34,4.39v11.15a8,8,0,0,0,.09,1.36,1.63,1.63,0,0,0,.29.75,1.11,1.11,0,0,0,.61.38,5.68,5.68,0,0,0,1.09.17,1.88,1.88,0,0,1,.87.23.78.78,0,0,1,.23.64v2.43c0,.65-.46,1.06-1.39,1.21-.46.08-.92.14-1.38.2a10.49,10.49,0,0,1-1.33.09,6.28,6.28,0,0,1-3.27-.75,4.12,4.12,0,0,1-1.7-2.78Zm-.34-9.6h-7.05a5.45,5.45,0,0,0-3.47,1c-.85.68-1.27,2-1.27,3.85a3.53,3.53,0,0,0,.78,2.63,4.15,4.15,0,0,0,2.8.72,10.09,10.09,0,0,0,2-.23,16.59,16.59,0,0,0,2.2-.64c.73-.27,1.44-.57,2.14-.89s1.31-.65,1.85-1Z" transform="translate(0 0)" style="fill:#fff"/><path d="M683,326.07a1,1,0,0,1,1.15-1.16h4.34a.94.94,0,0,1,.84.31,1.63,1.63,0,0,1,.2.84v36.12a1.46,1.46,0,0,1-.2.78,1,1,0,0,1-.84.32h-4.34c-.77,0-1.15-.37-1.15-1.1V346H668.48v16.18a1.38,1.38,0,0,1-.21.78.91.91,0,0,1-.83.32H663.1c-.77,0-1.15-.37-1.15-1.1V326.06a1,1,0,0,1,1.15-1.15h4.34c.42,0,.7.1.83.32a1.49,1.49,0,0,1,.21.84v14.27H683Z" transform="translate(0 0)" style="fill:#fff"/><path d="M713.82,360a19.64,19.64,0,0,1-4.94,2.71,16,16,0,0,1-5.7,1,10.6,10.6,0,0,1-3.84-.6,6.07,6.07,0,0,1-2.43-1.68,6.4,6.4,0,0,1-1.27-2.57,13.86,13.86,0,0,1-.37-3.35c0-3.39.84-5.85,2.66-7.37s4.54-2.29,8.2-2.29h7.4v-1.51a8.11,8.11,0,0,0-.26-2.19,3,3,0,0,0-.95-1.49,4,4,0,0,0-1.85-.81,15,15,0,0,0-3-.24q-.69,0-1.71.06l-2.08.12c-.71,0-1.42.09-2.13.17s-1.36.14-1.94.17a3.45,3.45,0,0,1-1.19,0c-.21-.06-.35-.3-.43-.72l-.52-2.11a1.24,1.24,0,0,1,.12-.95,2.66,2.66,0,0,1,1.21-.77,12.71,12.71,0,0,1,2.2-.57c.84-.15,1.71-.28,2.6-.37s1.76-.17,2.63-.23,1.64-.09,2.34-.09a19.24,19.24,0,0,1,6,.76,7.48,7.48,0,0,1,3.38,2.1,6.89,6.89,0,0,1,1.5,3.33,25.45,25.45,0,0,1,.35,4.39v11.15a8,8,0,0,0,.09,1.36,1.64,1.64,0,0,0,.28.75,1.15,1.15,0,0,0,.61.38,6,6,0,0,0,1.1.17,2,2,0,0,1,.87.23.78.78,0,0,1,.23.64v2.43c0,.65-.47,1.06-1.39,1.21-.46.08-.92.14-1.39.2a10.25,10.25,0,0,1-1.33.09,6.24,6.24,0,0,1-3.26-.75,4.12,4.12,0,0,1-1.71-2.78Zm-.35-9.6h-7.05a5.47,5.47,0,0,0-3.47,1c-.84.68-1.27,2-1.27,3.85a3.53,3.53,0,0,0,.78,2.63,4.17,4.17,0,0,0,2.8.72,10.18,10.18,0,0,0,2-.23,16.45,16.45,0,0,0,2.19-.64c.73-.27,1.45-.57,2.14-.89s1.31-.65,1.85-1Z" transform="translate(0 0)" style="fill:#fff"/><path d="M748.43,354.78a8.43,8.43,0,0,1-1,4.25,7.87,7.87,0,0,1-2.63,2.75,11.77,11.77,0,0,1-3.73,1.5,19.81,19.81,0,0,1-4.33.46,36.74,36.74,0,0,1-4.74-.32,18.68,18.68,0,0,1-4.22-.95,2,2,0,0,1-1.1-.78,1.84,1.84,0,0,1-.12-1.13l.41-1.9c.08-.47.23-.74.46-.84a1.92,1.92,0,0,1,1,0c.62.11,1.3.21,2,.29s1.51.14,2.26.2l2.14.15c.67,0,1.26.05,1.76.05a7.68,7.68,0,0,0,4-.78,2.76,2.76,0,0,0,1.21-2.51,5.63,5.63,0,0,0-.2-1.62,2.13,2.13,0,0,0-.73-1,4,4,0,0,0-1.41-.66,14.91,14.91,0,0,0-2.28-.44,38.44,38.44,0,0,1-4-.75,11.79,11.79,0,0,1-3.38-1.36,6.64,6.64,0,0,1-2.34-2.37,7.48,7.48,0,0,1-.87-3.84,7.57,7.57,0,0,1,3-6.5,12.89,12.89,0,0,1,7.86-2.23c.57,0,1.25,0,2,.06s1.55.12,2.34.23,1.57.25,2.34.41a12.24,12.24,0,0,1,2.08.58c1,.38,1.37,1,1.21,1.73l-.46,2.08c-.08.42-.22.68-.43.78a2.19,2.19,0,0,1-1.13,0c-1.23-.15-2.58-.3-4-.44s-2.74-.2-3.82-.2c-1.85,0-3.07.26-3.67.78a3.12,3.12,0,0,0-.89,2.46,2.17,2.17,0,0,0,1.12,2.2A16,16,0,0,0,738,346a37.62,37.62,0,0,1,4,.75,10.92,10.92,0,0,1,3.32,1.39,6.8,6.8,0,0,1,2.31,2.48A8.55,8.55,0,0,1,748.43,354.78Z" transform="translate(0 0)" style="fill:#fff"/><path d="M776.51,363.28h-4.14c-.78,0-1.16-.37-1.16-1.1,0-2.81,0-5.59,0-8.35s0-5.54,0-8.35a8.34,8.34,0,0,0-.78-3.9c-.52-1-1.65-1.48-3.38-1.48a7.5,7.5,0,0,0-2,.32c-.75.22-1.5.46-2.26.73s-1.45.55-2.11.86-1.17.54-1.56.7v19.47a1.22,1.22,0,0,1-.23.81,1.06,1.06,0,0,1-.86.29H754c-.69,0-1-.37-1-1.1V323.63c0-.73.35-1.09,1-1.09h4.11c.77,0,1.15.36,1.15,1.09l0,14c.5-.31,1.12-.65,1.85-1s1.53-.71,2.38-1a18.3,18.3,0,0,1,2.66-.81,12.3,12.3,0,0,1,2.72-.32,10.43,10.43,0,0,1,4.75.9,6.3,6.3,0,0,1,2.64,2.4,9.05,9.05,0,0,1,1.16,3.49,33.07,33.07,0,0,1,.26,4.19v16.76C777.68,362.91,777.29,363.28,776.51,363.28Z" transform="translate(0 0)" style="fill:#fff"/><path d="M167.14,206.4l5.68-11.74,7.26-14.51a5,5,0,0,1,1.12-1.38,3.43,3.43,0,0,1,2.09-.49h6.14c.69,0,1.12.19,1.27.56a2.94,2.94,0,0,1,.22,1.09v46.44a2.85,2.85,0,0,1-.22,1.13c-.15.34-.58.52-1.27.52h-8.38a1.56,1.56,0,0,1-1.31-.45,2,2,0,0,1-.33-1.2V203.49l-.23-.08-2.62,5.84-4.71,9.64a4.93,4.93,0,0,1-1.2,1.43,3.14,3.14,0,0,1-1.94.52h-3.66a3.26,3.26,0,0,1-2-.49A5,5,0,0,1,161.9,219L157,209l-2.61-5.68-.15.07v23a2.44,2.44,0,0,1-.27,1.13c-.17.34-.61.52-1.3.52h-8.38a1.44,1.44,0,0,1-1.23-.45,1.92,1.92,0,0,1-.34-1.2V179.93a1.94,1.94,0,0,1,.34-1.16,1.4,1.4,0,0,1,1.23-.49h6.43a4,4,0,0,1,2.13.42,3.57,3.57,0,0,1,1.16,1.38l7.26,14.73,5.53,11.59Z" transform="translate(0 0)" style="fill:#fff"/><path d="M222.78,223.53a18.05,18.05,0,0,1-3.21,2.32,22.65,22.65,0,0,1-3.52,1.61,19.92,19.92,0,0,1-3.51.9,21.72,21.72,0,0,1-3.14.26,13.06,13.06,0,0,1-5.35-.94,8,8,0,0,1-3.18-2.43,8.52,8.52,0,0,1-1.53-3.48,19.94,19.94,0,0,1-.41-4.15,14.25,14.25,0,0,1,.93-5.83,9.31,9.31,0,0,1,2.88-3.85,11.78,11.78,0,0,1,4.56-2.1,26.32,26.32,0,0,1,6-.63h8.61V204a6.54,6.54,0,0,0-.27-2,2.6,2.6,0,0,0-1-1.34,5.08,5.08,0,0,0-2-.79,17.77,17.77,0,0,0-3.37-.26c-.55,0-1.23,0-2.05.07l-2.58.15c-.9.05-1.8.13-2.7.23s-1.72.17-2.46.22a6.62,6.62,0,0,1-2.06,0c-.33-.1-.59-.52-.79-1.27l-.82-3.89a2.28,2.28,0,0,1,.26-1.61,4.73,4.73,0,0,1,2.14-1.31,22.23,22.23,0,0,1,2.95-.78c1.12-.23,2.27-.41,3.44-.56s2.33-.26,3.48-.34,2.14-.11,3-.11a29.53,29.53,0,0,1,8.41,1,10.84,10.84,0,0,1,4.86,2.77,8.81,8.81,0,0,1,2.21,4.41,30.68,30.68,0,0,1,.52,6v11.82a11.25,11.25,0,0,0,.12,1.87,1.93,1.93,0,0,0,.41,1,1.64,1.64,0,0,0,.82.49,7.74,7.74,0,0,0,1.42.22,2.31,2.31,0,0,1,1.27.34,1.18,1.18,0,0,1,.3.93V226c0,1-.72,1.64-2.17,1.94a19,19,0,0,1-4.63.53,11.76,11.76,0,0,1-4.87-.94,5.37,5.37,0,0,1-2.84-3.92Zm-1.12-11.07h-6.73a5.12,5.12,0,0,0-3.29,1c-.8.65-1.2,1.85-1.2,3.59a3.26,3.26,0,0,0,.71,2.4,3.93,3.93,0,0,0,2.66.67,12,12,0,0,0,4-.82,20.75,20.75,0,0,0,3.85-1.8Z" transform="translate(0 0)" style="fill:#fff"/><path d="M255.17,181.35a9.49,9.49,0,0,1-.23,2.06,4.2,4.2,0,0,1-.86,1.79,4.35,4.35,0,0,1-1.79,1.27,7.87,7.87,0,0,1-3,.49,8.3,8.3,0,0,1-3.14-.49,4.2,4.2,0,0,1-1.83-1.31,4.13,4.13,0,0,1-.83-1.79,11.08,11.08,0,0,1-.18-2,6.41,6.41,0,0,1,1.19-3.93q1.2-1.6,4.79-1.6a8.77,8.77,0,0,1,3,.41,4.22,4.22,0,0,1,1.83,1.16,3.81,3.81,0,0,1,.9,1.75A10.2,10.2,0,0,1,255.17,181.35Zm-.38,45a2.44,2.44,0,0,1-.26,1.13c-.17.34-.59.52-1.23.52h-8.23a1.56,1.56,0,0,1-1.31-.45,2,2,0,0,1-.34-1.2V192.72a2,2,0,0,1,.34-1.24,1.67,1.67,0,0,1,1.31-.41h8.23c.64,0,1.06.19,1.23.56a2.52,2.52,0,0,1,.26,1.09Z" transform="translate(0 0)" style="fill:#fff"/><path d="M293.31,216.38a11.32,11.32,0,0,1-1.39,5.86,10.69,10.69,0,0,1-3.7,3.77,16.75,16.75,0,0,1-5.27,2.05,29.54,29.54,0,0,1-6.17.63c-.9,0-1.87,0-2.92-.11s-2.1-.18-3.17-.33-2.1-.32-3.07-.52a22.79,22.79,0,0,1-2.58-.67,5.15,5.15,0,0,1-2.39-1.37,2.59,2.59,0,0,1-.15-2.19l.82-3.56c.15-.7.37-1.12.67-1.27a3.16,3.16,0,0,1,1.72,0c1.75.3,3.64.54,5.69.71s3.71.26,5,.26a9.27,9.27,0,0,0,4-.63,2.24,2.24,0,0,0,1.2-2.14,2.4,2.4,0,0,0-.9-2.21,8.64,8.64,0,0,0-3.29-.87q-3.06-.45-5.72-1a15.89,15.89,0,0,1-4.67-1.8,8.62,8.62,0,0,1-3.18-3.22,10.68,10.68,0,0,1-1.16-5.32,11.35,11.35,0,0,1,1.15-5.25A10.72,10.72,0,0,1,267,193.4a14,14,0,0,1,4.79-2.25,23.39,23.39,0,0,1,6.08-.75c.85,0,1.78,0,2.81.11s2.05.18,3.1.3,2.06.29,3,.5a17.41,17.41,0,0,1,2.65.75,7.91,7.91,0,0,1,2.21,1.09c.47.38.59,1,.34,2l-.83,3.85a2.44,2.44,0,0,1-.63,1.27,2.9,2.9,0,0,1-1.61.08L286.2,200c-1-.12-2-.22-2.95-.3l-2.73-.19c-.85-.05-1.57-.07-2.17-.07-1.89,0-3.08.16-3.55.63a2.57,2.57,0,0,0-.71,1.91,1.72,1.72,0,0,0,1.31,1.82,28.33,28.33,0,0,0,3.34.79c1.95.25,3.81.56,5.56.93a13.8,13.8,0,0,1,4.62,1.83,9.45,9.45,0,0,1,3.19,3.39A11.45,11.45,0,0,1,293.31,216.38Z" transform="translate(0 0)" style="fill:#fff"/><path d="M355.76,226.45a2.16,2.16,0,0,1-.27,1.08c-.17.33-.61.49-1.31.49h-8.29a1.49,1.49,0,0,1-1.2-.38,1.74,1.74,0,0,1-.3-1.12v-1.94a.12.12,0,0,1-.11,0,.21.21,0,0,0-.12,0,22.82,22.82,0,0,1-5.23,3,14.46,14.46,0,0,1-5.39,1.12,12.43,12.43,0,0,1-6.24-1.39,9.86,9.86,0,0,1-3.81-3.85,17.11,17.11,0,0,1-1.91-5.87,48.93,48.93,0,0,1-.53-7.44,52.66,52.66,0,0,1,.57-8.12,15.84,15.84,0,0,1,2.2-6.2,10.83,10.83,0,0,1,4.64-4,18.17,18.17,0,0,1,7.78-1.43,26.34,26.34,0,0,1,4.45.34,31.45,31.45,0,0,1,3.62.86l.08-.07V176.94a2.35,2.35,0,0,1,.3-1.24,1.41,1.41,0,0,1,1.28-.48h8.21c.7,0,1.14.18,1.31.56a2.63,2.63,0,0,1,.27,1.16ZM344.31,201a22.5,22.5,0,0,0-3.29-.68,22.83,22.83,0,0,0-2.54-.15,7.93,7.93,0,0,0-2.69.41A3.7,3.7,0,0,0,334,202a7.3,7.3,0,0,0-1,2.92,30.4,30.4,0,0,0-.3,4.75,29.58,29.58,0,0,0,.26,4.45,7.29,7.29,0,0,0,.82,2.61,2.72,2.72,0,0,0,1.42,1.24,6.06,6.06,0,0,0,2,.3,8.24,8.24,0,0,0,1.87-.23,17.86,17.86,0,0,0,1.95-.56,15.2,15.2,0,0,0,1.83-.75l1.53-.71Z" transform="translate(0 0)" style="fill:#fff"/><path d="M374.23,212.24a9.51,9.51,0,0,0,.67,3.51,5.14,5.14,0,0,0,4.08,3.18,18.45,18.45,0,0,0,3.33.26c1.14,0,2.51-.07,4.11-.22s3.17-.32,4.71-.52a4.63,4.63,0,0,1,1.87,0c.25.13.47.66.67,1.61l.6,3.52a4.33,4.33,0,0,1,0,2c-.15.47-.8.93-1.94,1.38a25.52,25.52,0,0,1-2.66.71c-1,.23-2.07.41-3.14.56s-2.15.27-3.25.34-2.1.11-3,.11a22.25,22.25,0,0,1-9.09-1.57,13.32,13.32,0,0,1-5.38-4.15,14.47,14.47,0,0,1-2.58-6,36.68,36.68,0,0,1-.68-7.15,46.05,46.05,0,0,1,.45-6.05,17.11,17.11,0,0,1,2.17-6.36,14,14,0,0,1,5.12-5q3.4-2,9.31-2a20.78,20.78,0,0,1,8.68,1.53,13.23,13.23,0,0,1,5.12,4,14.42,14.42,0,0,1,2.51,5.5,27.63,27.63,0,0,1,.67,6,6.18,6.18,0,0,1-.86,3.55c-.57.83-1.66,1.24-3.25,1.24Zm5.38-13.09a4.55,4.55,0,0,0-3.85,1.61,8.4,8.4,0,0,0-1.38,4.75h10.39a8.5,8.5,0,0,0-1.12-4.53C382.9,199.76,381.56,199.15,379.61,199.15Z" transform="translate(0 0)" style="fill:#fff"/></svg>