<svg id="Group_152_copy" data-name="Group 152 copy" xmlns="http://www.w3.org/2000/svg" xmlns:xlink="http://www.w3.org/1999/xlink" viewBox="0 0 1026 555"><defs><linearGradient id="linear-gradient" x1="1027.33" y1="-8833.26" x2="1369.33" y2="-8833.26" gradientTransform="matrix(3, 0, 0, -3, -3082, -26222.28)" gradientUnits="userSpaceOnUse"><stop offset="0" stop-color="#3b4aff"/><stop offset="1" stop-color="#f00070"/></linearGradient></defs><title>People_MS</title><path d="M30,0h996L996,555H0Z" transform="translate(0 0)" style="fill:url(#linear-gradient)"/><path id="_150" data-name=" 150" d="M538.53,254.33a3,3,0,0,0,3.35-3.39V238.43a3,3,0,0,0-3.35-3.38H514.14V127.62a5.21,5.21,0,0,0-.69-3,4,4,0,0,0-3.25-1H498.6a30.16,30.16,0,0,0-5,.39,16.73,16.73,0,0,0-4.62,1.58l-18.11,6.66a3.68,3.68,0,0,0-2.36,2.07,9.87,9.87,0,0,0-.39,2.86v6.66a2.81,2.81,0,0,0,.79,2.47,5.84,5.84,0,0,0,2.77.47h20.63v88.2H469.86a3,3,0,0,0-3.35,2.54,3.37,3.37,0,0,0,0,.84v12.51a3,3,0,0,0,2.5,3.38,3.37,3.37,0,0,0,.84,0Zm85-31.19a19.67,19.67,0,0,1-6.2,8.37,20.79,20.79,0,0,1-9.15,3.83,67,67,0,0,1-11.31.89,158.49,158.49,0,0,1-16.73-.89q-8.46-.87-15.93-1.87a5,5,0,0,0-3.84.5,4.58,4.58,0,0,0-1.48,2.65l-1.37,7.66a6.86,6.86,0,0,0,.1,3.54,6.33,6.33,0,0,0,3.83,2.76,43.8,43.8,0,0,0,8.76,2.57c3.34.65,6.72,1.18,10.13,1.57s6.62.68,9.64.89,5.44.29,7.28.29a91.78,91.78,0,0,0,21.15-2.26,40.06,40.06,0,0,0,16.33-7.79,34.82,34.82,0,0,0,10.43-14.95,67,67,0,0,0,3.64-23.79q0-14.56-7.77-22.33A35.85,35.85,0,0,0,620.64,175l-37.38-5.51,4.13-26.76h51.35a3,3,0,0,0,3.52-2.47,3.09,3.09,0,0,0,0-.86V127a2.89,2.89,0,0,0-3.34-3.15H574.21a6.64,6.64,0,0,0-4,1,5.59,5.59,0,0,0-1.68,3.73l-7.87,49.58a9.36,9.36,0,0,0,.69,5.5,6.77,6.77,0,0,0,5,2.76l43.28,7.29a26.6,26.6,0,0,1,11.91,4.72,12.48,12.48,0,0,1,4.23,10.41A37.75,37.75,0,0,1,623.5,223.14Zm106.4,29.61a41.42,41.42,0,0,0,13.87-8.94,43.21,43.21,0,0,0,8.85-12.8,74.12,74.12,0,0,0,4.92-14.85,95.46,95.46,0,0,0,2.07-15.24c.26-5.06.39-9.6.39-13.69a176.41,176.41,0,0,0-1.47-22.51,59.35,59.35,0,0,0-6.6-21,41.32,41.32,0,0,0-15-15.56q-9.93-6-27-6.08a48.69,48.69,0,0,0-19.67,3.54,41.62,41.62,0,0,0-13.48,9.15,43.3,43.3,0,0,0-8.56,12.78A77.23,77.23,0,0,0,663.4,162a88.63,88.63,0,0,0-2,13.86c-.26,4.48-.39,8.26-.39,11.41,0,4.61.13,9.52.39,14.76a109.72,109.72,0,0,0,1.87,15.45A66.87,66.87,0,0,0,667.92,232a41.46,41.46,0,0,0,8.56,12.38,37.84,37.84,0,0,0,13.58,8.55,55,55,0,0,0,19.77,3.15A53.47,53.47,0,0,0,729.9,252.75Zm-5.51-108.1a21.28,21.28,0,0,1,8.46,9.47,45.8,45.8,0,0,1,3.84,15.08q.88,8.87.88,20.1a156.56,156.56,0,0,1-1.08,19.12,47.84,47.84,0,0,1-4.13,15,23.79,23.79,0,0,1-8.46,9.86,25.26,25.26,0,0,1-14.07,3.54,23.77,23.77,0,0,1-13.77-3.54,22.53,22.53,0,0,1-7.87-9.94,51.65,51.65,0,0,1-3.64-15.08,199.81,199.81,0,0,1,0-37.57,50.41,50.41,0,0,1,3.74-15.27,24.47,24.47,0,0,1,8-10.25,22.37,22.37,0,0,1,13.57-3.75A28.35,28.35,0,0,1,724.39,144.65Z" transform="translate(0 0)" style="fill:#fff"/><path d="M852.09,195.6H852a8.67,8.67,0,0,0-5.39,1.63,8.33,8.33,0,0,0-2.68,6.84v.09c0,7.61,4.46,14.14,8.12,14.14s8.71-6.86,8.71-14.14v-.07a8.07,8.07,0,0,0-3-6.89A9.62,9.62,0,0,0,852.09,195.6Z" transform="translate(0 0)" style="fill:none"/><path d="M811.11,137a8,8,0,0,0-3.05-6.88,9.56,9.56,0,0,0-5.61-1.6h-.08a8.64,8.64,0,0,0-5.41,1.62,8.39,8.39,0,0,0-2.69,6.85v.09c0,7.61,4.47,14.14,8.13,14.14s8.7-6.86,8.7-14.14Z" transform="translate(0 0)" style="fill:none"/><path d="M860.77,137.05a8,8,0,0,0-3-6.89,9.63,9.63,0,0,0-5.64-1.6H852a8.58,8.58,0,0,0-5.39,1.62,8.38,8.38,0,0,0-2.68,6.85v.09c0,7.61,4.46,14.14,8.12,14.14s8.71-6.86,8.71-14.14Z" transform="translate(0 0)" style="fill:none"/><path d="M802.45,195.6h-.08a8.65,8.65,0,0,0-5.41,1.63,8.37,8.37,0,0,0-2.69,6.84v.09c0,7.61,4.47,14.14,8.13,14.14s8.7-6.86,8.7-14.14v-.07a8.09,8.09,0,0,0-3.05-6.89A9.49,9.49,0,0,0,802.45,195.6Z" transform="translate(0 0)" style="fill:none"/><path d="M860.77,193a14.78,14.78,0,0,0-8.71-2.56,13.82,13.82,0,0,0-8.71,2.74l-.07,0a13.61,13.61,0,0,0-4.56,10.94c0,9.09,5.71,19.25,13.34,19.25,3.68,0,7.23-2.31,10-6.5A24.26,24.26,0,0,0,866,204.2a12.93,12.93,0,0,0-5.16-11.14Zm0,11.06v.07c0,7.28-4.91,14.14-8.71,14.14s-8.12-6.53-8.12-14.14v-.09a8.33,8.33,0,0,1,2.68-6.84A8.67,8.67,0,0,1,852,195.6h.08a9.62,9.62,0,0,1,5.63,1.6A8.07,8.07,0,0,1,860.77,204.09Z" transform="translate(0 0)" style="fill:#fff"/><path d="M878.42,251.7a2.54,2.54,0,0,0-1.73-.95,1.93,1.93,0,0,0-.48,0H872.1V238.5a10.49,10.49,0,0,0-3.63-7.9,24.56,24.56,0,0,0-32.23,0,10.46,10.46,0,0,0-3.63,7.91v8.07a2.56,2.56,0,0,0,.77,1.83,2.6,2.6,0,0,0,4.43-1.84v-8.06a5.33,5.33,0,0,1,1.85-4,19.36,19.36,0,0,1,25.38,0,5.32,5.32,0,0,1,1.84,4v12.24H822.44V238.5a10.49,10.49,0,0,0-3.63-7.9,24.57,24.57,0,0,0-32.24,0,10.49,10.49,0,0,0-3.63,7.91v8.06a2.61,2.61,0,0,0,5.22,0v-8.06a5.32,5.32,0,0,1,1.84-4,19.35,19.35,0,0,1,25.38,0,5.3,5.3,0,0,1,1.86,4v12.24H778.73a2.58,2.58,0,0,0-.48,5.14h98a2.62,2.62,0,0,0,2.78-2.31A2.54,2.54,0,0,0,878.42,251.7Z" transform="translate(0 0)" style="fill:#fff"/><path d="M811.12,193a14.8,14.8,0,0,0-8.7-2.56,14,14,0,0,0-8.73,2.74l-.07,0a13.54,13.54,0,0,0-4.54,10.94,24.78,24.78,0,0,0,3.66,12.86c2.58,4.12,6,6.39,9.67,6.39s7.22-2.31,10-6.5a24.2,24.2,0,0,0,3.93-12.75,13,13,0,0,0-5.15-11.14Zm0,11.06v.07c0,7.28-4.9,14.14-8.7,14.14s-8.13-6.53-8.13-14.14v-.09a8.37,8.37,0,0,1,2.69-6.84,8.65,8.65,0,0,1,5.41-1.63h.08a9.49,9.49,0,0,1,5.61,1.6A8.09,8.09,0,0,1,811.11,204.09Z" transform="translate(0 0)" style="fill:#fff"/><path d="M792.74,150c2.58,4.11,6,6.38,9.67,6.38s7.22-2.31,10-6.49a24.16,24.16,0,0,0,3.93-12.74A13,13,0,0,0,811.17,126l0,0a14.91,14.91,0,0,0-8.7-2.58,14,14,0,0,0-8.73,2.76l-.07,0a13.53,13.53,0,0,0-4.54,10.94A24.77,24.77,0,0,0,792.74,150Zm9.67,1.25c-3.66,0-8.13-6.53-8.13-14.14V137a8.39,8.39,0,0,1,2.69-6.85,8.64,8.64,0,0,1,5.41-1.62h.08a9.56,9.56,0,0,1,5.61,1.6,8,8,0,0,1,3.05,6.88v.08C811.11,144.4,806.21,151.26,802.41,151.26Z" transform="translate(0 0)" style="fill:#fff"/><path d="M852.06,156.39c3.68,0,7.23-2.31,10-6.49A24.25,24.25,0,0,0,866,137.16a12.93,12.93,0,0,0-5.2-11.17,14.77,14.77,0,0,0-8.71-2.58,13.92,13.92,0,0,0-8.71,2.76l-.06,0a13.51,13.51,0,0,0-4.57,10.94C838.74,146.24,844.43,156.39,852.06,156.39Zm0-5.13c-3.66,0-8.12-6.53-8.12-14.14V137a8.38,8.38,0,0,1,2.68-6.85,8.58,8.58,0,0,1,5.39-1.62h.08a9.63,9.63,0,0,1,5.64,1.6,8,8,0,0,1,3,6.89v.07C860.77,144.4,855.86,151.26,852.06,151.26Z" transform="translate(0 0)" style="fill:#fff"/><path d="M778.69,188.84h97.57a2.57,2.57,0,1,0,0-5.13H872.1V171.46a10.47,10.47,0,0,0-3.63-7.9,24.56,24.56,0,0,0-32.23,0,10.43,10.43,0,0,0-3.63,7.91v8.07a2.59,2.59,0,0,0,2.62,2.58,2.62,2.62,0,0,0,2.58-2.59v-8.06a5.39,5.39,0,0,1,1.85-4,19.37,19.37,0,0,1,25.38,0,5.4,5.4,0,0,1,1.84,4.06v12.24H822.44V171.46a10.47,10.47,0,0,0-3.63-7.9,24.56,24.56,0,0,0-32.23,0,10.47,10.47,0,0,0-3.64,7.91v8.06a2.61,2.61,0,0,0,5.22,0v-8.06a5.36,5.36,0,0,1,1.84-4,19.36,19.36,0,0,1,25.38,0,5.41,5.41,0,0,1,1.86,4.05v12.24H778.69a2.57,2.57,0,1,0,0,5.13Z" transform="translate(0 0)" style="fill:#fff"/><path d="M160,324.64a19.71,19.71,0,0,1-5,2.71,16,16,0,0,1-5.69,1,10.37,10.37,0,0,1-3.84-.61,6,6,0,0,1-2.43-1.67,6.27,6.27,0,0,1-1.27-2.57,13.86,13.86,0,0,1-.38-3.36c0-3.38.85-5.84,2.66-7.36s4.55-2.29,8.21-2.29h7.4V309a8.11,8.11,0,0,0-.26-2.19,3,3,0,0,0-1-1.49,4,4,0,0,0-1.85-.81,14.86,14.86,0,0,0-2.94-.24c-.47,0-1,0-1.71.06l-2.08.12c-.71,0-1.42.09-2.14.17s-1.35.13-1.93.17a3.44,3.44,0,0,1-1.19,0c-.21-.06-.35-.3-.43-.72l-.52-2.11a1.28,1.28,0,0,1,.11-.95,2.77,2.77,0,0,1,1.22-.77,12.58,12.58,0,0,1,2.19-.57c.85-.15,1.72-.28,2.6-.37s1.77-.17,2.63-.23,1.65-.09,2.34-.09a19.35,19.35,0,0,1,6,.75,7.58,7.58,0,0,1,3.38,2.11,6.89,6.89,0,0,1,1.5,3.33,25.45,25.45,0,0,1,.35,4.39v11.15a9.41,9.41,0,0,0,.08,1.36,1.75,1.75,0,0,0,.29.75,1.15,1.15,0,0,0,.61.38,5.81,5.81,0,0,0,1.1.17,1.87,1.87,0,0,1,.86.23.75.75,0,0,1,.24.64v2.43c0,.65-.47,1.06-1.39,1.21-.46.08-.93.14-1.39.2a10.25,10.25,0,0,1-1.33.09,6.22,6.22,0,0,1-3.26-.75,4.12,4.12,0,0,1-1.71-2.78Zm-.35-9.6h-7.05a5.45,5.45,0,0,0-3.47,1c-.85.68-1.27,2-1.27,3.85a3.53,3.53,0,0,0,.78,2.63,4.15,4.15,0,0,0,2.8.72,10.26,10.26,0,0,0,2-.23,16.45,16.45,0,0,0,2.19-.64c.73-.27,1.45-.57,2.14-.89s1.31-.65,1.85-1Z" transform="translate(0 0)" style="fill:#fff"/><path d="M196.52,327.93h-4.14c-.78,0-1.16-.37-1.16-1.1,0-2.81,0-5.6,0-8.35s0-5.54,0-8.35a8.34,8.34,0,0,0-.78-3.9c-.52-1-1.64-1.48-3.38-1.48a7.5,7.5,0,0,0-2,.32c-.75.21-1.5.46-2.26.73a21.56,21.56,0,0,0-2.11.86q-1,.46-1.56.69v19.48a1.22,1.22,0,0,1-.23.81,1.06,1.06,0,0,1-.86.29H174c-.69,0-1-.37-1-1.1V288.28c0-.73.35-1.09,1-1.09h4.11c.77,0,1.15.36,1.15,1.09l0,14c.5-.31,1.12-.65,1.85-1s1.53-.71,2.38-1a18.3,18.3,0,0,1,2.66-.81,12.3,12.3,0,0,1,2.72-.32,10.43,10.43,0,0,1,4.75.9,6.3,6.3,0,0,1,2.64,2.4,9.05,9.05,0,0,1,1.16,3.49,33.07,33.07,0,0,1,.26,4.19v16.76C197.69,327.56,197.3,327.93,196.52,327.93Z" transform="translate(0 0)" style="fill:#fff"/><path d="M210,320.76q0,1.33.6,1.65a5,5,0,0,0,2.11.32,2.35,2.35,0,0,1,.84.17.89.89,0,0,1,.32.58l.23,2.95a1.09,1.09,0,0,1-.75,1.09,5.87,5.87,0,0,1-1.91.55,14,14,0,0,1-1.85.15q-3.28,0-4.59-1.48a6.48,6.48,0,0,1-1.3-4.42v-34a1,1,0,0,1,1.1-1.09h4.1a1,1,0,0,1,1.1,1.09Z" transform="translate(0 0)" style="fill:#fff"/><path d="M225.08,292.1a7.68,7.68,0,0,1-.11,1.3,2.46,2.46,0,0,1-.5,1.07,2.37,2.37,0,0,1-1,.72,5,5,0,0,1-1.76.26,4.7,4.7,0,0,1-1.82-.29,2.42,2.42,0,0,1-1-.75,2.46,2.46,0,0,1-.46-1.07,6.36,6.36,0,0,1-.12-1.24,3.92,3.92,0,0,1,.67-2.34c.44-.64,1.35-1,2.74-1s2.35.3,2.78.9A4.11,4.11,0,0,1,225.08,292.1Zm-.35,34.73a1.37,1.37,0,0,1-.2.78.92.92,0,0,1-.84.32h-4.1c-.77,0-1.16-.37-1.16-1.1V300.71c0-.73.39-1.1,1.16-1.1h4.1a.92.92,0,0,1,.84.32,1.37,1.37,0,0,1,.2.78Z" transform="translate(0 0)" style="fill:#fff"/><path d="M269.29,319.43a8.43,8.43,0,0,1-1,4.25,7.87,7.87,0,0,1-2.63,2.75,11.77,11.77,0,0,1-3.73,1.5,19.81,19.81,0,0,1-4.33.46,38.62,38.62,0,0,1-4.74-.32,18.68,18.68,0,0,1-4.22-.95,2,2,0,0,1-1.1-.78,1.77,1.77,0,0,1-.11-1.13l.4-1.9c.08-.47.23-.75.46-.84a1.92,1.92,0,0,1,1,0c.62.11,1.3.21,2.05.29l2.26.2c.75.06,1.46.11,2.14.14s1.26.06,1.76.06a7.68,7.68,0,0,0,4-.78,2.76,2.76,0,0,0,1.21-2.51,5.58,5.58,0,0,0-.2-1.62,2.18,2.18,0,0,0-.72-1,4.37,4.37,0,0,0-1.42-.67,16.41,16.41,0,0,0-2.28-.43,38.44,38.44,0,0,1-4-.75,11.79,11.79,0,0,1-3.38-1.36,6.64,6.64,0,0,1-2.34-2.37,7.48,7.48,0,0,1-.87-3.84,7.57,7.57,0,0,1,3-6.5,12.89,12.89,0,0,1,7.86-2.23c.58,0,1.25,0,2,.06s1.55.12,2.34.23,1.57.25,2.34.41a13,13,0,0,1,2.08.57c1,.39,1.37,1,1.22,1.74l-.47,2.08a1,1,0,0,1-.43.78,2.19,2.19,0,0,1-1.13,0c-1.23-.16-2.58-.3-4-.44s-2.74-.2-3.82-.2c-1.85,0-3.07.26-3.67.78a3.12,3.12,0,0,0-.89,2.46,2.14,2.14,0,0,0,1.12,2.19,15.46,15.46,0,0,0,3.79.93,37.62,37.62,0,0,1,4,.75,10.92,10.92,0,0,1,3.32,1.39,6.73,6.73,0,0,1,2.31,2.48A8.55,8.55,0,0,1,269.29,319.43Z" transform="translate(0 0)" style="fill:#fff"/><path d="M297.24,327.93h-4.1a1.09,1.09,0,0,1-.87-.29,1.28,1.28,0,0,1-.23-.81V325l-.11-.06c-.58.39-1.24.78-2,1.19a25.11,25.11,0,0,1-2.39,1.12,17.13,17.13,0,0,1-2.63.84,12,12,0,0,1-2.69.32,11,11,0,0,1-4.65-.81,5.83,5.83,0,0,1-2.58-2.25A8.56,8.56,0,0,1,273.9,322a35,35,0,0,1-.23-4.22v-17c0-.77.37-1.16,1.1-1.16H279c.7,0,1.05.39,1.05,1.16V317a15.33,15.33,0,0,0,.17,2.37,4.7,4.7,0,0,0,.64,1.76,3,3,0,0,0,1.26,1.12,4.64,4.64,0,0,0,2.13.41,8.41,8.41,0,0,0,2-.29,17.94,17.94,0,0,0,2.22-.72q1.08-.44,2-.87l1.49-.72v-19.3a1.42,1.42,0,0,1,.23-.84,1,1,0,0,1,.87-.32h4.1c.74,0,1.1.39,1.1,1.16v26.06A1,1,0,0,1,297.24,327.93Z" transform="translate(0 0)" style="fill:#fff"/><path d="M328.48,326.83a1.35,1.35,0,0,1-.21.81,1,1,0,0,1-.84.29h-4.16a.91.91,0,0,1-1-1v-1.83l-.08,0a.12.12,0,0,0-.09,0c-.5.34-1.1.71-1.79,1.11a21.63,21.63,0,0,1-2.26,1.12,16,16,0,0,1-2.51.83,10.87,10.87,0,0,1-2.57.31,9.53,9.53,0,0,1-4.65-1,7.42,7.42,0,0,1-2.89-2.86,13.06,13.06,0,0,1-1.51-4.48,37.7,37.7,0,0,1-.43-5.92,36.67,36.67,0,0,1,.49-6.33,12.74,12.74,0,0,1,1.77-4.77,8,8,0,0,1,3.49-3,14,14,0,0,1,5.75-1,20.64,20.64,0,0,1,7.17,1.33s.06,0,.06,0,0,0,.05,0v-12a1.51,1.51,0,0,1,.21-.87c.13-.19.43-.28.89-.28h4.1c.47,0,.76.1.87.31a1.74,1.74,0,0,1,.18.84Zm-6.3-21.26a22.77,22.77,0,0,0-6.68-1,6.82,6.82,0,0,0-2.67.47,3.57,3.57,0,0,0-1.75,1.56,8.57,8.57,0,0,0-.92,2.93,28.92,28.92,0,0,0-.29,4.55,30.17,30.17,0,0,0,.26,4.49,6.66,6.66,0,0,0,.84,2.61,3,3,0,0,0,1.39,1.22,5.47,5.47,0,0,0,2,.32,8,8,0,0,0,2-.29c.74-.2,1.47-.43,2.21-.7s1.42-.55,2.06-.84,1.17-.55,1.6-.78Z" transform="translate(0 0)" style="fill:#fff"/><path d="M351.7,324.64a19.47,19.47,0,0,1-4.94,2.71,16,16,0,0,1-5.69,1,10.43,10.43,0,0,1-3.85-.61,5.85,5.85,0,0,1-2.42-1.67,6.27,6.27,0,0,1-1.27-2.57,13.38,13.38,0,0,1-.38-3.36c0-3.38.85-5.84,2.66-7.36s4.54-2.29,8.2-2.29h7.4V309a7.73,7.73,0,0,0-.26-2.19,3,3,0,0,0-.95-1.49,4,4,0,0,0-1.85-.81,14.9,14.9,0,0,0-3-.24c-.46,0-1,0-1.7.06l-2.08.12c-.72,0-1.43.09-2.14.17s-1.36.13-1.94.17a3.38,3.38,0,0,1-1.18,0c-.21-.06-.36-.3-.44-.72L335.4,302a1.28,1.28,0,0,1,.12-.95,2.72,2.72,0,0,1,1.21-.77,12.71,12.71,0,0,1,2.2-.57c.85-.15,1.71-.28,2.6-.37s1.76-.17,2.63-.23,1.65-.09,2.34-.09a19.28,19.28,0,0,1,6,.75,7.58,7.58,0,0,1,3.38,2.11,6.89,6.89,0,0,1,1.5,3.33,24.49,24.49,0,0,1,.35,4.39v11.15a8,8,0,0,0,.09,1.36,1.63,1.63,0,0,0,.29.75,1.08,1.08,0,0,0,.6.38,6,6,0,0,0,1.1.17,1.92,1.92,0,0,1,.87.23.78.78,0,0,1,.23.64v2.43c0,.65-.46,1.06-1.39,1.21-.46.08-.92.14-1.38.2a10.49,10.49,0,0,1-1.33.09,6.28,6.28,0,0,1-3.27-.75,4.08,4.08,0,0,1-1.7-2.78Zm-.35-9.6H344.3a5.42,5.42,0,0,0-3.46,1c-.85.68-1.28,2-1.28,3.85a3.49,3.49,0,0,0,.79,2.63,4.15,4.15,0,0,0,2.8.72,10.17,10.17,0,0,0,2-.23,17,17,0,0,0,2.2-.64c.73-.27,1.44-.57,2.13-.89s1.31-.65,1.85-1Z" transform="translate(0 0)" style="fill:#fff"/><path d="M388.27,327.93h-4.14c-.78,0-1.17-.37-1.17-1.1,0-2.81,0-5.6,0-8.35s0-5.54,0-8.35a8.34,8.34,0,0,0-.78-3.9c-.52-1-1.65-1.48-3.38-1.48a7.57,7.57,0,0,0-2,.32c-.75.21-1.5.46-2.25.73a20.59,20.59,0,0,0-2.11.86q-1,.46-1.56.69v19.48a1.28,1.28,0,0,1-.23.81,1.09,1.09,0,0,1-.87.29h-4.1c-.7,0-1-.37-1-1.1V288.28c0-.73.34-1.09,1-1.09h4.1c.77,0,1.16.36,1.16,1.09v14a21,21,0,0,1,1.86-1c.73-.37,1.52-.71,2.37-1a19.09,19.09,0,0,1,2.66-.81,12.38,12.38,0,0,1,2.73-.32,10.43,10.43,0,0,1,4.75.9,6.27,6.27,0,0,1,2.63,2.4,8.89,8.89,0,0,1,1.16,3.49,33.07,33.07,0,0,1,.26,4.19v16.76C389.43,327.56,389,327.93,388.27,327.93Z" transform="translate(0 0)" style="fill:#fff"/><path d="M436.76,313.6a34.13,34.13,0,0,1-.52,6.3,12,12,0,0,1-1.82,4.68,8.15,8.15,0,0,1-3.52,2.89,14.12,14.12,0,0,1-5.64,1,22.49,22.49,0,0,1-3.32-.29,22.72,22.72,0,0,1-3.9-1l-.06.06v10.17a1.65,1.65,0,0,1-.2.81c-.14.23-.43.34-.9.34h-4.1c-.46,0-.76-.09-.9-.29a1.54,1.54,0,0,1-.2-.86V300.77c0-.77.37-1.16,1.1-1.16h4.1a.92.92,0,0,1,.84.32,1.49,1.49,0,0,1,.2.84v1.73l.18.12a20.69,20.69,0,0,1,1.82-1.13,22,22,0,0,1,2.28-1.13,20.21,20.21,0,0,1,2.48-.86,9.33,9.33,0,0,1,2.55-.35,9.51,9.51,0,0,1,4.68,1,7.65,7.65,0,0,1,2.92,2.92,13.56,13.56,0,0,1,1.5,4.53A37.22,37.22,0,0,1,436.76,313.6Zm-6.53-.06a29.41,29.41,0,0,0-.26-4.45,6.78,6.78,0,0,0-.84-2.6,2.83,2.83,0,0,0-1.41-1.24,5.43,5.43,0,0,0-2-.32,7.51,7.51,0,0,0-2,.29c-.73.19-1.45.41-2.17.66a19.4,19.4,0,0,0-2,.84q-1,.46-1.59.81V322a24.13,24.13,0,0,0,3.56.78,25.16,25.16,0,0,0,3.09.2,7.24,7.24,0,0,0,2.63-.43A3.56,3.56,0,0,0,429,321a8.08,8.08,0,0,0,.95-2.91A28.87,28.87,0,0,0,430.23,313.54Z" transform="translate(0 0)" style="fill:#fff"/><path d="M465.09,327.93H461a1.06,1.06,0,0,1-.86-.29,1.22,1.22,0,0,1-.23-.81V325l-.12-.06c-.58.39-1.24.78-2,1.19a25.31,25.31,0,0,1-2.4,1.12,17.13,17.13,0,0,1-2.63.84,11.9,11.9,0,0,1-2.69.32,11,11,0,0,1-4.65-.81,5.8,5.8,0,0,1-2.57-2.25,8.42,8.42,0,0,1-1.1-3.41,35,35,0,0,1-.23-4.22v-17c0-.77.37-1.16,1.11-1.16h4.25c.7,0,1.05.39,1.05,1.16V317a14.11,14.11,0,0,0,.18,2.37,4.53,4.53,0,0,0,.63,1.76,3,3,0,0,0,1.26,1.12,4.64,4.64,0,0,0,2.13.41,8.34,8.34,0,0,0,2-.29,17.94,17.94,0,0,0,2.22-.72q1.1-.44,2-.87l1.5-.72v-19.3a1.35,1.35,0,0,1,.23-.84,1,1,0,0,1,.86-.32h4.11c.73,0,1.09.39,1.09,1.16v26.06A1,1,0,0,1,465.09,327.93Z" transform="translate(0 0)" style="fill:#fff"/><path d="M496.38,327.64a1.07,1.07,0,0,1-.87.29h-4.2a1,1,0,0,1-1.11-1.1l.06-16.24a8.65,8.65,0,0,0-.84-4.1c-.56-1-1.67-1.56-3.32-1.56a7.9,7.9,0,0,0-2,.29,19.55,19.55,0,0,0-2.25.72c-.75.29-1.45.58-2.11.87s-1.17.53-1.56.72v19.3a1,1,0,0,1-1.1,1.1H473a1,1,0,0,1-1.1-1.1V300.77c0-.77.37-1.16,1.1-1.16h4.1c.73,0,1.1.39,1.1,1.16v1.73a.12.12,0,0,1,.09,0,.11.11,0,0,0,.08,0,18.79,18.79,0,0,1,1.95-1.19,24.2,24.2,0,0,1,2.4-1.12,16.6,16.6,0,0,1,2.67-.84,12.37,12.37,0,0,1,2.72-.32,9.93,9.93,0,0,1,4.64.9,6.17,6.17,0,0,1,2.55,2.4,8.85,8.85,0,0,1,1.1,3.49,35.14,35.14,0,0,1,.24,4.19v16.76A1.22,1.22,0,0,1,496.38,327.64Z" transform="translate(0 0)" style="fill:#fff"/><path d="M560,327.64a1,1,0,0,1-.84.29H555a1,1,0,0,1-1.09-1.1V310.42c0-2.16-.29-3.61-.87-4.37a3.65,3.65,0,0,0-3.06-1.12,6.4,6.4,0,0,0-1.82.29c-.68.19-1.35.41-2,.66a18.72,18.72,0,0,0-1.93.84l-1.62.81c0,.31,0,.71,0,1.21s0,1.08,0,1.74v16.35a1.28,1.28,0,0,1-.23.81,1.09,1.09,0,0,1-.87.29h-4.22c-.66,0-1-.37-1-1.1v-16.7a7.49,7.49,0,0,0-.81-3.93,3.28,3.28,0,0,0-3-1.27,7.47,7.47,0,0,0-1.7.23,14.06,14.06,0,0,0-2,.64c-.67.26-1.34.55-2,.86s-1.25.6-1.79.87v19.3a1,1,0,0,1-1.1,1.1h-4.16c-.69,0-1-.37-1-1.1V300.77c0-.77.35-1.16,1-1.16H524a1,1,0,0,1,1.16,1.16v1.67l.06.06c.57-.38,1.19-.78,1.84-1.18a14.39,14.39,0,0,1,2.11-1.07,20,20,0,0,1,2.29-.78,11.06,11.06,0,0,1,2.37-.38,12.67,12.67,0,0,1,4.53.78,6.54,6.54,0,0,1,3.38,3.27,28.49,28.49,0,0,1,4.8-2.84,12.71,12.71,0,0,1,5.38-1.21,9.84,9.84,0,0,1,4.5.87,6.17,6.17,0,0,1,2.55,2.34,8.76,8.76,0,0,1,1.09,3.44,33.86,33.86,0,0,1,.24,4.1v17A1.35,1.35,0,0,1,560,327.64Z" transform="translate(0 0)" style="fill:#fff"/><path d="M571.84,315.5a14.62,14.62,0,0,0,.49,3.64,5.16,5.16,0,0,0,1.31,2.29,4.79,4.79,0,0,0,2.13,1.18,11.85,11.85,0,0,0,3.07.35,36.28,36.28,0,0,0,3.7-.23l3.81-.41a2.45,2.45,0,0,1,1.13,0c.21.1.35.42.43,1l.35,1.9a2.2,2.2,0,0,1,0,1q-.15.4-1,.75a11.87,11.87,0,0,1-2,.61c-.77.17-1.58.32-2.43.43s-1.69.22-2.54.29-1.62.12-2.31.12a15.47,15.47,0,0,1-6.65-1.21,9.39,9.39,0,0,1-3.81-3.24,11.85,11.85,0,0,1-1.76-4.65,33.53,33.53,0,0,1-.44-5.46,36.18,36.18,0,0,1,.35-4.69,13.65,13.65,0,0,1,1.59-4.85,10.46,10.46,0,0,1,3.7-3.79,12.52,12.52,0,0,1,6.67-1.53,14.53,14.53,0,0,1,6.27,1.16,9.69,9.69,0,0,1,3.73,3,10.64,10.64,0,0,1,1.82,4.16A25.64,25.64,0,0,1,590,312a4.55,4.55,0,0,1-.52,2.54,2.46,2.46,0,0,1-2.31,1Zm5.78-11.21a6.75,6.75,0,0,0-2.66.46,4.26,4.26,0,0,0-1.7,1.35,5.64,5.64,0,0,0-1,2.18,19.13,19.13,0,0,0-.41,2.89h11.44a13.29,13.29,0,0,0-.23-2.55,6.37,6.37,0,0,0-.83-2.21,4.29,4.29,0,0,0-1.74-1.54A6.32,6.32,0,0,0,577.62,304.29Z" transform="translate(0 0)" style="fill:#fff"/><path d="M619,327.64a1.1,1.1,0,0,1-.88.29h-4.19a1,1,0,0,1-1.11-1.1l.06-16.24a8.65,8.65,0,0,0-.84-4.1q-.84-1.56-3.33-1.56a7.83,7.83,0,0,0-2,.29,19.55,19.55,0,0,0-2.25.72c-.75.29-1.46.58-2.11.87s-1.18.53-1.56.72v19.3a1,1,0,0,1-1.1,1.1h-4.1a1,1,0,0,1-1.1-1.1V300.77c0-.77.36-1.16,1.1-1.16h4.1c.73,0,1.1.39,1.1,1.16v1.73a.11.11,0,0,1,.08,0,.12.12,0,0,0,.09,0,18.56,18.56,0,0,1,1.94-1.19,25.51,25.51,0,0,1,2.41-1.12,16.6,16.6,0,0,1,2.67-.84,12.23,12.23,0,0,1,2.72-.32,9.93,9.93,0,0,1,4.64.9,6.17,6.17,0,0,1,2.55,2.4,8.85,8.85,0,0,1,1.1,3.49,35.19,35.19,0,0,1,.23,4.19v16.76A1.28,1.28,0,0,1,619,327.64Z" transform="translate(0 0)" style="fill:#fff"/><path d="M635.56,319.84c.42-1.2.82-2.31,1.18-3.35l1-2.72c.3-.93.59-1.77.86-2.54l3.59-10.64a1.61,1.61,0,0,1,.46-.75,1.5,1.5,0,0,1,.92-.23h4.28c.46,0,.71.12.75.35a1.63,1.63,0,0,1-.11.81L635,337.52a1.89,1.89,0,0,1-.52.81,1.75,1.75,0,0,1-1,.23h-3.93c-.46,0-.72-.11-.78-.34a1.32,1.32,0,0,1,.09-.81l3.64-9.77-10.11-26.87a1.32,1.32,0,0,1-.09-.81c.06-.23.3-.35.72-.35h4.45a1.93,1.93,0,0,1,.81.12c.15.07.31.32.46.75l3.76,10.75,2.89,8.61Z" transform="translate(0 0)" style="fill:#fff"/><path d="M657.2,315.5a14.17,14.17,0,0,0,.49,3.64,5.25,5.25,0,0,0,1.3,2.29,4.82,4.82,0,0,0,2.14,1.18,11.85,11.85,0,0,0,3.07.35,35.94,35.94,0,0,0,3.69-.23l3.82-.41a2.4,2.4,0,0,1,1.12,0c.22.1.36.42.44,1l.35,1.9a2.2,2.2,0,0,1,0,1q-.15.4-1,.75a12.15,12.15,0,0,1-2,.61c-.77.17-1.58.32-2.43.43s-1.69.22-2.54.29-1.62.12-2.31.12a15.44,15.44,0,0,1-6.65-1.21,9.32,9.32,0,0,1-3.81-3.24,11.7,11.7,0,0,1-1.76-4.65,33.53,33.53,0,0,1-.44-5.46,36.18,36.18,0,0,1,.35-4.69,13.65,13.65,0,0,1,1.59-4.85,10.46,10.46,0,0,1,3.7-3.79A12.52,12.52,0,0,1,663,299a14.53,14.53,0,0,1,6.27,1.16,9.69,9.69,0,0,1,3.73,3,10.64,10.64,0,0,1,1.82,4.16,25.64,25.64,0,0,1,.55,4.65,4.63,4.63,0,0,1-.52,2.54,2.46,2.46,0,0,1-2.31,1ZM663,304.29a6.75,6.75,0,0,0-2.66.46,4.26,4.26,0,0,0-1.7,1.35,5.5,5.5,0,0,0-1,2.18,19.13,19.13,0,0,0-.41,2.89H668.7a14.14,14.14,0,0,0-.23-2.55,6.19,6.19,0,0,0-.84-2.21,4.2,4.2,0,0,0-1.73-1.54A6.35,6.35,0,0,0,663,304.29Z" transform="translate(0 0)" style="fill:#fff"/><path d="M686.86,326.83a1,1,0,0,1-1.11,1.1h-4.2a1,1,0,0,1-1.1-1.1V300.77c0-.77.37-1.16,1.1-1.16h4.14a1,1,0,0,1,1.17,1.16v2.54l.12.12a12.67,12.67,0,0,1,1.67-1.25,20.56,20.56,0,0,1,2.23-1.21c.79-.37,1.59-.7,2.4-1a12,12,0,0,1,2.25-.64,1.44,1.44,0,0,1,.92.06c.24.12.39.42.47.92l.4,3.88a2.06,2.06,0,0,1-.06.92c-.07.19-.42.35-1,.46-.81.16-1.65.34-2.54.55s-1.75.45-2.6.7l-2.37.72a16.08,16.08,0,0,0-1.85.69Z" transform="translate(0 0)" style="fill:#fff"/><path d="M719.29,325.73a1.24,1.24,0,0,1-.75,1.45,9.56,9.56,0,0,1-1.76.58c-.67.15-1.37.27-2.08.37s-1.39.16-2,.2-1.19.06-1.65.06a8.86,8.86,0,0,1-4-.72,4.85,4.85,0,0,1-2.11-2,7.9,7.9,0,0,1-.87-2.95c-.11-1.12-.17-2.29-.17-3.53V304.7H701a1.13,1.13,0,0,1-.86-.26,1.24,1.24,0,0,1-.24-.84v-2.83a1.33,1.33,0,0,1,.24-.87,1.06,1.06,0,0,1,.86-.29h3v-5.95a1.1,1.1,0,0,1,.32-.9,1.89,1.89,0,0,1,.78-.37l3.87-1c.77-.2,1.16,0,1.16.69v7.57h6.18c.46,0,.76.1.89.29a1.35,1.35,0,0,1,.21.81v2.89a1.37,1.37,0,0,1-.21.84,1.12,1.12,0,0,1-.89.26h-6.18v14.39a7,7,0,0,0,.17,1.79,1.65,1.65,0,0,0,.61.95,2.26,2.26,0,0,0,1.18.38c.5,0,1.14.05,1.91.05.42,0,1,0,1.82-.05s1.47-.1,2.05-.18a1,1,0,0,1,.69.12,1.14,1.14,0,0,1,.35.69Z" transform="translate(0 0)" style="fill:#fff"/><path d="M740.75,324.64a19.71,19.71,0,0,1-5,2.71,16,16,0,0,1-5.69,1,10.37,10.37,0,0,1-3.84-.61,6,6,0,0,1-2.43-1.67,6.27,6.27,0,0,1-1.27-2.57,13.88,13.88,0,0,1-.37-3.36c0-3.38.84-5.84,2.65-7.36s4.55-2.29,8.21-2.29h7.4V309a8.11,8.11,0,0,0-.26-2.19,3,3,0,0,0-1-1.49,4,4,0,0,0-1.85-.81,14.86,14.86,0,0,0-2.94-.24c-.47,0-1,0-1.71.06l-2.08.12c-.71,0-1.42.09-2.14.17s-1.35.13-1.93.17a3.44,3.44,0,0,1-1.19,0c-.21-.06-.35-.3-.43-.72l-.52-2.11a1.28,1.28,0,0,1,.11-.95,2.77,2.77,0,0,1,1.22-.77,12.58,12.58,0,0,1,2.19-.57c.85-.15,1.72-.28,2.6-.37s1.77-.17,2.63-.23,1.65-.09,2.34-.09a19.35,19.35,0,0,1,6,.75,7.58,7.58,0,0,1,3.38,2.11,6.89,6.89,0,0,1,1.5,3.33,25.45,25.45,0,0,1,.35,4.39v11.15a9.41,9.41,0,0,0,.08,1.36,1.75,1.75,0,0,0,.29.75,1.15,1.15,0,0,0,.61.38,6,6,0,0,0,1.1.17,1.87,1.87,0,0,1,.86.23.75.75,0,0,1,.23.64v2.43c0,.65-.46,1.06-1.38,1.21-.46.08-.93.14-1.39.2a10.37,10.37,0,0,1-1.33.09,6.22,6.22,0,0,1-3.26-.75,4.12,4.12,0,0,1-1.71-2.78Zm-.35-9.6h-7a5.45,5.45,0,0,0-3.47,1c-.85.68-1.27,2-1.27,3.85a3.53,3.53,0,0,0,.78,2.63,4.15,4.15,0,0,0,2.8.72,10.26,10.26,0,0,0,2-.23,16.45,16.45,0,0,0,2.19-.64c.73-.27,1.45-.57,2.14-.89s1.31-.65,1.85-1Z" transform="translate(0 0)" style="fill:#fff"/><path d="M760.82,292.1a6.75,6.75,0,0,1-.12,1.3,2.31,2.31,0,0,1-1.53,1.79,5,5,0,0,1-1.76.26,4.7,4.7,0,0,1-1.82-.29,2.45,2.45,0,0,1-1-.75,2.58,2.58,0,0,1-.46-1.07,6.36,6.36,0,0,1-.11-1.24,4,4,0,0,1,.66-2.34c.44-.64,1.36-1,2.75-1s2.35.3,2.77.9A4.11,4.11,0,0,1,760.82,292.1Zm-.35,34.73a1.46,1.46,0,0,1-.2.78,1,1,0,0,1-.84.32h-4.1c-.78,0-1.16-.37-1.16-1.1V300.71c0-.73.38-1.1,1.16-1.1h4.1a1,1,0,0,1,.84.32,1.46,1.46,0,0,1,.2.78Z" transform="translate(0 0)" style="fill:#fff"/><path d="M157.59,384.16h-5.72l-3,12.25q-.18.87-.81.87h-3c-.66,0-.93-.33-.81-1l3-12.14H141q-.93,0-.69-.75l.63-2.54a1.09,1.09,0,0,1,1.16-.87h6.12l1.39-5.66h-6.18a1.16,1.16,0,0,1-.67-.15c-.13-.09-.16-.32-.08-.66l.69-2.43a1.79,1.79,0,0,1,.4-.67,1.19,1.19,0,0,1,.76-.2h6.12l2.49-10.34a1.56,1.56,0,0,1,.29-.67.9.9,0,0,1,.69-.2h3c.62,0,.85.33.7,1l-2.49,10.23H161l2.54-10.34a1.69,1.69,0,0,1,.29-.67.9.9,0,0,1,.69-.2h3q.91,0,.75.87l-2.6,10.34H172q1,0,.81.87l-.63,2.43a1.24,1.24,0,0,1-.35.6,1,1,0,0,1-.69.21h-6.48L163.25,380h6.42c.65,0,.9.31.75.92l-.64,2.43a1,1,0,0,1-1,.81h-6.47l-3,12.25a1.69,1.69,0,0,1-.29.67.73.73,0,0,1-.57.2h-3c-.73,0-1-.33-.81-1ZM152.91,380h5.72l1.38-5.66h-5.72Z" transform="translate(0 0)" style="fill:#fff"/><path d="M195.54,383.52l3.51-7.51,7.84-15.95a2.7,2.7,0,0,1,.67-.87,2.08,2.08,0,0,1,1.24-.28h3.35a.85.85,0,0,1,.78.31,1.32,1.32,0,0,1,.21.73v36.23a1.38,1.38,0,0,1-.21.78.91.91,0,0,1-.83.32h-4.22c-.77,0-1.16-.37-1.16-1.1V373h-.17l-2,4.45-6.34,12.94a2.48,2.48,0,0,1-.66.81,1.64,1.64,0,0,1-1,.29h-2.19a1.87,1.87,0,0,1-1.1-.26,2.51,2.51,0,0,1-.63-.72L186,377.05l-1.91-4H184v23.17a1.38,1.38,0,0,1-.21.78.92.92,0,0,1-.84.32H178.7a1,1,0,0,1-1.11-1.1V360a.92.92,0,0,1,1-1h3.62a2.27,2.27,0,0,1,1.22.23,1.91,1.91,0,0,1,.64.86L192,376.19l3.4,7.33Z" transform="translate(0 0)" style="fill:#fff"/><path d="M225.79,384.85a13.88,13.88,0,0,0,.49,3.65,5.17,5.17,0,0,0,1.3,2.28,4.82,4.82,0,0,0,2.14,1.18,11.71,11.71,0,0,0,3.06.35,36.28,36.28,0,0,0,3.7-.23l3.81-.41a2.44,2.44,0,0,1,1.13,0c.21.1.35.42.43,1l.35,1.9a2,2,0,0,1,0,1c-.1.27-.41.52-.95.75a12.29,12.29,0,0,1-2,.61c-.77.18-1.58.32-2.42.43s-1.7.22-2.55.29-1.62.12-2.31.12a15.39,15.39,0,0,1-6.64-1.21,9.35,9.35,0,0,1-3.82-3.24,11.85,11.85,0,0,1-1.76-4.65,33.54,33.54,0,0,1-.43-5.46,36,36,0,0,1,.34-4.69,13.65,13.65,0,0,1,1.59-4.85,10.36,10.36,0,0,1,3.7-3.78,12.45,12.45,0,0,1,6.67-1.54,14.55,14.55,0,0,1,6.28,1.16,9.66,9.66,0,0,1,3.72,3,10.5,10.5,0,0,1,1.82,4.16,25.64,25.64,0,0,1,.55,4.65,4.55,4.55,0,0,1-.52,2.54,2.43,2.43,0,0,1-2.31,1Zm5.77-11.21a6.7,6.7,0,0,0-2.65.46,4.23,4.23,0,0,0-1.71,1.35,5.64,5.64,0,0,0-.95,2.18,19.13,19.13,0,0,0-.41,2.89h11.45a14.14,14.14,0,0,0-.23-2.55,6.59,6.59,0,0,0-.84-2.21,4.29,4.29,0,0,0-1.74-1.54A6.32,6.32,0,0,0,231.56,373.64Z" transform="translate(0 0)" style="fill:#fff"/><path d="M266.24,395.08a1.26,1.26,0,0,1-.75,1.45,9.56,9.56,0,0,1-1.76.58c-.68.15-1.37.28-2.08.37s-1.39.16-2,.2-1.18.06-1.64.06a8.86,8.86,0,0,1-4-.72,4.8,4.8,0,0,1-2.11-2,7.72,7.72,0,0,1-.87-2.95,33.14,33.14,0,0,1-.17-3.53v-14.5H248a1.14,1.14,0,0,1-.87-.26,1.28,1.28,0,0,1-.23-.84v-2.83a1.39,1.39,0,0,1,.23-.87A1.07,1.07,0,0,1,248,369h2.94V363a1.13,1.13,0,0,1,.32-.9,2,2,0,0,1,.78-.37l3.87-1c.78-.19,1.16,0,1.16.69V369h6.18c.47,0,.76.1.9.29a1.42,1.42,0,0,1,.2.81V373a1.42,1.42,0,0,1-.2.84,1.15,1.15,0,0,1-.9.26h-6.18v14.39a7.43,7.43,0,0,0,.17,1.79,1.7,1.7,0,0,0,.61.95,2.3,2.3,0,0,0,1.19.38c.5,0,1.13.06,1.9.06.43,0,1,0,1.82-.06s1.48-.1,2.05-.17a1,1,0,0,1,.7.11,1.17,1.17,0,0,1,.34.69Z" transform="translate(0 0)" style="fill:#fff"/><path d="M287.69,394a19.47,19.47,0,0,1-4.94,2.71,16,16,0,0,1-5.69,1,10.66,10.66,0,0,1-3.85-.6,6,6,0,0,1-2.42-1.68,6.27,6.27,0,0,1-1.27-2.57,13.36,13.36,0,0,1-.38-3.35q-.06-5.09,2.66-7.37c1.81-1.52,4.54-2.29,8.2-2.29h7.4v-1.51a7.73,7.73,0,0,0-.26-2.19,3,3,0,0,0-.95-1.49,4,4,0,0,0-1.85-.81,14.9,14.9,0,0,0-2.95-.24c-.46,0-1,0-1.7.06l-2.08.12c-.72,0-1.43.09-2.14.17s-1.36.14-1.94.17a3.38,3.38,0,0,1-1.18,0c-.21-.06-.36-.3-.44-.72l-.52-2.11a1.28,1.28,0,0,1,.12-.95,2.72,2.72,0,0,1,1.21-.77,12.71,12.71,0,0,1,2.2-.57c.85-.15,1.71-.28,2.6-.37s1.76-.17,2.63-.23,1.65-.09,2.34-.09a19.24,19.24,0,0,1,6,.76,7.48,7.48,0,0,1,3.38,2.1,6.89,6.89,0,0,1,1.5,3.33,24.49,24.49,0,0,1,.35,4.39v11.15a8,8,0,0,0,.09,1.36,1.63,1.63,0,0,0,.29.75,1.08,1.08,0,0,0,.6.38,6,6,0,0,0,1.1.17,1.92,1.92,0,0,1,.87.23.78.78,0,0,1,.23.64v2.43c0,.65-.46,1.06-1.39,1.21-.46.08-.92.14-1.38.2a10.49,10.49,0,0,1-1.33.09,6.28,6.28,0,0,1-3.27-.75,4.08,4.08,0,0,1-1.7-2.78Zm-.35-9.6h-7a5.42,5.42,0,0,0-3.46,1c-.85.68-1.27,2-1.27,3.85a3.49,3.49,0,0,0,.78,2.63,4.15,4.15,0,0,0,2.8.72,10.17,10.17,0,0,0,2-.23,17,17,0,0,0,2.2-.64c.73-.27,1.44-.57,2.14-.89s1.3-.65,1.84-1Z" transform="translate(0 0)" style="fill:#fff"/><path d="M322.68,360.07a1,1,0,0,1,1.15-1.16h4.34a.94.94,0,0,1,.84.31,1.63,1.63,0,0,1,.2.84v36.12a1.46,1.46,0,0,1-.2.78,1,1,0,0,1-.84.32h-4.34c-.77,0-1.15-.37-1.15-1.1V380H308.11v16.18a1.37,1.37,0,0,1-.2.78.92.92,0,0,1-.84.32h-4.33c-.77,0-1.16-.37-1.16-1.1V360.06a1,1,0,0,1,1.16-1.15h4.33c.43,0,.71.1.84.32a1.49,1.49,0,0,1,.2.84v14.27h14.57Z" transform="translate(0 0)" style="fill:#fff"/><path d="M353.46,394a19.64,19.64,0,0,1-4.94,2.71,16,16,0,0,1-5.7,1,10.6,10.6,0,0,1-3.84-.6,6.07,6.07,0,0,1-2.43-1.68,6.4,6.4,0,0,1-1.27-2.57,13.86,13.86,0,0,1-.37-3.35q-.06-5.09,2.65-7.37c1.82-1.52,4.55-2.29,8.21-2.29h7.4v-1.51a8.11,8.11,0,0,0-.26-2.19,3,3,0,0,0-1-1.49,4,4,0,0,0-1.85-.81,15,15,0,0,0-2.95-.24q-.69,0-1.71.06l-2.08.12c-.71,0-1.42.09-2.14.17s-1.35.14-1.93.17a3.45,3.45,0,0,1-1.19,0c-.21-.06-.35-.3-.43-.72l-.52-2.11a1.24,1.24,0,0,1,.12-.95,2.66,2.66,0,0,1,1.21-.77,12.71,12.71,0,0,1,2.2-.57c.84-.15,1.71-.28,2.6-.37s1.76-.17,2.63-.23,1.64-.09,2.34-.09a19.29,19.29,0,0,1,6,.76,7.48,7.48,0,0,1,3.38,2.1,6.89,6.89,0,0,1,1.5,3.33,25.45,25.45,0,0,1,.35,4.39v11.15a8,8,0,0,0,.09,1.36,1.64,1.64,0,0,0,.28.75,1.15,1.15,0,0,0,.61.38,6,6,0,0,0,1.1.17,2,2,0,0,1,.87.23.78.78,0,0,1,.23.64v2.43c0,.65-.47,1.06-1.39,1.21-.46.08-.93.14-1.39.2a10.25,10.25,0,0,1-1.33.09,6.24,6.24,0,0,1-3.26-.75,4.12,4.12,0,0,1-1.71-2.78Zm-.35-9.6h-7.05a5.47,5.47,0,0,0-3.47,1c-.84.68-1.27,2-1.27,3.85a3.53,3.53,0,0,0,.78,2.63,4.17,4.17,0,0,0,2.8.72,10.18,10.18,0,0,0,2-.23,16.45,16.45,0,0,0,2.19-.64c.73-.27,1.45-.57,2.14-.89s1.31-.65,1.85-1Z" transform="translate(0 0)" style="fill:#fff"/><path d="M388.07,388.78a8.43,8.43,0,0,1-1,4.25,7.87,7.87,0,0,1-2.63,2.75,11.77,11.77,0,0,1-3.73,1.5,19.81,19.81,0,0,1-4.33.46,36.74,36.74,0,0,1-4.74-.32,18.56,18.56,0,0,1-4.22-.95,2,2,0,0,1-1.1-.78,1.77,1.77,0,0,1-.12-1.13l.41-1.9c.08-.47.23-.74.46-.84a1.92,1.92,0,0,1,1,0c.62.11,1.3.21,2.05.29s1.51.14,2.26.2l2.13.15c.68,0,1.27.05,1.77.05a7.61,7.61,0,0,0,4-.78,2.77,2.77,0,0,0,1.22-2.51,5.63,5.63,0,0,0-.2-1.62,2.13,2.13,0,0,0-.73-1,4.12,4.12,0,0,0-1.41-.66,14.91,14.91,0,0,0-2.28-.44,38.44,38.44,0,0,1-4.05-.75,11.79,11.79,0,0,1-3.38-1.36,6.64,6.64,0,0,1-2.34-2.37,7.48,7.48,0,0,1-.87-3.84,7.57,7.57,0,0,1,3-6.5,12.89,12.89,0,0,1,7.86-2.23c.57,0,1.25,0,2,.06s1.55.12,2.34.23,1.57.25,2.34.41a12.24,12.24,0,0,1,2.08.58c1,.38,1.37,1,1.21,1.73l-.46,2.08c-.08.42-.22.68-.43.78a2.19,2.19,0,0,1-1.13,0c-1.23-.15-2.58-.3-4-.44s-2.74-.2-3.82-.2c-1.85,0-3.07.26-3.67.78a3.08,3.08,0,0,0-.89,2.46,2.17,2.17,0,0,0,1.12,2.2,15.91,15.91,0,0,0,3.79.92,38.12,38.12,0,0,1,4,.75,10.92,10.92,0,0,1,3.32,1.39,6.89,6.89,0,0,1,2.31,2.48A8.55,8.55,0,0,1,388.07,388.78Z" transform="translate(0 0)" style="fill:#fff"/><path d="M416.15,397.28H412c-.78,0-1.17-.37-1.17-1.1q0-4.21,0-8.35c0-2.75,0-5.54,0-8.35a8.34,8.34,0,0,0-.78-3.9c-.52-1-1.64-1.48-3.38-1.48a7.5,7.5,0,0,0-2,.32c-.75.22-1.5.46-2.26.73s-1.45.55-2.11.86-1.17.54-1.56.7v19.47a1.22,1.22,0,0,1-.23.81,1.06,1.06,0,0,1-.86.29h-4.11c-.69,0-1-.37-1-1.1V357.63c0-.73.35-1.09,1-1.09h4.11c.77,0,1.15.36,1.15,1.09l0,14c.5-.31,1.12-.65,1.85-1s1.52-.71,2.37-1a18.82,18.82,0,0,1,2.67-.81,12.3,12.3,0,0,1,2.72-.32,10.43,10.43,0,0,1,4.75.9,6.3,6.3,0,0,1,2.64,2.4,9.05,9.05,0,0,1,1.16,3.49,33.07,33.07,0,0,1,.26,4.19v16.76C417.32,396.91,416.93,397.28,416.15,397.28Z" transform="translate(0 0)" style="fill:#fff"/><path d="M157.65,173.07h20.12c.9,0,1.34.43,1.34,1.27v7.18a1.71,1.71,0,0,1-.33,1.09,1.67,1.67,0,0,1-1.31.41H147.4a1.54,1.54,0,0,1-1.3-.45,1.78,1.78,0,0,1-.34-1.12V135a2,2,0,0,1,.37-1.23,1.53,1.53,0,0,1,1.27-.49H156c1.1,0,1.65.58,1.65,1.72Z" transform="translate(0 0)" style="fill:#fff"/><path d="M194.75,167.24a9.31,9.31,0,0,0,.67,3.51,5.15,5.15,0,0,0,4.07,3.18,18.6,18.6,0,0,0,3.33.26c1.15,0,2.52-.07,4.12-.22s3.16-.32,4.71-.52a4.64,4.64,0,0,1,1.87,0c.25.13.47.66.67,1.61l.6,3.52a4.33,4.33,0,0,1,0,2q-.22.71-1.95,1.38a24.62,24.62,0,0,1-2.65.71c-1,.23-2.07.41-3.14.56s-2.16.27-3.26.34-2.09.11-3,.11a22.16,22.16,0,0,1-9.08-1.57,13.36,13.36,0,0,1-5.39-4.15,14.74,14.74,0,0,1-2.58-6,36.69,36.69,0,0,1-.67-7.15,46.05,46.05,0,0,1,.45-6.05,17.11,17.11,0,0,1,2.17-6.36,13.92,13.92,0,0,1,5.12-5q3.41-2,9.31-2a20.81,20.81,0,0,1,8.68,1.53,13.23,13.23,0,0,1,5.12,4,14.26,14.26,0,0,1,2.5,5.5,27.65,27.65,0,0,1,.68,6,6.18,6.18,0,0,1-.86,3.55c-.58.83-1.66,1.24-3.26,1.24Zm5.38-13.09a4.54,4.54,0,0,0-3.85,1.61,8.33,8.33,0,0,0-1.38,4.75h10.39a8.5,8.5,0,0,0-1.12-4.53C203.42,154.76,202.07,154.15,200.13,154.15Z" transform="translate(0 0)" style="fill:#fff"/><path d="M234.61,146.67a28.86,28.86,0,0,1,4.09-1,22.54,22.54,0,0,1,3.49-.3,19.75,19.75,0,0,1,8,1.38,11.14,11.14,0,0,1,4.77,3.89,15.29,15.29,0,0,1,2.29,6,47.84,47.84,0,0,1-.08,15.59,14.53,14.53,0,0,1-2.58,6.17,12.16,12.16,0,0,1-5.23,3.93,22.84,22.84,0,0,1-8.64,1.38q-1.87,0-4-.15c-1.4-.1-2.77-.24-4.12-.41s-2.64-.4-3.89-.67a19.74,19.74,0,0,1-3.29-1,3.28,3.28,0,0,1-1.83-1.5,5.25,5.25,0,0,1-.41-2.17V131.86a2,2,0,0,1,.33-1.19,1.56,1.56,0,0,1,1.3-.45h8.18c.69,0,1.12.18,1.3.56a2.59,2.59,0,0,1,.26,1.08Zm11.51,18.1a26.67,26.67,0,0,0-.33-4.6,8.63,8.63,0,0,0-1-2.92,4.07,4.07,0,0,0-1.73-1.57,6,6,0,0,0-2.49-.48,20.2,20.2,0,0,0-2.63.15c-.75.1-1.86.32-3.31.67v17.35a22.06,22.06,0,0,0,2.59.3c.88.05,1.67.07,2.38.07a10.63,10.63,0,0,0,2.56-.29,4.29,4.29,0,0,0,2.1-1.24,6.15,6.15,0,0,0,1.4-2.69A18.75,18.75,0,0,0,246.12,164.77Z" transform="translate(0 0)" style="fill:#fff"/><path d="M277.31,136.35a9.49,9.49,0,0,1-.22,2.06,4.32,4.32,0,0,1-.86,1.79,4.46,4.46,0,0,1-1.8,1.27,7.8,7.8,0,0,1-3,.49,8.37,8.37,0,0,1-3.14-.49,4.2,4.2,0,0,1-1.83-1.31,4.12,4.12,0,0,1-.82-1.79,10.25,10.25,0,0,1-.19-2,6.42,6.42,0,0,1,1.2-3.93c.79-1.07,2.39-1.6,4.78-1.6a8.87,8.87,0,0,1,3,.41,4.34,4.34,0,0,1,1.83,1.16,3.81,3.81,0,0,1,.9,1.75A10.22,10.22,0,0,1,277.31,136.35Zm-.37,45a2.57,2.57,0,0,1-.26,1.13c-.18.34-.59.52-1.24.52h-8.23a1.54,1.54,0,0,1-1.3-.45,1.92,1.92,0,0,1-.34-1.2V147.72a1.91,1.91,0,0,1,.34-1.24,1.64,1.64,0,0,1,1.3-.41h8.23c.65,0,1.06.19,1.24.56a2.67,2.67,0,0,1,.26,1.09Z" transform="translate(0 0)" style="fill:#fff"/><path d="M319.94,181.37a2.57,2.57,0,0,1-.26,1.13c-.18.34-.61.52-1.31.52h-8.23a1.46,1.46,0,0,1-1.64-1.65v-4q0-2.84,0-6t0-6v-4c0-2-.36-3.49-1.08-4.34a4.32,4.32,0,0,0-3.48-1.27,8.41,8.41,0,0,0-1.83.22c-.67.15-1.35.34-2,.56s-1.31.46-1.91.71l-1.57.67v23.56a2.57,2.57,0,0,1-.26,1.13c-.18.34-.61.52-1.31.52h-8.23a1.45,1.45,0,0,1-1.23-.45,2,2,0,0,1-.34-1.2V131.86a2,2,0,0,1,.34-1.19,1.45,1.45,0,0,1,1.23-.45h8.31c.69,0,1.13.17,1.3.52a2.4,2.4,0,0,1,.27,1.12v16.91a34.79,34.79,0,0,1,5.31-2.32,17.5,17.5,0,0,1,5.83-1,14.09,14.09,0,0,1,6.62,1.31,8.83,8.83,0,0,1,3.63,3.44,12.6,12.6,0,0,1,1.49,4.75,45.85,45.85,0,0,1,.3,5.23Z" transform="translate(0 0)" style="fill:#fff"/><path d="M178.37,253.45a2.16,2.16,0,0,1-.27,1.08c-.17.33-.61.49-1.31.49H168.5a1.49,1.49,0,0,1-1.2-.38,1.74,1.74,0,0,1-.3-1.12v-1.94a.12.12,0,0,1-.11,0,.21.21,0,0,0-.12,0,22.82,22.82,0,0,1-5.23,3,14.46,14.46,0,0,1-5.39,1.12,12.43,12.43,0,0,1-6.24-1.39,9.86,9.86,0,0,1-3.81-3.85,17.11,17.11,0,0,1-1.91-5.87,48.93,48.93,0,0,1-.53-7.44,52.66,52.66,0,0,1,.57-8.12,15.84,15.84,0,0,1,2.2-6.2,10.83,10.83,0,0,1,4.64-4,18.17,18.17,0,0,1,7.78-1.43,26.34,26.34,0,0,1,4.45.34,31.45,31.45,0,0,1,3.62.86l.08-.07V203.94a2.35,2.35,0,0,1,.3-1.24,1.41,1.41,0,0,1,1.28-.48h8.21c.7,0,1.14.18,1.31.56a2.63,2.63,0,0,1,.27,1.16Zm-11.45-25.51a23.69,23.69,0,0,0-3.29-.67,22.83,22.83,0,0,0-2.54-.15,7.93,7.93,0,0,0-2.69.41,3.7,3.7,0,0,0-1.83,1.5,7.24,7.24,0,0,0-1,2.92,30.4,30.4,0,0,0-.3,4.75,29.58,29.58,0,0,0,.26,4.45,7.29,7.29,0,0,0,.82,2.61,2.72,2.72,0,0,0,1.42,1.24,6,6,0,0,0,2,.3,8.24,8.24,0,0,0,1.87-.23,17.86,17.86,0,0,0,1.95-.56,15.2,15.2,0,0,0,1.83-.75l1.53-.71Z" transform="translate(0 0)" style="fill:#fff"/><path d="M208.81,250.53a18.13,18.13,0,0,1-3.22,2.32,22.65,22.65,0,0,1-3.52,1.61,19.7,19.7,0,0,1-3.51.9,21.72,21.72,0,0,1-3.14.26,13.06,13.06,0,0,1-5.35-.94,8,8,0,0,1-3.18-2.43,8.46,8.46,0,0,1-1.53-3.48,19.94,19.94,0,0,1-.41-4.15,14.25,14.25,0,0,1,.93-5.83,9.48,9.48,0,0,1,2.88-3.85,11.84,11.84,0,0,1,4.56-2.1,26.35,26.35,0,0,1,6-.63h8.6V231a6.89,6.89,0,0,0-.26-2,2.62,2.62,0,0,0-1-1.34,5.08,5.08,0,0,0-2-.79,17.72,17.72,0,0,0-3.36-.26c-.55,0-1.24,0-2.06.07l-2.58.15c-.9.05-1.8.13-2.69.23s-1.72.17-2.47.22a6.63,6.63,0,0,1-2.06,0c-.32-.1-.58-.52-.78-1.27l-.83-3.89a2.23,2.23,0,0,1,.27-1.61,4.62,4.62,0,0,1,2.13-1.31,22.23,22.23,0,0,1,3-.78c1.12-.23,2.27-.41,3.44-.56s2.33-.26,3.48-.34,2.14-.11,3-.11a29.61,29.61,0,0,1,8.42,1,11,11,0,0,1,4.86,2.77,8.88,8.88,0,0,1,2.2,4.41,30.66,30.66,0,0,1,.53,6v11.81a11.45,11.45,0,0,0,.11,1.87,1.93,1.93,0,0,0,.41,1,1.64,1.64,0,0,0,.82.49,7.89,7.89,0,0,0,1.42.22,2.35,2.35,0,0,1,1.28.34,1.22,1.22,0,0,1,.29.93V253c0,1-.72,1.64-2.16,1.94a19.14,19.14,0,0,1-4.64.53,11.67,11.67,0,0,1-4.86-.94,5.32,5.32,0,0,1-2.84-3.92Zm-1.13-11.07H201a5.14,5.14,0,0,0-3.29,1c-.8.65-1.19,1.85-1.19,3.59a3.22,3.22,0,0,0,.71,2.4,3.88,3.88,0,0,0,2.65.67,12,12,0,0,0,4-.82,20.44,20.44,0,0,0,3.85-1.8Z" transform="translate(0 0)" style="fill:#fff"/><path d="M241,223.31l.15.15a13.5,13.5,0,0,1,2.36-2,27.72,27.72,0,0,1,2.88-1.72,22.81,22.81,0,0,1,3-1.31,17.68,17.68,0,0,1,2.66-.75,3.82,3.82,0,0,1,1.76.07c.37.15.61.7.71,1.65l.89,7.33a6.36,6.36,0,0,1,.08.86.92.92,0,0,1-.23.6,1.78,1.78,0,0,1-.67.45,6.87,6.87,0,0,1-1.27.33A84,84,0,0,0,241,232.21v21.16a2.44,2.44,0,0,1-.26,1.13c-.17.34-.6.52-1.3.52h-8.17a1.54,1.54,0,0,1-1.3-.45,2,2,0,0,1-.33-1.2V219.72a2,2,0,0,1,.33-1.2,1.54,1.54,0,0,1,1.3-.45h8.1c.69,0,1.14.19,1.34.56a2.31,2.31,0,0,1,.29,1.09Z" transform="translate(0 0)" style="fill:#fff"/><path d="M271.93,208.35a9.49,9.49,0,0,1-.23,2.06,4.2,4.2,0,0,1-.86,1.79,4.35,4.35,0,0,1-1.79,1.27,7.87,7.87,0,0,1-3,.49,8.3,8.3,0,0,1-3.14-.49,4.2,4.2,0,0,1-1.83-1.31,4.13,4.13,0,0,1-.83-1.79,11.08,11.08,0,0,1-.18-2,6.41,6.41,0,0,1,1.19-3.93q1.2-1.6,4.79-1.6a8.77,8.77,0,0,1,3,.41,4.31,4.31,0,0,1,1.84,1.16,3.89,3.89,0,0,1,.89,1.75A10.2,10.2,0,0,1,271.93,208.35Zm-.38,45a2.44,2.44,0,0,1-.26,1.13c-.17.34-.59.52-1.23.52h-8.23a1.56,1.56,0,0,1-1.31-.45,2,2,0,0,1-.33-1.2V219.72a2,2,0,0,1,.33-1.24,1.67,1.67,0,0,1,1.31-.41h8.23c.64,0,1.06.19,1.23.56a2.52,2.52,0,0,1,.26,1.09Z" transform="translate(0 0)" style="fill:#fff"/><path d="M314.63,236.47a47.09,47.09,0,0,1-.63,8.08,15.15,15.15,0,0,1-2.36,6.06,11.35,11.35,0,0,1-4.67,3.81,18.17,18.17,0,0,1-7.52,1.35,34.56,34.56,0,0,1-3.81-.26,25.82,25.82,0,0,1-4.27-.87h-.07V268A2.59,2.59,0,0,1,291,269c-.18.38-.62.56-1.31.56H281.5a1.44,1.44,0,0,1-1.27-.45,2.1,2.1,0,0,1-.3-1.19V219.79a1.91,1.91,0,0,1,.34-1.19,1.44,1.44,0,0,1,1.23-.45h8.23c.69,0,1.13.17,1.31.52a2.52,2.52,0,0,1,.26,1.12v1.8c.05,0,.07,0,.07,0s0,0,.08,0a26,26,0,0,1,5.23-2.95,14,14,0,0,1,5.39-1.16,12.19,12.19,0,0,1,6.32,1.46,10.26,10.26,0,0,1,3.81,4,18.21,18.21,0,0,1,1.91,6A49.94,49.94,0,0,1,314.63,236.47Zm-11.74.15a29.5,29.5,0,0,0-.26-4.34,7.87,7.87,0,0,0-.82-2.61,2.85,2.85,0,0,0-1.43-1.31,5.27,5.27,0,0,0-2-.34,10.44,10.44,0,0,0-3.74.78c-1.34.53-2.47,1-3.36,1.39v15a17.48,17.48,0,0,0,3.18.67,22.19,22.19,0,0,0,2.65.15,8.25,8.25,0,0,0,2.66-.37,3.52,3.52,0,0,0,1.79-1.42,7.28,7.28,0,0,0,1-2.88A30.49,30.49,0,0,0,302.89,236.62Z" transform="translate(0 0)" style="fill:#fff"/><path d="M344.25,250.53a18.13,18.13,0,0,1-3.22,2.32,23,23,0,0,1-3.51,1.61,20,20,0,0,1-3.52.9,21.61,21.61,0,0,1-3.14.26,13.09,13.09,0,0,1-5.35-.94,8,8,0,0,1-3.18-2.43,8.6,8.6,0,0,1-1.53-3.48,20.64,20.64,0,0,1-.41-4.15,14.25,14.25,0,0,1,.93-5.83,9.48,9.48,0,0,1,2.88-3.85,11.82,11.82,0,0,1,4.57-2.1,26.2,26.2,0,0,1,6-.63h8.6V231a6.89,6.89,0,0,0-.26-2,2.66,2.66,0,0,0-1-1.34,5.19,5.19,0,0,0-2-.79,17.65,17.65,0,0,0-3.36-.26c-.55,0-1.24,0-2.06.07l-2.58.15c-.9.05-1.79.13-2.69.23s-1.72.17-2.47.22a6.63,6.63,0,0,1-2.06,0c-.32-.1-.58-.52-.78-1.27l-.82-3.89a2.23,2.23,0,0,1,.26-1.61,4.62,4.62,0,0,1,2.13-1.31,22.65,22.65,0,0,1,2.95-.78c1.13-.23,2.27-.41,3.44-.56s2.33-.26,3.48-.34,2.14-.11,3-.11a29.61,29.61,0,0,1,8.42,1,10.84,10.84,0,0,1,4.86,2.77,8.79,8.79,0,0,1,2.2,4.41,30.66,30.66,0,0,1,.53,6v11.81a12.7,12.7,0,0,0,.11,1.87,2,2,0,0,0,.41,1,1.64,1.64,0,0,0,.82.49,7.87,7.87,0,0,0,1.43.22,2.34,2.34,0,0,1,1.27.34,1.18,1.18,0,0,1,.3.93V253c0,1-.73,1.64-2.17,1.94a19.14,19.14,0,0,1-4.64.53,11.67,11.67,0,0,1-4.86-.94,5.32,5.32,0,0,1-2.84-3.92Zm-1.12-11.07h-6.74a5.14,5.14,0,0,0-3.29,1c-.79.65-1.19,1.85-1.19,3.59a3.22,3.22,0,0,0,.71,2.4,3.9,3.9,0,0,0,2.65.67,12,12,0,0,0,4-.82,20.86,20.86,0,0,0,3.86-1.8Z" transform="translate(0 0)" style="fill:#fff"/><path d="M398,253.45a2.27,2.27,0,0,1-.26,1.08c-.18.33-.62.49-1.32.49h-8.28a1.5,1.5,0,0,1-1.21-.38,1.74,1.74,0,0,1-.3-1.12v-1.94a.12.12,0,0,1-.11,0,.18.18,0,0,0-.11,0,22.89,22.89,0,0,1-5.24,3,14.41,14.41,0,0,1-5.38,1.12,12.47,12.47,0,0,1-6.25-1.39,9.86,9.86,0,0,1-3.81-3.85,17.33,17.33,0,0,1-1.91-5.87,49,49,0,0,1-.52-7.44,54,54,0,0,1,.56-8.12,15.85,15.85,0,0,1,2.21-6.2,10.8,10.8,0,0,1,4.63-4,18.2,18.2,0,0,1,7.78-1.43,26.34,26.34,0,0,1,4.45.34,32.13,32.13,0,0,1,3.63.86l.07-.07V203.94a2.35,2.35,0,0,1,.3-1.24,1.41,1.41,0,0,1,1.28-.48h8.21c.7,0,1.14.18,1.32.56a2.76,2.76,0,0,1,.26,1.16Zm-11.44-25.51a24.28,24.28,0,0,0-3.29-.67,23.14,23.14,0,0,0-2.55-.15,8,8,0,0,0-2.69.41,3.7,3.7,0,0,0-1.83,1.5,7.55,7.55,0,0,0-1,2.92,30.4,30.4,0,0,0-.3,4.75,31,31,0,0,0,.26,4.45,7.28,7.28,0,0,0,.83,2.61,2.64,2.64,0,0,0,1.42,1.24,6,6,0,0,0,2,.3,8.31,8.31,0,0,0,1.87-.23,17.7,17.7,0,0,0,1.94-.56,15.2,15.2,0,0,0,1.83-.75l1.54-.71Z" transform="translate(0 0)" style="fill:#fff"/><path d="M428.46,250.53a18.13,18.13,0,0,1-3.22,2.32,22.55,22.55,0,0,1-3.51,1.61,20,20,0,0,1-3.52.9,21.5,21.5,0,0,1-3.14.26,13.12,13.12,0,0,1-5.35-.94,7.87,7.87,0,0,1-3.17-2.43,8.61,8.61,0,0,1-1.54-3.48,20.64,20.64,0,0,1-.41-4.15,14.08,14.08,0,0,1,.94-5.83,9.31,9.31,0,0,1,2.88-3.85,11.71,11.71,0,0,1,4.56-2.1,26.26,26.26,0,0,1,6-.63h8.6V231a6.89,6.89,0,0,0-.26-2,2.66,2.66,0,0,0-1-1.34,5.21,5.21,0,0,0-2-.79,17.77,17.77,0,0,0-3.37-.26c-.55,0-1.23,0-2.06.07l-2.58.15c-.89.05-1.79.13-2.69.23s-1.72.17-2.47.22a6.56,6.56,0,0,1-2.05,0c-.33-.1-.59-.52-.79-1.27l-.82-3.89a2.28,2.28,0,0,1,.26-1.61,4.62,4.62,0,0,1,2.13-1.31,22.4,22.4,0,0,1,3-.78c1.12-.23,2.26-.41,3.44-.56s2.33-.26,3.47-.34,2.15-.11,3-.11a29.58,29.58,0,0,1,8.41,1,10.84,10.84,0,0,1,4.86,2.77,8.89,8.89,0,0,1,2.21,4.41,31.51,31.51,0,0,1,.52,6v11.81a12.7,12.7,0,0,0,.11,1.87,2,2,0,0,0,.41,1,1.68,1.68,0,0,0,.83.49,7.6,7.6,0,0,0,1.42.22,2.34,2.34,0,0,1,1.27.34,1.18,1.18,0,0,1,.3.93V253c0,1-.73,1.64-2.17,1.94a19.08,19.08,0,0,1-4.64.53,11.74,11.74,0,0,1-4.86-.94,5.35,5.35,0,0,1-2.84-3.92Zm-1.12-11.07h-6.73a5.1,5.1,0,0,0-3.29,1c-.8.65-1.2,1.85-1.2,3.59a3.22,3.22,0,0,0,.71,2.4,3.9,3.9,0,0,0,2.65.67,12.06,12.06,0,0,0,4-.82,20.75,20.75,0,0,0,3.85-1.8Z" transform="translate(0 0)" style="fill:#fff"/></svg>