<svg id="Group_152_copy" data-name="Group 152 copy" xmlns="http://www.w3.org/2000/svg" xmlns:xlink="http://www.w3.org/1999/xlink" viewBox="0 0 1026 555"><defs><linearGradient id="linear-gradient" x1="1027.33" y1="-8833.26" x2="1369.33" y2="-8833.26" gradientTransform="matrix(3, 0, 0, -3, -3082, -26222.28)" gradientUnits="userSpaceOnUse"><stop offset="0" stop-color="#3b4aff"/><stop offset="1" stop-color="#f00070"/></linearGradient></defs><title>People_AR</title><path d="M30,0h996L996,555H0Z" transform="translate(0 0)" style="fill:url(#linear-gradient)"/><path id="_150" data-name=" 150" d="M474,316.65a3,3,0,0,0,3.35-3.39V300.75a3,3,0,0,0-3.35-3.38H449.57V190a5.22,5.22,0,0,0-.69-3,4,4,0,0,0-3.25-1H434a29.14,29.14,0,0,0-5,.4,16.39,16.39,0,0,0-4.62,1.57l-18.11,6.66a3.68,3.68,0,0,0-2.36,2.07,9.92,9.92,0,0,0-.39,2.86v6.67a2.8,2.8,0,0,0,.79,2.46,5.61,5.61,0,0,0,2.77.47h20.63v88.2H405.29a3,3,0,0,0-3.35,2.54,3.37,3.37,0,0,0,0,.84v12.51a3,3,0,0,0,3.34,3.39Zm85-31.19a19.67,19.67,0,0,1-6.2,8.37,20.79,20.79,0,0,1-9.15,3.83,67,67,0,0,1-11.31.89,158.49,158.49,0,0,1-16.73-.89q-8.46-.87-15.93-1.86a5,5,0,0,0-3.84.49,4.61,4.61,0,0,0-1.48,2.65l-1.37,7.66a6.86,6.86,0,0,0,.1,3.54,6.33,6.33,0,0,0,3.83,2.76,43.8,43.8,0,0,0,8.76,2.57q5,1,10.13,1.57c3.41.4,6.62.68,9.64.89s5.44.29,7.28.29A92.32,92.32,0,0,0,553.81,316a40.18,40.18,0,0,0,16.33-7.79,34.85,34.85,0,0,0,10.43-15,67,67,0,0,0,3.64-23.79q0-14.56-7.77-22.32a35.8,35.8,0,0,0-20.37-9.76l-37.38-5.51,4.13-26.76h51.35a3,3,0,0,0,3.52-2.47,3.09,3.09,0,0,0,0-.86V189.34a2.88,2.88,0,0,0-2.56-3.17,2.54,2.54,0,0,0-.78,0H509.64a6.63,6.63,0,0,0-4,1,5.61,5.61,0,0,0-1.68,3.73l-7.87,49.58a9.41,9.41,0,0,0,.69,5.51,6.79,6.79,0,0,0,5,2.75l43.28,7.29A26.72,26.72,0,0,1,557,260.77a12.5,12.5,0,0,1,4.23,10.42A37.7,37.7,0,0,1,558.93,285.46Zm106.4,29.61a41.27,41.27,0,0,0,13.87-8.94,43.08,43.08,0,0,0,8.85-12.8A73.91,73.91,0,0,0,693,278.48,95.46,95.46,0,0,0,695,263.24c.26-5.06.39-9.6.39-13.69A176.41,176.41,0,0,0,694,227a59.35,59.35,0,0,0-6.6-21,41.22,41.22,0,0,0-15.05-15.55q-9.93-6.06-27-6.09A48.86,48.86,0,0,0,625.59,188a41.78,41.78,0,0,0-13.48,9.15,43.43,43.43,0,0,0-8.56,12.78,77.09,77.09,0,0,0-4.72,14.38,88.51,88.51,0,0,0-2,13.85c-.26,4.48-.39,8.26-.39,11.41,0,4.61.13,9.52.39,14.77a110.08,110.08,0,0,0,1.87,15.45,67,67,0,0,0,4.62,14.55,41.63,41.63,0,0,0,8.56,12.39,38.11,38.11,0,0,0,13.58,8.55,55.18,55.18,0,0,0,19.77,3.15A53.48,53.48,0,0,0,665.33,315.07ZM659.82,207a21.33,21.33,0,0,1,8.46,9.47,45.85,45.85,0,0,1,3.84,15.09c.59,5.9.88,12.61.88,20.09a156.56,156.56,0,0,1-1.08,19.12,47.84,47.84,0,0,1-4.13,15,23.88,23.88,0,0,1-8.46,9.87,25.34,25.34,0,0,1-14.07,3.54,23.85,23.85,0,0,1-13.77-3.54,22.62,22.62,0,0,1-7.87-9.95A51.57,51.57,0,0,1,620,270.56,199.81,199.81,0,0,1,620,233a50.27,50.27,0,0,1,3.74-15.26,24.44,24.44,0,0,1,8-10.26,22.44,22.44,0,0,1,13.57-3.75A28.45,28.45,0,0,1,659.82,207Z" transform="translate(0 0)" style="fill:#fff"/><path d="M359.87,258.32h-.08a8.54,8.54,0,0,0-5.32,1.61,8.26,8.26,0,0,0-2.64,6.74v.09c0,7.5,4.4,13.93,8,13.93s8.58-6.76,8.58-13.93v-.08a7.94,7.94,0,0,0-3-6.78A9.45,9.45,0,0,0,359.87,258.32Z" transform="translate(0 0)" style="fill:none"/><path d="M319.47,200.6a7.88,7.88,0,0,0-3-6.78,9.37,9.37,0,0,0-5.53-1.58h-.08a8.64,8.64,0,0,0-5.34,1.59,8.3,8.3,0,0,0-2.64,6.76v.09c0,7.5,4.41,13.93,8,13.93s8.57-6.76,8.57-13.93Z" transform="translate(0 0)" style="fill:none"/><path d="M368.42,200.6a7.89,7.89,0,0,0-3-6.78,9.41,9.41,0,0,0-5.55-1.58h-.08a8.51,8.51,0,0,0-5.31,1.59,8.28,8.28,0,0,0-2.65,6.76v.09c0,7.5,4.4,13.93,8,13.93s8.58-6.76,8.58-13.93Z" transform="translate(0 0)" style="fill:none"/><path d="M310.94,258.32h-.08a8.57,8.57,0,0,0-5.34,1.61,8.26,8.26,0,0,0-2.64,6.74v.09c0,7.5,4.41,13.93,8,13.93s8.57-6.76,8.57-13.93v-.08a7.94,7.94,0,0,0-3-6.78A9.3,9.3,0,0,0,310.94,258.32Z" transform="translate(0 0)" style="fill:none"/><path d="M368.42,255.79a14.59,14.59,0,0,0-8.58-2.53,13.68,13.68,0,0,0-8.58,2.7l-.07,0a13.4,13.4,0,0,0-4.5,10.78c0,9,5.63,19,13.15,19,3.63,0,7.12-2.28,9.84-6.41a23.94,23.94,0,0,0,3.87-12.57,12.74,12.74,0,0,0-5.08-11Zm0,10.89v.08c0,7.17-4.84,13.93-8.58,13.93s-8-6.43-8-13.93v-.09a8.26,8.26,0,0,1,2.64-6.74,8.54,8.54,0,0,1,5.32-1.61h.08a9.45,9.45,0,0,1,5.55,1.58A7.94,7.94,0,0,1,368.42,266.68Z" transform="translate(0 0)" style="fill:#fff"/><path d="M385.83,313.61a2.53,2.53,0,0,0-1.71-.93,2.57,2.57,0,0,0-.48,0h-4.05V300.61a10.31,10.31,0,0,0-3.58-7.79,24.21,24.21,0,0,0-31.77,0,10.33,10.33,0,0,0-3.58,7.79v8a2.57,2.57,0,0,0,5.13,0V300.6a5.25,5.25,0,0,1,1.83-4,19.07,19.07,0,0,1,25,0,5.25,5.25,0,0,1,1.82,4v12.06H330.64V300.61a10.31,10.31,0,0,0-3.58-7.79,24.21,24.21,0,0,0-31.77,0,10.33,10.33,0,0,0-3.58,7.79v8a2.58,2.58,0,0,0,5.15,0v-8a5.23,5.23,0,0,1,1.81-4,19.06,19.06,0,0,1,25,0,5.23,5.23,0,0,1,1.84,4v12.06h-38a2.55,2.55,0,0,0-2.18,4.14,2.53,2.53,0,0,0,1.71.93l.27,0h96.28a2.55,2.55,0,0,0,2.19-4.14Z" transform="translate(0 0)" style="fill:#fff"/><path d="M319.49,255.78a14.61,14.61,0,0,0-8.58-2.52,13.78,13.78,0,0,0-8.6,2.7l-.07,0a13.35,13.35,0,0,0-4.48,10.78,24.56,24.56,0,0,0,3.6,12.68c2.56,4.06,5.94,6.3,9.54,6.3s7.12-2.28,9.84-6.41a23.79,23.79,0,0,0,3.87-12.57,12.74,12.74,0,0,0-5.08-11Zm0,10.9v.08c0,7.17-4.83,13.93-8.57,13.93s-8-6.43-8-13.93v-.09a8.26,8.26,0,0,1,2.64-6.74,8.57,8.57,0,0,1,5.34-1.61h.08a9.3,9.3,0,0,1,5.53,1.58A7.94,7.94,0,0,1,319.47,266.68Z" transform="translate(0 0)" style="fill:#fff"/><path d="M301.37,213.38c2.55,4.06,5.93,6.29,9.53,6.29s7.12-2.27,9.84-6.4a23.78,23.78,0,0,0,3.87-12.56,12.72,12.72,0,0,0-5.08-11l0,0a14.66,14.66,0,0,0-8.58-2.55,13.74,13.74,0,0,0-8.6,2.72l-.07.05a13.32,13.32,0,0,0-4.48,10.78A24.49,24.49,0,0,0,301.37,213.38Zm9.53,1.23c-3.61,0-8-6.43-8-13.93v-.09a8.3,8.3,0,0,1,2.64-6.76,8.64,8.64,0,0,1,5.34-1.59h.08a9.37,9.37,0,0,1,5.53,1.58,7.88,7.88,0,0,1,3,6.78v.08C319.47,207.85,314.64,214.61,310.9,214.61Z" transform="translate(0 0)" style="fill:#fff"/><path d="M359.84,219.67c3.63,0,7.12-2.27,9.84-6.4a24,24,0,0,0,3.87-12.56,12.74,12.74,0,0,0-5.12-11,14.54,14.54,0,0,0-8.59-2.55,13.72,13.72,0,0,0-8.58,2.72l-.07.05a13.34,13.34,0,0,0-4.5,10.78C346.71,209.67,352.32,219.67,359.84,219.67Zm0-5.06c-3.61,0-8-6.43-8-13.93v-.09a8.28,8.28,0,0,1,2.65-6.76,8.51,8.51,0,0,1,5.31-1.59h.08a9.41,9.41,0,0,1,5.55,1.58,7.89,7.89,0,0,1,3,6.78v.08C368.42,207.85,363.58,214.61,359.84,214.61Z" transform="translate(0 0)" style="fill:#fff"/><path d="M287.52,251.65h96.17a2.53,2.53,0,1,0,0-5.06h-4.1V234.53a10.26,10.26,0,0,0-3.58-7.79,24.21,24.21,0,0,0-31.77,0,10.33,10.33,0,0,0-3.58,7.79v8a2.6,2.6,0,0,0,.77,1.81,2.54,2.54,0,0,0,1.82.73,2.57,2.57,0,0,0,2.54-2.55v-7.94a5.26,5.26,0,0,1,1.83-4,19.06,19.06,0,0,1,25,0,5.27,5.27,0,0,1,1.82,4v12.06H330.64V234.53a10.26,10.26,0,0,0-3.58-7.79,24.21,24.21,0,0,0-31.77,0,10.33,10.33,0,0,0-3.58,7.79v8a2.58,2.58,0,0,0,5.15,0v-8a5.24,5.24,0,0,1,1.81-4,19.06,19.06,0,0,1,25,0,5.32,5.32,0,0,1,1.84,4v12.06h-38a2.53,2.53,0,1,0,0,5.06Z" transform="translate(0 0)" style="fill:#fff"/><path d="M284,334.58c0,2.41,1.39,5.38,4,9.77l-3.3,2.49c.19,3.92.26,7.84.26,11.32a17.55,17.55,0,0,1-1.79,7.32c3.26.77,5,1.87,5,5.39a16.61,16.61,0,0,1-1.61,6.7,22.67,22.67,0,0,1-17,8.06c-7.72,0-12.34-6.05-12.34-13.7a30.63,30.63,0,0,1,2.42-12l2.05.88a22.14,22.14,0,0,0-1.32,6.74c0,6.74,4.1,10.51,10.15,10.51A25.51,25.51,0,0,0,284.76,373c-1.76-1.39-6.11-2-12-2.08l-.33-.55,2.41-5.39a14.91,14.91,0,0,0,5-1.42c1.25-.7,1.25-1.14,1.25-3.52,0-3.81-.51-10.4-.92-14.9-.14-1.83-.47-3.23-.47-4.66a5.34,5.34,0,0,1,1-3.4,14.5,14.5,0,0,1,2.85-2.75Z" transform="translate(0 0)" style="fill:#fff"/><path d="M300.33,379.29l-1-1.1a1.55,1.55,0,0,0-1.25-.51c-1.46,0-2.45.73-2.45,1.28,0,1,1.68,1.94,4.8,1.94,1.35,0,2.41,0,3.69-.11l.15.33a23,23,0,0,1-1.5,3c-4,.51-7.14,1.35-9.16,2.63l-.44-.44c.44-.95.92-1.86,1.43-2.74a3.11,3.11,0,0,1-2.23-2.93,6.24,6.24,0,0,1,2.34-4.14,7.07,7.07,0,0,1,4.54-1.94c1.58,0,2.6.81,2.6,2.05a5,5,0,0,1-1.06,2.71ZM296,372.41a62,62,0,0,0,.48-8.83,217,217,0,0,0-1.25-23.8,60.74,60.74,0,0,1,4.25-4.65l.62.32c.73,7.91.84,15.31.84,22.42,0,5.75-.33,9.59-1.13,10.84a26.42,26.42,0,0,1-3,4.28Z" transform="translate(0 0)" style="fill:#fff"/><path d="M337,350.25a93.13,93.13,0,0,1,10.18,11.54c1.4,1.61,2.46,2.85,5,2.85h.51V372h-.51c-3,0-4.94-1-6.15-2.64h-.18c-.59,3.22-3.08,5.53-5.83,5.53-4.54,0-9.3-5.05-9.7-11.54h-.11c-1.72,1.76-2.64,2.75-2.64,4.51,0,4.25,5.86,18.75,5.86,22a28.53,28.53,0,0,1-1,6.63h-.92c-1.68-8.71-7.91-19.44-7.91-27,0-5.2,1.32-7.87,3.55-10.14,3-3.08,7.62-6.7,9.27-9.12Zm-2.82,10.58a7.15,7.15,0,0,0,6.74,6.56c1.36,0,2.24-.51,2.24-1,0-1.5-2.46-4.5-6.78-8.49C335,358.89,334.16,359.84,334.16,360.83Z" transform="translate(0 0)" style="fill:#fff"/><path d="M363.61,356.26a15.74,15.74,0,0,0-.52,3.33,3.74,3.74,0,0,0,2,3.62c5.16-7.72,10.37-12.45,15.53-12.45a8.13,8.13,0,0,1,8.13,8.21,13.67,13.67,0,0,1-1.36,5.67H392V372h-.51a70.6,70.6,0,0,1-12.42-1,39.94,39.94,0,0,1-8.75,1c-4.36,0-7.77-.92-9.41-3.7h-.19a9.21,9.21,0,0,1-7.54,3.7h-.48c-1.75,0-2.56-1.91-2.56-3.67s.81-3.66,2.56-3.66h.52c2.74,0,4.65-.73,5.64-2.2a24.5,24.5,0,0,0,1.75-4.35c.88-.66,1.76-1.36,2.75-2Zm9.44,8.38c6,0,11.76-1.83,11.76-3.07s-2-4.4-5.9-4.4c-3.58,0-7.17,2.53-10.76,7A17.75,17.75,0,0,0,373.05,364.64Zm1.36-27.13a37.66,37.66,0,0,1,5.24,4.28,12.77,12.77,0,0,1-3.3,4.5,65.21,65.21,0,0,0-5.31-4.06Z" transform="translate(0 0)" style="fill:#fff"/><path d="M401.29,350.1c2.53,4.54,3.7,7.88,3.7,10.22a15.26,15.26,0,0,1-1.5,6.67,7.92,7.92,0,0,1-3.59,3.73,18,18,0,0,1-7.4,1.25H392c-1.76,0-2.57-1.91-2.57-3.67s.81-3.66,2.57-3.66h.8c4.21,0,8-.84,8-1.43,0-.87-1.91-4.57-3.59-7.47a55.52,55.52,0,0,1,3.73-5.71Zm-3.85-11.39a37.27,37.27,0,0,1,5.24,4.29,12.8,12.8,0,0,1-3.29,4.5,66.45,66.45,0,0,0-5.31-4.06Z" transform="translate(0 0)" style="fill:#fff"/><path d="M411.54,372.41a62,62,0,0,0,.48-8.83,217,217,0,0,0-1.25-23.8,60.74,60.74,0,0,1,4.25-4.65l.63.32c.73,7.91.84,15.31.84,22.42,0,5.75-.33,9.59-1.14,10.84a26.42,26.42,0,0,1-3,4.28Z" transform="translate(0 0)" style="fill:#fff"/><path d="M465.52,372v-1.91c4.1-.44,4.43-.91,4.36-5.89l-.07-20.37h-.3l-12.3,27.84h-1.46l-11.36-27.4h-.22l-.73,14a55.72,55.72,0,0,0,0,8.64c.29,2.35,1.28,2.82,5,3.15V372h-13.3v-1.91c3.12-.29,4.18-1.28,4.55-3.15a93.63,93.63,0,0,0,1.17-10.25l.84-10.26c.48-6.11.07-6.92-4.69-7.36v-1.9h11.32l10.76,23.58,11-23.58h10.95V339c-4.43.44-4.65.92-4.54,5.46l.55,19.67c.11,5,.29,5.45,4.69,5.89V372Z" transform="translate(0 0)" style="fill:#fff"/><path d="M504.89,366.58c-3.3,4.95-7.62,6-9.81,6-7.25,0-11.25-5.27-11.25-11.46a13.27,13.27,0,0,1,4-9.6,12.52,12.52,0,0,1,8.38-3.77h0a8.9,8.9,0,0,1,8.86,8.53c-.07,1-.44,1.76-1.61,1.91s-7.69.66-13,.88c.29,5.75,3.4,8.56,7.32,8.56A9.4,9.4,0,0,0,504,365.3ZM495,349.88c-2.09,0-3.92,2.35-4.29,6.63,2.24,0,4.33-.07,6.52-.18.81,0,1.1-.11,1.1-.95.08-2.79-1.21-5.5-3.29-5.5Z" transform="translate(0 0)" style="fill:#fff"/><path d="M519.65,372a6.14,6.14,0,0,1-2.13.59c-4.21,0-6.73-1.94-6.73-6.78V351h-3.45l-.29-.7,1.54-1.94h2.2v-3.95l6.19-4.25.76.37v7.83H523a1.89,1.89,0,0,1-.33,2.64h-5v13c0,4.21,2,4.61,3,4.61a7.06,7.06,0,0,0,2.75-.66L524,370Z" transform="translate(0 0)" style="fill:#fff"/><path d="M544,372.59a5.14,5.14,0,0,1-3.36-1.1,4.48,4.48,0,0,1-1.36-2c-2.2,1.35-4.76,3.11-5.71,3.11a7.07,7.07,0,0,1-7.36-6.85c0-2.86,1.32-4.06,4.21-5.09,3.37-1.21,7.36-2.49,8.64-3.55v-1.36c0-3.44-1.24-5.42-3.37-5.42a2.3,2.3,0,0,0-1.76.95,10.6,10.6,0,0,0-1.61,3.74,2.1,2.1,0,0,1-2.34,1.79c-1.39,0-3.3-1.31-3.3-2.71,0-1,.7-1.64,1.91-2.56a28.07,28.07,0,0,1,9-3.77,8.37,8.37,0,0,1,5.24,1.43c2.49,1.83,3,4.21,3,7.32v8.57c0,2.53.88,3.15,1.72,3.15a4.91,4.91,0,0,0,1.87-.47l.59,1.75ZM539,359.15c-.95.55-1.87,1.1-3,1.68-1.69.85-2.6,1.8-2.6,3.67,0,3,2,4.1,3.26,4.1a3.88,3.88,0,0,0,2.34-.92Z" transform="translate(0 0)" style="fill:#fff"/><path d="M591.32,339c-4.32.37-4.58.7-4.58,5.28v20.43c0,4.62.44,4.91,4.65,5.31V372H574.58v-1.91c4.47-.4,4.83-.69,4.83-5.31V354.9H563.92v9.85c0,4.62.41,4.91,4.51,5.31V372h-16.3v-1.91c4-.4,4.54-.69,4.54-5.31V344.32c0-4.58-.51-4.91-4.76-5.28v-1.9h16.48V339c-4.06.37-4.47.7-4.47,5.28v7.8h15.49v-7.8c0-4.58-.36-4.91-4.57-5.28v-1.9h16.48Z" transform="translate(0 0)" style="fill:#fff"/><path d="M611.57,372.59a5.15,5.15,0,0,1-3.37-1.1,4.65,4.65,0,0,1-1.36-2c-2.19,1.35-4.76,3.11-5.71,3.11a7.08,7.08,0,0,1-7.36-6.85c0-2.86,1.32-4.06,4.21-5.09,3.37-1.21,7.36-2.49,8.64-3.55v-1.36c0-3.44-1.24-5.42-3.37-5.42a2.26,2.26,0,0,0-1.75.95,10.24,10.24,0,0,0-1.61,3.74,2.11,2.11,0,0,1-2.35,1.79c-1.39,0-3.29-1.31-3.29-2.71,0-1,.69-1.64,1.9-2.56a28.07,28.07,0,0,1,9-3.77,8.35,8.35,0,0,1,5.24,1.43c2.49,1.83,3,4.21,3,7.32v8.57c0,2.53.87,3.15,1.72,3.15a4.91,4.91,0,0,0,1.86-.47l.59,1.75Zm-5-13.44c-1,.55-1.86,1.1-3,1.68-1.68.85-2.6,1.8-2.6,3.67,0,3,2,4.1,3.26,4.1a3.88,3.88,0,0,0,2.34-.92Z" transform="translate(0 0)" style="fill:#fff"/><path d="M634.24,355.34c-1.43-3.15-3.19-5.46-5.79-5.46a2.77,2.77,0,0,0-2.78,2.82c0,1.65,1.21,2.9,4.1,4.07,4.43,1.87,7.29,3.73,7.29,7.87,0,5.35-5.17,7.95-9.82,7.95a13.62,13.62,0,0,1-6.77-1.8,39.91,39.91,0,0,1-.85-7.36l1.62-.07c1.17,3.37,3.73,7.1,7.1,7.1a2.8,2.8,0,0,0,2.93-2.82c0-1.5-.7-2.78-4.1-4.35-2.46-1.18-7-3.26-7-8,0-4.25,3.45-7.58,9.12-7.58a12.24,12.24,0,0,1,5.28.88,28.46,28.46,0,0,1,1.31,6.19Z" transform="translate(0 0)" style="fill:#fff"/><path d="M654.27,372v-1.76c2.67-.37,2.82-.81,2.82-3.7v-9.27c0-4.17-1.87-5.56-4.07-5.56a5.48,5.48,0,0,0-3.92,1.57v13.26c0,2.89.19,3.33,2.53,3.7V372H638.74v-1.76c3.08-.33,3.41-.48,3.41-3.88V341.39c0-3.3-.22-3.3-3-3.63v-1.57a97.87,97.87,0,0,0,10-1.87V351.2c1.91-1.87,4.62-3.44,7.26-3.44,4.68,0,7.61,3,7.61,8.93v9.64c0,3.4.33,3.4,3.15,3.88V372Z" transform="translate(0 0)" style="fill:#fff"/><path d="M693.09,351.31h-5.28l-1.61,6.52h4.65l-.69,4.36h-5l-2.31,9.15h-2.6l2.24-9.15h-5.28L675,371.34h-2.71l2.23-9.15h-5.34l.65-4.36h5.75l1.62-6.52h-5l.54-4.36h5.5l2-7.83h2.71L681,347h5.31l1.91-7.83h2.64L689,347h4.8Zm-13.19,0-1.65,6.52h5.35l1.61-6.52Z" transform="translate(0 0)" style="fill:#fff"/><path d="M483.69,432h-.52a6.78,6.78,0,0,1-5.64-2.53h-.14a16,16,0,0,1-1.58,5.53,14.69,14.69,0,0,1-11.64,6c-8,0-10.7-6.15-10.7-11.53a23.49,23.49,0,0,1,2.86-11.1l2,.88a17.31,17.31,0,0,0-1.58,6.19c0,4.84,3,8.17,8,8.17a13.32,13.32,0,0,0,9.48-4.51c.08-1.72.11-3.37.11-4.87,0-5.93-.58-16-1.1-24.72a33.1,33.1,0,0,1,3.89-3.88l.58.29c.26,5.72.44,13,.48,22.16,0,2.38.4,4,1.32,5.05a4.77,4.77,0,0,0,3.69,1.54h.52Z" transform="translate(0 0)" style="fill:#fff"/><path d="M502.69,423.21c2.38,1.25,4.84,1.43,8,1.43h.52V432h-.52a19,19,0,0,1-12.89-4.4A20.77,20.77,0,0,1,484.2,432h-.51c-1.76,0-2.57-1.91-2.57-3.67s.81-3.66,2.57-3.66h1.57q5.55,0,7.91-1v-.14c-1.43-1.25-2.89-2.64-4.5-4.25a3.21,3.21,0,0,0-2.38-1.17h-.92l-.11-.11,2.09-6c2.6-.22,6.08-1.32,11.79-1.32a27.5,27.5,0,0,1,10.36,1.87c-.32,1.79-.69,3.62-1.2,5.42-1.91,1.79-3.81,3.48-5.61,5.09Zm1.76-6a19.67,19.67,0,0,0-5.82-.84,28.12,28.12,0,0,0-6.08.58v.18a44.89,44.89,0,0,0,6,4.66,61,61,0,0,0,5.89-4.4Z" transform="translate(0 0)" style="fill:#fff"/><path d="M511.74,424.64a21.61,21.61,0,0,0,4.65-.44,19.6,19.6,0,0,1-.59-4.83,12.92,12.92,0,0,1,4.21-9.63c1.76-1.72,3.67-2.9,5.53-2.9,1.47,0,2.64,1,3.59,2.35a12.53,12.53,0,0,1,2.16,7.4,17.74,17.74,0,0,1-1.9,7.58,42.35,42.35,0,0,0,5.31.47h.51V432h-.51c-5.38,0-7.54-.48-12.71-2.27A22.61,22.61,0,0,1,511.74,432h-.51c-1.76,0-2.57-1.91-2.57-3.67s.81-3.66,2.57-3.66ZM523.16,423c3.23-.95,5.2-2.75,5.2-4,0-1.76-1.83-5.24-4.28-5.24s-4.8,2.35-5.82,4.84C518.66,420.54,520.42,422,523.16,423Zm-.29-27.91a38.45,38.45,0,0,1,5.24,4.29,13,13,0,0,1-3.3,4.5,63,63,0,0,0-5.31-4.06Z" transform="translate(0 0)" style="fill:#fff"/><path d="M544.62,394.58c0,2.41,1.4,5.38,4,9.77l-3.26,2.49c.15,2.82.22,6.27.22,9.85a24,24,0,0,1-1.35,8.1,17.29,17.29,0,0,1-1.83,3.88,7.7,7.7,0,0,1-6.7,3.3h-.52c-1.75,0-2.56-1.91-2.56-3.67s.81-3.66,2.56-3.66h.52c2.34,0,4.13-.44,5.2-1.5.62-.62.62-1.65.62-3.63,0-9.11-1.21-17.24-1.21-19.08a5.34,5.34,0,0,1,1-3.4,14.79,14.79,0,0,1,2.85-2.75Z" transform="translate(0 0)" style="fill:#fff"/><path d="M563.59,432H563c-5,0-8.57-2.53-8.68-9.67,0-4.18-.36-14.94-1.32-23.95a55.4,55.4,0,0,1,4.22-4.07l.51.26a156.76,156.76,0,0,1,.66,16.41c0,3.84-.08,5.78-.08,8.78,0,3.67,1.47,4.91,4.8,4.91h.51Z" transform="translate(0 0)" style="fill:#fff"/><path d="M572.9,410.1c2.52,4.54,3.69,7.88,3.69,10.22a15.26,15.26,0,0,1-1.5,6.67,7.83,7.83,0,0,1-3.59,3.73,17.9,17.9,0,0,1-7.39,1.25h-.52c-1.75,0-2.56-1.91-2.56-3.67s.81-3.66,2.56-3.66h.81c4.21,0,8-.84,8-1.43,0-.87-1.9-4.57-3.59-7.47a55.51,55.51,0,0,1,3.74-5.71Zm-2.38,28.06a37,37,0,0,1,5.23,4.28,12.71,12.71,0,0,1-3.29,4.5c-1.5-1.31-3.34-2.67-5.31-4.06Z" transform="translate(0 0)" style="fill:#fff"/><path d="M597.8,432.41a63.62,63.62,0,0,0,.47-8.83,217,217,0,0,0-1.24-23.8,58.75,58.75,0,0,1,4.25-4.65l.62.32c.73,7.91.84,15.31.84,22.42,0,5.75-.33,9.59-1.13,10.84a25.91,25.91,0,0,1-3,4.28Z" transform="translate(0 0)" style="fill:#fff"/><path d="M621.35,390.8c-4,1.69-8.24,3.15-12.53,4.54l-.18-.21.84-3.41c4.54-1.43,9-2.89,13.26-4.5l.14.14Zm0,6.12c-4,1.68-8.24,3.15-12.53,4.54l-.18-.22.84-3.4c4.54-1.43,9-2.9,13.26-4.51l.14.15Z" transform="translate(0 0)" style="fill:#fff"/><path d="M628.74,424.64V432H626c-1.54,6.62-6.16,13.36-11.87,13.36-3.3,0-6.88-1.43-10.77-4.06l.85-1.94a11.19,11.19,0,0,0,4.46,1c3.15,0,6.23-1.5,9.16-3.77a14.41,14.41,0,0,0,4.25-4.61h-1c-7,0-11.64-2.24-11.64-8.83a11,11,0,0,1,2.78-7.29c1.76-2.09,3.74-3.26,5.86-3.26,4.1,0,6.74,4.43,8.2,12.05Zm-12.45-6.08c-2.34,0-3.7,1.76-3.7,2.68,0,2.12,3.74,3.51,8.54,3.51a8,8,0,0,0,1.42-.11C621.2,421,619.11,418.56,616.29,418.56Z" transform="translate(0 0)" style="fill:#fff"/><path d="M639.66,416.26a15.74,15.74,0,0,0-.52,3.33,3.74,3.74,0,0,0,2,3.62c5.16-7.72,10.36-12.45,15.53-12.45a8.13,8.13,0,0,1,8.13,8.21,13.67,13.67,0,0,1-1.36,5.67H668V432h-.52a70.56,70.56,0,0,1-12.41-1,39.94,39.94,0,0,1-8.75,1c-4.36,0-7.77-.92-9.41-3.7h-.19a9.21,9.21,0,0,1-7.54,3.7h-.48c-1.75,0-2.56-1.91-2.56-3.67s.81-3.66,2.56-3.66h.52c2.74,0,4.65-.73,5.64-2.2a24.5,24.5,0,0,0,1.75-4.35c.88-.66,1.76-1.36,2.75-2Zm9.44,8.38c6,0,11.76-1.83,11.76-3.07s-2-4.4-5.9-4.4c-3.58,0-7.17,2.53-10.76,7A17.75,17.75,0,0,0,649.1,424.64Zm1.36-27.13a37.66,37.66,0,0,1,5.24,4.28,12.77,12.77,0,0,1-3.3,4.5,65.21,65.21,0,0,0-5.31-4.06Z" transform="translate(0 0)" style="fill:#fff"/><path d="M688.25,415.56a9.21,9.21,0,0,0-5.53-2.12c-4.06,0-7.07,1.72-7.07,2.3,0,.88,1.1,2.64,2.53,4a7.29,7.29,0,0,0,4.54,2.13c1.61,0,5.17-.88,10.37-2.75l.51.55c-.88,2.2-1.83,4.4-2.93,6.59-3.48,1.65-8.75,2.53-12.45,3.77a31.23,31.23,0,0,1-9.67,2H668c-1.76,0-2.57-1.91-2.57-3.67s.81-3.66,2.57-3.66h.51a27.71,27.71,0,0,0,5.05-.33v-.11a7.44,7.44,0,0,1-2.6-5.71,11.4,11.4,0,0,1,2.13-6.08c1.87-2.75,4.54-4.76,7.8-4.76,3.73,0,6.37,2.42,8.49,6.59Z" transform="translate(0 0)" style="fill:#fff"/><path d="M570.36,145.1c1.61,3,2.6,6,3.92,8.31.77,1.28,3.4,1.94,5.05,1.94h.51v7.33h-.51a8.89,8.89,0,0,1-5.2-1.32H574a20.29,20.29,0,0,1-2.34,7.83A16.14,16.14,0,0,1,559,175c-6.67,0-11.17-4.17-11.17-12.56a22.35,22.35,0,0,1,2.93-10.36l2,1a14.33,14.33,0,0,0-1.69,6.34c0,5.68,3.63,8.28,8.68,8.28s10.51-3.59,11.28-5.94c-.25-2.67-1.76-6.44-4.58-11.24a56.23,56.23,0,0,1,3.48-5.38Zm-10.51-11.61a34.72,34.72,0,0,1,6,4.72,25.83,25.83,0,0,1-3.7,5.2,67.44,67.44,0,0,0-6-4.65Z" transform="translate(0 0)" style="fill:#fff"/><path d="M586.33,158.35a6.16,6.16,0,0,1-6.05,4.33h-.47c-1.69,0-2.53-1.76-2.53-3.67,0-1.75.81-3.66,2.56-3.66h.52a6,6,0,0,0,3.15-.95c2.85-1.8,2.19-6.92,5.78-10.25a7.07,7.07,0,0,1,4.84-2.17c6.11,0,8.16,9.34,8.16,13.41,0,.51-1.32,7-6.19,7-2.78,0-6.37-1.4-9.66-4Zm10.84-3c.69,0,1.13-.11,1.13-.33-.77-4.1-3-6.74-5.42-6.74-1.94,0-3.3,1.18-4.28,3.15C591.45,154,594.31,155.35,597.17,155.35Z" transform="translate(0 0)" style="fill:#fff"/><path d="M653.16,162.68h-.55c-6.44,0-7.25-3.48-8.72-9.71l-.25-1.13h-.11a6.85,6.85,0,0,1-4.32,3.25,26.55,26.55,0,0,1,.22,3.59,15.34,15.34,0,0,1-2.09,7.77c-2.09,3.55-4.65,5.93-7.62,5.93-2.45,0-5.82-1.24-10-3.7l.84-1.9a9.79,9.79,0,0,0,3.37.69,12.75,12.75,0,0,0,8.79-4.17c2-2,3.44-4,3.81-5.39,0-1-1.79-2.92-5.05-5.71.58-2.12,1.2-4.28,2-6.41l.4-.07c1.61,1.35,3.26,3,5.39,3,3.73,0,4.65-3.92,6.08-5.86l.8.08c.66,2.27,1.14,7.06,2.46,9.81a4.25,4.25,0,0,0,4,2.6h.51Zm-13.73-29.74a29.67,29.67,0,0,1,4.17,4.54,16.47,16.47,0,0,1-3.59,3.74c-1.39-1.51-2.82-2.93-4.28-4.36ZM642.5,125a29.26,29.26,0,0,1,4.18,4.54,16.47,16.47,0,0,1-3.59,3.74c-1.39-1.51-2.82-2.93-4.29-4.36Zm4.65,7.58a29.26,29.26,0,0,1,4.18,4.54,16.47,16.47,0,0,1-3.59,3.74c-1.39-1.51-2.82-2.93-4.28-4.36Z" transform="translate(0 0)" style="fill:#fff"/><path d="M662.68,139.6c5.49,4.76,7.07,7.44,7.07,11.69a15.71,15.71,0,0,1-1.76,6.62c-1.54,3.15-6.41,4.77-14.32,4.77h-.51c-1.76,0-2.56-1.91-2.56-3.67s.8-3.66,2.56-3.66h.51c7.33,0,12.38-1.21,12.38-2.86,0-3.07-4.91-7.36-12.34-12.37a16.63,16.63,0,0,1-.73-4.62,5.57,5.57,0,0,1,3.66-5.38,184.22,184.22,0,0,1,18.9-7.07l.25.26c-.95,2-2,4.06-3.15,6.08a159.1,159.1,0,0,0-16.26,5.89v.22c2.6.55,5.13.95,7.51,1.28Z" transform="translate(0 0)" style="fill:#fff"/><path d="M685.79,118.07l-1-1.1a1.52,1.52,0,0,0-1.25-.51c-1.46,0-2.45.73-2.45,1.28,0,1,1.69,1.94,4.8,1.94,1.35,0,2.42,0,3.7-.11l.14.33a21.78,21.78,0,0,1-1.5,3c-4,.51-7.14,1.35-9.15,2.64l-.44-.44a29.7,29.7,0,0,1,1.43-2.75,3.12,3.12,0,0,1-2.24-2.93,6.22,6.22,0,0,1,2.35-4.14,7.05,7.05,0,0,1,4.54-1.94c1.57,0,2.6.81,2.6,2a5,5,0,0,1-1.07,2.71Zm-3.48,45a61.81,61.81,0,0,0,.48-8.82,217,217,0,0,0-1.25-23.8,62.94,62.94,0,0,1,4.25-4.66l.62.33c.73,7.91.84,15.31.84,22.42,0,5.75-.33,9.59-1.13,10.84a26.42,26.42,0,0,1-3,4.28Z" transform="translate(0 0)" style="fill:#fff"/></svg>