<svg id="Group_152_copy" data-name="Group 152 copy" xmlns="http://www.w3.org/2000/svg" xmlns:xlink="http://www.w3.org/1999/xlink" width="1026" height="555" viewBox="0 0 342 185">
  <metadata><?xpacket begin="﻿" id="W5M0MpCehiHzreSzNTczkc9d"?>
<x:xmpmeta xmlns:x="adobe:ns:meta/" x:xmptk="Adobe XMP Core 5.6-c140 79.160451, 2017/05/06-01:08:21        ">
   <rdf:RDF xmlns:rdf="http://www.w3.org/1999/02/22-rdf-syntax-ns#">
      <rdf:Description rdf:about=""/>
   </rdf:RDF>
</x:xmpmeta>
                                                                                                    
                                                                                                    
                                                                                                    
                                                                                                    
                                                                                                    
                                                                                                    
                                                                                                    
                                                                                                    
                                                                                                    
                                                                                                    
                                                                                                    
                                                                                                    
                                                                                                    
                                                                                                    
                                                                                                    
                                                                                                    
                                                                                                    
                                                                                                    
                                                                                                    
                                                                                                    
                           
<?xpacket end="w"?></metadata>
<defs>
    <style>
      .cls-1, .cls-2 {
        fill-rule: evenodd;
      }

      .cls-1 {
        fill: url(#linear-gradient);
      }

      .cls-2 {
        fill: #fff;
      }
    </style>
    <linearGradient id="linear-gradient" x1="766" y1="9254.5" x2="1108" y2="9254.5" gradientUnits="userSpaceOnUse">
      <stop offset="0" stop-color="#3b4aff"/>
      <stop offset="1" stop-color="#f00070"/>
    </linearGradient>
  </defs>
  <path class="cls-1" d="M776,9162h332l-10,185H766Z" transform="translate(-766 -9162)"/>
  <path id="_150" data-name="150" class="cls-2" d="M886.93,9243.59a1.134,1.134,0,0,0,1.275-1.29v-4.77a1.134,1.134,0,0,0-1.275-1.29h-9.3v-40.95a1.986,1.986,0,0,0-.262-1.13,1.521,1.521,0,0,0-1.238-.37h-4.425a11.189,11.189,0,0,0-1.912.15,6.4,6.4,0,0,0-1.763.6l-6.9,2.54a1.393,1.393,0,0,0-.9.79,3.683,3.683,0,0,0-.15,1.09v2.54a1.075,1.075,0,0,0,.3.94,2.218,2.218,0,0,0,1.058.18h7.864v33.62h-8.55a1.134,1.134,0,0,0-1.275,1.29v4.77a1.134,1.134,0,0,0,1.275,1.29H886.93Zm32.388-11.89a7.45,7.45,0,0,1-2.363,3.19,7.871,7.871,0,0,1-3.487,1.46,25.277,25.277,0,0,1-4.313.34,59.884,59.884,0,0,1-6.375-.34q-3.225-.33-6.075-0.71a1.9,1.9,0,0,0-1.462.19,1.724,1.724,0,0,0-.563,1.01l-0.525,2.92a2.638,2.638,0,0,0,.038,1.35,2.406,2.406,0,0,0,1.462,1.05,16.453,16.453,0,0,0,3.338.98q1.913,0.375,3.862.6c1.3,0.15,2.525.26,3.675,0.34s2.075,0.11,2.775.11a35.269,35.269,0,0,0,8.063-.86,15.278,15.278,0,0,0,6.225-2.97,13.265,13.265,0,0,0,3.975-5.7,25.441,25.441,0,0,0,1.387-9.07q0-5.55-2.962-8.51a13.645,13.645,0,0,0-7.763-3.72l-14.25-2.1,1.575-10.2H925.13a1.158,1.158,0,0,0,1.35-1.27v-4.73a1.1,1.1,0,0,0-1.275-1.2H900.53a2.524,2.524,0,0,0-1.537.38,2.12,2.12,0,0,0-.638,1.42l-3,18.9a3.554,3.554,0,0,0,.263,2.1,2.573,2.573,0,0,0,1.912,1.05l16.5,2.78a10.151,10.151,0,0,1,4.538,1.8,4.747,4.747,0,0,1,1.612,3.97A14.324,14.324,0,0,1,919.318,9231.7Zm40.562,11.29a15.764,15.764,0,0,0,5.288-3.41,16.411,16.411,0,0,0,3.375-4.88,28.255,28.255,0,0,0,1.875-5.66,36.2,36.2,0,0,0,.787-5.81c0.1-1.93.15-3.66,0.15-5.22a67.445,67.445,0,0,0-.562-8.58,22.641,22.641,0,0,0-2.513-7.99,15.77,15.77,0,0,0-5.737-5.93q-3.788-2.31-10.313-2.32a18.624,18.624,0,0,0-7.5,1.35,15.86,15.86,0,0,0-5.137,3.49,16.468,16.468,0,0,0-3.263,4.87,29.246,29.246,0,0,0-1.8,5.48,34.044,34.044,0,0,0-.75,5.28c-0.1,1.71-.15,3.15-0.15,4.35,0,1.76.05,3.63,0.15,5.63a41.746,41.746,0,0,0,.713,5.89,25.344,25.344,0,0,0,1.762,5.55,15.782,15.782,0,0,0,3.263,4.72,14.442,14.442,0,0,0,5.175,3.26,20.992,20.992,0,0,0,7.537,1.2A20.412,20.412,0,0,0,959.88,9242.99Zm-2.1-41.21a8.116,8.116,0,0,1,3.225,3.61,17.4,17.4,0,0,1,1.463,5.75c0.225,2.25.337,4.81,0.337,7.66a59.266,59.266,0,0,1-.412,7.29,18.215,18.215,0,0,1-1.575,5.71,9.088,9.088,0,0,1-3.225,3.76,9.638,9.638,0,0,1-5.363,1.35,9.076,9.076,0,0,1-5.25-1.35,8.6,8.6,0,0,1-3-3.79,19.637,19.637,0,0,1-1.387-5.75,76,76,0,0,1,0-14.32,19.25,19.25,0,0,1,1.425-5.82,9.334,9.334,0,0,1,3.037-3.91,8.577,8.577,0,0,1,5.175-1.43A10.814,10.814,0,0,1,957.78,9201.78Z" transform="translate(-766 -9162)"/>
  <path id="More_than" data-name="More  than" class="cls-2" d="M809.126,9214.08l-1.776-3.72-2.328-4.73a1.212,1.212,0,0,0-.372-0.45,1.408,1.408,0,0,0-.684-0.13H801.9a0.436,0.436,0,0,0-.4.16,0.631,0.631,0,0,0-.108.37v14.9a0.652,0.652,0,0,0,.108.39,0.485,0.485,0,0,0,.4.14h2.688a0.416,0.416,0,0,0,.42-0.17,0.782,0.782,0,0,0,.084-0.36v-7.36l0.048-.03,0.84,1.83,1.56,3.21a1.471,1.471,0,0,0,.372.42,1,1,0,0,0,.636.16h1.176a1.012,1.012,0,0,0,.624-0.17,1.465,1.465,0,0,0,.384-0.46l1.512-3.09,0.84-1.87,0.072,0.02v7.34a0.652,0.652,0,0,0,.108.39,0.518,0.518,0,0,0,.42.14h2.688a0.387,0.387,0,0,0,.408-0.17,0.89,0.89,0,0,0,.072-0.36v-14.9a0.953,0.953,0,0,0-.072-0.35,0.391,0.391,0,0,0-.408-0.18h-1.968a1.044,1.044,0,0,0-.672.16,1.524,1.524,0,0,0-.36.44l-2.328,4.66-1.824,3.77h-0.1Zm21.517-1.26a4.86,4.86,0,0,0-.792-1.94,4.348,4.348,0,0,0-1.728-1.4,6.945,6.945,0,0,0-2.976-.54,5.992,5.992,0,0,0-2.94.62,4.585,4.585,0,0,0-1.656,1.55,5.419,5.419,0,0,0-.732,1.96,11.609,11.609,0,0,0-.168,1.85,17.5,17.5,0,0,0,.132,2.08,5.139,5.139,0,0,0,.684,2.04,4.252,4.252,0,0,0,1.644,1.55,6.237,6.237,0,0,0,3.036.61,6.593,6.593,0,0,0,3.108-.61,4.362,4.362,0,0,0,1.716-1.55,5.066,5.066,0,0,0,.72-2.04,16.058,16.058,0,0,0,.144-2.08A11.819,11.819,0,0,0,830.643,9212.82Zm-3.924,4.52a1.574,1.574,0,0,1-1.572.74,1.451,1.451,0,0,1-1.44-.72,5.428,5.428,0,0,1-.36-2.3,5.251,5.251,0,0,1,.372-2.23,1.481,1.481,0,0,1,1.476-.77,1.536,1.536,0,0,1,1.548.74,5.6,5.6,0,0,1,.348,2.26A5.352,5.352,0,0,1,826.719,9217.34Zm9.748-7.66a0.725,0.725,0,0,0-.1-0.34,0.443,0.443,0,0,0-.429-0.18h-2.6a0.485,0.485,0,0,0-.418.14,0.627,0.627,0,0,0-.107.38v10.8a0.659,0.659,0,0,0,.107.39,0.516,0.516,0,0,0,.418.14h2.623a0.411,0.411,0,0,0,.417-0.17,0.794,0.794,0,0,0,.083-0.36v-6.79a27.55,27.55,0,0,1,3.936-1.03,1.924,1.924,0,0,0,.408-0.11,0.64,0.64,0,0,0,.216-0.14,0.293,0.293,0,0,0,.072-0.19,1.956,1.956,0,0,0-.024-0.28l-0.288-2.35a0.6,0.6,0,0,0-.228-0.53,1.1,1.1,0,0,0-.564-0.02,4.219,4.219,0,0,0-.852.24,6.949,6.949,0,0,0-.948.42,8.271,8.271,0,0,0-.924.55,4.508,4.508,0,0,0-.756.63l-0.048-.04v-1.16Zm15.463,6.27a1.178,1.178,0,0,0,1.044-.4,1.973,1.973,0,0,0,.276-1.14,8.88,8.88,0,0,0-.216-1.93,4.53,4.53,0,0,0-.8-1.76,4.225,4.225,0,0,0-1.644-1.29,6.626,6.626,0,0,0-2.784-.49,5.87,5.87,0,0,0-2.988.65,4.446,4.446,0,0,0-1.644,1.61,5.5,5.5,0,0,0-.7,2.04,14.744,14.744,0,0,0-.144,1.94,11.786,11.786,0,0,0,.216,2.29,4.7,4.7,0,0,0,.828,1.92,4.242,4.242,0,0,0,1.728,1.33,7.074,7.074,0,0,0,2.916.51c0.288,0,.607-0.01.96-0.04s0.7-.06,1.044-0.11a8.326,8.326,0,0,0,1.008-.18,8.177,8.177,0,0,0,.852-0.22,1.026,1.026,0,0,0,.624-0.45,1.369,1.369,0,0,0,0-.63l-0.192-1.13a0.832,0.832,0,0,0-.216-0.52,1.5,1.5,0,0,0-.6-0.01c-0.5.06-1,.12-1.512,0.17s-0.952.07-1.32,0.07a6.753,6.753,0,0,1-1.068-.08,1.68,1.68,0,0,1-1.308-1.02,3.066,3.066,0,0,1-.216-1.13h5.856Zm-2.832-3.61a2.711,2.711,0,0,1,.36,1.45h-3.336a2.728,2.728,0,0,1,.444-1.53,1.466,1.466,0,0,1,1.236-.51A1.38,1.38,0,0,1,849.1,9212.34Zm-39.924,29.86a0.511,0.511,0,0,0-.192-0.45,1.31,1.31,0,0,0-.384-0.05c-0.3.03-.609,0.06-0.912,0.07s-0.552.03-.744,0.03a2.865,2.865,0,0,1-.816-0.09,0.835,0.835,0,0,1-.432-0.24,0.7,0.7,0,0,1-.18-0.39,4.05,4.05,0,0,1-.036-0.58l-0.024-4.46h2.472a0.48,0.48,0,0,0,.42-0.14,0.729,0.729,0,0,0,.084-0.39v-1.83a0.69,0.69,0,0,0-.084-0.38,0.516,0.516,0,0,0-.42-0.12h-2.448v-3.22a0.426,0.426,0,0,0-.168-0.39,0.462,0.462,0,0,0-.432-0.01l-2.424.64a0.972,0.972,0,0,0-.384.21,0.551,0.551,0,0,0-.144.42v2.35h-1.08a0.484,0.484,0,0,0-.4.13,0.624,0.624,0,0,0-.108.4v1.8a0.593,0.593,0,0,0,.108.39,0.485,0.485,0,0,0,.4.14H801.9v5.35a7.622,7.622,0,0,0,.132,1.43,2.985,2.985,0,0,0,.516,1.21,2.751,2.751,0,0,0,1.08.85,4.3,4.3,0,0,0,1.824.32c0.192,0,.428,0,0.708-0.02s0.579-.04.9-0.08,0.644-.1.972-0.16a6.267,6.267,0,0,0,.924-0.24,0.631,0.631,0,0,0,.372-0.29,0.587,0.587,0,0,0,.06-0.48Zm12.882-4.53a14.784,14.784,0,0,0-.1-1.68,4.06,4.06,0,0,0-.48-1.53,2.858,2.858,0,0,0-1.164-1.1,4.508,4.508,0,0,0-2.124-.42,5.507,5.507,0,0,0-1.872.34,11.142,11.142,0,0,0-1.7.74v-5.42a0.782,0.782,0,0,0-.084-0.36,0.414,0.414,0,0,0-.42-0.17h-2.664a0.485,0.485,0,0,0-.4.14,0.652,0.652,0,0,0-.108.39v15.88a0.652,0.652,0,0,0,.108.39,0.485,0.485,0,0,0,.4.14h2.64a0.414,0.414,0,0,0,.42-0.17,0.782,0.782,0,0,0,.084-0.36v-7.56l0.5-.21c0.192-.08.4-0.16,0.612-0.23s0.432-.13.648-0.18a2.6,2.6,0,0,1,.588-0.07,1.365,1.365,0,0,1,1.116.41,2.143,2.143,0,0,1,.348,1.39v1.29c0,0.61,0,1.26-.012,1.94s-0.012,1.32-.012,1.93v1.29a0.465,0.465,0,0,0,.528.53h2.64a0.414,0.414,0,0,0,.42-0.17,0.782,0.782,0,0,0,.084-0.36v-6.81Zm8.752,3.96a6.168,6.168,0,0,1-1.236.57,3.788,3.788,0,0,1-1.284.27,1.222,1.222,0,0,1-.852-0.22,1.032,1.032,0,0,1-.228-0.77,1.421,1.421,0,0,1,.384-1.15,1.617,1.617,0,0,1,1.056-.31h2.16v1.61Zm0.408,1.97a1.722,1.722,0,0,0,.912,1.26,3.8,3.8,0,0,0,1.56.3,6.233,6.233,0,0,0,1.488-.17,0.7,0.7,0,0,0,.7-0.63v-1.53a0.368,0.368,0,0,0-.1-0.3,0.757,0.757,0,0,0-.408-0.11,3.175,3.175,0,0,1-.456-0.07,0.547,0.547,0,0,1-.264-0.16,0.632,0.632,0,0,1-.132-0.32,3.967,3.967,0,0,1-.036-0.6v-3.79a9.855,9.855,0,0,0-.168-1.92,2.832,2.832,0,0,0-.708-1.42,3.546,3.546,0,0,0-1.56-.89,9.439,9.439,0,0,0-2.7-.31c-0.272,0-.592.01-0.96,0.04s-0.74.06-1.116,0.1-0.744.11-1.1,0.18a7.548,7.548,0,0,0-.948.26,1.423,1.423,0,0,0-.684.42,0.7,0.7,0,0,0-.084.51l0.264,1.25a0.534,0.534,0,0,0,.252.41,2.265,2.265,0,0,0,.66,0c0.24-.02.5-0.04,0.792-0.07s0.576-.06.864-0.08,0.564-.03.828-0.04,0.484-.03.66-0.03a5.2,5.2,0,0,1,1.08.09,1.565,1.565,0,0,1,.636.25,0.814,0.814,0,0,1,.312.43,2.174,2.174,0,0,1,.084.65v0.38h-2.76a8.136,8.136,0,0,0-1.92.21,3.686,3.686,0,0,0-1.464.67,3,3,0,0,0-.924,1.23,4.607,4.607,0,0,0-.3,1.88,6.593,6.593,0,0,0,.132,1.33,2.771,2.771,0,0,0,.492,1.11,2.569,2.569,0,0,0,1.02.78,4.179,4.179,0,0,0,1.716.3,6.317,6.317,0,0,0,2.136-.37,7.271,7.271,0,0,0,1.128-.51,5.855,5.855,0,0,0,1.032-.75Zm17.516,0.91v-6.82q0-.84-0.084-1.68a4.065,4.065,0,0,0-.444-1.52,2.723,2.723,0,0,0-1.092-1.11,4.037,4.037,0,0,0-2-.42,5.81,5.81,0,0,0-1.92.38,6.534,6.534,0,0,0-1.848.97,0.213,0.213,0,0,1-.036-0.01,0.047,0.047,0,0,0-.036-0.02v-0.57a0.782,0.782,0,0,0-.084-0.36,0.433,0.433,0,0,0-.42-0.17h-2.616a0.52,0.52,0,0,0-.42.14,0.652,0.652,0,0,0-.108.39v10.8a0.57,0.57,0,0,0,.108.37,0.52,0.52,0,0,0,.42.13h2.616a0.451,0.451,0,0,0,.42-0.15,0.741,0.741,0,0,0,.084-0.35v-7.44q0.432-.15,1.1-0.42a3.2,3.2,0,0,1,1.248-.28,1.369,1.369,0,0,1,1.116.42,2.274,2.274,0,0,1,.348,1.43c0,1.06,0,2.1-.012,3.14s-0.012,2.09-.012,3.15a0.456,0.456,0,0,0,.528.5h2.64a0.451,0.451,0,0,0,.42-0.15,0.741,0.741,0,0,0,.084-0.35h0Z" transform="translate(-766 -9162)"/>
  <path id="already_joined_MetaHash" data-name="already joined #MetaHash" class="cls-2" d="M807.257,9306.42c-0.234.13-.5,0.27-0.8,0.41s-0.609.27-.925,0.39a6.807,6.807,0,0,1-.95.27,4.057,4.057,0,0,1-.875.1,1.786,1.786,0,0,1-1.212-.31,1.529,1.529,0,0,1-.338-1.14,2.04,2.04,0,0,1,.55-1.66,2.354,2.354,0,0,1,1.5-.44h3.05v2.38Zm0.2,1.8a1.791,1.791,0,0,0,.738,1.2,2.769,2.769,0,0,0,1.412.32,3.855,3.855,0,0,0,.575-0.04c0.2-.02.4-0.05,0.6-0.08a0.57,0.57,0,0,0,.6-0.53v-1.05a0.32,0.32,0,0,0-.1-0.27,0.718,0.718,0,0,0-.375-0.1,2.268,2.268,0,0,1-.475-0.08,0.494,0.494,0,0,1-.262-0.16,0.735,0.735,0,0,1-.125-0.33,3.442,3.442,0,0,1-.038-0.58v-4.83a11.011,11.011,0,0,0-.15-1.9,3.041,3.041,0,0,0-.65-1.44,3.265,3.265,0,0,0-1.462-.91,8.564,8.564,0,0,0-2.588-.32q-0.45,0-1.012.03c-0.375.03-.755,0.06-1.138,0.1s-0.759.1-1.125,0.16a5.861,5.861,0,0,0-.95.25,1.147,1.147,0,0,0-.525.34,0.52,0.52,0,0,0-.05.4l0.225,0.92a0.354,0.354,0,0,0,.188.31,1.772,1.772,0,0,0,.512-0.01c0.25-.02.529-0.04,0.838-0.08s0.616-.06.925-0.07,0.608-.04.9-0.05,0.537-.03.737-0.03a7.3,7.3,0,0,1,1.275.1,1.779,1.779,0,0,1,.8.36,1.244,1.244,0,0,1,.413.64,3.486,3.486,0,0,1,.112.95v0.65h-3.2a5.407,5.407,0,0,0-3.55.99,3.881,3.881,0,0,0-1.15,3.19,6.008,6.008,0,0,0,.163,1.45,2.746,2.746,0,0,0,.55,1.11,2.5,2.5,0,0,0,1.05.72,4.426,4.426,0,0,0,1.662.27,6.9,6.9,0,0,0,2.463-.45,8.245,8.245,0,0,0,2.137-1.18Zm7.958-15.75a0.422,0.422,0,0,0-.475-0.48h-1.775a0.422,0.422,0,0,0-.475.48v14.72a2.8,2.8,0,0,0,.562,1.91,2.542,2.542,0,0,0,1.988.64,6.579,6.579,0,0,0,.8-0.06,2.48,2.48,0,0,0,.825-0.24,0.471,0.471,0,0,0,.325-0.47l-0.1-1.28a0.421,0.421,0,0,0-.138-0.25,1,1,0,0,0-.362-0.07,2.158,2.158,0,0,1-.913-0.14,0.744,0.744,0,0,1-.262-0.71v-14.05Zm6.83,8.62a6.821,6.821,0,0,1,.8-0.3c0.316-.1.658-0.2,1.025-0.31s0.741-.21,1.125-0.3,0.75-.17,1.1-0.24a0.592,0.592,0,0,0,.45-0.2,0.933,0.933,0,0,0,.025-0.4l-0.175-1.67a0.5,0.5,0,0,0-.2-0.4,0.641,0.641,0,0,0-.4-0.03,4.718,4.718,0,0,0-.975.28c-0.35.13-.7,0.28-1.038,0.43a8.646,8.646,0,0,0-.962.53,5.03,5.03,0,0,0-.725.54l-0.05-.05v-1.1a0.442,0.442,0,0,0-.5-0.5h-1.791a0.43,0.43,0,0,0-.479.5v11.27a0.424,0.424,0,0,0,.479.48h1.816a0.424,0.424,0,0,0,.48-0.48v-8.05Zm14.95,3.15a1.069,1.069,0,0,0,1-.42,2.025,2.025,0,0,0,.225-1.1,11.327,11.327,0,0,0-.238-2.02,4.7,4.7,0,0,0-.787-1.8,4.217,4.217,0,0,0-1.613-1.28,6.185,6.185,0,0,0-2.712-.5,5.443,5.443,0,0,0-2.888.66,4.468,4.468,0,0,0-1.6,1.64,5.921,5.921,0,0,0-.687,2.1,15.4,15.4,0,0,0-.15,2.02,14.375,14.375,0,0,0,.187,2.36,5.194,5.194,0,0,0,.763,2.02,4.055,4.055,0,0,0,1.65,1.4,6.616,6.616,0,0,0,2.875.52,9.112,9.112,0,0,0,1-.05q0.549-.045,1.1-0.12c0.366-.05.716-0.12,1.05-0.19a6.472,6.472,0,0,0,.875-0.26,0.689,0.689,0,0,0,.412-0.33,0.886,0.886,0,0,0,.013-0.45l-0.15-.82a0.539,0.539,0,0,0-.188-0.42,1.05,1.05,0,0,0-.487-0.01q-0.726.075-1.65,0.18c-0.617.06-1.15,0.1-1.6,0.1a5.085,5.085,0,0,1-1.325-.15,2.03,2.03,0,0,1-.925-0.52,2.235,2.235,0,0,1-.563-0.98,6.14,6.14,0,0,1-.212-1.58H837.2Zm-2.863-4.6a1.885,1.885,0,0,1,.75.67,2.762,2.762,0,0,1,.363.95,6.143,6.143,0,0,1,.1,1.11H830.6a8.237,8.237,0,0,1,.175-1.25,2.441,2.441,0,0,1,.412-0.95,1.846,1.846,0,0,1,.738-0.58,2.9,2.9,0,0,1,1.15-.2A2.723,2.723,0,0,1,834.332,9299.64Zm13.753,6.78c-0.234.13-.5,0.27-0.8,0.41s-0.609.27-.925,0.39a6.807,6.807,0,0,1-.95.27,4.057,4.057,0,0,1-.875.1,1.789,1.789,0,0,1-1.213-.31,1.529,1.529,0,0,1-.337-1.14,2.04,2.04,0,0,1,.55-1.66,2.354,2.354,0,0,1,1.5-.44h3.05v2.38Zm0.2,1.8a1.79,1.79,0,0,0,.737,1.2,2.773,2.773,0,0,0,1.413.32,3.855,3.855,0,0,0,.575-0.04c0.2-.02.4-0.05,0.6-0.08a0.57,0.57,0,0,0,.6-0.53v-1.05a0.32,0.32,0,0,0-.1-0.27,0.718,0.718,0,0,0-.375-0.1,2.268,2.268,0,0,1-.475-0.08,0.5,0.5,0,0,1-.263-0.16,0.735,0.735,0,0,1-.125-0.33,3.461,3.461,0,0,1-.037-0.58v-4.83a11.011,11.011,0,0,0-.15-1.9,3.041,3.041,0,0,0-.65-1.44,3.269,3.269,0,0,0-1.463-.91,8.556,8.556,0,0,0-2.587-.32q-0.45,0-1.013.03c-0.375.03-.754,0.06-1.137,0.1s-0.759.1-1.125,0.16a5.861,5.861,0,0,0-.95.25,1.147,1.147,0,0,0-.525.34,0.52,0.52,0,0,0-.05.4l0.225,0.92a0.353,0.353,0,0,0,.187.31,1.779,1.779,0,0,0,.513-0.01c0.25-.02.528-0.04,0.837-0.08s0.616-.06.925-0.07,0.608-.04.9-0.05,0.538-.03.738-0.03a7.3,7.3,0,0,1,1.275.1,1.779,1.779,0,0,1,.8.36,1.242,1.242,0,0,1,.412.64,3.483,3.483,0,0,1,.113.95v0.65h-3.2a5.407,5.407,0,0,0-3.55.99,3.881,3.881,0,0,0-1.15,3.19,6.01,6.01,0,0,0,.162,1.45,2.746,2.746,0,0,0,.55,1.11,2.5,2.5,0,0,0,1.05.72,4.431,4.431,0,0,0,1.663.27,6.891,6.891,0,0,0,2.462-.45,8.251,8.251,0,0,0,2.138-1.18Zm15.507-15.73a0.741,0.741,0,0,0-.075-0.36,0.4,0.4,0,0,0-.375-0.14h-1.775a0.436,0.436,0,0,0-.387.13,0.64,0.64,0,0,0-.088.37v5.18c-0.017,0-.025,0-0.025.01s-0.009.01-.025,0.01a8.933,8.933,0,0,0-3.1-.57,6.081,6.081,0,0,0-2.487.43,3.566,3.566,0,0,0-1.513,1.29,5.555,5.555,0,0,0-.762,2.06,16.016,16.016,0,0,0-.213,2.74,15.743,15.743,0,0,0,.188,2.56,5.664,5.664,0,0,0,.65,1.94,3.19,3.19,0,0,0,1.25,1.24,4.129,4.129,0,0,0,2.012.44,4.773,4.773,0,0,0,1.113-.14,6.755,6.755,0,0,0,1.087-.36,9.837,9.837,0,0,0,.975-0.48q0.45-.255.775-0.48a0.047,0.047,0,0,1,.038.01,0.043,0.043,0,0,0,.037.01v0.79a0.4,0.4,0,0,0,.45.45h1.8a0.406,0.406,0,0,0,.363-0.13,0.6,0.6,0,0,0,.087-0.35v-16.65Zm-2.725,13.75c-0.184.1-.414,0.21-0.691,0.34s-0.573.24-.891,0.36a8.828,8.828,0,0,1-.955.3,3.153,3.153,0,0,1-.854.13,2.381,2.381,0,0,1-.854-0.14,1.282,1.282,0,0,1-.6-0.53,2.9,2.9,0,0,1-.364-1.13,13.38,13.38,0,0,1-.113-1.94,12.977,12.977,0,0,1,.125-1.97,3.8,3.8,0,0,1,.4-1.27,1.563,1.563,0,0,1,.754-0.67,2.865,2.865,0,0,1,1.155-.2,10.213,10.213,0,0,1,1.319.09,10.464,10.464,0,0,1,1.57.33v6.3Zm9.86-.12-1.25-3.73-1.625-4.65a0.581,0.581,0,0,0-.2-0.32,0.758,0.758,0,0,0-.35-0.05h-1.925a0.272,0.272,0,0,0-.312.15,0.594,0.594,0,0,0,.037.35l4.375,11.62-1.575,4.23a0.588,0.588,0,0,0-.037.35,0.3,0.3,0,0,0,.337.15h1.7a0.8,0.8,0,0,0,.45-0.1,0.927,0.927,0,0,0,.225-0.35l5.825-15.9a0.7,0.7,0,0,0,.05-0.35c-0.017-.1-0.125-0.15-0.325-0.15h-1.85a0.618,0.618,0,0,0-.4.1,0.627,0.627,0,0,0-.2.32l-1.55,4.6c-0.117.34-.242,0.7-0.375,1.1-0.117.34-.254,0.73-0.412,1.18s-0.33.93-.513,1.45h-0.1Zm17.2-8.28a0.433,0.433,0,0,0-.5-0.47h-1.765a0.433,0.433,0,0,0-.5.47v12.1a3.626,3.626,0,0,1-.15,1.16,1.49,1.49,0,0,1-.512.72,2.709,2.709,0,0,1-.95.43c-0.392.11-.879,0.23-1.463,0.34a0.752,0.752,0,0,0-.362.15,0.513,0.513,0,0,0-.038.4l0.1,1.18a0.454,0.454,0,0,0,.225.4,0.9,0.9,0,0,0,.325.1,8.965,8.965,0,0,0,2.641-.25,4.1,4.1,0,0,0,1.735-.94,3.521,3.521,0,0,0,.946-1.58,7.576,7.576,0,0,0,.278-2.16v-12.05Zm-0.177-4.76a1.435,1.435,0,0,0-1.21-.39,1.413,1.413,0,0,0-1.186.41,1.7,1.7,0,0,0-.3,1.02,2.8,2.8,0,0,0,.05.53,1.142,1.142,0,0,0,.2.47,1.061,1.061,0,0,0,.441.32,1.925,1.925,0,0,0,.795.13,2.04,2.04,0,0,0,.768-0.12,0.971,0.971,0,0,0,.454-0.31,1.018,1.018,0,0,0,.215-0.46,3.046,3.046,0,0,0,.05-0.56A1.752,1.752,0,0,0,887.95,9293.08Zm13.63,8.01a5.335,5.335,0,0,0-.761-1.99,4.092,4.092,0,0,0-1.659-1.43,6.422,6.422,0,0,0-2.9-.55,5.568,5.568,0,0,0-2.856.63,4.508,4.508,0,0,0-1.609,1.58,5.6,5.6,0,0,0-.711,2.01,13.264,13.264,0,0,0-.162,1.95,20.519,20.519,0,0,0,.125,2.23,5.519,5.519,0,0,0,.661,2.11,4.063,4.063,0,0,0,1.609,1.57,5.928,5.928,0,0,0,2.943.62,6.266,6.266,0,0,0,3.043-.62,4.128,4.128,0,0,0,1.646-1.57,5.55,5.55,0,0,0,.686-2.11,18.969,18.969,0,0,0,.137-2.23A13.159,13.159,0,0,0,901.58,9301.09Zm-2.688,4.13a3.079,3.079,0,0,1-.4,1.23,1.816,1.816,0,0,1-.837.73,3.435,3.435,0,0,1-1.388.24,3,3,0,0,1-1.3-.25,1.839,1.839,0,0,1-.775-0.74,3.585,3.585,0,0,1-.387-1.23,13.223,13.223,0,0,1,0-3.45,3.484,3.484,0,0,1,.4-1.23,1.763,1.763,0,0,1,.787-0.75,2.865,2.865,0,0,1,1.3-.25,3.171,3.171,0,0,1,1.375.25,1.886,1.886,0,0,1,.825.73,3.189,3.189,0,0,1,.4,1.23,13.223,13.223,0,0,1,.1,1.74A13.605,13.605,0,0,1,898.892,9305.22Zm7.763-12.14a1.417,1.417,0,0,0-1.2-.39,1.389,1.389,0,0,0-1.188.41,1.76,1.76,0,0,0-.287,1.02,2.722,2.722,0,0,0,.05.53,1.139,1.139,0,0,0,.2.47,1.047,1.047,0,0,0,.437.32,1.892,1.892,0,0,0,.788.13,2.013,2.013,0,0,0,.762-0.12,0.974,0.974,0,0,0,.45-0.31,1.036,1.036,0,0,0,.213-0.46,3.046,3.046,0,0,0,.05-0.56A1.759,1.759,0,0,0,906.655,9293.08Zm0.125,4.76a0.657,0.657,0,0,0-.088-0.34,0.4,0.4,0,0,0-.362-0.13h-1.775a0.43,0.43,0,0,0-.5.47v11.3a0.433,0.433,0,0,0,.5.48h1.775a0.406,0.406,0,0,0,.362-0.14,0.609,0.609,0,0,0,.088-0.34v-11.3Zm13.192,11.3v-7.25a15.831,15.831,0,0,0-.1-1.81,3.84,3.84,0,0,0-.477-1.51,2.687,2.687,0,0,0-1.1-1.04,4.291,4.291,0,0,0-2.007-.39,5.4,5.4,0,0,0-1.179.14,7.259,7.259,0,0,0-1.153.36,9.8,9.8,0,0,0-1.041.49,8.186,8.186,0,0,0-.84.51,0.043,0.043,0,0,1-.037-0.01,0.047,0.047,0,0,0-.038-0.01v-0.75a0.429,0.429,0,0,0-.475-0.5h-1.775a0.428,0.428,0,0,0-.475.5v11.27a0.422,0.422,0,0,0,.475.48h1.775a0.422,0.422,0,0,0,.475-0.48v-8.35c0.166-.08.391-0.19,0.675-0.31s0.588-.25.913-0.38,0.65-.22.975-0.31a3.658,3.658,0,0,1,.862-0.12,1.479,1.479,0,0,1,1.438.67,3.762,3.762,0,0,1,.362,1.78l-0.025,7.02a0.424,0.424,0,0,0,.479.48h1.817a0.445,0.445,0,0,0,.378-0.13,0.539,0.539,0,0,0,.1-0.35h0Zm11.375-4.9a1.069,1.069,0,0,0,1-.42,2.025,2.025,0,0,0,.225-1.1,11.325,11.325,0,0,0-.237-2.02,4.7,4.7,0,0,0-.788-1.8,4.213,4.213,0,0,0-1.612-1.28,6.19,6.19,0,0,0-2.713-.5,5.439,5.439,0,0,0-2.887.66,4.468,4.468,0,0,0-1.6,1.64,5.923,5.923,0,0,0-.688,2.1,15.4,15.4,0,0,0-.15,2.02,14.373,14.373,0,0,0,.188,2.36,5.193,5.193,0,0,0,.762,2.02,4.055,4.055,0,0,0,1.65,1.4,6.616,6.616,0,0,0,2.875.52,9.112,9.112,0,0,0,1-.05q0.549-.045,1.1-0.12c0.366-.05.716-0.12,1.05-0.19a6.472,6.472,0,0,0,.875-0.26,0.692,0.692,0,0,0,.413-0.33,0.887,0.887,0,0,0,.012-0.45l-0.15-.82a0.539,0.539,0,0,0-.187-0.42,1.055,1.055,0,0,0-.488-0.01q-0.726.075-1.65,0.18c-0.617.06-1.15,0.1-1.6,0.1a5.085,5.085,0,0,1-1.325-.15,2.03,2.03,0,0,1-.925-0.52,2.234,2.234,0,0,1-.562-0.98,6.135,6.135,0,0,1-.213-1.58h6.625Zm-2.862-4.6a1.885,1.885,0,0,1,.75.67,2.76,2.76,0,0,1,.362.95,6.143,6.143,0,0,1,.1,1.11h-4.95a8.237,8.237,0,0,1,.175-1.25,2.442,2.442,0,0,1,.413-0.95,1.843,1.843,0,0,1,.737-0.58,2.9,2.9,0,0,1,1.15-.2A2.728,2.728,0,0,1,928.485,9299.64Zm16.97-7.15a0.741,0.741,0,0,0-.075-0.36,0.4,0.4,0,0,0-.375-0.14H943.23a0.438,0.438,0,0,0-.388.13,0.64,0.64,0,0,0-.087.37v5.18c-0.017,0-.025,0-0.025.01s-0.009.01-.025,0.01a8.933,8.933,0,0,0-3.1-.57,6.086,6.086,0,0,0-2.488.43,3.563,3.563,0,0,0-1.512,1.29,5.555,5.555,0,0,0-.763,2.06,16.022,16.022,0,0,0-.212,2.74,15.75,15.75,0,0,0,.187,2.56,5.664,5.664,0,0,0,.65,1.94,3.19,3.19,0,0,0,1.25,1.24,4.133,4.133,0,0,0,2.013.44,4.765,4.765,0,0,0,1.112-.14,6.766,6.766,0,0,0,1.088-.36,9.837,9.837,0,0,0,.975-0.48q0.45-.255.775-0.48a0.045,0.045,0,0,1,.037.01,0.045,0.045,0,0,0,.038.01v0.79a0.4,0.4,0,0,0,.45.45h1.8a0.4,0.4,0,0,0,.362-0.13,0.6,0.6,0,0,0,.088-0.35v-16.65Zm-2.725,13.75c-0.185.1-.415,0.21-0.691,0.34s-0.574.24-.892,0.36a8.759,8.759,0,0,1-.955.3,3.146,3.146,0,0,1-.853.13,2.377,2.377,0,0,1-.854-0.14,1.273,1.273,0,0,1-.6-0.53,2.9,2.9,0,0,1-.365-1.13,13.4,13.4,0,0,1-.112-1.94,12.849,12.849,0,0,1,.125-1.97,3.775,3.775,0,0,1,.4-1.27,1.556,1.556,0,0,1,.753-0.67,2.87,2.87,0,0,1,1.156-.2,10.225,10.225,0,0,1,1.319.09,10.489,10.489,0,0,1,1.57.33v6.3Zm17.125,2.95c-0.084.29,0.033,0.43,0.35,0.43h1.275a0.31,0.31,0,0,0,.25-0.09,0.708,0.708,0,0,0,.125-0.29l1.3-5.3h2.8a0.426,0.426,0,0,0,.45-0.35l0.275-1.05a0.285,0.285,0,0,0-.325-0.4H963.58l0.625-2.45h2.8a0.437,0.437,0,0,0,.3-0.09,0.485,0.485,0,0,0,.15-0.26l0.275-1.05c0.066-.25-0.05-0.37-0.35-0.37h-2.75l1.125-4.48a0.276,0.276,0,0,0-.325-0.37h-1.3a0.431,0.431,0,0,0-.3.08,0.761,0.761,0,0,0-.125.29l-1.1,4.48h-2.45l1.075-4.43q0.1-.42-0.3-0.42h-1.3a0.431,0.431,0,0,0-.3.08,0.761,0.761,0,0,0-.125.29l-1.075,4.48h-2.65a0.544,0.544,0,0,0-.325.08,0.754,0.754,0,0,0-.175.29l-0.3,1.05a0.274,0.274,0,0,0,.037.29,0.524,0.524,0,0,0,.288.06h2.675l-0.6,2.45h-2.65a0.47,0.47,0,0,0-.5.38l-0.275,1.1c-0.067.21,0.033,0.32,0.3,0.32h2.7l-1.3,5.25a0.315,0.315,0,0,0,.35.43h1.3a0.379,0.379,0,0,0,.35-0.38l1.3-5.3h2.475Zm-0.15-9.5h2.475l-0.6,2.45h-2.475Zm18.077,3.98-1.471-3.18-3.391-7a0.841,0.841,0,0,0-.278-0.37,0.984,0.984,0,0,0-.529-0.1h-1.565a0.4,0.4,0,0,0-.453.45v15.67a0.424,0.424,0,0,0,.479.48h1.842a0.411,0.411,0,0,0,.365-0.14,0.6,0.6,0,0,0,.089-0.34v-10.02h0.05l0.823,1.75,2.842,5.82a0.971,0.971,0,0,0,.274.31,0.757,0.757,0,0,0,.474.12h0.948a0.657,0.657,0,0,0,.436-0.13,1.079,1.079,0,0,0,.287-0.35l2.743-5.6,0.873-1.92H982.7v10.02a0.433,0.433,0,0,0,.5.48h1.825a0.406,0.406,0,0,0,.362-0.14,0.609,0.609,0,0,0,.088-0.34v-15.67a0.611,0.611,0,0,0-.088-0.32,0.372,0.372,0,0,0-.337-0.13H983.6a0.926,0.926,0,0,0-.538.12,1.1,1.1,0,0,0-.287.38l-3.392,6.9-1.521,3.25h-0.075Zm19.873,0.57a1.069,1.069,0,0,0,1-.42,2.025,2.025,0,0,0,.225-1.1,11.327,11.327,0,0,0-.238-2.02,4.7,4.7,0,0,0-.787-1.8,4.217,4.217,0,0,0-1.613-1.28,6.185,6.185,0,0,0-2.712-.5,5.443,5.443,0,0,0-2.888.66,4.468,4.468,0,0,0-1.6,1.64,5.921,5.921,0,0,0-.687,2.1,15.4,15.4,0,0,0-.15,2.02,14.375,14.375,0,0,0,.187,2.36,5.194,5.194,0,0,0,.763,2.02,4.055,4.055,0,0,0,1.65,1.4,6.616,6.616,0,0,0,2.875.52,9.112,9.112,0,0,0,1-.05q0.549-.045,1.1-0.12c0.366-.05.716-0.12,1.05-0.19a6.472,6.472,0,0,0,.875-0.26,0.689,0.689,0,0,0,.412-0.33,0.886,0.886,0,0,0,.013-0.45l-0.15-.82a0.539,0.539,0,0,0-.188-0.42,1.05,1.05,0,0,0-.487-0.01q-0.726.075-1.65,0.18c-0.617.06-1.15,0.1-1.6,0.1a5.085,5.085,0,0,1-1.325-.15,2.03,2.03,0,0,1-.925-0.52,2.235,2.235,0,0,1-.563-0.98,6.14,6.14,0,0,1-.212-1.58h6.625Zm-2.863-4.6a1.885,1.885,0,0,1,.75.67,2.762,2.762,0,0,1,.363.95,6.143,6.143,0,0,1,.1,1.11h-4.95a8.237,8.237,0,0,1,.175-1.25,2.441,2.441,0,0,1,.412-0.95,1.846,1.846,0,0,1,.738-0.58,2.9,2.9,0,0,1,1.15-.2A2.723,2.723,0,0,1,994.792,9299.64Zm13.858,7.78a0.47,0.47,0,0,0-.15-0.3,0.381,0.381,0,0,0-.3-0.05c-0.25.03-.54,0.06-0.88,0.07s-0.61.03-.79,0.03c-0.33,0-.61-0.01-0.83-0.03a0.964,0.964,0,0,1-.51-0.16,0.75,0.75,0,0,1-.26-0.41,3.1,3.1,0,0,1-.08-0.78v-6.22h2.68a0.476,0.476,0,0,0,.39-0.12,0.564,0.564,0,0,0,.08-0.36v-1.25a0.606,0.606,0,0,0-.08-0.35,0.476,0.476,0,0,0-.39-0.12h-2.68v-3.28c0-.28-0.16-0.38-0.5-0.3l-1.67.45a1.071,1.071,0,0,0-.34.16,0.5,0.5,0,0,0-.14.39v2.58h-1.27a0.494,0.494,0,0,0-.38.12,0.662,0.662,0,0,0-.1.38v1.22a0.553,0.553,0,0,0,.1.36,0.494,0.494,0,0,0,.38.12h1.25v6.27a14.972,14.972,0,0,0,.07,1.53,3.317,3.317,0,0,0,.38,1.27,2,2,0,0,0,.91.86,3.8,3.8,0,0,0,1.71.32q0.3,0,.72-0.03a7.145,7.145,0,0,0,.87-0.09,8.436,8.436,0,0,0,.9-0.16,3.387,3.387,0,0,0,.76-0.25,0.532,0.532,0,0,0,.33-0.62Zm9.26-1c-0.24.13-.5,0.27-0.8,0.41s-0.61.27-.93,0.39a6.406,6.406,0,0,1-.95.27,4.007,4.007,0,0,1-.87.1,1.809,1.809,0,0,1-1.22-.31,1.552,1.552,0,0,1-.33-1.14,2.03,2.03,0,0,1,.55-1.66,2.331,2.331,0,0,1,1.5-.44h3.05v2.38Zm0.2,1.8a1.807,1.807,0,0,0,.73,1.2,2.79,2.79,0,0,0,1.42.32,3.817,3.817,0,0,0,.57-0.04c0.2-.02.4-0.05,0.6-0.08a0.57,0.57,0,0,0,.6-0.53v-1.05a0.309,0.309,0,0,0-.1-0.27,0.685,0.685,0,0,0-.37-0.1,2.374,2.374,0,0,1-.48-0.08,0.525,0.525,0,0,1-.26-0.16,0.783,0.783,0,0,1-.13-0.33,4.3,4.3,0,0,1-.03-0.58v-4.83a11.011,11.011,0,0,0-.15-1.9,3.07,3.07,0,0,0-.65-1.44,3.278,3.278,0,0,0-1.47-.91,8.511,8.511,0,0,0-2.58-.32q-0.45,0-1.02.03c-0.37.03-.75,0.06-1.13,0.1s-0.76.1-1.13,0.16a6.183,6.183,0,0,0-.95.25,1.112,1.112,0,0,0-.52.34,0.483,0.483,0,0,0-.05.4l0.22,0.92a0.373,0.373,0,0,0,.19.31,1.757,1.757,0,0,0,.51-0.01c0.25-.02.53-0.04,0.84-0.08s0.62-.06.92-0.07,0.61-.04.9-0.05,0.54-.03.74-0.03a7.378,7.378,0,0,1,1.28.1,1.794,1.794,0,0,1,.8.36,1.271,1.271,0,0,1,.41.64,3.7,3.7,0,0,1,.11.95v0.65h-3.2a5.427,5.427,0,0,0-3.55.99,3.916,3.916,0,0,0-1.15,3.19,6.5,6.5,0,0,0,.16,1.45,2.894,2.894,0,0,0,.55,1.11,2.524,2.524,0,0,0,1.05.72,4.492,4.492,0,0,0,1.67.27,6.872,6.872,0,0,0,2.46-.45,8.379,8.379,0,0,0,2.14-1.18Zm14.59-8.53h-6.3v-6.17a0.64,0.64,0,0,0-.09-0.36,0.363,0.363,0,0,0-.36-0.14h-1.87a0.437,0.437,0,0,0-.5.5v15.62a0.431,0.431,0,0,0,.5.48h1.87a0.383,0.383,0,0,0,.36-0.14,0.593,0.593,0,0,0,.09-0.34v-7h6.3v7a0.435,0.435,0,0,0,.5.48h1.88a0.406,0.406,0,0,0,.36-0.14,0.593,0.593,0,0,0,.09-0.34v-15.62a0.7,0.7,0,0,0-.09-0.37,0.4,0.4,0,0,0-.36-0.13h-1.88a0.441,0.441,0,0,0-.5.5v6.17Zm12.74,6.73c-0.24.13-.5,0.27-0.8,0.41s-0.61.27-.93,0.39a6.406,6.406,0,0,1-.95.27,4.007,4.007,0,0,1-.87.1,1.809,1.809,0,0,1-1.22-.31,1.552,1.552,0,0,1-.33-1.14,2.03,2.03,0,0,1,.55-1.66,2.331,2.331,0,0,1,1.5-.44h3.05v2.38Zm0.2,1.8a1.807,1.807,0,0,0,.73,1.2,2.79,2.79,0,0,0,1.42.32,3.817,3.817,0,0,0,.57-0.04c0.2-.02.4-0.05,0.6-0.08a0.57,0.57,0,0,0,.6-0.53v-1.05a0.309,0.309,0,0,0-.1-0.27,0.685,0.685,0,0,0-.37-0.1,2.374,2.374,0,0,1-.48-0.08,0.525,0.525,0,0,1-.26-0.16,0.783,0.783,0,0,1-.13-0.33,4.3,4.3,0,0,1-.03-0.58v-4.83a11.011,11.011,0,0,0-.15-1.9,3.07,3.07,0,0,0-.65-1.44,3.278,3.278,0,0,0-1.47-.91,8.511,8.511,0,0,0-2.58-.32q-0.45,0-1.02.03c-0.37.03-.75,0.06-1.13,0.1s-0.76.1-1.13,0.16a6.183,6.183,0,0,0-.95.25,1.112,1.112,0,0,0-.52.34,0.483,0.483,0,0,0-.05.4l0.22,0.92a0.373,0.373,0,0,0,.19.31,1.757,1.757,0,0,0,.51-0.01c0.25-.02.53-0.04,0.84-0.08s0.62-.06.92-0.07,0.61-.04.9-0.05,0.54-.03.74-0.03a7.378,7.378,0,0,1,1.28.1,1.794,1.794,0,0,1,.8.36,1.271,1.271,0,0,1,.41.64,3.7,3.7,0,0,1,.11.95v0.65h-3.2a5.427,5.427,0,0,0-3.55.99,3.916,3.916,0,0,0-1.15,3.19,6.5,6.5,0,0,0,.16,1.45,2.894,2.894,0,0,0,.55,1.11,2.524,2.524,0,0,0,1.05.72,4.492,4.492,0,0,0,1.67.27,6.872,6.872,0,0,0,2.46-.45,8.379,8.379,0,0,0,2.14-1.18Zm14.02-4.08a2.863,2.863,0,0,0-1-1.07,4.46,4.46,0,0,0-1.44-.6,16.725,16.725,0,0,0-1.71-.33,6.555,6.555,0,0,1-1.64-.4,0.934,0.934,0,0,1-.48-0.95,1.355,1.355,0,0,1,.38-1.06,2.55,2.55,0,0,1,1.59-.34q0.705,0,1.65.09c0.64,0.06,1.22.12,1.75,0.19a0.9,0.9,0,0,0,.49-0.02,0.434,0.434,0,0,0,.19-0.33l0.2-.9a0.655,0.655,0,0,0-.53-0.75,4.849,4.849,0,0,0-.9-0.25c-0.33-.07-0.67-0.13-1.01-0.18s-0.68-.08-1.01-0.1-0.63-.02-0.88-0.02a5.591,5.591,0,0,0-3.4.96,3.3,3.3,0,0,0-1.3,2.81,3.212,3.212,0,0,0,.38,1.66,2.849,2.849,0,0,0,1.01,1.03,5.191,5.191,0,0,0,1.46.59,17.593,17.593,0,0,0,1.75.32,6.017,6.017,0,0,1,.99.19,1.651,1.651,0,0,1,.61.29,0.8,0.8,0,0,1,.31.45,2.246,2.246,0,0,1,.09.7,1.175,1.175,0,0,1-.52,1.08,3.283,3.283,0,0,1-1.73.34c-0.21,0-.47-0.01-0.76-0.02s-0.6-.04-0.93-0.07-0.65-.05-0.97-0.08-0.62-.08-0.89-0.13a0.924,0.924,0,0,0-.45.01,0.484,0.484,0,0,0-.2.37l-0.17.82a0.711,0.711,0,0,0,.05.49,0.875,0.875,0,0,0,.47.34,8.189,8.189,0,0,0,1.83.41,16.818,16.818,0,0,0,2.05.14,8.784,8.784,0,0,0,1.87-.2,5.133,5.133,0,0,0,1.61-.65,3.333,3.333,0,0,0,1.14-1.19,3.555,3.555,0,0,0,.43-1.84A3.7,3.7,0,0,0,1059.66,9304.14Zm12.55,5v-7.25a14.916,14.916,0,0,0-.11-1.81,3.9,3.9,0,0,0-.5-1.51,2.746,2.746,0,0,0-1.14-1.04,4.523,4.523,0,0,0-2.06-.39,5.335,5.335,0,0,0-1.17.14,8.245,8.245,0,0,0-1.16.35,10.767,10.767,0,0,0-1.02.45c-0.32.16-.59,0.3-0.81,0.44v-6.05a0.435,0.435,0,0,0-.5-0.48h-1.78a0.412,0.412,0,0,0-.45.48v16.67a0.412,0.412,0,0,0,.45.48h1.78a0.425,0.425,0,0,0,.37-0.13,0.522,0.522,0,0,0,.1-0.35v-8.42c0.17-.07.39-0.17,0.68-0.3a8.593,8.593,0,0,1,.91-0.38c0.32-.11.65-0.22,0.97-0.31a3.392,3.392,0,0,1,.87-0.14,1.494,1.494,0,0,1,1.46.64,3.671,3.671,0,0,1,.34,1.69c0,1.21-.01,2.42-0.02,3.61s-0.01,2.4-.01,3.61a0.438,0.438,0,0,0,.51.48h1.79a0.435,0.435,0,0,0,.5-0.48h0Z" transform="translate(-766 -9162)"/>
  <path id="members" class="cls-2" d="M836.73,9282.64v-14.7a30.46,30.46,0,0,0-.2-3.55,7.573,7.573,0,0,0-.95-2.98,5.287,5.287,0,0,0-2.2-2.02,8.547,8.547,0,0,0-3.9-.75,10.879,10.879,0,0,0-4.65,1.05,24.514,24.514,0,0,0-4.15,2.45,5.718,5.718,0,0,0-2.925-2.83,10.962,10.962,0,0,0-3.925-.67,9.389,9.389,0,0,0-2.05.32,17.931,17.931,0,0,0-1.975.68,12.815,12.815,0,0,0-1.825.92c-0.567.35-1.1,0.7-1.6,1.03l-0.05-.05v-1.45a0.882,0.882,0,0,0-1-1h-3.55a0.841,0.841,0,0,0-.9,1v22.55a0.82,0.82,0,0,0,.9.95h3.6a0.841,0.841,0,0,0,.95-0.95v-16.7q0.7-.345,1.55-0.75t1.725-.75a12.529,12.529,0,0,1,1.7-.55,6.522,6.522,0,0,1,1.475-.2,2.85,2.85,0,0,1,2.6,1.1,6.469,6.469,0,0,1,.7,3.4v14.45a0.8,0.8,0,0,0,.85.95h3.65a0.909,0.909,0,0,0,.75-0.25,1.1,1.1,0,0,0,.2-0.7v-14.15q0-.855-0.025-1.5t-0.025-1.05c0.4-.2.867-0.43,1.4-0.7a16.92,16.92,0,0,1,1.675-.73q0.875-.315,1.75-0.57a5.666,5.666,0,0,1,1.575-.25,3.153,3.153,0,0,1,2.65.97q0.75,0.975.75,3.78v14.2a0.841,0.841,0,0,0,.95.95h3.6a0.832,0.832,0,0,0,.725-0.25,1.212,1.212,0,0,0,.175-0.7h0Zm23.45-9.8a2.12,2.12,0,0,0,2-.85,4.011,4.011,0,0,0,.45-2.2,22.362,22.362,0,0,0-.475-4.03,9.235,9.235,0,0,0-1.575-3.6,8.435,8.435,0,0,0-3.225-2.57,12.514,12.514,0,0,0-5.425-1,10.887,10.887,0,0,0-5.775,1.32,9.029,9.029,0,0,0-3.2,3.28,11.864,11.864,0,0,0-1.375,4.2,30.937,30.937,0,0,0-.3,4.05,28.926,28.926,0,0,0,.375,4.72,10.3,10.3,0,0,0,1.525,4.03,8.049,8.049,0,0,0,3.3,2.8,13.224,13.224,0,0,0,5.75,1.05c0.6,0,1.267-.03,2-0.1s1.467-.15,2.2-0.25,1.433-.23,2.1-0.38a11.61,11.61,0,0,0,1.75-.52,1.4,1.4,0,0,0,.825-0.65,1.764,1.764,0,0,0,.025-0.9l-0.3-1.65a1.046,1.046,0,0,0-.375-0.83,1.972,1.972,0,0,0-.975-0.02c-0.967.1-2.067,0.22-3.3,0.35a31.266,31.266,0,0,1-3.2.2,10.181,10.181,0,0,1-2.65-.3,4.142,4.142,0,0,1-1.85-1.03,4.45,4.45,0,0,1-1.125-1.97,12.235,12.235,0,0,1-.425-3.15h13.25Zm-5.725-9.2a3.677,3.677,0,0,1,1.5,1.33,5.554,5.554,0,0,1,.725,1.91,12.008,12.008,0,0,1,.2,2.21h-9.9a16.92,16.92,0,0,1,.35-2.5,4.866,4.866,0,0,1,.825-1.89,3.612,3.612,0,0,1,1.475-1.16,5.639,5.639,0,0,1,2.3-.4A5.578,5.578,0,0,1,854.455,9263.64Zm47.96,19v-14.7a30.46,30.46,0,0,0-.2-3.55,7.573,7.573,0,0,0-.95-2.98,5.287,5.287,0,0,0-2.2-2.02,8.547,8.547,0,0,0-3.9-.75,10.879,10.879,0,0,0-4.65,1.05,24.514,24.514,0,0,0-4.15,2.45,5.718,5.718,0,0,0-2.925-2.83,10.962,10.962,0,0,0-3.925-.67,9.389,9.389,0,0,0-2.05.32,17.931,17.931,0,0,0-1.975.68,12.815,12.815,0,0,0-1.825.92c-0.567.35-1.1,0.7-1.6,1.03l-0.05-.05v-1.45a0.882,0.882,0,0,0-1-1h-3.55a0.841,0.841,0,0,0-.9,1v22.55a0.82,0.82,0,0,0,.9.95h3.6a0.841,0.841,0,0,0,.95-0.95v-16.7q0.7-.345,1.55-0.75t1.725-.75a12.529,12.529,0,0,1,1.7-.55,6.522,6.522,0,0,1,1.475-.2,2.85,2.85,0,0,1,2.6,1.1,6.469,6.469,0,0,1,.7,3.4v14.45a0.8,0.8,0,0,0,.85.95h3.65a0.909,0.909,0,0,0,.75-0.25,1.1,1.1,0,0,0,.2-0.7v-14.15q0-.855-0.025-1.5t-0.025-1.05c0.4-.2.867-0.43,1.4-0.7a16.92,16.92,0,0,1,1.675-.73q0.874-.315,1.75-0.57a5.666,5.666,0,0,1,1.575-.25,3.153,3.153,0,0,1,2.65.97q0.75,0.975.75,3.78v14.2a0.841,0.841,0,0,0,.95.95h3.6a0.832,0.832,0,0,0,.725-0.25,1.212,1.212,0,0,0,.175-0.7h0Zm26.455-16.6a9.968,9.968,0,0,0-1.525-3.95,7.363,7.363,0,0,0-3.075-2.55,12.123,12.123,0,0,0-5.05-.9,17.1,17.1,0,0,0-2.75.25,18.76,18.76,0,0,0-3.45.95v-10.5a1.142,1.142,0,0,0-.2-0.68,0.951,0.951,0,0,0-.8-0.27h-3.55a0.864,0.864,0,0,0-1,.95v31.2a3.225,3.225,0,0,0,.25,1.25,1.862,1.862,0,0,0,1.1.95,20.185,20.185,0,0,0,2.075.55q1.175,0.255,2.45.42c0.85,0.12,1.717.2,2.6,0.25s1.725,0.08,2.525.08a13.885,13.885,0,0,0,5.35-.88,7.532,7.532,0,0,0,3.3-2.52,10.142,10.142,0,0,0,1.675-4.05,28.231,28.231,0,0,0,.475-5.45A29.786,29.786,0,0,0,928.87,9266.04Zm-5.7,9.55a5.229,5.229,0,0,1-1.125,2.27,3.482,3.482,0,0,1-1.725,1.03,9.135,9.135,0,0,1-2.25.25c-0.8,0-1.642-.03-2.525-0.1s-1.725-.17-2.525-0.3v-14.45c0.7-.17,1.317-0.31,1.85-0.43s1.025-.2,1.475-0.27a12.29,12.29,0,0,1,1.325-.13c0.433-.01.917-0.02,1.45-0.02a4.719,4.719,0,0,1,2.05.5,3.394,3.394,0,0,1,1.375,1.4,7.775,7.775,0,0,1,.775,2.5,23.9,23.9,0,0,1,.25,3.75A16.041,16.041,0,0,1,923.17,9275.59Zm28.735-2.75a2.12,2.12,0,0,0,2-.85,4.011,4.011,0,0,0,.45-2.2,22.362,22.362,0,0,0-.475-4.03,9.235,9.235,0,0,0-1.575-3.6,8.435,8.435,0,0,0-3.225-2.57,12.514,12.514,0,0,0-5.425-1,10.887,10.887,0,0,0-5.775,1.32,9.029,9.029,0,0,0-3.2,3.28,11.864,11.864,0,0,0-1.375,4.2,30.937,30.937,0,0,0-.3,4.05,28.926,28.926,0,0,0,.375,4.72,10.3,10.3,0,0,0,1.525,4.03,8.049,8.049,0,0,0,3.3,2.8,13.224,13.224,0,0,0,5.75,1.05c0.6,0,1.267-.03,2-0.1s1.467-.15,2.2-0.25,1.433-.23,2.1-0.38a11.61,11.61,0,0,0,1.75-.52,1.4,1.4,0,0,0,.825-0.65,1.764,1.764,0,0,0,.025-0.9l-0.3-1.65a1.046,1.046,0,0,0-.375-0.83,1.972,1.972,0,0,0-.975-0.02c-0.967.1-2.067,0.22-3.3,0.35a31.266,31.266,0,0,1-3.2.2,10.181,10.181,0,0,1-2.65-.3,4.142,4.142,0,0,1-1.85-1.03,4.45,4.45,0,0,1-1.125-1.97,12.235,12.235,0,0,1-.425-3.15h13.25Zm-5.725-9.2a3.677,3.677,0,0,1,1.5,1.33,5.554,5.554,0,0,1,.725,1.91,12.008,12.008,0,0,1,.2,2.21h-9.9a16.92,16.92,0,0,1,.35-2.5,4.866,4.866,0,0,1,.825-1.89,3.612,3.612,0,0,1,1.475-1.16,5.639,5.639,0,0,1,2.3-.4A5.578,5.578,0,0,1,946.18,9263.64Zm18.105,2.9a13.78,13.78,0,0,1,1.6-.6q0.95-.3,2.05-0.63,1.1-.315,2.25-0.6c0.767-.18,1.5-0.34,2.2-0.47a1.217,1.217,0,0,0,.9-0.4,1.867,1.867,0,0,0,.05-0.8l-0.35-3.35a1.015,1.015,0,0,0-.4-0.8,1.222,1.222,0,0,0-.8-0.05,10.024,10.024,0,0,0-1.95.55q-1.05.405-2.075,0.87a17.355,17.355,0,0,0-1.925,1.05,11.881,11.881,0,0,0-1.45,1.08l-0.1-.1v-2.2a0.886,0.886,0,0,0-1.009-1h-3.582a0.865,0.865,0,0,0-.959,1v22.55a0.845,0.845,0,0,0,.959.95h3.633a0.844,0.844,0,0,0,.958-0.95v-16.1Zm29.95,6.1a5.889,5.889,0,0,0-2-2.15,9.676,9.676,0,0,0-2.875-1.2,33.749,33.749,0,0,0-3.425-.65,13.228,13.228,0,0,1-3.275-.8,1.869,1.869,0,0,1-.975-1.9,2.68,2.68,0,0,1,.775-2.13,5.16,5.16,0,0,1,3.175-.67c0.933,0,2.033.06,3.3,0.17s2.433,0.25,3.5.38a1.829,1.829,0,0,0,.975-0.03,0.828,0.828,0,0,0,.375-0.67l0.4-1.8a1.308,1.308,0,0,0-1.05-1.5,11.258,11.258,0,0,0-1.8-.5c-0.667-.13-1.342-0.25-2.025-0.35a20.282,20.282,0,0,0-2.025-.2c-0.667-.03-1.25-0.05-1.75-0.05a11.167,11.167,0,0,0-6.8,1.92,6.577,6.577,0,0,0-2.6,5.63,6.477,6.477,0,0,0,.75,3.32,5.764,5.764,0,0,0,2.025,2.05,10.241,10.241,0,0,0,2.925,1.18,34.458,34.458,0,0,0,3.5.65,13.177,13.177,0,0,1,1.975.37,3.709,3.709,0,0,1,1.225.58,1.782,1.782,0,0,1,.625.9,4.691,4.691,0,0,1,.175,1.4,2.384,2.384,0,0,1-1.05,2.17,6.625,6.625,0,0,1-3.45.68c-0.433,0-.942-0.02-1.525-0.05s-1.2-.08-1.85-0.13-1.3-.1-1.95-0.17-1.242-.15-1.775-0.25a1.733,1.733,0,0,0-.9.02,0.892,0.892,0,0,0-.4.73l-0.35,1.65a1.505,1.505,0,0,0,.1.97,1.786,1.786,0,0,0,.95.68,15.744,15.744,0,0,0,3.65.82,31.983,31.983,0,0,0,4.1.28,17.036,17.036,0,0,0,3.75-.4,10.157,10.157,0,0,0,3.225-1.3,6.716,6.716,0,0,0,2.275-2.38,7.227,7.227,0,0,0,.85-3.67A7.412,7.412,0,0,0,994.235,9272.64Z" transform="translate(-766 -9162)"/>
  <path class="cls-2" d="M1009.91,9243.34h59.18a0.89,0.89,0,1,0,0-1.78h-3.19v-8.09a5.68,5.68,0,0,0-1.97-4.29,14.321,14.321,0,0,0-18.68-.01,5.665,5.665,0,0,0-1.97,4.29v4.89a0.91,0.91,0,0,0,1.82,0v-4.89a3.923,3.923,0,0,1,1.36-2.96,12.469,12.469,0,0,1,16.26.01,3.929,3.929,0,0,1,1.35,2.96v8.09h-28.29v-8.09a5.68,5.68,0,0,0-1.97-4.29,14.321,14.321,0,0,0-18.68-.01,5.665,5.665,0,0,0-1.97,4.29v4.89a0.915,0.915,0,0,0,1.83,0v-4.89a3.913,3.913,0,0,1,1.35-2.96,12.469,12.469,0,0,1,16.26.01,3.939,3.939,0,0,1,1.36,2.96v8.09h-24.05A0.89,0.89,0,1,0,1009.91,9243.34Zm14.39-19.68c4.3,0,7.77-6.03,7.77-11.02a7.2,7.2,0,0,0-2.86-6.2,8.406,8.406,0,0,0-4.91-1.45,7.764,7.764,0,0,0-4.89,1.54,7.477,7.477,0,0,0-2.53,6.11C1016.88,9217.84,1020.05,9223.66,1024.3,9223.66Zm-3.73-15.75a5.918,5.918,0,0,1,3.73-1.13,6.483,6.483,0,0,1,3.82,1.1,5.537,5.537,0,0,1,2.12,4.76c0,4.49-3.06,9.24-5.94,9.24-3.1,0-5.6-5.06-5.6-9.24A5.727,5.727,0,0,1,1020.57,9207.91Zm33.84,15.75c4.31,0,7.77-6.03,7.77-11.02a7.176,7.176,0,0,0-2.86-6.2,8.361,8.361,0,0,0-4.91-1.45,7.755,7.755,0,0,0-4.88,1.54,7.483,7.483,0,0,0-2.54,6.11C1046.99,9217.84,1050.17,9223.66,1054.41,9223.66Zm-3.72-15.75a5.889,5.889,0,0,1,3.72-1.13,6.494,6.494,0,0,1,3.83,1.1,5.549,5.549,0,0,1,2.12,4.76c0,4.49-3.06,9.24-5.95,9.24-3.1,0-5.59-5.06-5.59-9.24A5.74,5.74,0,0,1,1050.69,9207.91Zm18.4,74.31h-3.19v-8.09a5.7,5.7,0,0,0-1.97-4.29,14.321,14.321,0,0,0-18.68-.01,5.68,5.68,0,0,0-1.97,4.29v4.89a0.91,0.91,0,0,0,1.82,0v-4.89a3.9,3.9,0,0,1,1.36-2.95,12.469,12.469,0,0,1,16.26.01,3.892,3.892,0,0,1,1.35,2.95v8.09h-28.29v-8.09a5.7,5.7,0,0,0-1.97-4.29,14.321,14.321,0,0,0-18.68-.01,5.68,5.68,0,0,0-1.97,4.29v4.89a0.915,0.915,0,0,0,1.83,0v-4.89a3.892,3.892,0,0,1,1.35-2.95,12.469,12.469,0,0,1,16.26.01,3.9,3.9,0,0,1,1.36,2.95v8.09h-24.05a0.9,0.9,0,1,0,0,1.79h59.18A0.9,0.9,0,1,0,1069.09,9282.22Zm-44.79-36.56a7.759,7.759,0,0,0-4.89,1.53,7.5,7.5,0,0,0-2.53,6.11c0,5.21,3.17,11.03,7.42,11.03,4.3,0,7.77-6.03,7.77-11.03a7.215,7.215,0,0,0-2.86-6.2A8.4,8.4,0,0,0,1024.3,9245.66Zm5.94,7.64c0,4.49-3.06,9.24-5.94,9.24-3.1,0-5.6-5.05-5.6-9.24a5.706,5.706,0,0,1,1.87-4.72,5.922,5.922,0,0,1,3.73-1.14,6.483,6.483,0,0,1,3.82,1.1A5.561,5.561,0,0,1,1030.24,9253.3Zm24.17-7.64a7.75,7.75,0,0,0-4.88,1.53,7.51,7.51,0,0,0-2.54,6.11c0,5.21,3.18,11.03,7.42,11.03,4.31,0,7.77-6.03,7.77-11.03a7.19,7.19,0,0,0-2.86-6.2A8.356,8.356,0,0,0,1054.41,9245.66Zm5.95,7.64c0,4.49-3.06,9.24-5.95,9.24-3.1,0-5.59-5.05-5.59-9.24a5.706,5.706,0,0,1,1.87-4.72,5.892,5.892,0,0,1,3.72-1.14,6.494,6.494,0,0,1,3.83,1.1A5.561,5.561,0,0,1,1060.36,9253.3Z" transform="translate(-766 -9162)"/>
</svg>
