<svg xmlns="http://www.w3.org/2000/svg" xmlns:xlink="http://www.w3.org/1999/xlink" width="1026" height="555" viewBox="0 0 342 185">
  <metadata><?xpacket begin="﻿" id="W5M0MpCehiHzreSzNTczkc9d"?>
<x:xmpmeta xmlns:x="adobe:ns:meta/" x:xmptk="Adobe XMP Core 5.6-c140 79.160451, 2017/05/06-01:08:21        ">
   <rdf:RDF xmlns:rdf="http://www.w3.org/1999/02/22-rdf-syntax-ns#">
      <rdf:Description rdf:about=""/>
   </rdf:RDF>
</x:xmpmeta>
                                                                                                    
                                                                                                    
                                                                                                    
                                                                                                    
                                                                                                    
                                                                                                    
                                                                                                    
                                                                                                    
                                                                                                    
                                                                                                    
                                                                                                    
                                                                                                    
                                                                                                    
                                                                                                    
                                                                                                    
                                                                                                    
                                                                                                    
                                                                                                    
                                                                                                    
                                                                                                    
                           
<?xpacket end="w"?></metadata>
<defs>
    <style>
      .cls-1, .cls-2 {
        fill-rule: evenodd;
      }

      .cls-1 {
        fill: url(#linear-gradient);
      }

      .cls-2 {
        fill: #fff;
      }
    </style>
    <linearGradient id="linear-gradient" x1="766" y1="9254.5" x2="1108" y2="9254.5" gradientUnits="userSpaceOnUse">
      <stop offset="0" stop-color="#3b4aff"/>
      <stop offset="1" stop-color="#f00070"/>
    </linearGradient>
  </defs>
  <path class="cls-1" d="M776,9162h332l-10,185H766Z" transform="translate(-766 -9162)"/>
  <path id="_150" data-name="150" class="cls-2" d="M906.93,9252.59a1.134,1.134,0,0,0,1.275-1.29v-4.77a1.134,1.134,0,0,0-1.275-1.29h-9.3v-40.95a1.986,1.986,0,0,0-.262-1.13,1.521,1.521,0,0,0-1.238-.37h-4.425a11.189,11.189,0,0,0-1.912.15,6.4,6.4,0,0,0-1.763.6l-6.9,2.54a1.393,1.393,0,0,0-.9.79,3.683,3.683,0,0,0-.15,1.09v2.54a1.075,1.075,0,0,0,.3.94,2.218,2.218,0,0,0,1.058.18h7.864v33.62h-8.55a1.134,1.134,0,0,0-1.275,1.29v4.77a1.134,1.134,0,0,0,1.275,1.29H906.93Zm32.388-11.89a7.45,7.45,0,0,1-2.363,3.19,7.871,7.871,0,0,1-3.487,1.46,25.277,25.277,0,0,1-4.313.34,59.884,59.884,0,0,1-6.375-.34q-3.225-.33-6.075-0.71a1.9,1.9,0,0,0-1.462.19,1.724,1.724,0,0,0-.563,1.01l-0.525,2.92a2.638,2.638,0,0,0,.038,1.35,2.406,2.406,0,0,0,1.462,1.05,16.453,16.453,0,0,0,3.338.98q1.913,0.375,3.862.6c1.3,0.15,2.525.26,3.675,0.34s2.075,0.11,2.775.11a35.269,35.269,0,0,0,8.063-.86,15.278,15.278,0,0,0,6.225-2.97,13.265,13.265,0,0,0,3.975-5.7,25.441,25.441,0,0,0,1.387-9.07q0-5.55-2.962-8.51a13.645,13.645,0,0,0-7.763-3.72l-14.25-2.1,1.575-10.2H945.13a1.158,1.158,0,0,0,1.35-1.27v-4.73a1.1,1.1,0,0,0-1.275-1.2H920.53a2.524,2.524,0,0,0-1.537.38,2.12,2.12,0,0,0-.638,1.42l-3,18.9a3.554,3.554,0,0,0,.263,2.1,2.573,2.573,0,0,0,1.912,1.05l16.5,2.78a10.151,10.151,0,0,1,4.538,1.8,4.747,4.747,0,0,1,1.612,3.97A14.324,14.324,0,0,1,939.318,9240.7Zm40.562,11.29a15.764,15.764,0,0,0,5.288-3.41,16.411,16.411,0,0,0,3.375-4.88,28.255,28.255,0,0,0,1.875-5.66,36.2,36.2,0,0,0,.787-5.81c0.1-1.93.15-3.66,0.15-5.22a67.445,67.445,0,0,0-.562-8.58,22.641,22.641,0,0,0-2.513-7.99,15.77,15.77,0,0,0-5.737-5.93q-3.788-2.31-10.313-2.32a18.624,18.624,0,0,0-7.5,1.35,15.86,15.86,0,0,0-5.137,3.49,16.468,16.468,0,0,0-3.263,4.87,29.246,29.246,0,0,0-1.8,5.48,34.044,34.044,0,0,0-.75,5.28c-0.1,1.71-.15,3.15-0.15,4.35,0,1.76.05,3.63,0.15,5.63a41.746,41.746,0,0,0,.713,5.89,25.344,25.344,0,0,0,1.762,5.55,15.782,15.782,0,0,0,3.263,4.72,14.442,14.442,0,0,0,5.175,3.26,20.992,20.992,0,0,0,7.537,1.2A20.412,20.412,0,0,0,979.88,9251.99Zm-2.1-41.21a8.116,8.116,0,0,1,3.225,3.61,17.4,17.4,0,0,1,1.463,5.75c0.225,2.25.337,4.81,0.337,7.66a59.266,59.266,0,0,1-.412,7.29,18.215,18.215,0,0,1-1.575,5.71,9.088,9.088,0,0,1-3.225,3.76,9.638,9.638,0,0,1-5.363,1.35,9.076,9.076,0,0,1-5.25-1.35,8.6,8.6,0,0,1-3-3.79,19.637,19.637,0,0,1-1.387-5.75,76,76,0,0,1,0-14.32,19.25,19.25,0,0,1,1.425-5.82,9.334,9.334,0,0,1,3.037-3.91,8.577,8.577,0,0,1,5.175-1.43A10.814,10.814,0,0,1,977.78,9210.78Z" transform="translate(-766 -9162)"/>
  <path id="Уже_более" data-name="Уже более" class="cls-2" d="M813.382,9226.82a2.345,2.345,0,0,1-.252.4,1.023,1.023,0,0,1-.384.25,2.194,2.194,0,0,1-.648.11c-0.264,0-.6-0.01-1.02-0.04a1.742,1.742,0,0,0-.636.04,0.48,0.48,0,0,0-.2.42l-0.168,1.36a1.012,1.012,0,0,0,.072.64,0.993,0.993,0,0,0,.576.3,2.953,2.953,0,0,0,.456.08,5.6,5.6,0,0,0,.588.06c0.2,0.02.392,0.03,0.576,0.04s0.339,0.01.468,0.01a4.275,4.275,0,0,0,1.74-.32,3.96,3.96,0,0,0,1.248-.91,6.463,6.463,0,0,0,.96-1.41c0.279-.54.564-1.15,0.852-1.82l4.632-11.45a0.375,0.375,0,0,0,.048-0.36,0.352,0.352,0,0,0-.36-0.17h-2.688a0.761,0.761,0,0,0-.576.19,3.559,3.559,0,0,0-.36.53l-1.3,3.48-1.536,4.13h-0.1l-1.488-4.01-1.44-3.74a1.429,1.429,0,0,0-.36-0.46,1.031,1.031,0,0,0-.576-0.12h-2.856a0.319,0.319,0,0,0-.336.18,0.5,0.5,0,0,0,.048.42l5.256,11.67Zm24.3-2.93a2.239,2.239,0,0,0,1.152-.81,7.2,7.2,0,0,0,.936-1.95l0.816-2.37a0.528,0.528,0,0,0-.012-0.4,0.392,0.392,0,0,0-.4-0.18h-2.328a1.22,1.22,0,0,0-.7.13,1.187,1.187,0,0,0-.312.49l-0.888,2.24a4.058,4.058,0,0,1-.372.74,1.142,1.142,0,0,1-.4.38,1.251,1.251,0,0,1-.456.15c-0.16.01-.328,0.02-0.5,0.02h-0.48v-3.67a0.9,0.9,0,0,0-.072-0.34,0.4,0.4,0,0,0-.408-0.16h-2.688a0.488,0.488,0,0,0-.42.14,0.6,0.6,0,0,0-.108.36v3.67h-0.456c-0.176,0-.344-0.01-0.5-0.02a1.21,1.21,0,0,1-.864-0.53,2.964,2.964,0,0,1-.36-0.74L827,9218.8a1.187,1.187,0,0,0-.312-0.49,1.22,1.22,0,0,0-.7-0.13h-2.328a0.42,0.42,0,0,0-.408.18,0.439,0.439,0,0,0,0,.4l0.816,2.37a7.063,7.063,0,0,0,.9,1.95,2.176,2.176,0,0,0,1.164.81v0.07a2.694,2.694,0,0,0-1.332.82,5.733,5.733,0,0,0-.924,1.82l-0.912,2.84a0.484,0.484,0,0,0,.012.38,0.38,0.38,0,0,0,.4.19h2.5a1.22,1.22,0,0,0,.7-0.13,1.187,1.187,0,0,0,.312-0.49l0.816-2.47a2.147,2.147,0,0,1,.84-1.24,2.175,2.175,0,0,1,1.032-.28h0.48v4.11a0.6,0.6,0,0,0,.108.36,0.52,0.52,0,0,0,.42.14h2.688a0.387,0.387,0,0,0,.408-0.17,0.819,0.819,0,0,0,.072-0.33v-4.11h0.48a2.149,2.149,0,0,1,1.044.28,2.177,2.177,0,0,1,.828,1.24l0.792,2.47a1.117,1.117,0,0,0,.324.49,1.226,1.226,0,0,0,.684.13h2.5a0.4,0.4,0,0,0,.42-0.19,0.423,0.423,0,0,0-.012-0.38l-0.912-2.84a5.445,5.445,0,0,0-.9-1.82,2.692,2.692,0,0,0-1.308-.82v-0.07Zm14.466,1.06a1.177,1.177,0,0,0,1.044-.4,1.966,1.966,0,0,0,.276-1.14,8.88,8.88,0,0,0-.216-1.93,4.516,4.516,0,0,0-.8-1.76,4.217,4.217,0,0,0-1.644-1.29,6.623,6.623,0,0,0-2.784-.49,5.872,5.872,0,0,0-2.988.65,4.461,4.461,0,0,0-1.644,1.61,5.52,5.52,0,0,0-.7,2.04,14.744,14.744,0,0,0-.144,1.94,11.786,11.786,0,0,0,.216,2.29,4.7,4.7,0,0,0,.828,1.92,4.242,4.242,0,0,0,1.728,1.33,7.074,7.074,0,0,0,2.916.51c0.288,0,.608-0.01.96-0.04s0.7-.06,1.044-0.11a8.291,8.291,0,0,0,1.008-.18,8.112,8.112,0,0,0,.852-0.22,1.026,1.026,0,0,0,.624-0.45,1.369,1.369,0,0,0,0-.63l-0.192-1.13a0.827,0.827,0,0,0-.216-0.52,1.494,1.494,0,0,0-.6-0.01c-0.5.06-1,.12-1.512,0.17s-0.952.07-1.32,0.07a6.762,6.762,0,0,1-1.068-.08,1.68,1.68,0,0,1-1.308-1.02,3.108,3.108,0,0,1-.216-1.13h5.856Zm-2.832-3.61a2.711,2.711,0,0,1,.36,1.45h-3.336a2.736,2.736,0,0,1,.444-1.53,1.467,1.467,0,0,1,1.236-.51A1.38,1.38,0,0,1,849.311,9221.34Zm-35.461,21.39a3.405,3.405,0,0,0-1.26.67h-0.024a4.122,4.122,0,0,1,.324-1.32,2.825,2.825,0,0,1,.7-0.94,4.13,4.13,0,0,1,1.116-.7,13.842,13.842,0,0,1,1.608-.59l2.232-.62a0.339,0.339,0,0,0,.312-0.34,2.551,2.551,0,0,0-.1-0.48l-0.6-1.7a0.436,0.436,0,0,0-.252-0.31,0.662,0.662,0,0,0-.4,0q-1.512.42-2.748,0.78a10.453,10.453,0,0,0-2.244.9,6.2,6.2,0,0,0-2.04,1.71,7.313,7.313,0,0,0-1.152,2.25,10.464,10.464,0,0,0-.312,1.3,13.253,13.253,0,0,0-.168,1.38c-0.033.47-.052,0.92-0.06,1.37s-0.012.87-.012,1.27a21.441,21.441,0,0,0,.144,2.5,5.527,5.527,0,0,0,.72,2.2,4.27,4.27,0,0,0,1.7,1.57,6.652,6.652,0,0,0,3.1.6,6.891,6.891,0,0,0,2.916-.53,4.336,4.336,0,0,0,1.728-1.38,4.926,4.926,0,0,0,.828-1.9,10.162,10.162,0,0,0-.024-4.28,5.293,5.293,0,0,0-.8-1.86,3.9,3.9,0,0,0-1.5-1.27,5.266,5.266,0,0,0-2.352-.47A5,5,0,0,0,813.85,9242.73Zm2.376,6.64a2.441,2.441,0,0,1-.264.86,1.539,1.539,0,0,1-.576.59,1.969,1.969,0,0,1-.972.22,1.756,1.756,0,0,1-.888-0.2,1.391,1.391,0,0,1-.528-0.54,2.256,2.256,0,0,1-.252-0.82,8,8,0,0,1-.06-1.02,8.518,8.518,0,0,1,.06-1.03,2.487,2.487,0,0,1,.264-0.88,1.75,1.75,0,0,1,.564-0.63,1.706,1.706,0,0,1,.96-0.24,1.816,1.816,0,0,1,.912.2,1.289,1.289,0,0,1,.516.55,2.8,2.8,0,0,1,.252.84,7.382,7.382,0,0,1,.072,1.07A8.478,8.478,0,0,1,816.226,9249.37Zm16.612-3.55a4.889,4.889,0,0,0-.792-1.94,4.348,4.348,0,0,0-1.728-1.4,6.948,6.948,0,0,0-2.976-.54,5.989,5.989,0,0,0-2.94.62,4.569,4.569,0,0,0-1.656,1.55,5.4,5.4,0,0,0-.732,1.96,11.609,11.609,0,0,0-.168,1.85,17.5,17.5,0,0,0,.132,2.08,5.108,5.108,0,0,0,.684,2.04,4.245,4.245,0,0,0,1.644,1.55,6.237,6.237,0,0,0,3.036.61,6.6,6.6,0,0,0,3.108-.61,4.369,4.369,0,0,0,1.716-1.55,5.066,5.066,0,0,0,.72-2.04,16.058,16.058,0,0,0,.144-2.08A11.819,11.819,0,0,0,832.838,9245.82Zm-3.924,4.52a1.575,1.575,0,0,1-1.572.74,1.451,1.451,0,0,1-1.44-.72,5.428,5.428,0,0,1-.36-2.3,5.235,5.235,0,0,1,.372-2.23,1.481,1.481,0,0,1,1.476-.77,1.536,1.536,0,0,1,1.548.74,5.622,5.622,0,0,1,.348,2.26A5.352,5.352,0,0,1,828.914,9250.34Zm10.386-8.18a2.575,2.575,0,0,0-1.512.33,1.9,1.9,0,0,0-.528,1.35l-0.576,5.16a4.661,4.661,0,0,1-.228,1.11,2.3,2.3,0,0,1-.384.69,1.51,1.51,0,0,1-.564.4,6.407,6.407,0,0,1-.792.29,0.924,0.924,0,0,0-.444.25,0.759,0.759,0,0,0-.084.4l0.144,1.63a1.139,1.139,0,0,0,.1.42,0.513,0.513,0,0,0,.456.13,7.059,7.059,0,0,0,2.58-.39,3.619,3.619,0,0,0,1.5-1.08,4.056,4.056,0,0,0,.732-1.59,18.561,18.561,0,0,0,.324-1.88l0.456-4.22h2.28v8.35a0.563,0.563,0,0,0,.108.38,0.6,0.6,0,0,0,.444.12h2.664a0.486,0.486,0,0,0,.432-0.15,0.668,0.668,0,0,0,.1-0.35v-10.83a0.759,0.759,0,0,0-.1-0.36,0.494,0.494,0,0,0-.456-0.16H839.3Zm19.551,6.79a1.177,1.177,0,0,0,1.044-.4,1.966,1.966,0,0,0,.276-1.14,8.88,8.88,0,0,0-.216-1.93,4.516,4.516,0,0,0-.8-1.76,4.217,4.217,0,0,0-1.644-1.29,6.623,6.623,0,0,0-2.784-.49,5.872,5.872,0,0,0-2.988.65,4.461,4.461,0,0,0-1.644,1.61,5.52,5.52,0,0,0-.7,2.04,14.744,14.744,0,0,0-.144,1.94,11.786,11.786,0,0,0,.216,2.29,4.7,4.7,0,0,0,.828,1.92,4.242,4.242,0,0,0,1.728,1.33,7.074,7.074,0,0,0,2.916.51c0.288,0,.608-0.01.96-0.04s0.7-.06,1.044-0.11a8.291,8.291,0,0,0,1.008-.18,8.112,8.112,0,0,0,.852-0.22,1.026,1.026,0,0,0,.624-0.45,1.369,1.369,0,0,0,0-.63l-0.192-1.13a0.827,0.827,0,0,0-.216-0.52,1.494,1.494,0,0,0-.6-0.01c-0.5.06-1,.12-1.512,0.17s-0.952.07-1.32,0.07a6.762,6.762,0,0,1-1.068-.08,1.68,1.68,0,0,1-1.308-1.02,3.108,3.108,0,0,1-.216-1.13h5.856Zm-2.832-3.61a2.711,2.711,0,0,1,.36,1.45h-3.336a2.736,2.736,0,0,1,.444-1.53,1.467,1.467,0,0,1,1.236-.51A1.38,1.38,0,0,1,856.019,9245.34Zm15.928,3.61a1.177,1.177,0,0,0,1.044-.4,1.966,1.966,0,0,0,.276-1.14,8.88,8.88,0,0,0-.216-1.93,4.516,4.516,0,0,0-.8-1.76,4.217,4.217,0,0,0-1.644-1.29,6.623,6.623,0,0,0-2.784-.49,5.872,5.872,0,0,0-2.988.65,4.461,4.461,0,0,0-1.644,1.61,5.52,5.52,0,0,0-.7,2.04,14.744,14.744,0,0,0-.144,1.94,11.786,11.786,0,0,0,.216,2.29,4.7,4.7,0,0,0,.828,1.92,4.242,4.242,0,0,0,1.728,1.33,7.074,7.074,0,0,0,2.916.51c0.288,0,.608-0.01.96-0.04s0.7-.06,1.044-0.11a8.291,8.291,0,0,0,1.008-.18,8.112,8.112,0,0,0,.852-0.22,1.026,1.026,0,0,0,.624-0.45,1.369,1.369,0,0,0,0-.63l-0.192-1.13a0.827,0.827,0,0,0-.216-0.52,1.494,1.494,0,0,0-.6-0.01c-0.5.06-1,.12-1.512,0.17s-0.952.07-1.32,0.07a6.762,6.762,0,0,1-1.068-.08,1.68,1.68,0,0,1-1.308-1.02,3.108,3.108,0,0,1-.216-1.13h5.856Zm-2.832-3.61a2.711,2.711,0,0,1,.36,1.45h-3.336a2.736,2.736,0,0,1,.444-1.53,1.467,1.467,0,0,1,1.236-.51A1.38,1.38,0,0,1,869.115,9245.34Z" transform="translate(-766 -9162)"/>
  <path id="присоединились_к_MetaHash" data-name="присоединились к #MetaHash" class="cls-2" d="M818.471,9295.67a0.421,0.421,0,0,0-.076-0.29,0.414,0.414,0,0,0-.286-0.07h-7.427a0.319,0.319,0,0,0-.362.36v8.59a0.319,0.319,0,0,0,.361.36h1.349a0.333,0.333,0,0,0,.285-0.11,0.412,0.412,0,0,0,.076-0.25v-7.22h3.99l-0.019,7.22a0.32,0.32,0,0,0,.364.36h1.361a0.329,0.329,0,0,0,.384-0.36v-8.59Zm10.2,2.28a4.45,4.45,0,0,0-.494-1.49,2.529,2.529,0,0,0-.96-0.96,3.092,3.092,0,0,0-1.539-.34,3,3,0,0,0-.836.11,7.634,7.634,0,0,0-.817.28c-0.266.12-.516,0.24-0.75,0.37s-0.435.26-.6,0.38l-0.057-.04v-0.57a0.513,0.513,0,0,0-.066-0.28,0.3,0.3,0,0,0-.276-0.1h-1.349a0.325,0.325,0,0,0-.361.38v12.04a0.518,0.518,0,0,0,.067.29,0.357,0.357,0,0,0,.294.09h1.349a0.308,0.308,0,0,0,.295-0.11,0.551,0.551,0,0,0,.066-0.27v-3.34l0.019-.02a7.31,7.31,0,0,0,1.283.32,6.537,6.537,0,0,0,1.092.1,4.707,4.707,0,0,0,1.853-.32,2.773,2.773,0,0,0,1.159-.95,4.084,4.084,0,0,0,.6-1.54,11.333,11.333,0,0,0,.171-2.07A12.175,12.175,0,0,0,828.671,9297.95Zm-2.1,3.43a2.685,2.685,0,0,1-.313.96,1.153,1.153,0,0,1-.57.5,2.219,2.219,0,0,1-.865.14,8.889,8.889,0,0,1-1.016-.06,7.884,7.884,0,0,1-1.169-.26v-4.75c0.139-.08.314-0.16,0.523-0.27a6.068,6.068,0,0,1,.665-0.27c0.234-.08.471-0.16,0.712-0.22a2.7,2.7,0,0,1,.646-0.09,1.851,1.851,0,0,1,.656.1,0.975,0.975,0,0,1,.465.41,2.308,2.308,0,0,1,.276.85,10.079,10.079,0,0,1,.085,1.47A9.84,9.84,0,0,1,826.571,9301.38Zm4.234,2.84a0.429,0.429,0,0,0,.085.3,0.388,0.388,0,0,0,.314.1h0.817a0.681,0.681,0,0,0,.408-0.1,0.984,0.984,0,0,0,.257-0.24q0.436-.57.855-1.14c0.278-.37.557-0.75,0.836-1.13,0.443-.6.886-1.21,1.33-1.8s0.886-1.2,1.33-1.81h0.019v5.82a0.373,0.373,0,0,0,.437.4h1.2a0.374,0.374,0,0,0,.437-0.4v-8.51a0.433,0.433,0,0,0-.095-0.28,0.39,0.39,0,0,0-.323-0.12h-0.988a0.711,0.711,0,0,0-.409.09,1.541,1.541,0,0,0-.237.25l-1.691,2.24-2.489,3.38h-0.038v-5.54a0.569,0.569,0,0,0-.076-0.31,0.413,0.413,0,0,0-.342-0.11H831.2a0.388,0.388,0,0,0-.314.1,0.507,0.507,0,0,0-.085.32v8.49Zm17.142-1.16a0.332,0.332,0,0,0-.152-0.29,0.956,0.956,0,0,0-.342,0c-0.393.05-.827,0.1-1.3,0.13s-0.858.05-1.149,0.05a2.688,2.688,0,0,1-.96-0.15,1.264,1.264,0,0,1-.636-0.5,2.375,2.375,0,0,1-.352-0.95,8.556,8.556,0,0,1-.1-1.47,4.106,4.106,0,0,1,.456-2.24,1.825,1.825,0,0,1,1.615-.66q0.494,0,1.111.06c0.412,0.03.814,0.07,1.207,0.11a1.177,1.177,0,0,0,.4-0.02,0.307,0.307,0,0,0,.19-0.25l0.133-.76a0.459,0.459,0,0,0-.285-0.54,3.258,3.258,0,0,0-.675-0.22q-0.37-.09-0.76-0.15a6.83,6.83,0,0,0-.779-0.07c-0.26-.02-0.5-0.02-0.712-0.02a4.6,4.6,0,0,0-2.119.42,3.045,3.045,0,0,0-1.235,1.09,4.064,4.064,0,0,0-.57,1.54,10.566,10.566,0,0,0-.142,1.74,12.43,12.43,0,0,0,.133,1.85,3.929,3.929,0,0,0,.56,1.55,3.056,3.056,0,0,0,1.235,1.06,4.8,4.8,0,0,0,2.138.4,12.04,12.04,0,0,0,1.52-.11,5.118,5.118,0,0,0,1.368-.33,0.589,0.589,0,0,0,.323-0.24,0.546,0.546,0,0,0,0-.35Zm10-4.92a3.959,3.959,0,0,0-.578-1.51,3.085,3.085,0,0,0-1.261-1.09,4.894,4.894,0,0,0-2.208-.42,4.223,4.223,0,0,0-2.17.48,3.363,3.363,0,0,0-1.223,1.2,4.189,4.189,0,0,0-.54,1.53,9.863,9.863,0,0,0-.123,1.48,15.743,15.743,0,0,0,.094,1.69,4.232,4.232,0,0,0,.5,1.61,3.168,3.168,0,0,0,1.222,1.19,4.528,4.528,0,0,0,2.237.47,4.781,4.781,0,0,0,2.313-.47,3.212,3.212,0,0,0,1.251-1.19,4.255,4.255,0,0,0,.521-1.61,14.19,14.19,0,0,0,.105-1.69A9.911,9.911,0,0,0,857.946,9298.14Zm-2.042,3.13a2.35,2.35,0,0,1-.3.94,1.368,1.368,0,0,1-.637.55,2.463,2.463,0,0,1-1.054.19,2.307,2.307,0,0,1-.988-0.19,1.379,1.379,0,0,1-.589-0.57,2.618,2.618,0,0,1-.295-0.93,10.137,10.137,0,0,1,0-2.62,2.687,2.687,0,0,1,.3-0.94,1.437,1.437,0,0,1,.6-0.57,2.166,2.166,0,0,1,.988-0.19,2.4,2.4,0,0,1,1.045.19,1.455,1.455,0,0,1,.627.56,2.41,2.41,0,0,1,.3.93A11.588,11.588,0,0,1,855.9,9301.27Zm11.179-.74a0.818,0.818,0,0,0,.76-0.32,1.521,1.521,0,0,0,.171-0.84,8.613,8.613,0,0,0-.18-1.53,3.436,3.436,0,0,0-.6-1.36,3.159,3.159,0,0,0-1.225-.98,4.68,4.68,0,0,0-2.062-.38,4.178,4.178,0,0,0-2.194.5,3.4,3.4,0,0,0-1.216,1.25,4.442,4.442,0,0,0-.523,1.59,11.722,11.722,0,0,0-.114,1.54,11.121,11.121,0,0,0,.143,1.8,3.992,3.992,0,0,0,.579,1.53,3.123,3.123,0,0,0,1.254,1.06,4.967,4.967,0,0,0,2.185.4,7.051,7.051,0,0,0,.76-0.04l0.836-.09q0.418-.06.8-0.15a3.406,3.406,0,0,0,.665-0.2,0.535,0.535,0,0,0,.314-0.24,0.7,0.7,0,0,0,.009-0.35l-0.114-.62a0.418,0.418,0,0,0-.142-0.32,0.839,0.839,0,0,0-.371-0.01c-0.367.04-.785,0.09-1.254,0.14a11.523,11.523,0,0,1-1.216.07,3.722,3.722,0,0,1-1.007-.11,1.679,1.679,0,0,1-.7-0.39,1.657,1.657,0,0,1-.427-0.75,4.74,4.74,0,0,1-.162-1.2h5.035Zm-2.175-3.5a1.462,1.462,0,0,1,.57.51,2.146,2.146,0,0,1,.275.73,4.518,4.518,0,0,1,.076.84h-3.762a6.61,6.61,0,0,1,.133-0.95,1.8,1.8,0,0,1,.314-0.72,1.326,1.326,0,0,1,.56-0.44A2.636,2.636,0,0,1,864.908,9297.03Zm12.008,5.86h-4.123a3.282,3.282,0,0,0,.333-0.66,6.97,6.97,0,0,0,.275-1.02c0.089-.43.181-0.98,0.276-1.64s0.2-1.49.332-2.5h2.907v5.82Zm2.071-7.07a0.558,0.558,0,0,0-.123-0.37,0.474,0.474,0,0,0-.39-0.14h-5.035a1.531,1.531,0,0,0-.845.19,0.911,0.911,0,0,0-.39.62l-0.589,3.79a12.3,12.3,0,0,1-.437,1.9,2.081,2.081,0,0,1-.836,1.1l-0.513.07a0.649,0.649,0,0,0-.266.14,0.36,0.36,0,0,0-.114.3q0,0.84.019,1.65c0.013,0.55.032,1.09,0.057,1.64a0.974,0.974,0,0,0,.076.36,0.274,0.274,0,0,0,.247.09h1.1a0.25,0.25,0,0,0,.209-0.08,1.021,1.021,0,0,0,.1-0.35l0.171-2.11h6.536l0.076,2.11a0.735,0.735,0,0,0,.086.35,0.367,0.367,0,0,0,.275.08h0.988a0.419,0.419,0,0,0,.266-0.08,0.617,0.617,0,0,0,.114-0.39q0.038-.735.086-1.47c0.031-.5.06-0.99,0.085-1.48a0.853,0.853,0,0,1,.01-0.14,1.305,1.305,0,0,0,.009-0.16,0.551,0.551,0,0,0-.076-0.28,0.422,0.422,0,0,0-.285-0.16l-0.608-.07v-7.11Zm2.407,8.4a0.429,0.429,0,0,0,.085.3,0.388,0.388,0,0,0,.314.1h0.817a0.681,0.681,0,0,0,.408-0.1,0.984,0.984,0,0,0,.257-0.24q0.437-.57.855-1.14c0.278-.37.557-0.75,0.836-1.13,0.443-.6.886-1.21,1.33-1.8s0.886-1.2,1.33-1.81h0.019v5.82a0.373,0.373,0,0,0,.437.4h1.2a0.374,0.374,0,0,0,.437-0.4v-8.51a0.433,0.433,0,0,0-.1-0.28,0.39,0.39,0,0,0-.323-0.12H888.31a0.711,0.711,0,0,0-.409.09,1.585,1.585,0,0,0-.237.25l-1.691,2.24-2.489,3.38h-0.038v-5.54a0.569,0.569,0,0,0-.076-0.31,0.413,0.413,0,0,0-.342-0.11h-1.235a0.388,0.388,0,0,0-.314.1,0.507,0.507,0,0,0-.085.32v8.49Zm18.4,0v-8.49a0.515,0.515,0,0,0-.086-0.31,0.415,0.415,0,0,0-.332-0.11h-1.216a0.379,0.379,0,0,0-.437.42v3.17h-4.047v-3.17a0.515,0.515,0,0,0-.086-0.31,0.387,0.387,0,0,0-.313-0.11H892.04a0.37,0.37,0,0,0-.418.42v8.49a0.364,0.364,0,0,0,.418.4h1.235a0.387,0.387,0,0,0,.313-0.11,0.453,0.453,0,0,0,.086-0.29v-3.67h4.047v3.67a0.373,0.373,0,0,0,.437.4h1.216a0.415,0.415,0,0,0,.332-0.11,0.453,0.453,0,0,0,.086-0.29h0Zm2.065,0a0.428,0.428,0,0,0,.086.3,0.386,0.386,0,0,0,.313.1h0.817a0.684,0.684,0,0,0,.409-0.1,0.98,0.98,0,0,0,.256-0.24q0.436-.57.855-1.14c0.279-.37.557-0.75,0.836-1.13,0.443-.6.887-1.21,1.33-1.8s0.887-1.2,1.33-1.81h0.019v5.82a0.374,0.374,0,0,0,.437.4h1.2a0.374,0.374,0,0,0,.437-0.4v-8.51a0.433,0.433,0,0,0-.1-0.28,0.388,0.388,0,0,0-.323-0.12h-0.988a0.707,0.707,0,0,0-.408.09,1.545,1.545,0,0,0-.238.25l-1.691,2.24-2.489,3.38h-0.038v-5.54a0.56,0.56,0,0,0-.076-0.31,0.413,0.413,0,0,0-.342-0.11h-1.235a0.386,0.386,0,0,0-.313.1,0.507,0.507,0,0,0-.086.32v8.49Zm13.255-8.91a1.53,1.53,0,0,0-.96.23,1.238,1.238,0,0,0-.37.87l-0.456,4.43a9.461,9.461,0,0,1-.181,1.13,1.782,1.782,0,0,1-.294.67,1.23,1.23,0,0,1-.475.38,3.218,3.218,0,0,1-.722.23,0.528,0.528,0,0,0-.266.13,0.435,0.435,0,0,0-.057.25l0.057,0.84a0.542,0.542,0,0,0,.076.26,0.47,0.47,0,0,0,.342.08,4.539,4.539,0,0,0,1.624-.25,2.352,2.352,0,0,0,.979-0.68,2.727,2.727,0,0,0,.513-1.03,9.259,9.259,0,0,0,.228-1.25l0.418-4.53H918.3v7.17a0.4,0.4,0,0,0,.085.29,0.428,0.428,0,0,0,.314.09h1.254a0.386,0.386,0,0,0,.323-0.1,0.445,0.445,0,0,0,.076-0.28v-8.51a0.379,0.379,0,0,0-.437-0.42h-4.807Zm7.34,8.91a0.429,0.429,0,0,0,.085.3,0.388,0.388,0,0,0,.314.1h0.817a0.681,0.681,0,0,0,.408-0.1,0.984,0.984,0,0,0,.257-0.24q0.437-.57.855-1.14c0.278-.37.557-0.75,0.836-1.13,0.443-.6.886-1.21,1.33-1.8s0.886-1.2,1.33-1.81H928.7v5.82a0.373,0.373,0,0,0,.437.4h1.2a0.374,0.374,0,0,0,.437-0.4v-8.51a0.433,0.433,0,0,0-.1-0.28,0.39,0.39,0,0,0-.323-0.12h-0.988a0.713,0.713,0,0,0-.409.09,1.585,1.585,0,0,0-.237.25l-1.691,2.24-2.489,3.38H924.5v-5.54a0.569,0.569,0,0,0-.076-0.31,0.413,0.413,0,0,0-.342-0.11h-1.235a0.388,0.388,0,0,0-.314.1,0.507,0.507,0,0,0-.085.32v8.49Zm17.142-1.16a0.332,0.332,0,0,0-.152-0.29,0.956,0.956,0,0,0-.342,0c-0.393.05-.827,0.1-1.3,0.13s-0.858.05-1.149,0.05a2.688,2.688,0,0,1-.96-0.15,1.268,1.268,0,0,1-.636-0.5,2.375,2.375,0,0,1-.352-0.95,8.658,8.658,0,0,1-.1-1.47,4.106,4.106,0,0,1,.456-2.24,1.825,1.825,0,0,1,1.615-.66c0.329,0,.7.02,1.111,0.06s0.814,0.07,1.207.11a1.177,1.177,0,0,0,.4-0.02,0.307,0.307,0,0,0,.19-0.25l0.133-.76a0.459,0.459,0,0,0-.285-0.54,3.258,3.258,0,0,0-.675-0.22q-0.371-.09-0.76-0.15a6.81,6.81,0,0,0-.779-0.07c-0.259-.02-0.5-0.02-0.712-0.02a4.6,4.6,0,0,0-2.119.42,3.045,3.045,0,0,0-1.235,1.09,4.064,4.064,0,0,0-.57,1.54,10.566,10.566,0,0,0-.142,1.74,12.43,12.43,0,0,0,.133,1.85,3.929,3.929,0,0,0,.56,1.55,3.056,3.056,0,0,0,1.235,1.06,4.8,4.8,0,0,0,2.138.4,12.04,12.04,0,0,0,1.52-.11,5.118,5.118,0,0,0,1.368-.33,0.589,0.589,0,0,0,.323-0.24,0.546,0.546,0,0,0,0-.35Zm6.448,1.56a5.052,5.052,0,0,0,1.378-.18,3.231,3.231,0,0,0,1.1-.55,2.815,2.815,0,0,0,.741-0.92,2.746,2.746,0,0,0,.275-1.26,3.842,3.842,0,0,0-.152-1.06,2.318,2.318,0,0,0-.522-0.95,2.722,2.722,0,0,0-1.026-.69,4.354,4.354,0,0,0-1.644-.26h-2.3v-3.1a0.348,0.348,0,0,0-.085-0.27,0.492,0.492,0,0,0-.314-0.07H942.28a0.745,0.745,0,0,0-.351.06,0.319,0.319,0,0,0-.105.28v8.57a0.587,0.587,0,0,0,.057.3,0.354,0.354,0,0,0,.323.1h3.838Zm1.074-2.04a1.862,1.862,0,0,1-1.131.31H943.9v-2.45h2.185a1.568,1.568,0,0,1,1.14.33,1.24,1.24,0,0,1,.323.89A1.051,1.051,0,0,1,947.116,9302.58Zm10.4-1.84H958.5a2.11,2.11,0,0,1,1.026.27,1.9,1.9,0,0,1,.8,1.14l0.741,2.18a0.35,0.35,0,0,0,.181.23,0.767,0.767,0,0,0,.332.06h1.273a0.291,0.291,0,0,0,.323-0.13,0.47,0.47,0,0,0-.019-0.29l-0.836-2.54a4.443,4.443,0,0,0-.589-1.19,2.026,2.026,0,0,0-.988-0.65v-0.02a1.52,1.52,0,0,0,.855-0.67,6.173,6.173,0,0,0,.646-1.4l0.665-1.98a0.482,0.482,0,0,0,.01-0.31,0.306,0.306,0,0,0-.314-0.11h-1.159a0.964,0.964,0,0,0-.342.05,0.473,0.473,0,0,0-.19.23l-0.76,2.07a3.718,3.718,0,0,1-.351.7,1.493,1.493,0,0,1-.38.41,0.907,0.907,0,0,1-.437.18,2.724,2.724,0,0,1-.5.04h-0.969v-3.36a0.508,0.508,0,0,0-.057-0.25,0.3,0.3,0,0,0-.266-0.09h-1.425a0.292,0.292,0,0,0-.323.34v8.64a0.289,0.289,0,0,0,.323.33h1.425a0.3,0.3,0,0,0,.266-0.09,0.421,0.421,0,0,0,.057-0.24v-3.55Zm15.71,3.55c-0.063.22,0.025,0.33,0.266,0.33h0.969a0.221,0.221,0,0,0,.19-0.07,0.53,0.53,0,0,0,.1-0.22l0.988-4.03h2.128a0.321,0.321,0,0,0,.342-0.26l0.209-.8a0.214,0.214,0,0,0-.247-0.3h-2.109l0.475-1.87h2.128a0.365,0.365,0,0,0,.228-0.06,0.423,0.423,0,0,0,.114-0.2l0.209-.8c0.051-.19-0.038-0.28-0.266-0.28h-2.09l0.855-3.41a0.209,0.209,0,0,0-.247-0.28h-0.988a0.275,0.275,0,0,0-.228.07,0.479,0.479,0,0,0-.1.21l-0.836,3.41h-1.862l0.817-3.37c0.051-.21-0.025-0.32-0.228-0.32h-0.988a0.275,0.275,0,0,0-.228.07,0.479,0.479,0,0,0-.1.21l-0.817,3.41H969.9a0.4,0.4,0,0,0-.247.06,0.6,0.6,0,0,0-.133.22l-0.228.8a0.211,0.211,0,0,0,.029.22,0.407,0.407,0,0,0,.218.04h2.033l-0.456,1.87H969.1a0.351,0.351,0,0,0-.38.28l-0.209.84q-0.077.24,0.228,0.24h2.052l-0.988,3.99a0.242,0.242,0,0,0,.266.33h0.988a0.289,0.289,0,0,0,.266-0.29l0.988-4.03h1.881Zm-0.114-7.22h1.881l-0.456,1.87h-1.881Zm13.379,3.03-1.118-2.42-2.577-5.32a0.644,0.644,0,0,0-.212-0.28,0.767,0.767,0,0,0-.4-0.08h-1.189a0.3,0.3,0,0,0-.344.34v11.92a0.32,0.32,0,0,0,.364.36h1.4a0.307,0.307,0,0,0,.277-0.11,0.445,0.445,0,0,0,.068-0.25v-7.62H982.8l0.625,1.33,2.16,4.42a0.8,0.8,0,0,0,.209.24,0.579,0.579,0,0,0,.36.09h0.72a0.5,0.5,0,0,0,.332-0.1,0.841,0.841,0,0,0,.218-0.26l2.084-4.26,0.664-1.46h0.057v7.62a0.327,0.327,0,0,0,.38.36h1.387a0.305,0.305,0,0,0,.275-0.11,0.453,0.453,0,0,0,.067-0.25v-11.92a0.409,0.409,0,0,0-.067-0.23,0.283,0.283,0,0,0-.256-0.11h-1.1a0.634,0.634,0,0,0-.409.1,0.719,0.719,0,0,0-.218.28l-2.578,5.25-1.156,2.47H986.49Zm14.7,0.43a0.811,0.811,0,0,0,.76-0.32,1.519,1.519,0,0,0,.18-0.84,10.271,10.271,0,0,0-.18-1.53,3.5,3.5,0,0,0-.6-1.36,3.133,3.133,0,0,0-1.23-.98,4.667,4.667,0,0,0-2.06-.38,4.181,4.181,0,0,0-2.195.5,3.416,3.416,0,0,0-1.216,1.25,4.46,4.46,0,0,0-.522,1.59,11.722,11.722,0,0,0-.114,1.54,11.122,11.122,0,0,0,.142,1.8,3.977,3.977,0,0,0,.58,1.53,3.11,3.11,0,0,0,1.254,1.06,4.964,4.964,0,0,0,2.185.4,7.064,7.064,0,0,0,.76-0.04l0.836-.09c0.28-.04.54-0.09,0.8-0.15a3.437,3.437,0,0,0,.66-0.2,0.575,0.575,0,0,0,.32-0.24,0.8,0.8,0,0,0,.01-0.35l-0.12-.62a0.4,0.4,0,0,0-.14-0.32,0.832,0.832,0,0,0-.37-0.01c-0.37.04-.79,0.09-1.255,0.14a11.537,11.537,0,0,1-1.216.07,3.712,3.712,0,0,1-1.007-.11,1.547,1.547,0,0,1-1.131-1.14,4.7,4.7,0,0,1-.161-1.2h5.03Zm-2.171-3.5a1.462,1.462,0,0,1,.57.51,2.168,2.168,0,0,1,.276.73,4.6,4.6,0,0,1,.076.84h-3.762a6.34,6.34,0,0,1,.133-0.95,1.8,1.8,0,0,1,.313-0.72,1.335,1.335,0,0,1,.561-0.44A2.633,2.633,0,0,1,999.019,9297.03Zm10.691,5.92a0.408,0.408,0,0,0-.11-0.23,0.331,0.331,0,0,0-.23-0.04c-0.19.02-.42,0.04-0.68,0.06s-0.46.02-.6,0.02c-0.25,0-.46-0.01-0.62-0.02a0.779,0.779,0,0,1-.39-0.13,0.529,0.529,0,0,1-.2-0.31,2.271,2.271,0,0,1-.06-0.59v-4.73h2.03a0.369,0.369,0,0,0,.3-0.09,0.461,0.461,0,0,0,.07-0.27v-0.95a0.51,0.51,0,0,0-.07-0.27,0.369,0.369,0,0,0-.3-0.09h-2.03v-2.49c0-.22-0.13-0.29-0.38-0.23l-1.27.34a0.707,0.707,0,0,0-.26.13,0.339,0.339,0,0,0-.1.29v1.96h-0.97a0.372,0.372,0,0,0-.29.09,0.479,0.479,0,0,0-.07.29v0.93a0.4,0.4,0,0,0,.07.27,0.372,0.372,0,0,0,.29.09h0.95v4.77a10.842,10.842,0,0,0,.06,1.16,2.5,2.5,0,0,0,.28.97,1.612,1.612,0,0,0,.69.65,2.916,2.916,0,0,0,1.31.24c0.15,0,.33-0.01.54-0.02a5.3,5.3,0,0,0,.66-0.07c0.24-.03.46-0.07,0.69-0.12a2.819,2.819,0,0,0,.58-0.19,0.4,0.4,0,0,0,.24-0.47Zm7.23-.76c-0.18.1-.38,0.2-0.61,0.31s-0.47.2-.71,0.29a4.889,4.889,0,0,1-.72.21,3.287,3.287,0,0,1-.66.08,1.337,1.337,0,0,1-.92-0.24,1.121,1.121,0,0,1-.26-0.86,1.56,1.56,0,0,1,.42-1.27,1.8,1.8,0,0,1,1.14-.33h2.32v1.81Zm0.15,1.36a1.371,1.371,0,0,0,.56.92,2.094,2.094,0,0,0,1.07.24,3.366,3.366,0,0,0,.44-0.03l0.45-.06a0.436,0.436,0,0,0,.46-0.4v-0.8a0.256,0.256,0,0,0-.08-0.21,0.532,0.532,0,0,0-.28-0.07q-0.225-.03-0.36-0.06a0.37,0.37,0,0,1-.2-0.13,0.447,0.447,0,0,1-.1-0.24,2.829,2.829,0,0,1-.02-0.45v-3.67a7.9,7.9,0,0,0-.12-1.44,2.228,2.228,0,0,0-.49-1.09,2.557,2.557,0,0,0-1.11-.7,6.555,6.555,0,0,0-1.97-.24c-0.23,0-.49.01-0.77,0.03s-0.57.04-.86,0.07-0.58.07-.86,0.12a4.633,4.633,0,0,0-.72.19,0.874,0.874,0,0,0-.4.25,0.457,0.457,0,0,0-.04.31l0.17,0.7a0.277,0.277,0,0,0,.14.24,1.308,1.308,0,0,0,.39-0.01c0.19-.02.41-0.03,0.64-0.06s0.47-.04.7-0.06l0.69-.03c0.22-.02.41-0.02,0.56-0.02a5.284,5.284,0,0,1,.97.07,1.37,1.37,0,0,1,.61.27,1.009,1.009,0,0,1,.31.49,2.553,2.553,0,0,1,.08.72v0.5h-2.43a4.141,4.141,0,0,0-2.7.75,2.974,2.974,0,0,0-.87,2.42,4.633,4.633,0,0,0,.12,1.1,2.336,2.336,0,0,0,.42.85,1.969,1.969,0,0,0,.8.55,3.541,3.541,0,0,0,1.26.2,5.163,5.163,0,0,0,1.87-.34,6.266,6.266,0,0,0,1.63-.9Zm11.25-6.48h-4.79v-4.69a0.453,0.453,0,0,0-.07-0.27,0.289,0.289,0,0,0-.27-0.11h-1.43a0.339,0.339,0,0,0-.38.38v11.88a0.329,0.329,0,0,0,.38.36h1.43a0.289,0.289,0,0,0,.27-0.11,0.409,0.409,0,0,0,.07-0.25v-5.32h4.79v5.32a0.329,0.329,0,0,0,.38.36h1.42a0.308,0.308,0,0,0,.28-0.11,0.49,0.49,0,0,0,.07-0.25v-11.88a0.538,0.538,0,0,0-.07-0.27,0.308,0.308,0,0,0-.28-0.11h-1.42a0.339,0.339,0,0,0-.38.38v4.69Zm10.32,5.12c-0.18.1-.38,0.2-0.61,0.31s-0.46.2-.7,0.29a4.675,4.675,0,0,1-.73.21,3.287,3.287,0,0,1-.66.08,1.355,1.355,0,0,1-.92-0.24,1.162,1.162,0,0,1-.26-0.86,1.56,1.56,0,0,1,.42-1.27,1.8,1.8,0,0,1,1.14-.33h2.32v1.81Zm0.15,1.36a1.371,1.371,0,0,0,.56.92,2.094,2.094,0,0,0,1.07.24,3.366,3.366,0,0,0,.44-0.03l0.46-.06a0.433,0.433,0,0,0,.45-0.4v-0.8a0.254,0.254,0,0,0-.07-0.21,0.576,0.576,0,0,0-.29-0.07q-0.225-.03-0.36-0.06a0.412,0.412,0,0,1-.2-0.13,0.547,0.547,0,0,1-.09-0.24,2.641,2.641,0,0,1-.03-0.45v-3.67a7.9,7.9,0,0,0-.12-1.44,2.228,2.228,0,0,0-.49-1.09,2.443,2.443,0,0,0-1.11-.7,6.51,6.51,0,0,0-1.97-.24c-0.23,0-.48.01-0.77,0.03s-0.57.04-.86,0.07-0.58.07-.86,0.12a4.633,4.633,0,0,0-.72.19,0.939,0.939,0,0,0-.4.25,0.457,0.457,0,0,0-.04.31l0.17,0.7a0.281,0.281,0,0,0,.15.24,1.308,1.308,0,0,0,.39-0.01c0.19-.02.4-0.03,0.63-0.06s0.47-.04.71-0.06l0.68-.03c0.22-.02.41-0.02,0.56-0.02a5.213,5.213,0,0,1,.97.07,1.321,1.321,0,0,1,.61.27,1.009,1.009,0,0,1,.31.49,2.526,2.526,0,0,1,.09.72v0.5h-2.44a4.092,4.092,0,0,0-2.69.75,2.945,2.945,0,0,0-.88,2.42,4.15,4.15,0,0,0,.13,1.1,2.173,2.173,0,0,0,.41.85,2.039,2.039,0,0,0,.8.55,3.561,3.561,0,0,0,1.27.2,5.2,5.2,0,0,0,1.87-.34,6.369,6.369,0,0,0,1.62-.9Zm10.81-3.09a2.148,2.148,0,0,0-.76-0.82,3.582,3.582,0,0,0-1.09-.46,12.035,12.035,0,0,0-1.3-.24,4.729,4.729,0,0,1-1.24-.31,0.7,0.7,0,0,1-.37-0.72,1,1,0,0,1,.29-0.81,1.99,1.99,0,0,1,1.21-.25c0.35,0,.77.02,1.25,0.06s0.93,0.09,1.33.15a0.832,0.832,0,0,0,.37-0.01,0.327,0.327,0,0,0,.14-0.26l0.16-.68a0.5,0.5,0,0,0-.4-0.57,4.047,4.047,0,0,0-.69-0.19c-0.25-.06-0.51-0.1-0.77-0.14a6.675,6.675,0,0,0-.77-0.07c-0.25-.02-0.47-0.02-0.66-0.02a4.23,4.23,0,0,0-2.59.73,2.514,2.514,0,0,0-.98,2.14,2.451,2.451,0,0,0,.28,1.26,2.3,2.3,0,0,0,.77.78,3.97,3.97,0,0,0,1.11.45,12.622,12.622,0,0,0,1.33.24,6.019,6.019,0,0,1,.75.14,1.47,1.47,0,0,1,.47.22,0.786,0.786,0,0,1,.24.35,1.884,1.884,0,0,1,.06.53,0.889,0.889,0,0,1-.4.82,2.5,2.5,0,0,1-1.31.26c-0.16,0-.36-0.01-0.58-0.02s-0.45-.03-0.7-0.05l-0.74-.06c-0.25-.03-0.47-0.06-0.68-0.1a0.734,0.734,0,0,0-.34.01,0.369,0.369,0,0,0-.15.28l-0.13.62a0.539,0.539,0,0,0,.04.37,0.623,0.623,0,0,0,.36.26,5.55,5.55,0,0,0,1.38.31,12.69,12.69,0,0,0,1.56.11,6.668,6.668,0,0,0,1.43-.15,3.78,3.78,0,0,0,1.22-.5,2.587,2.587,0,0,0,.87-0.9,2.815,2.815,0,0,0,.32-1.4A2.774,2.774,0,0,0,1049.62,9300.46Zm10.22,3.8v-5.51a12.063,12.063,0,0,0-.08-1.38,2.955,2.955,0,0,0-.39-1.15,2.067,2.067,0,0,0-.86-0.79,3.391,3.391,0,0,0-1.56-.29,4,4,0,0,0-.9.1,6.411,6.411,0,0,0-.88.27c-0.27.1-.53,0.22-0.78,0.34s-0.44.23-.61,0.33v-4.6a0.329,0.329,0,0,0-.38-0.36h-1.35a0.308,0.308,0,0,0-.34.36v12.68a0.308,0.308,0,0,0,.34.36h1.35a0.318,0.318,0,0,0,.28-0.1,0.354,0.354,0,0,0,.08-0.26v-6.41c0.13-.05.3-0.12,0.51-0.22a6.391,6.391,0,0,1,.7-0.29c0.24-.09.49-0.17,0.74-0.24a2.4,2.4,0,0,1,.65-0.1,1.17,1.17,0,0,1,1.12.48,2.8,2.8,0,0,1,.25,1.29c0,0.92,0,1.84-.01,2.74s-0.01,1.82-.01,2.75a0.332,0.332,0,0,0,.39.36h1.36a0.329,0.329,0,0,0,.38-0.36h0Z" transform="translate(-766 -9162)"/>
  <path id="человек" class="cls-2" d="M809.73,9262.09v6.9a24.574,24.574,0,0,0,.2,3.15,6.918,6.918,0,0,0,.975,2.8,5.466,5.466,0,0,0,2.3,2,9.455,9.455,0,0,0,4.125.75,12.331,12.331,0,0,0,4.275-.78,25.389,25.389,0,0,0,3.575-1.57h0.05v9.3a1.355,1.355,0,0,0,.15.67,0.721,0.721,0,0,0,.7.28h3.8a0.735,0.735,0,0,0,.675-0.23,1.559,1.559,0,0,0,.125-0.72v-22.55a1.767,1.767,0,0,0-.125-0.75,0.691,0.691,0,0,0-.675-0.25h-3.8a0.739,0.739,0,0,0-.7.27,1.552,1.552,0,0,0-.15.73v8.9q-0.5.255-1.268,0.57-0.771.33-1.667,0.63a16.438,16.438,0,0,1-1.816.5,8.154,8.154,0,0,1-1.667.2,4.035,4.035,0,0,1-1.791-.35,2.569,2.569,0,0,1-1.069-.95,4.01,4.01,0,0,1-.522-1.45,11.011,11.011,0,0,1-.15-1.9v-6.15a1.749,1.749,0,0,0-.126-0.75,0.64,0.64,0,0,0-.631-0.25h-3.885a0.817,0.817,0,0,0-.731.27,1.356,1.356,0,0,0-.177.73h0Zm45.195,12.75a2.12,2.12,0,0,0,2-.85,4.011,4.011,0,0,0,.45-2.2,22.362,22.362,0,0,0-.475-4.03,9.235,9.235,0,0,0-1.575-3.6,8.435,8.435,0,0,0-3.225-2.57,12.514,12.514,0,0,0-5.425-1,10.887,10.887,0,0,0-5.775,1.32,9.029,9.029,0,0,0-3.2,3.28,11.864,11.864,0,0,0-1.375,4.2,30.937,30.937,0,0,0-.3,4.05,28.926,28.926,0,0,0,.375,4.72,10.3,10.3,0,0,0,1.525,4.03,8.049,8.049,0,0,0,3.3,2.8,13.224,13.224,0,0,0,5.75,1.05c0.6,0,1.267-.03,2-0.1s1.467-.15,2.2-0.25,1.433-.23,2.1-0.38a11.61,11.61,0,0,0,1.75-.52,1.4,1.4,0,0,0,.825-0.65,1.764,1.764,0,0,0,.025-0.9l-0.3-1.65a1.046,1.046,0,0,0-.375-0.83,1.972,1.972,0,0,0-.975-0.02c-0.967.1-2.067,0.22-3.3,0.35a31.266,31.266,0,0,1-3.2.2,10.181,10.181,0,0,1-2.65-.3,4.142,4.142,0,0,1-1.85-1.03,4.45,4.45,0,0,1-1.125-1.97,12.235,12.235,0,0,1-.425-3.15h13.25Zm-5.725-9.2a3.677,3.677,0,0,1,1.5,1.33,5.554,5.554,0,0,1,.725,1.91,12.008,12.008,0,0,1,.2,2.21h-9.9a16.92,16.92,0,0,1,.35-2.5,4.866,4.866,0,0,1,.825-1.89,3.612,3.612,0,0,1,1.475-1.16,5.639,5.639,0,0,1,2.3-.4A5.578,5.578,0,0,1,849.2,9265.64Zm20.68-4.55a4.167,4.167,0,0,0-2.525.6,3.3,3.3,0,0,0-.975,2.3l-1.2,11.65a23.789,23.789,0,0,1-.475,2.97,4.748,4.748,0,0,1-.775,1.78,3.328,3.328,0,0,1-1.25,1,9.566,9.566,0,0,1-1.9.6,1.361,1.361,0,0,0-.7.35,1.092,1.092,0,0,0-.15.65l0.15,2.2a1.456,1.456,0,0,0,.2.7,1.258,1.258,0,0,0,.9.2,11.774,11.774,0,0,0,4.275-.65,6.223,6.223,0,0,0,2.575-1.8,6.928,6.928,0,0,0,1.35-2.7,23.917,23.917,0,0,0,.6-3.3l1.1-11.9h7.2v18.85a1.057,1.057,0,0,0,.225.77,1.162,1.162,0,0,0,.825.23h3.3a1.063,1.063,0,0,0,.85-0.25,1.2,1.2,0,0,0,.2-0.75v-22.4a1,1,0,0,0-1.15-1.1H869.88Zm40.921,7.45a10.523,10.523,0,0,0-1.522-3.98,8.283,8.283,0,0,0-3.317-2.87,12.988,12.988,0,0,0-5.811-1.1,11.036,11.036,0,0,0-5.712,1.27,8.981,8.981,0,0,0-3.217,3.15,11.223,11.223,0,0,0-1.422,4.03,26.189,26.189,0,0,0-.325,3.9,41.112,41.112,0,0,0,.25,4.45,11,11,0,0,0,1.322,4.22,8.155,8.155,0,0,0,3.218,3.15,11.866,11.866,0,0,0,5.886,1.23,12.533,12.533,0,0,0,6.085-1.23,8.268,8.268,0,0,0,3.293-3.15,11.061,11.061,0,0,0,1.372-4.22,37.559,37.559,0,0,0,.274-4.45A26.245,26.245,0,0,0,910.8,9268.54Zm-5.376,8.25a6.246,6.246,0,0,1-.8,2.47,3.609,3.609,0,0,1-1.675,1.45,6.857,6.857,0,0,1-2.775.48,5.872,5.872,0,0,1-2.6-.5,3.573,3.573,0,0,1-1.55-1.48,7.131,7.131,0,0,1-.775-2.45,26.562,26.562,0,0,1,0-6.9,7.115,7.115,0,0,1,.8-2.47,3.65,3.65,0,0,1,1.575-1.5,5.872,5.872,0,0,1,2.6-.5,6.49,6.49,0,0,1,2.75.5,3.794,3.794,0,0,1,1.65,1.47,6.255,6.255,0,0,1,.8,2.45,26.488,26.488,0,0,1,.2,3.48A26.922,26.922,0,0,1,905.425,9276.79Zm23.345,8.8a10.621,10.621,0,0,0,3.25-.5,8.094,8.094,0,0,0,2.7-1.45,6.983,6.983,0,0,0,1.825-2.3,6.614,6.614,0,0,0,.675-3,7.934,7.934,0,0,0-.15-1.45,5.822,5.822,0,0,0-.55-1.58,6.684,6.684,0,0,0-1.1-1.5,5.238,5.238,0,0,0-1.8-1.17,4.873,4.873,0,0,0,2.35-2.45,7.155,7.155,0,0,0,.55-2.45,6.207,6.207,0,0,0-2-4.85q-2-1.8-6.35-1.8H917.52a1.393,1.393,0,0,0-.875.2,0.973,0.973,0,0,0-.225.75v22.5a1.1,1.1,0,0,0,.25.77,1.323,1.323,0,0,0,1,.28h11.1Zm2.725-6.58a2.479,2.479,0,0,1-.625.99,3.472,3.472,0,0,1-1.225.74,5.534,5.534,0,0,1-1.975.3h-5.85v-6.2h6.4a3.231,3.231,0,0,1,2.675.97,3.415,3.415,0,0,1,.775,2.2A3.335,3.335,0,0,1,931.5,9279.01Zm-1.375-8.9a3.164,3.164,0,0,1-2.3.83h-6v-5.4h5.65a5.369,5.369,0,0,1,1.675.22,2.883,2.883,0,0,1,1.075.6,2.265,2.265,0,0,1,.575.83,2.6,2.6,0,0,1,.175.95A2.639,2.639,0,0,1,930.12,9270.11Zm30.275,4.73a2.12,2.12,0,0,0,2-.85,4.011,4.011,0,0,0,.45-2.2,22.362,22.362,0,0,0-.475-4.03,9.235,9.235,0,0,0-1.575-3.6,8.435,8.435,0,0,0-3.225-2.57,12.514,12.514,0,0,0-5.425-1,10.887,10.887,0,0,0-5.775,1.32,9.029,9.029,0,0,0-3.2,3.28,11.864,11.864,0,0,0-1.375,4.2,30.937,30.937,0,0,0-.3,4.05,28.926,28.926,0,0,0,.375,4.72,10.3,10.3,0,0,0,1.525,4.03,8.049,8.049,0,0,0,3.3,2.8,13.224,13.224,0,0,0,5.75,1.05c0.6,0,1.267-.03,2-0.1s1.467-.15,2.2-0.25,1.433-.23,2.1-0.38a11.61,11.61,0,0,0,1.75-.52,1.4,1.4,0,0,0,.825-0.65,1.764,1.764,0,0,0,.025-0.9l-0.3-1.65a1.046,1.046,0,0,0-.375-0.83,1.972,1.972,0,0,0-.975-0.02c-0.967.1-2.067,0.22-3.3,0.35a31.266,31.266,0,0,1-3.2.2,10.181,10.181,0,0,1-2.65-.3,4.142,4.142,0,0,1-1.85-1.03,4.45,4.45,0,0,1-1.125-1.97,12.235,12.235,0,0,1-.425-3.15H960.4Zm-5.725-9.2a3.677,3.677,0,0,1,1.5,1.33,5.554,5.554,0,0,1,.725,1.91,12.008,12.008,0,0,1,.2,2.21h-9.9a16.92,16.92,0,0,1,.35-2.5,4.866,4.866,0,0,1,.825-1.89,3.612,3.612,0,0,1,1.475-1.16,5.639,5.639,0,0,1,2.3-.4A5.578,5.578,0,0,1,954.67,9265.64Zm18.17,9.75h2.6a5.587,5.587,0,0,1,2.7.7,5.145,5.145,0,0,1,2.1,3l1.95,5.75a0.939,0.939,0,0,0,.475.6,2.118,2.118,0,0,0,.875.15h3.35a0.8,0.8,0,0,0,.85-0.32,1.282,1.282,0,0,0-.05-0.78l-2.2-6.68a11.583,11.583,0,0,0-1.55-3.12,5.29,5.29,0,0,0-2.6-1.72v-0.05a4.116,4.116,0,0,0,2.25-1.76,16.206,16.206,0,0,0,1.7-3.71l1.75-5.21a1.209,1.209,0,0,0,.025-0.8,0.822,0.822,0,0,0-.825-0.3h-3.05a2.089,2.089,0,0,0-.9.15,1.154,1.154,0,0,0-.5.6l-2,5.43a9.609,9.609,0,0,1-.925,1.86,4.17,4.17,0,0,1-1,1.08,2.733,2.733,0,0,1-1.15.48,8.009,8.009,0,0,1-1.325.1h-2.55v-8.85a1.276,1.276,0,0,0-.15-0.65,0.759,0.759,0,0,0-.7-0.25h-3.75a0.774,0.774,0,0,0-.85.9v22.75a0.75,0.75,0,0,0,.85.85h3.75a0.812,0.812,0,0,0,.7-0.23,1.093,1.093,0,0,0,.15-0.62v-9.35Z" transform="translate(-766 -9162)"/>
  <path class="cls-2" d="M1002.91,9245.34h59.18a0.89,0.89,0,1,0,0-1.78h-3.19v-8.09a5.68,5.68,0,0,0-1.97-4.29,14.321,14.321,0,0,0-18.68-.01,5.665,5.665,0,0,0-1.97,4.29v4.89a0.91,0.91,0,0,0,1.82,0v-4.89a3.923,3.923,0,0,1,1.36-2.96,12.469,12.469,0,0,1,16.26.01,3.929,3.929,0,0,1,1.35,2.96v8.09h-28.29v-8.09a5.68,5.68,0,0,0-1.97-4.29,14.321,14.321,0,0,0-18.68-.01,5.665,5.665,0,0,0-1.97,4.29v4.89a0.915,0.915,0,0,0,1.83,0v-4.89a3.913,3.913,0,0,1,1.35-2.96,12.469,12.469,0,0,1,16.26.01,3.939,3.939,0,0,1,1.36,2.96v8.09h-24.05A0.89,0.89,0,1,0,1002.91,9245.34Zm14.39-19.68c4.3,0,7.77-6.03,7.77-11.02a7.2,7.2,0,0,0-2.86-6.2,8.406,8.406,0,0,0-4.91-1.45,7.764,7.764,0,0,0-4.89,1.54,7.477,7.477,0,0,0-2.53,6.11C1009.88,9219.84,1013.05,9225.66,1017.3,9225.66Zm-3.73-15.75a5.918,5.918,0,0,1,3.73-1.13,6.483,6.483,0,0,1,3.82,1.1,5.537,5.537,0,0,1,2.12,4.76c0,4.49-3.06,9.24-5.94,9.24-3.1,0-5.6-5.06-5.6-9.24A5.727,5.727,0,0,1,1013.57,9209.91Zm33.84,15.75c4.31,0,7.77-6.03,7.77-11.02a7.176,7.176,0,0,0-2.86-6.2,8.361,8.361,0,0,0-4.91-1.45,7.755,7.755,0,0,0-4.88,1.54,7.483,7.483,0,0,0-2.54,6.11C1039.99,9219.84,1043.17,9225.66,1047.41,9225.66Zm-3.72-15.75a5.889,5.889,0,0,1,3.72-1.13,6.494,6.494,0,0,1,3.83,1.1,5.549,5.549,0,0,1,2.12,4.76c0,4.49-3.06,9.24-5.95,9.24-3.1,0-5.59-5.06-5.59-9.24A5.74,5.74,0,0,1,1043.69,9209.91Zm18.4,74.31h-3.19v-8.09a5.7,5.7,0,0,0-1.97-4.29,14.321,14.321,0,0,0-18.68-.01,5.68,5.68,0,0,0-1.97,4.29v4.89a0.91,0.91,0,0,0,1.82,0v-4.89a3.9,3.9,0,0,1,1.36-2.95,12.469,12.469,0,0,1,16.26.01,3.892,3.892,0,0,1,1.35,2.95v8.09h-28.29v-8.09a5.7,5.7,0,0,0-1.97-4.29,14.321,14.321,0,0,0-18.68-.01,5.68,5.68,0,0,0-1.97,4.29v4.89a0.915,0.915,0,0,0,1.83,0v-4.89a3.892,3.892,0,0,1,1.35-2.95,12.469,12.469,0,0,1,16.26.01,3.9,3.9,0,0,1,1.36,2.95v8.09h-24.05a0.9,0.9,0,1,0,0,1.79h59.18A0.9,0.9,0,1,0,1062.09,9284.22Zm-44.79-36.56a7.759,7.759,0,0,0-4.89,1.53,7.5,7.5,0,0,0-2.53,6.11c0,5.21,3.17,11.03,7.42,11.03,4.3,0,7.77-6.03,7.77-11.03a7.215,7.215,0,0,0-2.86-6.2A8.4,8.4,0,0,0,1017.3,9247.66Zm5.94,7.64c0,4.49-3.06,9.24-5.94,9.24-3.1,0-5.6-5.05-5.6-9.24a5.706,5.706,0,0,1,1.87-4.72,5.922,5.922,0,0,1,3.73-1.14,6.483,6.483,0,0,1,3.82,1.1A5.561,5.561,0,0,1,1023.24,9255.3Zm24.17-7.64a7.75,7.75,0,0,0-4.88,1.53,7.51,7.51,0,0,0-2.54,6.11c0,5.21,3.18,11.03,7.42,11.03,4.31,0,7.77-6.03,7.77-11.03a7.19,7.19,0,0,0-2.86-6.2A8.356,8.356,0,0,0,1047.41,9247.66Zm5.95,7.64c0,4.49-3.06,9.24-5.95,9.24-3.1,0-5.59-5.05-5.59-9.24a5.706,5.706,0,0,1,1.87-4.72,5.892,5.892,0,0,1,3.72-1.14,6.494,6.494,0,0,1,3.83,1.1A5.561,5.561,0,0,1,1053.36,9255.3Z" transform="translate(-766 -9162)"/>
</svg>
