<svg id="Group_152_copy" data-name="Group 152 copy" xmlns="http://www.w3.org/2000/svg" xmlns:xlink="http://www.w3.org/1999/xlink" viewBox="0 0 1026 555"><defs><linearGradient id="linear-gradient" x1="1027.33" y1="-8833.26" x2="1369.33" y2="-8833.26" gradientTransform="matrix(3, 0, 0, -3, -3082, -26222.28)" gradientUnits="userSpaceOnUse"><stop offset="0" stop-color="#3b4aff"/><stop offset="1" stop-color="#f00070"/></linearGradient></defs><title>People_CN</title><path d="M30,0h996L996,555H0Z" transform="translate(0 0)" style="fill:url(#linear-gradient)"/><path id="_150" data-name=" 150" d="M419.9,237.72a2.31,2.31,0,0,0,2.6-2,2.36,2.36,0,0,0,0-.65v-9.73a2.32,2.32,0,0,0-1.95-2.63,2.36,2.36,0,0,0-.65,0h-19V139.2a4,4,0,0,0-.54-2.3,3.09,3.09,0,0,0-2.52-.76h-9a23.22,23.22,0,0,0-3.9.31,13,13,0,0,0-3.59,1.22l-14.08,5.18a2.86,2.86,0,0,0-1.83,1.62,7.58,7.58,0,0,0-.31,2.22v5.18a2.2,2.2,0,0,0,.61,1.92,4.57,4.57,0,0,0,2.16.36h16v68.58H366.5a2.31,2.31,0,0,0-2.6,2,2.36,2.36,0,0,0,0,.65v9.73a2.32,2.32,0,0,0,2,2.63,2.36,2.36,0,0,0,.65,0ZM486,213.47a15.25,15.25,0,0,1-4.82,6.51,16.07,16.07,0,0,1-7.11,3,50.87,50.87,0,0,1-8.8.7,120.19,120.19,0,0,1-13-.7q-6.59-.67-12.39-1.44a3.87,3.87,0,0,0-3,.39,3.52,3.52,0,0,0-1.14,2l-1.07,6a5.34,5.34,0,0,0,.07,2.75,4.88,4.88,0,0,0,3,2.14,33.23,33.23,0,0,0,6.81,2q3.9.76,7.88,1.23t7.5.69c2.34.16,4.23.23,5.66.23A71.56,71.56,0,0,0,482,237.19a31.08,31.08,0,0,0,12.7-6.06,27,27,0,0,0,8.11-11.62,52.21,52.21,0,0,0,2.83-18.5q0-11.32-6-17.36a27.92,27.92,0,0,0-15.84-7.59l-29.06-4.28L457.89,151h39.93a2.36,2.36,0,0,0,2.73-1.92,2.5,2.5,0,0,0,0-.67v-9.64a2.25,2.25,0,0,0-2-2.47,2,2,0,0,0-.6,0H447.64a5.12,5.12,0,0,0-3.14.77,4.35,4.35,0,0,0-1.3,2.9l-6.12,38.55a7.24,7.24,0,0,0,.54,4.28,5.24,5.24,0,0,0,3.9,2.14l33.65,5.67a20.79,20.79,0,0,1,9.26,3.68,9.68,9.68,0,0,1,3.29,8.09A29.15,29.15,0,0,1,486,213.47Zm82.74,23a32.18,32.18,0,0,0,10.78-7,33.61,33.61,0,0,0,6.89-9.95A57.73,57.73,0,0,0,590.19,208a75,75,0,0,0,1.61-11.85c.2-3.93.3-7.46.3-10.64a136.42,136.42,0,0,0-1.15-17.5,46.11,46.11,0,0,0-5.12-16.3,32.28,32.28,0,0,0-11.7-12.1q-7.73-4.71-21-4.73a38,38,0,0,0-15.3,2.75,32.42,32.42,0,0,0-10.47,7.12,33.55,33.55,0,0,0-6.66,9.94A59.38,59.38,0,0,0,517,165.9a70,70,0,0,0-1.53,10.77c-.2,3.49-.31,6.43-.31,8.88,0,3.59.1,7.4.31,11.48a85.05,85.05,0,0,0,1.45,12,51.63,51.63,0,0,0,3.6,11.32,32,32,0,0,0,6.65,9.63,29.66,29.66,0,0,0,10.56,6.65,42.77,42.77,0,0,0,15.37,2.45A41.75,41.75,0,0,0,568.7,236.5Zm-4.29-84.06a16.55,16.55,0,0,1,6.58,7.37,35.21,35.21,0,0,1,3,11.72c.46,4.59.69,9.81.69,15.63a119.24,119.24,0,0,1-.84,14.87,37.14,37.14,0,0,1-3.21,11.64,18.47,18.47,0,0,1-6.58,7.67,19.64,19.64,0,0,1-10.94,2.76,18.56,18.56,0,0,1-10.71-2.76,17.54,17.54,0,0,1-6.12-7.73,40.17,40.17,0,0,1-2.83-11.73,156.5,156.5,0,0,1,0-29.2,39.55,39.55,0,0,1,2.91-11.88,19,19,0,0,1,6.2-8,17.46,17.46,0,0,1,10.55-2.92A22.06,22.06,0,0,1,564.41,152.44Z" transform="translate(0 0)" style="fill:#fff"/><path d="M788,282.38h-.16a17.74,17.74,0,0,0-11,3.33,17,17,0,0,0-5.46,13.93v.18c0,15.51,9.1,28.8,16.54,28.8,7.75,0,17.74-14,17.74-28.8v-.15a16.43,16.43,0,0,0-6.21-14A19.57,19.57,0,0,0,788,282.38Z" transform="translate(0 0)" style="fill:none"/><path d="M704.56,163.11a16.3,16.3,0,0,0-6.2-14,19.39,19.39,0,0,0-11.44-3.27h-.17a17.67,17.67,0,0,0-11,3.3,17.07,17.07,0,0,0-5.46,14v.19c0,15.51,9.11,28.79,16.57,28.79,7.73,0,17.71-14,17.71-28.79Z" transform="translate(0 0)" style="fill:none"/><path d="M805.72,163.11a16.36,16.36,0,0,0-6.2-14A19.51,19.51,0,0,0,788,145.83h-.16a17.6,17.6,0,0,0-11,3.29,17.16,17.16,0,0,0-5.46,14v.19c0,15.51,9.1,28.79,16.54,28.79,7.75,0,17.74-14,17.74-28.79Z" transform="translate(0 0)" style="fill:none"/><path d="M686.92,282.38h-.16a17.77,17.77,0,0,0-11,3.33,17,17,0,0,0-5.46,13.93v.18c0,15.51,9.11,28.8,16.57,28.8,7.73,0,17.71-14,17.71-28.8v-.15a16.42,16.42,0,0,0-6.2-14A19.39,19.39,0,0,0,686.92,282.38Z" transform="translate(0 0)" style="fill:none"/><path d="M805.72,277.15A30.17,30.17,0,0,0,788,271.93a28.34,28.34,0,0,0-17.74,5.58l-.14.11a27.68,27.68,0,0,0-9.29,22.28c0,18.52,11.63,39.21,27.16,39.21,7.5,0,14.73-4.7,20.34-13.23a49.37,49.37,0,0,0,8-26,26.32,26.32,0,0,0-10.5-22.69Zm0,22.52v.15c0,14.83-10,28.8-17.74,28.8-7.44,0-16.54-13.29-16.54-28.8v-.18a17,17,0,0,1,5.46-13.93,17.74,17.74,0,0,1,11-3.33H788a19.57,19.57,0,0,1,11.47,3.27A16.43,16.43,0,0,1,805.72,299.67Z" transform="translate(0 0)" style="fill:#fff"/><path d="M841.68,396.64a5.26,5.26,0,0,0-3.53-1.92,5.46,5.46,0,0,0-1,0H828.8V369.77a21.38,21.38,0,0,0-7.4-16.09,50,50,0,0,0-65.66,0,21.32,21.32,0,0,0-7.39,16.11v16.43a5.29,5.29,0,0,0,5.34,5.26,5.32,5.32,0,0,0,5.25-5.27V369.75a10.85,10.85,0,0,1,3.79-8.21,39.39,39.39,0,0,1,51.68,0,10.82,10.82,0,0,1,3.76,8.21v24.93H727.64V369.77a21.37,21.37,0,0,0-7.39-16.09,50,50,0,0,0-65.66,0,21.33,21.33,0,0,0-7.4,16.11v16.42a5.32,5.32,0,0,0,10.63,0V369.74a10.84,10.84,0,0,1,3.75-8.2,39.4,39.4,0,0,1,51.69,0,10.85,10.85,0,0,1,3.79,8.21v24.93H638.62A5.29,5.29,0,0,0,633,399.4a5.27,5.27,0,0,0,4.67,5.79,5.12,5.12,0,0,0,.56,0l.42,0H837.17a5.27,5.27,0,0,0,4.51-8.56Z" transform="translate(0 0)" style="fill:#fff"/><path d="M704.59,277.15a30.27,30.27,0,0,0-17.73-5.22,28.44,28.44,0,0,0-17.77,5.58l-.15.11a27.61,27.61,0,0,0-9.25,22.28,50.63,50.63,0,0,0,7.45,26.2c5.27,8.39,12.27,13,19.71,13s14.71-4.7,20.33-13.23a49.35,49.35,0,0,0,8-26,26.36,26.36,0,0,0-10.5-22.67Zm0,22.52v.15c0,14.83-10,28.8-17.71,28.8-7.46,0-16.57-13.29-16.57-28.8v-.18a17,17,0,0,1,5.46-13.93,17.77,17.77,0,0,1,11-3.33h.16a19.39,19.39,0,0,1,11.44,3.27A16.42,16.42,0,0,1,704.56,299.67Z" transform="translate(0 0)" style="fill:#fff"/><path d="M667.14,189.52c5.27,8.38,12.27,13,19.71,13s14.7-4.7,20.33-13.23a49.21,49.21,0,0,0,8-25.95,26.34,26.34,0,0,0-10.5-22.68l-.09-.06a30.28,30.28,0,0,0-17.73-5.26A28.39,28.39,0,0,0,669.08,141l-.13.11a27.5,27.5,0,0,0-9.26,22.27A50.59,50.59,0,0,0,667.14,189.52Zm19.71,2.54c-7.46,0-16.57-13.28-16.57-28.79v-.19a17.07,17.07,0,0,1,5.46-14,17.67,17.67,0,0,1,11-3.3h.17a19.39,19.39,0,0,1,11.44,3.27,16.3,16.3,0,0,1,6.2,14v.16C704.56,178.1,694.58,192.06,686.85,192.06Z" transform="translate(0 0)" style="fill:#fff"/><path d="M788,202.52c7.5,0,14.73-4.7,20.34-13.23a49.26,49.26,0,0,0,8-25.95,26.3,26.3,0,0,0-10.58-22.74A30.13,30.13,0,0,0,788,135.34,28.35,28.35,0,0,0,770.24,141l-.14.11a27.51,27.51,0,0,0-9.29,22.27C760.84,181.85,772.44,202.52,788,202.52Zm0-10.46c-7.44,0-16.54-13.28-16.54-28.79v-.19a17.16,17.16,0,0,1,5.46-14,17.6,17.6,0,0,1,11-3.29H788a19.51,19.51,0,0,1,11.48,3.27,16.36,16.36,0,0,1,6.2,14v.16C805.71,178.1,795.72,192.06,788,192.06Z" transform="translate(0 0)" style="fill:#fff"/><path d="M638.52,268.61H837.27a5.23,5.23,0,1,0,0-10.45H828.8V233.22a21.32,21.32,0,0,0-7.4-16.1,50,50,0,0,0-65.65,0,21.25,21.25,0,0,0-7.4,16.1v16.44a5.31,5.31,0,0,0,5.34,5.26,5.33,5.33,0,0,0,5.25-5.28V233.2a10.94,10.94,0,0,1,3.79-8.25,39.4,39.4,0,0,1,51.68,0,10.94,10.94,0,0,1,3.76,8.25v24.94H727.64V233.22a21.31,21.31,0,0,0-7.39-16.1,50,50,0,0,0-65.66,0,21.25,21.25,0,0,0-7.4,16.1v16.42a5.32,5.32,0,1,0,10.63,0V233.19a10.91,10.91,0,0,1,3.75-8.24,39.4,39.4,0,0,1,51.69,0,11,11,0,0,1,3.79,8.24v24.94H638.52a5.23,5.23,0,1,0,0,10.45Z" transform="translate(0 0)" style="fill:#fff"/><path d="M240.75,322.33h-7.16V320H214v2.25h-6.88V305.86a74.69,74.69,0,0,1-12.77,5.67,21.9,21.9,0,0,0-4-6.13,64.19,64.19,0,0,0,20.23-10,80.91,80.91,0,0,0-8.84-8,59.72,59.72,0,0,1-6.42,4.39,23.69,23.69,0,0,0-4.85-5.37c9.48-5,15.83-12.08,19.18-18.38l7.75,1.45c-.87,1.5-1.85,3-2.89,4.5h13.12l1.15-.34,4.74,2.48a53.51,53.51,0,0,1-13.41,20.17h20.63Zm-31-42.3c-.93,1-1.85,2-2.83,3a81.08,81.08,0,0,1,9.19,7.63,45.37,45.37,0,0,0,8-10.58Zm23.81,33.81V302.57H214v11.27Z" transform="translate(0 0)" style="fill:#fff"/><path d="M297.38,288.47a67.24,67.24,0,0,1-9.94,19.82c1.68,4.16,3.53,6.59,5.38,6.59,1.38,0,2.08-2.89,2.37-10.12a18.63,18.63,0,0,0,5.83,3.88c-1.09,10.69-3.41,13.23-8.78,13.23-4.05,0-7.22-2.89-9.77-7.63a49.07,49.07,0,0,1-9.76,7.86,45.89,45.89,0,0,0-5-5.66,44.3,44.3,0,0,0,11.79-9.36,118.87,118.87,0,0,1-4-23.29H258.78V290h14.28s-.06,1.79-.06,2.6c-.18,12.14-.52,17.28-1.85,19a5.45,5.45,0,0,1-4,2.31,45.35,45.35,0,0,1-6.64.17,15.64,15.64,0,0,0-1.91-6.41c2.08.17,4,.23,5,.23a1.86,1.86,0,0,0,1.73-.7c.58-.81.81-3.58,1-10.86h-7.51c-.23,8.44-1.44,19.7-6.18,26.75a30.38,30.38,0,0,0-5.84-4.68c4.39-6.93,4.8-17,4.8-24.5V277h23.58c-.12-2.83-.24-5.66-.24-8.55h7.23c-.06,2.89,0,5.72.11,8.55h8.84a72.75,72.75,0,0,0-7.39-5l4.16-4.1a48.94,48.94,0,0,1,9.42,6.18l-2.78,3h6v6.82H282.65A136.77,136.77,0,0,0,285,299.62a58.82,58.82,0,0,0,5.55-12.83Z" transform="translate(0 0)" style="fill:#fff"/><path d="M334.23,299.51v5.14c0,6.12-3.46,13.46-24.32,18.2a25.87,25.87,0,0,0-4.74-5.6c19.82-3.59,21.55-8.9,21.55-12.77v-5Zm18.26-9v20.4H345v-14.1H317.07v14.85h-7.16V290.49Zm-2.6-19.82v16.12H312.33V270.67ZM319.56,281h22.65v-4.45H319.56Zm16.7,28.66a189.81,189.81,0,0,1,20.51,7.28l-3.53,5.84a180.62,180.62,0,0,0-20.34-8Z" transform="translate(0 0)" style="fill:#fff"/><path d="M396.94,313.89c5.95,0,6.88-1.5,7.75-9.88a25.09,25.09,0,0,0,6.93,2.66c-1.33,10.87-3.87,14-14.39,14H378.1c-11.15,0-14.56-2.19-14.56-10.92V282.86h7.11v7.86h26.23V278.41H361.23V271.6h42.82v28.6h-7.17v-2.72H370.65v12.31c0,3.58,1,4.1,7.4,4.1Z" transform="translate(0 0)" style="fill:#fff"/><path d="M435.86,297.08a36.57,36.57,0,0,0-.24,6.07c-14.27,2.77-16.7,3.46-18.26,4.33a52.67,52.67,0,0,0-2.25-6.41c1.62-.35,2.95-1.56,4.91-3.64a67.51,67.51,0,0,0,4.57-5.44c-5.2.64-6.71,1-7.63,1.45a64.34,64.34,0,0,0-2.2-6.36c1.16-.34,2.2-1.5,3.47-3.41a73.35,73.35,0,0,0,7.34-15.54l6.47,3a87.8,87.8,0,0,1-8.61,15.14l5.43-.4a54.08,54.08,0,0,0,3.47-5.9l6,3.88a102.49,102.49,0,0,1-11.09,14.67Zm0,17.22c-6.59,2-13.64,3.87-19.13,5.37l-1.33-6.87c5-.87,12.42-2.72,19.7-4.45Zm30.16-17a97.52,97.52,0,0,0-13.46-7.4,61.06,61.06,0,0,1-14.28,7.17,25.79,25.79,0,0,0-4.1-5.9c8.55-2.54,16.93-7.51,22-13.75H438.05v-6.24h22.6l1.27-.29,4.85,2.55a39.63,39.63,0,0,1-8.84,12.19,85.76,85.76,0,0,1,12.13,6.12ZM455.85,314.7h13.52v6.36H435.1V314.7h13.82V304.07H438.57v-6.24h27.91v6.24H455.85Z" transform="translate(0 0)" style="fill:#fff"/><path d="M501.11,278.7s0,2.26-.05,3.12c-.52,24.62-.93,33.46-2.72,36.12a6.18,6.18,0,0,1-4.45,2.95,33.41,33.41,0,0,1-7,.23,16.57,16.57,0,0,0-2-6.88c2.32.17,4.4.23,5.49.23a2.1,2.1,0,0,0,2-1c1.1-1.56,1.56-8.72,1.9-28h-5.83c-.58,15.43-2.6,28.37-10.06,36.92a18.21,18.21,0,0,0-5-5c6.47-7.33,8-18.37,8.43-31.89h-6.7V278.7h6.76c.06-3.06.06-6.24.06-9.53h6.76c0,3.24,0,6.41-.06,9.53ZM525.27,275v45.76h-6.88v-3.58h-7.45v4h-6.65V275Zm-6.88,35.54V281.54h-7.45v28.95Z" transform="translate(0 0)" style="fill:#fff"/><path d="M562.27,271.6c0,10.92,1.56,32,22.82,44.55a36.83,36.83,0,0,0-5.54,6c-12-7.23-18.09-18.15-21.27-28.49C554,306.61,547,316.21,537,322.22a54.52,54.52,0,0,0-6.3-5.61c12-6.07,18.9-17.22,22.07-32.42l3.53.64c-.41-2.2-.64-4.28-.81-6.24H542.28v-7Z" transform="translate(0 0)" style="fill:#fff"/><path d="M198.33,388.07h-6.44V381h7.26l1.27-10.25h-6.81v-7.18h7.71l1.87-14.36h6.35l-1.72,14.36h9.43l1.86-14.36h6.36l-1.64,14.36h6.65v7.18h-7.55L221.66,381h7.1v7.1h-7.93l-1.94,16.23h-6.58l1.94-16.23h-9.34l-2,16.23h-6.51Zm16.75-7.1,1.27-10.25h-9.43L205.65,381Z" transform="translate(0 0)" style="fill:#fff"/><path d="M292.92,401.23c2.47,0,2.92-1.94,3.29-12.71a25,25,0,0,0,8.23,3.74c-.9,13.38-3.14,17.27-10.77,17.27h-9c-8.46,0-10.62-2.84-10.62-11.59V375.06H262.86c-1.35,15.55-4.79,28.34-22.66,35.59a25.89,25.89,0,0,0-5.53-7.25c15.55-5.83,17.64-15.93,18.54-28.34h-16.9v-8.68H303v8.68H283.27v22.88c0,2.84.45,3.29,2.92,3.29Zm3.22-46.44H243v-8.6h53.1Z" transform="translate(0 0)" style="fill:#fff"/><path d="M359.27,342.08c4.86,8.75,12.41,17.42,20.11,21.31a60.06,60.06,0,0,0-4.86,8.53,57,57,0,0,1-7.33-5.76v6.2H343.71v-6.2a50.53,50.53,0,0,1-7.55,6,42.43,42.43,0,0,0-2.24-4.49v23.49H319.18v6.13H311V348.43h23v14.21c7.18-5.08,13.53-13.68,16.67-20.56Zm-33.73,14.51h-6.36v26.32h6.36Zm12.79,22.13h35.3v32h-9.05v-3.14H347v3.21h-8.67Zm27.14-14.28a62.66,62.66,0,0,1-10.24-13.31,62.2,62.2,0,0,1-9.8,13.31ZM347,386.72v12.79h17.58V386.72Z" transform="translate(0 0)" style="fill:#fff"/><path d="M411.28,372.89a85.06,85.06,0,0,1-5.39,7.33H416v-6.14h8.6v6.14h20.64v17.72c0,4-.75,6-3.52,7.25s-6.43,1.28-11.44,1.28a28,28,0,0,0-2.69-7.63c3,.15,6.43.15,7.4.15s1.35-.3,1.35-1.12V388H424.59V410.8H416V388H405.37v19h-8.82V389.42a47.84,47.84,0,0,1-8.31,5.6,48.07,48.07,0,0,0-5.9-6.65,55.86,55.86,0,0,0,18.32-15.48H384.58v-7.78h21.16a43.89,43.89,0,0,0,2.55-5.46c-5.46,1.5-10.92,2.62-16.08,3.67a61.92,61.92,0,0,0-6.06-7.41A217.17,217.17,0,0,0,408,351.72c-5.84-1.87-11.59-3.58-16.83-4.93l6.21-5.16c6.88,1.64,15.1,3.89,23.11,6.36a71.74,71.74,0,0,0,16.07-7.41l7.41,5.09a94.1,94.1,0,0,1-12,6.13c5.54,1.94,10.55,3.89,14.51,5.76l-6.8,6.13a192.73,192.73,0,0,0-19-7.7c-2,.67-4.11,1.34-6.28,1.94l4.11,1.12a61.68,61.68,0,0,1-2.84,6.06h35.37v7.78Z" transform="translate(0 0)" style="fill:#fff"/><path d="M221.1,228.12c4,1.35,9.12,1.72,15.25,1.72,5.69.08,25.66.08,32.39-.29a35.12,35.12,0,0,0-3.37,8.82h-29c-13.9,0-22.8-1.87-28.71-10.25a54.42,54.42,0,0,1-3.44,12.12,49.74,49.74,0,0,0-7.11-3.89c3.74-7.4,4.34-19.44,4.42-32.16l7.77.53c0,3.44-.15,6.88-.3,10.17a22.79,22.79,0,0,0,4.19,7.93V200.45H199.11V192.6h12.64v-6.88H200.83V178h10.92v-7.55H220V178H230.6v7.7H220v6.88h11.89v1.87c4.93-3.14,7.63-7.7,8.9-13.91h-8v-7.4h33s0,2-.07,3.07c-.52,12.41-1.2,17.87-3,20a7.27,7.27,0,0,1-5,2.55,57.17,57.17,0,0,1-8.3.14,18,18,0,0,0-2.17-7.47,52.48,52.48,0,0,0,6.06.3,2.74,2.74,0,0,0,2.16-.75c.68-1,1.2-3.74,1.58-10.4h-7.93c-1.72,9.43-5.76,15.93-12.57,20.27a50,50,0,0,0-4.63-3.82v3.44H221.1v8.16H231v7.7H221.1Zm13.61-26.39H264v23.55H234.71Zm8.3,16.45h12.12v-9.27H243Z" transform="translate(0 0)" style="fill:#fff"/><path d="M291.25,223.64c1.2.75,2.62,1.64,4.34,2.62,5.08,2.91,12,3.36,20.27,3.36a207.42,207.42,0,0,0,27.44-1.87c-1.12,2.62-2.62,7.26-2.77,9.87-5.16.38-17.35.83-25,.83-9.5,0-15.86-.9-21.32-3.89-3.51-1.8-6.13-4.19-7.77-4.19-2.17,0-5.46,5-8.08,9.42l-6.28-9a35.57,35.57,0,0,1,10.39-7.92V206.29h-8.67V198h17.42Zm-5.61-33.13c-2-3.67-6.73-9.27-10.77-13.16l6.88-4.64c4.12,3.74,9.13,8.9,11.3,12.64Zm37.62,1.05H295.51v-8.38h27.75V170.92h9.05v12.26h9.2v8.38h-9.2v24.52c0,5.16-1.12,7.56-4.49,8.9-3.21,1.43-8.37,1.65-15.33,1.65a33.75,33.75,0,0,0-3-9c4.79.22,10.17.22,11.67.22s2.09-.52,2.09-1.79Zm-18.55,3.21c3.74,4.34,8.53,10.4,10.7,14.43l-7.63,4.64c-1.95-4-6.51-10.39-10.17-15.1Z" transform="translate(0 0)" style="fill:#fff"/></svg>