<svg id="Group_152_copy" data-name="Group 152 copy" xmlns="http://www.w3.org/2000/svg" xmlns:xlink="http://www.w3.org/1999/xlink" viewBox="0 0 1026 555"><defs><linearGradient id="linear-gradient" x1="1027.33" y1="-8833.26" x2="1369.33" y2="-8833.26" gradientTransform="matrix(3, 0, 0, -3, -3082, -26222.28)" gradientUnits="userSpaceOnUse"><stop offset="0" stop-color="#3b4aff"/><stop offset="1" stop-color="#f00070"/></linearGradient></defs><title>People_KO</title><path d="M30,0h996L996,555H0Z" transform="translate(0 0)" style="fill:url(#linear-gradient)"/><path id="_150" data-name=" 150" d="M388.9,237.72a2.31,2.31,0,0,0,2.6-2,2.36,2.36,0,0,0,0-.65v-9.73a2.32,2.32,0,0,0-1.95-2.63,2.36,2.36,0,0,0-.65,0h-19V139.2a4,4,0,0,0-.54-2.3,3.09,3.09,0,0,0-2.52-.76h-9a23.22,23.22,0,0,0-3.9.31,13,13,0,0,0-3.59,1.22l-14.08,5.18a2.86,2.86,0,0,0-1.83,1.62,7.58,7.58,0,0,0-.31,2.22v5.18a2.2,2.2,0,0,0,.61,1.92,4.57,4.57,0,0,0,2.16.36h16v68.58H335.5a2.31,2.31,0,0,0-2.6,2,2.36,2.36,0,0,0,0,.65v9.73a2.32,2.32,0,0,0,2,2.63,2.36,2.36,0,0,0,.65,0ZM455,213.47a15.25,15.25,0,0,1-4.82,6.51,16.07,16.07,0,0,1-7.11,3,50.87,50.87,0,0,1-8.8.7,120.19,120.19,0,0,1-13-.7q-6.59-.67-12.39-1.44a3.87,3.87,0,0,0-3,.39,3.52,3.52,0,0,0-1.14,2l-1.07,6a5.34,5.34,0,0,0,.07,2.75,4.88,4.88,0,0,0,3,2.14,33.23,33.23,0,0,0,6.81,2q3.9.76,7.88,1.23t7.5.69c2.34.16,4.23.23,5.66.23A71.56,71.56,0,0,0,451,237.19a31.08,31.08,0,0,0,12.7-6.06,27,27,0,0,0,8.11-11.62,52.21,52.21,0,0,0,2.83-18.5q0-11.32-6-17.36a27.92,27.92,0,0,0-15.84-7.59l-29.06-4.28L426.89,151h39.93a2.36,2.36,0,0,0,2.73-1.92,2.5,2.5,0,0,0,0-.67v-9.64a2.25,2.25,0,0,0-2-2.47,2,2,0,0,0-.6,0H416.64a5.12,5.12,0,0,0-3.14.77,4.35,4.35,0,0,0-1.3,2.9l-6.12,38.55a7.24,7.24,0,0,0,.54,4.28,5.24,5.24,0,0,0,3.9,2.14l33.65,5.67a20.79,20.79,0,0,1,9.26,3.68,9.68,9.68,0,0,1,3.29,8.09A29.15,29.15,0,0,1,455,213.47Zm82.74,23a32.18,32.18,0,0,0,10.78-7,33.61,33.61,0,0,0,6.89-9.95A57.73,57.73,0,0,0,559.19,208a75,75,0,0,0,1.61-11.85c.2-3.93.3-7.46.3-10.64a136.42,136.42,0,0,0-1.15-17.5,46.11,46.11,0,0,0-5.12-16.3,32.28,32.28,0,0,0-11.7-12.1q-7.73-4.71-21-4.73a38,38,0,0,0-15.3,2.75,32.42,32.42,0,0,0-10.47,7.12,33.55,33.55,0,0,0-6.66,9.94A59.38,59.38,0,0,0,486,165.9a70,70,0,0,0-1.53,10.77c-.2,3.49-.31,6.43-.31,8.88,0,3.59.1,7.4.31,11.48a85.05,85.05,0,0,0,1.45,12,51.63,51.63,0,0,0,3.6,11.32,32,32,0,0,0,6.65,9.63,29.66,29.66,0,0,0,10.56,6.65,42.77,42.77,0,0,0,15.37,2.45A41.75,41.75,0,0,0,537.7,236.5Zm-4.29-84.06a16.55,16.55,0,0,1,6.58,7.37,35.21,35.21,0,0,1,3,11.72c.46,4.59.69,9.81.69,15.63a119.24,119.24,0,0,1-.84,14.87,37.14,37.14,0,0,1-3.21,11.64,18.47,18.47,0,0,1-6.58,7.67,19.64,19.64,0,0,1-10.94,2.76,18.56,18.56,0,0,1-10.71-2.76,17.54,17.54,0,0,1-6.12-7.73,40.17,40.17,0,0,1-2.83-11.73,156.5,156.5,0,0,1,0-29.2,39.55,39.55,0,0,1,2.91-11.88,19,19,0,0,1,6.2-8,17.46,17.46,0,0,1,10.55-2.92A22.06,22.06,0,0,1,533.41,152.44Z" transform="translate(0 0)" style="fill:#fff"/><path d="M697.18,228.65h-.11A12.49,12.49,0,0,0,689.3,231a12,12,0,0,0-3.86,9.84V241c0,11,6.43,20.35,11.69,20.35,5.48,0,12.54-9.87,12.54-20.35v-.11a11.62,11.62,0,0,0-4.39-9.91A13.84,13.84,0,0,0,697.18,228.65Z" transform="translate(0 0)" style="fill:none"/><path d="M638.17,144.34a11.53,11.53,0,0,0-4.38-9.9,13.76,13.76,0,0,0-8.09-2.31h-.12a12.51,12.51,0,0,0-7.78,2.33,12.11,12.11,0,0,0-3.87,9.86v.14c0,11,6.44,20.35,11.71,20.35,5.47,0,12.52-9.87,12.52-20.35Z" transform="translate(0 0)" style="fill:none"/><path d="M709.68,144.35a11.62,11.62,0,0,0-4.39-9.91,13.73,13.73,0,0,0-8.11-2.31h-.12a12.43,12.43,0,0,0-7.76,2.33,12.08,12.08,0,0,0-3.86,9.87v.13c0,11,6.43,20.35,11.69,20.35,5.48,0,12.54-9.87,12.54-20.35Z" transform="translate(0 0)" style="fill:none"/><path d="M625.7,228.65h-.11A12.48,12.48,0,0,0,617.8,231a12,12,0,0,0-3.87,9.84V241c0,11,6.44,20.35,11.71,20.35,5.47,0,12.52-9.87,12.52-20.35v-.11a11.58,11.58,0,0,0-4.38-9.91A13.76,13.76,0,0,0,625.7,228.65Z" transform="translate(0 0)" style="fill:none"/><path d="M709.67,225a21.36,21.36,0,0,0-12.53-3.69,20.06,20.06,0,0,0-12.54,4l-.1.08A19.55,19.55,0,0,0,677.93,241c0,13.1,8.23,27.72,19.2,27.72,5.3,0,10.41-3.32,14.38-9.35A34.9,34.9,0,0,0,717.16,241a18.62,18.62,0,0,0-7.42-16Zm0,15.92V241c0,10.48-7.06,20.35-12.54,20.35-5.26,0-11.69-9.39-11.69-20.35v-.13A12,12,0,0,1,689.3,231a12.49,12.49,0,0,1,7.77-2.36h.11a13.84,13.84,0,0,1,8.11,2.31A11.62,11.62,0,0,1,709.68,240.87Z" transform="translate(0 0)" style="fill:#fff"/><path d="M735.09,309.42a3.67,3.67,0,0,0-2.49-1.36,4.08,4.08,0,0,0-.7,0H726V290.42a15.1,15.1,0,0,0-5.23-11.37,35.37,35.37,0,0,0-46.41,0,15,15,0,0,0-5.22,11.39V302a3.71,3.71,0,0,0,1.11,2.64,3.75,3.75,0,0,0,6.37-2.66v-11.6a7.7,7.7,0,0,1,2.68-5.81,27.86,27.86,0,0,1,36.53,0,7.68,7.68,0,0,1,2.66,5.81v17.62h-64V290.42a15.1,15.1,0,0,0-5.23-11.37,35.37,35.37,0,0,0-46.41,0,15.09,15.09,0,0,0-5.23,11.39V302a3.76,3.76,0,1,0,7.51,0v-11.6a7.68,7.68,0,0,1,2.66-5.81,27.85,27.85,0,0,1,36.53,0,7.66,7.66,0,0,1,2.68,5.8v17.62H591.56a3.73,3.73,0,0,0-4,3.32,3.68,3.68,0,0,0,.8,2.73,3.75,3.75,0,0,0,2.5,1.36l.4,0H731.91a3.73,3.73,0,0,0,4-3.32A3.65,3.65,0,0,0,735.09,309.42Z" transform="translate(0 0)" style="fill:#fff"/><path d="M638.19,225a21.44,21.44,0,0,0-12.53-3.69,20.11,20.11,0,0,0-12.56,4l-.1.08A19.51,19.51,0,0,0,606.45,241a35.83,35.83,0,0,0,5.27,18.53c3.73,5.93,8.67,9.19,13.93,9.19s10.4-3.32,14.37-9.35A34.94,34.94,0,0,0,645.68,241a18.69,18.69,0,0,0-7.42-16Zm0,15.92V241c0,10.48-7,20.35-12.52,20.35-5.27,0-11.71-9.39-11.71-20.35v-.13A12,12,0,0,1,617.8,231a12.48,12.48,0,0,1,7.79-2.36h.11a13.76,13.76,0,0,1,8.09,2.31A11.58,11.58,0,0,1,638.17,240.87Z" transform="translate(0 0)" style="fill:#fff"/><path d="M611.72,163c3.73,5.93,8.67,9.19,13.93,9.19s10.4-3.32,14.37-9.35a34.87,34.87,0,0,0,5.66-18.34,18.65,18.65,0,0,0-7.42-16l-.06,0a21.49,21.49,0,0,0-12.54-3.72,20.07,20.07,0,0,0-12.57,4l-.09.07a19.46,19.46,0,0,0-6.55,15.75A35.75,35.75,0,0,0,611.72,163Zm13.93,1.8c-5.27,0-11.71-9.39-11.71-20.35v-.14a12.11,12.11,0,0,1,3.87-9.86,12.51,12.51,0,0,1,7.78-2.33h.12a13.76,13.76,0,0,1,8.09,2.31,11.53,11.53,0,0,1,4.38,9.9v.12C638.17,154.94,631.12,164.81,625.65,164.81Z" transform="translate(0 0)" style="fill:#fff"/><path d="M697.13,172.2c5.3,0,10.41-3.32,14.38-9.35a34.83,34.83,0,0,0,5.65-18.34,18.61,18.61,0,0,0-7.48-16.08,21.32,21.32,0,0,0-12.54-3.72,20.07,20.07,0,0,0-12.54,4l-.1.07a19.49,19.49,0,0,0-6.57,15.75C678,157.59,686.16,172.2,697.13,172.2Zm0-7.39c-5.26,0-11.69-9.39-11.69-20.35v-.13a12.08,12.08,0,0,1,3.86-9.87,12.43,12.43,0,0,1,7.76-2.33h.12a13.73,13.73,0,0,1,8.11,2.31,11.62,11.62,0,0,1,4.39,9.91v.11C709.67,154.94,702.61,164.81,697.13,164.81Z" transform="translate(0 0)" style="fill:#fff"/><path d="M591.49,218.92H732a3.7,3.7,0,0,0,0-7.39h-6V193.9a15.05,15.05,0,0,0-5.23-11.38,35.38,35.38,0,0,0-46.41,0,15,15,0,0,0-5.22,11.38V205.5a3.69,3.69,0,0,0,1.11,2.64,3.74,3.74,0,0,0,6.37-2.65v-11.6a7.71,7.71,0,0,1,2.68-5.83,27.85,27.85,0,0,1,36.53,0,7.74,7.74,0,0,1,2.66,5.84v17.62h-64V193.9a15.09,15.09,0,0,0-5.23-11.38,35.38,35.38,0,0,0-46.41,0,15,15,0,0,0-5.23,11.38v11.61a3.76,3.76,0,0,0,7.51,0V193.88a7.68,7.68,0,0,1,2.66-5.82,27.85,27.85,0,0,1,36.53,0,7.79,7.79,0,0,1,2.68,5.84v17.62H591.49a3.7,3.7,0,1,0,0,7.39Z" transform="translate(0 0)" style="fill:#fff"/><path d="M199.74,297.37H174.66v-24.5h25.08v3.87h9.59v-7.69H217v31.21h-7.63v-6.82h-9.59Zm17.45,14.56c0,6.53-6.94,10.34-18.26,10.34s-18.2-3.81-18.2-10.34,6.93-10.34,18.2-10.34S217.19,305.4,217.19,311.93Zm-24.91-33H182.17v12.43h10.11Zm17.28,33c0-3.06-3.64-4.51-10.63-4.51s-10.58,1.45-10.58,4.51,3.64,4.51,10.58,4.51S209.56,315,209.56,311.93Zm-9.82-29.12v4.56h9.59v-4.56Z" transform="translate(0 0)" style="fill:#fff"/><path d="M268.22,291.71c0,11.73-6,19.06-14,19.06s-14-7.33-14-19.06,5.95-19,14-19S268.22,280,268.22,291.71Zm-20.63,0c0,7.91,2.72,12.13,6.65,12.13s6.64-4.22,6.64-12.13-2.72-12.08-6.64-12.08S247.59,283.85,247.59,291.71ZM282.84,269v53.39h-7.63V269Z" transform="translate(0 0)" style="fill:#fff"/><path d="M317.31,298.52a19.56,19.56,0,0,1-11.73-9.93A20.49,20.49,0,0,1,293.1,300l-4-6c8.9-2.95,12.49-10.06,12.49-17.28v-4.8h7.74v5.43c0,6.42,3.58,12.66,12,15.26ZM332.4,312c0,6.47-6.94,10.28-18,10.28s-18-3.81-18-10.28,6.93-10.23,18-10.23S332.4,305.57,332.4,312Zm-7.57,0c0-2.95-3.64-4.34-10.41-4.34S304,309,304,312s3.64,4.39,10.45,4.39S324.83,315,324.83,312Zm14-30.57v6.3h-7.05v12.83h-7.63V269.11h7.63v12.31Z" transform="translate(0 0)" style="fill:#fff"/><path d="M342.2,305.4c9.36,0,22.42-.06,33.63-1.73l.46,5.49c-11.44,2.31-23.92,2.42-33.11,2.42Zm31.55-19.7c0,7.68-6.36,13.11-14.68,13.11s-14.62-5.43-14.62-13.11,6.3-13.12,14.62-13.12S373.75,278.07,373.75,285.7Zm-21.9,0c0,4.16,3.12,6.58,7.22,6.58s7.22-2.42,7.22-6.58-3.12-6.59-7.22-6.59S351.85,281.54,351.85,285.7ZM386.34,269v53.39h-7.62V269Z" transform="translate(0 0)" style="fill:#fff"/><path d="M431.19,296.68H410.1V272.93h21.09v8.66h4.51V270h7.11v29.18H435.7v-11.5h-4.51Zm-7.05-18h-6.93V291h6.93Zm-6.58,23.18h36.05v19.76H417.56Zm7.51,13.81h21.15v-7.8H425.07Zm28.54-46.64v30.63h-7.22V269.05Z" transform="translate(0 0)" style="fill:#fff"/><path d="M505,269v53.39H497.4V293.84h-9.53v16H462.33V273.21h7.57V286h10.46V273.21h7.51v14.51h9.53V269Zm-24.67,23H469.9v11.79h10.46Z" transform="translate(0 0)" style="fill:#fff"/><path d="M539.2,274.49c0,15.94-6.07,29.64-23.75,38.6l-4.28-5.84c12.37-6.36,19-14.79,20.34-26.58H514.12v-6.18Zm21.61,21.15h-7.45v26.52h-7.63V269h7.63v20.34h7.45Z" transform="translate(0 0)" style="fill:#fff"/><path d="M177.2,374.12h-5v-5.49h5.61l1-7.92h-5.26v-5.55h5.95L181,344.07h4.91l-1.33,11.09h7.28l1.45-11.09h4.91l-1.27,11.09h5.14v5.55h-5.84l-1,7.92h5.49v5.49h-6.13l-1.5,12.53H188l1.5-12.53h-7.22l-1.56,12.53h-5Zm12.94-5.49,1-7.92h-7.28l-1,7.92Z" transform="translate(0 0)" style="fill:#fff"/><path d="M208.35,343.89h9.48l7.28,20c.92,2.66,1.73,5.49,2.6,8.26H228c.92-2.77,1.67-5.6,2.6-8.26l7.1-20h9.48v42.76h-7.8V368.8c0-4.05.64-10,1-14h-.23l-3.47,10.05-6.59,18h-4.91l-6.64-18-3.41-10.05h-.23c.4,4,1.1,10,1.1,14v17.85h-7.69Z" transform="translate(0 0)" style="fill:#fff"/><path d="M254,370.53c0-10.51,7.34-17,15.09-17,8.89,0,13.52,6.53,13.52,15.48a15.77,15.77,0,0,1-.41,3.87H262.3c.69,5.32,4.16,8.09,8.95,8.09a13.28,13.28,0,0,0,7.28-2.25l2.89,5.2a20.35,20.35,0,0,1-11.32,3.58C261.08,387.46,254,381.17,254,370.53Zm21.33-3.29c0-4.39-2-7.17-6.13-7.17-3.41,0-6.41,2.43-7.05,7.17Z" transform="translate(0 0)" style="fill:#fff"/><path d="M290.18,375.33V361h-4.57v-6.3l5-.4,1-8.67h7.11v8.67h8V361h-8v14.33c0,3.7,1.5,5.43,4.39,5.43a9.65,9.65,0,0,0,3.18-.69l1.39,6.18a20.91,20.91,0,0,1-6.82,1.21C293.12,387.46,290.18,382.61,290.18,375.33Z" transform="translate(0 0)" style="fill:#fff"/><path d="M310.61,377.87c0-6.93,5.6-10.57,18.6-12-.11-3.18-1.5-5.61-5.49-5.61-3,0-5.89,1.33-8.9,3.07l-3.06-5.61a25.87,25.87,0,0,1,13.52-4.27c8.21,0,12.43,4.91,12.43,14.27v18.89h-6.94l-.63-3.46H330c-2.83,2.42-6.06,4.27-9.76,4.27A9.19,9.19,0,0,1,310.61,377.87Zm18.6-.23v-6.53c-7.86,1-10.51,3.18-10.51,6.07,0,2.54,1.79,3.64,4.27,3.64S327.19,379.66,329.21,377.64Z" transform="translate(0 0)" style="fill:#fff"/><path d="M346,343.89h8.55v16.82h16.18V343.89h8.49v42.76h-8.49V368.16H354.59v18.49H346Z" transform="translate(0 0)" style="fill:#fff"/><path d="M386.16,377.87c0-6.93,5.61-10.57,18.61-12-.12-3.18-1.5-5.61-5.49-5.61-3,0-5.9,1.33-8.9,3.07l-3.06-5.61a25.81,25.81,0,0,1,13.52-4.27c8.2,0,12.42,4.91,12.42,14.27v18.89h-6.93l-.64-3.46h-.17c-2.83,2.42-6.07,4.27-9.77,4.27A9.19,9.19,0,0,1,386.16,377.87Zm18.61-.23v-6.53c-7.86,1-10.52,3.18-10.52,6.07,0,2.54,1.79,3.64,4.28,3.64S402.75,379.66,404.77,377.64Z" transform="translate(0 0)" style="fill:#fff"/><path d="M417.88,382.9l3.87-5.32c2.89,2.26,5.67,3.53,8.67,3.53,3.24,0,4.68-1.39,4.68-3.41,0-2.43-3.35-3.53-6.76-4.86-4.1-1.56-8.84-4-8.84-9.41,0-5.84,4.74-9.94,12-9.94a18.14,18.14,0,0,1,11,4l-3.82,5.15c-2.31-1.62-4.56-2.78-7-2.78-2.89,0-4.27,1.27-4.27,3.12,0,2.37,3.17,3.24,6.58,4.51,4.28,1.62,9,3.76,9,9.77,0,5.66-4.45,10.22-12.89,10.22A20.39,20.39,0,0,1,417.88,382.9Z" transform="translate(0 0)" style="fill:#fff"/><path d="M448.89,340.54h8.43v11.62l-.34,6.06c2.6-2.42,5.78-4.73,10.17-4.73,7,0,10,4.85,10,13v20.16h-8.49V367.53c0-5-1.39-6.76-4.57-6.76-2.65,0-4.33,1.27-6.76,3.64v22.24h-8.43Z" transform="translate(0 0)" style="fill:#fff"/><path d="M510.33,339.27h7.11v50h-7.11V364.18h-4.16c-.7,10.4-5,16.64-11.5,16.64-7.05,0-11.5-7.28-11.5-19.36s4.45-19.3,11.5-19.3c6.3,0,10.57,5.89,11.44,15.83h4.22Zm-11,22.19c0-8.15-1.67-12.13-4.62-12.13s-4.62,4-4.62,12.13,1.73,12.19,4.62,12.19S499.29,369.67,499.29,361.46Zm29.07-23.11v53.22h-7.23V338.35Z" transform="translate(0 0)" style="fill:#fff"/><path d="M576.5,343.84c0,15.94-6.07,29.64-23.75,38.6l-4.28-5.84c12.37-6.36,19-14.79,20.34-26.58H551.42v-6.18ZM598.11,365h-7.45v26.52H583V338.35h7.63v20.34h7.45Z" transform="translate(0 0)" style="fill:#fff"/><path d="M631.24,353.14c0,7.34-6.18,12.6-14.45,12.6s-14.5-5.26-14.5-12.6,6.24-12.54,14.5-12.54S631.24,345.86,631.24,353.14Zm-21.5,0c0,4,3,6.3,7,6.3s7-2.31,7-6.3-2.95-6.24-7-6.24S609.74,349.27,609.74,353.14ZM618,369.32v5h20.22v-5h7.57V391H610.38V369.32ZM618,385h20.22v-4.85H618Zm27.79-46.58V367h-7.68V338.4Z" transform="translate(0 0)" style="fill:#fff"/><path d="M678.09,349.44H652.2v-5.89h9.19v-4.8h7.51v4.8h9.19Zm-24.33,10.92c0-5.49,4.74-9.24,11.5-9.24s11.44,3.75,11.44,9.24-4.74,9.31-11.44,9.31S653.76,365.91,653.76,360.36Zm38.31,13.58c0,5,3,9.65,9.89,11.5L698.43,391a16,16,0,0,1-10.23-8.38,16.58,16.58,0,0,1-9.53,8.84,15.88,15.88,0,0,1-9.65-8.67A16.4,16.4,0,0,1,659,391l-3.52-5.55c6.93-2.08,9.88-6.88,9.88-11.5v-1h7.4v1a12.14,12.14,0,0,0,5.83,10.46,12.76,12.76,0,0,0,6-10.46v-1h7.57Zm-31.55-13.58c0,2.49,1.91,3.87,4.74,3.87s4.68-1.38,4.68-3.87-1.9-3.81-4.68-3.81S660.52,357.94,660.52,360.36Zm26.18,10.29h-7.11V339.1h7.11V352h3.93V338.4h7.22v32.77h-7.22V358.22H686.7Z" transform="translate(0 0)" style="fill:#fff"/><path d="M752,361.63v6H703.91v-6Zm-5.08-2.42c-9.08-1.1-15.55-4.86-19-9.94-3.35,5.08-9.94,8.78-19,9.94l-2.66-5.9c12-1.38,17.74-7.28,17.74-12.71V339h7.86v1.62c0,5.37,5.78,11.38,17.74,12.71Zm-8.5,11.09h7.51V391h-36.4V370.3h7.57v4.45h21.32Zm0,10.17H717.09v4.62h21.32Z" transform="translate(0 0)" style="fill:#fff"/><path d="M765.68,372A130.74,130.74,0,0,0,788,369.67l.81,6.35a126,126,0,0,1-26,2.49h-4.74V343.43h7.57Zm34.09-33.63v53.22h-7.62V338.35Z" transform="translate(0 0)" style="fill:#fff"/><path d="M816.57,372.61a132.29,132.29,0,0,0,20.74-1.67l.75,6.3c-8,1.44-15.31,1.73-24.56,1.73h-4.56V343.32h24.85v6.18H816.57Zm39.75-8.26h-7.74v27.39H841V338.4h7.63v19.65h7.74Z" transform="translate(0 0)" style="fill:#fff"/><path d="M213,200.6c0,15.19-7.7,24.68-18.1,24.68s-18.1-9.49-18.1-24.68,7.71-24.52,18.1-24.52S213,185.5,213,200.6Zm-26.7,0c0,10.25,3.52,15.71,8.6,15.71s8.6-5.46,8.6-15.71S200,185,194.93,185,186.33,190.43,186.33,200.6ZM232,171.21v69.1h-9.87v-69.1Z" transform="translate(0 0)" style="fill:#fff"/><path d="M280.19,177.5v46.29H247.06V177.5Zm-23.41,7.77V216h13.69V185.27Zm44-14v69h-9.87v-69Z" transform="translate(0 0)" style="fill:#fff"/></svg>