<svg xmlns="http://www.w3.org/2000/svg" width="1026" height="555" viewBox="0 0 342 185"><defs><style>.cls-1,.cls-7{fill-rule:evenodd}.cls-1{fill:url(#linear-gradient)}.cls-2{font-size:75px}.cls-2,.cls-3,.cls-4,.cls-5,.cls-6,.cls-7{fill:#fff}.cls-2,.cls-3,.cls-4,.cls-5,.cls-6{font-family:&quot;PF Square Sans Pro&quot;}.cls-2,.cls-4{font-weight:500}.cls-3{font-size:24px;font-weight:700}.cls-4{font-size:25px}.cls-5{font-size:18px;font-weight:300}.cls-6{font-size:35px;font-weight:200}</style><linearGradient id="linear-gradient" x1="766" y1="9254.5" x2="1108" y2="9254.5" gradientUnits="userSpaceOnUse"><stop offset="0" stop-color="#3b4aff"/><stop offset="1" stop-color="#f00070"/></linearGradient></defs><path class="cls-1" d="M10 0h332l-10 185H0z"/><text id="_150" data-name="150" class="cls-2" x="105.23" y="91.593">150</text><text id="Более" class="cls-3" x="33.765" y="91.015">Более</text><text id="присоединились" class="cls-4" x="34.332" y="139.618">присоединились</text><text id="к_команде_MetaHash" data-name="к команде #MetaHash" class="cls-5" x="35.332" y="157.621">к команде #MetaHash</text><text id="человек_уже" data-name="человек уже" class="cls-6" x="34.231" y="117.586">человек уже</text><path class="cls-7" d="M244.91 81.34h59.18a.89.89 0 1 0 0-1.78h-3.19v-8.09a5.68 5.68 0 0 0-1.97-4.29 14.321 14.321 0 0 0-18.68-.01 5.665 5.665 0 0 0-1.97 4.29v4.89a.91.91 0 0 0 1.82 0v-4.89a3.923 3.923 0 0 1 1.36-2.96 12.469 12.469 0 0 1 16.26.01 3.929 3.929 0 0 1 1.35 2.96v8.09h-28.29v-8.09a5.68 5.68 0 0 0-1.97-4.29 14.321 14.321 0 0 0-18.68-.01 5.665 5.665 0 0 0-1.97 4.29v4.89a.915.915 0 0 0 1.83 0v-4.89a3.913 3.913 0 0 1 1.35-2.96 12.469 12.469 0 0 1 16.26.01 3.939 3.939 0 0 1 1.36 2.96v8.09h-24.05a.89.89 0 1 0 0 1.78zm14.39-19.68c4.3 0 7.77-6.03 7.77-11.02a7.186 7.186 0 0 0-2.86-6.2 8.406 8.406 0 0 0-4.91-1.45 7.764 7.764 0 0 0-4.89 1.54 7.477 7.477 0 0 0-2.53 6.11c0 5.2 3.17 11.02 7.42 11.02zm-3.73-15.75a5.918 5.918 0 0 1 3.73-1.13 6.483 6.483 0 0 1 3.82 1.1 5.537 5.537 0 0 1 2.12 4.76c0 4.49-3.06 9.24-5.94 9.24-3.1 0-5.6-5.06-5.6-9.24a5.714 5.714 0 0 1 1.87-4.73zm33.84 15.75c4.31 0 7.77-6.03 7.77-11.02a7.176 7.176 0 0 0-2.86-6.2 8.361 8.361 0 0 0-4.91-1.45 7.755 7.755 0 0 0-4.88 1.54 7.483 7.483 0 0 0-2.54 6.11c0 5.2 3.18 11.02 7.42 11.02zm-3.72-15.75a5.889 5.889 0 0 1 3.72-1.13 6.494 6.494 0 0 1 3.83 1.1 5.549 5.549 0 0 1 2.12 4.76c0 4.49-3.06 9.24-5.95 9.24-3.1 0-5.59-5.06-5.59-9.24a5.727 5.727 0 0 1 1.87-4.73zm18.4 74.31h-3.19v-8.09a5.7 5.7 0 0 0-1.97-4.29 14.321 14.321 0 0 0-18.68-.01 5.68 5.68 0 0 0-1.97 4.29v4.89a.91.91 0 0 0 1.82 0v-4.89a3.9 3.9 0 0 1 1.36-2.95 12.469 12.469 0 0 1 16.26.01 3.892 3.892 0 0 1 1.35 2.95v8.09h-28.29v-8.09a5.7 5.7 0 0 0-1.97-4.29 14.321 14.321 0 0 0-18.68-.01 5.68 5.68 0 0 0-1.97 4.29v4.89a.915.915 0 0 0 1.83 0v-4.89a3.892 3.892 0 0 1 1.35-2.95 12.469 12.469 0 0 1 16.26.01 3.9 3.9 0 0 1 1.36 2.95v8.09h-24.05a.9.9 0 1 0 0 1.79h59.18a.9.9 0 1 0 0-1.79zM259.3 83.66a7.759 7.759 0 0 0-4.89 1.53 7.477 7.477 0 0 0-2.53 6.11c0 5.21 3.17 11.03 7.42 11.03 4.3 0 7.77-6.04 7.77-11.03a7.2 7.2 0 0 0-2.86-6.2 8.4 8.4 0 0 0-4.91-1.44zm5.94 7.64c0 4.49-3.06 9.24-5.94 9.24-3.1 0-5.6-5.05-5.6-9.24a5.706 5.706 0 0 1 1.87-4.72 5.862 5.862 0 0 1 3.73-1.14 6.483 6.483 0 0 1 3.82 1.1 5.549 5.549 0 0 1 2.12 4.76zm24.17-7.64a7.75 7.75 0 0 0-4.88 1.53 7.483 7.483 0 0 0-2.54 6.11c0 5.21 3.18 11.03 7.42 11.03 4.31 0 7.77-6.04 7.77-11.03a7.176 7.176 0 0 0-2.86-6.2 8.356 8.356 0 0 0-4.91-1.44zm5.95 7.64c0 4.49-3.06 9.24-5.95 9.24-3.1 0-5.59-5.05-5.59-9.24a5.706 5.706 0 0 1 1.87-4.72 5.833 5.833 0 0 1 3.72-1.14 6.494 6.494 0 0 1 3.83 1.1 5.549 5.549 0 0 1 2.12 4.76z"/></svg>