<svg id="INFO_RUS" data-name="INFO RUS" xmlns="http://www.w3.org/2000/svg" width="860.55" height="1231.62" viewBox="0 0 286.85 410.54"><defs><style>.cls-1{fill:#fff}.cls-1,.cls-2,.cls-3{fill-rule:evenodd}.cls-2{fill:#8fc4ff}.cls-3,.cls-4{stroke:#8fc4ff;stroke-width:1px}.cls-3{stroke-dasharray:4 2;fill:none}.cls-4{fill:#0b1233}</style></defs><path id="_5_" data-name="5" class="cls-1" d="M1604.97 1120.19a16.542 16.542 0 0 0-9.14-4.22l-18.36-2.79 2.34-15.18h24.39a1.165 1.165 0 0 0 1.35-1.28v-4.02a1 1 0 0 0-1.17-1.09h-28.8a2.025 2.025 0 0 0-1.12.22 1.752 1.752 0 0 0-.5 1.04l-3.6 23.26a2.243 2.243 0 0 0 1.98 2.88l19.71 3.25a15.473 15.473 0 0 1 6.66 2.52q2.43 1.815 2.43 5.86a21.12 21.12 0 0 1-1.17 7.71 10.611 10.611 0 0 1-3.15 4.51 10.759 10.759 0 0 1-4.63 2.12 28.234 28.234 0 0 1-5.63.54 71.7 71.7 0 0 1-8.1-.45q-3.96-.45-7.11-.9a1.3 1.3 0 0 0-1.3.22 3.568 3.568 0 0 0-.5.86l-.45 2.31a2.175 2.175 0 0 0-.04 1.15 1.549 1.549 0 0 0 1.03.8 18.7 18.7 0 0 0 3.83 1.16c1.47.29 2.97.53 4.5.71s2.97.31 4.32.4 2.47.13 3.37.13a39.5 39.5 0 0 0 9.18-.99 16.631 16.631 0 0 0 7.07-3.5 16.128 16.128 0 0 0 4.5-6.7 30.539 30.539 0 0 0 1.57-10.65q0-6.555-3.46-9.88z" transform="translate(-1379.53 -1077.62)"/><path id="транзакций_в_сутки" data-name="транзакций в сутки" class="cls-2" d="M1576.04 1165.83v-.39a.286.286 0 0 0-.05-.17.2.2 0 0 0-.19-.07h-6.44a.238.238 0 0 0-.29.24v.39a.247.247 0 0 0 .29.26h2.7v7.65a.236.236 0 0 0 .29.23h.44a.228.228 0 0 0 .28-.23v-7.65h2.72a.23.23 0 0 0 .25-.26zm2.76 1.21c.16-.08.36-.19.62-.31s.54-.25.83-.37.61-.23.91-.32a2.9 2.9 0 0 1 .83-.13 2.2 2.2 0 0 1 .87.14 1.1 1.1 0 0 1 .56.53 3.194 3.194 0 0 1 .3 1.07 13.641 13.641 0 0 1 .09 1.74 15.151 15.151 0 0 1-.1 1.82 3.519 3.519 0 0 1-.35 1.18 1.449 1.449 0 0 1-.68.64 2.423 2.423 0 0 1-1.08.2 7.5 7.5 0 0 1-1.32-.11 10.173 10.173 0 0 1-1.48-.36v-5.72zm0 6.53l.02-.04a6.414 6.414 0 0 0 1.48.47 6.823 6.823 0 0 0 1.19.11 4.169 4.169 0 0 0 1.65-.29 2.411 2.411 0 0 0 1.03-.89 4.226 4.226 0 0 0 .53-1.48 12.281 12.281 0 0 0 .15-2.03 12.119 12.119 0 0 0-.13-1.93 3.933 3.933 0 0 0-.44-1.38 2.069 2.069 0 0 0-.84-.82 2.945 2.945 0 0 0-1.33-.27 3.352 3.352 0 0 0-1.03.16 8.314 8.314 0 0 0-.96.35 7.65 7.65 0 0 0-.81.4c-.23.14-.41.25-.53.34l.02-.8a.277.277 0 0 0-.06-.21.328.328 0 0 0-.21-.06h-.5a.226.226 0 0 0-.24.27v11.38a.238.238 0 0 0 .24.29h.5a.328.328 0 0 0 .21-.06.3.3 0 0 0 .06-.23v-3.28zm13.83-.63a1.137 1.137 0 0 0 .43.96 2.3 2.3 0 0 0 1.26.12.414.414 0 0 0 .22-.09.162.162 0 0 0 .05-.14v-.36a.153.153 0 0 0-.19-.16 2.529 2.529 0 0 1-.38-.05.488.488 0 0 1-.23-.1.351.351 0 0 1-.11-.2 1.327 1.327 0 0 1-.04-.39v-4.43a6.156 6.156 0 0 0-.13-1.36 2.054 2.054 0 0 0-.47-.97 2.173 2.173 0 0 0-.97-.58 6.067 6.067 0 0 0-1.63-.18c-.2 0-.41 0-.66.01s-.5.04-.77.07-.52.07-.77.11a4.964 4.964 0 0 0-.67.18.284.284 0 0 0-.19.27l.07.33c.01.09.1.14.27.12.42-.04.86-.09 1.33-.12s.89-.06 1.28-.06a4.491 4.491 0 0 1 1.13.12 1.639 1.639 0 0 1 .71.36 1.141 1.141 0 0 1 .36.62 3.415 3.415 0 0 1 .1.91v.8h-2.79a3.482 3.482 0 0 0-2.45.72 3 3 0 0 0-.77 2.26 2.617 2.617 0 0 0 .54 1.8 2.27 2.27 0 0 0 1.76.6 5.352 5.352 0 0 0 1.1-.1 5.624 5.624 0 0 0 .96-.26 5.334 5.334 0 0 0 .84-.37 8.777 8.777 0 0 0 .79-.44h.02zm0-.86a6.4 6.4 0 0 1-.65.33 10.532 10.532 0 0 1-1.81.68 3.773 3.773 0 0 1-.89.12 1.837 1.837 0 0 1-1.26-.32 1.615 1.615 0 0 1-.36-1.22 2.869 2.869 0 0 1 .15-1.01 1.36 1.36 0 0 1 .41-.63 1.488 1.488 0 0 1 .65-.33 3.634 3.634 0 0 1 .85-.09h2.91v2.47zm10.47 1.66v-8.3a.223.223 0 0 0-.26-.24h-.46a.238.238 0 0 0-.29.24v3.44h-4.95v-3.44a.226.226 0 0 0-.27-.24h-.48a.223.223 0 0 0-.26.24v8.3a.22.22 0 0 0 .26.23h.48a.224.224 0 0 0 .27-.23v-3.98h4.95v3.98a.236.236 0 0 0 .29.23h.46a.22.22 0 0 0 .26-.23zm6.34-4.5a1.888 1.888 0 0 0 1.19-.76 1.947 1.947 0 0 0 .4-1.13 2.058 2.058 0 0 0-.78-1.77 3.708 3.708 0 0 0-2.23-.57 8.315 8.315 0 0 0-1.23.07 5.221 5.221 0 0 0-.69.11c-.23.06-.44.12-.63.19a.172.172 0 0 0-.15.2l.04.34c.01.11.05.17.12.17h.2c.36-.04.75-.08 1.16-.11s.78-.06 1.09-.06a3.972 3.972 0 0 1 .8.07 1.787 1.787 0 0 1 .65.23 1.12 1.12 0 0 1 .43.46 1.476 1.476 0 0 1 .16.74 1.152 1.152 0 0 1-.18.65 1.471 1.471 0 0 1-.49.47 2.152 2.152 0 0 1-.71.28 3.979 3.979 0 0 1-.86.09h-.34a.183.183 0 0 0-.21.2v.4a.186.186 0 0 0 .21.21h.42a3.087 3.087 0 0 1 1.64.39 1.422 1.422 0 0 1 .64 1.33 1.439 1.439 0 0 1-.71 1.4 3.893 3.893 0 0 1-1.88.39c-.3 0-.64-.01-1.01-.03s-.82-.09-1.35-.18a.208.208 0 0 0-.29.16l-.05.26a.231.231 0 0 0 .14.27 3.115 3.115 0 0 0 .63.2q.36.075.72.12c.24.03.48.05.7.07s.41.01.56.01a6.272 6.272 0 0 0 1.4-.14 3.394 3.394 0 0 0 1.15-.47 2.251 2.251 0 0 0 .78-.84 2.41 2.41 0 0 0 .29-1.25 2.08 2.08 0 0 0-.51-1.42 2.235 2.235 0 0 0-1.22-.72v-.03zm9.68 3.7a1.115 1.115 0 0 0 .44.96 2.272 2.272 0 0 0 1.26.12.375.375 0 0 0 .21-.09.168.168 0 0 0 .06-.14v-.36a.161.161 0 0 0-.2-.16 2.728 2.728 0 0 1-.38-.05.41.41 0 0 1-.22-.1.312.312 0 0 1-.12-.2 1.327 1.327 0 0 1-.04-.39v-4.43a6.876 6.876 0 0 0-.12-1.36 2.163 2.163 0 0 0-.48-.97 2.119 2.119 0 0 0-.97-.58 6.067 6.067 0 0 0-1.63-.18c-.19 0-.41 0-.66.01s-.5.04-.76.07-.53.07-.78.11a4.439 4.439 0 0 0-.66.18.28.28 0 0 0-.2.27l.07.33c.01.09.1.14.27.12.42-.04.86-.09 1.33-.12s.9-.06 1.28-.06a4.437 4.437 0 0 1 1.13.12 1.741 1.741 0 0 1 .72.36 1.277 1.277 0 0 1 .36.62 3.937 3.937 0 0 1 .09.91v.8h-2.79a3.5 3.5 0 0 0-2.45.72 3 3 0 0 0-.77 2.26 2.617 2.617 0 0 0 .54 1.8 2.279 2.279 0 0 0 1.77.6 5.319 5.319 0 0 0 1.09-.1 5.624 5.624 0 0 0 .96-.26 5.334 5.334 0 0 0 .84-.37c.27-.13.53-.28.8-.44h.01zm0-.86a6.1 6.1 0 0 1-.64.33c-.27.13-.56.25-.87.37s-.63.22-.95.31a3.762 3.762 0 0 1-.88.12 1.851 1.851 0 0 1-1.27-.32 1.617 1.617 0 0 1-.35-1.22 2.891 2.891 0 0 1 .14-1.01 1.442 1.442 0 0 1 .41-.63 1.488 1.488 0 0 1 .65-.33 3.7 3.7 0 0 1 .85-.09h2.91v2.47zm4.51-2.14h1.64a4.262 4.262 0 0 1 .64.05 1.679 1.679 0 0 1 .56.22 1.549 1.549 0 0 1 .46.46 2.7 2.7 0 0 1 .37.78l.76 2.3a.226.226 0 0 0 .11.18.342.342 0 0 0 .18.04h.52a.209.209 0 0 0 .21-.07.571.571 0 0 0-.01-.22l-.81-2.41c-.1-.26-.19-.5-.27-.71a2.318 2.318 0 0 0-.31-.54 1.836 1.836 0 0 0-.41-.38 2.055 2.055 0 0 0-.56-.24 1.407 1.407 0 0 0 .81-.61 5.313 5.313 0 0 0 .56-1.19l.7-2.11a.348.348 0 0 0 .03-.21.238.238 0 0 0-.23-.08h-.45a.29.29 0 0 0-.3.24l-.72 2.12a2.366 2.366 0 0 1-.4.78 1.776 1.776 0 0 1-.5.46 1.4 1.4 0 0 1-.53.21 3.023 3.023 0 0 1-.5.05h-1.55v-3.66a.18.18 0 0 0-.2-.2h-.62a.172.172 0 0 0-.19.2v8.37a.172.172 0 0 0 .19.2h.62a.18.18 0 0 0 .2-.2v-3.83zm14.16-4.5a.215.215 0 0 0-.25-.24h-.48a.234.234 0 0 0-.28.24v7.63h-4.87v-7.63a.219.219 0 0 0-.25-.24h-.47a.215.215 0 0 0-.25.24v8.28a.218.218 0 0 0 .25.25h6.35l.07 1.89a.545.545 0 0 0 .07.26.175.175 0 0 0 .15.06h.43a.175.175 0 0 0 .15-.06.715.715 0 0 0 .07-.28l.14-2.45a.456.456 0 0 0-.04-.22.2.2 0 0 0-.19-.1l-.6-.04v-7.59zm2.46 8.28a.209.209 0 0 0 .23.25h.34a.358.358 0 0 0 .21-.05 1.538 1.538 0 0 0 .12-.13l3.18-4.36 1.95-2.75v7.04a.229.229 0 0 0 .27.25h.46a.229.229 0 0 0 .27-.25v-8.28a.215.215 0 0 0-.25-.24h-.42a.254.254 0 0 0-.21.07 2.059 2.059 0 0 0-.16.15l-2.75 3.73-2.27 3.15v-6.84a.223.223 0 0 0-.24-.26h-.48a.225.225 0 0 0-.25.26v8.26zm14.01-10.05a2.752 2.752 0 0 0 1.05-1.15 1.646 1.646 0 0 1 .09-.21.162.162 0 0 0-.04-.2l-.27-.2a.216.216 0 0 0-.27.05 4.816 4.816 0 0 1-.9.91 1.53 1.53 0 0 1-.93.28 2.344 2.344 0 0 1-.56-.06 1.464 1.464 0 0 1-.48-.21 2.048 2.048 0 0 1-.44-.36 3.772 3.772 0 0 1-.45-.54.173.173 0 0 0-.27-.05l-.27.21a.2.2 0 0 0-.05.22 1.293 1.293 0 0 0 .09.2 2.4 2.4 0 0 0 1.03 1.12 2.784 2.784 0 0 0 1.36.35 2.614 2.614 0 0 0 1.31-.36zm-4.71 10.05a.213.213 0 0 0 .23.25h.34a.358.358 0 0 0 .21-.05 1.538 1.538 0 0 0 .12-.13l3.18-4.36 1.95-2.75v7.04a.229.229 0 0 0 .27.25h.46a.229.229 0 0 0 .27-.25v-8.28a.215.215 0 0 0-.25-.24h-.42a.254.254 0 0 0-.21.07 2.059 2.059 0 0 0-.16.15l-2.75 3.73-2.27 3.15v-6.84a.22.22 0 0 0-.23-.26h-.49a.225.225 0 0 0-.25.26v8.26zm-79.51 11.48a.222.222 0 0 0-.27.22v8.3a.256.256 0 0 0 .08.19.408.408 0 0 0 .27.06h3.72a3.6 3.6 0 0 0 1.12-.17 2.675 2.675 0 0 0 .87-.5 2.208 2.208 0 0 0 .58-.77 2.466 2.466 0 0 0 .2-.99 3.19 3.19 0 0 0-.06-.59 2.359 2.359 0 0 0-.22-.63 1.984 1.984 0 0 0-.45-.56 1.941 1.941 0 0 0-.71-.4 2.33 2.33 0 0 0 .62-.43 1.885 1.885 0 0 0 .34-.49 1.848 1.848 0 0 0 .17-.5 2.632 2.632 0 0 0 .04-.47 2.2 2.2 0 0 0-.64-1.63 2.837 2.837 0 0 0-2.06-.64h-3.6zm3.65 4.65a2.617 2.617 0 0 1 .9.14 1.7 1.7 0 0 1 .59.37 1.358 1.358 0 0 1 .33.52 2.173 2.173 0 0 1 .1.62 1.847 1.847 0 0 1-.1.57 1.275 1.275 0 0 1-.34.5 1.624 1.624 0 0 1-.62.37 2.785 2.785 0 0 1-.97.15h-2.8v-3.24h2.91zm-.2-3.76a1.91 1.91 0 0 1 1.43.43 1.382 1.382 0 0 1 .42 1.01 1.327 1.327 0 0 1-.19.72 1.408 1.408 0 0 1-.49.45 2.262 2.262 0 0 1-.63.23 2.958 2.958 0 0 1-.63.07h-2.62v-2.91h2.71zm10.8-.7a2.656 2.656 0 0 0-1.03.99 4.079 4.079 0 0 0-.48 1.44 11.844 11.844 0 0 0-.11 1.7 13.045 13.045 0 0 0 .11 1.83 3.937 3.937 0 0 0 .48 1.45 2.373 2.373 0 0 0 1.03.95 3.973 3.973 0 0 0 1.8.35 11.328 11.328 0 0 0 1.4-.09 4.533 4.533 0 0 0 1.15-.27.281.281 0 0 0 .18-.15.226.226 0 0 0 .02-.16l-.05-.23a.2.2 0 0 0-.24-.17c-.19.03-.4.05-.64.07s-.47.03-.7.05-.45.03-.66.05-.36.01-.48.01a3.117 3.117 0 0 1-1.15-.18 1.5 1.5 0 0 1-.72-.6 3.061 3.061 0 0 1-.36-1.14 11.11 11.11 0 0 1-.11-1.78 11.733 11.733 0 0 1 .1-1.71 2.639 2.639 0 0 1 .36-1.1 1.4 1.4 0 0 1 .72-.59 3.425 3.425 0 0 1 1.16-.17c.18 0 .37.01.58.02s.43.03.64.04.42.04.62.07.38.04.53.05a.8.8 0 0 0 .22 0 .127.127 0 0 0 .11-.11l.07-.3a.915.915 0 0 0-.01-.16.221.221 0 0 0-.15-.15 4.419 4.419 0 0 0-.61-.18 8.629 8.629 0 0 0-1.41-.18c-.23-.01-.42-.02-.57-.02a3.828 3.828 0 0 0-1.8.37zm13.2.01a.291.291 0 0 0 .03-.14.1.1 0 0 0-.12-.06h-.7a.169.169 0 0 0-.12.04.4.4 0 0 0-.06.13l-2.2 6.57-.3 1.04-.33-.99-2.39-6.57a.221.221 0 0 0-.2-.2h-.65a.1.1 0 0 0-.12.06.232.232 0 0 0 .02.16l3.16 8.67-.97 2.81c-.03.15.01.22.15.22h.52a.31.31 0 0 0 .21-.06.273.273 0 0 0 .11-.16zm8.4.43v-.39a.286.286 0 0 0-.05-.17.191.191 0 0 0-.18-.07h-6.45a.238.238 0 0 0-.29.24v.39a.247.247 0 0 0 .29.26h2.7v7.65a.236.236 0 0 0 .29.23h.44a.228.228 0 0 0 .28-.23v-7.65h2.72a.23.23 0 0 0 .25-.26zm2.69 4.11h1.64a4.262 4.262 0 0 1 .64.05 1.679 1.679 0 0 1 .56.22 1.7 1.7 0 0 1 .47.46 3.351 3.351 0 0 1 .37.78l.75 2.3a.226.226 0 0 0 .11.18.342.342 0 0 0 .18.04h.52a.209.209 0 0 0 .21-.07.423.423 0 0 0-.01-.22l-.81-2.41c-.1-.26-.19-.5-.27-.71a2.318 2.318 0 0 0-.31-.54 1.836 1.836 0 0 0-.41-.38 2.055 2.055 0 0 0-.56-.24 1.407 1.407 0 0 0 .81-.61 5.313 5.313 0 0 0 .56-1.19l.7-2.11a.285.285 0 0 0 .03-.21.238.238 0 0 0-.23-.08h-.45a.29.29 0 0 0-.3.24l-.72 2.12a2.366 2.366 0 0 1-.4.78 1.894 1.894 0 0 1-.49.46 1.468 1.468 0 0 1-.53.21 3.139 3.139 0 0 1-.51.05h-1.55v-3.66a.175.175 0 0 0-.2-.2h-.62a.17.17 0 0 0-.18.2v8.37a.17.17 0 0 0 .18.2h.62a.175.175 0 0 0 .2-.2v-3.83zm7.31 3.78a.209.209 0 0 0 .23.25h.34a.358.358 0 0 0 .21-.05 1.538 1.538 0 0 0 .12-.13l3.18-4.36 1.95-2.75v7.04a.229.229 0 0 0 .27.25h.46a.229.229 0 0 0 .27-.25v-8.28a.215.215 0 0 0-.25-.24h-.42a.254.254 0 0 0-.21.07 2.059 2.059 0 0 0-.16.15l-2.75 3.73-2.27 3.15v-6.84a.223.223 0 0 0-.24-.26h-.48a.225.225 0 0 0-.25.26v8.26z" transform="translate(-1379.53 -1077.62)"/><path id="более" class="cls-1" d="M1572.49 1085.47a.2.2 0 0 0 .24.21h2.69a3.606 3.606 0 0 0 1-.14 2.407 2.407 0 0 0 .84-.44 2.1 2.1 0 0 0 .57-.74 2.382 2.382 0 0 0 .21-1.04 3.673 3.673 0 0 0-.11-.85 1.817 1.817 0 0 0-.4-.78 2.01 2.01 0 0 0-.79-.58 3.119 3.119 0 0 0-1.28-.23h-1.6v-1.98h3.25a.2.2 0 0 0 .24-.22v-.73a.192.192 0 0 0-.22-.22h-4.44a.19.19 0 0 0-.2.22v7.52zm3.81-1.25a1.486 1.486 0 0 1-.99.31h-1.46v-2.51h1.54a1.2 1.2 0 0 1 1 .36 1.451 1.451 0 0 1 .28.93 1.1 1.1 0 0 1-.37.91zm9.36-4.06a3.427 3.427 0 0 0-.45-1.28 2.37 2.37 0 0 0-.99-.91 3.509 3.509 0 0 0-1.71-.35 3.553 3.553 0 0 0-1.24.19 2.686 2.686 0 0 0-.87.52 2.528 2.528 0 0 0-.58.73 4.526 4.526 0 0 0-.34.86 4.4 4.4 0 0 0-.15.87 7.774 7.774 0 0 0-.04.8c0 .31.01.63.04.96a6 6 0 0 0 .14.96 3.693 3.693 0 0 0 .32.88 2.368 2.368 0 0 0 .57.73 2.58 2.58 0 0 0 .88.49 3.9 3.9 0 0 0 1.26.18 3.363 3.363 0 0 0 1.77-.4 2.68 2.68 0 0 0 .98-1 4.016 4.016 0 0 0 .43-1.36 12.1 12.1 0 0 0 .09-1.44 8.529 8.529 0 0 0-.11-1.43zm-1.36 2.79a2.7 2.7 0 0 1-.3.91 1.483 1.483 0 0 1-.58.56 1.89 1.89 0 0 1-.91.19 1.7 1.7 0 0 1-.89-.2 1.376 1.376 0 0 1-.55-.57 2.565 2.565 0 0 1-.28-.91 8.875 8.875 0 0 1 .01-2.45 2.843 2.843 0 0 1 .3-.92 1.439 1.439 0 0 1 .55-.57 1.709 1.709 0 0 1 .86-.2 2.014 2.014 0 0 1 .91.19 1.457 1.457 0 0 1 .58.55 2.764 2.764 0 0 1 .3.92 7.8 7.8 0 0 1 .09 1.27 7.539 7.539 0 0 1-.09 1.23zm5.56-4.05h2.02v6.55a.205.205 0 0 0 .24.23h.9a.206.206 0 0 0 .17-.06.267.267 0 0 0 .04-.17v-7.48a.2.2 0 0 0-.21-.24h-4.11a.212.212 0 0 0-.24.24l-.29 4.63a9.007 9.007 0 0 1-.12 1.02 1.86 1.86 0 0 1-.21.63.892.892 0 0 1-.37.35 2.776 2.776 0 0 1-.59.18.3.3 0 0 0-.17.07.283.283 0 0 0-.04.16l.02.53a.249.249 0 0 0 .07.2.541.541 0 0 0 .29.05 2.755 2.755 0 0 0 1.23-.25 1.572 1.572 0 0 0 .71-.73 3.759 3.759 0 0 0 .35-1.28c.07-.52.13-1.14.17-1.88zm5.6 6.57a.2.2 0 0 0 .24.21h4.48a.2.2 0 0 0 .23-.21v-.74a.192.192 0 0 0-.22-.22h-3.36v-2.37h2.91a.2.2 0 0 0 .24-.21v-.75a.2.2 0 0 0-.24-.21h-2.91v-2.08h3.28a.2.2 0 0 0 .24-.21v-.74a.206.206 0 0 0-.23-.23h-4.42a.212.212 0 0 0-.24.24v7.52zm6.77 0a.2.2 0 0 0 .24.21h4.48a.2.2 0 0 0 .23-.21v-.74a.192.192 0 0 0-.22-.22h-3.36v-2.37h2.91a.2.2 0 0 0 .24-.21v-.75a.2.2 0 0 0-.24-.21h-2.91v-2.08h3.28a.2.2 0 0 0 .24-.21v-.74a.206.206 0 0 0-.23-.23h-4.42a.212.212 0 0 0-.24.24v7.52z" transform="translate(-1379.53 -1077.62)"/><path id="млрд" class="cls-1" d="M1619.81 1145.4l-1.06-2.29-2.44-5.04a.676.676 0 0 0-.2-.27.707.707 0 0 0-.38-.07h-1.13a.282.282 0 0 0-.32.32v11.29a.3.3 0 0 0 .34.34h1.33a.277.277 0 0 0 .26-.1.427.427 0 0 0 .06-.24v-7.22h.04l.59 1.26 2.05 4.2a.713.713 0 0 0 .2.22.585.585 0 0 0 .34.08h.68a.477.477 0 0 0 .31-.09.755.755 0 0 0 .21-.25l1.98-4.03.62-1.39h.06v7.22a.308.308 0 0 0 .36.34h1.31a.277.277 0 0 0 .26-.1.361.361 0 0 0 .07-.24v-11.29a.341.341 0 0 0-.07-.22.25.25 0 0 0-.24-.1H1624a.659.659 0 0 0-.39.09.747.747 0 0 0-.21.27l-2.44 4.97-1.09 2.34h-.06zm11.98-5.89h3.02v9.83a.308.308 0 0 0 .36.34h1.35a.3.3 0 0 0 .26-.09.44.44 0 0 0 .06-.25v-11.23a.3.3 0 0 0-.32-.36h-6.16a.318.318 0 0 0-.36.36l-.43 6.95q-.075.945-.18 1.53a2.785 2.785 0 0 1-.32.94 1.309 1.309 0 0 1-.55.52 3.337 3.337 0 0 1-.89.28.5.5 0 0 0-.25.1.347.347 0 0 0-.06.24l.02.8a.421.421 0 0 0 .11.3.779.779 0 0 0 .43.07 4.093 4.093 0 0 0 1.85-.37 2.454 2.454 0 0 0 1.07-1.09 6.032 6.032 0 0 0 .53-1.92c.1-.78.18-1.72.24-2.83zm10.1 5.53h2.07a4.491 4.491 0 0 0 1.89-.35 3.352 3.352 0 0 0 1.19-.89 2.976 2.976 0 0 0 .61-1.2 4.891 4.891 0 0 0 .18-1.29 3.824 3.824 0 0 0-.3-1.57 3.019 3.019 0 0 0-.82-1.12 3.658 3.658 0 0 0-1.23-.67 5.034 5.034 0 0 0-1.52-.22h-3.75a.308.308 0 0 0-.36.34v11.27a.308.308 0 0 0 .36.34h1.35a.277.277 0 0 0 .26-.1.427.427 0 0 0 .07-.24v-4.3zm3.42-2.28a1.8 1.8 0 0 1-1.52.57h-1.9v-3.84h1.83a2.292 2.292 0 0 1 1.48.45 1.741 1.741 0 0 1 .56 1.43 2.167 2.167 0 0 1-.45 1.39zm12.1 9.23a.624.624 0 0 0 .08.36.289.289 0 0 0 .26.09h1.08a.3.3 0 0 0 .24-.09.971.971 0 0 0 .08-.4l.18-3.49a.4.4 0 0 0-.3-.47l-.69-.07v-9.81a.308.308 0 0 0-.34-.36h-6.61a.592.592 0 0 0-.41.11.626.626 0 0 0-.13.37l-.27 3.3c-.09 1.11-.19 2.19-.32 3.26q-.075.585-.18 1.05a7.457 7.457 0 0 1-.25.83 3.117 3.117 0 0 1-.36.65 4.451 4.451 0 0 1-.51.56l-.52.11a.524.524 0 0 0-.31.16.64.64 0 0 0-.05.34l.13 3.5a.682.682 0 0 0 .1.37.32.32 0 0 0 .26.08h1a.414.414 0 0 0 .3-.09.471.471 0 0 0 .12-.36c.02-.39.05-.77.07-1.16s.05-.77.07-1.15h7.17zm-6.11-4.09a2.92 2.92 0 0 0 .4-.59 3.562 3.562 0 0 0 .27-.74 9.063 9.063 0 0 0 .18-.93q.075-.51.12-1.17l.42-4.96h3.62v8.39h-5.01z" transform="translate(-1379.53 -1077.62)"/><path id="_5_2" data-name="5" class="cls-1" d="M1427.97 1387.7a16.61 16.61 0 0 0-9.14-4.22l-18.36-2.78 2.34-15.19h24.39a1.165 1.165 0 0 0 1.35-1.28v-4.01a1.006 1.006 0 0 0-1.17-1.1h-28.8a2.01 2.01 0 0 0-1.12.23 1.718 1.718 0 0 0-.5 1.03l-3.6 23.26a2.252 2.252 0 0 0 1.98 2.89l19.71 3.24a15.473 15.473 0 0 1 6.66 2.53q2.43 1.8 2.43 5.86a21.193 21.193 0 0 1-1.17 7.71 10.638 10.638 0 0 1-3.15 4.5 10.759 10.759 0 0 1-4.63 2.12 28.234 28.234 0 0 1-5.63.54 71.7 71.7 0 0 1-8.1-.45q-3.96-.45-7.11-.9a1.294 1.294 0 0 0-1.3.23 3.51 3.51 0 0 0-.5.85l-.45 2.31a2.212 2.212 0 0 0-.04 1.16 1.608 1.608 0 0 0 1.03.8 19.365 19.365 0 0 0 3.83 1.15c1.47.3 2.97.53 4.5.71s2.97.31 4.32.4 2.47.13 3.37.13a39.5 39.5 0 0 0 9.18-.99 16.406 16.406 0 0 0 7.07-3.5 16.128 16.128 0 0 0 4.5-6.7 30.517 30.517 0 0 0 1.57-10.64q0-6.555-3.46-9.89z" transform="translate(-1379.53 -1077.62)"/><path id="ступеней_консенсуса_для_верификации" data-name="ступеней консенсуса для верификации" class="cls-1" d="M1393.79 1436.41a2.522 2.522 0 0 0-1.03.99 3.948 3.948 0 0 0-.48 1.44 11.657 11.657 0 0 0-.11 1.7 12.8 12.8 0 0 0 .11 1.82 3.875 3.875 0 0 0 .48 1.45 2.455 2.455 0 0 0 1.03.96 3.982 3.982 0 0 0 1.8.34 11.328 11.328 0 0 0 1.4-.09 5.065 5.065 0 0 0 1.15-.26.354.354 0 0 0 .18-.15.253.253 0 0 0 .02-.17l-.05-.23a.2.2 0 0 0-.24-.16c-.19.02-.4.04-.64.06s-.47.04-.7.05-.45.04-.66.05-.36.02-.48.02a3.117 3.117 0 0 1-1.15-.18 1.471 1.471 0 0 1-.72-.61 3.067 3.067 0 0 1-.36-1.13 11.192 11.192 0 0 1-.11-1.78 11.789 11.789 0 0 1 .1-1.72 2.689 2.689 0 0 1 .36-1.1 1.381 1.381 0 0 1 .72-.58 3.193 3.193 0 0 1 1.16-.17c.18 0 .37 0 .58.01s.43.03.64.05l.62.06c.2.02.38.04.53.06a.8.8 0 0 0 .22 0 .139.139 0 0 0 .11-.11l.07-.31a.915.915 0 0 0-.01-.16.2.2 0 0 0-.15-.14 2.72 2.72 0 0 0-.61-.18 8.629 8.629 0 0 0-1.41-.18c-.23-.01-.42-.02-.57-.02a3.709 3.709 0 0 0-1.8.37zm12.94.44v-.4a.286.286 0 0 0-.04-.17.24.24 0 0 0-.19-.06h-6.45a.228.228 0 0 0-.28.23v.4a.233.233 0 0 0 .28.25h2.7v7.65c0 .16.1.23.3.23h.44a.22.22 0 0 0 .27-.23v-7.65h2.72a.218.218 0 0 0 .25-.25zm8.56-.43a.494.494 0 0 0 .03-.15.115.115 0 0 0-.12-.05h-.7a.174.174 0 0 0-.12.03.535.535 0 0 0-.06.13l-2.2 6.57-.31 1.04-.32-.99-2.39-6.57a.218.218 0 0 0-.2-.19h-.65a.128.128 0 0 0-.13.06.283.283 0 0 0 .02.15l3.17 8.68-.97 2.81c-.04.14.01.21.14.21h.52a.42.42 0 0 0 .22-.05.381.381 0 0 0 .11-.16zm8.7 8.35v-8.35a.175.175 0 0 0-.2-.2h-6.48a.186.186 0 0 0-.23.2v8.35a.179.179 0 0 0 .2.21h.58a.189.189 0 0 0 .22-.21v-7.67h4.9v7.67a.179.179 0 0 0 .2.21h.59a.193.193 0 0 0 .22-.21zm3.8-8.32a2.794 2.794 0 0 0-1.07 1.06 4.088 4.088 0 0 0-.44 1.45 14.215 14.215 0 0 0-.09 1.58 16.006 16.006 0 0 0 .09 1.73 3.9 3.9 0 0 0 .44 1.47 2.623 2.623 0 0 0 1.05 1.01 4 4 0 0 0 1.9.38 7.051 7.051 0 0 0 .76-.04c.28-.02.56-.06.84-.1s.53-.09.77-.14.44-.11.58-.15a.266.266 0 0 0 .2-.31l-.06-.29a.19.19 0 0 0-.23-.14c-.16.01-.36.03-.6.05s-.5.05-.77.08-.52.06-.77.07-.47.03-.65.03a3.681 3.681 0 0 1-1.27-.18 1.517 1.517 0 0 1-.74-.57 2.76 2.76 0 0 1-.36-1.04 14.616 14.616 0 0 1-.13-1.54h5.34a.668.668 0 0 0 .59-.23 1.2 1.2 0 0 0 .15-.65 7.744 7.744 0 0 0-.13-1.45 3.222 3.222 0 0 0-.53-1.26 2.927 2.927 0 0 0-1.09-.89 4.151 4.151 0 0 0-1.83-.34 3.929 3.929 0 0 0-1.95.41zm3.31.74a1.862 1.862 0 0 1 .75.72 2.525 2.525 0 0 1 .34 1 10.778 10.778 0 0 1 .09 1.12h-5.04c.02-.49.06-.93.11-1.32a2.43 2.43 0 0 1 .35-.98 1.672 1.672 0 0 1 .73-.6 3.348 3.348 0 0 1 1.31-.21 2.852 2.852 0 0 1 1.36.27zm10.83 7.56v-8.3a.22.22 0 0 0-.26-.23h-.46a.236.236 0 0 0-.29.23v3.44h-4.95v-3.44a.224.224 0 0 0-.27-.23h-.48a.22.22 0 0 0-.26.23v8.3a.216.216 0 0 0 .26.23h.48a.22.22 0 0 0 .27-.23v-3.98h4.95v3.98a.232.232 0 0 0 .29.23h.46a.216.216 0 0 0 .26-.23zm3.75-8.3a2.765 2.765 0 0 0-1.06 1.06 4.088 4.088 0 0 0-.44 1.45 14.215 14.215 0 0 0-.09 1.58 16.006 16.006 0 0 0 .09 1.73 3.9 3.9 0 0 0 .44 1.47 2.534 2.534 0 0 0 1.04 1.01 4.025 4.025 0 0 0 1.9.38 7.36 7.36 0 0 0 .77-.04c.28-.02.56-.06.83-.1s.54-.09.78-.14.43-.11.57-.15a.258.258 0 0 0 .2-.31l-.05-.29a.206.206 0 0 0-.24-.14c-.15.01-.35.03-.6.05s-.5.05-.76.08-.53.06-.78.07-.47.03-.65.03a3.619 3.619 0 0 1-1.26-.18 1.474 1.474 0 0 1-.74-.57 2.453 2.453 0 0 1-.36-1.04 14.35 14.35 0 0 1-.14-1.54h5.35a.647.647 0 0 0 .58-.23 1.2 1.2 0 0 0 .16-.65 7.747 7.747 0 0 0-.14-1.45 3.222 3.222 0 0 0-.53-1.26 2.85 2.85 0 0 0-1.09-.89 4.122 4.122 0 0 0-1.83-.34 3.981 3.981 0 0 0-1.95.41zm3.31.74a1.955 1.955 0 0 1 .76.72 2.683 2.683 0 0 1 .33 1 10.778 10.778 0 0 1 .09 1.12h-5.04q.045-.735.12-1.32a2.423 2.423 0 0 1 .34-.98 1.646 1.646 0 0 1 .74-.6 3.294 3.294 0 0 1 1.3-.21 2.852 2.852 0 0 1 1.36.27zm8.58-2.5a2.814 2.814 0 0 0 1.05-1.15 1.712 1.712 0 0 1 .09-.22.165.165 0 0 0-.04-.2l-.27-.2a.219.219 0 0 0-.27.06 5.142 5.142 0 0 1-.9.91 1.631 1.631 0 0 1-.94.28 2.294 2.294 0 0 1-.55-.07 1.684 1.684 0 0 1-.48-.2 2.894 2.894 0 0 1-.44-.36 4.285 4.285 0 0 1-.45-.54.177.177 0 0 0-.27-.06l-.27.22a.186.186 0 0 0-.05.21c.03.09.06.15.08.2a2.5 2.5 0 0 0 1.04 1.13 2.9 2.9 0 0 0 1.36.35 2.614 2.614 0 0 0 1.31-.36zm-4.71 10.04a.209.209 0 0 0 .23.25h.34a.3.3 0 0 0 .21-.05 1.538 1.538 0 0 0 .12-.13l3.18-4.35 1.95-2.76v7.04a.229.229 0 0 0 .27.25h.46a.229.229 0 0 0 .27-.25v-8.28a.213.213 0 0 0-.25-.23h-.42a.293.293 0 0 0-.21.06 2.059 2.059 0 0 0-.16.15l-2.75 3.73-2.27 3.15v-6.84a.215.215 0 0 0-.24-.25h-.48a.218.218 0 0 0-.25.25v8.26zm-59.54 16.22h1.64a3.134 3.134 0 0 1 .63.06 1.412 1.412 0 0 1 .56.21 1.577 1.577 0 0 1 .47.46 3.156 3.156 0 0 1 .37.78l.76 2.31a.3.3 0 0 0 .1.18.484.484 0 0 0 .18.03h.53a.19.19 0 0 0 .2-.07.309.309 0 0 0-.01-.21l-.81-2.42c-.09-.26-.18-.5-.27-.71a1.993 1.993 0 0 0-.3-.54 1.9 1.9 0 0 0-.42-.38 1.986 1.986 0 0 0-.55-.24 1.455 1.455 0 0 0 .81-.6 5.2 5.2 0 0 0 .55-1.2l.71-2.1a.356.356 0 0 0 .02-.22.219.219 0 0 0-.22-.07h-.45a.3.3 0 0 0-.31.23l-.72 2.13a2.834 2.834 0 0 1-.39.78 2.114 2.114 0 0 1-.5.46 1.379 1.379 0 0 1-.53.2 3.13 3.13 0 0 1-.5.05h-1.55v-3.65a.175.175 0 0 0-.2-.2h-.63a.166.166 0 0 0-.18.2v8.37a.162.162 0 0 0 .18.19h.63a.172.172 0 0 0 .2-.19v-3.84zm12.43 3.75a2.762 2.762 0 0 0 1.09-1.08 4.094 4.094 0 0 0 .45-1.51 15.527 15.527 0 0 0 .09-1.66 12.429 12.429 0 0 0-.11-1.64 3.759 3.759 0 0 0-.5-1.41 2.59 2.59 0 0 0-1.1-.99 4.179 4.179 0 0 0-1.92-.37 3.513 3.513 0 0 0-1.88.43 3.015 3.015 0 0 0-1.07 1.09 3.877 3.877 0 0 0-.46 1.43 10.86 10.86 0 0 0-.1 1.46 15.435 15.435 0 0 0 .08 1.67 4.082 4.082 0 0 0 .43 1.5 2.682 2.682 0 0 0 1.05 1.09 3.816 3.816 0 0 0 1.95.42 3.883 3.883 0 0 0 2-.43zm-.66-7.54a1.862 1.862 0 0 1 .8.72 3.066 3.066 0 0 1 .39 1.14 11.8 11.8 0 0 1 .1 1.56 10.386 10.386 0 0 1-.11 1.58 3.188 3.188 0 0 1-.4 1.15 1.819 1.819 0 0 1-.8.7 3.115 3.115 0 0 1-1.32.24 2.882 2.882 0 0 1-1.28-.25 1.76 1.76 0 0 1-.76-.72 3.383 3.383 0 0 1-.37-1.15 11.994 11.994 0 0 1-.09-1.55 11.832 11.832 0 0 1 .09-1.54 3.311 3.311 0 0 1 .37-1.15 1.843 1.843 0 0 1 .76-.73 2.892 2.892 0 0 1 1.28-.24 3.182 3.182 0 0 1 1.34.24zm11.49 7.59v-8.3a.22.22 0 0 0-.26-.23h-.46a.236.236 0 0 0-.29.23v3.44h-4.95v-3.44a.224.224 0 0 0-.27-.23h-.48a.22.22 0 0 0-.26.23v8.3a.216.216 0 0 0 .26.23h.48a.22.22 0 0 0 .27-.23v-3.98h4.95v3.98a.232.232 0 0 0 .29.23h.46a.216.216 0 0 0 .26-.23zm3.78-8.34a2.549 2.549 0 0 0-1.04.99 3.941 3.941 0 0 0-.47 1.44 11.63 11.63 0 0 0-.12 1.7 12.73 12.73 0 0 0 .12 1.82 3.871 3.871 0 0 0 .47 1.45 2.482 2.482 0 0 0 1.04.96 3.965 3.965 0 0 0 1.79.34 11.206 11.206 0 0 0 1.4-.09 5.168 5.168 0 0 0 1.16-.26.474.474 0 0 0 .18-.15.25.25 0 0 0 .01-.17l-.05-.23a.188.188 0 0 0-.23-.16c-.2.02-.41.04-.64.06s-.47.04-.7.05-.46.04-.66.05-.37.02-.49.02a3.117 3.117 0 0 1-1.15-.18 1.407 1.407 0 0 1-.71-.61 3.059 3.059 0 0 1-.37-1.13 12.516 12.516 0 0 1-.11-1.78 13.391 13.391 0 0 1 .1-1.72 3.025 3.025 0 0 1 .36-1.1 1.463 1.463 0 0 1 .72-.58 3.229 3.229 0 0 1 1.16-.17c.18 0 .38 0 .59.01s.42.03.64.05l.62.06c.2.03.37.04.53.06a.735.735 0 0 0 .21 0 .139.139 0 0 0 .11-.11l.07-.31v-.16a.2.2 0 0 0-.16-.14 2.573 2.573 0 0 0-.61-.18c-.23-.05-.46-.09-.7-.12s-.48-.05-.7-.06-.42-.02-.58-.02a3.693 3.693 0 0 0-1.79.37zm7.53.04a2.765 2.765 0 0 0-1.06 1.06 4.088 4.088 0 0 0-.44 1.45 14.215 14.215 0 0 0-.09 1.58 16.006 16.006 0 0 0 .09 1.73 3.9 3.9 0 0 0 .44 1.47 2.534 2.534 0 0 0 1.04 1.01 4.053 4.053 0 0 0 1.9.38 7.228 7.228 0 0 0 .77-.04c.28-.02.56-.06.83-.1s.54-.09.78-.14.43-.11.57-.15a.258.258 0 0 0 .2-.31l-.05-.29a.206.206 0 0 0-.24-.14c-.15.01-.35.03-.6.05s-.5.05-.76.08-.53.06-.78.07-.47.03-.65.03a3.619 3.619 0 0 1-1.26-.18 1.474 1.474 0 0 1-.74-.57 2.453 2.453 0 0 1-.36-1.04 14.35 14.35 0 0 1-.14-1.54h5.35a.647.647 0 0 0 .58-.23 1.117 1.117 0 0 0 .16-.65 7.747 7.747 0 0 0-.14-1.45 3.222 3.222 0 0 0-.53-1.26 2.85 2.85 0 0 0-1.09-.89 4.122 4.122 0 0 0-1.83-.34 3.981 3.981 0 0 0-1.95.41zm3.31.74a1.889 1.889 0 0 1 .76.72 2.683 2.683 0 0 1 .33 1 10.778 10.778 0 0 1 .09 1.12h-5.04q.045-.735.12-1.32a2.423 2.423 0 0 1 .34-.98 1.7 1.7 0 0 1 .74-.6 3.294 3.294 0 0 1 1.3-.21 2.852 2.852 0 0 1 1.36.27zm10.83 7.56v-8.3a.213.213 0 0 0-.25-.23h-.46a.232.232 0 0 0-.29.23v3.44h-4.95v-3.44a.232.232 0 0 0-.28-.23h-.48a.213.213 0 0 0-.25.23v8.3a.209.209 0 0 0 .25.23h.48a.228.228 0 0 0 .28-.23v-3.98h4.95v3.98c0 .16.09.23.29.23h.46a.209.209 0 0 0 .25-.23zm3.78-8.34a2.522 2.522 0 0 0-1.03.99 3.948 3.948 0 0 0-.48 1.44 11.657 11.657 0 0 0-.11 1.7 12.8 12.8 0 0 0 .11 1.82 3.875 3.875 0 0 0 .48 1.45 2.455 2.455 0 0 0 1.03.96 3.982 3.982 0 0 0 1.8.34 11.328 11.328 0 0 0 1.4-.09 5.065 5.065 0 0 0 1.15-.26.354.354 0 0 0 .18-.15.253.253 0 0 0 .02-.17l-.05-.23a.2.2 0 0 0-.24-.16c-.19.02-.4.04-.64.06s-.47.04-.7.05-.45.04-.66.05-.36.02-.48.02a3.117 3.117 0 0 1-1.15-.18 1.471 1.471 0 0 1-.72-.61 3.067 3.067 0 0 1-.36-1.13 11.192 11.192 0 0 1-.11-1.78 11.789 11.789 0 0 1 .1-1.72 2.689 2.689 0 0 1 .36-1.1 1.381 1.381 0 0 1 .72-.58 3.193 3.193 0 0 1 1.16-.17c.18 0 .37 0 .58.01s.43.03.64.05l.62.06c.2.02.38.04.53.06a.8.8 0 0 0 .22 0 .139.139 0 0 0 .11-.11l.07-.31a.915.915 0 0 0-.01-.16.2.2 0 0 0-.15-.14 2.72 2.72 0 0 0-.61-.18 8.629 8.629 0 0 0-1.41-.18c-.23-.01-.42-.02-.57-.02a3.709 3.709 0 0 0-1.8.37zm13.2.01a.306.306 0 0 0 .03-.15.115.115 0 0 0-.12-.05h-.7a.174.174 0 0 0-.12.03.535.535 0 0 0-.06.13l-2.2 6.57-.3 1.04-.33-.99-2.39-6.57a.21.21 0 0 0-.2-.19h-.65a.1.1 0 0 0-.12.06.21.21 0 0 0 .02.15l3.16 8.68-.97 2.81c-.03.14.01.21.15.21h.52a.381.381 0 0 0 .21-.05.309.309 0 0 0 .11-.16zm2.96-.01a2.549 2.549 0 0 0-1.04.99 3.948 3.948 0 0 0-.48 1.44 13.245 13.245 0 0 0-.11 1.7 14.471 14.471 0 0 0 .11 1.82 3.875 3.875 0 0 0 .48 1.45 2.482 2.482 0 0 0 1.04.96 3.937 3.937 0 0 0 1.79.34 11.328 11.328 0 0 0 1.4-.09 4.939 4.939 0 0 0 1.15-.26.354.354 0 0 0 .18-.15.253.253 0 0 0 .02-.17l-.05-.23a.193.193 0 0 0-.24-.16c-.19.02-.4.04-.64.06s-.46.04-.7.05-.45.04-.65.05-.37.02-.49.02a3.117 3.117 0 0 1-1.15-.18 1.407 1.407 0 0 1-.71-.61 2.886 2.886 0 0 1-.37-1.13 12.516 12.516 0 0 1-.11-1.78 11.789 11.789 0 0 1 .1-1.72 2.689 2.689 0 0 1 .36-1.1 1.381 1.381 0 0 1 .72-.58 3.193 3.193 0 0 1 1.16-.17c.18 0 .37 0 .58.01s.43.03.64.05.43.04.62.06.38.04.54.06a.735.735 0 0 0 .21 0 .139.139 0 0 0 .11-.11l.07-.31a.915.915 0 0 0-.01-.16.168.168 0 0 0-.15-.14 2.573 2.573 0 0 0-.61-.18c-.23-.05-.46-.09-.7-.12s-.48-.05-.71-.06-.42-.02-.57-.02a3.667 3.667 0 0 0-1.79.37zm12.15 7.55a1.1 1.1 0 0 0 .44.95 2.166 2.166 0 0 0 1.26.13.609.609 0 0 0 .21-.09.2.2 0 0 0 .06-.15v-.36a.166.166 0 0 0-.2-.16c-.16-.01-.28-.03-.38-.04a.41.41 0 0 1-.22-.1.367.367 0 0 1-.12-.21 1.327 1.327 0 0 1-.04-.39v-4.42a6.805 6.805 0 0 0-.12-1.36 2.2 2.2 0 0 0-.48-.98 2.107 2.107 0 0 0-.97-.57 5.645 5.645 0 0 0-1.63-.19c-.19 0-.41.01-.66.02s-.5.03-.76.06-.53.07-.78.12a4.439 4.439 0 0 0-.66.18.28.28 0 0 0-.2.27l.07.32c.01.1.1.14.27.13.42-.05.86-.09 1.33-.13s.9-.05 1.28-.05a5.01 5.01 0 0 1 1.13.11 1.741 1.741 0 0 1 .72.36 1.325 1.325 0 0 1 .36.62 3.937 3.937 0 0 1 .09.91v.81h-2.79a3.5 3.5 0 0 0-2.45.72 2.969 2.969 0 0 0-.77 2.26 2.606 2.606 0 0 0 .54 1.79 2.246 2.246 0 0 0 1.77.61 6.126 6.126 0 0 0 1.09-.1 6.726 6.726 0 0 0 .96-.26 6.45 6.45 0 0 0 .84-.37c.27-.14.53-.29.8-.44h.01zm0-.87c-.16.1-.38.21-.64.34s-.56.25-.87.37a8.046 8.046 0 0 1-.95.3 3.346 3.346 0 0 1-.88.13 1.845 1.845 0 0 1-1.27-.33 1.6 1.6 0 0 1-.35-1.22 2.928 2.928 0 0 1 .14-1.01 1.569 1.569 0 0 1 .41-.63 1.587 1.587 0 0 1 .65-.32 3.7 3.7 0 0 1 .85-.09h2.91v2.46zm14.13 1.01h-5.31a3.053 3.053 0 0 0 .66-1.2 9.167 9.167 0 0 0 .22-.9c.06-.35.13-.78.19-1.28.08-.61.16-1.22.23-1.81s.14-1.2.22-1.81h3.79v7zm.65.88l.07 2.02a.344.344 0 0 0 .06.25.2.2 0 0 0 .16.06h.41a.184.184 0 0 0 .16-.06.518.518 0 0 0 .06-.27l.14-2.57a.239.239 0 0 0-.21-.25l-.52-.06v-7.58a.272.272 0 0 0-.31-.3h-4.48a.877.877 0 0 0-.64.17.9.9 0 0 0-.23.48l-.57 4.37a7.954 7.954 0 0 1-.41 1.71 2.488 2.488 0 0 1-.89 1.15l-.45.07a.529.529 0 0 0-.2.1.3.3 0 0 0-.05.25l.07 2.48a.344.344 0 0 0 .06.25.2.2 0 0 0 .16.06h.47a.155.155 0 0 0 .12-.08.463.463 0 0 0 .07-.27l.13-1.98h6.82zm6.02-8.76a1.07 1.07 0 0 0-.66.16.841.841 0 0 0-.24.63l-.4 4.57c-.05.51-.11.93-.17 1.26a2.516 2.516 0 0 1-.3.82 1.266 1.266 0 0 1-.52.48 2.353 2.353 0 0 1-.86.21.689.689 0 0 0-.18.05.179.179 0 0 0-.04.15v.38a.2.2 0 0 0 .25.2 3.255 3.255 0 0 0 1.41-.26 1.952 1.952 0 0 0 .79-.71 2.917 2.917 0 0 0 .37-1q.09-.57.15-1.2l.4-4.86h3.61v7.65a.228.228 0 0 0 .28.23h.49a.205.205 0 0 0 .24-.23v-8.3a.213.213 0 0 0-.25-.23h-4.37zm6.66 3.23a1.825 1.825 0 0 0 .7 1.18 2 2 0 0 0 .75.34 1.592 1.592 0 0 0-.67.59 4.063 4.063 0 0 0-.43.98l-.72 2.16a.309.309 0 0 0-.01.21.209.209 0 0 0 .21.07h.52a.484.484 0 0 0 .18-.03.31.31 0 0 0 .11-.18l.68-2.05a3.457 3.457 0 0 1 .33-.74 1.833 1.833 0 0 1 .42-.45 1.34 1.34 0 0 1 .5-.23 3.776 3.776 0 0 1 .6-.08h2.43v3.49a.243.243 0 0 0 .28.26h.4a.267.267 0 0 0 .33-.26v-8.26a.257.257 0 0 0-.32-.25h-3.4a3.859 3.859 0 0 0-1.13.16 2.931 2.931 0 0 0-.95.48 2.256 2.256 0 0 0-.64.79 2.479 2.479 0 0 0-.24 1.13 4.248 4.248 0 0 0 .07.69zm1.1-1.44a1.387 1.387 0 0 1 .45-.51 1.82 1.82 0 0 1 .68-.29 3.886 3.886 0 0 1 .85-.09h2.52v3.22h-2.63a3.736 3.736 0 0 1-.77-.07 1.956 1.956 0 0 1-.65-.25 1.3 1.3 0 0 1-.45-.48 1.694 1.694 0 0 1-.16-.77 1.742 1.742 0 0 1 .16-.76zm-110.14 18.21a.216.216 0 0 0-.27.21v8.3a.227.227 0 0 0 .08.19.408.408 0 0 0 .27.06h3.72a3.333 3.333 0 0 0 1.12-.17 2.653 2.653 0 0 0 .87-.49 2.341 2.341 0 0 0 .58-.78 2.466 2.466 0 0 0 .2-.99 3.276 3.276 0 0 0-.06-.59 2.359 2.359 0 0 0-.22-.63 2.133 2.133 0 0 0-.45-.56 1.8 1.8 0 0 0-.71-.39 2.6 2.6 0 0 0 .62-.44 1.691 1.691 0 0 0 .34-.48 2.039 2.039 0 0 0 .17-.51 2.526 2.526 0 0 0 .04-.46 2.185 2.185 0 0 0-.64-1.63 2.794 2.794 0 0 0-2.06-.64h-3.6zm3.65 4.64a2.386 2.386 0 0 1 .9.15 1.556 1.556 0 0 1 .59.36 1.4 1.4 0 0 1 .33.53 2.065 2.065 0 0 1 .1.62 1.785 1.785 0 0 1-.1.56 1.308 1.308 0 0 1-.34.51 1.76 1.76 0 0 1-.62.37 3.059 3.059 0 0 1-.97.14h-2.8v-3.24h2.91zm-.2-3.76a1.91 1.91 0 0 1 1.43.43 1.421 1.421 0 0 1 .42 1.02 1.253 1.253 0 0 1-.68 1.16 1.986 1.986 0 0 1-.63.23 3.016 3.016 0 0 1-.63.08h-2.62v-2.92h2.71zm6.44-.65a2.7 2.7 0 0 0-1.06 1.06 3.905 3.905 0 0 0-.45 1.45 14.215 14.215 0 0 0-.09 1.58 16.006 16.006 0 0 0 .09 1.73 3.731 3.731 0 0 0 .45 1.47 2.534 2.534 0 0 0 1.04 1.01 4 4 0 0 0 1.9.38 7.051 7.051 0 0 0 .76-.04c.29-.02.56-.06.84-.1s.53-.09.77-.14.44-.11.58-.15a.266.266 0 0 0 .2-.31l-.06-.29a.19.19 0 0 0-.23-.14c-.16.01-.36.03-.6.05s-.5.05-.77.08-.52.06-.77.07-.47.03-.65.03a3.681 3.681 0 0 1-1.27-.18 1.517 1.517 0 0 1-.74-.57 2.76 2.76 0 0 1-.36-1.04 14.616 14.616 0 0 1-.13-1.54h5.34a.668.668 0 0 0 .59-.23 1.2 1.2 0 0 0 .15-.65 7.744 7.744 0 0 0-.13-1.45 3.222 3.222 0 0 0-.53-1.26 2.927 2.927 0 0 0-1.09-.89 4.122 4.122 0 0 0-1.83-.34 3.929 3.929 0 0 0-1.95.41zm3.31.74a1.955 1.955 0 0 1 .76.72 2.683 2.683 0 0 1 .33 1 10.778 10.778 0 0 1 .09 1.12h-5.04a11.952 11.952 0 0 1 .12-1.32 2.283 2.283 0 0 1 .34-.98 1.646 1.646 0 0 1 .74-.6 3.26 3.26 0 0 1 1.3-.21 2.852 2.852 0 0 1 1.36.27zm4.94.87c.16-.09.36-.19.62-.32s.53-.25.83-.37.6-.22.91-.32a2.9 2.9 0 0 1 .83-.13 2.4 2.4 0 0 1 .87.14 1.126 1.126 0 0 1 .56.54 3.13 3.13 0 0 1 .3 1.06 16.152 16.152 0 0 1 .08 1.74 15.4 15.4 0 0 1-.09 1.82 3.583 3.583 0 0 1-.35 1.19 1.55 1.55 0 0 1-.68.64 2.571 2.571 0 0 1-1.08.2 8.6 8.6 0 0 1-1.32-.11 11.665 11.665 0 0 1-1.48-.36v-5.72zm0 6.52l.02-.04a5.963 5.963 0 0 0 1.48.47 6.93 6.93 0 0 0 1.19.12 3.908 3.908 0 0 0 1.64-.3 2.319 2.319 0 0 0 1.04-.89 4.226 4.226 0 0 0 .53-1.48 12.111 12.111 0 0 0 .15-2.03 12.292 12.292 0 0 0-.13-1.93 3.809 3.809 0 0 0-.44-1.37 2.008 2.008 0 0 0-.84-.82 2.945 2.945 0 0 0-1.33-.27 3.616 3.616 0 0 0-1.03.15 8.485 8.485 0 0 0-.97.35 7.422 7.422 0 0 0-.8.41c-.23.13-.41.25-.53.33l.02-.79a.3.3 0 0 0-.06-.22.406.406 0 0 0-.21-.05h-.5a.226.226 0 0 0-.24.27v11.37a.234.234 0 0 0 .24.29h.5a.406.406 0 0 0 .21-.05.347.347 0 0 0 .06-.24v-3.28zm8.11.15a.215.215 0 0 0 .24.25h.34a.283.283 0 0 0 .2-.05.489.489 0 0 0 .12-.13l3.19-4.35 1.94-2.76v7.04a.233.233 0 0 0 .28.25h.45a.233.233 0 0 0 .28-.25v-8.28a.22.22 0 0 0-.26-.23h-.42a.293.293 0 0 0-.21.06l-.15.15-2.76 3.73-2.27 3.15v-6.84a.209.209 0 0 0-.23-.25h-.49a.222.222 0 0 0-.25.25v8.26zm9.28-2.39a3.784 3.784 0 0 0 .72 1.43 3.522 3.522 0 0 0 1.29.96 4.891 4.891 0 0 0 1.94.38v2.83a.176.176 0 0 0 .19.21h.6c.11 0 .16-.06.16-.2v-2.84a4.826 4.826 0 0 0 1.93-.41 3.458 3.458 0 0 0 1.29-.98 3.741 3.741 0 0 0 .71-1.44 6.723 6.723 0 0 0 .23-1.78 7.426 7.426 0 0 0-.18-1.64 3.548 3.548 0 0 0-.66-1.4 3.311 3.311 0 0 0-1.28-.99 5.122 5.122 0 0 0-2.04-.41v-2.79a.233.233 0 0 0-.04-.18.236.236 0 0 0-.16-.04h-.56a.18.18 0 0 0-.19.22v2.79a4.88 4.88 0 0 0-2.06.43 3.472 3.472 0 0 0-1.28 1.03 3.811 3.811 0 0 0-.66 1.43 7.291 7.291 0 0 0-.18 1.61 6.778 6.778 0 0 0 .23 1.78zm.94-3.19a3.156 3.156 0 0 1 .53-1.14 2.407 2.407 0 0 1 .96-.75 4.111 4.111 0 0 1 1.52-.29v7.26a3.264 3.264 0 0 1-2.41-.97 3.9 3.9 0 0 1-.76-2.63 6.218 6.218 0 0 1 .16-1.48zm6.35 4.11a3.249 3.249 0 0 1-2.39.97v-7.26a3.985 3.985 0 0 1 1.49.29 2.4 2.4 0 0 1 .98.75 3.142 3.142 0 0 1 .52 1.14 6.218 6.218 0 0 1 .16 1.48 3.9 3.9 0 0 1-.76 2.63zm3.77 1.47a.213.213 0 0 0 .23.25h.35a.283.283 0 0 0 .2-.05.741.741 0 0 0 .12-.13l3.19-4.35 1.94-2.76v7.04a.229.229 0 0 0 .27.25h.46a.233.233 0 0 0 .28-.25v-8.28a.22.22 0 0 0-.26-.23h-.42a.293.293 0 0 0-.21.06c-.04.04-.09.09-.16.15l-2.75 3.73-2.27 3.15v-6.84a.213.213 0 0 0-.23-.25h-.49a.218.218 0 0 0-.25.25v8.26zm10.31-3.78h1.64a3.31 3.31 0 0 1 .64.06 1.426 1.426 0 0 1 .55.21 1.577 1.577 0 0 1 .47.46 3.156 3.156 0 0 1 .37.78l.76 2.31a.3.3 0 0 0 .1.18.484.484 0 0 0 .18.03h.53c.12 0 .19-.02.2-.07a.309.309 0 0 0-.01-.21l-.81-2.42c-.09-.26-.18-.5-.27-.71a1.993 1.993 0 0 0-.3-.54 1.9 1.9 0 0 0-.42-.38 1.986 1.986 0 0 0-.55-.24 1.455 1.455 0 0 0 .81-.6 5.2 5.2 0 0 0 .55-1.2l.71-2.1a.356.356 0 0 0 .02-.22.209.209 0 0 0-.22-.07h-.45a.3.3 0 0 0-.31.23l-.72 2.13a2.834 2.834 0 0 1-.39.78 1.939 1.939 0 0 1-.5.46 1.379 1.379 0 0 1-.53.2 3.13 3.13 0 0 1-.5.05h-1.55v-3.65a.175.175 0 0 0-.2-.2h-.63a.166.166 0 0 0-.18.2v8.37a.162.162 0 0 0 .18.19h.63a.172.172 0 0 0 .2-.19v-3.84zm13.06 3.01a1.091 1.091 0 0 0 .43.95 2.166 2.166 0 0 0 1.26.13.686.686 0 0 0 .22-.09.246.246 0 0 0 .05-.15v-.36a.166.166 0 0 0-.2-.16c-.15-.01-.28-.03-.38-.04a.45.45 0 0 1-.22-.1.528.528 0 0 1-.12-.21 1.917 1.917 0 0 1-.03-.39v-4.42a6.749 6.749 0 0 0-.13-1.36 2.012 2.012 0 0 0-.48-.98 2.056 2.056 0 0 0-.97-.57 5.6 5.6 0 0 0-1.63-.19c-.19 0-.41.01-.65.02s-.51.03-.77.06-.52.07-.77.12a4.268 4.268 0 0 0-.67.18.294.294 0 0 0-.2.27l.07.32c.02.1.11.14.27.13.42-.05.87-.09 1.34-.13s.89-.05 1.27-.05a5.106 5.106 0 0 1 1.14.11 1.639 1.639 0 0 1 .71.36 1.325 1.325 0 0 1 .36.62 3.415 3.415 0 0 1 .1.91v.81h-2.79a3.51 3.51 0 0 0-2.46.72 2.967 2.967 0 0 0-.76 2.26 2.606 2.606 0 0 0 .54 1.79 2.222 2.222 0 0 0 1.76.61 6.242 6.242 0 0 0 1.1-.1 6.961 6.961 0 0 0 .95-.26 7.262 7.262 0 0 0 .85-.37c.26-.14.53-.29.79-.44h.02zm0-.87c-.17.1-.39.21-.65.34s-.55.25-.86.37a8.2 8.2 0 0 1-.96.3 3.289 3.289 0 0 1-.88.13 1.88 1.88 0 0 1-1.27-.33 1.644 1.644 0 0 1-.35-1.22 3.191 3.191 0 0 1 .14-1.01 1.587 1.587 0 0 1 .42-.63 1.527 1.527 0 0 1 .65-.32 3.606 3.606 0 0 1 .84-.09h2.92v2.46zm10.36-6.64a.22.22 0 0 0-.26-.23h-.48a.224.224 0 0 0-.27.23v7.63h-4.88v-7.63a.213.213 0 0 0-.25-.23h-.47a.213.213 0 0 0-.25.23v8.28a.218.218 0 0 0 .25.25h6.35l.08 1.89a.536.536 0 0 0 .06.26.158.158 0 0 0 .15.07h.43a.165.165 0 0 0 .16-.07.588.588 0 0 0 .06-.27l.14-2.45a.712.712 0 0 0-.03-.23.269.269 0 0 0-.2-.1l-.59-.03v-7.6zm2.45 8.28a.213.213 0 0 0 .23.25h.35a.283.283 0 0 0 .2-.05 1.538 1.538 0 0 0 .12-.13l3.19-4.35 1.94-2.76v7.04a.229.229 0 0 0 .27.25h.46a.233.233 0 0 0 .28-.25v-8.28a.22.22 0 0 0-.26-.23h-.42a.293.293 0 0 0-.21.06c-.04.04-.1.09-.16.15l-2.75 3.73-2.27 3.15v-6.84a.213.213 0 0 0-.23-.25h-.49a.218.218 0 0 0-.25.25v8.26zm9.3 0a.213.213 0 0 0 .23.25h.35a.283.283 0 0 0 .2-.05 1.538 1.538 0 0 0 .12-.13l3.19-4.35 1.94-2.76v7.04a.229.229 0 0 0 .27.25h.46a.233.233 0 0 0 .28-.25v-8.28a.22.22 0 0 0-.26-.23h-.42a.293.293 0 0 0-.21.06c-.04.04-.1.09-.16.15l-2.75 3.73-2.27 3.15v-6.84a.213.213 0 0 0-.23-.25h-.49a.218.218 0 0 0-.25.25v8.26z" transform="translate(-1379.53 -1077.62)"/><path id="_3" data-name="3" class="cls-1" d="M1417.28 1135.73a16.707 16.707 0 0 0-9-4.23l-7.2-1.26v-.09l15.3-14.31a6.7 6.7 0 0 0 1.35-1.75 5.817 5.817 0 0 0 .45-2.03v-3.6a1.348 1.348 0 0 0-.4-.9 1.564 1.564 0 0 0-1.22-.45h-34.11a1.076 1.076 0 0 0-1.26 1.17v3.87a1.193 1.193 0 0 0 1.35 1.35h26.55v.09l-16.47 15.42a3.242 3.242 0 0 0-.67.95 3.478 3.478 0 0 0-.23 1.4v2.7a1.768 1.768 0 0 0 1.71 1.9l10.8 1.8a14.7 14.7 0 0 1 6.8 2.53q2.295 1.8 2.29 5.86a20.1 20.1 0 0 1-1.26 7.8 10.681 10.681 0 0 1-3.42 4.51 11.724 11.724 0 0 1-4.9 2.07 32.207 32.207 0 0 1-5.72.5 71.7 71.7 0 0 1-8.1-.45q-3.96-.45-7.2-.9a1.3 1.3 0 0 0-1.3.22 3.568 3.568 0 0 0-.5.86l-.45 2.31a2.175 2.175 0 0 0-.04 1.15 1.578 1.578 0 0 0 1.03.8 18.571 18.571 0 0 0 3.87 1.15c1.5.3 3.02.54 4.55.71s2.98.31 4.36.4 2.49.14 3.33.14a42.189 42.189 0 0 0 9.5-.99 17.534 17.534 0 0 0 7.29-3.47 15.7 15.7 0 0 0 4.63-6.7 30.28 30.28 0 0 0 1.62-10.72c0-4.37-1.11-7.65-3.33-9.81z" transform="translate(-1379.53 -1077.62)"/><path id="подтверждение_транзакции_" data-name="подтверждение транзакции" class="cls-2" d="M1387.72 1190.26v-8.35a.175.175 0 0 0-.2-.2h-6.48a.194.194 0 0 0-.23.2v8.35a.19.19 0 0 0 .2.22h.59a.2.2 0 0 0 .22-.22v-7.67h4.89v7.67a.186.186 0 0 0 .2.22h.6a.193.193 0 0 0 .21-.22zm7.72-.06a2.922 2.922 0 0 0 1.09-1.09 4.453 4.453 0 0 0 .45-1.5c.05-.56.09-1.12.09-1.67a11.009 11.009 0 0 0-.12-1.64 3.594 3.594 0 0 0-.5-1.41 2.761 2.761 0 0 0-1.09-.99 4.253 4.253 0 0 0-1.93-.37 3.513 3.513 0 0 0-1.88.43 2.986 2.986 0 0 0-1.06 1.09 3.77 3.77 0 0 0-.47 1.43 10.86 10.86 0 0 0-.1 1.46c0 .57.03 1.12.08 1.67a4.078 4.078 0 0 0 .43 1.51 2.771 2.771 0 0 0 1.06 1.09 3.861 3.861 0 0 0 1.94.41 4.062 4.062 0 0 0 2.01-.42zm-.67-7.54a1.841 1.841 0 0 1 .8.71 3.066 3.066 0 0 1 .39 1.14 12.076 12.076 0 0 1 .1 1.57 10.247 10.247 0 0 1-.11 1.57 3.058 3.058 0 0 1-.4 1.15 1.76 1.76 0 0 1-.8.7 3.115 3.115 0 0 1-1.32.24 2.922 2.922 0 0 1-1.28-.24 1.818 1.818 0 0 1-.75-.73 3.178 3.178 0 0 1-.37-1.15 11.985 11.985 0 0 1 0-3.09 3.178 3.178 0 0 1 .37-1.15 1.736 1.736 0 0 1 .75-.72 2.778 2.778 0 0 1 1.28-.25 3.023 3.023 0 0 1 1.34.25zm10.86 6.93h-5.31a3.394 3.394 0 0 0 .38-.53 2.91 2.91 0 0 0 .28-.66c.07-.26.15-.56.21-.91s.13-.78.19-1.28c.09-.61.16-1.21.24-1.81s.14-1.2.21-1.81h3.8v7zm.65.89l.07 2.01a.42.42 0 0 0 .05.25.22.22 0 0 0 .17.06h.41a.175.175 0 0 0 .15-.06.6.6 0 0 0 .07-.27l.14-2.57a.24.24 0 0 0-.22-.25l-.52-.06v-7.57a.268.268 0 0 0-.3-.31h-4.49a.944.944 0 0 0-.64.17.933.933 0 0 0-.22.48l-.58 4.37a7.715 7.715 0 0 1-.4 1.71 2.555 2.555 0 0 1-.89 1.15l-.45.08a.345.345 0 0 0-.21.1.275.275 0 0 0-.04.24l.07 2.48a.42.42 0 0 0 .05.25.211.211 0 0 0 .16.06h.47a.189.189 0 0 0 .13-.07.641.641 0 0 0 .07-.27l.13-1.98h6.82zm9.28-8.14v-.4a.31.31 0 0 0-.05-.17.216.216 0 0 0-.18-.06h-6.45a.236.236 0 0 0-.29.23v.4a.24.24 0 0 0 .29.25h2.7v7.65a.238.238 0 0 0 .29.24h.44a.23.23 0 0 0 .28-.24v-7.65h2.72a.218.218 0 0 0 .25-.25zm1.94-.63a.218.218 0 0 0-.27.22v8.29a.223.223 0 0 0 .07.19.381.381 0 0 0 .27.07h3.73a3.541 3.541 0 0 0 1.11-.17 2.622 2.622 0 0 0 .88-.5 2.415 2.415 0 0 0 .57-.77 2.312 2.312 0 0 0 .21-.99 3.38 3.38 0 0 0-.06-.6 2.669 2.669 0 0 0-.23-.63 2.09 2.09 0 0 0-.44-.56 2.184 2.184 0 0 0-.71-.39 2.512 2.512 0 0 0 .61-.43 1.822 1.822 0 0 0 .51-.99 2.791 2.791 0 0 0 .05-.47 2.2 2.2 0 0 0-.64-1.63 2.836 2.836 0 0 0-2.07-.64h-3.59zm3.64 4.64a2.441 2.441 0 0 1 .91.15 1.8 1.8 0 0 1 .59.37 1.227 1.227 0 0 1 .32.52 1.832 1.832 0 0 1 .1.62 1.632 1.632 0 0 1-.1.57 1.214 1.214 0 0 1-.33.5 1.721 1.721 0 0 1-.63.37 2.725 2.725 0 0 1-.97.14h-2.79v-3.24h2.9zm-.2-3.76a1.981 1.981 0 0 1 1.44.43 1.454 1.454 0 0 1 .41 1.02 1.246 1.246 0 0 1-.19.72 1.2 1.2 0 0 1-.48.44 2.347 2.347 0 0 1-.64.24 2.891 2.891 0 0 1-.63.07h-2.61v-2.92h2.7zm6.44-.65a2.79 2.79 0 0 0-1.06 1.07 3.966 3.966 0 0 0-.44 1.45 14.039 14.039 0 0 0-.09 1.57 16.332 16.332 0 0 0 .09 1.74 3.846 3.846 0 0 0 .44 1.46 2.5 2.5 0 0 0 1.05 1.01 3.981 3.981 0 0 0 1.89.38 7.228 7.228 0 0 0 .77-.04q.42-.03.84-.09c.27-.05.53-.09.77-.15a5.25 5.25 0 0 0 .58-.15.25.25 0 0 0 .19-.31l-.05-.29a.2.2 0 0 0-.23-.14c-.16.01-.36.03-.61.05s-.5.06-.76.09-.52.05-.78.07-.46.02-.64.02a3.681 3.681 0 0 1-1.27-.18 1.421 1.421 0 0 1-.74-.57 2.7 2.7 0 0 1-.36-1.04 13.872 13.872 0 0 1-.14-1.54h5.35a.654.654 0 0 0 .59-.23 1.179 1.179 0 0 0 .15-.65 7.829 7.829 0 0 0-.14-1.45 3.081 3.081 0 0 0-.53-1.26 2.865 2.865 0 0 0-1.09-.89 4.25 4.25 0 0 0-1.82-.34 4 4 0 0 0-1.96.41zm3.32.74a1.929 1.929 0 0 1 .75.72 2.415 2.415 0 0 1 .33 1 10.75 10.75 0 0 1 .09 1.13h-5.04q.045-.75.12-1.32a2.466 2.466 0 0 1 .34-.98 1.654 1.654 0 0 1 .74-.61 3.314 3.314 0 0 1 1.31-.21 2.879 2.879 0 0 1 1.36.27zm4.94.87c.15-.08.36-.19.62-.32s.53-.25.83-.37.6-.22.91-.31a2.942 2.942 0 0 1 .83-.14 2.191 2.191 0 0 1 .87.15 1.1 1.1 0 0 1 .56.53 3.4 3.4 0 0 1 .29 1.06 13.924 13.924 0 0 1 .09 1.75 13.421 13.421 0 0 1-.1 1.82 3.112 3.112 0 0 1-.35 1.18 1.528 1.528 0 0 1-.67.64 2.588 2.588 0 0 1-1.09.2 8.371 8.371 0 0 1-1.31-.11 9.872 9.872 0 0 1-1.48-.36v-5.72zm0 6.52l.01-.03a7.01 7.01 0 0 0 1.49.47 7.735 7.735 0 0 0 1.19.11 3.94 3.94 0 0 0 1.64-.3 2.235 2.235 0 0 0 1.03-.89 3.984 3.984 0 0 0 .53-1.47 12.322 12.322 0 0 0 .15-2.04 13.5 13.5 0 0 0-.12-1.92 4.15 4.15 0 0 0-.44-1.38 1.975 1.975 0 0 0-.85-.82 2.872 2.872 0 0 0-1.32-.27 3.737 3.737 0 0 0-1.04.15c-.34.11-.66.22-.96.35a8.42 8.42 0 0 0-.8.41c-.23.14-.41.25-.53.33l.02-.79a.264.264 0 0 0-.07-.22.358.358 0 0 0-.21-.05h-.49a.226.226 0 0 0-.24.27v11.38a.23.23 0 0 0 .24.28h.49a.3.3 0 0 0 .21-.05.275.275 0 0 0 .07-.23v-3.29zm13.49-3.63h1.27a3.34 3.34 0 0 1 .65.06 1.513 1.513 0 0 1 .56.21 1.825 1.825 0 0 1 .46.46 3.073 3.073 0 0 1 .37.79l.77 2.3a.254.254 0 0 0 .11.18.342.342 0 0 0 .18.04h.52a.209.209 0 0 0 .21-.08.385.385 0 0 0-.01-.21l-.81-2.41c-.1-.27-.19-.5-.27-.71a2.011 2.011 0 0 0-.31-.54 1.643 1.643 0 0 0-.41-.38 2.421 2.421 0 0 0-.56-.25 1.351 1.351 0 0 0 .81-.6 4.819 4.819 0 0 0 .56-1.2l.7-2.1a.311.311 0 0 0 .03-.22.253.253 0 0 0-.23-.07h-.46a.288.288 0 0 0-.29.23l-.72 2.13a2.586 2.586 0 0 1-.4.78 1.908 1.908 0 0 1-.49.46 1.468 1.468 0 0 1-.53.21 3.08 3.08 0 0 1-.51.04h-1.2v-3.65a.18.18 0 0 0-.2-.2h-.61a.175.175 0 0 0-.2.2v3.65h-1.21a2.922 2.922 0 0 1-.51-.04 1.359 1.359 0 0 1-.52-.21 1.939 1.939 0 0 1-.5-.46 2.581 2.581 0 0 1-.39-.78l-.72-2.13a.3.3 0 0 0-.29-.23h-.47a.229.229 0 0 0-.22.07.356.356 0 0 0 .02.22l.7 2.1a5.2 5.2 0 0 0 .56 1.2 1.41 1.41 0 0 0 .81.6 2.629 2.629 0 0 0-.56.25 1.836 1.836 0 0 0-.41.38 2.335 2.335 0 0 0-.32.54c-.09.21-.17.44-.26.71l-.81 2.41a.359.359 0 0 0 0 .21.181.181 0 0 0 .2.08h.52a.3.3 0 0 0 .18-.04.226.226 0 0 0 .11-.18l.78-2.3a3.083 3.083 0 0 1 .36-.79 2 2 0 0 1 .46-.46 1.532 1.532 0 0 1 .55-.21 3.371 3.371 0 0 1 .66-.06h1.28v3.84a.175.175 0 0 0 .2.2h.61a.18.18 0 0 0 .2-.2v-3.84zm13.6 3.15h-5.31a2.845 2.845 0 0 0 .38-.53 2.91 2.91 0 0 0 .28-.66 7.293 7.293 0 0 0 .21-.91c.07-.35.13-.78.19-1.28.09-.61.17-1.21.24-1.81l.21-1.81h3.8v7zm.65.89l.07 2.01a.344.344 0 0 0 .06.25.2.2 0 0 0 .16.06h.41a.175.175 0 0 0 .15-.06.488.488 0 0 0 .07-.27l.14-2.57a.239.239 0 0 0-.21-.25l-.53-.06v-7.57a.268.268 0 0 0-.3-.31h-4.48a.909.909 0 0 0-.64.17.868.868 0 0 0-.23.48l-.57 4.37a8.263 8.263 0 0 1-.41 1.71 2.488 2.488 0 0 1-.89 1.15l-.45.08a.345.345 0 0 0-.21.1.314.314 0 0 0-.04.24l.07 2.48a.42.42 0 0 0 .05.25.22.22 0 0 0 .17.06h.46a.189.189 0 0 0 .13-.07.519.519 0 0 0 .07-.27l.13-1.98h6.82zm4.37-8.54a2.658 2.658 0 0 0-1.06 1.07 3.784 3.784 0 0 0-.44 1.45 14.039 14.039 0 0 0-.09 1.57 16.332 16.332 0 0 0 .09 1.74 3.677 3.677 0 0 0 .44 1.46 2.474 2.474 0 0 0 1.04 1.01 4.025 4.025 0 0 0 1.9.38 7.36 7.36 0 0 0 .77-.04c.28-.02.56-.05.83-.09s.54-.09.78-.15a4.486 4.486 0 0 0 .57-.15.25.25 0 0 0 .2-.31l-.05-.29a.215.215 0 0 0-.24-.14c-.15.01-.36.03-.6.05s-.5.06-.77.09-.52.05-.77.07-.47.02-.65.02a3.681 3.681 0 0 1-1.27-.18 1.437 1.437 0 0 1-.73-.57 2.4 2.4 0 0 1-.36-1.04 11.814 11.814 0 0 1-.14-1.54h5.35a.635.635 0 0 0 .58-.23 1.179 1.179 0 0 0 .15-.65 7.82 7.82 0 0 0-.13-1.45 3.222 3.222 0 0 0-.53-1.26 3.026 3.026 0 0 0-1.09-.89 4.267 4.267 0 0 0-1.83-.34 3.929 3.929 0 0 0-1.95.41zm3.31.74a2.029 2.029 0 0 1 .76.72 2.744 2.744 0 0 1 .33 1 10.75 10.75 0 0 1 .09 1.13h-5.04a11.51 11.51 0 0 1 .12-1.32 2.321 2.321 0 0 1 .34-.98 1.6 1.6 0 0 1 .74-.61 3.26 3.26 0 0 1 1.3-.21 2.852 2.852 0 0 1 1.36.27zm10.83 7.56v-8.3a.22.22 0 0 0-.26-.23h-.45a.241.241 0 0 0-.3.23v3.44h-4.95v-3.44a.224.224 0 0 0-.27-.23h-.48a.22.22 0 0 0-.26.23v8.3a.223.223 0 0 0 .26.24h.48a.226.226 0 0 0 .27-.24v-3.98h4.95v3.98a.242.242 0 0 0 .3.24h.45a.223.223 0 0 0 .26-.24zm2.33-.02a.223.223 0 0 0 .24.26h.34a.293.293 0 0 0 .21-.06.628.628 0 0 0 .11-.12l3.19-4.36 1.94-2.75v7.03a.243.243 0 0 0 .28.26h.46a.236.236 0 0 0 .27-.26v-8.28a.213.213 0 0 0-.25-.23h-.43a.328.328 0 0 0-.21.06 2.059 2.059 0 0 1-.15.16l-2.76 3.72-2.26 3.15v-6.84a.215.215 0 0 0-.24-.25h-.48a.225.225 0 0 0-.26.25v8.26zm10.72-8.28a2.79 2.79 0 0 0-1.06 1.07 3.966 3.966 0 0 0-.44 1.45 14.039 14.039 0 0 0-.09 1.57 16.332 16.332 0 0 0 .09 1.74 3.846 3.846 0 0 0 .44 1.46 2.5 2.5 0 0 0 1.05 1.01 3.981 3.981 0 0 0 1.89.38 7.228 7.228 0 0 0 .77-.04q.42-.03.84-.09c.27-.05.53-.09.77-.15a5.25 5.25 0 0 0 .58-.15.25.25 0 0 0 .19-.31l-.05-.29a.2.2 0 0 0-.23-.14c-.16.01-.36.03-.61.05s-.5.06-.76.09-.52.05-.78.07-.46.02-.64.02a3.681 3.681 0 0 1-1.27-.18 1.421 1.421 0 0 1-.74-.57 2.7 2.7 0 0 1-.36-1.04 13.872 13.872 0 0 1-.14-1.54h5.35a.654.654 0 0 0 .59-.23 1.179 1.179 0 0 0 .15-.65 7.829 7.829 0 0 0-.14-1.45 3.081 3.081 0 0 0-.53-1.26 2.865 2.865 0 0 0-1.09-.89 4.25 4.25 0 0 0-1.82-.34 4 4 0 0 0-1.96.41zm3.32.74a1.929 1.929 0 0 1 .75.72 2.415 2.415 0 0 1 .33 1 10.75 10.75 0 0 1 .09 1.13h-5.04q.045-.75.12-1.32a2.466 2.466 0 0 1 .34-.98 1.654 1.654 0 0 1 .74-.61 3.314 3.314 0 0 1 1.31-.21 2.879 2.879 0 0 1 1.36.27zm-111.22 19.66v-.4a.31.31 0 0 0-.05-.17.226.226 0 0 0-.19-.06h-6.44a.236.236 0 0 0-.29.23v.4a.24.24 0 0 0 .29.25h2.7v7.65a.238.238 0 0 0 .29.24h.44a.23.23 0 0 0 .28-.24v-7.65h2.72a.222.222 0 0 0 .25-.25zm2.76 1.21c.16-.08.36-.19.62-.32s.54-.25.83-.37.61-.22.91-.31a2.942 2.942 0 0 1 .83-.14 2.191 2.191 0 0 1 .87.15 1.065 1.065 0 0 1 .56.53 3.13 3.13 0 0 1 .3 1.06 13.924 13.924 0 0 1 .09 1.75 15.278 15.278 0 0 1-.1 1.82 3.519 3.519 0 0 1-.35 1.18 1.5 1.5 0 0 1-.68.64 2.571 2.571 0 0 1-1.08.2 8.6 8.6 0 0 1-1.32-.11 10.173 10.173 0 0 1-1.48-.36v-5.72zm0 6.52l.02-.03a6.94 6.94 0 0 0 1.48.47 7.96 7.96 0 0 0 1.19.11 3.989 3.989 0 0 0 1.65-.3 2.285 2.285 0 0 0 1.03-.89 4.17 4.17 0 0 0 .53-1.47 12.322 12.322 0 0 0 .15-2.04 12.072 12.072 0 0 0-.13-1.92 3.933 3.933 0 0 0-.44-1.38 2.008 2.008 0 0 0-.84-.82 2.945 2.945 0 0 0-1.33-.27 3.668 3.668 0 0 0-1.03.15c-.34.11-.66.22-.96.35s-.57.27-.81.41-.41.25-.53.33l.02-.79a.3.3 0 0 0-.06-.22.406.406 0 0 0-.21-.05h-.5a.226.226 0 0 0-.24.27v11.38a.23.23 0 0 0 .24.28h.5a.328.328 0 0 0 .21-.05.317.317 0 0 0 .06-.23v-3.29zm13.83-.62a1.116 1.116 0 0 0 .43.95 2.192 2.192 0 0 0 1.26.13.414.414 0 0 0 .22-.09.174.174 0 0 0 .05-.14v-.36a.16.16 0 0 0-.19-.17 2.77 2.77 0 0 1-.38-.04.488.488 0 0 1-.23-.1.422.422 0 0 1-.11-.21 1.252 1.252 0 0 1-.04-.38v-4.43a6.094 6.094 0 0 0-.13-1.36 2.054 2.054 0 0 0-.47-.97 2.173 2.173 0 0 0-.97-.58 6.019 6.019 0 0 0-1.63-.19c-.2 0-.41.01-.66.02s-.5.03-.77.06-.52.07-.77.12a4.964 4.964 0 0 0-.67.18.284.284 0 0 0-.19.27l.07.32c.01.1.1.14.27.13.42-.05.86-.09 1.33-.13s.89-.05 1.28-.05a4.491 4.491 0 0 1 1.13.12 1.449 1.449 0 0 1 .71.36 1.149 1.149 0 0 1 .36.61 3.466 3.466 0 0 1 .1.91v.81h-2.79a3.482 3.482 0 0 0-2.45.72 2.984 2.984 0 0 0-.77 2.26 2.652 2.652 0 0 0 .54 1.8 2.27 2.27 0 0 0 1.76.6 5.352 5.352 0 0 0 1.1-.1 5.624 5.624 0 0 0 .96-.26 6.45 6.45 0 0 0 .84-.37c.27-.14.53-.28.79-.44h.02zm0-.86c-.17.09-.38.2-.65.33s-.55.25-.86.37a8.046 8.046 0 0 1-.95.3 3.358 3.358 0 0 1-.89.13 1.892 1.892 0 0 1-1.26-.32 1.642 1.642 0 0 1-.36-1.23 2.947 2.947 0 0 1 .15-1.01 1.472 1.472 0 0 1 .41-.63 1.587 1.587 0 0 1 .65-.32 3.634 3.634 0 0 1 .85-.09h2.91v2.47zm10.47 1.65v-8.3a.22.22 0 0 0-.26-.23h-.46a.236.236 0 0 0-.29.23v3.44h-4.95v-3.44a.224.224 0 0 0-.27-.23h-.48a.22.22 0 0 0-.26.23v8.3a.223.223 0 0 0 .26.24h.48a.226.226 0 0 0 .27-.24v-3.98h4.95v3.98a.238.238 0 0 0 .29.24h.46a.223.223 0 0 0 .26-.24zm6.34-4.5a1.877 1.877 0 0 0 1.19-.75 2 2 0 0 0 .4-1.14 2.039 2.039 0 0 0-.78-1.76 3.637 3.637 0 0 0-2.23-.58c-.17 0-.35.01-.56.02s-.44.03-.67.05-.47.07-.69.12-.44.12-.63.19a.167.167 0 0 0-.15.2l.04.34c.01.11.05.16.12.16h.2c.36-.03.75-.07 1.16-.11s.78-.05 1.09-.05a4.916 4.916 0 0 1 .8.06 1.793 1.793 0 0 1 .65.24 1.12 1.12 0 0 1 .43.46 1.461 1.461 0 0 1 .16.73 1.163 1.163 0 0 1-.18.66 1.575 1.575 0 0 1-.49.47 2.152 2.152 0 0 1-.71.28 3.979 3.979 0 0 1-.86.09h-.34a.179.179 0 0 0-.21.2v.39a.189.189 0 0 0 .21.22h.42a3.087 3.087 0 0 1 1.64.39 1.422 1.422 0 0 1 .64 1.33 1.448 1.448 0 0 1-.71 1.4 3.893 3.893 0 0 1-1.88.39c-.3 0-.64-.01-1.01-.04a10.551 10.551 0 0 1-1.35-.18.219.219 0 0 0-.29.16l-.05.27a.231.231 0 0 0 .14.27 3.115 3.115 0 0 0 .63.2q.36.075.72.12c.24.03.48.05.7.06s.41.02.56.02a6.921 6.921 0 0 0 1.4-.14 3.609 3.609 0 0 0 1.15-.47 2.361 2.361 0 0 0 1.07-2.09 2.063 2.063 0 0 0-.51-1.42 2.177 2.177 0 0 0-1.22-.72v-.04zm9.68 3.71a1.1 1.1 0 0 0 .44.95 2.166 2.166 0 0 0 1.26.13.375.375 0 0 0 .21-.09.182.182 0 0 0 .06-.14v-.36a.168.168 0 0 0-.2-.17 2.963 2.963 0 0 1-.38-.04.41.41 0 0 1-.22-.1.367.367 0 0 1-.12-.21 1.252 1.252 0 0 1-.04-.38v-4.43a6.805 6.805 0 0 0-.12-1.36 2.163 2.163 0 0 0-.48-.97 2.119 2.119 0 0 0-.97-.58 6.019 6.019 0 0 0-1.63-.19c-.19 0-.41.01-.66.02s-.5.03-.76.06-.53.07-.78.12a4.439 4.439 0 0 0-.66.18.28.28 0 0 0-.2.27l.07.32c.01.1.1.14.27.13.42-.05.86-.09 1.33-.13s.9-.05 1.28-.05a4.437 4.437 0 0 1 1.13.12 1.531 1.531 0 0 1 .72.36 1.292 1.292 0 0 1 .36.61 4 4 0 0 1 .09.91v.81h-2.79a3.5 3.5 0 0 0-2.45.72 2.984 2.984 0 0 0-.77 2.26 2.652 2.652 0 0 0 .54 1.8 2.279 2.279 0 0 0 1.77.6 5.319 5.319 0 0 0 1.09-.1 5.624 5.624 0 0 0 .96-.26 6.45 6.45 0 0 0 .84-.37c.27-.14.53-.28.8-.44h.01zm0-.86c-.16.09-.38.2-.64.33s-.56.25-.87.37a8.046 8.046 0 0 1-.95.3 3.346 3.346 0 0 1-.88.13 1.906 1.906 0 0 1-1.27-.32 1.644 1.644 0 0 1-.35-1.23 2.966 2.966 0 0 1 .14-1.01 1.569 1.569 0 0 1 .41-.63 1.587 1.587 0 0 1 .65-.32 3.7 3.7 0 0 1 .85-.09h2.91v2.47zm4.51-2.15h1.64a3.236 3.236 0 0 1 .64.06 1.657 1.657 0 0 1 .56.21 1.677 1.677 0 0 1 .46.46 2.773 2.773 0 0 1 .37.79l.76 2.3a.226.226 0 0 0 .11.18.342.342 0 0 0 .18.04h.52a.209.209 0 0 0 .21-.08.523.523 0 0 0-.01-.21l-.81-2.41c-.1-.27-.19-.5-.27-.71a2.318 2.318 0 0 0-.31-.54 1.836 1.836 0 0 0-.41-.38 2.421 2.421 0 0 0-.56-.25 1.351 1.351 0 0 0 .81-.6 5.2 5.2 0 0 0 .56-1.2l.7-2.1a.379.379 0 0 0 .03-.22.266.266 0 0 0-.23-.07h-.45a.291.291 0 0 0-.3.23l-.72 2.13a2.586 2.586 0 0 1-.4.78 1.939 1.939 0 0 1-.5.46 1.4 1.4 0 0 1-.53.21 2.965 2.965 0 0 1-.5.04h-1.55v-3.65a.18.18 0 0 0-.2-.2h-.62a.172.172 0 0 0-.19.2v8.37a.172.172 0 0 0 .19.2h.62a.18.18 0 0 0 .2-.2v-3.84zm14.16-4.5a.213.213 0 0 0-.25-.23h-.48a.232.232 0 0 0-.28.23v7.64h-4.87v-7.64a.217.217 0 0 0-.25-.23h-.47a.213.213 0 0 0-.25.23v8.28a.225.225 0 0 0 .25.26h6.35l.07 1.89a.545.545 0 0 0 .07.26.175.175 0 0 0 .15.06h.43a.175.175 0 0 0 .15-.06.776.776 0 0 0 .07-.28l.14-2.45a.432.432 0 0 0-.04-.22.2.2 0 0 0-.19-.1l-.6-.04v-7.6zm2.46 8.28a.216.216 0 0 0 .23.26h.34a.293.293 0 0 0 .21-.06 1.358 1.358 0 0 0 .12-.12l3.18-4.36 1.95-2.75v7.03a.236.236 0 0 0 .27.26h.46a.236.236 0 0 0 .27-.26v-8.28a.213.213 0 0 0-.25-.23h-.42a.293.293 0 0 0-.21.06l-.16.16-2.75 3.72-2.27 3.15v-6.84a.215.215 0 0 0-.24-.25h-.48a.218.218 0 0 0-.25.25v8.26zm9.3 0a.22.22 0 0 0 .23.26h.34a.293.293 0 0 0 .21-.06 1.358 1.358 0 0 0 .12-.12l3.18-4.36 1.95-2.75v7.03a.236.236 0 0 0 .27.26h.46a.236.236 0 0 0 .27-.26v-8.28a.213.213 0 0 0-.25-.23h-.42a.293.293 0 0 0-.21.06l-.16.16-2.75 3.72-2.27 3.15v-6.84a.213.213 0 0 0-.23-.25h-.49a.218.218 0 0 0-.25.25v8.26z" transform="translate(-1379.53 -1077.62)"/><path id="до" class="cls-1" d="M1385.74 1102.63a.521.521 0 0 0 .06.25.213.213 0 0 0 .17.05h.72a.184.184 0 0 0 .16-.06.573.573 0 0 0 .06-.26l.12-2.33a.264.264 0 0 0-.21-.31l-.45-.05v-6.54a.209.209 0 0 0-.23-.24h-4.41a.3.3 0 0 0-.36.32l-.18 2.2c-.06.74-.12 1.46-.21 2.17a5.311 5.311 0 0 1-.12.7 5.381 5.381 0 0 1-.17.56 1.5 1.5 0 0 1-.24.43 2.99 2.99 0 0 1-.34.38l-.34.07a.3.3 0 0 0-.21.11.342.342 0 0 0-.03.22l.08 2.33a.53.53 0 0 0 .07.25.182.182 0 0 0 .17.05h.67a.344.344 0 0 0 .2-.05.4.4 0 0 0 .08-.25c.01-.25.03-.51.05-.77s.03-.51.04-.76h4.78zm-4.07-2.72a1.564 1.564 0 0 0 .27-.4 2.521 2.521 0 0 0 .18-.49 4.708 4.708 0 0 0 .12-.61c.03-.23.06-.49.08-.79l.28-3.3h2.41v5.59h-3.34zm13.02-4.33a3.366 3.366 0 0 0-.45-1.28 2.519 2.519 0 0 0-.99-.92 3.643 3.643 0 0 0-1.72-.35 3.7 3.7 0 0 0-1.23.19 2.632 2.632 0 0 0-.88.52 2.532 2.532 0 0 0-.57.74 3.871 3.871 0 0 0-.34.85 5.24 5.24 0 0 0-.16.88c-.02.29-.03.55-.03.79q0 .48.03.96a7.393 7.393 0 0 0 .15.96 3.769 3.769 0 0 0 .32.89 2.452 2.452 0 0 0 .57.72 2.58 2.58 0 0 0 .88.49 3.839 3.839 0 0 0 1.25.18 3.416 3.416 0 0 0 1.77-.39 2.659 2.659 0 0 0 .99-1.01 3.8 3.8 0 0 0 .42-1.36 10.158 10.158 0 0 0 .1-1.44 9.6 9.6 0 0 0-.11-1.42zm-1.36 2.79a2.567 2.567 0 0 1-.31.91 1.461 1.461 0 0 1-.57.56 2.059 2.059 0 0 1-.92.19 1.763 1.763 0 0 1-.88-.2 1.4 1.4 0 0 1-.56-.57 2.786 2.786 0 0 1-.28-.91 9.029 9.029 0 0 1-.08-1.22 7.668 7.668 0 0 1 .09-1.24 2.782 2.782 0 0 1 .3-.91 1.462 1.462 0 0 1 .56-.57 1.67 1.67 0 0 1 .85-.2 1.932 1.932 0 0 1 .92.19 1.313 1.313 0 0 1 .57.55 2.5 2.5 0 0 1 .31.91 7.972 7.972 0 0 1 .09 1.27 7.581 7.581 0 0 1-.09 1.24z" transform="translate(-1379.53 -1077.62)"/><path id="сек" class="cls-1" d="M1426.06 1163.46a5.34 5.34 0 0 0 .73 1.93 3.945 3.945 0 0 0 1.47 1.36 5.167 5.167 0 0 0 2.46.51c.21 0 .47-.01.76-.03s.6-.05.9-.1a8.43 8.43 0 0 0 .9-.17 3.5 3.5 0 0 0 .77-.24.445.445 0 0 0 .3-.58l-.14-.68a.483.483 0 0 0-.14-.25.5.5 0 0 0-.35-.04c-.49.06-.96.12-1.42.16a13.546 13.546 0 0 1-1.47.07 2.73 2.73 0 0 1-1.43-.32 2.231 2.231 0 0 1-.86-.89 4.054 4.054 0 0 1-.41-1.34 10.931 10.931 0 0 1-.11-1.66 14.588 14.588 0 0 1 .09-1.66 4.121 4.121 0 0 1 .39-1.38 2.209 2.209 0 0 1 .85-.94 2.868 2.868 0 0 1 1.48-.34c.46 0 .95.03 1.46.07s.99.11 1.43.17a.5.5 0 0 0 .35-.04.392.392 0 0 0 .12-.23l.16-.74a.455.455 0 0 0-.04-.34.561.561 0 0 0-.3-.22 4.308 4.308 0 0 0-.79-.24 8.524 8.524 0 0 0-.88-.16 6.763 6.763 0 0 0-.87-.09q-.435-.03-.75-.03a5 5 0 0 0-2.49.54 4.017 4.017 0 0 0-1.48 1.41 5.55 5.55 0 0 0-.71 1.99 14.283 14.283 0 0 0-.18 2.27 11.637 11.637 0 0 0 .2 2.23zm10.46 3.31a.306.306 0 0 0 .36.33h6.72a.3.3 0 0 0 .34-.33v-1.1a.3.3 0 0 0-.32-.34h-5.04v-3.54h4.35a.306.306 0 0 0 .36-.33v-1.11a.306.306 0 0 0-.36-.33h-4.35v-3.11h4.91a.3.3 0 0 0 .36-.32v-1.11a.306.306 0 0 0-.34-.34h-6.63a.318.318 0 0 0-.36.36v11.27zm16.3-.11a.845.845 0 0 0 .2.35.619.619 0 0 0 .39.09h1.25a.352.352 0 0 0 .34-.12.483.483 0 0 0-.02-.33l-1.04-3.42a5.907 5.907 0 0 0-.63-1.47 2.034 2.034 0 0 0-1.07-.84 2.062 2.062 0 0 0 .96-.78 5.287 5.287 0 0 0 .68-1.47l.94-3.04a.483.483 0 0 0 .02-.33.362.362 0 0 0-.35-.12h-1.13a.674.674 0 0 0-.4.09.8.8 0 0 0-.19.34l-.94 2.95a2.612 2.612 0 0 1-.39.82 2.027 2.027 0 0 1-.47.46 1.4 1.4 0 0 1-.53.21 3.439 3.439 0 0 1-.54.04h-1.54v-4.59a.441.441 0 0 0-.07-.26.3.3 0 0 0-.26-.1h-1.35a.318.318 0 0 0-.36.36v11.25a.315.315 0 0 0 .36.35h1.35a.3.3 0 0 0 .26-.1.409.409 0 0 0 .07-.25v-4.89h1.58a3.9 3.9 0 0 1 .58.05 1.339 1.339 0 0 1 .53.24 2.189 2.189 0 0 1 .46.49 3.141 3.141 0 0 1 .37.82z" transform="translate(-1379.53 -1077.62)"/><path id="якоря_блоков_MetaHash_в_сетях_Bitcoin_и_Ethereum" data-name="якоря блоков #MetaHash в сетях Bitcoin и Ethereum" class="cls-1" d="M1564.57 1407.18a1.889 1.889 0 0 0 .24.65 2.063 2.063 0 0 0 .46.53 2 2 0 0 0 .75.34 1.566 1.566 0 0 0-.66.59 4.061 4.061 0 0 0-.44.98l-.72 2.16a.386.386 0 0 0-.01.21.209.209 0 0 0 .21.07h.52a.484.484 0 0 0 .18-.03.268.268 0 0 0 .11-.18l.68-2.05a3.015 3.015 0 0 1 .34-.74 1.635 1.635 0 0 1 .41-.45 1.518 1.518 0 0 1 .5-.23 3.752 3.752 0 0 1 .61-.08h2.43v3.49a.236.236 0 0 0 .27.26h.41a.267.267 0 0 0 .33-.26v-8.26c0-.17-.11-.25-.33-.25h-3.39a3.879 3.879 0 0 0-1.14.16 2.931 2.931 0 0 0-.95.48 2.256 2.256 0 0 0-.64.79 2.617 2.617 0 0 0-.23 1.13 4.2 4.2 0 0 0 .06.69zm1.11-1.44a1.229 1.229 0 0 1 .45-.51 1.752 1.752 0 0 1 .68-.29 3.731 3.731 0 0 1 .84-.09h2.53v3.22h-2.64a3.8 3.8 0 0 1-.77-.07 1.9 1.9 0 0 1-.64-.25 1.154 1.154 0 0 1-.45-.48 1.573 1.573 0 0 1-.16-.77 1.611 1.611 0 0 1 .16-.76zm8.77 2.94h1.64a3.236 3.236 0 0 1 .64.06 1.47 1.47 0 0 1 .56.21 1.549 1.549 0 0 1 .46.46 2.836 2.836 0 0 1 .37.78l.76 2.31a.268.268 0 0 0 .11.18.45.45 0 0 0 .18.03h.52a.209.209 0 0 0 .21-.07.519.519 0 0 0-.01-.21l-.81-2.42c-.1-.26-.19-.5-.27-.71a2.318 2.318 0 0 0-.31-.54 2.1 2.1 0 0 0-.41-.38 2.055 2.055 0 0 0-.56-.24 1.455 1.455 0 0 0 .81-.6 5.637 5.637 0 0 0 .56-1.2l.7-2.1a.379.379 0 0 0 .03-.22.239.239 0 0 0-.23-.07h-.45a.284.284 0 0 0-.3.23l-.72 2.13a2.836 2.836 0 0 1-.4.78 1.939 1.939 0 0 1-.5.46 1.235 1.235 0 0 1-.53.2 3.13 3.13 0 0 1-.5.05h-1.55v-3.65a.175.175 0 0 0-.2-.2h-.62a.169.169 0 0 0-.19.2v8.37a.165.165 0 0 0 .19.19h.62a.172.172 0 0 0 .2-.19v-3.84zm12.44 3.75a2.828 2.828 0 0 0 1.09-1.08 4.094 4.094 0 0 0 .45-1.51 15.527 15.527 0 0 0 .09-1.66 10.911 10.911 0 0 0-.12-1.64 3.749 3.749 0 0 0-.49-1.41 2.65 2.65 0 0 0-1.1-.99 4.225 4.225 0 0 0-1.93-.37 3.513 3.513 0 0 0-1.88.43 2.986 2.986 0 0 0-1.06 1.09 3.89 3.89 0 0 0-.47 1.43 10.86 10.86 0 0 0-.1 1.46c0 .56.03 1.12.08 1.67a4.283 4.283 0 0 0 .43 1.5 2.707 2.707 0 0 0 1.06 1.09 3.775 3.775 0 0 0 1.94.42 3.949 3.949 0 0 0 2.01-.43zm-.67-7.54a1.862 1.862 0 0 1 .8.72 3.066 3.066 0 0 1 .39 1.14 11.793 11.793 0 0 1-.01 3.14 3.184 3.184 0 0 1-.39 1.15 1.845 1.845 0 0 1-.81.7 3.115 3.115 0 0 1-1.32.24 2.913 2.913 0 0 1-1.28-.25 1.736 1.736 0 0 1-.75-.72 3.178 3.178 0 0 1-.37-1.15 10.348 10.348 0 0 1-.1-1.55 10.209 10.209 0 0 1 .1-1.54 3.115 3.115 0 0 1 .37-1.15 1.818 1.818 0 0 1 .75-.73 2.922 2.922 0 0 1 1.28-.24 3.182 3.182 0 0 1 1.34.24zm5.58.9c.16-.09.36-.19.62-.32s.53-.25.83-.37.6-.22.91-.31a2.942 2.942 0 0 1 .83-.14 2.4 2.4 0 0 1 .87.14 1.126 1.126 0 0 1 .56.54 3.148 3.148 0 0 1 .29 1.06 13.641 13.641 0 0 1 .09 1.74 15.709 15.709 0 0 1-.09 1.83 3.593 3.593 0 0 1-.35 1.18 1.55 1.55 0 0 1-.68.64 2.571 2.571 0 0 1-1.08.2 8.6 8.6 0 0 1-1.32-.11 10.173 10.173 0 0 1-1.48-.36v-5.72zm0 6.52l.02-.03a6.348 6.348 0 0 0 1.48.46 6.93 6.93 0 0 0 1.19.12 3.908 3.908 0 0 0 1.64-.3 2.372 2.372 0 0 0 1.04-.89 4.226 4.226 0 0 0 .53-1.48 12.111 12.111 0 0 0 .15-2.03 12.292 12.292 0 0 0-.13-1.93 3.809 3.809 0 0 0-.44-1.37 2.008 2.008 0 0 0-.84-.82 2.945 2.945 0 0 0-1.33-.27 3.616 3.616 0 0 0-1.03.15 8.485 8.485 0 0 0-.97.35 7.422 7.422 0 0 0-.8.41c-.23.13-.41.25-.53.33l.02-.79a.3.3 0 0 0-.06-.22.406.406 0 0 0-.21-.05h-.5a.226.226 0 0 0-.24.27v11.37a.234.234 0 0 0 .24.29h.5a.406.406 0 0 0 .21-.05.347.347 0 0 0 .06-.24v-3.28zm7.93-5.13a1.889 1.889 0 0 0 .24.65 1.931 1.931 0 0 0 .47.53 1.879 1.879 0 0 0 .74.34 1.566 1.566 0 0 0-.66.59 4.061 4.061 0 0 0-.44.98l-.72 2.16a.519.519 0 0 0-.01.21.209.209 0 0 0 .21.07h.52a.484.484 0 0 0 .18-.03.268.268 0 0 0 .11-.18l.68-2.05a3.015 3.015 0 0 1 .34-.74 1.635 1.635 0 0 1 .41-.45 1.48 1.48 0 0 1 .51-.23 3.487 3.487 0 0 1 .6-.08h2.43v3.49a.236.236 0 0 0 .27.26h.41a.267.267 0 0 0 .33-.26v-8.26c0-.17-.11-.25-.33-.25h-3.39a3.879 3.879 0 0 0-1.14.16 2.931 2.931 0 0 0-.95.48 2.256 2.256 0 0 0-.64.79 2.617 2.617 0 0 0-.23 1.13 4.2 4.2 0 0 0 .06.69zm1.11-1.44a1.3 1.3 0 0 1 .45-.51 1.752 1.752 0 0 1 .68-.29 3.731 3.731 0 0 1 .84-.09h2.53v3.22h-2.64a3.8 3.8 0 0 1-.77-.07 1.9 1.9 0 0 1-.64-.25 1.221 1.221 0 0 1-.45-.48 1.573 1.573 0 0 1-.16-.77 1.611 1.611 0 0 1 .16-.76zm11.96 4.34a3.715 3.715 0 0 0 .46 1.36 2.714 2.714 0 0 0 1.05 1.02 3.6 3.6 0 0 0 1.85.4 3.813 3.813 0 0 0 1.97-.43 3.067 3.067 0 0 0 1.13-1.07 3.854 3.854 0 0 0 .51-1.45 10.414 10.414 0 0 0 .12-1.55 7.677 7.677 0 0 0-.14-1.42 3.708 3.708 0 0 0-.5-1.3 2.857 2.857 0 0 0-1-.95 3.39 3.39 0 0 0-1.67-.36 3.759 3.759 0 0 0-1.64.34 2.9 2.9 0 0 0-1.14.92l-.02-.02c-.01 0-.01-.01-.01-.02a6.1 6.1 0 0 1 .27-1.5 3.408 3.408 0 0 1 .56-1.11 3.137 3.137 0 0 1 .94-.78 5.864 5.864 0 0 1 1.41-.53c.31-.08.65-.15 1-.22s.77-.16 1.23-.25a.426.426 0 0 0 .18-.1.345.345 0 0 0 0-.23l-.09-.37a.2.2 0 0 0-.08-.15.5.5 0 0 0-.19.02c-.2.04-.42.07-.66.12s-.49.09-.74.14-.5.11-.74.16-.47.11-.68.17a4.673 4.673 0 0 0-1.94 1.08 4.3 4.3 0 0 0-1.04 1.7 9.113 9.113 0 0 0-.42 2.23c-.05.83-.08 1.72-.08 2.68a12.378 12.378 0 0 0 .1 1.47zm4.87-4.56a2 2 0 0 1 .74.73 3.105 3.105 0 0 1 .34 1.04 7.882 7.882 0 0 1 .09 1.2 8.194 8.194 0 0 1-.1 1.34 2.979 2.979 0 0 1-.38 1.11 1.959 1.959 0 0 1-.8.76 2.956 2.956 0 0 1-1.36.28 2.7 2.7 0 0 1-1.3-.27 2.048 2.048 0 0 1-.75-.74 3.129 3.129 0 0 1-.36-1.08 10.384 10.384 0 0 1-.08-1.29 7.619 7.619 0 0 1 .1-1.12 3.3 3.3 0 0 1 .39-1.09 2.352 2.352 0 0 1 .81-.82 3.058 3.058 0 0 1 2.66-.05zm6.69-1.57a1.031 1.031 0 0 0-.66.16.882.882 0 0 0-.25.63l-.39 4.57c-.05.51-.11.93-.17 1.26a2.516 2.516 0 0 1-.3.82 1.331 1.331 0 0 1-.52.48 2.412 2.412 0 0 1-.87.21.714.714 0 0 0-.17.05.179.179 0 0 0-.04.15v.38a.2.2 0 0 0 .25.2 3.176 3.176 0 0 0 1.4-.26 1.918 1.918 0 0 0 .8-.71 2.714 2.714 0 0 0 .36-1c.07-.38.12-.78.16-1.2l.39-4.86h3.62v7.65a.224.224 0 0 0 .28.23h.49a.205.205 0 0 0 .24-.23v-8.3a.213.213 0 0 0-.25-.23h-4.37zm12.06 8.48a2.762 2.762 0 0 0 1.09-1.08 4.094 4.094 0 0 0 .45-1.51 15.527 15.527 0 0 0 .09-1.66 10.911 10.911 0 0 0-.12-1.64 3.749 3.749 0 0 0-.49-1.41 2.65 2.65 0 0 0-1.1-.99 4.2 4.2 0 0 0-1.93-.37 3.513 3.513 0 0 0-1.88.43 3.067 3.067 0 0 0-1.06 1.09 3.89 3.89 0 0 0-.47 1.43 12.8 12.8 0 0 0-.1 1.46c0 .56.03 1.12.08 1.67a4.091 4.091 0 0 0 .44 1.5 2.62 2.62 0 0 0 1.05 1.09 3.775 3.775 0 0 0 1.94.42 3.949 3.949 0 0 0 2.01-.43zm-.67-7.54a1.808 1.808 0 0 1 .8.72 2.9 2.9 0 0 1 .39 1.14 11.793 11.793 0 0 1-.01 3.14 3.184 3.184 0 0 1-.39 1.15 1.875 1.875 0 0 1-.8.7 3.2 3.2 0 0 1-1.33.24 2.913 2.913 0 0 1-1.28-.25 1.736 1.736 0 0 1-.75-.72 3.383 3.383 0 0 1-.37-1.15 10.348 10.348 0 0 1-.1-1.55 10.209 10.209 0 0 1 .1-1.54 3.311 3.311 0 0 1 .37-1.15 1.818 1.818 0 0 1 .75-.73 2.922 2.922 0 0 1 1.28-.24 3.182 3.182 0 0 1 1.34.24zm5.53 3.79h1.64a3.236 3.236 0 0 1 .64.06 1.412 1.412 0 0 1 .56.21 1.7 1.7 0 0 1 .47.46 3.156 3.156 0 0 1 .37.78l.75 2.31a.31.31 0 0 0 .11.18.484.484 0 0 0 .18.03h.52a.209.209 0 0 0 .21-.07.386.386 0 0 0-.01-.21l-.81-2.42c-.1-.26-.19-.5-.27-.71a2.011 2.011 0 0 0-.31-.54 1.853 1.853 0 0 0-.41-.38 2.055 2.055 0 0 0-.56-.24 1.391 1.391 0 0 0 .81-.6 5.188 5.188 0 0 0 .56-1.2l.7-2.1a.311.311 0 0 0 .03-.22.229.229 0 0 0-.23-.07h-.45a.3.3 0 0 0-.3.23l-.72 2.13a2.586 2.586 0 0 1-.4.78 1.908 1.908 0 0 1-.49.46 1.284 1.284 0 0 1-.53.2 3.139 3.139 0 0 1-.51.05h-1.55v-3.65a.172.172 0 0 0-.2-.2h-.62a.166.166 0 0 0-.18.2v8.37a.162.162 0 0 0 .18.19h.62a.169.169 0 0 0 .2-.19v-3.84zm12.44 3.75a2.762 2.762 0 0 0 1.09-1.08 4.094 4.094 0 0 0 .45-1.51 15.527 15.527 0 0 0 .09-1.66 10.911 10.911 0 0 0-.12-1.64 3.583 3.583 0 0 0-.49-1.41 2.59 2.59 0 0 0-1.1-.99 4.2 4.2 0 0 0-1.93-.37 3.537 3.537 0 0 0-1.88.43 3.067 3.067 0 0 0-1.06 1.09 4.085 4.085 0 0 0-.47 1.43 12.8 12.8 0 0 0-.1 1.46 15.434 15.434 0 0 0 .09 1.67 3.9 3.9 0 0 0 .43 1.5 2.62 2.62 0 0 0 1.05 1.09 3.8 3.8 0 0 0 1.94.42 3.9 3.9 0 0 0 2.01-.43zm-.66-7.54a1.921 1.921 0 0 1 .8.72 2.894 2.894 0 0 1 .38 1.14 10.306 10.306 0 0 1 .1 1.56 9.242 9.242 0 0 1-.11 1.58 3.184 3.184 0 0 1-.39 1.15 1.819 1.819 0 0 1-.8.7 3.164 3.164 0 0 1-1.33.24 2.866 2.866 0 0 1-1.27-.25 1.707 1.707 0 0 1-.76-.72 3.383 3.383 0 0 1-.37-1.15 11.871 11.871 0 0 1-.1-1.55 11.711 11.711 0 0 1 .1-1.54 3.311 3.311 0 0 1 .37-1.15 1.785 1.785 0 0 1 .76-.73 2.875 2.875 0 0 1 1.27-.24 3.232 3.232 0 0 1 1.35.24zm4.77-.94a.216.216 0 0 0-.27.21v8.3a.256.256 0 0 0 .07.19.447.447 0 0 0 .27.06h3.73a3.333 3.333 0 0 0 1.12-.17 2.653 2.653 0 0 0 .87-.49 2.341 2.341 0 0 0 .58-.78 2.466 2.466 0 0 0 .2-.99 3.276 3.276 0 0 0-.06-.59 2.078 2.078 0 0 0-.23-.63 1.908 1.908 0 0 0-.44-.56 1.8 1.8 0 0 0-.71-.39 2.342 2.342 0 0 0 .61-.44 1.551 1.551 0 0 0 .35-.48 2.039 2.039 0 0 0 .17-.51 2.526 2.526 0 0 0 .04-.46 2.185 2.185 0 0 0-.64-1.63 2.81 2.81 0 0 0-2.06-.64h-3.6zm3.65 4.64a2.386 2.386 0 0 1 .9.15 1.556 1.556 0 0 1 .59.36 1.476 1.476 0 0 1 .33.53 2.065 2.065 0 0 1 .09.62 1.774 1.774 0 0 1-.09.56 1.308 1.308 0 0 1-.34.51 1.76 1.76 0 0 1-.62.37 3.059 3.059 0 0 1-.97.14h-2.8v-3.24h2.91zm-.2-3.76a1.91 1.91 0 0 1 1.43.43 1.412 1.412 0 0 1 .41 1.02 1.29 1.29 0 0 1-.18.71 1.319 1.319 0 0 1-.49.45 1.986 1.986 0 0 1-.63.23 3.016 3.016 0 0 1-.63.08h-2.62v-2.92h2.71zm-92.72 27.58c-.06.2.02.3.25.3h.92a.244.244 0 0 0 .18-.06.717.717 0 0 0 .09-.21l.93-3.81h2.02a.305.305 0 0 0 .32-.25l.2-.76a.2.2 0 0 0-.23-.29h-2l.45-1.76h2.02a.282.282 0 0 0 .21-.07.327.327 0 0 0 .11-.18l.2-.76c.05-.18-.04-.27-.25-.27H1572l.81-3.22a.206.206 0 0 0-.24-.27h-.93a.3.3 0 0 0-.22.06.412.412 0 0 0-.09.21l-.79 3.22h-1.77l.78-3.19a.206.206 0 0 0-.22-.3h-.93a.3.3 0 0 0-.22.06.412.412 0 0 0-.09.21l-.77 3.22h-1.91a.384.384 0 0 0-.24.06.58.58 0 0 0-.12.21l-.22.76a.2.2 0 0 0 .03.2.358.358 0 0 0 .21.05h1.92l-.43 1.76h-1.91a.339.339 0 0 0-.36.27l-.2.79c-.04.16.03.24.22.24h1.94l-.93 3.78a.221.221 0 0 0 .25.3h.94a.271.271 0 0 0 .25-.27l.93-3.81h1.79zm-.11-6.84h1.78l-.43 1.76h-1.78zm12.83 2.86l-1.06-2.29-2.44-5.04a.676.676 0 0 0-.2-.27.819.819 0 0 0-.38-.07h-1.13a.285.285 0 0 0-.32.33v11.28a.3.3 0 0 0 .34.34h1.33a.277.277 0 0 0 .26-.1.427.427 0 0 0 .06-.24v-7.22h.04l.59 1.26 2.05 4.2a.713.713 0 0 0 .2.22.517.517 0 0 0 .34.08h.68a.477.477 0 0 0 .31-.09.755.755 0 0 0 .21-.25l1.98-4.03.62-1.39h.06v7.22a.308.308 0 0 0 .36.34h1.31a.277.277 0 0 0 .26-.1.427.427 0 0 0 .07-.24v-11.28a.445.445 0 0 0-.07-.23.273.273 0 0 0-.24-.1h-1.04a.659.659 0 0 0-.39.09.747.747 0 0 0-.21.27l-2.44 4.97-1.1 2.34h-.05zm14.24.41a.772.772 0 0 0 .72-.3 1.469 1.469 0 0 0 .17-.79 7.984 7.984 0 0 0-.18-1.45 3.382 3.382 0 0 0-.56-1.3 3.1 3.1 0 0 0-1.16-.93 4.544 4.544 0 0 0-1.96-.36 3.844 3.844 0 0 0-2.07.48 3.192 3.192 0 0 0-1.16 1.18 4.19 4.19 0 0 0-.49 1.51 11.583 11.583 0 0 0-.11 1.46 10.446 10.446 0 0 0 .14 1.7 3.765 3.765 0 0 0 .54 1.45 2.966 2.966 0 0 0 1.19 1.01 4.813 4.813 0 0 0 2.07.38c.22 0 .46-.02.72-.04s.53-.05.79-.09.52-.08.76-.14a4 4 0 0 0 .63-.18.515.515 0 0 0 .3-.24.664.664 0 0 0 .01-.32l-.11-.6a.373.373 0 0 0-.14-.29.626.626 0 0 0-.35-.01c-.35.03-.74.08-1.19.12a10.437 10.437 0 0 1-1.15.08 3.7 3.7 0 0 1-.95-.11 1.513 1.513 0 0 1-.67-.37 1.577 1.577 0 0 1-.4-.71 4.8 4.8 0 0 1-.16-1.14h4.77zm-2.06-3.31a1.272 1.272 0 0 1 .54.48 1.739 1.739 0 0 1 .26.69 4.15 4.15 0 0 1 .08.79h-3.57a7.2 7.2 0 0 1 .13-.9 1.916 1.916 0 0 1 .29-.68 1.41 1.41 0 0 1 .54-.42 2.12 2.12 0 0 1 .82-.14 1.962 1.962 0 0 1 .91.18zm9.74 5.6a.35.35 0 0 0-.11-.22.335.335 0 0 0-.21-.03c-.18.02-.4.04-.64.05s-.44.02-.57.02c-.24 0-.44-.01-.59-.02a.651.651 0 0 1-.37-.12.468.468 0 0 1-.19-.29 2.023 2.023 0 0 1-.06-.56v-4.48h1.93a.373.373 0 0 0 .28-.08.454.454 0 0 0 .06-.26v-.9a.476.476 0 0 0-.06-.26.334.334 0 0 0-.28-.09h-1.93v-2.35c0-.21-.12-.28-.36-.22l-1.2.32a.674.674 0 0 0-.24.12.33.33 0 0 0-.1.28v1.85h-.92a.337.337 0 0 0-.27.09.415.415 0 0 0-.07.27v.89a.385.385 0 0 0 .07.26.378.378 0 0 0 .27.08h.9v4.52c0 .38.02.75.05 1.09a2.544 2.544 0 0 0 .27.92 1.525 1.525 0 0 0 .66.62 2.719 2.719 0 0 0 1.23.23c.15 0 .32-.01.52-.02s.4-.03.63-.06.43-.07.64-.12a2.958 2.958 0 0 0 .55-.18.4.4 0 0 0 .24-.45zm6.81-.72a6.176 6.176 0 0 1-.58.3c-.21.1-.44.19-.66.28a4.434 4.434 0 0 1-.69.19 3.016 3.016 0 0 1-.63.08 1.278 1.278 0 0 1-.87-.23 1.1 1.1 0 0 1-.24-.82 1.487 1.487 0 0 1 .39-1.2 1.775 1.775 0 0 1 1.08-.31h2.2v1.71zm.14 1.3a1.324 1.324 0 0 0 .53.86 1.927 1.927 0 0 0 1.02.23c.13 0 .27-.01.41-.02s.29-.04.44-.07a.4.4 0 0 0 .43-.37v-.76a.265.265 0 0 0-.07-.2.641.641 0 0 0-.27-.07 2.236 2.236 0 0 1-.35-.05.385.385 0 0 1-.27-.36 2.264 2.264 0 0 1-.03-.42v-3.47a8.089 8.089 0 0 0-.11-1.37 2.162 2.162 0 0 0-.47-1.04 2.277 2.277 0 0 0-1.05-.65 5.828 5.828 0 0 0-1.86-.24c-.22 0-.46.01-.73.03s-.55.04-.82.07-.55.07-.81.12a3.624 3.624 0 0 0-.69.18.724.724 0 0 0-.37.24.386.386 0 0 0-.04.29l.16.66a.253.253 0 0 0 .14.22.928.928 0 0 0 .37-.01c.18-.01.38-.03.6-.05s.44-.04.67-.05.43-.03.64-.04.39-.02.53-.02a5.559 5.559 0 0 1 .92.07 1.351 1.351 0 0 1 .58.26.975.975 0 0 1 .3.46 2.7 2.7 0 0 1 .08.68v.48h-2.31a3.842 3.842 0 0 0-2.55.71 2.774 2.774 0 0 0-.83 2.29 4.267 4.267 0 0 0 .12 1.05 2 2 0 0 0 .39.8 1.938 1.938 0 0 0 .76.52 3.37 3.37 0 0 0 1.19.19 4.888 4.888 0 0 0 1.78-.33 5.874 5.874 0 0 0 1.54-.84zm10.77-6.14h-4.54v-4.45a.526.526 0 0 0-.06-.26.3.3 0 0 0-.26-.1h-1.35a.318.318 0 0 0-.36.36v11.25a.308.308 0 0 0 .36.34h1.35a.277.277 0 0 0 .26-.1.427.427 0 0 0 .06-.24v-5.04h4.54v5.04a.308.308 0 0 0 .36.34h1.35a.288.288 0 0 0 .26-.1.427.427 0 0 0 .06-.24v-11.25a.5.5 0 0 0-.06-.26.316.316 0 0 0-.26-.1h-1.35a.318.318 0 0 0-.36.36v4.45zm9.48 4.84a6.176 6.176 0 0 1-.58.3c-.21.1-.44.19-.66.28a4.434 4.434 0 0 1-.69.19 3.016 3.016 0 0 1-.63.08 1.278 1.278 0 0 1-.87-.23 1.1 1.1 0 0 1-.24-.82 1.487 1.487 0 0 1 .39-1.2 1.734 1.734 0 0 1 1.08-.31h2.2v1.71zm.14 1.3a1.287 1.287 0 0 0 .53.86 1.927 1.927 0 0 0 1.02.23c.13 0 .27-.01.41-.02s.29-.04.44-.07a.4.4 0 0 0 .43-.37v-.76a.235.235 0 0 0-.08-.2.545.545 0 0 0-.26-.07 2.236 2.236 0 0 1-.35-.05.516.516 0 0 1-.19-.12.6.6 0 0 1-.09-.24 4.189 4.189 0 0 1-.02-.42v-3.47a8.089 8.089 0 0 0-.11-1.37 2.162 2.162 0 0 0-.47-1.04 2.277 2.277 0 0 0-1.05-.65 5.828 5.828 0 0 0-1.86-.24c-.22 0-.46.01-.73.03s-.55.04-.82.07-.55.07-.81.12a3.624 3.624 0 0 0-.69.18.724.724 0 0 0-.37.24.386.386 0 0 0-.04.29l.16.66a.253.253 0 0 0 .14.22.928.928 0 0 0 .37-.01c.18-.01.38-.03.6-.05s.44-.04.66-.05.44-.03.65-.04.39-.02.53-.02a5.653 5.653 0 0 1 .92.07 1.351 1.351 0 0 1 .58.26.89.89 0 0 1 .29.46 2.287 2.287 0 0 1 .09.68v.48h-2.31a3.842 3.842 0 0 0-2.55.71 2.774 2.774 0 0 0-.83 2.29 4.836 4.836 0 0 0 .11 1.05 2.012 2.012 0 0 0 .4.8 1.938 1.938 0 0 0 .76.52 3.331 3.331 0 0 0 1.19.19 4.888 4.888 0 0 0 1.78-.33 5.874 5.874 0 0 0 1.54-.84zm10.36-2.94a2.132 2.132 0 0 0-.72-.77 3.292 3.292 0 0 0-1.03-.43 11.162 11.162 0 0 0-1.23-.24 4.413 4.413 0 0 1-1.18-.29.65.65 0 0 1-.35-.68 1 1 0 0 1 .27-.77 1.9 1.9 0 0 1 1.15-.24c.33 0 .73.02 1.19.06s.87.09 1.26.14a.76.76 0 0 0 .35-.01.306.306 0 0 0 .13-.24l.15-.65a.48.48 0 0 0-.38-.54 4.644 4.644 0 0 0-.65-.18c-.24-.05-.48-.09-.73-.13s-.49-.06-.73-.07-.45-.02-.63-.02a4.043 4.043 0 0 0-2.45.7 2.706 2.706 0 0 0-.66 3.22 2.153 2.153 0 0 0 .73.74 3.84 3.84 0 0 0 1.05.42 11.756 11.756 0 0 0 1.26.23 4.444 4.444 0 0 1 .71.14 1.128 1.128 0 0 1 .44.21.679.679 0 0 1 .23.32 1.752 1.752 0 0 1 .06.5.888.888 0 0 1-.38.79 2.389 2.389 0 0 1-1.24.24c-.16 0-.34-.01-.55-.02s-.43-.03-.67-.04-.46-.04-.7-.07a5.8 5.8 0 0 1-.64-.09.648.648 0 0 0-.32.01.311.311 0 0 0-.14.26l-.13.6a.56.56 0 0 0 .04.35.594.594 0 0 0 .34.24 6.071 6.071 0 0 0 1.31.3 13.293 13.293 0 0 0 1.48.1 5.943 5.943 0 0 0 1.35-.15 3.612 3.612 0 0 0 1.16-.46 2.6 2.6 0 0 0 .82-.86 2.631 2.631 0 0 0 .3-1.32 2.7 2.7 0 0 0-.27-1.3zm9.74 3.6v-5.22a10.8 10.8 0 0 0-.08-1.3 2.981 2.981 0 0 0-.36-1.09 2.026 2.026 0 0 0-.83-.75 3.179 3.179 0 0 0-1.47-.28 4.189 4.189 0 0 0-.85.1 6.706 6.706 0 0 0-.83.25 6.335 6.335 0 0 0-.74.33c-.23.11-.42.22-.58.31v-4.35a.315.315 0 0 0-.36-.35h-1.28a.3.3 0 0 0-.33.35v12a.3.3 0 0 0 .33.34h1.28a.337.337 0 0 0 .27-.09.437.437 0 0 0 .07-.25v-6.06c.12-.05.28-.12.48-.22a6.5 6.5 0 0 1 .66-.27c.24-.08.47-.16.7-.23a2.57 2.57 0 0 1 .62-.09 1.1 1.1 0 0 1 1.06.45 2.674 2.674 0 0 1 .24 1.22c0 .88 0 1.74-.01 2.6s-.01 1.73-.01 2.6a.312.312 0 0 0 .37.34h1.28a.312.312 0 0 0 .37-.34zm-85.77 11.58a.216.216 0 0 0-.27.21v8.3a.223.223 0 0 0 .07.19.447.447 0 0 0 .27.06h3.73a3.274 3.274 0 0 0 1.11-.17 2.464 2.464 0 0 0 .87-.49 2.341 2.341 0 0 0 .58-.78 2.312 2.312 0 0 0 .21-.99 2.618 2.618 0 0 0-.07-.59 2.056 2.056 0 0 0-.22-.63 2.311 2.311 0 0 0-.44-.56 1.868 1.868 0 0 0-.71-.39 2.526 2.526 0 0 0 .61-.44 1.732 1.732 0 0 0 .35-.48 2 2 0 0 0 .16-.51 2.581 2.581 0 0 0 .05-.46 2.223 2.223 0 0 0-.64-1.63 2.836 2.836 0 0 0-2.07-.64h-3.59zm3.64 4.64a2.441 2.441 0 0 1 .91.15 1.638 1.638 0 0 1 .59.36 1.45 1.45 0 0 1 .32.53 1.792 1.792 0 0 1 .1.62 1.54 1.54 0 0 1-.1.56 1.4 1.4 0 0 1-.33.51 1.908 1.908 0 0 1-.63.37 2.971 2.971 0 0 1-.97.14h-2.79v-3.24h2.9zm-.2-3.76a1.953 1.953 0 0 1 1.44.43 1.454 1.454 0 0 1 .41 1.02 1.213 1.213 0 0 1-.19.71 1.292 1.292 0 0 1-.48.45 2.042 2.042 0 0 1-.64.23 3.016 3.016 0 0 1-.63.08h-2.61v-2.92h2.7zm10.81-.69a2.549 2.549 0 0 0-1.04.99 3.763 3.763 0 0 0-.47 1.44 11.63 11.63 0 0 0-.12 1.7 12.73 12.73 0 0 0 .12 1.82 3.7 3.7 0 0 0 .47 1.45 2.482 2.482 0 0 0 1.04.96 3.965 3.965 0 0 0 1.79.34 11.206 11.206 0 0 0 1.4-.09 5.168 5.168 0 0 0 1.16-.26.474.474 0 0 0 .18-.15.25.25 0 0 0 .01-.17l-.05-.23a.188.188 0 0 0-.23-.16c-.2.02-.41.04-.64.06s-.47.04-.71.05-.45.04-.65.05-.37.02-.49.02a3.117 3.117 0 0 1-1.15-.18 1.407 1.407 0 0 1-.71-.61 2.886 2.886 0 0 1-.37-1.13 12.516 12.516 0 0 1-.11-1.78 11.789 11.789 0 0 1 .1-1.72 3.025 3.025 0 0 1 .36-1.1 1.381 1.381 0 0 1 .72-.58 3.229 3.229 0 0 1 1.16-.17c.18 0 .38 0 .59.01s.42.03.64.05l.62.06c.19.03.37.04.53.06a.735.735 0 0 0 .21 0 .139.139 0 0 0 .11-.11l.07-.31a.915.915 0 0 0-.01-.16.168.168 0 0 0-.15-.14 2.573 2.573 0 0 0-.61-.18c-.23-.05-.46-.09-.7-.12s-.48-.05-.7-.06-.42-.02-.58-.02a3.693 3.693 0 0 0-1.79.37zm7.53.04a2.765 2.765 0 0 0-1.06 1.06 4.088 4.088 0 0 0-.44 1.45 14.215 14.215 0 0 0-.09 1.58 16.006 16.006 0 0 0 .09 1.73 3.9 3.9 0 0 0 .44 1.47 2.534 2.534 0 0 0 1.04 1.01 4.025 4.025 0 0 0 1.9.38 7.36 7.36 0 0 0 .77-.04c.28-.02.56-.06.83-.1s.54-.09.78-.14.43-.11.57-.15a.258.258 0 0 0 .2-.31l-.05-.29a.206.206 0 0 0-.24-.14c-.15.01-.35.03-.6.05s-.5.05-.76.08-.53.06-.78.07-.47.03-.65.03a3.72 3.72 0 0 1-1.27-.18 1.491 1.491 0 0 1-.73-.57 2.453 2.453 0 0 1-.36-1.04 14.107 14.107 0 0 1-.14-1.54h5.35a.647.647 0 0 0 .58-.23 1.2 1.2 0 0 0 .16-.65 7.829 7.829 0 0 0-.14-1.45 3.222 3.222 0 0 0-.53-1.26 2.85 2.85 0 0 0-1.09-.89 4.122 4.122 0 0 0-1.83-.34 3.955 3.955 0 0 0-1.95.41zm3.31.74a1.955 1.955 0 0 1 .76.72 2.683 2.683 0 0 1 .33 1 10.778 10.778 0 0 1 .09 1.12h-5.04q.045-.735.12-1.32a2.423 2.423 0 0 1 .34-.98 1.646 1.646 0 0 1 .74-.6 3.294 3.294 0 0 1 1.3-.21 2.852 2.852 0 0 1 1.36.27zm10.12-.34v-.4a.286.286 0 0 0-.04-.17.24.24 0 0 0-.19-.06h-6.44a.232.232 0 0 0-.29.23v.4a.236.236 0 0 0 .29.25h2.69v7.65c0 .16.1.23.3.23h.44a.22.22 0 0 0 .27-.23v-7.65h2.72a.218.218 0 0 0 .25-.25zm1.46 2.6a1.825 1.825 0 0 0 .7 1.18 2 2 0 0 0 .75.34 1.592 1.592 0 0 0-.67.59 4.063 4.063 0 0 0-.43.98l-.72 2.16a.309.309 0 0 0-.01.21.209.209 0 0 0 .21.07h.52a.484.484 0 0 0 .18-.03.31.31 0 0 0 .11-.18l.68-2.05a3.457 3.457 0 0 1 .33-.74 1.833 1.833 0 0 1 .42-.45 1.431 1.431 0 0 1 .5-.23 3.776 3.776 0 0 1 .6-.08h2.43v3.49a.243.243 0 0 0 .28.26h.4a.267.267 0 0 0 .33-.26v-8.26a.257.257 0 0 0-.32-.25h-3.4a3.859 3.859 0 0 0-1.13.16 2.931 2.931 0 0 0-.95.48 2.151 2.151 0 0 0-.64.79 2.479 2.479 0 0 0-.24 1.13 3.366 3.366 0 0 0 .07.69zm1.1-1.44a1.387 1.387 0 0 1 .45-.51 1.82 1.82 0 0 1 .68-.29 3.886 3.886 0 0 1 .85-.09h2.52v3.22h-2.63a3.736 3.736 0 0 1-.77-.07 1.956 1.956 0 0 1-.65-.25 1.3 1.3 0 0 1-.45-.48 1.694 1.694 0 0 1-.16-.77 1.742 1.742 0 0 1 .16-.76zm13.89 6.76l-2.83-4.27 2.7-4.07a.149.149 0 0 0 .03-.15.135.135 0 0 0-.14-.06h-.72a.168.168 0 0 0-.14.04.6.6 0 0 0-.07.14l-2.2 3.29-2.18-3.29a.565.565 0 0 0-.09-.14.134.134 0 0 0-.12-.04h-.72a.145.145 0 0 0-.14.06.149.149 0 0 0 .03.15l2.68 4.07-2.81 4.27a.144.144 0 0 0-.02.14.112.112 0 0 0 .13.07h.74a.143.143 0 0 0 .13-.05.77.77 0 0 1 .09-.13l2.28-3.47 2.31 3.47a1.463 1.463 0 0 0 .09.13.116.116 0 0 0 .12.05h.72a.133.133 0 0 0 .14-.07.225.225 0 0 0-.01-.14zm13.49-3.86a3.751 3.751 0 0 0-.33-.9 2.667 2.667 0 0 0-.61-.78 2.393 2.393 0 0 0-.98-.5 2.658 2.658 0 0 0 .85-.55 2.782 2.782 0 0 0 .5-.71 2.726 2.726 0 0 0 .24-.75 4.725 4.725 0 0 0 .07-.71 2.919 2.919 0 0 0-.82-2.13 3.44 3.44 0 0 0-2.53-.83h-3.73a.262.262 0 0 0-.23.08.328.328 0 0 0-.06.21v11.37a.254.254 0 0 0 .07.21.491.491 0 0 0 .31.06h4.25a3.075 3.075 0 0 0 2.19-.86 3.006 3.006 0 0 0 .66-1 3.465 3.465 0 0 0 .25-1.33 4.748 4.748 0 0 0-.1-.88zm-1.95-3.19a2.483 2.483 0 0 1-1.87.62h-2.8v-4.35h2.8a2.562 2.562 0 0 1 1.87.6 2.094 2.094 0 0 1 .61 1.55 2.181 2.181 0 0 1-.61 1.58zm.85 4.87a1.931 1.931 0 0 1-.4.78 1.955 1.955 0 0 1-.76.53 3.011 3.011 0 0 1-1.2.2h-3.16v-4.88h3.16a2.681 2.681 0 0 1 1.11.21 2.161 2.161 0 0 1 1.22 1.34 2.8 2.8 0 0 1 .15.91 3.443 3.443 0 0 1-.12.91zm3.38 2.12a.264.264 0 0 0 .07.22.283.283 0 0 0 .2.05h.45a.228.228 0 0 0 .19-.05.372.372 0 0 0 .05-.22v-8.22a.372.372 0 0 0-.05-.22.27.27 0 0 0-.19-.05h-.45a.344.344 0 0 0-.2.05.264.264 0 0 0-.07.22v8.22zm.98-11.11a.536.536 0 0 0-.49-.17.57.57 0 0 0-.5.18.881.881 0 0 0-.11.45 1.015 1.015 0 0 0 .1.47.513.513 0 0 0 .51.19.525.525 0 0 0 .5-.19.908.908 0 0 0 .11-.47.784.784 0 0 0-.12-.46zm6.26 10.7a.34.34 0 0 0-.08-.14.261.261 0 0 0-.19-.02 1.966 1.966 0 0 1-.26.02c-.11.01-.21.02-.33.02s-.22.01-.32.02a2.451 2.451 0 0 1-.25.01 2.19 2.19 0 0 1-.63-.07.706.706 0 0 1-.37-.22.675.675 0 0 1-.17-.36 3.838 3.838 0 0 1-.03-.52v-6.01h1.98a.213.213 0 0 0 .17-.05.281.281 0 0 0 .03-.15v-.41a.3.3 0 0 0-.03-.16.219.219 0 0 0-.17-.04h-1.98v-2.22a.289.289 0 0 0-.05-.19.186.186 0 0 0-.21 0l-.53.16a.239.239 0 0 0-.2.25v2h-1.06a.189.189 0 0 0-.22.21v.4a.186.186 0 0 0 .22.2h1.04v6.32a2.116 2.116 0 0 0 .36 1.32 1.678 1.678 0 0 0 1.37.46c.15 0 .32-.01.5-.02a4.123 4.123 0 0 0 .52-.06c.17-.03.33-.07.47-.1a1.941 1.941 0 0 0 .34-.11.2.2 0 0 0 .11-.09.205.205 0 0 0 .02-.16zm2.38-7.89a2.549 2.549 0 0 0-1.04.99 3.941 3.941 0 0 0-.47 1.44 11.63 11.63 0 0 0-.12 1.7 12.73 12.73 0 0 0 .12 1.82 3.871 3.871 0 0 0 .47 1.45 2.482 2.482 0 0 0 1.04.96 3.965 3.965 0 0 0 1.79.34 11.206 11.206 0 0 0 1.4-.09 5.168 5.168 0 0 0 1.16-.26.474.474 0 0 0 .18-.15.25.25 0 0 0 .01-.17l-.05-.23a.188.188 0 0 0-.23-.16c-.2.02-.41.04-.64.06s-.47.04-.7.05-.46.04-.66.05-.37.02-.49.02a3.117 3.117 0 0 1-1.15-.18 1.407 1.407 0 0 1-.71-.61 3.059 3.059 0 0 1-.37-1.13 12.516 12.516 0 0 1-.11-1.78 13.391 13.391 0 0 1 .1-1.72 3.025 3.025 0 0 1 .36-1.1 1.463 1.463 0 0 1 .72-.58 3.229 3.229 0 0 1 1.16-.17c.18 0 .38 0 .59.01s.42.03.64.05l.62.06c.2.03.37.04.53.06a.735.735 0 0 0 .21 0 .139.139 0 0 0 .11-.11l.07-.31v-.16a.2.2 0 0 0-.16-.14 2.573 2.573 0 0 0-.61-.18c-.23-.05-.46-.09-.7-.12s-.48-.05-.7-.06-.42-.02-.58-.02a3.693 3.693 0 0 0-1.79.37zm11.11 8.29a2.828 2.828 0 0 0 1.09-1.08 4.094 4.094 0 0 0 .45-1.51 15.527 15.527 0 0 0 .09-1.66 10.911 10.911 0 0 0-.12-1.64 3.749 3.749 0 0 0-.49-1.41 2.65 2.65 0 0 0-1.1-.99 4.225 4.225 0 0 0-1.93-.37 3.513 3.513 0 0 0-1.88.43 2.986 2.986 0 0 0-1.06 1.09 3.89 3.89 0 0 0-.47 1.43 10.86 10.86 0 0 0-.1 1.46c0 .56.03 1.12.08 1.67a4.283 4.283 0 0 0 .43 1.5 2.707 2.707 0 0 0 1.06 1.09 3.775 3.775 0 0 0 1.94.42 3.949 3.949 0 0 0 2.01-.43zm-.67-7.54a1.862 1.862 0 0 1 .8.72 3.066 3.066 0 0 1 .39 1.14 11.793 11.793 0 0 1-.01 3.14 3.184 3.184 0 0 1-.39 1.15 1.845 1.845 0 0 1-.81.7 3.115 3.115 0 0 1-1.32.24 2.913 2.913 0 0 1-1.28-.25 1.736 1.736 0 0 1-.75-.72 3.178 3.178 0 0 1-.37-1.15 10.348 10.348 0 0 1-.1-1.55 10.209 10.209 0 0 1 .1-1.54 3.115 3.115 0 0 1 .37-1.15 1.818 1.818 0 0 1 .75-.73 2.922 2.922 0 0 1 1.28-.24 3.182 3.182 0 0 1 1.34.24zm4.39 7.55a.3.3 0 0 0 .06.22.3.3 0 0 0 .21.05h.45a.216.216 0 0 0 .18-.05.372.372 0 0 0 .05-.22v-8.22a.372.372 0 0 0-.05-.22.257.257 0 0 0-.18-.05h-.45a.358.358 0 0 0-.21.05.3.3 0 0 0-.06.22v8.22zm.98-11.11a.569.569 0 0 0-.5-.17.537.537 0 0 0-.49.18.794.794 0 0 0-.12.45 1.015 1.015 0 0 0 .1.47.524.524 0 0 0 .51.19.545.545 0 0 0 .51-.19 1.015 1.015 0 0 0 .1-.47.869.869 0 0 0-.11-.46zm7.63 5.86v5.25a.387.387 0 0 0 .04.22.254.254 0 0 0 .2.05h.49a.246.246 0 0 0 .28-.27v-5.45a8.879 8.879 0 0 0-.09-1.33 2.414 2.414 0 0 0-.34-1.02 1.654 1.654 0 0 0-.75-.65 3.176 3.176 0 0 0-1.32-.22 3.79 3.79 0 0 0-1.04.15 8.836 8.836 0 0 0-.99.35 7.622 7.622 0 0 0-.81.41c-.23.13-.41.25-.53.33v-.79a.3.3 0 0 0-.06-.23.3.3 0 0 0-.19-.04h-.47a.27.27 0 0 0-.19.05.372.372 0 0 0-.05.22v8.22a.372.372 0 0 0 .05.22.228.228 0 0 0 .19.05h.47a.233.233 0 0 0 .25-.27v-6.66c.13-.07.32-.17.58-.29s.55-.26.86-.38a8.066 8.066 0 0 1 .94-.33 3.133 3.133 0 0 1 .84-.13 2.514 2.514 0 0 1 .85.12.926.926 0 0 1 .49.4 2.063 2.063 0 0 1 .23.78 8.384 8.384 0 0 1 .07 1.24zm-100.73 25.27a.215.215 0 0 0 .24.25h.34a.312.312 0 0 0 .21-.05.689.689 0 0 0 .11-.13l3.19-4.35 1.94-2.76v7.04a.233.233 0 0 0 .28.25h.46a.229.229 0 0 0 .27-.25v-8.28a.216.216 0 0 0-.26-.23h-.42a.328.328 0 0 0-.21.06l-.15.15-2.76 3.73-2.26 3.15v-6.84a.215.215 0 0 0-.24-.25h-.48a.225.225 0 0 0-.26.25v8.26zm19.53-5.49a.3.3 0 0 0 .22-.06.3.3 0 0 0 .05-.21v-.41a.228.228 0 0 0-.05-.19.372.372 0 0 0-.22-.05h-4.73v-4.33h5.27a.3.3 0 0 0 .22-.06.254.254 0 0 0 .05-.2v-.45a.243.243 0 0 0-.05-.18.372.372 0 0 0-.22-.05h-6.01a.3.3 0 0 0-.22.06.356.356 0 0 0-.05.19v11.45a.27.27 0 0 0 .05.19.387.387 0 0 0 .22.04h6.14a.387.387 0 0 0 .22-.04.27.27 0 0 0 .05-.19v-.43a.358.358 0 0 0-.05-.21.3.3 0 0 0-.22-.06h-5.4v-4.81h4.73zm6.5 5.06a.257.257 0 0 0-.08-.14.251.251 0 0 0-.19-.02 1.836 1.836 0 0 1-.26.02c-.1.01-.21.02-.32.02s-.22.01-.33.02a2.94 2.94 0 0 1-.88-.06.8.8 0 0 1-.37-.22.748.748 0 0 1-.16-.36 3.838 3.838 0 0 1-.03-.52v-6.01h1.98a.213.213 0 0 0 .17-.05.487.487 0 0 0 .02-.15v-.41a.514.514 0 0 0-.02-.16.219.219 0 0 0-.17-.04h-1.98v-2.22a.289.289 0 0 0-.05-.19.186.186 0 0 0-.21 0l-.53.16a.231.231 0 0 0-.2.25v2h-1.07a.186.186 0 0 0-.21.21v.4a.183.183 0 0 0 .21.2h1.05v6.32a2.116 2.116 0 0 0 .36 1.32 1.665 1.665 0 0 0 1.37.46c.15 0 .32-.01.5-.02a4.35 4.35 0 0 0 .52-.06c.17-.03.33-.07.47-.1a2.275 2.275 0 0 0 .34-.11.2.2 0 0 0 .11-.09.261.261 0 0 0 .02-.16zm7.04-4.84v5.25a.372.372 0 0 0 .05.22.216.216 0 0 0 .18.05h.47a.239.239 0 0 0 .27-.27v-5.45a8.966 8.966 0 0 0-.08-1.33 2.56 2.56 0 0 0-.34-1.02 1.654 1.654 0 0 0-.75-.65 3.156 3.156 0 0 0-1.31-.22 3.806 3.806 0 0 0-1.05.15 8.485 8.485 0 0 0-.97.35 7.422 7.422 0 0 0-.8.41c-.23.13-.41.25-.53.33v-4.61a.3.3 0 0 0-.06-.23.293.293 0 0 0-.21-.06h-.47a.236.236 0 0 0-.23.29v12.04a.387.387 0 0 0 .04.22.241.241 0 0 0 .19.05h.47a.229.229 0 0 0 .25-.27v-6.66c.13-.07.33-.17.6-.29s.55-.26.85-.38a8.066 8.066 0 0 1 .94-.33 3.143 3.143 0 0 1 .85-.13 2.514 2.514 0 0 1 .85.12.926.926 0 0 1 .49.4 1.89 1.89 0 0 1 .24.78 10.33 10.33 0 0 1 .06 1.24zm4.05-3.01a2.765 2.765 0 0 0-1.06 1.06 3.894 3.894 0 0 0-.44 1.45 14.215 14.215 0 0 0-.09 1.58 16.006 16.006 0 0 0 .09 1.73 3.726 3.726 0 0 0 .44 1.47 2.534 2.534 0 0 0 1.04 1.01 4.025 4.025 0 0 0 1.9.38 7.36 7.36 0 0 0 .77-.04c.28-.02.56-.06.83-.1s.54-.09.78-.14.43-.11.57-.15a.258.258 0 0 0 .2-.31l-.05-.29a.206.206 0 0 0-.24-.14c-.15.01-.35.03-.6.05s-.5.05-.77.08-.52.06-.77.07-.47.03-.65.03a3.681 3.681 0 0 1-1.27-.18 1.491 1.491 0 0 1-.73-.57 2.453 2.453 0 0 1-.36-1.04 11.986 11.986 0 0 1-.14-1.54h5.35a.659.659 0 0 0 .58-.23 1.2 1.2 0 0 0 .15-.65 7.82 7.82 0 0 0-.13-1.45 3.222 3.222 0 0 0-.53-1.26 2.927 2.927 0 0 0-1.09-.89 4.122 4.122 0 0 0-1.83-.34 3.929 3.929 0 0 0-1.95.41zm3.31.74a1.955 1.955 0 0 1 .76.72 2.683 2.683 0 0 1 .33 1 10.778 10.778 0 0 1 .09 1.12h-5.04a11.952 11.952 0 0 1 .12-1.32 2.423 2.423 0 0 1 .34-.98 1.646 1.646 0 0 1 .74-.6 3.294 3.294 0 0 1 1.3-.21 2.852 2.852 0 0 1 1.36.27zm7.25-.32l-.07-.62a.353.353 0 0 0-.05-.12q-.03-.045-.12 0a4.012 4.012 0 0 0-.71.25c-.23.11-.45.22-.66.32s-.4.22-.57.33-.29.19-.38.25v-.79a.3.3 0 0 0-.06-.22.358.358 0 0 0-.21-.05h-.48a.226.226 0 0 0-.24.27v8.22a.372.372 0 0 0 .05.22.228.228 0 0 0 .19.05h.5a.239.239 0 0 0 .27-.27v-6.67c.1-.05.23-.12.41-.2s.36-.17.58-.26.44-.18.68-.26a4.408 4.408 0 0 1 .71-.2.215.215 0 0 0 .16-.25zm2.45-.42a2.7 2.7 0 0 0-1.06 1.06 3.894 3.894 0 0 0-.44 1.45 14.215 14.215 0 0 0-.09 1.58 16.006 16.006 0 0 0 .09 1.73 3.726 3.726 0 0 0 .44 1.47 2.534 2.534 0 0 0 1.04 1.01 4.025 4.025 0 0 0 1.9.38 7.051 7.051 0 0 0 .76-.04c.29-.02.56-.06.84-.1s.53-.09.78-.14.43-.11.57-.15a.258.258 0 0 0 .2-.31l-.05-.29a.206.206 0 0 0-.24-.14c-.15.01-.36.03-.6.05s-.5.05-.77.08-.52.06-.77.07-.47.03-.65.03a3.681 3.681 0 0 1-1.27-.18 1.517 1.517 0 0 1-.74-.57 2.76 2.76 0 0 1-.36-1.04 14.381 14.381 0 0 1-.13-1.54h5.35a.659.659 0 0 0 .58-.23 1.2 1.2 0 0 0 .15-.65 7.82 7.82 0 0 0-.13-1.45 3.222 3.222 0 0 0-.53-1.26 2.927 2.927 0 0 0-1.09-.89 4.122 4.122 0 0 0-1.83-.34 3.929 3.929 0 0 0-1.95.41zm3.31.74a1.955 1.955 0 0 1 .76.72 2.683 2.683 0 0 1 .33 1 10.778 10.778 0 0 1 .09 1.12h-5.04a11.952 11.952 0 0 1 .12-1.32 2.283 2.283 0 0 1 .34-.98 1.646 1.646 0 0 1 .74-.6 3.26 3.26 0 0 1 1.3-.21 2.852 2.852 0 0 1 1.36.27zm4.58 4.54v-5.24a.372.372 0 0 0-.05-.22.27.27 0 0 0-.19-.05h-.49a.242.242 0 0 0-.28.27v5.43a9.019 9.019 0 0 0 .09 1.34 2.462 2.462 0 0 0 .36 1.02 1.742 1.742 0 0 0 .77.64 3.224 3.224 0 0 0 1.32.23 3.684 3.684 0 0 0 1.04-.15 5.658 5.658 0 0 0 .98-.35c.31-.14.58-.28.81-.41s.4-.25.52-.34v.81a.3.3 0 0 0 .06.22.3.3 0 0 0 .21.05h.47a.216.216 0 0 0 .18-.05.372.372 0 0 0 .05-.22v-8.22a.372.372 0 0 0-.05-.22.257.257 0 0 0-.18-.05h-.47a.229.229 0 0 0-.25.27v6.64c-.14.07-.33.17-.59.3s-.54.25-.85.38-.62.23-.94.32a3.125 3.125 0 0 1-.83.13 2.6 2.6 0 0 1-.86-.11 1.055 1.055 0 0 1-.52-.41 1.886 1.886 0 0 1-.25-.77 10.447 10.447 0 0 1-.06-1.24zm19.04-2.43v5.41a.372.372 0 0 0 .05.22.228.228 0 0 0 .19.05h.5a.239.239 0 0 0 .27-.27v-5.61a7.192 7.192 0 0 0-.1-1.29 2.3 2.3 0 0 0-.37-.96 1.681 1.681 0 0 0-.75-.61 3.333 3.333 0 0 0-1.25-.2 4.02 4.02 0 0 0-1.77.4 9.1 9.1 0 0 0-1.57.95 1.861 1.861 0 0 0-.75-1.01 2.732 2.732 0 0 0-1.5-.34 3.574 3.574 0 0 0-.92.12 7.1 7.1 0 0 0-.85.31 6.584 6.584 0 0 0-.75.39c-.23.13-.43.26-.61.38v-.75a.3.3 0 0 0-.07-.22.344.344 0 0 0-.2-.05h-.45a.226.226 0 0 0-.24.27v8.22a.372.372 0 0 0 .05.22.228.228 0 0 0 .19.05h.46a.236.236 0 0 0 .26-.27v-6.66c.26-.14.53-.28.8-.42a7.171 7.171 0 0 1 .81-.36 6.855 6.855 0 0 1 .77-.25 2.555 2.555 0 0 1 .69-.1 1.623 1.623 0 0 1 .83.18 1.2 1.2 0 0 1 .47.48 1.8 1.8 0 0 1 .21.69 7.329 7.329 0 0 1 .04.83v5.61a.947.947 0 0 0 .02.22.152.152 0 0 0 .16.05h.52a.239.239 0 0 0 .27-.27v-5.61c0-.18 0-.36-.01-.55a4.458 4.458 0 0 0-.06-.48c.18-.11.4-.23.67-.36s.53-.25.82-.37.56-.21.84-.29a2.533 2.533 0 0 1 .77-.13 2.081 2.081 0 0 1 .81.13.939.939 0 0 1 .47.41 1.845 1.845 0 0 1 .23.74 8.658 8.658 0 0 1 .05 1.1z" transform="translate(-1379.53 -1077.62)"/><path id="Shape_1277_copy_5" data-name="Shape 1277 copy 5" class="cls-1" d="M1588.88 1387a20.558 20.558 0 0 1-20.1-16.66l-1.71 1.72a.706.706 0 0 1-.99 0l-1.88-1.9a.688.688 0 0 1 0-.99l5.93-5.98a.7.7 0 0 1 .89-.08l6.66 4.63a.713.713 0 0 1 .17.98l-1.51 2.2a.679.679 0 0 1-.45.3.69.69 0 0 1-.52-.12l-1.62-1.12a15.521 15.521 0 0 0 12.66 11.84v-29.7a.7.7 0 0 1 .7-.7h3.54a.7.7 0 0 1 .7.7v29.7a15.556 15.556 0 0 0 12.62-11.66l-1.36.94a.69.69 0 0 1-.52.12.729.729 0 0 1-.45-.3l-1.51-2.2a.659.659 0 0 1-.11-.53.676.676 0 0 1 .29-.45l6.65-4.63a.7.7 0 0 1 .89.08l5.93 5.98a.688.688 0 0 1 0 .99l-1.88 1.9a.694.694 0 0 1-.98 0l-1.9-1.91a20.518 20.518 0 0 1-20.14 16.85zm-19.63-18.84a.851.851 0 0 1 .22.04.691.691 0 0 1 .47.58 19.08 19.08 0 0 0 37.91-.19.71.71 0 0 1 .46-.59.691.691 0 0 1 .72.17l2.38 2.39.89-.89-5.02-5.07-5.6 3.9.71 1.04 2.19-1.52a.7.7 0 0 1 .76-.02.722.722 0 0 1 .33.7 16.966 16.966 0 0 1-14.94 14.62.658.658 0 0 1-.54-.17.708.708 0 0 1-.24-.52v-29.8h-2.14v29.8a.736.736 0 0 1-.23.52.69.69 0 0 1-.55.17 16.937 16.937 0 0 1-14.96-14.8.735.735 0 0 1 .33-.69.718.718 0 0 1 .76.02l2.43 1.69.72-1.04-5.6-3.9-5.03 5.07.89.89 2.18-2.19a.749.749 0 0 1 .5-.21zm21.4-18.9h-3.54a.7.7 0 0 1-.7-.71v-2.94a6.03 6.03 0 1 1 4.94 0v2.94a.7.7 0 0 1-.7.71zm-2.84-1.41h2.14v-2.72a.7.7 0 0 1 .47-.66 4.63 4.63 0 1 0-3.08 0 .7.7 0 0 1 .47.66v2.72zm1.07-5.27a2.505 2.505 0 1 1 2.48-2.51 2.5 2.5 0 0 1-2.48 2.51zm0-3.6a1.1 1.1 0 1 0 1.09 1.09 1.093 1.093 0 0 0-1.09-1.09zm8.42 13.85h-16.84a.7.7 0 0 1-.7-.71v-3.57a.709.709 0 0 1 .7-.7h16.84a.7.7 0 0 1 .7.7v3.57a.7.7 0 0 1-.7.71zm-16.14-1.41h15.44v-2.16h-15.44v2.16z" transform="translate(-1379.53 -1077.62)"/><path class="cls-3" d="M1410 1234l180-23-1 106-142 32z" transform="translate(-1379.53 -1077.62)"/><circle class="cls-4" cx="30.47" cy="156.38" r="5"/><circle id="Ellipse_957_copy_2" data-name="Ellipse 957 copy 2" class="cls-4" cx="67.47" cy="271.38" r="5"/><circle id="Ellipse_957_copy_3" data-name="Ellipse 957 copy 3" class="cls-4" cx="208.47" cy="238.38" r="5"/><circle id="Ellipse_957_copy" data-name="Ellipse 957 copy" class="cls-4" cx="208.97" cy="133.88" r="4.5"/></svg>