<svg id="INFO_ENG_copy" data-name="INFO ENG copy" xmlns="http://www.w3.org/2000/svg" viewBox="0 0 925.39 1172.95"><title>INFO_KO</title><path id="_5_2" data-name=" 5 2" d="M142.77,930.24a49.78,49.78,0,0,0-27.42-12.66l-55.08-8.34,7-45.57h73.17a3.49,3.49,0,0,0,4-2.87,3.16,3.16,0,0,0,0-1v-12a3,3,0,0,0-2.68-3.33,2.9,2.9,0,0,0-.83,0H54.6a6,6,0,0,0-3.36.69,5.14,5.14,0,0,0-1.5,3.09l-10.8,69.78a6.75,6.75,0,0,0,4.54,8.41,7.21,7.21,0,0,0,1.4.26L104,936.45A46.4,46.4,0,0,1,124,944q7.29,5.4,7.29,17.58a63.62,63.62,0,0,1-3.51,23.13,31.89,31.89,0,0,1-9.45,13.5,32.3,32.3,0,0,1-13.89,6.36,84.74,84.74,0,0,1-16.89,1.62,214.46,214.46,0,0,1-24.3-1.35q-11.88-1.35-21.33-2.7a3.87,3.87,0,0,0-3.9.69,10.55,10.55,0,0,0-1.5,2.55l-1.35,6.93a6.63,6.63,0,0,0-.12,3.48,4.83,4.83,0,0,0,3.09,2.4,58.26,58.26,0,0,0,11.49,3.45c4.41.9,8.91,1.59,13.5,2.13s8.91.93,13,1.2,7.41.39,10.11.39a118.69,118.69,0,0,0,27.54-3,49.21,49.21,0,0,0,21.21-10.5,48.35,48.35,0,0,0,13.5-20.1,91.53,91.53,0,0,0,4.71-31.92Q153.15,940.24,142.77,930.24Z" transform="translate(-1.89 -8.35)" style="fill:#fff"/><path id="_3" data-name=" 3" d="M112.7,174.33a50.12,50.12,0,0,0-27-12.69l-21.6-3.78v-.27L110,114.66a20.1,20.1,0,0,0,4-5.25,17.5,17.5,0,0,0,1.35-6.09V92.52a4,4,0,0,0-1.2-2.7,4.7,4.7,0,0,0-3.66-1.35H8.21a3.24,3.24,0,0,0-3.75,2.61,3.4,3.4,0,0,0,0,.9v11.61a3.58,3.58,0,0,0,3,4,3.42,3.42,0,0,0,1,0H88.13v.27L38.72,154.17a9.63,9.63,0,0,0-2,2.85,10.4,10.4,0,0,0-.69,4.2v8.1A5.31,5.31,0,0,0,40.91,175h.24l32.4,5.4A44.19,44.19,0,0,1,94,188q6.89,5.4,6.87,17.58A60.23,60.23,0,0,1,97,229a32,32,0,0,1-10.26,13.53,35.21,35.21,0,0,1-14.7,6.21,96.78,96.78,0,0,1-17.16,1.5,214.46,214.46,0,0,1-24.3-1.35q-11.88-1.35-21.6-2.7a3.91,3.91,0,0,0-3.9.66,10.74,10.74,0,0,0-1.5,2.58l-1.35,6.93a6.52,6.52,0,0,0-.12,3.45,4.74,4.74,0,0,0,3.09,2.4,55.36,55.36,0,0,0,11.61,3.45c4.5.9,9.06,1.62,13.65,2.13s8.94.93,13.08,1.2,7.47.42,10,.42a126.46,126.46,0,0,0,28.5-3A52.63,52.63,0,0,0,103.94,256a47,47,0,0,0,13.89-20.1,90.81,90.81,0,0,0,4.86-32.16C122.69,190.65,119.36,180.81,112.7,174.33Z" transform="translate(-1.89 -8.35)" style="fill:#fff"/><path id="Shape_1277_copy_5" data-name="Shape 1277 copy 5" d="M625.5,928.14a61.68,61.68,0,0,1-60.3-50l-5.13,5.16a2.12,2.12,0,0,1-3,0l-5.64-5.7a2.07,2.07,0,0,1-.05-2.92l.05-.05,17.79-17.94a2.11,2.11,0,0,1,2.67-.24l20,13.89a2.13,2.13,0,0,1,.51,2.94l-4.53,6.6a2,2,0,0,1-1.35.9,2.1,2.1,0,0,1-1.56-.36l-4.86-3.36a46.55,46.55,0,0,0,38,35.52V823.5a2.1,2.1,0,0,1,2.1-2.1h10.62a2.1,2.1,0,0,1,2.1,2.1v89.1a46.67,46.67,0,0,0,37.86-35l-4.08,2.82a2.1,2.1,0,0,1-1.56.36,2.21,2.21,0,0,1-1.35-.9l-4.53-6.6a2,2,0,0,1-.33-1.59,2,2,0,0,1,.87-1.35l20-13.89a2.11,2.11,0,0,1,2.67.24l17.79,17.94a2.07,2.07,0,0,1,0,2.92l0,0-5.64,5.7a2.08,2.08,0,0,1-2.94,0l-5.7-5.73A61.55,61.55,0,0,1,625.5,928.14Zm-58.89-56.52a2.48,2.48,0,0,1,.66.12,2.06,2.06,0,0,1,1.41,1.74,57.24,57.24,0,0,0,113.73-.57,2.14,2.14,0,0,1,1.38-1.77,2.08,2.08,0,0,1,2.16.51l7.14,7.17,2.67-2.67L680.7,860.94l-16.8,11.7,2.13,3.12,6.57-4.56a2.09,2.09,0,0,1,2.28-.06,2.18,2.18,0,0,1,1,2.1,50.9,50.9,0,0,1-44.82,43.86,2,2,0,0,1-1.62-.51,2.13,2.13,0,0,1-.72-1.56v-89.4h-6.42V915a2.21,2.21,0,0,1-.69,1.56,2.07,2.07,0,0,1-1.65.51,50.79,50.79,0,0,1-44.88-44.4,2.21,2.21,0,0,1,1-2.07,2.16,2.16,0,0,1,2.28.06l7.29,5.07,2.16-3.12L571,860.94,555.9,876.15l2.67,2.67,6.54-6.57A2.26,2.26,0,0,1,566.61,871.62Zm64.2-56.7H620.19a2.1,2.1,0,0,1-2.1-2.1V804a18.09,18.09,0,1,1,14.82,0v8.82a2.1,2.1,0,0,1-2.07,2.13Zm-8.52-4.23h6.42v-8.16a2.1,2.1,0,0,1,1.41-2,13.89,13.89,0,1,0-9.24,0,2.1,2.1,0,0,1,1.41,2Zm3.21-15.81a7.52,7.52,0,1,1,7.44-7.59v.06A7.5,7.5,0,0,1,625.5,794.88Zm0-10.8a3.3,3.3,0,1,0,3.27,3.33v-.06A3.29,3.29,0,0,0,625.5,784.08Zm25.26,41.55H600.24a2.1,2.1,0,0,1-2.1-2.1V812.79a2.13,2.13,0,0,1,2.1-2.1h50.52a2.1,2.1,0,0,1,2.1,2.1V823.5a2.1,2.1,0,0,1-2.07,2.13Zm-48.42-4.23h46.32v-6.48H602.34Z" transform="translate(-1.89 -8.35)" style="fill:#fff"/><path d="M88.86,469.14l540-69-3,318-426,96Z" transform="translate(-1.89 -8.35)" style="fill:none;stroke:#8fc4ff;stroke-dasharray:4,2"/><circle cx="86.97" cy="460.79" r="15" style="fill:#0b1233;stroke:#8fc4ff"/><circle id="Ellipse_957_copy_2" data-name="Ellipse 957 copy 2" cx="197.97" cy="805.79" r="15" style="fill:#0b1233;stroke:#8fc4ff"/><circle id="Ellipse_957_copy_3" data-name="Ellipse 957 copy 3" cx="620.97" cy="706.79" r="15" style="fill:#0b1233;stroke:#8fc4ff"/><circle id="Ellipse_957_copy" data-name="Ellipse 957 copy" cx="622.47" cy="393.29" r="13.5" style="fill:#0b1233;stroke:#8fc4ff"/><path d="M204.26,248.87v8H141.89v-8h26.25V235.56H178v13.31Zm-60.35-18.69c15.71-1.87,23.26-9.58,24.08-17.13H147.28V205.2h20.86v-8.45H178v8.45h20.87v7.85H178.16c.82,7.55,8.38,15.26,24.08,17.13L198.73,238c-12.34-1.64-21.09-6.73-25.65-13.76-4.57,7-13.31,12.12-25.65,13.76Z" transform="translate(-1.89 -8.35)" style="fill:#fff"/><path d="M246,235H213.54V201.38H246v5.31h12.41V195.85h9.87V246h-9.87V229.35H246Zm23.78,20.64v7.85h-47V241.32h9.87v14.36Zm-33.43-46.59H223.26v18.17h13.09Zm9.65,5.46v6.95h12.41v-6.95Z" transform="translate(-1.89 -8.35)" style="fill:#fff"/><path d="M689.42,195.88c-7.85-2.32-13.16-7-16.23-13a26.9,26.9,0,0,1-16.9,14.21l-4.79-7.78C663,185.86,668,177.18,668,168.81v-6.36h10v6.36c0,8.15,4.94,16.15,16.08,19.37Zm9.87,4.56h9.79v28H663.32v-28h9.79v6.43h26.18Zm0,14H673.11v6.2h26.18Zm9.79-54v37h-9.94v-37Z" transform="translate(-1.89 -8.35)" style="fill:#fff"/><path d="M778.27,160.43v40.83h-9.88V185H757.48c-1.87,7.85-9,13.16-17.8,13.16-10.17,0-18.1-7.18-18.1-17.13s7.93-17,18.1-17c8.82,0,15.93,5.39,17.8,13.09h10.91V160.43ZM748.5,181.07c0-5.46-3.81-8.6-8.82-8.6s-8.68,3.14-8.68,8.6,3.74,8.68,8.68,8.68S748.5,186.53,748.5,181.07Zm-17.12,23.26h46.89v25h-9.88V212.11h-37Z" transform="translate(-1.89 -8.35)" style="fill:#fff"/><path d="M842.88,165.59c0,18.62-11.51,32.23-31.55,38.59l-4-7.93c14.36-4.48,23.4-12.71,25.05-22.81H810.88v-7.85Zm22.89,54.67v7.85H819V205.82h9.87v14.44Zm-11.59-39.79v-20h9.87v50.33h-9.87V188.48H842.29v-8Z" transform="translate(-1.89 -8.35)" style="fill:#fff"/><path d="M10.65,63.62c1.78-.12,3.53-.27,5.21-.53l.19,2.3a73,73,0,0,1-13.75,1l-.41-2.57c1.64,0,3.56,0,5.57-.07V60.4h3.19Zm-8.28-5c3.29-.87,4.85-2.93,5.07-5.14H3V51H7.46v-2.4h3.19V51h4.49v2.52H10.68c.21,2.11,1.82,4.1,5.06,4.94l-1.39,2.4A7.94,7.94,0,0,1,9.09,57a8.06,8.06,0,0,1-5.3,4.1ZM20.23,48.35V70.53H17.06V48.35Z" transform="translate(-1.89 -8.35)" style="fill:#fff"/><path d="M27.62,62.9a37.91,37.91,0,0,0,6.05-.55l.24,2.56a40.09,40.09,0,0,1-7.87.6H24.5V50.92h8.19v2.57H27.62ZM42.84,48.35V70.48h-3V59.42h-2v10h-3V48.78h3v8.09h2V48.35Z" transform="translate(-1.89 -8.35)" style="fill:#fff"/><path d="M592.87,17.79c0,4.87-2.47,7.92-5.81,7.92s-5.81-3.05-5.81-7.92,2.47-7.88,5.81-7.88S592.87,12.94,592.87,17.79Zm-8.57,0c0,3.28,1.13,5,2.76,5s2.76-1.76,2.76-5-1.13-5-2.76-5S584.3,14.52,584.3,17.79Zm14.64-9.44V30.53h-3.17V8.35Z" transform="translate(-1.89 -8.35)" style="fill:#fff"/><path d="M614.08,20.62a8.16,8.16,0,0,1-4.87-4.13A8.5,8.5,0,0,1,604,21.24l-1.66-2.49a7.22,7.22,0,0,0,5.19-7.18v-2h3.21v2.25a6.48,6.48,0,0,0,5,6.34Zm6.27,5.59c0,2.69-2.88,4.27-7.47,4.27s-7.48-1.58-7.48-4.27S608.28,22,612.88,22,620.35,23.55,620.35,26.21Zm-3.14,0c0-1.22-1.52-1.8-4.33-1.8s-4.34.58-4.34,1.8S610.05,28,612.88,28,617.21,27.46,617.21,26.21ZM623,13.51v2.62h-2.93v5.33h-3.17V8.4h3.17v5.11Z" transform="translate(-1.89 -8.35)" style="fill:#fff"/><path d="M24.48,290.3c0,12.75-5.3,24.1-20.2,31.46L2,318.55c12.05-5.9,17.6-14.45,18.35-24.95H4v-3.3ZM39,285.5v44.81h-4.1V306.8H24.38v-3.35H34.89V285.5Z" transform="translate(-1.89 -8.35)" style="fill:#8fc4ff"/><path d="M53.53,316.15A89.76,89.76,0,0,0,69,314.9l.3,3.4a94.8,94.8,0,0,1-16.8,1.25h-3v-16.8h12.7V293.7H49.43v-3.35H66.28V306.1H53.53Zm32.66-30.7v44.81h-4V306.5H75.88V328H72V286.45h3.85v16.7h6.36v-17.7Z" transform="translate(-1.89 -8.35)" style="fill:#8fc4ff"/><path d="M117,290.25c0,12.75-5.85,24.3-20.35,31.55l-2.25-3.2c11.45-5.75,17.6-14.35,18.55-25H96.48v-3.4Zm18.81,16.8h-7.2v23.26h-4.1V285.45h4.1v18.2h7.2Z" transform="translate(-1.89 -8.35)" style="fill:#8fc4ff"/><path d="M42.64,366.85v3.35H2.08v-3.35Zm-3.9-3.55c-6.91-1.1-13.51-4.7-16.36-9.8-2.8,5.15-9.45,8.7-16.4,9.8l-1.5-3.2c8-1.15,15.8-6.05,15.8-11.9v-2h4.2v2c0,5.7,7.85,10.75,15.81,11.9Zm-1.05,19c0,5.16-5.75,8-15.31,8S7,387.46,7,382.3s5.8-7.95,15.4-7.95S37.69,377.2,37.69,382.3Zm-4.15,0c0-3.05-4.16-4.8-11.16-4.8s-11.25,1.75-11.25,4.8,4.15,4.81,11.25,4.81S33.54,385.41,33.54,382.3Z" transform="translate(-1.89 -8.35)" style="fill:#8fc4ff"/><path d="M60.78,370.7c-6.65,0-11.65-4.6-11.65-11.1s5-11,11.65-11,11.75,4.55,11.75,11S67.48,370.7,60.78,370.7Zm0-3.55a7.38,7.38,0,0,0,7.75-7.55c0-4.35-3.3-7.45-7.75-7.45a7.5,7.5,0,1,0,0,15ZM86.24,386v3.35H56V374.9h4.1V386Zm-1.35-7.71h-4.1V345.5h4.1Z" transform="translate(-1.89 -8.35)" style="fill:#8fc4ff"/><path d="M123.39,368.35c-9.76,1.65-20.51,1.8-28.56,1.85l-.6-3.3c3.75,0,8.15,0,12.65-.2v-4.8h-8.6V347.7h21.1v3.35h-17v7.5h17.5v3.35H111v4.65c4.15-.25,8.25-.55,12.16-1.15Zm3.45,4.95h4v16.41H101.48V373.3h4.1V378h21.26Zm0,7.9H105.58v5.21h21.26Zm4-35.7v25.8h-4.1V345.5Z" transform="translate(-1.89 -8.35)" style="fill:#8fc4ff"/><path d="M147,375.2a106,106,0,0,0,21.15-2.1l.45,3.5a106.55,106.55,0,0,1-22,2.1h-3.7V349.8H147Zm29.86-29.75v44.81h-4.1V345.45Z" transform="translate(-1.89 -8.35)" style="fill:#8fc4ff"/><path d="M192.08,375.7a109,109,0,0,0,20.2-1.5l.45,3.4c-6.85,1.3-12.75,1.6-21.2,1.6H188V349.75h20.85v3.4H192.08ZM228,366.55h-7.4v23.86h-4.11v-45h4.11v17.7H228Z" transform="translate(-1.89 -8.35)" style="fill:#8fc4ff"/><path d="M61.73,1084.4c-6.15,1.25-11.45,1.55-20.85,1.55h-3.5v-20.6H57.23v3.3H41.48v13.95c8.85,0,14-.35,19.8-1.5ZM46.33,1102h25.8v3.34H42.23v-14.65h4.1Zm30.45-27.21v3.4H70.13v15.75H66v-32.45h4.1v13.3Z" transform="translate(-1.89 -8.35)" style="fill:#fff"/><path d="M106.53,1062.65h3.9V1104h-3.9V1088.5h-8.1v-3.35h8.1v-7.9h-7.4c-2.1,7.55-6.95,14.3-15.45,19.35l-2.4-2.9c9.65-5.75,14.45-13.8,15.15-23.2H83.28v-3.35h17.2a38.63,38.63,0,0,1-.6,6.8h6.65Zm12.9-1.2v44.81h-3.9v-44.81Z" transform="translate(-1.89 -8.35)" style="fill:#fff"/><path d="M140,1086.7c-6.65,0-11.65-4.6-11.65-11.1s5-11,11.65-11,11.75,4.55,11.75,11S146.73,1086.7,140,1086.7Zm0-3.55a7.38,7.38,0,0,0,7.75-7.55c0-4.35-3.3-7.45-7.75-7.45a7.5,7.5,0,1,0,0,15ZM165.48,1102v3.34h-30.2v-14.4h4.1V1102Zm-1.35-7.71H160V1061.5h4.1Z" transform="translate(-1.89 -8.35)" style="fill:#fff"/><path d="M213.88,1082.8v3.3H173.33v-3.3Zm-38.25-6c8-.85,15.15-4.75,15.35-9.75h-13.9v-3.3h33.15v3.3H196.28c.2,5,7.4,8.9,15.35,9.75l-1.45,3.25c-7.35-.9-14.1-4.15-16.55-9-2.5,4.9-9.2,8.15-16.55,9Zm33.3,21.3c0,5.25-5.8,8.16-15.35,8.16s-15.35-2.91-15.35-8.16,5.75-8.1,15.35-8.1S208.93,1092.9,208.93,1098.1Zm-4.15,0c0-3.1-4.2-4.9-11.2-4.9s-11.2,1.8-11.2,4.9,4.15,4.91,11.2,4.91S204.78,1101.26,204.78,1098.1Z" transform="translate(-1.89 -8.35)" style="fill:#fff"/><path d="M259.88,1080.8v3.3h-40.6v-3.3Zm-36-10.8c0-5,5.9-7.8,15.75-7.8s15.75,2.75,15.75,7.8-5.9,7.75-15.75,7.75S223.83,1075.05,223.83,1070Zm4.5,32.6H256v3.2h-31.7v-10.75h26.3v-4H224.18V1088h30.5v10.1H228.33ZM228,1070c0,3,4.2,4.7,11.55,4.7s11.55-1.7,11.55-4.7-4.2-4.7-11.55-4.7S228,1067,228,1070Z" transform="translate(-1.89 -8.35)" style="fill:#fff"/><path d="M65.13,1147.25a112.43,112.43,0,0,1-12.85,1.5v16.16h-4.1V1149c-4.45.2-8.7.25-12.4.25l-.55-3.45c8.35,0,19.7-.1,29.55-1.6ZM38.58,1132.8c0-5.5,4.75-9.25,11.45-9.25s11.4,3.75,11.4,9.25S56.68,1142,50,1142,38.58,1138.25,38.58,1132.8Zm4,0c0,3.5,3.1,5.85,7.5,5.85s7.45-2.35,7.45-5.85S54.38,1127,50,1127,42.53,1129.3,42.53,1132.8Zm29.6-11.3v44.85H68V1121.5Z" transform="translate(-1.89 -8.35)" style="fill:#fff"/><path d="M107.93,1130.25H81.48V1127H92.63v-5.45h4.1V1127h11.2ZM94.68,1149.4c-6.35,0-10.7-3.3-10.7-8.35s4.35-8.3,10.7-8.3,10.75,3.3,10.75,8.3S101,1149.4,94.68,1149.4Zm0-3.2c4,0,6.85-2,6.85-5.15s-2.8-5.1-6.85-5.1-6.8,2-6.8,5.1S90.58,1146.2,94.68,1146.2ZM92.33,1162h25.8v3.34H88.23v-12.85h4.1Zm30.45-25.71v3.45h-6.65v15.4H112v-33.6h4.1v14.75Z" transform="translate(-1.89 -8.35)" style="fill:#fff"/><path d="M161.63,1125.05c0,11.65-5.85,20.35-20.25,25.15l-1.7-3.3c7.55-2.4,12.4-6,15.1-10.25l-14.6,1.1-.75-3.35,16.85-.75a20,20,0,0,0,1.1-5.25H141.73v-3.35ZM176.78,1162v3.34h-29.5v-13.85h4.1V1162Zm-5.45-26.21V1121.5h4.15v33.25h-4.15V1139.1h-9.8v-3.35Z" transform="translate(-1.89 -8.35)" style="fill:#fff"/><path d="M204.33,1147.5a16.74,16.74,0,0,1-8.5-9.25,18.65,18.65,0,0,1-8.9,10.4l-2.3-3.15a16.55,16.55,0,0,0,9.2-14.3v-6.6h3.95v6.6a14.64,14.64,0,0,0,8.8,13.15ZM223.68,1162v3.34H193.13V1151h4.1v11Zm-14-25.86h-7v-3.35h7v-10.4h3.85v31.45h-3.85Zm12.7,19h-3.95v-33.65h3.95Z" transform="translate(-1.89 -8.35)" style="fill:#fff"/><path d="M246.23,1133.35c0,8.15,5.1,16.3,11.6,19.4l-2.4,3.25c-5.1-2.55-9.2-7.9-11.25-14.2-2,6.65-6.1,12.3-11.15,15l-2.5-3.25c6.5-3.25,11.6-11.9,11.6-20.2v-8h4.1Zm21.25-11.9v44.9h-4.1V1140H253v-3.35h10.4v-15.2Z" transform="translate(-1.89 -8.35)" style="fill:#fff"/><path d="M317.18,1156.9v3.4H276.53v-3.4Zm-3.85-9.5c-6.8-1.55-13.8-6.35-16.65-13-2.85,6.55-9.85,11.35-16.6,13l-1.85-3.4c7.85-1.55,16.3-8.3,16.3-16v-3.45h4.3v3.45c0,7.65,8.5,14.45,16.35,16Z" transform="translate(-1.89 -8.35)" style="fill:#fff"/><path d="M560.08,960.25V972.1h13V960.25h4V990.5H556V960.25Zm0,26.9h13v-11.8h-13Zm30.1-30.7v44.9h-4.1v-44.9Z" transform="translate(-1.89 -8.35)" style="fill:#fff"/><path d="M640.13,992.15v3.36h-40.7v-3.36Zm-4.65-8.2h-30.8v-23.6H635v3.3h-26.2v6.65H634v3.25h-25.2v7.1h26.65Z" transform="translate(-1.89 -8.35)" style="fill:#fff"/><path d="M686,991.85v3.36H645.48v-3.36h15.8V980.2h4.1v11.65Zm-9-20.25c.1-2.35.1-4.5.1-6.55v-.9h-26.8V960.8h28.5l2.35.05v4.2a92.39,92.39,0,0,1-1.9,20.85l-4-.5a93.19,93.19,0,0,0,1.6-10.6l-27.1,1.45-.6-3.5Z" transform="translate(-1.89 -8.35)" style="fill:#fff"/><path d="M704.18,981.7c-6.65,0-11.65-4.6-11.65-11.1s5-11,11.65-11,11.75,4.55,11.75,11S710.88,981.7,704.18,981.7Zm0-3.55a7.38,7.38,0,0,0,7.75-7.55c0-4.35-3.3-7.45-7.75-7.45a7.5,7.5,0,1,0,0,15ZM729.63,997v3.34h-30.2V985.9h4.1V997Zm-1.35-7.71h-4.1V956.5h4.1Z" transform="translate(-1.89 -8.35)" style="fill:#fff"/><path d="M750.58,987.85c4.9-.2,9.9-.45,14.45-1.05l.25,3c-9.3,1.5-19.85,1.7-27.8,1.7l-.45-3.4c2.85,0,6.15-.05,9.5-.15v-13.8h4.05Zm6.2-6.65a95.1,95.1,0,0,0,1.35-16.5H739.48v-3.35h22.65v2.45a111.51,111.51,0,0,1-1.25,17.8ZM779,978.65h-7.15v22.65h-4.1V956.45h4.1V975.2H779Z" transform="translate(-1.89 -8.35)" style="fill:#fff"/><path d="M577.93,1035.55c0,9.55-4.75,15.65-11.4,15.65s-11.4-6.1-11.4-15.65,4.75-15.65,11.4-15.65S577.93,1026,577.93,1035.55Zm-18.9,0c0,7.3,3.1,12,7.5,12s7.45-4.7,7.45-12-3.1-11.95-7.45-11.95S559,1028.3,559,1035.55Zm31.15-19.1v45h-4.1v-45Z" transform="translate(-1.89 -8.35)" style="fill:#fff"/><path d="M605.83,1046.85a96.1,96.1,0,0,0,19.25-1.45l.5,3.4c-6.5,1.2-11.9,1.5-20.4,1.5h-3.45v-29.6h20.4v3.4h-16.3Zm30.6-30.4v45h-4.1V1036.1H619.48v-3.4h12.85v-16.25Z" transform="translate(-1.89 -8.35)" style="fill:#fff"/><path d="M652.18,1047.1a131.79,131.79,0,0,0,21.8-1.6l.4,3.35a130.15,130.15,0,0,1-22.6,1.65h-3.7v-17.2h16.5V1024H647.93v-3.35h20.8v16.05H652.18Zm30.1-30.7v44.95h-4.1V1016.4Z" transform="translate(-1.89 -8.35)" style="fill:#fff"/><path d="M713.83,1040.85v5.1h13.25v14.76h-30.6V1046h13.25v-5.1H691.48v-3.3H732v3.3ZM696,1025.75c0-5.35,6-8.45,15.8-8.45s15.7,3.1,15.7,8.45-6.05,8.35-15.7,8.35S696,1031.05,696,1025.75Zm4.2,0c0,3.25,4.45,5.2,11.6,5.2s11.5-2,11.5-5.2-4.45-5.25-11.5-5.25S700.18,1022.45,700.18,1025.75Zm22.9,23.45h-22.6v8.2h22.6Z" transform="translate(-1.89 -8.35)" style="fill:#fff"/><path d="M754.93,1046.4a74.05,74.05,0,0,0,14.5-1.4l.55,3.45a77.12,77.12,0,0,1-16.25,1.5h-2.85v-28.7h4Zm18.4-28.85h3.9v41.5h-3.9V1034.9h-10v-3.4h10Zm13.45-1.15v44.9h-3.9v-44.9Z" transform="translate(-1.89 -8.35)" style="fill:#fff"/><path d="M835.33,1052.15v3.36h-40.7v-3.36Zm-4.65-8.2h-30.8v-23.6h30.35v3.3H804v6.65h25.2v3.25H804v7.1h26.65Z" transform="translate(-1.89 -8.35)" style="fill:#fff"/><path d="M870.28,1041.7a133.3,133.3,0,0,1-13.3,1.4V1060h-4.1V1043.3c-4.25.15-8.3.2-11.85.2l-.5-3.45c8.45,0,19.75,0,29.5-1.45Zm-26.4-14.2c0-5.25,4.6-8.8,11.25-8.8s11.25,3.55,11.25,8.8-4.6,8.85-11.25,8.85S843.88,1032.8,843.88,1027.5Zm3.85,0c0,3.45,3,5.7,7.4,5.7s7.4-2.25,7.4-5.7-3-5.65-7.4-5.65S847.73,1024.15,847.73,1027.5Zm29.8-11v44.85h-4.1v-11H863.28v-3.2h10.15v-30.6Z" transform="translate(-1.89 -8.35)" style="fill:#fff"/><path d="M927.28,1051.7v3.35H886.73v-3.35Zm-9.1-18.25c.1-2.35.1-4.65.1-7v-2.15H891.53V1021h30.75v5.5a93.42,93.42,0,0,1-1.95,21.9l-4-.4a78.51,78.51,0,0,0,1.7-11.45l-27,1.5-.6-3.4Z" transform="translate(-1.89 -8.35)" style="fill:#fff"/><path d="M559.78,1106.1a78,78,0,0,0,14.4-1.4l.4,3.55a83,83,0,0,1-16.05,1.4h-2.85V1081.9h4.1Zm31.75-29.65v44.81h-3.95V1098.1h-6.35V1119h-3.85v-41.56h3.85v17.25h6.35v-18.25Z" transform="translate(-1.89 -8.35)" style="fill:#fff"/><path d="M599.78,1108.1c8.15,0,19.4,0,29.2-1.55l.35,3c-10.1,1.9-21,2-29.05,2ZM626,1090.3c0,6.25-5,10.55-12,10.55s-12-4.3-12-10.55,5.05-10.55,12-10.55S626,1084,626,1090.3Zm-20,0c0,4.15,3.35,7,8,7s8-2.9,8-7-3.35-7-8-7S606,1086.1,606,1090.3Zm30-13.85v45h-4.1v-45Z" transform="translate(-1.89 -8.35)" style="fill:#fff"/><path d="M660.43,1106.2H656V1103h4.8l1-8.3h-4.75v-3.15h5.1l1.3-10.25h3l-1.25,10.25h7.4L674,1081.3h2.9l-1.25,10.25h4.45v3.15h-4.8l-1,8.3H679v3.2h-5.15l-1.35,11.4h-3l1.35-11.4h-7.4l-1.4,11.4h-2.95Zm10.8-3.2,1-8.3h-7.45l-1,8.3Z" transform="translate(-1.89 -8.35)" style="fill:#fff"/><path d="M686.78,1081h5.6l7,19.6c.85,2.55,1.7,5.1,2.6,7.65h.25c.85-2.55,1.65-5.1,2.5-7.65l7-19.6h5.6v36.65H713v-20.3c0-3.15.35-7.6.6-10.8h-.2l-2.9,8.35-6.95,19.05h-3.1l-7-19.05-2.9-8.35h-.2c.2,3.2.55,7.65.55,10.8v20.3h-4.2Z" transform="translate(-1.89 -8.35)" style="fill:#fff"/><path d="M724.93,1104.05c0-8.8,6-14.3,12.25-14.3,6.9,0,10.8,5,10.8,12.75a17.76,17.76,0,0,1-.2,2.6h-18.3c.3,5.8,3.85,9.5,9,9.5a11.7,11.7,0,0,0,6.8-2.15l1.65,3a16.16,16.16,0,0,1-9,2.8C730.73,1118.26,724.93,1113,724.93,1104.05Zm19.05-2.2c0-5.5-2.5-8.45-6.75-8.45-3.85,0-7.25,3.1-7.8,8.45Z" transform="translate(-1.89 -8.35)" style="fill:#fff"/><path d="M754.93,1109.2v-15h-4v-3.45l4.25-.25.55-7.6h3.8v7.6h7.35v3.7h-7.35v15.15c0,3.35,1,5.25,4.2,5.25a9.62,9.62,0,0,0,3.1-.7l.9,3.41a17.09,17.09,0,0,1-5,1C756.88,1118.26,754.93,1114.65,754.93,1109.2Z" transform="translate(-1.89 -8.35)" style="fill:#fff"/><path d="M770.08,1110.55c0-5.9,5.15-8.85,16.7-10.15,0-3.5-1.15-6.85-5.6-6.85a15,15,0,0,0-8.15,2.9l-1.8-3.15a20.42,20.42,0,0,1,10.7-3.55c6.6,0,9.4,4.45,9.4,11.15v16.7h-3.75l-.4-3.25H787c-2.6,2.16-5.65,3.91-9,3.91C773.48,1118.26,770.08,1115.46,770.08,1110.55Zm16.7.45v-7.6c-9.15,1.1-12.25,3.35-12.25,6.85,0,3.1,2.1,4.35,4.8,4.35S784.13,1113.35,786.78,1111Z" transform="translate(-1.89 -8.35)" style="fill:#fff"/><path d="M800.38,1081H805v15.35h17.1V1081h4.6v36.65h-4.6v-17.3H805v17.3h-4.65Z" transform="translate(-1.89 -8.35)" style="fill:#fff"/><path d="M834.68,1110.55c0-5.9,5.15-8.85,16.7-10.15,0-3.5-1.15-6.85-5.6-6.85a15,15,0,0,0-8.15,2.9l-1.8-3.15a20.42,20.42,0,0,1,10.7-3.55c6.6,0,9.4,4.45,9.4,11.15v16.7h-3.75l-.4-3.25h-.15c-2.6,2.16-5.65,3.91-9,3.91C838.08,1118.26,834.68,1115.46,834.68,1110.55Zm16.7.45v-7.6c-9.15,1.1-12.25,3.35-12.25,6.85,0,3.1,2.1,4.35,4.8,4.35S848.73,1113.35,851.38,1111Z" transform="translate(-1.89 -8.35)" style="fill:#fff"/><path d="M861.53,1114.51l2.25-3a12.31,12.31,0,0,0,8.05,3.2c3.6,0,5.35-1.9,5.35-4.25,0-2.75-3.2-4-6.2-5.15-3.8-1.4-8.1-3.25-8.1-7.85,0-4.3,3.45-7.7,9.35-7.7a14.07,14.07,0,0,1,8.45,3l-2.2,3a10.22,10.22,0,0,0-6.25-2.4c-3.4,0-5,1.8-5,3.9,0,2.6,3,3.55,6,4.7,4,1.5,8.3,3.1,8.3,8.25,0,4.4-3.5,8.06-9.9,8.06A16.44,16.44,0,0,1,861.53,1114.51Z" transform="translate(-1.89 -8.35)" style="fill:#fff"/><path d="M888,1077.8h4.55v10.9l-.15,5.6c2.5-2.5,5.3-4.55,9-4.55,5.7,0,8.3,3.7,8.3,10.65v17.2h-4.55V1101c0-5.1-1.55-7.25-5.15-7.25-2.8,0-4.7,1.4-7.45,4.15v19.7H888Z" transform="translate(-1.89 -8.35)" style="fill:#fff"/><path d="M594,1155.85v3.25h-40.6v-3.25Zm-31.55,21.8h27.7v3.15h-31.7v-10.55h26.3v-4H558.33v-3.1h30.5v10H562.48Zm26.25-25.6h-29.9v-14.8h4v4.25h21.8v-4.25h4.05Zm-4.05-7.45h-21.8v4.3h21.8Z" transform="translate(-1.89 -8.35)" style="fill:#fff"/><path d="M640.13,1161.1v3.35h-40.7v-3.35h18.3v-4.7H604.68v-11h26.2v-4.65h-26.3v-3.2h30.35v10.9h-26.2v4.7h27.15v3.2h-14v4.7ZM604,1167.9h31.2v13h-4.1v-9.66H604Z" transform="translate(-1.89 -8.35)" style="fill:#fff"/><path d="M667.33,1160.85c-5.9,0-10.2-4.35-10.2-10.55s4.3-10.55,10.2-10.55,10.2,4.35,10.2,10.55S673.18,1160.85,667.33,1160.85Zm0-3.45c3.7,0,6.45-2.9,6.45-7.1s-2.75-7.15-6.45-7.15-6.5,3-6.5,7.15S663.58,1157.4,667.33,1157.4Zm27.4,15.65c0,5.25-5.7,8.21-15,8.21s-15-3-15-8.21,5.7-8.2,15-8.2S694.73,1167.8,694.73,1173.05Zm-4.05,0c0-3.15-4.1-5-10.95-5s-10.9,1.85-10.9,5,4.15,5,10.9,5S690.68,1176.21,690.68,1173.05Zm-5.8-10.85H681v-24.85h3.9v11h5.7v-11.8h3.95v27.2h-3.95v-12h-5.7Z" transform="translate(-1.89 -8.35)" style="fill:#fff"/><path d="M725.28,1141.1c0,13-4.55,24.85-20.3,32.85l-2.3-3.25c8.15-4,13.1-9.15,15.85-15.1l-14.95,1.4-.75-3.55,16.95-1.1a31.54,31.54,0,0,0,1.45-7.9h-16.1v-3.35Zm14.3-4.6v44.8h-4.1v-23.5H725.13v-3.35h10.35v-18Z" transform="translate(-1.89 -8.35)" style="fill:#fff"/><path d="M520.21,250.36h17V278h-17Zm3.85,24.35h9.4v-21.1h-9.4Zm32.65-29.55V290h-3.9v-23.7h-6v21.5h-3.85v-41.6h3.85v16.75h6V245.16Z" transform="translate(-1.89 -8.35)" style="fill:#8fc4ff"/><path d="M577.21,266.66c-6.7,0-11.55-4-11.55-9.9s4.85-10,11.55-10,11.6,4.05,11.6,10S583.91,266.66,577.21,266.66Zm0-3.3c4.4,0,7.6-2.75,7.6-6.6s-3.2-6.65-7.6-6.65-7.6,2.75-7.6,6.65S572.86,263.36,577.21,263.36Zm25.7,22.8v3.25H572.46V278.16h24.9v-4.55h-25v-3.25h29v10.85h-24.9v5Zm-1.5-18h-4.1v-23h4.1Z" transform="translate(-1.89 -8.35)" style="fill:#8fc4ff"/><path d="M644.21,250c0,12.75-5.3,24.1-20.2,31.45l-2.25-3.2c12-5.9,17.6-14.45,18.35-24.95H623.76V250Zm14.5-4.81V290h-4.1v-23.5h-10.5v-3.35h10.5v-18Z" transform="translate(-1.89 -8.35)" style="fill:#8fc4ff"/><path d="M673.26,275.86a89.76,89.76,0,0,0,15.5-1.25l.3,3.4a94.8,94.8,0,0,1-16.8,1.25h-3v-16.8H682v-9H669.16v-3.36H686v15.76H673.26Zm32.65-30.7V290H702V266.21h-6.35v21.5h-3.85V246.16h3.85v16.7H702v-17.7Z" transform="translate(-1.89 -8.35)" style="fill:#8fc4ff"/><path d="M754.46,266v3.1H713.81V266Zm-31.65,20.45h28v3h-32v-10h26.6v-3.75h-26.7v-2.95h30.75v9.55h-26.6Zm22.4-37.1h-26.3v-2.91h30.35v9.36h-26.2v3.85h27v2.95H719V253h26.2Z" transform="translate(-1.89 -8.35)" style="fill:#8fc4ff"/><path d="M534.11,319.66a20.09,20.09,0,0,0,11.5,17.7l-2.25,3.15a22.17,22.17,0,0,1-11.25-13.1c-1.9,6.25-6.05,11.45-11.15,13.95l-2.3-3.15c6.6-3.15,11.4-10.8,11.4-18.55v-3.45H519.91v-3.3H530v-7h4.1v7h9.95v3.3h-9.95Zm21.45-14.56v45h-4.1v-23.6h-9.7v-3.35h9.7V305.1Z" transform="translate(-1.89 -8.35)" style="fill:#8fc4ff"/><path d="M571.31,335.81a131.79,131.79,0,0,0,21.8-1.6l.4,3.35a130.15,130.15,0,0,1-22.6,1.65h-3.7V322h16.5v-9.35H567.06V309.3h20.8v16.06H571.31Zm30.1-30.71v45h-4.1v-45Z" transform="translate(-1.89 -8.35)" style="fill:#8fc4ff"/><path d="M637.21,313.06H610.76v-3.3h11.15V304.7H626v5.06h11.2ZM624,330.86c-6.4,0-10.7-3.05-10.7-7.85s4.3-7.8,10.7-7.8,10.75,3.05,10.75,7.8S630.36,330.86,624,330.86Zm0-3.1c4.1,0,6.85-1.8,6.85-4.75s-2.75-4.75-6.85-4.75-6.8,1.85-6.8,4.75S619.86,327.76,624,327.76Zm17.4,5.45h4v16.2h-28.2v-16.2h4V338h20.1Zm0,8h-20.1v4.95h20.1ZM652.06,320h-6.65v11.2h-4.1v-26h4.1v11.4h6.65Z" transform="translate(-1.89 -8.35)" style="fill:#8fc4ff"/><path d="M663.51,334.91a106,106,0,0,0,21.15-2.1l.45,3.5a106.55,106.55,0,0,1-22,2.1h-3.7v-28.9h4.1Zm29.85-29.75V350h-4.1v-44.8Z" transform="translate(-1.89 -8.35)" style="fill:#8fc4ff"/><path d="M708.61,335.41a109,109,0,0,0,20.2-1.5l.45,3.4c-6.85,1.3-12.75,1.6-21.2,1.6h-3.55V309.46h20.85v3.4H708.61Zm35.9-9.15h-7.4v23.85H733V305.16h4.1v17.7h7.4Z" transform="translate(-1.89 -8.35)" style="fill:#8fc4ff"/><path d="M638.06,157.65q0,19.48-4.74,32.06t-13.55,20.15a49.75,49.75,0,0,1-21.27,10.55,118.83,118.83,0,0,1-27.64,3q-4.07,0-10.16-.4t-13-1.2q-6.91-.81-13.55-2.14a57.06,57.06,0,0,1-11.52-3.47c-1.8-.71-2.84-1.52-3.11-2.41a6.62,6.62,0,0,1,.13-3.47l1.36-7a10.52,10.52,0,0,1,1.49-2.58c.63-.81,1.94-1,3.93-.67q9.48,1.35,21.41,2.71a216.38,216.38,0,0,0,24.38,1.35,85.21,85.21,0,0,0,16.94-1.62,32.49,32.49,0,0,0,14-6.38q6-4.76,9.49-13.58t3.52-23.21q0-12.2-7.32-17.64t-20-7.6l-59.34-9.77q-7-1.35-6-8.69l10.84-70c.36-1.62.85-2.66,1.49-3.11a6,6,0,0,1,3.38-.68h86.72c2.34,0,3.52,1.1,3.52,3.29v12.1c0,2.56-1.36,3.84-4.06,3.84H551.89l-7,45.72,55.28,8.39q17.07,2.71,27.51,12.72T638.06,157.65Z" transform="translate(-1.89 -8.35)" style="fill:#fff"/></svg>