<svg id="INFO_ENG_copy" data-name="INFO ENG copy" xmlns="http://www.w3.org/2000/svg" viewBox="0 0 852.62 1173.49"><title>INFO_CN</title><path id="_5_2" data-name=" 5 2" d="M142.77,930.24a49.78,49.78,0,0,0-27.42-12.66l-55.08-8.34,7-45.57h73.17a3.49,3.49,0,0,0,4-2.87,3.16,3.16,0,0,0,0-1v-12a3,3,0,0,0-2.68-3.33,2.9,2.9,0,0,0-.83,0H54.6a6,6,0,0,0-3.36.69,5.14,5.14,0,0,0-1.5,3.09l-10.8,69.78a6.75,6.75,0,0,0,4.54,8.41,7.21,7.21,0,0,0,1.4.26L104,936.45A46.4,46.4,0,0,1,124,944q7.29,5.4,7.29,17.58a63.62,63.62,0,0,1-3.51,23.13,31.89,31.89,0,0,1-9.45,13.5,32.3,32.3,0,0,1-13.89,6.36,84.74,84.74,0,0,1-16.89,1.62,214.46,214.46,0,0,1-24.3-1.35q-11.88-1.35-21.33-2.7a3.87,3.87,0,0,0-3.9.69,10.55,10.55,0,0,0-1.5,2.55l-1.35,6.93a6.63,6.63,0,0,0-.12,3.48,4.83,4.83,0,0,0,3.09,2.4,58.26,58.26,0,0,0,11.49,3.45c4.41.9,8.91,1.59,13.5,2.13s8.91.93,13,1.2,7.41.39,10.11.39a118.69,118.69,0,0,0,27.54-3,49.21,49.21,0,0,0,21.21-10.5,48.35,48.35,0,0,0,13.5-20.1,91.53,91.53,0,0,0,4.71-31.92Q153.15,940.24,142.77,930.24Z" transform="translate(-1.58 -8.11)" style="fill:#fff"/><path id="_3" data-name=" 3" d="M112.7,174.33a50.12,50.12,0,0,0-27-12.69l-21.6-3.78v-.27L110,114.66a20.1,20.1,0,0,0,4-5.25,17.5,17.5,0,0,0,1.35-6.09V92.52a4,4,0,0,0-1.2-2.7,4.7,4.7,0,0,0-3.66-1.35H8.21a3.24,3.24,0,0,0-3.75,2.61,3.4,3.4,0,0,0,0,.9v11.61a3.58,3.58,0,0,0,3,4,3.42,3.42,0,0,0,1,0H88.13v.27L38.72,154.17a9.63,9.63,0,0,0-2,2.85,10.4,10.4,0,0,0-.69,4.2v8.1A5.31,5.31,0,0,0,40.91,175h.24l32.4,5.4A44.19,44.19,0,0,1,94,188q6.89,5.4,6.87,17.58A60.23,60.23,0,0,1,97,229a32,32,0,0,1-10.26,13.53,35.21,35.21,0,0,1-14.7,6.21,96.78,96.78,0,0,1-17.16,1.5,214.46,214.46,0,0,1-24.3-1.35q-11.88-1.35-21.6-2.7a3.91,3.91,0,0,0-3.9.66,10.74,10.74,0,0,0-1.5,2.58l-1.35,6.93a6.52,6.52,0,0,0-.12,3.45,4.74,4.74,0,0,0,3.09,2.4,55.36,55.36,0,0,0,11.61,3.45c4.5.9,9.06,1.62,13.65,2.13s8.94.93,13.08,1.2,7.47.42,10,.42a126.46,126.46,0,0,0,28.5-3A52.63,52.63,0,0,0,103.94,256a47,47,0,0,0,13.89-20.1,90.81,90.81,0,0,0,4.86-32.16C122.69,190.65,119.36,180.81,112.7,174.33Z" transform="translate(-1.58 -8.11)" style="fill:#fff"/><path id="Shape_1277_copy_5" data-name="Shape 1277 copy 5" d="M625.5,928.14a61.68,61.68,0,0,1-60.3-50l-5.13,5.16a2.12,2.12,0,0,1-3,0l-5.64-5.7a2.07,2.07,0,0,1-.05-2.92l.05-.05,17.79-17.94a2.11,2.11,0,0,1,2.67-.24l20,13.89a2.13,2.13,0,0,1,.51,2.94l-4.53,6.6a2,2,0,0,1-1.35.9,2.1,2.1,0,0,1-1.56-.36l-4.86-3.36a46.55,46.55,0,0,0,38,35.52V823.5a2.1,2.1,0,0,1,2.1-2.1h10.62a2.1,2.1,0,0,1,2.1,2.1v89.1a46.67,46.67,0,0,0,37.86-35l-4.08,2.82a2.1,2.1,0,0,1-1.56.36,2.21,2.21,0,0,1-1.35-.9l-4.53-6.6a2,2,0,0,1-.33-1.59,2,2,0,0,1,.87-1.35l20-13.89a2.11,2.11,0,0,1,2.67.24l17.79,17.94a2.07,2.07,0,0,1,0,2.92l0,0-5.64,5.7a2.08,2.08,0,0,1-2.94,0l-5.7-5.73A61.55,61.55,0,0,1,625.5,928.14Zm-58.89-56.52a2.48,2.48,0,0,1,.66.12,2.06,2.06,0,0,1,1.41,1.74,57.24,57.24,0,0,0,113.73-.57,2.14,2.14,0,0,1,1.38-1.77,2.08,2.08,0,0,1,2.16.51l7.14,7.17,2.67-2.67L680.7,860.94l-16.8,11.7,2.13,3.12,6.57-4.56a2.09,2.09,0,0,1,2.28-.06,2.18,2.18,0,0,1,1,2.1,50.9,50.9,0,0,1-44.82,43.86,2,2,0,0,1-1.62-.51,2.13,2.13,0,0,1-.72-1.56v-89.4h-6.42V915a2.21,2.21,0,0,1-.69,1.56,2.07,2.07,0,0,1-1.65.51,50.79,50.79,0,0,1-44.88-44.4,2.21,2.21,0,0,1,1-2.07,2.16,2.16,0,0,1,2.28.06l7.29,5.07,2.16-3.12L571,860.94,555.9,876.15l2.67,2.67,6.54-6.57A2.26,2.26,0,0,1,566.61,871.62Zm64.2-56.7H620.19a2.1,2.1,0,0,1-2.1-2.1V804a18.09,18.09,0,1,1,14.82,0v8.82a2.1,2.1,0,0,1-2.07,2.13Zm-8.52-4.23h6.42v-8.16a2.1,2.1,0,0,1,1.41-2,13.89,13.89,0,1,0-9.24,0,2.1,2.1,0,0,1,1.41,2Zm3.21-15.81a7.52,7.52,0,1,1,7.44-7.59v.06A7.5,7.5,0,0,1,625.5,794.88Zm0-10.8a3.3,3.3,0,1,0,3.27,3.33v-.06A3.29,3.29,0,0,0,625.5,784.08Zm25.26,41.55H600.24a2.1,2.1,0,0,1-2.1-2.1V812.79a2.13,2.13,0,0,1,2.1-2.1h50.52a2.1,2.1,0,0,1,2.1,2.1V823.5a2.1,2.1,0,0,1-2.07,2.13Zm-48.42-4.23h46.32v-6.48H602.34Z" transform="translate(-1.58 -8.11)" style="fill:#fff"/><path d="M88.86,469.14l540-69-3,318-426,96Z" transform="translate(-1.58 -8.11)" style="fill:none;stroke:#8fc4ff;stroke-dasharray:4,2"/><circle cx="87.28" cy="461.03" r="15" style="fill:#0b1233;stroke:#8fc4ff"/><circle id="Ellipse_957_copy_2" data-name="Ellipse 957 copy 2" cx="198.28" cy="806.03" r="15" style="fill:#0b1233;stroke:#8fc4ff"/><circle id="Ellipse_957_copy_3" data-name="Ellipse 957 copy 3" cx="621.28" cy="707.03" r="15" style="fill:#0b1233;stroke:#8fc4ff"/><circle id="Ellipse_957_copy" data-name="Ellipse 957 copy" cx="622.78" cy="393.53" r="13.5" style="fill:#0b1233;stroke:#8fc4ff"/><path d="M165.75,243.11a65.41,65.41,0,0,0-4.49-7.55v29.17h-8.6V237.88a66.2,66.2,0,0,1-8.15,14.81,43.72,43.72,0,0,0-4.11-8.45c4.18-4.87,8.3-12.79,11.06-20.05H142v-8.3h10.69v-8.67c-3.14.6-6.21,1.12-9.12,1.49a30.86,30.86,0,0,0-2.47-6.8c8.23-1.42,17.42-3.59,23.18-6.21l5.91,6.81a78.45,78.45,0,0,1-8.9,2.84v10.54h8v8.3h-8v2.17c2,1.65,8.15,8.15,9.57,9.8Zm17.35-33.87c-1.65,9.27-4.64,18.54-8.45,24.3a61.73,61.73,0,0,0-7.63-4.19c3.89-5.08,6.36-13.31,7.55-21.53Zm25,24.75c-5.39,17.87-16.38,26.1-35.68,30.81a26.37,26.37,0,0,0-4.78-8.3c17.2-3,27.14-9.65,31.78-24.6Zm-13.47-.6c0,4.11-.74,6.51-3.29,8s-5.68,1.72-10.39,1.72a31.35,31.35,0,0,0-2.77-8.75c2.62.08,5.39.08,6.36.08.82,0,1.19-.3,1.19-1.12V195h8.9Zm8.9-2.24a78.61,78.61,0,0,0-7-21.61l7.63-2.55a80.1,80.1,0,0,1,7.63,21.32Z" transform="translate(-1.58 -8.11)" style="fill:#fff"/><path d="M809.7,162.38a120.85,120.85,0,0,1-6.8,15v52h-8.68V190.87c-1.72,2.17-3.44,4.26-5.16,6.13a53.93,53.93,0,0,0-4.78-9.2c6.73-6.73,13.31-17.35,17.05-28Zm31.41,56.23c3.67,0,4.79-1.94,5.24-13.83a26,26,0,0,0,7.85,2.84c-1.05,16.3-4.41,19.59-13.76,19.59H825.56c-11.14,0-15.93-4.56-15.93-11.51,0-5.31,1.34-10.85,26.55-41.43H811.72v-8.38h33.13l2-.3,5.61,3a6.11,6.11,0,0,1-1.12,1.42c-30.89,35.6-32.83,41-32.83,44.72,0,2.77,2.47,3.89,6.73,3.89Z" transform="translate(-1.58 -8.11)" style="fill:#fff"/><path d="M22.73,60.83a14.22,14.22,0,0,1-3,5.64,13.13,13.13,0,0,0,4.23,1.78,11.85,11.85,0,0,0-1.68,2.23,13.4,13.4,0,0,1-4.47-2.23,15.36,15.36,0,0,1-4.08,2.23,10.59,10.59,0,0,0-1.27-1.92v2H9.69v-2c-2.76.27-5.49.51-7.6.7l-.22-2.45c.62,0,1.34-.07,2.09-.14v-7.3H2.09V57.11H23.42v2.26h-11v8.78a12.29,12.29,0,0,0,3.41-1.72,14.86,14.86,0,0,1-2.19-3.56l1.59-.43H13V60.26h7.46l.49-.1Zm-2.07-4.6H4.89V48.86H20.66ZM6.57,59.37v1H9.69v-1Zm0,4H9.69v-1H6.57Zm0,3.14c1-.07,2.07-.14,3.12-.24V65.3H6.57ZM17.81,50.68H7.63v1H17.81Zm0,2.71H7.63v1H17.81Zm-1.76,9a9.08,9.08,0,0,0,1.61,2.35,9.67,9.67,0,0,0,1.63-2.35Z" transform="translate(-1.58 -8.11)" style="fill:#fff"/><path d="M47.25,50.08v2.43h-21V50.08h8.88v-2h2.9v2Zm-.76,17.4c0,1.32-.27,2.09-1.2,2.52a9.61,9.61,0,0,1-3.89.46,8.15,8.15,0,0,0-.55-1.92h-6.2v1.08H32.16V63.16h9.17v4.66c.81,0,1.56,0,1.82,0s.46-.1.46-.39V62.08H30v8.43H27.24V59.71H46.49ZM43.32,53.42V58.7H30.21V53.42Zm-2.91,1.89H32.93v1.47h7.48Zm-1.6,9.75H34.65v1.56h4.16Z" transform="translate(-1.58 -8.11)" style="fill:#fff"/><path d="M64.1,55.84a62.3,62.3,0,0,1,8,6.51l-2.43,2.18A55.82,55.82,0,0,0,62.33,58V70.46H59.21V58.75a29,29,0,0,1-7.64,5.9,16.39,16.39,0,0,0-2-2.59A25.18,25.18,0,0,0,60,52.63H50.37V49.7H71.18v2.93H63.72c-.41.74-.89,1.48-1.39,2.2v2.5Z" transform="translate(-1.58 -8.11)" style="fill:#fff"/><path d="M80.93,66.62a16,16,0,0,0,4.89.55c1.83,0,8.24,0,10.4-.1a11.31,11.31,0,0,0-1.08,2.84H85.82c-4.46,0-7.32-.6-9.21-3.29a17.81,17.81,0,0,1-1.11,3.89,15.53,15.53,0,0,0-2.28-1.25c1.2-2.38,1.39-6.24,1.42-10.32l2.49.17c0,1.1,0,2.2-.09,3.26a7.21,7.21,0,0,0,1.34,2.54V57.74H73.87V55.22h4.06V53H74.42V50.54h3.51V48.11h2.64v2.43H84V53h-3.4v2.21h3.81v.6a6.43,6.43,0,0,0,2.86-4.47H84.67V49H95.25s0,.65,0,1c-.17,4-.38,5.74-1,6.41a2.34,2.34,0,0,1-1.61.82,18.23,18.23,0,0,1-2.66,0,5.77,5.77,0,0,0-.7-2.4,16.31,16.31,0,0,0,2,.1.89.89,0,0,0,.69-.24c.22-.31.39-1.2.51-3.34H89.9a9.09,9.09,0,0,1-4,6.51,16.31,16.31,0,0,0-1.49-1.23v1.11H80.93v2.61h3.16v2.48H80.93Zm4.36-8.47h9.39v7.56H85.29ZM88,63.43h3.89v-3H88Z" transform="translate(-1.58 -8.11)" style="fill:#fff"/><path d="M103.44,65.18c.38.24.84.53,1.39.84,1.63.93,3.86,1.08,6.5,1.08a67.42,67.42,0,0,0,8.81-.6,12.16,12.16,0,0,0-.89,3.17c-1.65.12-5.56.26-8,.26-3,0-5.09-.29-6.84-1.25-1.13-.57-2-1.34-2.5-1.34-.69,0-1.75,1.61-2.59,3l-2-2.9a11.51,11.51,0,0,1,3.34-2.55v-5.3H97.85V57h5.59Zm-1.8-10.63a21.7,21.7,0,0,0-3.46-4.23l2.21-1.49A21,21,0,0,1,104,52.89Zm12.07.33h-8.9V52.19h8.9V48.26h2.9v3.93h3v2.69h-3v7.87c0,1.66-.36,2.43-1.44,2.86a13.6,13.6,0,0,1-4.92.53,10.92,10.92,0,0,0-1-2.91c1.54.08,3.27.08,3.75.08s.67-.17.67-.58Zm-5.95,1a32.38,32.38,0,0,1,3.43,4.64L108.74,62a34,34,0,0,0-3.26-4.84Z" transform="translate(-1.58 -8.11)" style="fill:#fff"/><path d="M587.76,26.62a16,16,0,0,0,4.89.55c1.83,0,8.24,0,10.4-.1A11.31,11.31,0,0,0,602,29.91h-9.32c-4.46,0-7.32-.6-9.21-3.29a17.81,17.81,0,0,1-1.11,3.89,15.53,15.53,0,0,0-2.28-1.25c1.2-2.38,1.39-6.24,1.42-10.32l2.49.17c0,1.1,0,2.2-.09,3.26a7.21,7.21,0,0,0,1.34,2.54V17.74H580.7V15.22h4.06V13h-3.51V10.54h3.51V8.11h2.64v2.43h3.4V13h-3.4v2.21h3.81v.6a6.43,6.43,0,0,0,2.86-4.47H591.5V9h10.59s0,.65,0,1c-.17,4-.38,5.74-1,6.41a2.34,2.34,0,0,1-1.61.82,18.23,18.23,0,0,1-2.66,0,5.63,5.63,0,0,0-.7-2.4,16.31,16.31,0,0,0,2,.1.88.88,0,0,0,.69-.24c.22-.31.39-1.2.51-3.34h-2.55a9.06,9.06,0,0,1-4,6.51,16.31,16.31,0,0,0-1.49-1.23v1.11h-3.45v2.61h3.16v2.48h-3.16Zm4.36-8.47h9.39v7.56h-9.39Zm2.67,5.28h3.89v-3h-3.89Z" transform="translate(-1.58 -8.11)" style="fill:#fff"/><path d="M610.27,25.18c.38.24.84.53,1.39.84,1.63.93,3.87,1.08,6.51,1.08a67.39,67.39,0,0,0,8.8-.6,11.75,11.75,0,0,0-.88,3.17c-1.66.12-5.57.26-8,.26-3.05,0-5.09-.29-6.84-1.25-1.13-.57-2-1.34-2.5-1.34-.69,0-1.75,1.61-2.59,3l-2-2.9a11.51,11.51,0,0,1,3.34-2.55v-5.3h-2.78V17h5.59Zm-1.8-10.63A21.7,21.7,0,0,0,605,10.32l2.21-1.49a21,21,0,0,1,3.62,4.06Zm12.07.33h-8.9V12.19h8.9V8.26h2.91v3.93h2.95v2.69h-2.95v7.87c0,1.66-.36,2.43-1.44,2.86a13.69,13.69,0,0,1-4.93.53,10.92,10.92,0,0,0-1-2.91c1.54.08,3.27.08,3.75.08s.67-.17.67-.58Zm-5.95,1A31.64,31.64,0,0,1,618,20.55L615.57,22a34,34,0,0,0-3.26-4.84Z" transform="translate(-1.58 -8.11)" style="fill:#fff"/><path d="M35.49,306.05a34.86,34.86,0,0,1-8.16,12.65c5.16,4.1,11.91,6.85,20.16,8.21a15.23,15.23,0,0,0-2.45,3.5Q32.37,328,24.43,321.3c-5.5,4.36-12.4,7.26-20.5,9.31a14.81,14.81,0,0,0-2.35-3.5c8.1-1.7,14.9-4.35,20.1-8.41a39.08,39.08,0,0,1-7.8-12.4l3.55-1.1a32.08,32.08,0,0,0,7.1,11A30.62,30.62,0,0,0,31.64,305Zm-16.31-8.2A52.87,52.87,0,0,1,5.33,310.3a21.36,21.36,0,0,0-3.05-2.95,40.89,40.89,0,0,0,13.15-11Zm27.06-3H2.68v-3.6h19.8V284.7h3.7v6.55H46.24Zm-13,1.35c4.7,3.15,10.55,7.75,13.4,11.05l-3.25,2.55c-2.65-3.25-8.35-8.05-13.11-11.35Z" transform="translate(-1.58 -8.11)" style="fill:#8fc4ff"/><path d="M94.19,310.35s0,1.15-.15,1.7c-1,11.15-2,15.46-3.45,17a4.31,4.31,0,0,1-3.35,1.4,51.56,51.56,0,0,1-6.16,0,7.42,7.42,0,0,0-1-3.25,55.25,55.25,0,0,0,5.61.25c.85,0,1.35-.05,1.8-.55,1.1-1,2-4.56,2.75-13.16h-6.1a41.58,41.58,0,0,1-11.61,17,20.61,20.61,0,0,0-3-2.3,34.56,34.56,0,0,0,10.8-14.71H73.58a46.56,46.56,0,0,1-15,15.71,29.65,29.65,0,0,0-2.85-2.65A39.06,39.06,0,0,0,69.48,313.7h-7a45.73,45.73,0,0,1-8.1,6.5,18.44,18.44,0,0,0-2.9-2.6,39.6,39.6,0,0,0,12.8-11.45h-5.5v-19.1h32v19.1H68.63a40.24,40.24,0,0,1-3,4.2ZM62.48,295.1H87v-5H62.48Zm0,7.9H87v-4.95H62.48Z" transform="translate(-1.58 -8.11)" style="fill:#8fc4ff"/><path d="M111.38,311.05v15.06c0,2.05-.45,3.05-1.7,3.65s-3.1.7-6.2.65a14.85,14.85,0,0,0-1.1-3.4c2.15.05,4.1.05,4.7,0s.85-.15.85-.9v-14l-6,2-1-3.6c1.9-.5,4.3-1.25,6.9-2.05V298.2h-6.25v-3.4h6.25v-10h3.45v10h5.35v3.4h-5.35v9.2c1.65-.5,3.3-1,5-1.6l.5,3.45Zm11.4,13.31c2.55-.5,5.25-1.06,7.91-1.6l.29,3.3c-5.45,1.25-11.25,2.5-15.65,3.5l-1-3.6c1.4-.25,3.1-.55,4.9-.91V285.3h3.6v15.4h7.76v3.6h-7.76Zm19.81,2.1c1.2,0,1.4-1.5,1.6-7.26a10.16,10.16,0,0,0,3.25,1.6c-.35,6.61-1.2,9-4.65,9h-5.5c-3.75,0-4.75-1.3-4.75-5.86v-38.7h3.6V302.9a65,65,0,0,0,8-6.35l2.65,2.65a93.91,93.91,0,0,1-10.6,7.35V324c0,2.05.25,2.45,1.65,2.45Z" transform="translate(-1.58 -8.11)" style="fill:#8fc4ff"/><path d="M151.43,324.11a144.36,144.36,0,0,0,9.5-14.41l2.65,2.45c-2.65,4.75-6.15,10.3-9.05,14.46Zm10.3-26.21a47.52,47.52,0,0,0-8.85-7.5l2.4-2.55a47.11,47.11,0,0,1,8.95,7.15ZM197.24,328H172.78v2.4h-3.55v-29a48.12,48.12,0,0,1-4.4,5.65,25,25,0,0,0-2.8-2.85c4.7-4.65,8.75-11.95,11.2-19.45l3.6,1a80.62,80.62,0,0,1-3.7,8.85h9.06a64.61,64.61,0,0,0,3.05-9.6l3.8,1.05c-1,2.8-2.2,6-3.31,8.55h10.36V298h-11v6.5h9.75v3.35h-9.75v6.65h9.75v3.25h-9.75v6.91h12.1ZM181.54,298h-8.76v6.5h8.76Zm0,9.85h-8.76v6.65h8.76Zm-8.76,16.81h8.76V317.7h-8.76Z" transform="translate(-1.58 -8.11)" style="fill:#8fc4ff"/><path d="M19.18,381.26h-12v3.95H3.68V349h15.5Zm-12-29v10.9h8.5V352.3Zm8.5,25.55v-11.3H7.18v11.3ZM47.34,358.4H41.29v26.51c0,2.65-.75,3.8-2.5,4.35s-4.9.7-9.91.65a13.49,13.49,0,0,0-1.35-3.7c3.86.1,7.56.1,8.66.05s1.4-.35,1.4-1.35V358.4H21.43v-3.65H37.59v-9.7h3.7v9.7h6.05ZM30.73,376.2c-1.6-3.05-4.95-8.35-7.6-12.2l3.05-1.6c2.65,3.8,6.15,8.9,7.81,11.9Z" transform="translate(-1.58 -8.11)" style="fill:#8fc4ff"/><path d="M54.18,356h3.75v34.46H54.18Zm3.6-10.55a33.71,33.71,0,0,1,6.15,7.05l-3,2a41.13,41.13,0,0,0-6-7.3Zm7.3,13.5H83.84V381.6H65.08Zm29.81,27c0,2.1-.45,3-1.75,3.65s-3.4.7-6.45.7a16.13,16.13,0,0,0-1.2-3.5c2.1.1,4.2.05,4.75.05s.85-.25.85-.9V351.1h-24v-3.5H94.89ZM68.43,368.7h11.9v-6.65H68.43Zm0,9.8h11.9v-6.7H68.43Z" transform="translate(-1.58 -8.11)" style="fill:#8fc4ff"/><path d="M36.18,1084.05a18.8,18.8,0,0,0-2.4-3c9-5,17.65-13.5,21.55-20.2h3.85a65.91,65.91,0,0,0,22.65,19.55,18.52,18.52,0,0,0-2.55,3.35c-8.1-4.75-17.2-12.55-21.8-19C53.38,1071.05,45,1078.9,36.18,1084.05Zm23.25-6.9v29.26H55.58v-29.26Z" transform="translate(-1.58 -8.11)" style="fill:#fff"/><path d="M102.23,1064.3c-1.75,4-4,8.8-6,12.7,4.45,4.1,5.5,7.7,5.5,10.8,0,2.7-.7,4.85-2.25,5.85a6.91,6.91,0,0,1-2.9,1,20.74,20.74,0,0,1-4,0,9.57,9.57,0,0,0-1-3.45,13.68,13.68,0,0,0,3.45.1,3.5,3.5,0,0,0,1.85-.45c.95-.55,1.3-1.85,1.3-3.4,0-2.75-1.3-6.15-5.7-10,1.8-3.55,3.55-7.8,4.9-11.2h-7v40.21H86.83V1062.8H99.08l.6-.15Zm15.5-3.2c-.25.7-.5,1.45-.8,2.15,3.1,5.9,8.55,11.55,14,14.35a15,15,0,0,0-2.5,2.85A40.83,40.83,0,0,1,115.28,1067a36.94,36.94,0,0,1-12.3,14.2,10.8,10.8,0,0,0-2.4-2.8,33.31,33.31,0,0,0,13.4-17.9Zm-10.1,19h3.6v7.45c0,6.5-.7,13.55-7.1,19.11a13.41,13.41,0,0,0-3.35-2.2c6.15-5,6.85-11.31,6.85-17Zm12,0h3.65v26.25h-3.65Z" transform="translate(-1.58 -8.11)" style="fill:#fff"/><path d="M142.13,1097.85v8.5h-3.5v-7.84l-3.45.59-.65-3.6,4.1-.65V1064.5l2,.7a56,56,0,0,0,11.8-4.4l3.2,2.65a72.42,72.42,0,0,1-13.5,4.5v5.75h11.5v3.4h-11.5v6.1H154v3.45h-11.9v7.6c4.1-.65,8.7-1.45,13.2-2.25l.2,3.45Zm36.2-14.25a32.16,32.16,0,0,1-8.35,14.16,29.41,29.41,0,0,0,11,5.39,10.92,10.92,0,0,0-2.45,3.2,30.75,30.75,0,0,1-11.3-6.14,40.94,40.94,0,0,1-12.85,6.3,12.8,12.8,0,0,0-2.05-3.25,35.22,35.22,0,0,0,12.25-5.66,33.81,33.81,0,0,1-6.35-10.75l2.45-.65h-4.5v-3.4h19.15l.7-.15Zm-15.9-13.6c0,4-1,9-6,12.1a13.4,13.4,0,0,0-2.5-2.55c4.45-2.75,5-6.35,5-9.65v-7.05h14.75v12.25c0,1,.05,1.45.3,1.65a1.27,1.27,0,0,0,.8.2h1.45a2.92,2.92,0,0,0,1.05-.15,1.51,1.51,0,0,0,.55-1.1,33.24,33.24,0,0,0,.25-4.25,7.75,7.75,0,0,0,2.8,1.4,31.06,31.06,0,0,1-.5,5,2.61,2.61,0,0,1-1.5,1.65,4.94,4.94,0,0,1-2.35.5H174a4.14,4.14,0,0,1-2.75-.9c-.7-.6-1-1.45-1-4.2v-8.75h-7.85Zm-1,16.2a27.69,27.69,0,0,0,5.8,9.15,27,27,0,0,0,6.3-9.15Z" transform="translate(-1.58 -8.11)" style="fill:#fff"/><path d="M240.43,1093H222.38a87.43,87.43,0,0,1,16.75,10.55l-2.5,2.75c-4.1-3.75-10.8-8-17.75-11.55-3.1,5.4-8.55,9.21-18.65,11.51a11.12,11.12,0,0,0-2.1-3.21c9.5-2,14.6-5.25,17.35-10H197.63v-3.25H217c1.55-4.6,1.85-10.25,2.05-17.3h3.85c-.2,6.8-.6,12.5-1.95,17.3h19.5Zm-38.2-16.45h-3.65v-10.1h18.25v-5.7h3.95v5.7h18.5v10.1h-3.8V1070H202.23Zm1,3.5a36.75,36.75,0,0,1,7.8,5.5l-2.25,2.8a36.39,36.39,0,0,0-7.7-5.8Zm10.05.55a33.76,33.76,0,0,0-7.3-5.75l2.25-2.35a31.56,31.56,0,0,1,7.4,5.45Z" transform="translate(-1.58 -8.11)" style="fill:#fff"/><path d="M52.78,1156.05l-17,5-.8-3.59c2-.56,4.5-1.16,7.2-2V1142h-5.9v-3.45h5.9v-10.85h-6.6v-3.5H52v3.5h-6.2v10.85H51V1142h-5.2v12.55c2.1-.55,4.3-1.25,6.45-1.9Zm22.15,6.25c1.8,0,2-1.34,2.3-8.4a8.59,8.59,0,0,0,3,1.4c-.45,7.85-1,9.8-5.3,9.8H70.38c-3.4,0-4.75-.89-4.75-4.2v-10.5c-1.75,5.95-5.7,11.9-13.95,16.15a13.48,13.48,0,0,0-2.35-2.7c12.55-6.4,14.1-15.8,14.1-23.55v-9.6h3.5v9.7a35.37,35.37,0,0,1-.9,8.4h3v11.75c0,1.41.4,1.75,1.8,1.75Zm-17.1-12.7H54.28v-26.4h22.3v26.4H72.93v-23.1H57.83Z" transform="translate(-1.58 -8.11)" style="fill:#fff"/><path d="M130.28,1146.7v3.6H85.33v-3.6h11.5v-11.8h-9.5v-3.6h9.5v-10.1h3.75v10.1h14.2v-10.1h3.8v10.1h9.9v3.6h-9.9v11.8Zm-27.2,8a57.12,57.12,0,0,1-14.2,11.81,30.76,30.76,0,0,0-2.95-2.66c4.9-2.55,10.5-6.9,13.3-10.65Zm-2.5-8h14.2v-11.8h-14.2Zm14.65,6.45a158.45,158.45,0,0,1,14,11l-3.5,2.3A150,150,0,0,0,112,1155.05Z" transform="translate(-1.58 -8.11)" style="fill:#fff"/><path d="M151.18,1153.1a15.31,15.31,0,0,0,1.4,3.15c-8.6,6.71-10,7.8-10.7,8.76a17.26,17.26,0,0,0-2.35-2.5,7.24,7.24,0,0,0,2.8-5.31V1140h-7v-3.55h10.6v20.7ZM145.63,1132a58.49,58.49,0,0,0-7.7-7.6l2.45-2.25a56,56,0,0,1,7.8,7.3ZM162,1152a37.82,37.82,0,0,1-7.95,14.41,28.34,28.34,0,0,0-3.2-2.15,30.9,30.9,0,0,0,7.4-13.11Zm15.2-5.7h-22.5v-22h22.5Zm-3.75-18.45h-15.1v14.9h15.1Zm-.55,23.2a70.88,70.88,0,0,1,6.8,13.46L176,1166a71.82,71.82,0,0,0-6.5-13.66Z" transform="translate(-1.58 -8.11)" style="fill:#fff"/><path d="M198,1154.7c-4.5,1.25-9,2.56-12.8,3.56l-.7-3.11c3.4-.75,8.25-2.05,13.15-3.3Zm5.4-10.7s0,1.1,0,1.55c-.8,12.55-1.55,17.25-3.05,18.86a4.22,4.22,0,0,1-3.3,1.44,54.05,54.05,0,0,1-5.9,0,7.36,7.36,0,0,0-1.05-3.15c2.45.25,4.75.31,5.7.31a1.92,1.92,0,0,0,1.75-.61c1.05-1,1.8-5.09,2.45-15.3h-13.3c.6-4.35,1.25-11.8,1.55-17.1l3.2.15c-.3,4.35-.8,9.75-1.25,13.9h6.15c.6-4.75,1.25-11.75,1.65-17.75H186.08V1123h15.25c-.5,6.7-1.2,15.6-1.85,21Zm15.8-22.5c-.35.8-.75,1.5-1.1,2.25a52,52,0,0,0,13.1,13,14.3,14.3,0,0,0-1.85,3.45,65.93,65.93,0,0,1-13.05-13.3,46.19,46.19,0,0,1-12.55,13.4c-.45-.7-1.6-2.25-2.2-3a39.16,39.16,0,0,0,14.4-16.9Zm10.25,22.9a178.1,178.1,0,0,1-7.3,16.36h7.65V1164h-25.3v-3.25h14.45a118.24,118.24,0,0,0,7.1-17.26Zm-20.45-.6a66.4,66.4,0,0,1,3.3,11.8l-3.05.85a58.2,58.2,0,0,0-3.15-12Zm15.15-4.4h-14.8v-3.2h14.8Zm-7.35,15.75a82.1,82.1,0,0,0-2-11.9l2.95-.4a89.26,89.26,0,0,1,2.15,11.85Z" transform="translate(-1.58 -8.11)" style="fill:#fff"/><path d="M251,1153.15a21.18,21.18,0,0,0,1.5,3.2c-8.55,6.61-9.9,7.7-10.6,8.7a13.93,13.93,0,0,0-2.35-2.5,7.34,7.34,0,0,0,2.8-5.35V1140h-7v-3.55h10.6V1157Zm-5.35-21.2a58.49,58.49,0,0,0-7.7-7.6l2.45-2.25a56,56,0,0,1,7.8,7.3Zm34.9,29.06v3.5h-30.2V1161h4.3v-24h3.65v24H265V1128.1h-12.9v-3.5h27.45v3.5h-10.8v13h9.85v3.5h-9.85V1161Z" transform="translate(-1.58 -8.11)" style="fill:#fff"/><path d="M557.08,986.85h-4.3V982.1h4.85l.85-6.85h-4.55v-4.8h5.15l1.25-9.6h4.25l-1.15,9.6h6.3l1.25-9.6h4.25l-1.1,9.6h4.45v4.8h-5.05l-.85,6.85h4.75v4.75h-5.3l-1.3,10.86h-4.4l1.3-10.86h-6.25l-1.35,10.86h-4.35Zm11.2-4.75.85-6.85h-6.3L562,982.1Z" transform="translate(-1.58 -8.11)" style="fill:#fff"/><path d="M620.88,995.65c1.65,0,2-1.3,2.2-8.5a16.66,16.66,0,0,0,5.5,2.5c-.6,9-2.1,11.56-7.2,11.56h-6c-5.65,0-7.1-1.91-7.1-7.76v-15.3h-7.5c-.9,10.4-3.2,19-15.15,23.81a17.33,17.33,0,0,0-3.7-4.86c10.4-3.9,11.8-10.65,12.4-19H583v-5.8h44.6v5.8h-13.2v15.3c0,1.9.3,2.2,2,2.2Zm2.15-31h-35.5v-5.75H623Z" transform="translate(-1.58 -8.11)" style="fill:#fff"/><path d="M665.88,956.1c3.25,5.85,8.3,11.65,13.45,14.25a40,40,0,0,0-3.25,5.7,37.52,37.52,0,0,1-4.9-3.85v4.15h-15.7V972.2a34.08,34.08,0,0,1-5.05,4,27.86,27.86,0,0,0-1.5-3v15.7h-9.85V993h-5.5V960.35h15.35v9.5a37.11,37.11,0,0,0,11.15-13.75Zm-22.55,9.7h-4.25v17.6h4.25Zm8.55,14.8h23.6V1002h-6.05v-2.1H657.68v2.14h-5.8ZM670,971.05a41.66,41.66,0,0,1-6.85-8.9,41.72,41.72,0,0,1-6.55,8.9ZM657.68,986v8.56h11.75V986Z" transform="translate(-1.58 -8.11)" style="fill:#fff"/><path d="M700.93,976.7a56,56,0,0,1-3.6,4.9h6.75v-4.1h5.75v4.1h13.8v11.85c0,2.65-.5,4-2.35,4.85s-4.3.86-7.65.86a18.86,18.86,0,0,0-1.8-5.11c2,.1,4.3.1,4.95.1s.9-.19.9-.75v-6.6h-7.85v15.25h-5.75V986.8H697v12.71h-5.9V987.75a32.43,32.43,0,0,1-5.55,3.76,32.2,32.2,0,0,0-3.95-4.46,37.3,37.3,0,0,0,12.25-10.35H683.08v-5.2h14.15a29.83,29.83,0,0,0,1.7-3.65c-3.65,1-7.3,1.75-10.75,2.45a41.73,41.73,0,0,0-4-4.95,147.29,147.29,0,0,0,14.6-2.8c-3.9-1.25-7.75-2.4-11.25-3.3l4.15-3.45c4.6,1.1,10.1,2.6,15.45,4.25a47.94,47.94,0,0,0,10.75-4.95l4.95,3.4a62.82,62.82,0,0,1-8,4.1c3.7,1.3,7.05,2.6,9.7,3.85l-4.55,4.1a128.55,128.55,0,0,0-12.7-5.15c-1.35.45-2.75.9-4.2,1.3l2.75.75a42.51,42.51,0,0,1-1.9,4h23.65v5.2Z" transform="translate(-1.58 -8.11)" style="fill:#fff"/><path d="M598.23,1058.71H559.38v2.9h-3.7V1019h41.4v3.55h-37.7v32.71h38.85Zm-9.05-7.61A78,78,0,0,0,579,1041a73.9,73.9,0,0,1-13.6,12,27.4,27.4,0,0,0-3-2.85,63.21,63.21,0,0,0,13.8-11.45,141.92,141.92,0,0,0-11.7-8.4l2.6-2.35c3.7,2.3,7.7,5.1,11.45,8a65.26,65.26,0,0,0,7.7-11.65l3.55,1.2a83.37,83.37,0,0,1-8.4,12.7,76.22,76.22,0,0,1,10.7,10.15Z" transform="translate(-1.58 -8.11)" style="fill:#fff"/><path d="M619.38,1046.35c-5.2,2.45-10.85,5-15.15,6.91l-1.45-3.71c1.85-.7,4.2-1.65,6.8-2.7v-15.5h-6v-3.55h6v-11.35h3.5v11.35h5.5v3.55h-5.5v14.05l5.5-2.3Zm16.2-4c2.35,7.5,6.8,13.35,13.5,16a18.87,18.87,0,0,0-2.6,3.31c-6.8-3.31-11.3-9.56-13.9-17.86-1.5,6.9-5.35,13.16-14.7,17.86a11.49,11.49,0,0,0-2.5-2.86c9-4.34,12.5-10.2,13.85-16.5h-9.8v-3.55h10.3a49.13,49.13,0,0,0,.25-5.45v-5.5h-9.05v-3.5H630v-7.9h3.55v7.9h11.2v14.45h3.5v3.55Zm-2.05-9c0,1.85,0,3.65-.2,5.45h7.9v-11h-7.7Z" transform="translate(-1.58 -8.11)" style="fill:#fff"/><path d="M658.28,1024.85a31.63,31.63,0,0,1-3.7,6.45,18.27,18.27,0,0,0-1.9-3.25c2.35-3,4.15-7.5,5.15-12l3.2.85a43,43,0,0,1-1.45,4.75h7.35v3.25Zm8.3,26.25a17.76,17.76,0,0,0,1.1,2.8c-7.5,5.2-8.7,6.15-9.4,7.06a12.3,12.3,0,0,0-1.95-2.55,6.2,6.2,0,0,0,2.4-4.76v-9.9h-5.2v-3.25h5.2v-6.9h-3.1v-3.2h10.1v3.2h-3.65v6.9h5.15v3.25h-5.15v10.3Zm8,1.7a28.35,28.35,0,0,1,3.3,2.16c2.5,1.55,5.5,2,9.4,2a101.22,101.22,0,0,0,11.75-.66,18.26,18.26,0,0,0-.85,3.91c-2.65.15-7.9.3-11,.3-4.2,0-7.25-.71-9.9-2.35-1.7-1.2-3.1-2.4-4.1-2.4-1.35,0-3.35,2.59-5.2,5.29l-2.4-3.34a20.31,20.31,0,0,1,5.6-4.7V1036.4h-3.6V1033h7Zm-2.8-25a51.48,51.48,0,0,0-4-8.85l3-1.1a55.68,55.68,0,0,1,4.1,8.7Zm14.55,18.8h-10.3v-3.3h10.3v-6.75h-4.55a7.2,7.2,0,0,0-3.8.7,24.33,24.33,0,0,0-1.15-3.35c.75-.2,1.45-1.5,2.3-3.25.4-.9,1.35-3.25,2.3-6.15h-5.4v-3.35h6.5c.5-1.75.9-3.6,1.25-5.35l3.7.7c-.4,1.55-.9,3.1-1.4,4.65h11.8v3.35H685a89.81,89.81,0,0,1-3.8,8.9h5.15v-5.95h3.55v5.95H697v3.15h-7.1v6.75h8.35v3.3h-8.35v8.35h-3.55Z" transform="translate(-1.58 -8.11)" style="fill:#fff"/><path d="M709.53,1025.1a38.06,38.06,0,0,1-4.9,6.35,21.68,21.68,0,0,0-1.9-3.45,30.83,30.83,0,0,0,7.35-12l3.3,1a40.9,40.9,0,0,1-2,4.6h9.1v3.5Zm11.5,26.1a17.59,17.59,0,0,0,.8,3.2c-9.35,5.11-10.8,5.9-11.6,6.76a14.28,14.28,0,0,0-2-2.61,6.31,6.31,0,0,0,2.7-4.84v-9.81H704v-3.4h6.9v-6.7h-4.55v-3.4h12.85v3.4h-4.8v6.7h6.1v3.4h-6.1v10.75Zm27.1-28.35v3.45h-5.4v6.85h-3.45v-6.85h-7.6v6.85h-3.45v-6.85h-6.05v-3.45h6.05v-6.5h3.45v6.5h7.6v-6.5h3.45v6.5ZM723.68,1035h23.1v26.1h-3.5v-2H727v2.56h-3.35Zm3.35,3.35v7h6.75v-7Zm6.75,17.41v-7.26H727v7.26Zm9.5-17.41H737v7h6.25Zm0,17.41v-7.26H737v7.26Z" transform="translate(-1.58 -8.11)" style="fill:#fff"/><path d="M753.08,1059.85c2.65-2.25,5.2-6.25,6.8-9.95l3.5.9a34.25,34.25,0,0,1-6.9,10.71Zm39.4-12.95H759.23V1031h14.35v-15.15h3.7v5.35h18.9v3.5h-18.9v6.3h15.2Zm-3.75-12.4h-26v8.9h26ZM771.43,1051a63.25,63.25,0,0,1,1.25,9.66l-3.7.5a57.42,57.42,0,0,0-1.1-9.85Zm10.05-.4a49.79,49.79,0,0,1,3.75,9.56l-3.6.85a47.75,47.75,0,0,0-3.5-9.66Zm10-1a54.9,54.9,0,0,1,6.65,10.11l-3.5,1.4a53.34,53.34,0,0,0-6.4-10.26Z" transform="translate(-1.58 -8.11)" style="fill:#fff"/><path d="M818.23,1017.1a75.81,75.81,0,0,1-5.1,10.3v34h-3.5v-28.61a51.49,51.49,0,0,1-5.5,6.5,31.48,31.48,0,0,0-2.15-3.65,54.94,54.94,0,0,0,12.8-19.6Zm30.65,38.61v3.5h-32.8v-3.5h17.25a165.56,165.56,0,0,0,6.2-23.66l4,.7a210.09,210.09,0,0,1-6.6,23Zm-18.65-30.06v-9.2H834v9.2h13.65v3.5H817.28v-3.5Zm-5.1,27.7a123.7,123.7,0,0,0-3.7-20.25l3.3-.6a127,127,0,0,1,4,20Z" transform="translate(-1.58 -8.11)" style="fill:#fff"/><path d="M598,1099.35H578.23v16.75c0,2.75-.75,3.91-2.6,4.51s-5.1.69-10.15.69a18.12,18.12,0,0,0-1.6-3.84c4.1.09,7.9.09,9,0s1.45-.35,1.45-1.41v-16.75H553.73v-3.65h20.65v-12.6h-17.2v-3.65h37.3v3.65H578.23v12.6H598Z" transform="translate(-1.58 -8.11)" style="fill:#fff"/><path d="M613.38,1114.4c4.1-.89,8.55-2,12.8-3l.35,3.56c-7.85,2-16.25,4-22.4,5.4l-1.2-3.86c2-.34,4.25-.79,6.7-1.34v-39.06h3.75v15.1h11.2v3.55h-11.2Zm29.25,2.51c2.3,0,2.65-1.81,3-9a10,10,0,0,0,3.5,1.6c-.5,8.16-1.5,11-6.25,11h-8.35c-4.85,0-6.15-1.45-6.15-6.86v-37.45h3.75V1094a70.1,70.1,0,0,0,12.3-7.25l2.75,3.15a105.7,105.7,0,0,1-15,7.7v16.1c0,2.75.4,3.26,2.8,3.26Z" transform="translate(-1.58 -8.11)" style="fill:#fff"/><path d="M692.43,1094.45v6h5.85v3.4h-5.85V1117c0,2.2-.5,3.3-2,4s-4.2.6-8,.6a11.91,11.91,0,0,0-1.2-3.71c3,.11,5.75.11,6.6,0s1-.19,1-.94v-13.06h-18v-2.7l-5.25,1.65v18.71h-3.4v-17.66l-8.3,2.55-1-3.5c2.55-.7,5.8-1.6,9.3-2.65v-10.8h-4.6a40.16,40.16,0,0,1-2.2,7.35,21.72,21.72,0,0,0-2.8-1.65c1.85-4.2,2.8-10.55,3.4-16.6l3.25.55c-.25,2.3-.6,4.6-1,6.85h3.9v-10h3.4v10h5.15v3.5h-5.15v9.8l5.8-1.75.45,3h17v-6h-18.9V1091h12.7v-6.35h-9.75v-3.4h9.75v-5.4h3.7v5.4h10v3.4h-10V1091h12.3v3.45Zm-16.3,10.85a34.92,34.92,0,0,1,6.35,8l-3,1.89a35.22,35.22,0,0,0-6.15-8.15Z" transform="translate(-1.58 -8.11)" style="fill:#fff"/><path d="M743.48,1110.65c0,2.11-.45,3.25-2.05,3.86s-4.3.7-8.35.64a18.37,18.37,0,0,0-1.3-3.7c3.2.1,6,.1,6.85.06s1-.21,1-1V1094.7h-12.1v26.76h-3.8V1094.7H712.23v21.06h-3.75V1091.1h15.3V1083c-6.25.4-12.55.6-18.35.7a14.27,14.27,0,0,0-.8-3.35c13.8-.35,30.75-1.3,40.5-3l1.5,3.4c-5.15.9-11.85,1.55-19,2v8.4h15.9Z" transform="translate(-1.58 -8.11)" style="fill:#fff"/><path d="M766.93,1090.55h8.7V1094h-8.7v1.3c1.9,2,7.1,8.1,8.35,9.65l-2.25,3c-1.15-1.9-3.95-5.65-6.1-8.45v21.86h-3.65v-22c-2.45,5.8-5.75,11.45-8.95,14.9a17.08,17.08,0,0,0-2.05-3.4c3.8-3.8,7.8-10.65,10.05-16.9h-8.8v-3.45h9.75v-8.3c-2.8.45-5.6.85-8.25,1.2a13,13,0,0,0-1-3c6.6-.9,14.4-2.4,18.8-4.15l2.5,2.9a61.54,61.54,0,0,1-8.35,2.3Zm28.9-10V1119h-3.7v-3.75H781v4.09h-3.65v-38.8Zm-3.7,31.1v-27.55H781v27.55Z" transform="translate(-1.58 -8.11)" style="fill:#fff"/><path d="M824.08,1107.25c-6.9,3.15-14.45,6.46-20,8.85l-1.35-3.84c2-.75,4.3-1.71,6.9-2.81l-.85-30.9,3.8-.15.75,29.5c3.2-1.35,6.55-2.8,9.85-4.2Zm22,14.11a122.86,122.86,0,0,0-11.2-13.21c-3.9,5.9-9.35,10.26-17.15,13.51a21.48,21.48,0,0,0-3-3.2c17.15-6.31,22.45-18.41,24.65-40l4.05.4c-1.2,10.7-3.1,19.2-6.6,25.9,4.45,4.5,9.75,10,12.3,13.76Zm-19.25-25.46a49.11,49.11,0,0,0-7.7-12.2l3.3-1.65a47.34,47.34,0,0,1,7.9,12Z" transform="translate(-1.58 -8.11)" style="fill:#fff"/><path d="M579.28,1152.85c3.4,11.6,10,21.11,19.85,25.36a16.14,16.14,0,0,0-2.75,3.4c-10.15-4.85-16.6-14.56-20.4-27-2.1,10.4-7.3,21-20.4,26.91a11.06,11.06,0,0,0-2.75-3c13-5.61,17.75-15.71,19.55-25.61H554v-3.75h18.9a126.71,126.71,0,0,0,.55-13.2h3.95c0,3.85-.1,8.4-.6,13.2h21v3.75Zm-6.1,15.3c3.55,2.86,8,6.9,10,9.65l-3.3,2.61a67.15,67.15,0,0,0-9.8-10.06Z" transform="translate(-1.58 -8.11)" style="fill:#fff"/><path d="M620.73,1167.65c-5.9,2.3-12.05,4.65-16.8,6.45l-1.15-3.75c2-.65,4.5-1.55,7.2-2.5v-16h-6.35v-3.5H610v-11.8h3.6v11.8h6v3.5h-6v14.7c2.1-.75,4.3-1.55,6.45-2.35Zm10.2-12.4v.75h15s0,1.2,0,1.75c-.65,14.7-1.25,20-2.8,21.8a4.17,4.17,0,0,1-3.55,1.66c-1.5.09-4.2.09-6.95,0a8.58,8.58,0,0,0-1.2-3.61c2.9.25,5.6.25,6.6.25s1.45,0,1.9-.59c1.1-1.11,1.75-5.76,2.25-17.76H630.78c-.6,7.5-3.2,15.76-12.75,22.1a15.82,15.82,0,0,0-2.8-2.54c10.75-7.11,11.95-16.56,11.95-23.81v-7h-8.95v-3.6h13.4v-8.7h3.65v8.7h13.45v3.6h-17.8Z" transform="translate(-1.58 -8.11)" style="fill:#fff"/><path d="M696.53,1176.71c0,2.25-.55,3.4-2.1,4s-3.95.65-8.15.6a17.24,17.24,0,0,0-1.3-3.56c3,.16,5.9.11,6.75,0s1.2-.3,1.2-1.14v-34.36h-7.4c-.25,5.5-.6,10.5-1.25,15.05a70.93,70.93,0,0,1,6.15,8.1l-2.25,2.65a59,59,0,0,0-4.65-6.55c-1.3,6.15-3.35,11.3-6.7,15.36a18.73,18.73,0,0,0-2.9-2.25c3.7-4.06,5.7-9.61,6.85-16.41-2-2.4-4.25-4.7-6.3-6.7l2-2.2c1.6,1.45,3.2,3.1,4.8,4.75.4-3.65.6-7.6.75-11.8h-9.8a140.44,140.44,0,0,1-1.5,15.8,61.22,61.22,0,0,1,5.35,7.1l-2.25,2.55a55.83,55.83,0,0,0-3.9-5.55c-1.3,5.8-3.25,10.65-6.35,14.6a17.48,17.48,0,0,0-2.9-2.2c3.45-4,5.4-9.25,6.6-15.65a85.58,85.58,0,0,0-6.45-6.85l2-2.2c1.65,1.55,3.35,3.25,5,5,.5-3.9.8-8.1,1-12.6H659v39.06h-3.6V1138.9h41.15Z" transform="translate(-1.58 -8.11)" style="fill:#fff"/><path d="M746.78,1141.9a34.88,34.88,0,0,1-9.4,12.55,37.06,37.06,0,0,0,11.5,5.15,11.4,11.4,0,0,0-1.5,3.4,42.36,42.36,0,0,1-12.7-6.5,51.89,51.89,0,0,1-13.5,6.8,15.56,15.56,0,0,0-1.6-3.45,46,46,0,0,0,12.35-5.6,31.91,31.91,0,0,1-5.55-6.7,34.84,34.84,0,0,1-4.5,5.1,34.5,34.5,0,0,0-2.25-2.8,100.12,100.12,0,0,1-9.6,13.25l9.15-2a13.88,13.88,0,0,0,.1,3.25c-12.3,3-13.95,3.5-15,4.15-.2-.75-.8-2.55-1.2-3.55,1-.2,2.25-1.4,3.75-3.25a55.64,55.64,0,0,0,5.15-6.6c-6.15.85-7.35,1.15-8.05,1.5a27.55,27.55,0,0,0-1.2-3.6c.85-.25,1.75-1.35,2.85-3a73.27,73.27,0,0,0,6.85-13.9l3.5,1.7a86.61,86.61,0,0,1-8,14.6l6.3-.65c1.1-1.7,2.1-3.45,3-5.15l3.25,2-.55,1a38.46,38.46,0,0,0,9.45-14.25l3.35,1c-.6,1.45-1.3,3-2,4.4h13.25l.7-.1Zm-43.7,33.2c4.15-1,10.5-2.84,16.75-4.65l.6,3.26c-5.85,1.75-11.95,3.59-16.55,5.09Zm21-12.25h21.15V1181h-3.6v-2.41h-14.1v2.45h-3.45Zm3.45,3.35v9.1h14.1v-9.1Zm.85-21.6a24.3,24.3,0,0,0,6.15,7.65,28.66,28.66,0,0,0,7.3-8.25h-13.1Z" transform="translate(-1.58 -8.11)" style="fill:#fff"/><path d="M529,253.61a54,54,0,0,1-7.4,9.55,37.57,37.57,0,0,0-3.45-2.3c4.55-3.95,8.85-10.4,11.45-16.66l3.8,1.1c-.75,1.65-1.55,3.36-2.45,5h30.9v3.35Zm27.55,18.75c-.15,3.25-.35,5.85-.55,7.95h6v3.35h-6.4c-.4,2.45-.85,3.85-1.45,4.6a4.43,4.43,0,0,1-3.5,1.8,57.51,57.51,0,0,1-6.4-.1,7.33,7.33,0,0,0-1-2.9c2.55.15,4.85.2,5.8.15a2.08,2.08,0,0,0,1.85-.65,7.53,7.53,0,0,0,.95-2.9H527.26l-.35,1.9-3.75-.25c.7-3.45,1.5-8.1,2.2-12.95h-7.1V269h7.6c.55-3.9,1-7.75,1.4-11.1h29.85s-.05,1.35-.05,1.85c-.1,3.5-.2,6.55-.35,9.25h7v3.4Zm-4.2,7.95c.2-2.05.4-4.7.6-8.05H529c-.4,2.8-.8,5.55-1.2,8.05h15.4a44.28,44.28,0,0,0-9-6l2.1-2.05a40,40,0,0,1,9.5,6.2l-1.7,1.85Zm-21.85-19.15c-.3,2.55-.7,5.2-1,7.9h14.95a37.37,37.37,0,0,0-8.9-5.65l2.1-2.1a38.21,38.21,0,0,1,9.1,5.55l-2.1,2.2h8.5c.1-2.35.2-4.95.3-7.9Z" transform="translate(-1.58 -8.11)" style="fill:#8fc4ff"/><path d="M593.66,267.56c3.25,9.85,9.65,16.55,20.4,19.2a14.35,14.35,0,0,0-2.55,3.45c-10.2-2.9-16.45-9.2-20.25-18.7-2.1,7.2-7.5,14.1-20.85,18.7a10.64,10.64,0,0,0-2.25-3.2c14.2-4.85,18.65-12.2,20-19.45h-17.5v-3.8h17.9a27.14,27.14,0,0,0,.1-2.85v-8.8H569.11V248.3h43.65v3.81h-20.2V261c0,.9,0,1.85,0,2.8h19v3.8Z" transform="translate(-1.58 -8.11)" style="fill:#8fc4ff"/><path d="M652,265.76a35,35,0,0,1-8.15,12.65c5.15,4.1,11.9,6.85,20.15,8.2a15.23,15.23,0,0,0-2.45,3.5c-8.45-1.6-15.3-4.65-20.6-9.1-5.5,4.35-12.4,7.25-20.5,9.3a14.81,14.81,0,0,0-2.35-3.5c8.1-1.7,14.9-4.35,20.1-8.4a39.08,39.08,0,0,1-7.8-12.4l3.55-1.1a32.08,32.08,0,0,0,7.1,11,30.48,30.48,0,0,0,7.1-11.25Zm-16.3-8.2A52.87,52.87,0,0,1,621.86,270a21.36,21.36,0,0,0-3.05-2.95A40.89,40.89,0,0,0,632,256.11Zm27-3H619.21V251H639v-6.55h3.7V251h20Zm-13,1.35c4.7,3.15,10.55,7.75,13.4,11L660,269.51c-2.65-3.25-8.35-8.05-13.1-11.35Z" transform="translate(-1.58 -8.11)" style="fill:#8fc4ff"/><path d="M710.71,270.06s-.05,1.15-.15,1.7c-.95,11.15-1.95,15.45-3.45,17a4.31,4.31,0,0,1-3.35,1.4,51.39,51.39,0,0,1-6.15-.05,7.69,7.69,0,0,0-1-3.25,55,55,0,0,0,5.6.25c.85,0,1.35-.05,1.8-.55,1.1-1,2-4.55,2.75-13.15h-6.1a41.43,41.43,0,0,1-11.6,17,20.61,20.61,0,0,0-3-2.3,34.68,34.68,0,0,0,10.8-14.7h-6.75a46.62,46.62,0,0,1-15,15.7,29.65,29.65,0,0,0-2.85-2.65,39,39,0,0,0,13.75-13h-7a45.73,45.73,0,0,1-8.1,6.5,18.44,18.44,0,0,0-2.9-2.6,39.6,39.6,0,0,0,12.8-11.45h-5.5v-19.1h31.95v19.1H685.16a40.24,40.24,0,0,1-3,4.2ZM679,254.81h24.55v-4.95H679Zm0,7.9h24.55v-4.95H679Z" transform="translate(-1.58 -8.11)" style="fill:#8fc4ff"/><path d="M560.76,317.11c-1.25,8.1-3.15,14.7-6.2,20.05a24.61,24.61,0,0,0,9.65,9.8,12,12,0,0,0-2.55,3.15,26.88,26.88,0,0,1-9.35-9.45,33,33,0,0,1-11.6,9.6,16,16,0,0,0-1.6-2.6l-1.15,1.2a49.12,49.12,0,0,0-5.85-3.95c-2.9,2.4-6.85,4-12.2,5.2a7.64,7.64,0,0,0-1.7-3.05c4.6-.8,8.1-2.05,10.65-3.9-1.6-.8-3.25-1.6-4.9-2.3l-.8,1.4-3.2-1.15c1.1-1.9,2.45-4.45,3.8-7.05h-5.65V331h7.2c.75-1.5,1.45-2.95,2.05-4.3l1.3.3v-6.9a32.49,32.49,0,0,1-8.75,7.35,12.61,12.61,0,0,0-2-2.8,27.25,27.25,0,0,0,9.8-7.95h-9.25v-3.05h10.25v-9.16h3.45v9.16h10.15v3.05H532.11v.25c2.15,1.25,7.55,4.65,8.9,5.65l-2,2.65c-1.3-1.2-4.45-3.6-6.85-5.4v7.45H530l.85.2c-.55,1.1-1.1,2.3-1.7,3.5h13.35v3.1h-4.35a20.52,20.52,0,0,1-3.55,8.35,50.36,50.36,0,0,1,5.75,3.65,27.53,27.53,0,0,0,10-9.1,67.71,67.71,0,0,1-4.5-13.8,32.62,32.62,0,0,1-3.65,6.25,19.14,19.14,0,0,0-3-2.55c4.2-5.25,6.8-13.6,8.15-22.41l3.8.55c-.5,2.95-1.15,5.86-1.85,8.61h14.5v3.5Zm-37.4-3.75a25.76,25.76,0,0,0-3.1-6.56l2.8-1.14a24.78,24.78,0,0,1,3.25,6.4Zm4.2,20.7c-.7,1.4-1.45,2.75-2.1,4.05,2,.8,4,1.7,5.95,2.65a16,16,0,0,0,3.15-6.7Zm13.55-27.26c-1.45,2.31-3.15,4.81-4.45,6.46l-2.5-1.2a42.9,42.9,0,0,0,3.7-6.61Zm7,10.46a68.79,68.79,0,0,0,4.35,15.8,54.74,54.74,0,0,0,4.4-15.95h-8.7Z" transform="translate(-1.58 -8.11)" style="fill:#8fc4ff"/><path d="M613.51,346v2.9h-45V346h20.65v-2.9h-16.5v-2.6h16.5v-2.75H574.06V325.31h34.35v12.45H592.66v2.75h16.8v2.6h-16.8V346Zm-.25-22.95h-44.5v-2.85h44.5Zm-6.35-4.9H575V306.05h31.95Zm-29.4,12.25h11.6v-2.8h-11.6Zm11.6,5v-2.85h-11.6v2.85Zm14.15-27.16H578.51V311h24.75Zm0,4.86H578.51v2.75h24.75Zm1.5,14.45h-12.1v2.8h12.1Zm0,5h-12.1v2.85h12.1Z" transform="translate(-1.58 -8.11)" style="fill:#8fc4ff"/><path d="M638.06,157.65q0,19.48-4.74,32.06t-13.55,20.15a49.75,49.75,0,0,1-21.27,10.55,118.83,118.83,0,0,1-27.64,3q-4.07,0-10.16-.4t-13-1.2q-6.91-.81-13.55-2.14a57.06,57.06,0,0,1-11.52-3.47c-1.8-.71-2.84-1.52-3.11-2.41a6.62,6.62,0,0,1,.13-3.47l1.36-7a10.52,10.52,0,0,1,1.49-2.58c.63-.81,1.94-1,3.93-.67q9.48,1.35,21.41,2.71a216.38,216.38,0,0,0,24.38,1.35,85.21,85.21,0,0,0,16.94-1.62,32.49,32.49,0,0,0,14-6.38q6-4.76,9.49-13.58t3.52-23.21q0-12.2-7.32-17.64t-20-7.6l-59.34-9.77q-7-1.35-6-8.69l10.84-70c.36-1.62.85-2.66,1.49-3.11a6,6,0,0,1,3.38-.68h86.72c2.34,0,3.52,1.1,3.52,3.29v12.1c0,2.56-1.36,3.84-4.06,3.84H551.89l-7,45.72,55.28,8.39q17.07,2.71,27.51,12.72T638.06,157.65Z" transform="translate(-1.58 -8.11)" style="fill:#fff"/><path d="M772,128.82q0,8.94-.54,19.37a153.89,153.89,0,0,1-2.58,21,97.77,97.77,0,0,1-6.23,20.32,59,59,0,0,1-11.38,17.34,52.61,52.61,0,0,1-18.16,12.2q-11,4.6-26.42,4.6-15.18,0-25.88-4.2A47.94,47.94,0,0,1,663.18,208a54.71,54.71,0,0,1-10.84-16.81,102.57,102.57,0,0,1-6-20,140.34,140.34,0,0,1-2.44-21.41q-.41-10.83-.41-20.86,0-6.76.55-16.12a147.76,147.76,0,0,1,2.43-19.24,100.18,100.18,0,0,1,6-19.65,59.52,59.52,0,0,1,11-17.34,52.05,52.05,0,0,1,17.48-12.33q10.56-4.74,25.74-4.74,22.5,0,35.5,8.13a53.44,53.44,0,0,1,19.65,21,82.2,82.2,0,0,1,8.4,28.86A287.91,287.91,0,0,1,772,128.82Zm-21.41,3q0-17.07-1.35-30.62t-6-23A32.8,32.8,0,0,0,730,63.65q-8.68-5-23.31-5-13.81,0-21.95,5.82a38.14,38.14,0,0,0-12.6,15.85,76,76,0,0,0-5.82,23.31,276.06,276.06,0,0,0-1.36,28.18,291.75,291.75,0,0,0,1.36,29.4,74.08,74.08,0,0,0,5.69,23,33.51,33.51,0,0,0,12.6,14.91q8.26,5.28,22.08,5.28,14.08,0,22.76-5.55a36,36,0,0,0,13.28-15.31,75.45,75.45,0,0,0,6.24-23A237.58,237.58,0,0,0,750.57,131.8Z" transform="translate(-1.58 -8.11)" style="fill:#fff"/></svg>