<svg id="INFO_ENG_copy" data-name="INFO ENG copy" xmlns="http://www.w3.org/2000/svg" viewBox="0 0 789.1 1171.12"><title>INFO_AR</title><path id="_5_2" data-name=" 5 2" d="M863,890.24a49.78,49.78,0,0,0-27.42-12.66l-55.08-8.34,7-45.57h73.17a3.5,3.5,0,0,0,4-2.87,3.94,3.94,0,0,0,0-1v-12a3,3,0,0,0-2.68-3.33,2.88,2.88,0,0,0-.83,0h-86.4a6,6,0,0,0-3.36.69,5.14,5.14,0,0,0-1.5,3.09l-10.8,69.78a6.75,6.75,0,0,0,4.53,8.41,7.45,7.45,0,0,0,1.41.26l59.13,9.72a46.4,46.4,0,0,1,20,7.59q7.29,5.4,7.29,17.58A63.62,63.62,0,0,1,848,944.75a30.28,30.28,0,0,1-23.34,19.86,84.81,84.81,0,0,1-16.89,1.62,214.33,214.33,0,0,1-24.3-1.35q-11.88-1.35-21.33-2.7a3.87,3.87,0,0,0-3.9.69,10.24,10.24,0,0,0-1.5,2.55l-1.35,6.93a6.63,6.63,0,0,0-.12,3.48,4.8,4.8,0,0,0,3.09,2.4,58.26,58.26,0,0,0,11.49,3.45c4.41.9,8.91,1.59,13.5,2.13s8.91.93,13,1.2,7.41.39,10.11.39a118.75,118.75,0,0,0,27.54-3,49.27,49.27,0,0,0,21.21-10.5,48.44,48.44,0,0,0,13.5-20.1,91.76,91.76,0,0,0,4.71-31.92Q873.34,900.24,863,890.24Z" transform="translate(-84.28 -17.36)" style="fill:#fff"/><path d="M399.3,167.65q0,19.48-4.75,32.06T381,219.86a49.79,49.79,0,0,1-21.28,10.55,118.77,118.77,0,0,1-27.64,3c-2.71,0-6.09-.13-10.16-.4s-8.4-.67-13-1.2-9.13-1.25-13.55-2.14a56.86,56.86,0,0,1-11.52-3.47c-1.81-.71-2.85-1.52-3.12-2.41a6.63,6.63,0,0,1,.14-3.47l1.35-7a10.85,10.85,0,0,1,1.49-2.58c.64-.81,1.94-1,3.93-.67q9.5,1.35,21.41,2.71a216.69,216.69,0,0,0,24.39,1.35,85.28,85.28,0,0,0,16.94-1.62,32.54,32.54,0,0,0,13.95-6.38q6-4.76,9.49-13.58t3.52-23.21q0-12.2-7.32-17.64t-20-7.6l-59.35-9.77q-7-1.35-6-8.69l10.84-70A5.22,5.22,0,0,1,297,52.52a6.05,6.05,0,0,1,3.39-.68H387.1q3.52,0,3.53,3.29v12.1q0,3.84-4.07,3.84H313.13l-7.05,45.72,55.28,8.39q17.07,2.71,27.5,12.72T399.3,167.65Z" transform="translate(-84.28 -17.36)" style="fill:#fff"/><path id="_3" data-name=" 3" d="M778.41,212.52a50.15,50.15,0,0,0-27-12.69l-21.6-3.78v-.27l45.9-42.93a19.94,19.94,0,0,0,4-5.25,17.45,17.45,0,0,0,1.35-6.09v-10.8a4.1,4.1,0,0,0-1.2-2.7,4.7,4.7,0,0,0-3.66-1.35H673.92a3.24,3.24,0,0,0-3.75,2.61,3.4,3.4,0,0,0,0,.9v11.61a3.58,3.58,0,0,0,3,4.05,3.49,3.49,0,0,0,1,0h79.65v.27l-49.41,46.26a9.63,9.63,0,0,0-2,2.85,10.4,10.4,0,0,0-.69,4.2v8.1a5.31,5.31,0,0,0,4.89,5.69h.24l32.4,5.4a44.19,44.19,0,0,1,20.4,7.59q6.89,5.4,6.87,17.58a60.39,60.39,0,0,1-3.78,23.4,32,32,0,0,1-10.26,13.53,35.08,35.08,0,0,1-14.7,6.21,95.93,95.93,0,0,1-17.16,1.5,214.46,214.46,0,0,1-24.3-1.35q-11.88-1.35-21.6-2.7a3.91,3.91,0,0,0-3.9.66,10.93,10.93,0,0,0-1.5,2.58L668,294.54a6.52,6.52,0,0,0-.12,3.45,4.69,4.69,0,0,0,3.09,2.4,55.18,55.18,0,0,0,11.61,3.45c4.5.9,9.06,1.62,13.65,2.13s8.94.93,13.08,1.2,7.47.42,10,.42a125.89,125.89,0,0,0,28.5-3,52.51,52.51,0,0,0,21.87-10.41,47,47,0,0,0,13.89-20.1A90.81,90.81,0,0,0,788.4,242C788.4,228.84,785.07,219,778.41,212.52Z" transform="translate(-84.28 -17.36)" style="fill:#fff"/><path id="Shape_1277_copy_5" data-name="Shape 1277 copy 5" d="M309,928.14a61.67,61.67,0,0,1-60.3-50l-5.13,5.16a2.12,2.12,0,0,1-3,0l-5.64-5.7a2.07,2.07,0,0,1,0-2.92s0,0,0-.05l17.79-17.94a2.11,2.11,0,0,1,2.67-.24l20,13.89a2.14,2.14,0,0,1,.51,2.94l-4.53,6.6a2.07,2.07,0,0,1-1.35.9,2.1,2.1,0,0,1-1.56-.36l-4.86-3.36a46.55,46.55,0,0,0,38,35.52V823.5a2.1,2.1,0,0,1,2.1-2.1H314.3a2.1,2.1,0,0,1,2.1,2.1v89.1a46.67,46.67,0,0,0,37.86-35l-4.08,2.82a2.1,2.1,0,0,1-1.56.36,2.21,2.21,0,0,1-1.35-.9l-4.53-6.6a2,2,0,0,1-.33-1.59,2,2,0,0,1,.87-1.35l20-13.89a2.11,2.11,0,0,1,2.67.24l17.79,17.94a2.07,2.07,0,0,1,.05,2.92l-.05,0-5.64,5.7a2.08,2.08,0,0,1-2.94,0l-5.7-5.73A61.55,61.55,0,0,1,309,928.14ZM250.1,871.62a2.55,2.55,0,0,1,.66.12,2.06,2.06,0,0,1,1.41,1.74,57.24,57.24,0,0,0,113.73-.57,2.14,2.14,0,0,1,1.38-1.77,2.08,2.08,0,0,1,2.16.51l7.14,7.17,2.67-2.67-15.06-15.21-16.8,11.7,2.13,3.12,6.57-4.56a2.09,2.09,0,0,1,2.28-.06,2.18,2.18,0,0,1,1,2.1,50.9,50.9,0,0,1-44.82,43.86,2,2,0,0,1-1.62-.51,2.13,2.13,0,0,1-.72-1.56v-89.4h-6.42V915a2.21,2.21,0,0,1-.69,1.56,2.07,2.07,0,0,1-1.65.51,50.79,50.79,0,0,1-44.88-44.4,2.21,2.21,0,0,1,1-2.07,2.16,2.16,0,0,1,2.28.06l7.29,5.07,2.16-3.12-16.8-11.7-15.09,15.21,2.67,2.67,6.54-6.57A2.26,2.26,0,0,1,250.1,871.62Zm64.2-56.7H303.68a2.1,2.1,0,0,1-2.1-2.1V804a18.09,18.09,0,1,1,14.82,0v8.82a2.1,2.1,0,0,1-2.07,2.13Zm-8.52-4.23h6.42v-8.16a2.1,2.1,0,0,1,1.41-2,13.89,13.89,0,1,0-9.24,0,2.1,2.1,0,0,1,1.41,2ZM309,794.88a7.52,7.52,0,1,1,7.44-7.59v.06A7.5,7.5,0,0,1,309,794.88Zm0-10.8a3.3,3.3,0,1,0,3.27,3.33v-.06A3.29,3.29,0,0,0,309,784.08Zm25.26,41.55H283.73a2.1,2.1,0,0,1-2.1-2.1V812.79a2.13,2.13,0,0,1,2.1-2.1h50.52a2.1,2.1,0,0,1,2.1,2.1V823.5a2.1,2.1,0,0,1-2.07,2.13Zm-48.42-4.23h46.32v-6.48H285.83Z" transform="translate(-84.28 -17.36)" style="fill:#fff"/><path d="M830.63,469.14l-540-69,3,318,426,96Z" transform="translate(-84.28 -17.36)" style="fill:none;stroke:#8fc4ff;stroke-dasharray:4,2"/><circle cx="746.35" cy="451.78" r="15" style="fill:#0b1233;stroke:#8fc4ff"/><circle id="Ellipse_957_copy_2" data-name="Ellipse 957 copy 2" cx="635.35" cy="796.78" r="15" style="fill:#0b1233;stroke:#8fc4ff"/><circle id="Ellipse_957_copy_3" data-name="Ellipse 957 copy 3" cx="212.35" cy="697.78" r="15" style="fill:#0b1233;stroke:#8fc4ff"/><circle id="Ellipse_957_copy" data-name="Ellipse 957 copy" cx="210.85" cy="384.28" r="13.5" style="fill:#0b1233;stroke:#8fc4ff"/><path d="M812.69,282.77a37.9,37.9,0,0,1,3.85,16.15,23.46,23.46,0,0,1-2.24,9,17,17,0,0,1-13.18,6.78c-7.07,0-11.57-4.94-11.57-12.16a24.51,24.51,0,0,1,3.33-11.72l2,1a16.67,16.67,0,0,0-1.87,6.48c0,7.62,6.37,8.61,8.71,8.61a15.66,15.66,0,0,0,10.11-4.07,2.58,2.58,0,0,0,.73-1.87c0-2.56-1.28-6.48-4.21-12.08a69,69,0,0,1,3.88-6.23Zm-11.06-11.65a34.34,34.34,0,0,1,6,4.72,25.83,25.83,0,0,1-3.7,5.2,64.64,64.64,0,0,0-6-4.65Z" transform="translate(-84.28 -17.36)" style="fill:#fff"/><path d="M823.28,305.14a63.46,63.46,0,0,0,.47-8.82,217.19,217.19,0,0,0-1.24-23.81,58.59,58.59,0,0,1,4.25-4.65l.62.33c.73,7.91.84,15.31.84,22.41,0,5.75-.33,9.6-1.14,10.84a25.68,25.68,0,0,1-3,4.29Z" transform="translate(-84.28 -17.36)" style="fill:#fff"/><path d="M854.22,297.38v7.32h-2.75c-1.53,6.63-6.15,13.37-11.86,13.37-3.3,0-6.89-1.43-10.77-4.07l.85-1.94a11,11,0,0,0,4.46,1c3.15,0,6.23-1.5,9.16-3.77a14.33,14.33,0,0,0,4.25-4.62h-1c-7,0-11.64-2.23-11.64-8.82a10.93,10.93,0,0,1,2.78-7.29c1.76-2.09,3.73-3.26,5.86-3.26,4.1,0,6.74,4.43,8.2,12.05Zm-12.45-6.08c-2.34,0-3.7,1.76-3.7,2.67,0,2.13,3.74,3.52,8.53,3.52a9,9,0,0,0,1.43-.11C846.68,293.72,844.59,291.3,841.77,291.3Z" transform="translate(-84.28 -17.36)" style="fill:#fff"/><path d="M863.52,282.84c2.53,4.54,3.7,7.87,3.7,10.22a15.19,15.19,0,0,1-1.5,6.66,7.86,7.86,0,0,1-3.59,3.74,17.94,17.94,0,0,1-7.4,1.24h-.51c-1.76,0-2.56-1.9-2.56-3.66s.8-3.66,2.56-3.66H855c4.21,0,8-.85,8-1.43,0-.88-1.9-4.58-3.59-7.47a54.44,54.44,0,0,1,3.74-5.71Zm-7.06-9.74a29.67,29.67,0,0,1,4.17,4.54,16.23,16.23,0,0,1-3.59,3.73c-1.39-1.5-2.82-2.93-4.28-4.35Zm3.07-7.91a29.26,29.26,0,0,1,4.18,4.54,16.65,16.65,0,0,1-3.59,3.73c-1.39-1.5-2.82-2.93-4.29-4.35Zm4.65,7.58a29.26,29.26,0,0,1,4.18,4.54,16.23,16.23,0,0,1-3.59,3.73c-1.39-1.5-2.82-2.93-4.29-4.35Z" transform="translate(-84.28 -17.36)" style="fill:#fff"/><path d="M156.52,209c2.38,4,3.88,8.28,3.88,10.26a17.24,17.24,0,0,1-3,9c-5.13,2.82-13,4.51-19.89,4.51-6.11,0-10.07-1.25-12.89-3a11.35,11.35,0,0,1-5.27-10.15,23.06,23.06,0,0,1,2.2-9.7l2.23.77a15,15,0,0,0-.84,4.39c0,5.57,4.65,10.11,16.33,10.11,6.3,0,14.76-1.76,17-2.89a55.49,55.49,0,0,0-3.63-7.55,60.09,60.09,0,0,1,3.55-5.71Zm-22.16-9.7q2.74,2.31,5.16,4.72a51.16,51.16,0,0,1-3.62,4.58c-1.76-1.72-3.55-3.29-5.31-4.72Zm8.86-.48q2.75,2.31,5.17,4.73a54.33,54.33,0,0,1-3.63,4.58c-1.76-1.73-3.55-3.3-5.31-4.73Z" transform="translate(-84.28 -17.36)" style="fill:#fff"/><path d="M167,231.66a61.81,61.81,0,0,0,.48-8.82A217.21,217.21,0,0,0,166.18,199c1.47-1.75,2.86-3.29,4.25-4.65l.62.33c.74,7.91.85,15.31.85,22.41,0,5.75-.33,9.6-1.14,10.84a26.48,26.48,0,0,1-3,4.29Z" transform="translate(-84.28 -17.36)" style="fill:#fff"/><path d="M187,211.81c3.19,5.24,4.47,8.43,4.47,11.43,0,1.72-.15,2.67-.15,3.37a19.09,19.09,0,0,1-2.34,9.7c-2.31,3.92-5.13,6.19-8.31,6.19a21.19,21.19,0,0,1-10-3.18l.7-1.94a14.23,14.23,0,0,0,3.66.44c3,0,6.11-1.73,8.9-4.44,2.49-2.49,4-5,4-6.18s-1.4-3.89-4.91-9.16c1-2.2,2.2-4.32,3.29-6.23Z" transform="translate(-84.28 -17.36)" style="fill:#fff"/><path d="M207.89,231.22h-.62c-5,0-8.57-2.52-8.68-9.66,0-4.18-.36-14.95-1.32-23.95a55.4,55.4,0,0,1,4.22-4.07l.51.26a156.68,156.68,0,0,1,.66,16.4c0,3.85-.08,5.79-.08,8.79,0,3.66,1.47,4.91,4.8,4.91h.51Z" transform="translate(-84.28 -17.36)" style="fill:#fff"/><path d="M225,231.22h-.47c-3.34,0-6.45-.66-8.39-4h-.11a9.21,9.21,0,0,1-7.65,4h-.52c-1.75,0-2.56-1.9-2.56-3.66s.81-3.66,2.56-3.66h.52a8.63,8.63,0,0,0,5-1.25c2-1.24,2.19-3.58,3-5.27.84-.59,1.8-1.24,2.93-1.9l.26.22a14.16,14.16,0,0,0-.7,3.37,4,4,0,0,0,1.8,3.77,7.3,7.3,0,0,0,3.91,1.06H225Zm-13.29,6.85a29.16,29.16,0,0,1,4.17,4.54,16.64,16.64,0,0,1-3.58,3.74c-1.4-1.5-2.82-2.93-4.29-4.36Zm7.73-.33a29.67,29.67,0,0,1,4.17,4.54,16.47,16.47,0,0,1-3.59,3.74c-1.39-1.5-2.82-2.93-4.28-4.36Z" transform="translate(-84.28 -17.36)" style="fill:#fff"/><path d="M240.78,231.22h-.51c-3.3,0-6-1-7.66-4.1h-.14a7.72,7.72,0,0,1-6.92,4.1H225c-1.75,0-2.56-1.9-2.56-3.66s.81-3.66,2.56-3.66h.81c3.73,0,5.38-1.8,5.38-4.91,0-6.59-.4-14.79-1.1-21.68a51.07,51.07,0,0,1,4.14-3.81l.48.22a155.91,155.91,0,0,1,.62,16.41c0,3.84-.07,7.1-.07,8.79,0,3.48.91,5,4.76,5h.73Z" transform="translate(-84.28 -17.36)" style="fill:#fff"/><path d="M247.26,226.9a6.13,6.13,0,0,1-6,4.32h-.48c-1.68,0-2.52-1.75-2.52-3.66,0-1.76.8-3.66,2.56-3.66h.51a6,6,0,0,0,3.15-1c2.86-1.8,2.2-6.92,5.79-10.26a7.06,7.06,0,0,1,4.83-2.16c6.12,0,8.17,9.34,8.17,13.41,0,.51-1.32,6.95-6.19,6.95-2.78,0-6.37-1.39-9.67-4Zm10.84-3c.7,0,1.14-.11,1.14-.33-.77-4.1-3-6.74-5.42-6.74-1.94,0-3.3,1.17-4.29,3.15C252.39,222.51,255.25,223.9,258.1,223.9Z" transform="translate(-84.28 -17.36)" style="fill:#fff"/><path d="M336.8,30.92c.69,1.3,1.11,2.56,1.67,3.55a2.89,2.89,0,0,0,2.16.82h.22v3.13h-.22a3.81,3.81,0,0,1-2.22-.56h-.05a8.63,8.63,0,0,1-1,3.34,6.89,6.89,0,0,1-5.42,2.47c-2.84,0-4.77-1.78-4.77-5.36a9.64,9.64,0,0,1,1.25-4.42l.85.42a6.07,6.07,0,0,0-.72,2.7c0,2.42,1.55,3.53,3.7,3.53S336.74,39,337.06,38a13,13,0,0,0-1.95-4.79,21.87,21.87,0,0,1,1.49-2.3Zm-4.49-5a14.33,14.33,0,0,1,2.55,2,11.22,11.22,0,0,1-1.58,2.22,26.31,26.31,0,0,0-2.54-2Z" transform="translate(-84.28 -17.36)" style="fill:#fff"/><path d="M343.61,36.57A2.62,2.62,0,0,1,341,38.42h-.2c-.72,0-1.08-.75-1.08-1.56s.35-1.57,1.1-1.57h.21a2.57,2.57,0,0,0,1.35-.4c1.22-.77.94-3,2.47-4.38a3,3,0,0,1,2.06-.92c2.61,0,3.48,4,3.48,5.72,0,.22-.56,3-2.64,3a7.15,7.15,0,0,1-4.12-1.71Zm4.63-1.28c.29,0,.48,0,.48-.14-.33-1.75-1.27-2.87-2.31-2.87a2,2,0,0,0-1.83,1.34A5.64,5.64,0,0,0,348.24,35.29Z" transform="translate(-84.28 -17.36)" style="fill:#fff"/><path d="M372.13,38.42h-.24c-2.75,0-3.09-1.49-3.72-4.14l-.11-.49h0a2.9,2.9,0,0,1-1.85,1.39,9.86,9.86,0,0,1,.1,1.54,6.57,6.57,0,0,1-.89,3.31c-.89,1.51-2,2.53-3.25,2.53A9.18,9.18,0,0,1,357.88,41l.36-.81a4.11,4.11,0,0,0,1.43.3,5.42,5.42,0,0,0,3.75-1.79,6.08,6.08,0,0,0,1.63-2.29c0-.42-.77-1.25-2.16-2.44.25-.91.52-1.83.86-2.73l.17,0a3.89,3.89,0,0,0,2.3,1.29c1.59,0,2-1.68,2.59-2.5l.35,0a27.67,27.67,0,0,0,1,4.18,1.82,1.82,0,0,0,1.71,1.11h.22Zm-5.86-12.69a12.55,12.55,0,0,1,1.78,1.94,7.18,7.18,0,0,1-1.53,1.59c-.6-.64-1.21-1.25-1.83-1.86Zm1.31-3.37a12.51,12.51,0,0,1,1.78,1.93,7,7,0,0,1-1.53,1.6c-.59-.64-1.2-1.25-1.83-1.86Zm2,3.23a12.65,12.65,0,0,1,1.79,1.94,7.23,7.23,0,0,1-1.54,1.59c-.59-.64-1.2-1.25-1.82-1.86Z" transform="translate(-84.28 -17.36)" style="fill:#fff"/><path d="M376.19,28.57c2.34,2,3,3.18,3,5a6.65,6.65,0,0,1-.75,2.83c-.65,1.34-2.73,2-6.1,2h-.22c-.75,0-1.1-.81-1.1-1.56s.35-1.57,1.1-1.57h.22c3.12,0,5.28-.51,5.28-1.22,0-1.31-2.1-3.14-5.27-5.28a7.24,7.24,0,0,1-.31-2,2.37,2.37,0,0,1,1.56-2.29,80.08,80.08,0,0,1,8.06-3l.11.11c-.4.86-.86,1.74-1.34,2.6a64.81,64.81,0,0,0-6.94,2.51v.09c1.11.24,2.19.41,3.2.55Z" transform="translate(-84.28 -17.36)" style="fill:#fff"/><path d="M386.05,19.39l-.42-.47a.65.65,0,0,0-.53-.22c-.63,0-1.05.31-1.05.55,0,.4.72.82,2.05.82.57,0,1,0,1.57,0l.07.14a10.68,10.68,0,0,1-.64,1.26,9.91,9.91,0,0,0-3.91,1.13l-.19-.19c.19-.4.39-.8.61-1.17a1.33,1.33,0,0,1-.95-1.25,2.68,2.68,0,0,1,1-1.77,3,3,0,0,1,1.94-.82c.67,0,1.1.34,1.1.87a2.13,2.13,0,0,1-.45,1.16Zm-1.49,19.22a26.08,26.08,0,0,0,.21-3.77,94.24,94.24,0,0,0-.53-10.16,24,24,0,0,1,1.81-2l.26.14c.32,3.38.36,6.53.36,9.56,0,2.46-.14,4.1-.48,4.63a11.79,11.79,0,0,1-1.28,1.83Z" transform="translate(-84.28 -17.36)" style="fill:#fff"/><path d="M659.45,325.11c.4,7.76.47,15.71.47,23.66,0,3.18.55,5.89,2.16,8a5.8,5.8,0,0,0,4.29,1.65h.51v4.69h-.66c-6.34,0-8.9-4.84-9-10.11h-.19c-.84,3.22-3,5.09-5.49,6.55v.11c2.64.7,3.52,2.09,3.52,4.73a11.12,11.12,0,0,1-1.5,4.94c-5.75,5.64-11.65,7.4-16.48,7.4a13,13,0,0,1-8.76-3.44,13.8,13.8,0,0,1-3.81-9.82,28,28,0,0,1,2.75-11.5l1.43.55a23.17,23.17,0,0,0-1.65,7.69,12.18,12.18,0,0,0,2.13,7.22,10.46,10.46,0,0,0,8.35,4.17,20.52,20.52,0,0,0,10.54-2.75,17.53,17.53,0,0,0,4.65-3.62c0-1.39-6-2.6-11.46-3l-.18-.33,1.94-4a26.79,26.79,0,0,0,9.85-3.15c3.33-2.42,3.66-3.7,3.66-10.4,0-5-.33-10.37-.62-16a31,31,0,0,1,3.15-3.44Z" transform="translate(-84.28 -17.36)" style="fill:#8fc4ff"/><path d="M669.19,358.4a20.85,20.85,0,0,0,5.42-.77v-.18c-2.57-1.69-4.29-4-4.29-7.18a9.41,9.41,0,0,1,1.58-4.8c1.72-2.86,4.35-4.91,7.58-4.91,3.4,0,6.22,2.24,8.13,6l-.7.73a9.23,9.23,0,0,0-6.55-2.34c-3.89,0-6.71,1.8-6.71,3.08,0,1.72,1,3.55,3.15,5.2a9.23,9.23,0,0,0,4.43,2c2.79,0,6.12-1.14,10.48-2.61l.18.19L690,357.3c-5.75,2.05-8.53,2.34-13,3.81-3.15,1-6,2-8.94,2h-1.13a2.36,2.36,0,0,1-2.56-2.46,2.27,2.27,0,0,1,2.56-2.23Z" transform="translate(-84.28 -17.36)" style="fill:#8fc4ff"/><path d="M718.33,359.61c-3.84,0-6.66-1.36-6.66-4.29a10.82,10.82,0,0,1,1.17-4.28c1.46-3.19,5.42-6.59,11.72-10.07l-.22-2.75a31.72,31.72,0,0,1,2.89-3h.4c.15,5.67.19,11.39.22,17.06,0,2.49.3,4.21,1.4,5.17a5.94,5.94,0,0,0,3.84.95H734v4.69h-.81c-3.59,0-6.19-1-7.58-5.1A17.37,17.37,0,0,1,718.33,359.61ZM724.81,345c-6.52,3.37-9.92,6.08-9.92,8,0,1.43,2.2,2.05,4.69,2.05a17.76,17.76,0,0,0,5.42-1Zm-4.32-13c-1.5-1.43-2.82-2.6-4.28-3.81a33.12,33.12,0,0,1,2.89-3.48,34.48,34.48,0,0,1,4.18,3.92A20,20,0,0,1,720.49,332.07Zm7.07-.48c-1.5-1.43-2.82-2.6-4.28-3.81a32.92,32.92,0,0,1,2.89-3.48,34.47,34.47,0,0,1,4.17,3.92A18.77,18.77,0,0,1,727.56,331.59Z" transform="translate(-84.28 -17.36)" style="fill:#8fc4ff"/><path d="M734.59,358.4a27.84,27.84,0,0,0,5.9-.88,10.07,10.07,0,0,1-1.28-5.57,12.35,12.35,0,0,1,3.29-8.6c1.91-2.05,4.21-3.41,5.53-3.41s2.93,1.47,4.29,4.07a11.12,11.12,0,0,1,1.39,5.2,16.29,16.29,0,0,1-2.46,8.53,21,21,0,0,0,5.72.66h1.17v4.69h-1.06a34.83,34.83,0,0,1-12-2.35c-4.65,1.65-8,2.35-10.47,2.35H734a2.36,2.36,0,0,1-2.56-2.46A2.27,2.27,0,0,1,734,358.4Zm8.61-22.67c-1.5-1.43-2.82-2.6-4.29-3.81a33.13,33.13,0,0,1,2.9-3.48,34.42,34.42,0,0,1,4.17,3.92A19.57,19.57,0,0,1,743.2,335.73ZM751.69,352a7.6,7.6,0,0,0-.88-3.29c-1-1.94-2.12-3.3-3.62-3.3-2.86,0-5.64,3.41-6.3,6.12.51,2.12,1.87,3.91,5,4.87C748.43,355.83,751.69,353.45,751.69,352Zm-1.42-16.7c-1.51-1.43-2.82-2.6-4.29-3.81a34,34,0,0,1,2.89-3.47,34.43,34.43,0,0,1,4.18,3.91A19.65,19.65,0,0,1,750.27,335.25Z" transform="translate(-84.28 -17.36)" style="fill:#8fc4ff"/><path d="M761.21,358.4a29.93,29.93,0,0,0,8-.73c2.34-.7,4.32-2.09,4.32-3a3.17,3.17,0,0,0-.07-.81,38.19,38.19,0,0,1-4.14.15c-4.25,0-7.51-1.14-8.79-4a6.65,6.65,0,0,1-.55-2.64,10.5,10.5,0,0,1,2.75-7.21,6.88,6.88,0,0,1,4.72-2.45c3,0,5.35,2.82,7,7.25a24,24,0,0,1,1.53,8.71,8.72,8.72,0,0,1-1.79,5.79c-2.31,2.64-6.56,3.63-13.07,3.63h-3a2.35,2.35,0,0,1-2.56-2.46,2.27,2.27,0,0,1,2.56-2.23Zm5.42-15.9c-2.41,0-4.39,1.87-4.39,3.26,0,3,4.83,3.89,10.62,3.85C772.13,346.13,769.6,342.5,766.63,342.5Zm-.76-16.44a33.51,33.51,0,0,1,4.39,3.92,14.52,14.52,0,0,1-3,3.59c-1.43-1.36-2.86-2.53-4.32-3.77C763.89,328.48,764.88,327.2,765.87,326.06Z" transform="translate(-84.28 -17.36)" style="fill:#8fc4ff"/><path d="M783.19,363.71a49.22,49.22,0,0,0,.4-7.33v-3.59c0-6.7-.73-16.44-1.32-22.77a34.61,34.61,0,0,1,3.59-3.89l.33.11c.77,8,.95,17.25.95,25.79a59,59,0,0,1-.25,6c-.11,2-1.1,3.55-3.23,5.89Z" transform="translate(-84.28 -17.36)" style="fill:#8fc4ff"/><path d="M813.51,358.4v4.69h-3a17.05,17.05,0,0,1-2.78,7.5c-2.82,4.29-6.89,6.26-8.83,6.26-3.33,0-7-1.53-10.55-3.69l.63-1.21a11.1,11.1,0,0,0,5.38,1.32c3.7,0,7-1.84,10.18-5.06,1.76-1.79,3-3.26,3.44-5.12h-1.79c-7.47,0-11.28-2.39-11.28-7.51a9.94,9.94,0,0,1,1.87-5.9c1.39-2,3.33-3.51,5.64-3.51,3.37,0,6.84,4.72,7.87,12.23Zm-8.31-5.35a5.34,5.34,0,0,0-3.88-2.05c-2.06,0-4.14,1.76-4.14,3.22,0,1.87,1.72,3,4,3.63a25.26,25.26,0,0,0,6.59.55A11.29,11.29,0,0,0,805.2,353.05Z" transform="translate(-84.28 -17.36)" style="fill:#8fc4ff"/><path d="M814.57,358.4c3.85,0,5.09-1.91,6.19-5.39,1.43-4.57,4.32-6.95,6.78-6.95a4.93,4.93,0,0,1,4.39,2.45,45.16,45.16,0,0,1,3.66,6.88c.81,1.73,2.75,3,5.71,3h.63v4.69h-.7a6.21,6.21,0,0,1-5.64-3.19h-.14a5.7,5.7,0,0,1-1.18,2.78,3.33,3.33,0,0,1-2.41,1.21c-2.82,0-7.44-2-10.37-5.13h-.14c-1,2.35-3.34,4.33-7.29,4.33h-.55a2.36,2.36,0,0,1-2.56-2.46,2.27,2.27,0,0,1,2.56-2.23Zm12.34-.62a11.9,11.9,0,0,0,5.06,1.61c.69,0,1.35-.08,1.35-.92a10.44,10.44,0,0,0-1.83-4.87c-1.43-2.16-3.11-3.3-4.69-3.3a4.53,4.53,0,0,0-4.21,3.3C823,355,825.3,356.86,826.91,357.78Z" transform="translate(-84.28 -17.36)" style="fill:#8fc4ff"/><path d="M842.66,358.4a9.32,9.32,0,0,0,4.25-1.14c1.1-.62,1.76-1.79,1.76-4.39,0-7.36-.41-13.95-1-22.38l-.11-1.83,3.26-3.29.19.07c.69,8.6.73,17.58.73,28.78,0,1.69,1.17,4.18,5.42,4.18h.47v4.69h-.76c-3.41,0-6-1.18-7.15-3.89h-.14a7.75,7.75,0,0,1-7.07,3.89h-.62a2.36,2.36,0,0,1-2.57-2.46,2.28,2.28,0,0,1,2.57-2.23Z" transform="translate(-84.28 -17.36)" style="fill:#8fc4ff"/><path d="M858.48,358.4a8.26,8.26,0,0,0,4.1-1,4.17,4.17,0,0,0,1.94-4c-.07-5.86-.47-12.26-1.06-19-.15-1.69-.37-3.23-.37-4.58a3.69,3.69,0,0,1,1.1-2.45,17.44,17.44,0,0,1,2-2l.25.19c-.07,2.38,1.07,5.23,3,8.38a21.26,21.26,0,0,1-2.31,1.87c.15,4.21.48,8.64.48,12.71s-.4,7-1.47,9.19c-.76,1.87-1.64,3.4-3.33,4.25a10.54,10.54,0,0,1-4.58,1.1h-.55a2.36,2.36,0,0,1-2.56-2.46,2.28,2.28,0,0,1,2.56-2.23Z" transform="translate(-84.28 -17.36)" style="fill:#8fc4ff"/><path d="M738.29,419.61c-3.84,0-6.67-1.36-6.67-4.29A10.87,10.87,0,0,1,732.8,411c1.46-3.19,5.42-6.59,11.72-10.07l-.22-2.75a31.72,31.72,0,0,1,2.89-3h.4c.15,5.67.19,11.39.22,17.06,0,2.49.29,4.21,1.39,5.17a6,6,0,0,0,3.85.95h.88v4.69h-.81c-3.59,0-6.19-1-7.58-5.1A17.41,17.41,0,0,1,738.29,419.61ZM744.77,405c-6.52,3.37-9.92,6.08-9.92,8,0,1.43,2.19,2.05,4.69,2.05a17.82,17.82,0,0,0,5.42-1Zm-4.32-13c-1.5-1.43-2.82-2.6-4.28-3.81a31.94,31.94,0,0,1,2.89-3.48,33.7,33.7,0,0,1,4.17,3.92A19.5,19.5,0,0,1,740.45,392.07Zm7.07-.48c-1.5-1.43-2.82-2.6-4.29-3.81a34.2,34.2,0,0,1,2.9-3.48,35.23,35.23,0,0,1,4.17,3.92A19.2,19.2,0,0,1,747.52,391.59Z" transform="translate(-84.28 -17.36)" style="fill:#8fc4ff"/><path d="M754.66,418.4a9.32,9.32,0,0,0,4.25-1.14c1.1-.62,1.76-1.79,1.76-4.39,0-7.36-.41-13.95-1-22.38l-.11-1.83,3.26-3.29.19.07c.69,8.6.73,17.58.73,28.78,0,1.69,1.17,4.18,5.42,4.18h.47v4.69h-.76c-3.41,0-6-1.18-7.15-3.89h-.14a7.75,7.75,0,0,1-7.07,3.89h-.62a2.36,2.36,0,0,1-2.57-2.46,2.28,2.28,0,0,1,2.57-2.23Z" transform="translate(-84.28 -17.36)" style="fill:#8fc4ff"/><path d="M770.48,418.4c2.71,0,4.83-1.87,6.15-6.48a11.34,11.34,0,0,1,2.71-4.44,6.9,6.9,0,0,1,4.62-2.12c4.46,0,7.1,6.15,7.69,12.56-.77,3.33-2.13,4.73-3.88,4.73-3.63,0-7.26-1.65-10.88-4.33h-.26a6,6,0,0,1-6.33,4.77h-.63a2.36,2.36,0,0,1-2.56-2.46,2.28,2.28,0,0,1,2.56-2.23Zm12.82-1.47a11.44,11.44,0,0,0,4.36,1.06c.55,0,1-.07,1.17-.4-1.06-5.53-3.48-8-5.79-8-2.09,0-3.84,1.17-4.91,3.59A11.1,11.1,0,0,0,783.3,416.93Z" transform="translate(-84.28 -17.36)" style="fill:#8fc4ff"/><path d="M807.47,423.09h-.41c-2.89,0-4.76-.59-6.26-2.09-2.23-2.27-2.27-4.87-2.27-10.26,0-6.95-.4-14.24-.95-22a33.87,33.87,0,0,1,3.44-3.4l.26.15c.58,8,.58,17.5.58,26.51v2.09a3.81,3.81,0,0,0,2.75,3.91,7.47,7.47,0,0,0,2.35.41h.51Z" transform="translate(-84.28 -17.36)" style="fill:#8fc4ff"/><path d="M809,418.4a20.65,20.65,0,0,0,9.59-1.83v-.15a56,56,0,0,1-5.13-4.72,5,5,0,0,0-2.52-1.54h-1.14l-.11-.08,1.43-4.21,1.13-.14a45.69,45.69,0,0,1,9.82-1.21,28,28,0,0,1,10.62,1.83l-1.28,4-6.38,5.9v.14a17.39,17.39,0,0,0,8.35,2h1.47v4.69h-1.1a20.56,20.56,0,0,1-12.19-4.29h-.15a20.41,20.41,0,0,1-12.82,4.29h-1.13a2.36,2.36,0,0,1-2.57-2.46,2.28,2.28,0,0,1,2.57-2.23Zm13.29-3.59a59,59,0,0,0,6.74-5.46v-.14a28.75,28.75,0,0,0-6.81-.92,36.94,36.94,0,0,0-6.78.66v.15c.66.58,1.39,1.35,2.16,2.08a42.6,42.6,0,0,0,4.54,3.63Z" transform="translate(-84.28 -17.36)" style="fill:#8fc4ff"/><path d="M843.72,419.94a11.76,11.76,0,0,1-8.35,3.15h-.51a2.36,2.36,0,0,1-2.56-2.46,2.27,2.27,0,0,1,2.56-2.23h.33a13.41,13.41,0,0,0,8.31-2.6c-.66-7.11-.8-14.43-.8-20.14,0-1.47-.3-3.81-.3-5.53a4.5,4.5,0,0,1,1.14-3.23,12.76,12.76,0,0,1,2.05-1.9l.37.22a8.36,8.36,0,0,0-.11,1.54c.07,2.6,1.28,5.05,2.82,7.47L846,396.1c0,11.57.15,14.61.63,17.83l.14.07a9.24,9.24,0,0,1,4.69-1.28,5.52,5.52,0,0,1,4.17,2,7.88,7.88,0,0,1,1.76,5.05c0,4.54-3.11,7-5.78,7-3.41,0-6.23-2.75-7.7-6.92Zm9.56,2.82a2.75,2.75,0,0,0,1.79-.66,5.35,5.35,0,0,0-1.35-3.41,4.28,4.28,0,0,0-3.44-1.65,5.55,5.55,0,0,0-3,.81C848.19,420.67,850.9,422.76,853.28,422.76Z" transform="translate(-84.28 -17.36)" style="fill:#8fc4ff"/><path d="M864.12,423.71a47.91,47.91,0,0,0,.4-7.33v-3.59c0-6.7-.73-16.44-1.31-22.77a33.63,33.63,0,0,1,3.58-3.89l.33.11c.77,8,1,17.25,1,25.79a58.7,58.7,0,0,1-.26,6c-.11,2-1.1,3.55-3.22,5.89Z" transform="translate(-84.28 -17.36)" style="fill:#8fc4ff"/><path d="M698.66,1029.44a48.48,48.48,0,0,1,3,7c1.06,3.22,3,3.73,6.59,3.73h.52v4.69H708a7.86,7.86,0,0,1-5.24-1.65h-.11c-.18,3.7-1.28,7.15-2.27,8.46-2.53,3.3-8.09,5.94-12.41,5.94-6.89,0-11.25-4.58-11.25-11.1a19.52,19.52,0,0,1,3.15-10.66l1.39.77a17.12,17.12,0,0,0-2.05,6.85c0,3.11,1,5.09,2.46,6.37a10.67,10.67,0,0,0,6.92,2.46,16,16,0,0,0,8.86-3.19c1.61-1.25,2.67-2.34,2.67-3.77a17.47,17.47,0,0,0-1.31-6.08,58.84,58.84,0,0,0-2.9-6,31.07,31.07,0,0,1,2.49-3.88Zm-8.72-11.17a32.2,32.2,0,0,1,4.39,3.92,14.7,14.7,0,0,1-3,3.59c-1.42-1.36-2.85-2.53-4.32-3.78C688,1020.68,689,1019.4,689.94,1018.27Z" transform="translate(-84.28 -17.36)" style="fill:#fff"/><path d="M709.53,1040.2c2.71,0,4.84-1.86,6.15-6.48a11.38,11.38,0,0,1,2.71-4.43,6.9,6.9,0,0,1,4.62-2.12c4.47,0,7.1,6.15,7.69,12.56-.77,3.33-2.12,4.72-3.88,4.72-3.63,0-7.25-1.65-10.88-4.32h-.26a6,6,0,0,1-6.33,4.76h-.62a2.35,2.35,0,0,1-2.57-2.45,2.29,2.29,0,0,1,2.57-2.24Zm12.82-1.46a11.44,11.44,0,0,0,4.36,1.06c.55,0,1-.07,1.17-.4-1.06-5.53-3.48-8-5.79-8-2.08,0-3.84,1.17-4.9,3.58A11.15,11.15,0,0,0,722.35,1038.74Z" transform="translate(-84.28 -17.36)" style="fill:#fff"/><path d="M774.94,1008.75c.29,9,.51,17,.51,25.74a6.68,6.68,0,0,0,1.83,4.69,6,6,0,0,0,3.59,1h.4v4.69h-.69c-2.64,0-4.58-.84-5.75-2.75h-.15a24.3,24.3,0,0,1-1.28,5.46,13.07,13.07,0,0,1-4.21,4.14,13.9,13.9,0,0,1-7.62,2.27,9.78,9.78,0,0,1-7.62-3.15c-1.68-1.94-2.6-4.72-2.6-8.28a21.62,21.62,0,0,1,2.46-9.22l1.31.51a16.2,16.2,0,0,0-1.53,6.37,8.92,8.92,0,0,0,1.86,5.68,7.56,7.56,0,0,0,6.34,3,12.6,12.6,0,0,0,6.33-1.72,9.74,9.74,0,0,0,4-3.48,8.53,8.53,0,0,0,.25-2.41c0-5.72-.29-15.2-1.1-29.48a28.21,28.21,0,0,1,3.37-3.23Z" transform="translate(-84.28 -17.36)" style="fill:#fff"/><path d="M783.51,1040.2c5.93,0,12-2.08,19.55-6.62l0-.15a34.3,34.3,0,0,0-11.5-2.56,5.83,5.83,0,0,0-4.65,1.83l.44,1.83-1.1,3.29h-.37l-1.79-4.83c.29-4.06,3.55-6.59,8-6.59,2.45,0,6.3.88,12,3.18a18.12,18.12,0,0,0,6.26,1.18l3,0,.11.07-1.95,3.85a11.28,11.28,0,0,0-6.33,1.35l-6.12,4a28.54,28.54,0,0,1-15.85,4.91h-1.91a2.35,2.35,0,0,1-2.56-2.45,2.28,2.28,0,0,1,2.56-2.24Z" transform="translate(-84.28 -17.36)" style="fill:#fff"/><path d="M819.54,1045.51a47.7,47.7,0,0,0,.41-7.32v-3.59c0-6.7-.74-16.44-1.32-22.78a33.52,33.52,0,0,1,3.58-3.88l.33.11c.77,8,1,17.25,1,25.78a58.57,58.57,0,0,1-.26,6c-.11,2-1.1,3.56-3.22,5.9Z" transform="translate(-84.28 -17.36)" style="fill:#fff"/><path d="M837.16,1032.29c2.08,5,4,7.91,8.24,7.91h.65v4.69h-.76a5.11,5.11,0,0,1-3.7-1.17h-.15c0,.44.07.88.07,1.28a12.24,12.24,0,0,1-1.46,5.68c-2.89,5.09-6,7.29-8.75,7.29s-6.12-1.25-9.16-2.86l.55-1.25a9.56,9.56,0,0,0,4.21.81c4.91,0,11.35-5.57,12.16-11a7.39,7.39,0,0,0-1-1.64,36,36,0,0,1-3.19-5.46c.74-1.69,1.4-3,2-4.25Z" transform="translate(-84.28 -17.36)" style="fill:#fff"/><path d="M846.86,1040.2c2.71,0,4.83-1.86,6.15-6.48a11.38,11.38,0,0,1,2.71-4.43,6.9,6.9,0,0,1,4.62-2.12c4.46,0,7.1,6.15,7.69,12.56-.77,3.33-2.13,4.72-3.88,4.72-3.63,0-7.26-1.65-10.88-4.32H853a6,6,0,0,1-6.33,4.76h-.63a2.35,2.35,0,0,1-2.56-2.45,2.28,2.28,0,0,1,2.56-2.24Zm12.82-1.46a11.44,11.44,0,0,0,4.36,1.06c.54,0,1-.07,1.17-.4-1.06-5.53-3.48-8-5.79-8-2.09,0-3.84,1.17-4.91,3.58A11.18,11.18,0,0,0,859.68,1038.74Z" transform="translate(-84.28 -17.36)" style="fill:#fff"/><path d="M593.19,1068.75c.29,9,.51,17,.51,25.74a6.68,6.68,0,0,0,1.83,4.69,6,6,0,0,0,3.59,1h.4v4.69h-.69c-2.64,0-4.58-.84-5.75-2.75h-.15a24.3,24.3,0,0,1-1.28,5.46,13.07,13.07,0,0,1-4.21,4.14,13.9,13.9,0,0,1-7.62,2.27,9.78,9.78,0,0,1-7.62-3.15c-1.68-1.94-2.6-4.72-2.6-8.28a21.62,21.62,0,0,1,2.46-9.22l1.32.51a16,16,0,0,0-1.54,6.37,8.92,8.92,0,0,0,1.86,5.68,7.56,7.56,0,0,0,6.34,3,12.67,12.67,0,0,0,6.34-1.72,9.77,9.77,0,0,0,4-3.48,8.53,8.53,0,0,0,.25-2.41c0-5.72-.29-15.2-1.1-29.48a28.21,28.21,0,0,1,3.37-3.23Z" transform="translate(-84.28 -17.36)" style="fill:#fff"/><path d="M601.76,1100.2c5.93,0,12-2.08,19.55-6.62l0-.15a34.3,34.3,0,0,0-11.5-2.56,5.83,5.83,0,0,0-4.65,1.83l.44,1.83-1.1,3.29h-.37l-1.79-4.83c.29-4.06,3.55-6.59,8-6.59,2.45,0,6.29.88,12,3.18a18.08,18.08,0,0,0,6.26,1.18l3,0,.11.07-1.95,3.85a11.28,11.28,0,0,0-6.33,1.35l-6.12,4a28.54,28.54,0,0,1-15.85,4.91h-1.91a2.35,2.35,0,0,1-2.56-2.45,2.28,2.28,0,0,1,2.56-2.24Zm11.17,10.15a32.8,32.8,0,0,1,4.39,3.92,14.92,14.92,0,0,1-3,3.59c-1.43-1.36-2.86-2.53-4.32-3.78C611,1112.76,611.94,1111.48,612.93,1110.35Z" transform="translate(-84.28 -17.36)" style="fill:#fff"/><path d="M644.57,1062.19a17.7,17.7,0,0,1-1.43,2.49,37.64,37.64,0,0,0-9.52,2.75l-.08-.11.88-1.54a4.54,4.54,0,0,1,1.69-1.21v-.11c-1.72-.51-2.86-1.61-2.86-3.18a5.08,5.08,0,0,1,1.72-3.23,6.91,6.91,0,0,1,4.43-2.08c1.47,0,2.31.84,2.31,1.79a3.83,3.83,0,0,1-1.17,2.38h-.08c-.4-.8-.76-1.32-1.17-1.43a4.82,4.82,0,0,0-1.13-.11c-1.28,0-2.57.74-2.57,1.28,0,1.76,3.08,2.35,5.24,2.35,1.25,0,2.49-.08,3.74-.15Zm-6.82,43.32a47.7,47.7,0,0,0,.41-7.32v-3.59c0-6.7-.74-16.44-1.32-22.78a32.72,32.72,0,0,1,3.59-3.88l.33.11c.77,8,1,17.25,1,25.78a55.87,55.87,0,0,1-.26,6c-.11,2-1.09,3.56-3.22,5.9Z" transform="translate(-84.28 -17.36)" style="fill:#fff"/><path d="M685.29,1089.44a49.72,49.72,0,0,1,3,7c1.06,3.22,3,3.73,6.59,3.73h.51v4.69h-.77a7.87,7.87,0,0,1-5.24-1.65h-.11c-.18,3.7-1.28,7.15-2.27,8.46-2.52,3.3-8.09,5.94-12.41,5.94-6.89,0-11.24-4.58-11.24-11.1a19.44,19.44,0,0,1,3.15-10.66l1.39.77a17,17,0,0,0-2.05,6.85c0,3.11,1,5.09,2.45,6.37a10.71,10.71,0,0,0,6.92,2.46,15.93,15.93,0,0,0,8.86-3.19c1.62-1.25,2.68-2.34,2.68-3.77a17.31,17.31,0,0,0-1.32-6.08,59.2,59.2,0,0,0-2.89-6,30,30,0,0,1,2.49-3.88Zm-8.72-11.17a32.86,32.86,0,0,1,4.4,3.92,15.15,15.15,0,0,1-3,3.59c-1.43-1.36-2.86-2.53-4.32-3.78C674.6,1080.68,675.58,1079.4,676.57,1078.27Z" transform="translate(-84.28 -17.36)" style="fill:#fff"/><path d="M696.17,1100.2c2.71,0,4.83-1.86,6.15-6.48a11.14,11.14,0,0,1,2.71-4.43,6.85,6.85,0,0,1,4.61-2.12c4.47,0,7.11,6.15,7.69,12.56-.77,3.33-2.12,4.72-3.88,4.72-3.63,0-7.25-1.65-10.88-4.32h-.25a6,6,0,0,1-6.34,4.76h-.62a2.35,2.35,0,0,1-2.56-2.45,2.28,2.28,0,0,1,2.56-2.24Zm12.81-1.46a11.49,11.49,0,0,0,4.36,1.06c.55,0,1-.07,1.17-.4-1.06-5.53-3.48-8-5.78-8-2.09,0-3.85,1.17-4.91,3.58A11.2,11.2,0,0,0,709,1098.74Z" transform="translate(-84.28 -17.36)" style="fill:#fff"/><path d="M770.43,1104.89a19.6,19.6,0,0,1-.58,4.54,9.57,9.57,0,0,1-2.71,4,23.7,23.7,0,0,1-15.35,6.16c-7.21,0-13.88-4.91-13.88-13.85a24.66,24.66,0,0,1,2.24-10.32l1.54.4a19.34,19.34,0,0,0-1.25,6.08c0,7.69,4.76,12.41,11.46,12.41a21.62,21.62,0,0,0,11.76-3.51c2.34-1.65,4.47-3.41,4.47-4.43a3.28,3.28,0,0,0-.3-1.47h-2.05c-7.25,0-11.31-2.38-11.31-7.51a9.91,9.91,0,0,1,1.86-5.89c1.4-2,3.34-3.52,5.64-3.52,3.37,0,6.85,4.73,7.88,12.23h3.29v4.69Zm-13.25-21.5c-1.5-1.42-2.82-2.59-4.29-3.8a32,32,0,0,1,2.9-3.48A34.42,34.42,0,0,1,760,1080,19.94,19.94,0,0,1,757.18,1083.39Zm7.61,11.47a5.39,5.39,0,0,0-3.88-2c-2,0-4.14,1.75-4.14,3.22,0,1.87,1.8,3,4,3.62a24.84,24.84,0,0,0,6.59.55A11.14,11.14,0,0,0,764.79,1094.86Zm-.55-11.94c-1.5-1.43-2.82-2.6-4.28-3.81a33.12,33.12,0,0,1,2.89-3.48,34.48,34.48,0,0,1,4.18,3.92A19.59,19.59,0,0,1,764.24,1082.92Z" transform="translate(-84.28 -17.36)" style="fill:#fff"/><path d="M776.22,1100.2a29.81,29.81,0,0,0,8-.73c2.35-.69,4.32-2.09,4.32-3a3.1,3.1,0,0,0-.07-.8,40.9,40.9,0,0,1-4.14.14c-4.25,0-7.51-1.13-8.79-4a6.65,6.65,0,0,1-.55-2.64,10.5,10.5,0,0,1,2.75-7.21,6.93,6.93,0,0,1,4.72-2.46c3,0,5.35,2.82,7,7.25a24.09,24.09,0,0,1,1.54,8.72,8.69,8.69,0,0,1-1.8,5.79c-2.3,2.63-6.55,3.62-13.07,3.62h-3a2.35,2.35,0,0,1-2.56-2.45,2.28,2.28,0,0,1,2.56-2.24Zm5.42-15.89c-2.42,0-4.4,1.87-4.4,3.26,0,3,4.84,3.88,10.62,3.85C787.13,1087.94,784.61,1084.31,781.64,1084.31Zm-.77-16.44a32.2,32.2,0,0,1,4.39,3.92,14.89,14.89,0,0,1-3,3.59c-1.42-1.36-2.85-2.53-4.32-3.78C778.89,1070.28,779.88,1069,780.87,1067.87Z" transform="translate(-84.28 -17.36)" style="fill:#fff"/><path d="M798.19,1105.51a47.7,47.7,0,0,0,.41-7.32v-3.59c0-6.7-.74-16.44-1.32-22.78a32.72,32.72,0,0,1,3.59-3.88l.33.11c.76,8,.95,17.25.95,25.78a58.57,58.57,0,0,1-.26,6c-.11,2-1.1,3.56-3.22,5.9Z" transform="translate(-84.28 -17.36)" style="fill:#fff"/><path d="M828.51,1100.2v4.69h-3a17,17,0,0,1-2.78,7.51c-2.82,4.28-6.88,6.26-8.82,6.26-3.34,0-7-1.54-10.55-3.7l.62-1.21a11.13,11.13,0,0,0,5.38,1.32c3.7,0,7-1.83,10.18-5,1.76-1.8,3-3.26,3.45-5.13h-1.8c-7.47,0-11.28-2.38-11.28-7.51a9.91,9.91,0,0,1,1.87-5.89c1.39-2,3.33-3.52,5.64-3.52,3.37,0,6.85,4.73,7.87,12.23Zm-8.31-5.34a5.34,5.34,0,0,0-3.88-2c-2.05,0-4.14,1.75-4.14,3.22,0,1.87,1.72,3,4,3.62a25.29,25.29,0,0,0,6.59.55A11.12,11.12,0,0,0,820.2,1094.86Z" transform="translate(-84.28 -17.36)" style="fill:#fff"/><path d="M829.32,1100.2c2.82,0,5.75-1.13,6.3-3.22l1.06-4,2.53-1.83.22.25a19.26,19.26,0,0,0-.81,4.25,3.64,3.64,0,0,0,1.21,3,6.83,6.83,0,0,0,4.54,1.46H845v4.69h-.84c-3.59,0-6.3-1-7.55-3.73h-.14c-1.25,2.45-4.14,3.73-7.29,3.73h-.7a2.35,2.35,0,0,1-2.56-2.45,2.28,2.28,0,0,1,2.56-2.24Zm4-13.88c-1.5-1.42-2.82-2.6-4.29-3.8A33.13,33.13,0,0,1,832,1079a34.42,34.42,0,0,1,4.17,3.92A19.47,19.47,0,0,1,833.35,1086.32Zm7.07-.47c-1.51-1.43-2.82-2.6-4.29-3.81a33.12,33.12,0,0,1,2.89-3.48,33.76,33.76,0,0,1,4.18,3.92A20,20,0,0,1,840.42,1085.85Z" transform="translate(-84.28 -17.36)" style="fill:#fff"/><path d="M845.84,1100.2a8.25,8.25,0,0,0,4.1-1,4.19,4.19,0,0,0,1.94-4c-.08-5.86-.48-12.27-1.06-19-.15-1.68-.37-3.22-.37-4.57a3.73,3.73,0,0,1,1.1-2.46,17.27,17.27,0,0,1,2-2l.26.18c-.07,2.38,1.06,5.24,3,8.39a22.52,22.52,0,0,1-2.31,1.87c.14,4.21.48,8.64.48,12.7s-.41,7-1.47,9.2c-.77,1.86-1.65,3.4-3.33,4.24a10.41,10.41,0,0,1-4.58,1.1H845a2.35,2.35,0,0,1-2.56-2.45,2.28,2.28,0,0,1,2.56-2.24Z" transform="translate(-84.28 -17.36)" style="fill:#fff"/><path d="M863.12,1105.51a47.71,47.71,0,0,0,.4-7.32v-3.59c0-6.7-.73-16.44-1.31-22.78a33.52,33.52,0,0,1,3.58-3.88l.33.11c.77,8,1,17.25,1,25.78a58.57,58.57,0,0,1-.26,6c-.11,2-1.1,3.56-3.22,5.9Z" transform="translate(-84.28 -17.36)" style="fill:#fff"/><path d="M768.13,1164.89a19.65,19.65,0,0,1-.59,4.54,9.48,9.48,0,0,1-2.71,4,23.7,23.7,0,0,1-15.34,6.16c-7.22,0-13.88-4.91-13.88-13.85a24.82,24.82,0,0,1,2.23-10.32l1.54.4a19.63,19.63,0,0,0-1.25,6.08c0,7.69,4.76,12.41,11.47,12.41a21.61,21.61,0,0,0,11.75-3.51c2.35-1.65,4.47-3.41,4.47-4.43a3.28,3.28,0,0,0-.29-1.47h-2.06c-7.25,0-11.31-2.38-11.31-7.51a9.84,9.84,0,0,1,1.87-5.89c1.39-2,3.33-3.52,5.64-3.52,3.37,0,6.84,4.73,7.87,12.23h3.3v4.69Zm-13.26-21.5c-1.5-1.42-2.82-2.59-4.29-3.8a33.13,33.13,0,0,1,2.9-3.48,34.42,34.42,0,0,1,4.17,3.92A19.47,19.47,0,0,1,754.87,1143.39Zm7.62,11.47a5.42,5.42,0,0,0-3.89-2c-2.05,0-4.13,1.75-4.13,3.22,0,1.87,1.79,3,4,3.62a24.84,24.84,0,0,0,6.59.55A11.21,11.21,0,0,0,762.49,1154.86Zm-.55-11.94c-1.5-1.43-2.82-2.6-4.29-3.81a33.12,33.12,0,0,1,2.89-3.48,33.76,33.76,0,0,1,4.18,3.92A19.57,19.57,0,0,1,761.94,1142.92Z" transform="translate(-84.28 -17.36)" style="fill:#fff"/><path d="M771.46,1160.2a28.53,28.53,0,0,0,5.89-.87,10.09,10.09,0,0,1-1.28-5.57,12.4,12.4,0,0,1,3.3-8.61c1.9-2.05,4.21-3.4,5.53-3.4s2.93,1.46,4.28,4.06a11.19,11.19,0,0,1,1.39,5.2,16.29,16.29,0,0,1-2.45,8.54,21,21,0,0,0,5.71.65H795v4.69h-1.07a34.74,34.74,0,0,1-12-2.34c-4.65,1.65-8,2.34-10.47,2.34h-.66a2.35,2.35,0,0,1-2.57-2.45,2.29,2.29,0,0,1,2.57-2.24Zm8.6-22.66c-1.5-1.43-2.82-2.6-4.28-3.81a33.12,33.12,0,0,1,2.89-3.48,34.48,34.48,0,0,1,4.18,3.92A20,20,0,0,1,780.06,1137.54Zm8.5,16.22a7.69,7.69,0,0,0-.88-3.3c-1-1.94-2.12-3.29-3.62-3.29-2.86,0-5.64,3.4-6.3,6.11.51,2.13,1.86,3.92,5,4.87C785.3,1157.64,788.56,1155.26,788.56,1153.76Zm-1.43-16.7c-1.5-1.43-2.82-2.6-4.28-3.81a33.12,33.12,0,0,1,2.89-3.48,34.48,34.48,0,0,1,4.18,3.92A19.21,19.21,0,0,1,787.13,1137.06Z" transform="translate(-84.28 -17.36)" style="fill:#fff"/><path d="M816.83,1153.43a34.3,34.3,0,0,0-11.5-2.56,5.86,5.86,0,0,0-4.65,1.83l.44,1.83-1.1,3.29h-.36l-1.8-4.83c.3-4.06,3.55-6.59,7.95-6.59,2.45,0,6.23.84,12,3.15a17.48,17.48,0,0,0,6.26,1.21h3.19l.07.07-2.27,3.77a11.74,11.74,0,0,0-6.19,1.39l-6.11,4a28.65,28.65,0,0,1-16.08,4.91H795a2.35,2.35,0,0,1-2.57-2.45,2.29,2.29,0,0,1,2.57-2.24h2.23c5.93,0,12-2.08,19.55-6.62Zm4.1,2.49.11,0c.15,3.11,2.71,4.24,6.49,4.24h1v4.69h-1.13c-4.73,0-7.87-1.65-7.87-6a17.48,17.48,0,0,1,.11-2Z" transform="translate(-84.28 -17.36)" style="fill:#fff"/><path d="M829.32,1160.2c2.82,0,5.75-1.13,6.3-3.22l1.06-4,2.53-1.83.22.25a19.26,19.26,0,0,0-.81,4.25,3.64,3.64,0,0,0,1.21,3,6.83,6.83,0,0,0,4.54,1.46H845v4.69h-.84c-3.59,0-6.3-1-7.55-3.73h-.14c-1.25,2.45-4.14,3.73-7.29,3.73h-.7a2.35,2.35,0,0,1-2.56-2.45,2.28,2.28,0,0,1,2.56-2.24Zm4-13.88c-1.5-1.42-2.82-2.6-4.29-3.8A33.13,33.13,0,0,1,832,1139a34.42,34.42,0,0,1,4.17,3.92A19.47,19.47,0,0,1,833.35,1146.32Zm7.07-.47c-1.51-1.43-2.82-2.6-4.29-3.81a33.12,33.12,0,0,1,2.89-3.48,33.76,33.76,0,0,1,4.18,3.92A20,20,0,0,1,840.42,1145.85Z" transform="translate(-84.28 -17.36)" style="fill:#fff"/><path d="M845.84,1160.2a8.25,8.25,0,0,0,4.1-1,4.19,4.19,0,0,0,1.94-4c-.08-5.86-.48-12.27-1.06-19-.15-1.68-.37-3.22-.37-4.57a3.73,3.73,0,0,1,1.1-2.46,17.27,17.27,0,0,1,2-2l.26.18c-.07,2.38,1.06,5.24,3,8.39a22.52,22.52,0,0,1-2.31,1.87c.14,4.21.48,8.64.48,12.7s-.41,7-1.47,9.2c-.77,1.86-1.65,3.4-3.33,4.24a10.41,10.41,0,0,1-4.58,1.1H845a2.35,2.35,0,0,1-2.56-2.45,2.28,2.28,0,0,1,2.56-2.24Z" transform="translate(-84.28 -17.36)" style="fill:#fff"/><path d="M863.12,1165.51a47.71,47.71,0,0,0,.4-7.32v-3.59c0-6.7-.73-16.44-1.31-22.78a33.52,33.52,0,0,1,3.58-3.88l.33.11c.77,8,1,17.25,1,25.78a58.57,58.57,0,0,1-.26,6c-.11,2-1.1,3.56-3.22,5.9Z" transform="translate(-84.28 -17.36)" style="fill:#fff"/><path d="M126,948.75c.29,9,.51,17,.51,25.74a6.68,6.68,0,0,0,1.83,4.69,6,6,0,0,0,3.59,1h.41v4.69h-.7c-2.64,0-4.58-.84-5.75-2.75h-.15a23.77,23.77,0,0,1-1.28,5.46,13,13,0,0,1-4.21,4.14,13.88,13.88,0,0,1-7.62,2.27,9.76,9.76,0,0,1-7.61-3.15c-1.69-1.94-2.6-4.72-2.6-8.28a21.6,21.6,0,0,1,2.45-9.22l1.32.51a16,16,0,0,0-1.54,6.37,8.92,8.92,0,0,0,1.87,5.68,7.53,7.53,0,0,0,6.33,3,12.61,12.61,0,0,0,6.34-1.72,9.7,9.7,0,0,0,4-3.48,8.33,8.33,0,0,0,.26-2.41c0-5.72-.3-15.2-1.1-29.48a28.21,28.21,0,0,1,3.37-3.23Z" transform="translate(-84.28 -17.36)" style="fill:#fff"/><path d="M133.09,980.2c2.82,0,5.75-1.13,6.3-3.22l1.06-4L143,971.2l.22.25a19.88,19.88,0,0,0-.81,4.25,3.64,3.64,0,0,0,1.21,3,6.83,6.83,0,0,0,4.54,1.46h.66v4.69H148c-3.59,0-6.3-1-7.54-3.73h-.15c-1.25,2.45-4.14,3.73-7.29,3.73h-.69a2.35,2.35,0,0,1-2.57-2.45,2.29,2.29,0,0,1,2.57-2.24Zm4-13.88c-1.5-1.42-2.82-2.6-4.29-3.8a33.13,33.13,0,0,1,2.9-3.48A34.42,34.42,0,0,1,139.9,963,19,19,0,0,1,137.12,966.32Zm7.07-.47c-1.5-1.43-2.82-2.6-4.29-3.81a32,32,0,0,1,2.9-3.48,34.42,34.42,0,0,1,4.17,3.92A19.57,19.57,0,0,1,144.19,965.85Z" transform="translate(-84.28 -17.36)" style="fill:#fff"/><path d="M171.58,945.49c-.81,1.5-1.76,3-2.75,4.5-1.86.48-3.91,1.1-5.89,1.8-3.88,1.35-7.88,3-12.05,4.79v.11l6,2.31-.88,1.83c5.64,4.58,9.41,9.23,9.41,13.08,0,3.4-.91,6.11-2.34,7.58-2.31,2-6,3.4-12.78,3.4H148.8a2.35,2.35,0,0,1-2.56-2.45,2.28,2.28,0,0,1,2.56-2.24h2.31c3.77,0,7.29-.36,9.78-1.9,1.32-.81,2-1.54,2-2,0-1.65-1.13-3.59-2.53-5.49-1.61-2.2-5-5.71-11-10.36A4,4,0,0,1,148,957.1a4.93,4.93,0,0,1,.85-2.35,6.2,6.2,0,0,1,2.74-2.23c4.29-2.16,11.28-4.58,19.7-7.33Z" transform="translate(-84.28 -17.36)" style="fill:#fff"/><path d="M206.37,977.53l-1.79,3.63a32.42,32.42,0,0,0-13.19,4.1l-.36-.37,1.64-2.67a6.56,6.56,0,0,1,2.09-1.47v-.18c-2.31-.81-4-2.2-4-4.39a7.23,7.23,0,0,1,2.46-5,10,10,0,0,1,6.3-2.75c1.94,0,3.55,1.17,3.55,2.86a4.56,4.56,0,0,1-1.69,3.4h-.22a8,8,0,0,0-1.06-2,2.3,2.3,0,0,0-1.94-.88,6.4,6.4,0,0,0-3.15,1c-.58.37-1,.84-1,1.28a2.84,2.84,0,0,0,1.39,2.31,8.82,8.82,0,0,0,4.72,1.46,38.39,38.39,0,0,0,6.15-.58Z" transform="translate(-84.28 -17.36)" style="fill:#fff"/><path d="M221.9,984.89h-.41c-2.89,0-4.76-.58-6.26-2.09-2.23-2.27-2.27-4.87-2.27-10.25,0-7-.4-14.25-1-22a32.87,32.87,0,0,1,3.44-3.4l.26.14c.58,8,.58,17.51.58,26.52v2.08A3.82,3.82,0,0,0,219,979.8a7.39,7.39,0,0,0,2.34.4h.52Z" transform="translate(-84.28 -17.36)" style="fill:#fff"/><path d="M251.41,969.22a42.48,42.48,0,0,1,.59,6.52,12.39,12.39,0,0,1-1.32,5c-1.39,2.31-3.29,4-5.42,4-1.57,0-3.26-1.17-4.57-3h-.3a8.55,8.55,0,0,1-6.41,3.15,3.14,3.14,0,0,1-3.51-3.11h-.15a9.79,9.79,0,0,1-7.8,3.11h-.62a2.35,2.35,0,0,1-2.57-2.45,2.29,2.29,0,0,1,2.57-2.24h1.24c3.34,0,6-.87,7.73-3.4l2-2.89,2.82-1,.15.18c-1.46,2.34-2.49,4.17-2.49,5.27a1.75,1.75,0,0,0,1.91,1.83,5.79,5.79,0,0,0,3.25-1.06c1.29-.95,1.47-2,2.6-5.82l2.2-1.28.22.14a16.45,16.45,0,0,0-.48,3.59,4,4,0,0,0,3.81,4.21,1.72,1.72,0,0,0,1.94-1.64,33.74,33.74,0,0,0-.91-5.94,28.39,28.39,0,0,1,3.29-3.29Z" transform="translate(-84.28 -17.36)" style="fill:#fff"/><path d="M264.49,966l2.6,4.94a13.84,13.84,0,0,1,1.83,7v4c0,3.25-1.76,6.73-4.62,10.18-2.23,2.34-4.21,3.33-6,3.33-2.71,0-5.82-1-9.41-2.82l.4-1.25a12.88,12.88,0,0,0,4.07.66c5.16,0,10.44-4.47,12.85-9.89a3.84,3.84,0,0,0,.41-1.61,6.44,6.44,0,0,0-.52-1.94,57.91,57.91,0,0,0-4.39-8.05c.84-1.58,1.68-3.08,2.6-4.58Z" transform="translate(-84.28 -17.36)" style="fill:#fff"/><path d="M284.59,993.83a17.3,17.3,0,0,1-1.43,2.49,37.77,37.77,0,0,0-9.52,2.74l-.07-.11.88-1.53a4.47,4.47,0,0,1,1.68-1.21v-.11c-1.72-.51-2.85-1.61-2.85-3.19a5,5,0,0,1,1.72-3.22,6.92,6.92,0,0,1,4.43-2.09c1.46,0,2.31.84,2.31,1.8a3.8,3.8,0,0,1-1.18,2.38h-.07c-.4-.81-.77-1.32-1.17-1.43a4.47,4.47,0,0,0-1.14-.11c-1.28,0-2.56.73-2.56,1.28,0,1.76,3.08,2.34,5.24,2.34,1.24,0,2.49-.07,3.73-.14Zm-7.4-8.32a47.7,47.7,0,0,0,.41-7.32V974.6c0-6.7-.74-16.44-1.32-22.78a32.72,32.72,0,0,1,3.59-3.88l.33.11c.77,8,.95,17.25.95,25.78a55.87,55.87,0,0,1-.26,6c-.11,2-1.1,3.56-3.22,5.9Z" transform="translate(-84.28 -17.36)" style="fill:#fff"/><path d="M316.2,966l2.6,4.94a13.84,13.84,0,0,1,1.83,7v4c0,3.25-1.76,6.73-4.62,10.18-2.23,2.34-4.21,3.33-6,3.33-2.71,0-5.82-1-9.41-2.82l.4-1.25A12.88,12.88,0,0,0,305,992c5.16,0,10.43-4.47,12.85-9.89a4,4,0,0,0,.4-1.61,6.42,6.42,0,0,0-.51-1.94,57.91,57.91,0,0,0-4.39-8.05c.84-1.58,1.68-3.08,2.6-4.58Zm-3.37-12.68a33.51,33.51,0,0,1,4.39,3.92,14.52,14.52,0,0,1-3,3.59c-1.43-1.35-2.85-2.53-4.32-3.77C310.85,955.74,311.84,954.46,312.83,953.32Z" transform="translate(-84.28 -17.36)" style="fill:#fff"/><path d="M347.8,980.2v4.69h-3A17,17,0,0,1,342,992.4c-2.82,4.28-6.89,6.26-8.83,6.26-3.33,0-7-1.54-10.55-3.7l.63-1.21a11.1,11.1,0,0,0,5.38,1.32c3.7,0,7-1.83,10.18-5.05,1.76-1.8,3-3.26,3.44-5.13h-1.79c-7.47,0-11.28-2.38-11.28-7.51a9.91,9.91,0,0,1,1.87-5.89c1.39-2,3.33-3.52,5.64-3.52,3.37,0,6.85,4.73,7.87,12.23Zm-8.31-5.34a5.34,5.34,0,0,0-3.89-2.05c-2.05,0-4.13,1.75-4.13,3.22,0,1.87,1.72,3,4,3.62a25.26,25.26,0,0,0,6.59.55A11.21,11.21,0,0,0,339.49,974.86Z" transform="translate(-84.28 -17.36)" style="fill:#fff"/><path d="M348.61,980.2c2.71,0,4.83-1.86,6.15-6.48a11.14,11.14,0,0,1,2.71-4.43,6.85,6.85,0,0,1,4.61-2.12c4.47,0,7.11,6.15,7.69,12.56-.77,3.33-2.12,4.72-3.88,4.72-3.62,0-7.25-1.65-10.87-4.32h-.26a6,6,0,0,1-6.34,4.76h-.62a2.35,2.35,0,0,1-2.56-2.45,2.28,2.28,0,0,1,2.56-2.24Zm12.81-1.46a11.49,11.49,0,0,0,4.36,1.06c.55,0,1-.07,1.17-.4-1.06-5.53-3.48-8-5.78-8-2.09,0-3.85,1.17-4.91,3.58A11.2,11.2,0,0,0,361.42,978.74Z" transform="translate(-84.28 -17.36)" style="fill:#fff"/><path d="M381.57,966l2.6,4.94a13.84,13.84,0,0,1,1.83,7v4c0,3.25-1.76,6.73-4.62,10.18-2.23,2.34-4.21,3.33-6,3.33-2.71,0-5.82-1-9.41-2.82l.4-1.25a12.83,12.83,0,0,0,4.07.66c5.16,0,10.43-4.47,12.85-9.89a4,4,0,0,0,.4-1.61,6.42,6.42,0,0,0-.51-1.94,57.91,57.91,0,0,0-4.39-8.05c.84-1.58,1.68-3.08,2.6-4.58Z" transform="translate(-84.28 -17.36)" style="fill:#fff"/><path d="M115.84,1044.89v-1.54c4.43-.44,4.65-.8,4.58-6.44l-.18-21.5H120l-13.41,29.15h-1.09l-12.35-28.42H93l-.81,15.06a82.84,82.84,0,0,0-.11,8.82c.11,2.53,1.39,2.89,5,3.26v1.61H84.28v-1.61c3.14-.29,4.21-1.06,4.65-3.19.29-1.86.62-4.17,1.06-9.92l.8-10.77c.48-6.95.15-7.25-4.76-7.72v-1.62h9.34l12.42,26.34,12.59-26.34H130v1.62c-4.8.4-5.13.58-4.95,5.89l.52,19.34c.18,5.64.33,6,5.09,6.44v1.54Z" transform="translate(-84.28 -17.36)" style="fill:#fff"/><path d="M152.68,1040.13c-3.51,4.43-7.43,5.38-9.19,5.38-6.7,0-10.66-5.38-10.66-11.35a13.43,13.43,0,0,1,3.48-9.15,11.49,11.49,0,0,1,8.21-4.11h0a8.48,8.48,0,0,1,8.35,8.24c0,1-.29,1.51-1.28,1.73s-7.8.69-14.1.91c.11,6.92,4.18,9.85,7.95,9.85a9.07,9.07,0,0,0,6.3-2.67Zm-9.44-17.21c-2.35,0-4.69,2.09-5.46,6.55,2.89,0,5.78,0,8.82-.11,1,0,1.29-.33,1.29-1,0-2.82-1.76-5.42-4.62-5.42Z" transform="translate(-84.28 -17.36)" style="fill:#fff"/><path d="M167,1044.78a5.14,5.14,0,0,1-2.31.73c-3.62,0-5.64-2-5.64-6.37v-15.38h-3.7l-.25-.62,1.5-1.61h2.45v-3.88l4-3.74.74.15v7.47h6.08a1.58,1.58,0,0,1-.37,2.23h-5.71v13.51c0,4.33,1.86,5.06,3.22,5.06a7.56,7.56,0,0,0,3.3-.92l.47,1.47Z" transform="translate(-84.28 -17.36)" style="fill:#fff"/><path d="M190.62,1045.51a4.31,4.31,0,0,1-2.78-1.06,4.86,4.86,0,0,1-1.32-2.27c-2.2,1.39-4.76,3.33-6.3,3.33a6.62,6.62,0,0,1-6.74-6.59c0-2.67,1.47-4.28,4.44-5.23,3.47-1.1,7.25-2.49,8.42-3.48v-1c0-3.84-1.76-5.89-4.36-5.89a3.11,3.11,0,0,0-2.31.95,8.55,8.55,0,0,0-1.65,3.63,1.68,1.68,0,0,1-1.75,1.31,2.69,2.69,0,0,1-2.49-2.38c0-.8.69-1.46,1.75-2.19a25.2,25.2,0,0,1,8.32-3.78,7.36,7.36,0,0,1,4.54,1.36c2,1.68,2.6,3.92,2.6,6.77v9.64c0,2.38.95,3.18,1.94,3.18a4.27,4.27,0,0,0,1.94-.58l.55,1.42Zm-4.28-13.44c-1.1.55-3.3,1.58-4.43,2.09-2.13.92-3.3,2-3.3,4a3.82,3.82,0,0,0,3.74,4.06,6.46,6.46,0,0,0,4-1.76Z" transform="translate(-84.28 -17.36)" style="fill:#fff"/><path d="M236.66,1011.68c-4.55.36-5,.62-5,5.16v21.31c0,4.54.47,4.84,5,5.2v1.54h-15.2v-1.54c4.72-.36,5.16-.66,5.16-5.2v-10.47H207.84v10.47c0,4.51.43,4.84,5,5.2v1.54H197.91v-1.54c4.4-.36,4.8-.66,4.8-5.2v-21.31c0-4.54-.4-4.8-4.94-5.16v-1.62h14.75v1.62c-4.25.36-4.68.62-4.68,5.16v8.42h18.78v-8.42c0-4.5-.44-4.8-4.8-5.16v-1.62h14.84Z" transform="translate(-84.28 -17.36)" style="fill:#fff"/><path d="M256.54,1045.51a4.29,4.29,0,0,1-2.78-1.06,4.77,4.77,0,0,1-1.32-2.27c-2.2,1.39-4.76,3.33-6.3,3.33a6.62,6.62,0,0,1-6.74-6.59c0-2.67,1.47-4.28,4.43-5.23,3.48-1.1,7.25-2.49,8.43-3.48v-1c0-3.84-1.76-5.89-4.36-5.89a3.11,3.11,0,0,0-2.31.95,8.55,8.55,0,0,0-1.65,3.63,1.69,1.69,0,0,1-1.75,1.31,2.69,2.69,0,0,1-2.5-2.38c0-.8.7-1.46,1.76-2.19a25.2,25.2,0,0,1,8.32-3.78,7.36,7.36,0,0,1,4.54,1.36c2,1.68,2.6,3.92,2.6,6.77v9.64c0,2.38.95,3.18,1.94,3.18a4.27,4.27,0,0,0,1.94-.58l.55,1.42Zm-4.28-13.44c-1.1.55-3.3,1.58-4.43,2.09-2.13.92-3.3,2-3.3,4a3.82,3.82,0,0,0,3.74,4.06,6.48,6.48,0,0,0,4-1.76Z" transform="translate(-84.28 -17.36)" style="fill:#fff"/><path d="M277.6,1028.05c-1.06-3.15-3-5.39-5.64-5.39a3.32,3.32,0,0,0-3.37,3.56c0,2.19,2.05,3.47,4.5,4.43,4.14,1.64,7,3.58,7,7.36,0,5-4.61,7.5-9.12,7.5a11.25,11.25,0,0,1-6.3-1.75,30.18,30.18,0,0,1-.95-6.6l1.5-.22c1,3.59,3.48,6.78,6.71,6.78a3.66,3.66,0,0,0,3.73-3.63c0-2.19-1.43-3.4-4.21-4.65-3.15-1.43-6.92-3.26-6.92-7.5,0-3.81,3.29-7,8.42-7a11.54,11.54,0,0,1,4.91,1,30.65,30.65,0,0,1,1.24,5.75Z" transform="translate(-84.28 -17.36)" style="fill:#fff"/><path d="M297.92,1044.89v-1.43c3.08-.33,3.52-.69,3.52-4.17v-8.68c0-4.43-1.83-6.52-5.2-6.52a7.56,7.56,0,0,0-5.49,2.6v12.6c0,3.4.33,3.84,3.44,4.17v1.43H282.32v-1.43c3.26-.33,3.74-.66,3.74-4.17v-25.45c0-3.37-.15-3.56-3.63-3.88v-1.29a61.53,61.53,0,0,0,8.32-1.86v18c2.05-2,4.9-3.89,7.8-3.89,4.46,0,7.61,2.71,7.61,9.27v9.12c0,3.59.41,3.84,3.52,4.17v1.43Z" transform="translate(-84.28 -17.36)" style="fill:#fff"/><path d="M335,1023.87h-5l-1.62,7.11H333l-.51,3.36h-5l-2.12,9.16H323.3l2.09-9.16h-5.9l-2.05,9.16h-2.27l2.2-9.16h-5.31l.62-3.36h5.5l1.61-7.11h-5.13l.51-3.37h5.35l1.94-8h2.12l-1.86,8h5.86l1.83-8h2.16l-1.8,8h4.73Zm-13.07,0-1.54,7.11h5.78l1.58-7.11Z" transform="translate(-84.28 -17.36)" style="fill:#fff"/><path d="M381.38,1032.51a15,15,0,0,1-3.81.41c-3.95,0-7-1-8.16-3.67a6,6,0,0,1-.52-2.49,9.84,9.84,0,0,1,2.57-6.77,6.3,6.3,0,0,1,4.43-2.27c2.78,0,5,2.6,6.59,6.77a25.09,25.09,0,0,1,1.39,8.61,9.1,9.1,0,0,1-1.68,5.2c3.44,1.13,3.88,2.2,3.88,4.83a9.41,9.41,0,0,1-1,4.18,14,14,0,0,1-4.5,4.36,21.33,21.33,0,0,1-12.53,3.92,13.2,13.2,0,0,1-9.08-3.48,13.67,13.67,0,0,1-3.77-9.78,27.91,27.91,0,0,1,2.41-11.5l1.47.55a22.52,22.52,0,0,0-1.39,7.69,12.12,12.12,0,0,0,2.12,7.21,10.83,10.83,0,0,0,8.68,4.18,20.33,20.33,0,0,0,10.58-2.71,15.4,15.4,0,0,0,4.84-3.74c0-1.39-6.7-2.71-13-2.71l-.15-.25,1.61-3.78c6-.69,9.12-1.72,9.12-3.62C381.49,1033.32,381.42,1033,381.38,1032.51Zm-14.32,34.28c-1.5-1.43-2.82-2.6-4.28-3.81a34.19,34.19,0,0,1,2.89-3.48,35.29,35.29,0,0,1,4.18,3.92A19.21,19.21,0,0,1,367.06,1066.79Zm7.07-.48c-1.5-1.42-2.82-2.59-4.28-3.8a31.94,31.94,0,0,1,2.89-3.48,33.7,33.7,0,0,1,4.17,3.92A19,19,0,0,1,374.13,1066.31Zm-.26-59.91a32.94,32.94,0,0,1,4.4,3.92,15,15,0,0,1-3,3.59c-1.43-1.36-2.86-2.53-4.32-3.77C371.9,1008.82,372.89,1007.54,373.87,1006.4Zm1.25,15.82c-2.2,0-4.18,1.8-4.18,3.23,0,1.83,3.52,3.18,7,3.18a21.45,21.45,0,0,0,3-.14C379.59,1024.38,377.61,1022.22,375.12,1022.22Z" transform="translate(-84.28 -17.36)" style="fill:#fff"/><path d="M114.16,1089.44a48.48,48.48,0,0,1,3,7c1.07,3.22,3,3.73,6.6,3.73h.51v4.69h-.77a7.86,7.86,0,0,1-5.24-1.65h-.11c-.18,3.7-1.28,7.15-2.27,8.46-2.52,3.3-8.09,5.94-12.41,5.94-6.89,0-11.24-4.58-11.24-11.1a19.52,19.52,0,0,1,3.14-10.66l1.4.77a17,17,0,0,0-2,6.85c0,3.11,1,5.09,2.45,6.37a10.69,10.69,0,0,0,6.92,2.46,15.93,15.93,0,0,0,8.86-3.19c1.61-1.25,2.68-2.34,2.68-3.77a17.31,17.31,0,0,0-1.32-6.08,59.2,59.2,0,0,0-2.89-6,30,30,0,0,1,2.49-3.88Zm-8.72-11.17a32.86,32.86,0,0,1,4.4,3.92,15.15,15.15,0,0,1-3,3.59c-1.43-1.36-2.86-2.53-4.32-3.78C103.46,1080.68,104.45,1079.4,105.44,1078.27Z" transform="translate(-84.28 -17.36)" style="fill:#fff"/><path d="M124.85,1100.2c3.11,0,5.6-.11,7.22-.69,1.28-.48,2.08-1,2.08-1.61,0-1.72-1.75-5.31-3.66-9.05a30,30,0,0,1,2.75-4.14h.18c1.69,3,3.66,7.55,3.66,11.17a11,11,0,0,1-2.56,6.81c-1.65,1.65-4.25,2.2-9.85,2.2h-.44a2.34,2.34,0,0,1-2.56-2.45,2.28,2.28,0,0,1,2.56-2.24Zm3.59,19.3c-1.5-1.42-2.82-2.6-4.28-3.81a32.75,32.75,0,0,1,2.89-3.47,34.36,34.36,0,0,1,4.17,3.91A18.77,18.77,0,0,1,128.44,1119.5Zm7.07-.47c-1.5-1.43-2.82-2.6-4.29-3.81a33.13,33.13,0,0,1,2.9-3.48,34.42,34.42,0,0,1,4.17,3.92A19.57,19.57,0,0,1,135.51,1119Z" transform="translate(-84.28 -17.36)" style="fill:#fff"/><path d="M165.65,1100.2v4.69h-3a17.11,17.11,0,0,1-2.79,7.51c-2.82,4.28-6.88,6.26-8.82,6.26-3.33,0-7-1.54-10.55-3.7l.62-1.21a11.14,11.14,0,0,0,5.39,1.32c3.7,0,7-1.83,10.18-5,1.76-1.8,3-3.26,3.44-5.13h-1.79c-7.47,0-11.28-2.38-11.28-7.51a9.84,9.84,0,0,1,1.87-5.89c1.39-2,3.33-3.52,5.63-3.52,3.37,0,6.85,4.73,7.88,12.23Zm-8.32-5.34a5.32,5.32,0,0,0-3.88-2c-2,0-4.14,1.75-4.14,3.22,0,1.87,1.73,3,4,3.62a25.26,25.26,0,0,0,6.59.55A11.14,11.14,0,0,0,157.33,1094.86Z" transform="translate(-84.28 -17.36)" style="fill:#fff"/><path d="M193.85,1104.89h-.74c-4.46,0-6.88-2.49-9.48-5.93-1.21-1.58-2.35-3.08-3.22-4.07h-.15c0,5.72-3.26,10-13.62,10h-1a2.35,2.35,0,0,1-2.57-2.45,2.29,2.29,0,0,1,2.57-2.24h1.46c3,0,6.48-.51,8.86-2.12.74-.48,1.8-1.28,1.8-1.79a6.35,6.35,0,0,0-.73-2.49c-1.54-3.3-5.13-7.22-9-11.14-1-1-1.79-1.86-2.31-2.49a11.63,11.63,0,0,1-.25-2,6.35,6.35,0,0,1,1-3.15,4.72,4.72,0,0,1,1.31-1.36c3.81-2.45,12.46-5.42,22.53-8.57l.14.22a29.81,29.81,0,0,1-2.82,4.51c-2.19.55-5.34,1.61-8.38,2.71a107.56,107.56,0,0,0-11.1,4.65v.11a37.49,37.49,0,0,0,5.64,2.86l-1.1,1.83a168.31,168.31,0,0,1,13.52,14.5c2.05,2.42,4.13,3.73,7.06,3.73h.63Z" transform="translate(-84.28 -17.36)" style="fill:#fff"/><path d="M194.65,1100.2c2.82,0,5.75-1.13,6.3-3.22l1.06-4,2.53-1.83.22.25a19.88,19.88,0,0,0-.81,4.25,3.64,3.64,0,0,0,1.21,3,6.83,6.83,0,0,0,4.54,1.46h.66v4.69h-.84c-3.59,0-6.3-1-7.54-3.73h-.15c-1.25,2.45-4.14,3.73-7.29,3.73h-.69a2.35,2.35,0,0,1-2.57-2.45,2.29,2.29,0,0,1,2.57-2.24Zm4-13.88c-1.5-1.42-2.82-2.6-4.29-3.8a33.13,33.13,0,0,1,2.9-3.48,34.42,34.42,0,0,1,4.17,3.92A19.47,19.47,0,0,1,198.68,1086.32Zm7.07-.47c-1.5-1.43-2.82-2.6-4.29-3.81a33.12,33.12,0,0,1,2.89-3.48,33.76,33.76,0,0,1,4.18,3.92A19.57,19.57,0,0,1,205.75,1085.85Z" transform="translate(-84.28 -17.36)" style="fill:#fff"/><path d="M211.17,1100.2c2.82,0,5.75-1.13,6.3-3.22l1.06-4,2.53-1.83.21.25a19.7,19.7,0,0,0-.8,4.25,3.64,3.64,0,0,0,1.21,3,6.83,6.83,0,0,0,4.54,1.46h.66v4.69H226c-3.59,0-6.3-1-7.55-3.73h-.14c-1.25,2.45-4.14,3.73-7.29,3.73h-.7a2.35,2.35,0,0,1-2.56-2.45,2.28,2.28,0,0,1,2.56-2.24Zm4.14,19.3c-1.51-1.42-2.82-2.6-4.29-3.81a34,34,0,0,1,2.89-3.47,34.43,34.43,0,0,1,4.18,3.91A19.65,19.65,0,0,1,215.31,1119.5Zm7.06-.47c-1.5-1.43-2.82-2.6-4.28-3.81a33.12,33.12,0,0,1,2.89-3.48,34.48,34.48,0,0,1,4.18,3.92A19.59,19.59,0,0,1,222.37,1119Z" transform="translate(-84.28 -17.36)" style="fill:#fff"/><path d="M227.5,1100.2c3.11,0,5.6-.11,7.22-.69,1.28-.48,2.08-1,2.08-1.61,0-1.72-1.76-5.31-3.66-9.05a30,30,0,0,1,2.75-4.14h.18c1.69,3,3.66,7.55,3.66,11.17a11,11,0,0,1-2.56,6.81c-1.65,1.65-4.25,2.2-9.85,2.2h-.44a2.35,2.35,0,0,1-2.57-2.45,2.29,2.29,0,0,1,2.57-2.24Zm6.92,11.61a33.57,33.57,0,0,1,4.4,3.92,15,15,0,0,1-3,3.59c-1.43-1.35-2.86-2.53-4.32-3.77C232.44,1114.23,233.43,1113,234.42,1111.81Z" transform="translate(-84.28 -17.36)" style="fill:#fff"/><path d="M294.63,1100.2v4.69H292.5a24.94,24.94,0,0,1,.15,2.64,13.24,13.24,0,0,1-1.65,4.58,27.64,27.64,0,0,1-17.06,6.81c-4.69,0-7.95-1.61-10.08-4-2.26-2.52-3.18-6.08-3.18-10.21a26.39,26.39,0,0,1,3.44-12.09l1.39.62a25,25,0,0,0-2.23,9.19,11.44,11.44,0,0,0,2.93,8,12.14,12.14,0,0,0,8.86,3.44,27,27,0,0,0,11.68-3.15c1.65-.91,3-1.79,3.3-2.53-.84-1.75-4.83-3.33-10.66-3.33l-.29-.47,2.6-4.22Zm-22.31,29.52c-1.5-1.43-2.81-2.6-4.28-3.81a34.19,34.19,0,0,1,2.89-3.48,33.76,33.76,0,0,1,4.18,3.92A19.21,19.21,0,0,1,272.32,1129.72Zm7.07-.48c-1.5-1.42-2.82-2.6-4.28-3.8A33.12,33.12,0,0,1,278,1122a34.48,34.48,0,0,1,4.18,3.92A19.49,19.49,0,0,1,279.39,1129.24Z" transform="translate(-84.28 -17.36)" style="fill:#fff"/><path d="M295.43,1100.2c2.82,0,5.75-1.13,6.3-3.22l1.06-4,2.53-1.83.22.25a19.88,19.88,0,0,0-.81,4.25,3.64,3.64,0,0,0,1.21,3,6.83,6.83,0,0,0,4.54,1.46h.66v4.69h-.84c-3.59,0-6.3-1-7.54-3.73h-.15c-1.25,2.45-4.14,3.73-7.29,3.73h-.69a2.35,2.35,0,0,1-2.57-2.45,2.29,2.29,0,0,1,2.57-2.24Zm4-13.88c-1.5-1.42-2.82-2.6-4.28-3.8a31.94,31.94,0,0,1,2.89-3.48,33.7,33.7,0,0,1,4.17,3.92A19,19,0,0,1,299.46,1086.32Zm7.07-.47c-1.5-1.43-2.82-2.6-4.29-3.81a33.13,33.13,0,0,1,2.9-3.48,34.42,34.42,0,0,1,4.17,3.92A19.57,19.57,0,0,1,306.53,1085.85Z" transform="translate(-84.28 -17.36)" style="fill:#fff"/><path d="M339.34,1104.89h-.73c-4.47,0-6.89-2.49-9.49-5.93-1.2-1.58-2.34-3.08-3.22-4.07h-.14c0,5.72-3.26,10-13.63,10h-1a2.35,2.35,0,0,1-2.56-2.45,2.28,2.28,0,0,1,2.56-2.24h1.47c3,0,6.48-.51,8.86-2.12.73-.48,1.8-1.28,1.8-1.79a6.22,6.22,0,0,0-.74-2.49c-1.54-3.3-5.12-7.22-9-11.14-1-1-1.8-1.86-2.31-2.49a11.61,11.61,0,0,1-.26-2,6.46,6.46,0,0,1,1-3.15,4.62,4.62,0,0,1,1.32-1.36c3.81-2.45,12.45-5.42,22.52-8.57l.15.22a29.81,29.81,0,0,1-2.82,4.51c-2.2.55-5.35,1.61-8.39,2.71a108.21,108.21,0,0,0-11.09,4.65v.11a37,37,0,0,0,5.64,2.86l-1.1,1.83a168.38,168.38,0,0,1,13.51,14.5c2.05,2.42,4.14,3.73,7.07,3.73h.62Z" transform="translate(-84.28 -17.36)" style="fill:#fff"/><path d="M340.15,1100.2c2.82,0,5.75-1.13,6.3-3.22l1.06-4,2.52-1.83.22.25a19.7,19.7,0,0,0-.8,4.25,3.64,3.64,0,0,0,1.21,3,6.83,6.83,0,0,0,4.54,1.46h.66v4.69H355c-3.59,0-6.3-1-7.55-3.73h-.15c-1.24,2.45-4.13,3.73-7.28,3.73h-.7a2.35,2.35,0,0,1-2.56-2.45,2.28,2.28,0,0,1,2.56-2.24Zm6.74,11.61a33.51,33.51,0,0,1,4.39,3.92,14.73,14.73,0,0,1-3,3.59c-1.43-1.35-2.86-2.53-4.32-3.77C344.91,1114.23,345.9,1113,346.89,1111.81Z" transform="translate(-84.28 -17.36)" style="fill:#fff"/><path d="M385.37,1089.22a42.48,42.48,0,0,1,.59,6.52,12.39,12.39,0,0,1-1.32,5c-1.39,2.31-3.29,4-5.42,4-1.57,0-3.26-1.17-4.58-3h-.29a8.55,8.55,0,0,1-6.41,3.15,3.14,3.14,0,0,1-3.51-3.11h-.15a9.79,9.79,0,0,1-7.8,3.11h-.62a2.35,2.35,0,0,1-2.57-2.45,2.29,2.29,0,0,1,2.57-2.24h1.24c3.34,0,6-.87,7.73-3.4l2-2.89,2.82-1,.15.18c-1.46,2.34-2.49,4.17-2.49,5.27a1.75,1.75,0,0,0,1.9,1.83,5.8,5.8,0,0,0,3.26-1.06c1.29-1,1.47-2,2.6-5.82l2.2-1.28.22.14a16.45,16.45,0,0,0-.48,3.59,4,4,0,0,0,3.81,4.21,1.72,1.72,0,0,0,1.94-1.64,33.74,33.74,0,0,0-.91-5.94,28.39,28.39,0,0,1,3.29-3.29Zm-12.59-2.53c-1.51-1.43-2.82-2.6-4.29-3.81a34.19,34.19,0,0,1,2.89-3.48,34.53,34.53,0,0,1,4.18,3.92A19.65,19.65,0,0,1,372.78,1086.69Zm2-7.8c-1.5-1.43-2.82-2.6-4.28-3.81a33.12,33.12,0,0,1,2.89-3.48,34.48,34.48,0,0,1,4.18,3.92A19.21,19.21,0,0,1,374.75,1078.89Zm5.09,7.33c-1.5-1.43-2.82-2.61-4.28-3.81a33.12,33.12,0,0,1,2.89-3.48,34.48,34.48,0,0,1,4.18,3.92A20,20,0,0,1,379.84,1086.22Z" transform="translate(-84.28 -17.36)" style="fill:#fff"/><path d="M243.21,1158.59c-4,0-6,1.69-6,2.71,0,3.81,2.68,10.84,4.69,18.53a14.68,14.68,0,0,1,.44,3.26,22,22,0,0,1-.84,5.39l-.88-.11c-.07-4.33-3-11.69-5.35-19.34a17.78,17.78,0,0,1-.69-4.21,13.16,13.16,0,0,1,1-4.84,9.67,9.67,0,0,1,3.3-4.76,28.89,28.89,0,0,1-.55-4.76,7,7,0,0,1,2-4.39,5.16,5.16,0,0,1,3.4-1.5,7,7,0,0,1,4.62,1.61,22.54,22.54,0,0,1,5.6,7.14,6.27,6.27,0,0,1,.48,2.34,9.46,9.46,0,0,1-1.25,3.89A64.58,64.58,0,0,0,243.21,1158.59Zm7.32-4.17c-2.08-2.78-4.32-5.49-7.8-5.49a6.73,6.73,0,0,0-2.23.4l.11,1.9a18.41,18.41,0,0,1-.92,3.52,16.49,16.49,0,0,1,5-.66,29.64,29.64,0,0,1,5.71.73Z" transform="translate(-84.28 -17.36)" style="fill:#fff"/><path d="M280.86,1160.2v4.69h-3a17.11,17.11,0,0,1-2.79,7.51c-2.82,4.28-6.88,6.26-8.82,6.26-3.33,0-7-1.54-10.55-3.7l.62-1.21a11.14,11.14,0,0,0,5.39,1.32c3.7,0,7-1.83,10.18-5,1.76-1.8,3-3.26,3.44-5.13H273.5c-7.48,0-11.28-2.38-11.28-7.51a9.91,9.91,0,0,1,1.86-5.89c1.4-2,3.34-3.52,5.64-3.52,3.37,0,6.85,4.73,7.88,12.23Zm-8.32-5.34a5.32,5.32,0,0,0-3.88-2c-2.05,0-4.14,1.75-4.14,3.22,0,1.87,1.73,3,4,3.62a25.26,25.26,0,0,0,6.59.55A11.23,11.23,0,0,0,272.54,1154.86Z" transform="translate(-84.28 -17.36)" style="fill:#fff"/><path d="M281.48,1160.2c3.11,0,5.6-.11,7.21-.69,1.29-.48,2.09-1,2.09-1.61,0-1.72-1.76-5.31-3.66-9.05a29.16,29.16,0,0,1,2.75-4.14h.18c1.68,3,3.66,7.55,3.66,11.17a11,11,0,0,1-2.56,6.81c-1.65,1.65-4.25,2.2-9.85,2.2h-.44a2.35,2.35,0,0,1-2.57-2.45,2.29,2.29,0,0,1,2.57-2.24Zm3.59,19.3c-1.5-1.42-2.82-2.6-4.29-3.81a34,34,0,0,1,2.9-3.47,35.12,35.12,0,0,1,4.17,3.91A19.2,19.2,0,0,1,285.07,1179.5Zm7.07-.47c-1.51-1.43-2.82-2.6-4.29-3.81a33.12,33.12,0,0,1,2.89-3.48,33.76,33.76,0,0,1,4.18,3.92A20,20,0,0,1,292.14,1179Z" transform="translate(-84.28 -17.36)" style="fill:#fff"/><path d="M322.79,1147.35c.15.81.44,2.56,1,5.71.51,2.79,1.46,5.31,3.11,6.34a6.24,6.24,0,0,0,3,.8h.47v4.69h-.66c-4.35,0-6.19-2-7.65-7.91l-.92-3.73h-.18c-1.1,2.23-3,4.06-5.42,3.91a20.79,20.79,0,0,1,.51,5.06c0,.44,0,.88-.07,1.9a12.71,12.71,0,0,1-2.09,4.91c-2.45,3.63-5.31,5.57-7.21,5.57-3.19,0-6-1.14-9.56-2.9l.51-1.17a8.59,8.59,0,0,0,3.45.92c3.77,0,7.17-1.83,10-5.2,1.68-2,3-3.78,3-5.17-.85-2.3-2.68-4.21-4.58-6.22l1.21-4.69H311c.95.88,1.9,1.72,2.67,2.31a5.27,5.27,0,0,0,3.08.8,4.31,4.31,0,0,0,2.6-1c1.17-.87,1.86-3,3.07-4.94Zm-4.47-4c-1.5-1.42-2.82-2.59-4.28-3.8a31.94,31.94,0,0,1,2.89-3.48,33.7,33.7,0,0,1,4.17,3.92A19,19,0,0,1,318.32,1143.39Zm2-7.8c-1.5-1.42-2.82-2.6-4.29-3.8a33.13,33.13,0,0,1,2.9-3.48,34.42,34.42,0,0,1,4.17,3.92A19.47,19.47,0,0,1,320.3,1135.59Zm5.09,7.33c-1.5-1.43-2.82-2.6-4.29-3.81a33.13,33.13,0,0,1,2.9-3.48,34.42,34.42,0,0,1,4.17,3.92A19.57,19.57,0,0,1,325.39,1142.92Z" transform="translate(-84.28 -17.36)" style="fill:#fff"/><path d="M331,1160.2c3.12,0,5.61-.11,7.22-.69,1.28-.48,2.09-1,2.09-1.61,0-1.72-1.76-5.31-3.67-9.05a30,30,0,0,1,2.75-4.14h.18c1.69,3,3.67,7.55,3.67,11.17a10.94,10.94,0,0,1-2.57,6.81c-1.65,1.65-4.25,2.2-9.85,2.2h-.44a2.35,2.35,0,0,1-2.56-2.45,2.28,2.28,0,0,1,2.56-2.24Zm3.59,19.3c-1.5-1.42-2.82-2.6-4.28-3.81a34,34,0,0,1,2.89-3.47,35.18,35.18,0,0,1,4.18,3.91A19.21,19.21,0,0,1,334.54,1179.5Zm7.07-.47c-1.5-1.43-2.82-2.6-4.28-3.81a31.94,31.94,0,0,1,2.89-3.48,33.7,33.7,0,0,1,4.17,3.92A19.13,19.13,0,0,1,341.61,1179Z" transform="translate(-84.28 -17.36)" style="fill:#fff"/><path d="M361,1173.83a18.27,18.27,0,0,1-1.42,2.49,37.73,37.73,0,0,0-9.53,2.74L350,1179l.88-1.53a4.47,4.47,0,0,1,1.68-1.21v-.11c-1.72-.51-2.85-1.61-2.85-3.19a5,5,0,0,1,1.72-3.22,6.92,6.92,0,0,1,4.43-2.09c1.46,0,2.31.84,2.31,1.8a3.83,3.83,0,0,1-1.17,2.38h-.08c-.4-.81-.77-1.32-1.17-1.43a4.39,4.39,0,0,0-1.13-.11c-1.29,0-2.57.73-2.57,1.28,0,1.76,3.08,2.34,5.24,2.34,1.24,0,2.49-.07,3.73-.14Zm-7.39-8.32a49,49,0,0,0,.4-7.32v-3.59c0-6.7-.73-16.44-1.32-22.78a33.58,33.58,0,0,1,3.59-3.88l.33.11c.77,8,1,17.25,1,25.78a55.87,55.87,0,0,1-.26,6c-.1,2-1.09,3.56-3.22,5.9Z" transform="translate(-84.28 -17.36)" style="fill:#fff"/><path d="M378.71,1161.05c-4.29,0-8-2-8-6.89a10,10,0,0,1,2.35-6.3c1.68-1.83,3.51-3,5.24-3,2.12,0,4.1,1.5,5.53,4.14a21.13,21.13,0,0,1,2.34,10.07,17.3,17.3,0,0,1-2.78,9.63c-3.26,4.95-6.38,7-9.42,7a18.53,18.53,0,0,1-10.51-3.59l.55-1.17a11.42,11.42,0,0,0,5.35,1.25c3.7,0,7.4-1.87,10.77-5.61,1.64-1.79,3.18-4,3.44-6.11A18.16,18.16,0,0,1,378.71,1161.05Zm-1.61-11.61c-1.72,0-4.1,1.9-4.1,3.26,0,2.27,3.22,3.88,6.22,3.88a17.3,17.3,0,0,0,4.14-.48C382.37,1152.4,380.25,1149.44,377.1,1149.44Z" transform="translate(-84.28 -17.36)" style="fill:#fff"/><path d="M115.67,288.3c-4,0-6,1.68-6,2.71,0,3.8,2.68,10.83,4.69,18.53a14.5,14.5,0,0,1,.44,3.25,22,22,0,0,1-.84,5.39l-.88-.11c-.07-4.32-3-11.68-5.35-19.34a17.69,17.69,0,0,1-.69-4.21,13.07,13.07,0,0,1,1-4.83,9.62,9.62,0,0,1,3.3-4.76,29.13,29.13,0,0,1-.55-4.76,7,7,0,0,1,2-4.4,5.16,5.16,0,0,1,3.4-1.5,7.06,7.06,0,0,1,4.62,1.61,22.65,22.65,0,0,1,5.6,7.14,6.28,6.28,0,0,1,.48,2.35,9.46,9.46,0,0,1-1.25,3.88A64.56,64.56,0,0,0,115.67,288.3Zm7.32-4.18c-2.08-2.78-4.32-5.49-7.8-5.49a6.73,6.73,0,0,0-2.23.4l.11,1.9a18.41,18.41,0,0,1-.92,3.52,16.46,16.46,0,0,1,5-.66,30.45,30.45,0,0,1,5.72.73Z" transform="translate(-84.28 -17.36)" style="fill:#8fc4ff"/><path d="M153.32,289.91v4.68h-3a17.11,17.11,0,0,1-2.79,7.51c-2.82,4.29-6.88,6.26-8.82,6.26-3.33,0-7-1.53-10.55-3.7l.62-1.2a11.14,11.14,0,0,0,5.39,1.31c3.7,0,7-1.83,10.18-5,1.76-1.79,3-3.26,3.44-5.13H146c-7.48,0-11.28-2.38-11.28-7.5a9.94,9.94,0,0,1,1.86-5.9c1.4-2,3.34-3.51,5.64-3.51,3.37,0,6.85,4.72,7.88,12.23ZM145,284.56a5.32,5.32,0,0,0-3.88-2.05c-2.05,0-4.14,1.76-4.14,3.22,0,1.87,1.72,3,4,3.63a25.26,25.26,0,0,0,6.59.55A11.26,11.26,0,0,0,145,284.56Z" transform="translate(-84.28 -17.36)" style="fill:#8fc4ff"/><path d="M154.12,289.91c2.82,0,5.75-1.14,6.3-3.23l1.06-3.95L164,280.9l.22.25a20,20,0,0,0-.81,4.25,3.63,3.63,0,0,0,1.21,3,6.84,6.84,0,0,0,4.54,1.47h.66v4.68H169c-3.59,0-6.3-1-7.54-3.73h-.15c-1.25,2.45-4.14,3.73-7.29,3.73h-.69a2.35,2.35,0,0,1-2.57-2.45,2.28,2.28,0,0,1,2.57-2.23Zm4.14,19.3c-1.5-1.43-2.82-2.6-4.28-3.81a31.94,31.94,0,0,1,2.89-3.48,33.7,33.7,0,0,1,4.17,3.92A19.5,19.5,0,0,1,158.26,309.21Zm7.07-.48c-1.5-1.43-2.82-2.6-4.29-3.81a33.13,33.13,0,0,1,2.9-3.48,34.42,34.42,0,0,1,4.17,3.92A19.2,19.2,0,0,1,165.33,308.73Z" transform="translate(-84.28 -17.36)" style="fill:#8fc4ff"/><path d="M170.64,289.91a8.26,8.26,0,0,0,4.1-1,4.17,4.17,0,0,0,1.94-4c-.07-5.86-.48-12.27-1.06-19-.15-1.69-.37-3.23-.37-4.58a3.69,3.69,0,0,1,1.1-2.45,16.68,16.68,0,0,1,2-2l.25.18c-.07,2.38,1.06,5.24,3,8.39a21.26,21.26,0,0,1-2.31,1.87c.15,4.21.48,8.64.48,12.71s-.41,7-1.47,9.19c-.77,1.86-1.65,3.4-3.33,4.25a10.53,10.53,0,0,1-4.58,1.09h-.55a2.35,2.35,0,0,1-2.56-2.45,2.27,2.27,0,0,1,2.56-2.23Z" transform="translate(-84.28 -17.36)" style="fill:#8fc4ff"/><path d="M187.92,295.22a47.9,47.9,0,0,0,.41-7.33V284.3c0-6.7-.74-16.44-1.32-22.77a32.83,32.83,0,0,1,3.59-3.89l.33.11c.77,8,.95,17.25.95,25.78a56.07,56.07,0,0,1-.26,6.05c-.11,2-1.1,3.55-3.22,5.89Z" transform="translate(-84.28 -17.36)" style="fill:#8fc4ff"/><path d="M239.67,282.22a15.53,15.53,0,0,1-3.81.4c-4,0-7-1-8.17-3.66a6.05,6.05,0,0,1-.51-2.49,9.9,9.9,0,0,1,2.56-6.78,6.34,6.34,0,0,1,4.44-2.27c2.78,0,5,2.6,6.59,6.78a25.07,25.07,0,0,1,1.39,8.6,9,9,0,0,1-1.69,5.2c3.45,1.14,3.89,2.2,3.89,4.84a9.37,9.37,0,0,1-1,4.17,13.87,13.87,0,0,1-4.51,4.36,21.3,21.3,0,0,1-12.52,3.92,13.16,13.16,0,0,1-9.08-3.48,13.68,13.68,0,0,1-3.78-9.78,27.94,27.94,0,0,1,2.42-11.5l1.47.55a22.28,22.28,0,0,0-1.39,7.69A12.17,12.17,0,0,0,218.1,296a10.84,10.84,0,0,0,8.68,4.17,20.33,20.33,0,0,0,10.58-2.71,15.51,15.51,0,0,0,4.84-3.73c0-1.4-6.71-2.71-13-2.71l-.14-.26,1.61-3.77c6-.7,9.12-1.72,9.12-3.63C239.78,283,239.71,282.69,239.67,282.22Zm-14.32,34.27c-1.5-1.42-2.82-2.6-4.28-3.81a32.75,32.75,0,0,1,2.89-3.47,35.12,35.12,0,0,1,4.17,3.91A18.77,18.77,0,0,1,225.35,316.49Zm7.07-.47c-1.5-1.43-2.82-2.6-4.29-3.81a33.13,33.13,0,0,1,2.9-3.48,34.42,34.42,0,0,1,4.17,3.92A19.57,19.57,0,0,1,232.42,316Zm-.26-59.91a32.76,32.76,0,0,1,4.4,3.91,15,15,0,0,1-3,3.59c-1.43-1.35-2.86-2.52-4.33-3.77C230.18,258.52,231.17,257.24,232.16,256.11Zm1.25,15.82c-2.2,0-4.18,1.79-4.18,3.22,0,1.83,3.52,3.18,7,3.18a21.24,21.24,0,0,0,3-.14C237.87,274.09,235.9,271.93,233.41,271.93Z" transform="translate(-84.28 -17.36)" style="fill:#8fc4ff"/><path d="M271.9,291.11c-3.85,0-6.67-1.35-6.67-4.28a11,11,0,0,1,1.17-4.28c1.47-3.19,5.42-6.6,11.72-10.08l-.22-2.74a33.07,33.07,0,0,1,2.89-3h.41c.14,5.67.18,11.38.22,17.06,0,2.49.29,4.21,1.39,5.16a5.88,5.88,0,0,0,3.84,1h.88v4.68h-.8c-3.59,0-6.19-.95-7.58-5.09A17.45,17.45,0,0,1,271.9,291.11Zm6.48-14.57c-6.52,3.37-9.93,6.08-9.93,8,0,1.43,2.2,2.05,4.69,2.05a17.71,17.71,0,0,0,5.42-1Zm-4.32-13c-1.5-1.43-2.82-2.6-4.29-3.81a32,32,0,0,1,2.9-3.48,34.42,34.42,0,0,1,4.17,3.92A20.46,20.46,0,0,1,274.06,263.58Zm7.06-.48c-1.5-1.43-2.82-2.6-4.28-3.81a33.12,33.12,0,0,1,2.89-3.48,34.48,34.48,0,0,1,4.18,3.92A19.21,19.21,0,0,1,281.12,263.1Z" transform="translate(-84.28 -17.36)" style="fill:#8fc4ff"/><path d="M288.27,289.91a9.37,9.37,0,0,0,4.24-1.14c1.1-.62,1.76-1.79,1.76-4.39,0-7.36-.4-14-.95-22.38l-.11-1.83,3.26-3.3.18.08c.7,8.6.73,17.58.73,28.78,0,1.69,1.18,4.18,5.42,4.18h.48v4.68h-.77c-3.41,0-6-1.17-7.14-3.88h-.15a7.71,7.71,0,0,1-7.06,3.88h-.63a2.35,2.35,0,0,1-2.56-2.45,2.28,2.28,0,0,1,2.56-2.23Z" transform="translate(-84.28 -17.36)" style="fill:#8fc4ff"/><path d="M304.09,289.91c2.71,0,4.83-1.87,6.15-6.49A11.14,11.14,0,0,1,313,279a6.85,6.85,0,0,1,4.61-2.12c4.47,0,7.11,6.15,7.69,12.56-.77,3.33-2.12,4.72-3.88,4.72-3.62,0-7.25-1.64-10.88-4.32h-.25a6,6,0,0,1-6.34,4.76h-.62a2.35,2.35,0,0,1-2.56-2.45,2.27,2.27,0,0,1,2.56-2.23Zm12.81-1.47a11.49,11.49,0,0,0,4.36,1.06c.55,0,1-.07,1.17-.4-1.06-5.53-3.48-8-5.78-8-2.09,0-3.85,1.17-4.91,3.59A11.18,11.18,0,0,0,316.9,288.44Z" transform="translate(-84.28 -17.36)" style="fill:#8fc4ff"/><path d="M341.07,294.59h-.4c-2.89,0-4.76-.58-6.26-2.08-2.24-2.27-2.27-4.87-2.27-10.26,0-7-.41-14.24-.95-22a32.87,32.87,0,0,1,3.44-3.4l.25.14c.59,8,.59,17.51.59,26.52v2.09a3.81,3.81,0,0,0,2.75,3.91,7.38,7.38,0,0,0,2.34.41h.51Z" transform="translate(-84.28 -17.36)" style="fill:#8fc4ff"/><path d="M342.61,289.91a20.69,20.69,0,0,0,9.6-1.83v-.15a53.53,53.53,0,0,1-5.13-4.73,5.12,5.12,0,0,0-2.53-1.53h-1.13l-.11-.08,1.42-4.21,1.14-.14a45.69,45.69,0,0,1,9.82-1.21,27.92,27.92,0,0,1,10.61,1.83l-1.28,4-6.37,5.9v.14a17.36,17.36,0,0,0,8.35,2h1.47v4.68h-1.1a20.58,20.58,0,0,1-12.2-4.28H355a20.39,20.39,0,0,1-12.81,4.28h-1.14a2.35,2.35,0,0,1-2.56-2.45,2.28,2.28,0,0,1,2.56-2.23Zm13.29-3.59a59.25,59.25,0,0,0,6.74-5.46v-.15a29.23,29.23,0,0,0-6.81-.91,36.83,36.83,0,0,0-6.77.66v.14c.66.59,1.39,1.36,2.16,2.09a42.6,42.6,0,0,0,4.54,3.63Z" transform="translate(-84.28 -17.36)" style="fill:#8fc4ff"/><path d="M369.27,289.91c2.71,0,4.83-1.87,6.15-6.49a11.38,11.38,0,0,1,2.71-4.43,6.9,6.9,0,0,1,4.62-2.12c4.47,0,7.1,6.15,7.69,12.56-.77,3.33-2.13,4.72-3.88,4.72-3.63,0-7.25-1.64-10.88-4.32h-.26a6,6,0,0,1-6.33,4.76h-.62a2.35,2.35,0,0,1-2.57-2.45,2.28,2.28,0,0,1,2.57-2.23Zm12.82-1.47a11.44,11.44,0,0,0,4.36,1.06c.55,0,1-.07,1.17-.4-1.06-5.53-3.48-8-5.79-8-2.09,0-3.84,1.17-4.9,3.59A11.08,11.08,0,0,0,382.09,288.44Z" transform="translate(-84.28 -17.36)" style="fill:#8fc4ff"/><path d="M298.85,354.59h-.7c-3.29,0-6-1.39-7.47-6h-.18a5.18,5.18,0,0,1-2.64,3.52,14.52,14.52,0,0,1-7.36,2.45c-4.1,0-6.37-2.49-6.37-6.77,0-.92,0-1.8.11-2.71l1.43-.11c.14,3,1.64,4.91,5.16,4.91a13.16,13.16,0,0,0,6-1.83c1.35-.77,2.38-1.87,2.38-2.75,0-2.49-1.32-7.36-3-13.62.84-1.29,1.65-2.6,2.6-3.78l.22.15c1.36,5.27,2.49,10.91,3.48,16.3.66,3.62,3,5.53,5.79,5.53h.62Z" transform="translate(-84.28 -17.36)" style="fill:#8fc4ff"/><path d="M301.08,349.91c5.94,0,12-2.09,19.56-6.63l0-.15a34.5,34.5,0,0,0-11.49-2.56,5.9,5.9,0,0,0-4.66,1.83l.44,1.83-1.1,3.3h-.36l-1.8-4.84c.3-4.06,3.56-6.59,7.95-6.59,2.45,0,6.3.88,12,3.19a18.42,18.42,0,0,0,6.27,1.17l3,0,.11.07-1.94,3.85a11.31,11.31,0,0,0-6.33,1.36l-6.12,4a28.64,28.64,0,0,1-15.86,4.9h-1.9a2.35,2.35,0,0,1-2.57-2.45,2.28,2.28,0,0,1,2.57-2.23Z" transform="translate(-84.28 -17.36)" style="fill:#8fc4ff"/><path d="M337.12,355.22a49.22,49.22,0,0,0,.4-7.33V344.3c0-6.7-.73-16.44-1.32-22.77a34.61,34.61,0,0,1,3.59-3.89l.33.11c.77,8,.95,17.25.95,25.78a59.06,59.06,0,0,1-.25,6.05c-.11,2-1.1,3.55-3.23,5.89Z" transform="translate(-84.28 -17.36)" style="fill:#8fc4ff"/><path d="M367.44,349.91v4.68h-3a17.09,17.09,0,0,1-2.78,7.51c-2.82,4.29-6.89,6.26-8.83,6.26-3.33,0-7-1.53-10.55-3.7l.63-1.2a11.07,11.07,0,0,0,5.38,1.31c3.7,0,7-1.83,10.18-5,1.76-1.79,3-3.26,3.44-5.13h-1.79c-7.47,0-11.28-2.38-11.28-7.5a9.88,9.88,0,0,1,1.87-5.9c1.39-2,3.33-3.51,5.64-3.51,3.37,0,6.84,4.72,7.87,12.23Zm-8.31-5.35a5.36,5.36,0,0,0-3.89-2.05c-2.05,0-4.13,1.76-4.13,3.22,0,1.87,1.72,3,4,3.63a25.26,25.26,0,0,0,6.59.55A11.25,11.25,0,0,0,359.13,344.56Z" transform="translate(-84.28 -17.36)" style="fill:#8fc4ff"/><path d="M368.24,349.91a8.29,8.29,0,0,0,4.11-1,4.17,4.17,0,0,0,1.94-4c-.08-5.86-.48-12.27-1.06-19-.15-1.69-.37-3.23-.37-4.58a3.69,3.69,0,0,1,1.1-2.45,17.28,17.28,0,0,1,2-2l.26.18c-.08,2.38,1.06,5.24,3,8.39a21.09,21.09,0,0,1-2.3,1.87c.14,4.21.47,8.64.47,12.71s-.4,7-1.46,9.19c-.77,1.86-1.65,3.4-3.33,4.25a10.53,10.53,0,0,1-4.58,1.09h-.55a2.35,2.35,0,0,1-2.56-2.45,2.27,2.27,0,0,1,2.56-2.23Z" transform="translate(-84.28 -17.36)" style="fill:#8fc4ff"/><path d="M385.53,355.22a47.91,47.91,0,0,0,.4-7.33V344.3c0-6.7-.73-16.44-1.32-22.77a34.61,34.61,0,0,1,3.59-3.89l.33.11c.77,8,1,17.25,1,25.78a59.06,59.06,0,0,1-.25,6.05c-.11,2-1.1,3.55-3.22,5.89Z" transform="translate(-84.28 -17.36)" style="fill:#8fc4ff"/></svg>