<svg width="540" height="540" viewBox="0 0 540 540" fill="none" xmlns="http://www.w3.org/2000/svg">
<rect width="540" height="540" fill="black" fill-opacity="0"/>
<g opacity="0.6">
<path fill-rule="evenodd" clip-rule="evenodd" d="M270.223 0C120.795 0 0 123.755 0 276.845C0 399.225 77.3983 502.812 184.772 539.48C198.193 542.23 203.115 533.522 203.115 526.188C203.115 519.771 202.667 497.77 202.667 474.853C127.506 491.353 111.847 441.851 111.847 441.851C99.7678 409.767 81.8722 401.516 81.8722 401.516C57.2658 384.557 83.6618 384.557 83.6618 384.557C110.953 386.391 125.269 412.975 125.269 412.975C149.428 455.143 188.351 443.226 204.009 435.893C206.246 418.017 213.405 405.641 221.01 398.766C161.06 392.349 97.9782 368.515 97.9782 262.177C97.9782 231.926 108.716 207.175 125.716 187.924C123.032 181.049 113.637 152.631 128.401 114.588C128.401 114.588 151.218 107.254 202.667 143.006C224.142 137.047 247.406 133.839 270.223 133.839C293.04 133.839 316.304 137.047 337.779 143.006C389.229 107.254 412.045 114.588 412.045 114.588C426.809 152.631 417.414 181.049 414.73 187.924C432.178 207.175 442.468 231.926 442.468 262.177C442.468 368.515 379.386 391.891 318.989 398.766C328.831 407.475 337.331 423.976 337.331 450.102C337.331 487.228 336.884 517.021 336.884 526.188C336.884 533.522 341.805 542.23 355.227 539.48C462.6 502.812 539.999 399.225 539.999 276.845C540.446 123.755 419.204 0 270.223 0Z" fill="#0051AC"/>
<path fill-rule="evenodd" clip-rule="evenodd" d="M270.223 0C120.795 0 0 123.755 0 276.845C0 399.225 77.3983 502.812 184.772 539.48C198.193 542.23 203.115 533.522 203.115 526.188C203.115 519.771 202.667 497.77 202.667 474.853C127.506 491.353 111.847 441.851 111.847 441.851C99.7678 409.767 81.8722 401.516 81.8722 401.516C57.2658 384.557 83.6618 384.557 83.6618 384.557C110.953 386.391 125.269 412.975 125.269 412.975C149.428 455.143 188.351 443.226 204.009 435.893C206.246 418.017 213.405 405.641 221.01 398.766C161.06 392.349 97.9782 368.515 97.9782 262.177C97.9782 231.926 108.716 207.175 125.716 187.924C123.032 181.049 113.637 152.631 128.401 114.588C128.401 114.588 151.218 107.254 202.667 143.006C224.142 137.047 247.406 133.839 270.223 133.839C293.04 133.839 316.304 137.047 337.779 143.006C389.229 107.254 412.045 114.588 412.045 114.588C426.809 152.631 417.414 181.049 414.73 187.924C432.178 207.175 442.468 231.926 442.468 262.177C442.468 368.515 379.386 391.891 318.989 398.766C328.831 407.475 337.331 423.976 337.331 450.102C337.331 487.228 336.884 517.021 336.884 526.188C336.884 533.522 341.805 542.23 355.227 539.48C462.6 502.812 539.999 399.225 539.999 276.845C540.446 123.755 419.204 0 270.223 0Z" fill="url(#paint0_linear)"/>
</g>
<g opacity="0.6">
<path d="M102.453 397.391C102.005 398.766 99.7683 399.225 97.9788 398.308C96.1892 397.391 94.8471 395.558 95.7418 394.183C96.1892 392.808 98.4262 392.35 100.216 393.266C102.005 394.183 102.9 396.016 102.453 397.391Z" fill="#0051AC"/>
<path d="M102.453 397.391C102.005 398.766 99.7683 399.225 97.9788 398.308C96.1892 397.391 94.8471 395.558 95.7418 394.183C96.1892 392.808 98.4262 392.35 100.216 393.266C102.005 394.183 102.9 396.016 102.453 397.391Z" fill="url(#paint1_linear)"/>
</g>
<g opacity="0.6">
<path d="M113.192 409.767C111.85 411.142 109.166 410.226 107.824 408.392C106.034 406.559 105.587 403.809 106.929 402.434C108.271 401.059 110.508 401.975 112.298 403.809C114.087 406.1 114.534 408.851 113.192 409.767Z" fill="#0051AC"/>
<path d="M113.192 409.767C111.85 411.142 109.166 410.226 107.824 408.392C106.034 406.559 105.587 403.809 106.929 402.434C108.271 401.059 110.508 401.975 112.298 403.809C114.087 406.1 114.534 408.851 113.192 409.767Z" fill="url(#paint2_linear)"/>
</g>
<g opacity="0.6">
<path d="M123.93 425.809C122.14 427.184 119.456 425.809 118.114 423.517C116.324 421.225 116.324 418.017 118.114 417.1C119.903 415.725 122.588 417.1 123.93 419.392C125.719 421.684 125.719 424.434 123.93 425.809Z" fill="#0051AC"/>
<path d="M123.93 425.809C122.14 427.184 119.456 425.809 118.114 423.517C116.324 421.225 116.324 418.017 118.114 417.1C119.903 415.725 122.588 417.1 123.93 419.392C125.719 421.684 125.719 424.434 123.93 425.809Z" fill="url(#paint3_linear)"/>
</g>
<g opacity="0.6">
<path d="M138.691 441.393C137.349 443.226 134.217 442.768 131.532 440.476C129.295 438.184 128.401 434.976 130.19 433.601C131.532 431.767 134.664 432.226 137.349 434.517C139.585 436.351 140.033 439.559 138.691 441.393Z" fill="#0051AC"/>
<path d="M138.691 441.393C137.349 443.226 134.217 442.768 131.532 440.476C129.295 438.184 128.401 434.976 130.19 433.601C131.532 431.767 134.664 432.226 137.349 434.517C139.585 436.351 140.033 439.559 138.691 441.393Z" fill="url(#paint4_linear)"/>
</g>
<g opacity="0.6">
<path d="M158.825 450.101C158.378 452.393 155.246 453.309 152.114 452.393C148.982 451.476 147.193 448.726 147.64 446.893C148.088 444.601 151.219 443.684 154.351 444.601C157.483 445.517 159.272 447.809 158.825 450.101Z" fill="#0051AC"/>
<path d="M158.825 450.101C158.378 452.393 155.246 453.309 152.114 452.393C148.982 451.476 147.193 448.726 147.64 446.893C148.088 444.601 151.219 443.684 154.351 444.601C157.483 445.517 159.272 447.809 158.825 450.101Z" fill="url(#paint5_linear)"/>
</g>
<g opacity="0.6">
<path d="M180.742 451.935C180.742 454.227 178.057 456.06 174.925 456.06C171.794 456.06 169.109 454.227 169.109 451.935C169.109 449.643 171.794 447.81 174.925 447.81C178.057 447.81 180.742 449.643 180.742 451.935Z" fill="#0051AC"/>
<path d="M180.742 451.935C180.742 454.227 178.057 456.06 174.925 456.06C171.794 456.06 169.109 454.227 169.109 451.935C169.109 449.643 171.794 447.81 174.925 447.81C178.057 447.81 180.742 449.643 180.742 451.935Z" fill="url(#paint6_linear)"/>
</g>
<g opacity="0.6">
<path d="M201.32 448.269C201.767 450.561 199.53 452.852 196.399 453.311C193.267 453.769 190.583 452.394 190.135 450.102C189.688 447.811 191.925 445.519 195.056 445.06C198.188 444.602 200.872 445.977 201.32 448.269Z" fill="#0051AC"/>
<path d="M201.32 448.269C201.767 450.561 199.53 452.852 196.399 453.311C193.267 453.769 190.583 452.394 190.135 450.102C189.688 447.811 191.925 445.519 195.056 445.06C198.188 444.602 200.872 445.977 201.32 448.269Z" fill="url(#paint7_linear)"/>
</g>
<defs>
<linearGradient id="paint0_linear" x1="270" y1="0" x2="270" y2="540" gradientUnits="userSpaceOnUse">
<stop stop-color="#03081C" stop-opacity="0.25"/>
<stop offset="1" stop-color="#04091E" stop-opacity="0"/>
</linearGradient>
<linearGradient id="paint1_linear" x1="99.0119" y1="392.789" x2="99.0119" y2="398.785" gradientUnits="userSpaceOnUse">
<stop stop-color="#03081C" stop-opacity="0.25"/>
<stop offset="1" stop-color="#04091E" stop-opacity="0"/>
</linearGradient>
<linearGradient id="paint2_linear" x1="110.061" y1="401.772" x2="110.061" y2="410.429" gradientUnits="userSpaceOnUse">
<stop stop-color="#03081C" stop-opacity="0.25"/>
<stop offset="1" stop-color="#04091E" stop-opacity="0"/>
</linearGradient>
<linearGradient id="paint3_linear" x1="121.022" y1="416.552" x2="121.022" y2="426.357" gradientUnits="userSpaceOnUse">
<stop stop-color="#03081C" stop-opacity="0.25"/>
<stop offset="1" stop-color="#04091E" stop-opacity="0"/>
</linearGradient>
<linearGradient id="paint4_linear" x1="134.342" y1="432.469" x2="134.342" y2="442.524" gradientUnits="userSpaceOnUse">
<stop stop-color="#03081C" stop-opacity="0.25"/>
<stop offset="1" stop-color="#04091E" stop-opacity="0"/>
</linearGradient>
<linearGradient id="paint5_linear" x1="153.233" y1="444.25" x2="153.233" y2="452.744" gradientUnits="userSpaceOnUse">
<stop stop-color="#03081C" stop-opacity="0.25"/>
<stop offset="1" stop-color="#04091E" stop-opacity="0"/>
</linearGradient>
<linearGradient id="paint6_linear" x1="174.925" y1="447.81" x2="174.925" y2="456.06" gradientUnits="userSpaceOnUse">
<stop stop-color="#03081C" stop-opacity="0.25"/>
<stop offset="1" stop-color="#04091E" stop-opacity="0"/>
</linearGradient>
<linearGradient id="paint7_linear" x1="195.727" y1="444.973" x2="195.727" y2="453.399" gradientUnits="userSpaceOnUse">
<stop stop-color="#03081C" stop-opacity="0.25"/>
<stop offset="1" stop-color="#04091E" stop-opacity="0"/>
</linearGradient>
</defs>
</svg>
