<svg xmlns="http://www.w3.org/2000/svg" width="835.687" height="632.628" viewBox="0 0 278.562 210.876">
  <metadata><?xpacket begin="﻿" id="W5M0MpCehiHzreSzNTczkc9d"?>
<x:xmpmeta xmlns:x="adobe:ns:meta/" x:xmptk="Adobe XMP Core 5.6-c140 79.160451, 2017/05/06-01:08:21        ">
   <rdf:RDF xmlns:rdf="http://www.w3.org/1999/02/22-rdf-syntax-ns#">
      <rdf:Description rdf:about=""/>
   </rdf:RDF>
</x:xmpmeta>





















<?xpacket end="w"?></metadata>
<defs>
    <style>
      .cls-1 {
        fill: #8fc4ff;
        fill-rule: evenodd;
      }
    </style>
  </defs>
  <path class="cls-1" d="M311.611,390.307l6.586-33.891a3.007,3.007,0,0,0-3.026-3.757H270.489l6.968-35.852a3.007,3.007,0,0,0-3.026-3.757H231.969a7.955,7.955,0,0,0-7.459,6.246L209.5,396.553H157.034l15.5-79.746a3.006,3.006,0,0,0-3.025-3.757H127.043a7.954,7.954,0,0,0-7.458,6.246L113.1,352.659H71.167a7.954,7.954,0,0,0-7.459,6.247L57.122,392.8a3.006,3.006,0,0,0,3.026,3.756h44.424l-8.53,43.894H53.848a7.954,7.954,0,0,0-7.459,6.246L39.8,480.584a3.006,3.006,0,0,0,3.026,3.757H87.511l-6.968,35.853a3.006,3.006,0,0,0,3.026,3.756h42.462a7.955,7.955,0,0,0,7.459-6.246L148.5,440.447h52.463l-15.5,79.747a3.006,3.006,0,0,0,3.025,3.756h42.463a7.954,7.954,0,0,0,7.458-6.246l6.484-33.363h42.192a7.954,7.954,0,0,0,7.459-6.247l6.586-33.891a3.005,3.005,0,0,0-3.025-3.756H253.429l8.53-43.894h42.193A7.954,7.954,0,0,0,311.611,390.307Z" transform="translate(-39.719 -313.062)"/>
</svg>
