<svg width="31" height="31" viewBox="0 0 31 31" fill="none" xmlns="http://www.w3.org/2000/svg">
<path d="M21.157 1.05682C19.3371 0.352273 17.4585 0 15.5799 0C13.4665 0 11.2944 0.410985 9.29844 1.29167C5.48257 2.93561 2.54729 5.98864 1.07965 9.86364C-0.38799 13.7386 -0.38799 17.9072 1.25577 21.7235C1.84282 23.0739 2.606 24.3068 3.48658 25.4223C5.13034 27.4186 7.24374 29.0038 9.76808 29.9432C11.588 30.6477 13.5252 31 15.4625 31C17.5759 31 19.6893 30.589 21.6266 29.7083C23.7987 28.7689 25.6773 27.3598 27.2036 25.5985C27.2036 25.5985 27.2624 25.5985 27.2624 25.5398C27.2624 25.5398 27.2624 25.4811 27.3211 25.4811C28.3778 24.1894 29.2583 22.7803 29.9041 21.1364C31.4305 17.2614 31.3717 13.0341 29.6693 9.27652C28.0842 5.51894 25.0315 2.58333 21.157 1.05682ZM30.1389 15.2064L23.74 15.1477C23.6813 12.858 23.2704 10.803 22.5659 9.04167C24.5032 8.27841 26.0295 7.2803 26.9688 6.45833C27.732 7.45644 28.4365 8.51326 28.9061 9.6875C29.6693 11.4489 30.0802 13.3277 30.1389 15.2064ZM16.0496 1.35038C17.2824 2.4072 19.8067 4.81439 21.3918 8.51326C19.8654 9.04167 18.0456 9.39394 15.9909 9.45265L16.0496 1.35038ZM15.1103 9.45265C13.0556 9.39394 11.2357 8.98295 9.65067 8.39583C11.2944 4.75568 13.8775 2.34848 15.169 1.35038L15.1103 9.45265ZM15.1103 10.3333V10.9792L15.0516 15.089L10.8248 15.0303H8.12432C8.18303 12.858 8.65267 10.9205 9.29844 9.2178C10.9422 9.80492 12.8795 10.2746 15.1103 10.3333ZM10.8248 15.911L15.0516 15.9697L14.9929 20.5492C12.8208 20.608 10.8835 21.0189 9.18102 21.6061C8.30044 19.0814 8.12432 16.8504 8.06562 15.911H10.8248ZM14.9929 21.4299L14.9342 29.7083C12.175 27.536 10.5313 24.8352 9.53326 22.428C11.1183 21.8409 12.9382 21.4886 14.9929 21.4299ZM15.8735 21.4299C17.9282 21.4886 19.748 21.8996 21.3331 22.4867C19.6893 26.1856 17.1063 28.6515 15.8148 29.7083L15.8735 21.4299ZM15.8735 20.5492L15.9322 15.9697L22.8007 16.0284C22.742 18.142 22.2724 20.0208 21.6853 21.7235C20.0416 21.0777 18.1043 20.608 15.8735 20.5492ZM15.9322 15.089L15.9909 10.9792V10.3333C18.163 10.2746 20.1003 9.92235 21.744 9.33523C22.3898 11.0379 22.8007 12.9754 22.8594 15.1477L15.9322 15.089ZM26.3818 5.75379C25.4425 6.51705 24.0335 7.45644 22.2137 8.16098C20.6873 4.57955 18.3391 2.17235 16.9302 0.939394C18.2804 1.05682 19.5719 1.40909 20.8634 1.87879C22.9768 2.75947 24.8554 4.05114 26.3818 5.75379ZM9.65067 2.11364C11.1183 1.4678 12.7034 1.05682 14.2297 0.939394C12.8208 2.17235 10.4138 4.57955 8.82879 8.10227C7.00892 7.33902 5.59998 6.39962 4.7194 5.63636C6.06963 4.10985 7.77209 2.93561 9.65067 2.11364ZM1.84282 10.1572C2.42988 8.74811 3.19305 7.39773 4.13234 6.2822C5.07163 7.10417 6.53927 8.10227 8.47656 8.92424C7.77209 10.6856 7.30245 12.7405 7.24374 15.0303L0.844828 14.9716C0.903534 13.3277 1.25577 11.7424 1.84282 10.1572ZM0.844828 15.8523L7.24374 15.911C7.30245 16.9091 7.47856 19.1989 8.41785 21.8996C6.36316 22.7216 4.89552 23.7784 3.95623 24.483C3.19305 23.5436 2.54729 22.4867 2.07765 21.3712C1.31447 19.6098 0.903534 17.7311 0.844828 15.8523ZM4.48458 25.1875C5.36516 24.483 6.77409 23.5436 8.71138 22.7216C9.70938 25.1875 11.2944 27.8295 13.9949 30.0606C12.7034 29.9432 11.3531 29.5909 10.1203 29.1212C7.94821 28.2992 6.01092 26.8902 4.48458 25.1875ZM21.3331 28.9451C19.8654 29.5909 18.2804 30.0019 16.6953 30.1193C18.1043 28.8864 20.5699 26.4205 22.155 22.839C24.0335 23.661 25.5012 24.6591 26.3231 25.3636C24.9728 26.8314 23.2704 28.1231 21.3331 28.9451ZM29.0822 20.9015C28.5539 22.3106 27.7907 23.5436 26.9101 24.7178C26.0295 24.0133 24.5032 22.9564 22.5072 22.0758C23.2117 20.3144 23.6226 18.3182 23.74 16.0871L30.1389 16.1458C30.0802 17.6723 29.728 19.3163 29.0822 20.9015Z" fill="white"/>
</svg>
