<svg width="71" height="76" viewBox="0 0 71 76" fill="none" xmlns="http://www.w3.org/2000/svg">
<g filter="url(#filter0_d)">
<path d="M38.7597 28.1977C37.0186 27.1878 34.8411 27.4861 33.4417 28.7996C33.0619 29.156 32.4938 29.2968 32.0426 29.0367L22.8912 23.7603C22.2401 23.3849 22.2203 22.4524 22.8549 22.0497L31.6449 16.471C32.1216 16.1685 32.7473 16.3311 33.1371 16.7395C33.9998 17.6434 35.1889 18.1271 36.4183 18.1271C36.5089 18.1271 36.5995 18.1245 36.6896 18.1194C37.2598 18.0868 37.8509 18.3922 37.9779 18.9491C38.2715 20.2369 38.4345 21.5331 38.4345 22.8701C38.4345 23.5847 38.3694 24.2994 38.3044 25.0141C38.3044 25.274 38.4345 25.5339 38.6946 25.5339H38.7597C39.0198 25.5339 39.2149 25.339 39.2149 25.0791C39.2799 24.2994 39.345 23.5847 39.345 22.8051C39.345 21.0045 39.0901 19.2039 38.5804 17.5293C38.5726 17.5035 38.5919 17.4774 38.6189 17.4774C38.6259 17.4774 38.6328 17.4755 38.6389 17.472C40.7779 16.2348 41.4894 13.446 40.2555 11.3051C39.0215 9.1639 36.2307 8.44825 34.0857 9.67582C34.08 9.67905 34.0818 9.6805 34.0753 9.68085C34.0417 9.68264 33.9708 9.70259 33.9475 9.67834C31.5016 7.13232 28.427 5.40669 25.035 4.5636C24.9979 4.5544 24.9718 4.5212 24.9718 4.48305C24.9718 2.01412 22.9557 -9.6815e-10 20.4843 -9.6815e-10C18.0129 -9.6815e-10 15.9968 2.01412 15.9968 4.48305C15.9968 4.52116 15.9706 4.55429 15.9336 4.56333C12.4608 5.41103 9.30905 7.21301 6.85678 9.84321C6.8375 9.86389 6.82728 9.88051 6.80082 9.87054C6.7668 9.85772 6.74193 9.79936 6.71017 9.78165C4.5709 8.58876 1.80889 9.37299 0.583018 11.5C-0.00231365 12.6695 -0.132387 13.904 0.12776 15.0085C0.452944 16.178 1.16835 17.1525 2.27398 17.7373C2.98938 18.1271 3.70479 18.322 4.48523 18.322C4.87545 18.322 5.26567 18.2571 5.65589 18.1921C6.40915 18.004 7.06017 17.6116 7.60895 17.0888C7.9717 16.7433 8.51634 16.6247 8.95033 16.8749L18.1424 22.1747C18.7935 22.5501 18.8133 23.4826 18.1788 23.8854L9.40153 29.4559C8.92001 29.7615 8.28665 29.5924 7.89442 29.1784C6.97584 28.2088 5.65561 27.6991 4.34105 27.7973C3.77144 27.8398 3.18276 27.5428 3.05577 26.9859C2.76211 25.6982 2.59916 24.4019 2.59916 23.065C2.59916 22.5452 2.59916 21.9605 2.6642 21.4407C2.6642 21.1808 2.46909 20.9209 2.20894 20.9209C1.94879 20.9209 1.68864 21.1158 1.68864 21.3757C1.62361 21.9604 1.62361 22.5452 1.62361 23.1299C1.62361 24.9244 1.87672 26.7188 2.38295 28.3886C2.39336 28.4229 2.37633 28.4527 2.353 28.48C2.3406 28.4945 2.32867 28.5285 2.31219 28.5382C0.186853 29.7804 -0.517446 32.5598 0.713092 34.6949C1.29842 35.7345 2.27398 36.4492 3.44464 36.774C3.83486 36.904 4.22508 36.904 4.6153 36.904C5.3927 36.904 6.1701 36.7106 6.88321 36.3238C6.88871 36.3208 6.88691 36.3195 6.89316 36.3192C6.92688 36.3174 6.99796 36.2976 7.02136 36.322C9.46727 38.8678 12.5417 40.5933 15.9336 41.4364C15.9706 41.4456 15.9968 41.4788 15.9968 41.5169C15.9968 43.9859 18.0129 46 20.4843 46C22.9557 46 24.9718 43.9859 24.9718 41.5169C24.9718 41.4788 24.998 41.4457 25.035 41.4367C28.508 40.5889 31.6599 38.7868 34.1123 36.1563C34.1313 36.1359 34.141 36.1196 34.1671 36.1292C34.2015 36.1418 34.2271 36.2003 34.2595 36.2174C34.9604 36.5885 35.7203 36.774 36.4183 36.774C37.9792 36.774 39.5401 35.9294 40.3205 34.5C41.6863 32.161 40.9059 29.4322 38.7597 28.1977ZM36.4183 10.1356C37.654 10.1356 38.8247 10.7853 39.4751 11.8898C40.4506 13.5791 39.8653 15.7232 38.1743 16.7627C37.3288 17.2175 36.4183 17.3475 35.5078 17.1525C34.5973 16.8927 33.8169 16.3079 33.3616 15.5282C32.9063 14.6836 32.7763 13.774 32.9714 12.8644C33.2315 11.9548 33.8169 11.1751 34.5973 10.7203C35.1826 10.3305 35.833 10.1356 36.4183 10.1356ZM20.4843 1.03955C22.4354 1.03955 24.0613 2.59887 24.0613 4.61299C24.0613 6.56215 22.5004 8.18644 20.4843 8.18644C18.4682 8.18644 16.9073 6.62712 16.9073 4.61299C16.9723 2.59887 18.5332 1.03955 20.4843 1.03955ZM15.1575 5.86741C15.6871 5.69885 16.2281 6.03488 16.4777 6.53144C17.024 7.61818 17.9884 8.4697 19.1481 8.84493C19.6357 9.0027 20.029 9.42057 20.029 9.93305V19.3616C20.029 19.6215 20.2241 19.8164 20.4843 19.8164C20.7444 19.8164 20.9396 19.6215 20.9396 19.3616V9.93305C20.9396 9.42057 21.3329 9.0027 21.8205 8.84493C22.9847 8.46824 23.9521 7.61154 24.4972 6.51874C24.7428 6.02637 25.2746 5.69038 25.8006 5.85188C28.2985 6.61879 30.6055 7.94818 32.5235 9.708C32.9267 10.0779 32.9079 10.7001 32.6032 11.1546C32.3253 11.5691 32.1134 12.0308 31.9958 12.5395C31.8581 13.1358 31.8176 13.7321 31.8972 14.3284C31.9569 14.7753 31.7967 15.241 31.4159 15.4824L20.9951 22.0913C20.6811 22.2905 20.2824 22.2989 19.9602 22.1132L9.40379 16.0291C8.97056 15.7794 8.80094 15.2489 8.89769 14.7584C9.13111 13.5748 8.8813 12.3494 8.22099 11.3727C7.90339 10.903 7.86931 10.2507 8.28642 9.8666C10.2906 8.021 12.6141 6.6769 15.1575 5.86741ZM5.46078 17.2825C4.55027 17.5424 3.57471 17.4124 2.72923 16.9576C1.03828 15.9831 0.452944 13.839 1.4285 12.1497C2.07887 10.9802 3.24953 10.3955 4.48523 10.3955C5.07056 10.3955 5.65589 10.5254 6.24123 10.8503C7.93218 11.8249 8.51752 13.9689 7.54196 15.6582C7.15174 16.4379 6.3713 17.0226 5.46078 17.2825ZM3.70479 35.6695C2.79427 35.4096 2.01383 34.8249 1.55857 34.0452C0.583018 32.3559 1.16835 30.2119 2.85931 29.1723C3.44464 28.8475 4.02997 28.7175 4.6153 28.7175C5.851 28.7175 7.02167 29.3672 7.67204 30.4717C8.12729 31.3164 8.25737 32.226 8.06226 33.1356C7.80211 34.0452 7.21678 34.8249 6.43634 35.2797C5.59086 35.7994 4.6153 35.9294 3.70479 35.6695ZM20.4843 44.8955C18.5332 44.8955 16.9073 43.3362 16.9073 41.322C16.9073 39.3729 18.4682 37.7486 20.4843 37.7486C22.5004 37.7486 24.0613 39.3079 24.0613 41.322C24.0613 43.3362 22.4354 44.8955 20.4843 44.8955ZM25.8984 40.0605C25.3604 40.2325 24.813 39.8828 24.5624 39.3766C23.8259 37.8893 22.2773 36.904 20.5493 36.904C18.7679 36.904 17.2553 37.9335 16.5322 39.3982C16.2859 39.8971 15.7496 40.2423 15.2179 40.0785C12.7258 39.3109 10.4242 37.9833 8.51015 36.227C8.10697 35.8571 8.12472 35.2343 8.43229 34.7818C8.70928 34.3742 8.92054 33.9291 9.03781 33.4604C9.17541 32.8648 9.21597 32.2691 9.13667 31.6734C9.07706 31.2256 9.23813 30.7591 9.62019 30.5181L18.5605 24.8772C19.2264 24.4571 20.0941 24.9356 20.0941 25.723V34.3701C20.0941 34.6299 20.2892 34.8249 20.5493 34.8249C20.8095 34.8249 21.0046 34.6299 21.0046 34.3701V25.5105C21.0046 24.741 21.8374 24.2598 22.5041 24.6442L31.6162 29.8979C32.0553 30.1511 32.223 30.6921 32.1229 31.189C31.986 31.8684 32.0087 32.5829 32.1909 33.2655C32.299 33.7335 32.487 34.1616 32.7438 34.5388C33.0765 35.0274 33.1354 35.7136 32.6992 36.1125C30.7118 37.9301 28.4128 39.2567 25.8984 40.0605ZM39.6051 33.8503C38.6296 35.5395 36.4834 36.1243 34.7924 35.1497C33.9469 34.6949 33.3616 33.9153 33.1014 33.0056C32.8413 32.096 32.9714 31.1215 33.4266 30.3418C34.077 29.1723 35.2477 28.5876 36.4834 28.5876C37.0687 28.5876 37.654 28.7175 38.2394 29.0424C39.9303 30.0169 40.5807 32.161 39.6051 33.8503Z" transform="translate(15 15)" fill="#99CEFF"/>
</g>
<defs>
<filter id="filter0_d" x="0" y="0" width="71" height="76" filterUnits="userSpaceOnUse" color-interpolation-filters="sRGB">
<feFlood flood-opacity="0" result="BackgroundImageFix"/>
<feColorMatrix in="SourceAlpha" type="matrix" values="0 0 0 0 0 0 0 0 0 0 0 0 0 0 0 0 0 0 255 0"/>
<feOffset/>
<feGaussianBlur stdDeviation="7.5"/>
<feColorMatrix type="matrix" values="0 0 0 0 0.423581 0 0 0 0 0.896245 0 0 0 0 1 0 0 0 1 0"/>
<feBlend mode="normal" in2="BackgroundImageFix" result="effect1_dropShadow"/>
<feBlend mode="normal" in="SourceGraphic" in2="effect1_dropShadow" result="shape"/>
</filter>
</defs>
</svg>
