<svg width="80" height="80" viewBox="0 0 80 80" fill="none" xmlns="http://www.w3.org/2000/svg">
<g filter="url(#filter0_d)">
<path fill-rule="evenodd" clip-rule="evenodd" d="M25.0072 50C23.4178 50.0013 21.8319 49.8507 20.2711 49.5501C20.1205 49.5216 19.9874 49.4347 19.9007 49.3082C19.8141 49.1817 19.781 49.026 19.8088 48.8753C19.8232 48.8013 19.8522 48.7309 19.894 48.6681C19.9359 48.6054 19.9898 48.5516 20.0525 48.5098C20.1153 48.468 20.1857 48.439 20.2597 48.4245C20.3337 48.41 20.4097 48.4103 20.4836 48.4254C21.9753 48.7054 23.4895 48.8475 25.0072 48.8503C30.8667 48.8447 36.5186 46.6797 40.8821 42.7692C45.2457 38.8586 48.0149 33.4769 48.6601 27.653C49.3053 21.8292 47.7814 15.9718 44.3796 11.2009C40.9779 6.43004 35.937 3.08035 30.2208 1.7923C24.5047 0.504257 18.5143 1.36826 13.3951 4.21909C8.27595 7.06993 4.38714 11.7075 2.47222 17.2453C0.557296 22.783 0.750693 28.8323 3.01534 34.2364C5.28 39.6406 9.45709 44.0204 14.7479 46.5385C14.8785 46.6073 14.9775 46.7237 15.0244 46.8637C15.0714 47.0037 15.0625 47.1565 14.9997 47.2901C14.9369 47.4237 14.8252 47.5279 14.6875 47.5811C14.5498 47.6343 14.3968 47.6325 14.2605 47.5758C8.70638 44.9336 4.32114 40.3367 1.94351 34.6643C-0.434119 28.9919 -0.63726 22.6421 1.37293 16.8293C3.38311 11.0165 7.46554 6.14871 12.8394 3.15694C18.2133 0.165176 24.5014 -0.740592 30.5012 0.61285C36.501 1.96629 41.7914 5.48402 45.3605 10.4931C48.9295 15.5023 50.5267 21.6512 49.8467 27.7641C49.1667 33.8769 46.2571 39.5245 41.6744 43.6268C37.0918 47.7291 31.1578 49.9982 25.0072 50ZM25.0072 45.0015C21.7566 45.0006 18.5552 44.2071 15.6804 42.6899C12.8056 41.1726 10.3441 38.9774 8.50914 36.2942C6.67416 33.6111 5.52105 30.5209 5.14971 27.2915C4.77837 24.0622 5.19999 20.7911 6.37806 17.7615C7.55612 14.7318 9.45506 12.0351 11.9104 9.90494C14.3658 7.77477 17.3035 6.2753 20.4691 5.5366C23.6347 4.7979 26.9327 4.84226 30.0773 5.66565C33.2219 6.48904 36.1184 8.0666 38.5157 10.2619C38.5693 10.3118 38.6124 10.3719 38.6427 10.4385C38.6729 10.5052 38.6898 10.5772 38.6921 10.6504C38.6944 10.7236 38.6822 10.7964 38.6562 10.8649C38.6302 10.9333 38.5909 10.996 38.5406 11.0492C38.492 11.1027 38.4331 11.1459 38.3675 11.1762C38.3018 11.2065 38.2309 11.2233 38.1586 11.2256C38.0864 11.228 38.0144 11.2158 37.9469 11.1898C37.8795 11.1638 37.8178 11.1244 37.7658 11.0742C34.2356 7.83481 29.6071 6.05677 24.8161 6.09948C20.0251 6.14218 15.429 8.00243 11.9571 11.3042C8.48522 14.606 6.39647 19.103 6.11332 23.8859C5.83017 28.6687 7.37363 33.3806 10.4317 37.069C13.4898 40.7574 17.8343 43.1469 22.5869 43.7546C27.3394 44.3623 32.1454 43.1428 36.0331 40.3425C39.9209 37.5423 42.6004 33.3704 43.5298 28.6702C44.4592 23.97 43.5693 19.0922 41.0399 15.023C40.9638 14.8983 40.9396 14.7487 40.9723 14.6063C41.005 14.4639 41.0919 14.3399 41.2148 14.2608C41.2762 14.2216 41.3448 14.1951 41.4165 14.1827C41.4882 14.1703 41.5617 14.1722 41.6326 14.1885C41.7036 14.2048 41.7706 14.2351 41.8297 14.2776C41.8889 14.32 41.9389 14.3738 41.9771 14.4357C43.8628 17.4629 44.9047 20.9392 44.9944 24.5046C45.0841 28.0699 44.2185 31.5944 42.4873 34.7125C40.7562 37.8307 38.2224 40.4291 35.1488 42.2382C32.0753 44.0473 28.5737 45.0014 25.0072 45.0015ZM18.0968 28.9031C18.0968 29.2086 17.8491 29.4562 17.5436 29.4562H13.8045C13.38 29.4562 13.0359 29.1121 13.0359 28.6877C13.0359 28.2632 13.38 27.9191 13.8045 27.9191H17.832C17.9783 27.9191 18.0968 28.0376 18.0968 28.1838V28.9031ZM19.7963 20.3411C19.7963 20.7099 19.4973 21.0088 19.1286 21.0088H15.4914C15.067 21.0088 14.7229 20.6647 14.7229 20.2402C14.7229 19.8157 15.067 19.4716 15.4914 19.4716H19.417C19.6265 19.4716 19.7963 19.6414 19.7963 19.8509V20.3411ZM35.3917 28.6877C35.3917 29.1121 35.0476 29.4562 34.6231 29.4562H30.9436C30.5982 29.4562 30.3181 29.1762 30.3181 28.8308V28.6877C30.3181 28.2632 30.6622 27.9191 31.0867 27.9191H31.232H34.6231C35.0476 27.9191 35.3917 28.2632 35.3917 28.6877ZM37.0786 20.2402C37.0786 20.6647 36.7345 21.0088 36.3101 21.0088H32.5286C32.2395 21.0088 32.0051 20.7744 32.0051 20.4853V20.2402C32.0051 19.8157 32.3492 19.4716 32.7737 19.4716H32.817H36.3101C36.7345 19.4716 37.0786 19.8157 37.0786 20.2402ZM31.0055 24.9263C31.0055 25.3508 30.6614 25.6949 30.2369 25.6949H30.0833H19.8153C19.4597 25.6949 19.1714 25.4066 19.1714 25.051V24.9263C19.1714 24.5018 19.5155 24.1577 19.94 24.1577H20.1038H30.3718C30.7218 24.1577 31.0055 24.4414 31.0055 24.7914V24.9263ZM30.223 33.2966C30.1445 33.715 29.7412 33.9902 29.3229 33.9107C28.9061 33.8315 28.632 33.4298 28.7102 33.0127L30.0833 25.6949L30.3718 24.1577L31.8005 16.5434C31.879 16.125 32.2823 15.8498 32.7005 15.9293C33.1173 16.0085 33.3914 16.4102 33.3131 16.8272L32.817 19.4716L32.5286 21.0088L31.232 27.9191L30.9436 29.4562L30.223 33.2966ZM18.389 33.2967C18.3105 33.7151 17.9072 33.9902 17.489 33.9107C17.0721 33.8315 16.7981 33.4298 16.8763 33.0128L17.5436 29.4562L17.832 27.9191L19.1286 21.0088L19.417 19.4716L19.9664 16.5435C20.0449 16.125 20.4482 15.8498 20.8665 15.9293C21.2834 16.0085 21.5575 16.4102 21.4792 16.8273L20.1038 24.1577L19.8153 25.6949L18.389 33.2967Z" transform="translate(15 15)" fill="#99CEFF"/>
<path d="M19.1286 21.0088C19.4973 21.0088 19.7963 20.7099 19.7963 20.3411V19.8509C19.7963 19.6414 19.6265 19.4716 19.417 19.4716L19.1286 21.0088Z" transform="translate(15 15)" fill="#99CEFF"/>
<path d="M19.1714 25.051C19.1714 25.4066 19.4597 25.6949 19.8153 25.6949L20.1038 24.1577H19.94C19.5155 24.1577 19.1714 24.5018 19.1714 24.9263V25.051Z" transform="translate(15 15)" fill="#99CEFF"/>
<path d="M17.5436 29.4562C17.8491 29.4562 18.0968 29.2086 18.0968 28.9031V28.1838C18.0968 28.0376 17.9783 27.9191 17.832 27.9191L17.5436 29.4562Z" transform="translate(15 15)" fill="#99CEFF"/>
<path d="M30.3181 28.8308C30.3181 29.1762 30.5982 29.4562 30.9436 29.4562L31.232 27.9191H31.0867C30.6622 27.9191 30.3181 28.2632 30.3181 28.6877V28.8308Z" transform="translate(15 15)" fill="#99CEFF"/>
<path d="M30.2369 25.6949C30.6614 25.6949 31.0055 25.3508 31.0055 24.9263V24.7914C31.0055 24.4414 30.7218 24.1577 30.3718 24.1577L30.0833 25.6949H30.2369Z" transform="translate(15 15)" fill="#99CEFF"/>
<path d="M32.0051 20.4853C32.0051 20.7744 32.2395 21.0088 32.5286 21.0088L32.817 19.4716H32.7737C32.3492 19.4716 32.0051 19.8157 32.0051 20.2402V20.4853Z" transform="translate(15 15)" fill="#99CEFF"/>
</g>
<defs>
<filter id="filter0_d" x="0" y="0" width="80" height="80" filterUnits="userSpaceOnUse" color-interpolation-filters="sRGB">
<feFlood flood-opacity="0" result="BackgroundImageFix"/>
<feColorMatrix in="SourceAlpha" type="matrix" values="0 0 0 0 0 0 0 0 0 0 0 0 0 0 0 0 0 0 255 0"/>
<feOffset/>
<feGaussianBlur stdDeviation="7.5"/>
<feColorMatrix type="matrix" values="0 0 0 0 0.423581 0 0 0 0 0.896245 0 0 0 0 1 0 0 0 1 0"/>
<feBlend mode="normal" in2="BackgroundImageFix" result="effect1_dropShadow"/>
<feBlend mode="normal" in="SourceGraphic" in2="effect1_dropShadow" result="shape"/>
</filter>
</defs>
</svg>
