<svg width="21" height="31" viewBox="0 0 21 31" fill="none" xmlns="http://www.w3.org/2000/svg">
<path d="M20.8369 6.80436L14.2081 0.163354C14.1036 0.0587927 13.9621 0 13.8144 0H3.8712C1.73656 0 7.82308e-08 1.73975 7.82308e-08 3.8783V27.1217C7.82308e-08 29.2603 1.73656 31 3.8712 31H10.5C10.8075 31 11.0569 30.7502 11.0569 30.4422C11.0569 30.1342 10.8076 29.8843 10.5 29.8843H3.8712C2.35061 29.8843 1.11355 28.645 1.11355 27.1216V3.8783C1.11355 2.35492 2.35061 1.11559 3.8712 1.11559H13.5838L19.8864 7.4298V20.4808C19.8864 20.7888 20.1357 21.0386 20.4432 21.0386C20.7506 21.0386 21 20.7889 21 20.4808V7.19876C20.9999 7.05082 20.9413 6.90892 20.8369 6.80436Z" fill="white"/>
<path d="M7.18558 6.64101H3.8712C2.3507 6.64101 1.11364 5.40168 1.11364 3.8783V0.557843C1.11364 0.249754 0.864346 0 0.556822 0C0.249389 0 6.03494e-07 0.249754 6.03494e-07 0.557843V3.8783C6.03494e-07 6.01676 1.73656 7.7566 3.87111 7.7566H7.18548C7.49292 7.7566 7.74231 7.50685 7.74231 7.19876C7.74231 6.89067 7.49301 6.64101 7.18558 6.64101Z" transform="translate(13.2578)" fill="white"/>
<path d="M13.9801 -5.15031e-07H0.556821C0.249297 -5.15031e-07 -3.01747e-07 0.249754 -3.01747e-07 0.557842C-3.01747e-07 0.865931 0.249297 1.11569 0.556821 1.11569H13.9801C14.2877 1.11569 14.537 0.865931 14.537 0.557842C14.537 0.249754 14.2876 -5.15031e-07 13.9801 -5.15031e-07Z" transform="translate(3.31445 16.5361)" fill="white"/>
<path d="M13.9801 5.26227e-07H0.556821C0.249297 5.26227e-07 -3.01747e-07 0.249755 -3.01747e-07 0.557844C-3.01747e-07 0.865932 0.249297 1.11569 0.556821 1.11569H13.9801C14.2877 1.11569 14.537 0.865932 14.537 0.557844C14.537 0.249755 14.2876 5.26227e-07 13.9801 5.26227e-07Z" transform="translate(3.31445 13.2817)" fill="white"/>
<path d="M13.9801 2.07132e-07H0.556821C0.249297 2.07132e-07 -3.01747e-07 0.249755 -3.01747e-07 0.557843C-3.01747e-07 0.865932 0.249297 1.11569 0.556821 1.11569H13.9801C14.2877 1.11569 14.537 0.865932 14.537 0.557843C14.537 0.249755 14.2876 2.07132e-07 13.9801 2.07132e-07Z" transform="translate(3.31445 9.96143)" fill="white"/>
<path d="M7.18558 -3.07899e-08H0.556821C0.249297 -3.07899e-08 -3.01747e-07 0.249754 -3.01747e-07 0.557843C-3.01747e-07 0.865931 0.249297 1.11569 0.556821 1.11569H7.18567C7.4931 1.11569 7.74249 0.865931 7.74249 0.557843C7.7424 0.249754 7.49301 -3.07899e-08 7.18558 -3.07899e-08Z" transform="translate(3.31445 3.32031)" fill="white"/>
<path d="M3.91093 1.02929C3.87779 0.763755 3.74522 0.564446 3.57951 0.431635C3.4138 0.265621 3.21495 0.166014 2.98296 0.0997004C2.75096 0.0332949 2.4526 -1.11963e-07 2.05489 -1.11963e-07H0.795407C0.530271 -1.11963e-07 0.331419 0.0664051 0.198851 0.199216C0.0662836 0.332027 -3.91154e-08 0.531244 -3.91154e-08 0.83016V4.88108C-3.91154e-08 5.11359 0.0662836 5.31281 0.165709 5.47873C0.298369 5.61163 0.463987 5.71124 0.66293 5.71124C0.861782 5.71124 1.02749 5.64484 1.12692 5.47873C1.25949 5.34592 1.29263 5.14679 1.29263 4.88108V3.55288H2.02175C2.65154 3.55288 3.14858 3.38686 3.51323 3.08804C3.84465 2.78921 4.0435 2.32438 4.0435 1.75984C4.04359 1.49422 4.01036 1.22859 3.91093 1.02929ZM2.65145 2.12516C2.58516 2.22486 2.48574 2.29117 2.38622 2.32438C2.25365 2.35758 2.0548 2.39078 1.85595 2.39078H1.32568V1.12899H1.8229C2.32003 1.12899 2.48574 1.22859 2.58516 1.295C2.68459 1.39461 2.71773 1.56062 2.71773 1.75984C2.75087 1.89283 2.71773 2.02564 2.65145 2.12516Z" transform="translate(3.20801 21.4766)" fill="white"/>
<path d="M3.64589 0.531244C3.48018 0.298825 3.24809 0.166013 2.98296 0.0996996C2.71773 0.0332941 2.41954 5.37424e-07 2.08812 5.37424e-07H0.795498C0.53027 5.37424e-07 0.33151 0.0664058 0.198851 0.199217C0.0662834 0.332028 -2.6822e-07 0.531244 -2.6822e-07 0.796866V4.64866C-2.6822e-07 4.84788 -3.11046e-07 4.98069 0.0331416 5.1135C0.0662836 5.24631 0.165709 5.37912 0.298277 5.44553C0.430845 5.51184 0.563504 5.54514 0.795498 5.54514H2.08812C2.32012 5.54514 2.51897 5.54514 2.71782 5.51193C2.91667 5.47873 3.08247 5.41232 3.24809 5.34592C3.4138 5.24631 3.57951 5.1468 3.71208 5.01389C3.87779 4.84797 4.0435 4.64866 4.14293 4.41624C4.24235 4.18382 4.34178 3.9514 4.40806 3.68578C4.47435 3.42016 4.47435 3.12133 4.47435 2.78931C4.47444 1.79295 4.2093 1.02919 3.64589 0.531244ZM2.75096 4.18382C2.68468 4.25014 2.6184 4.28343 2.55211 4.31663C2.45269 4.34984 2.3864 4.38304 2.32012 4.38304C2.22069 4.38304 2.12127 4.38304 1.95556 4.38304H1.35891V1.16219H1.85613C2.15441 1.16219 2.3864 1.1953 2.58525 1.2618C2.75096 1.3282 2.91667 1.46101 3.0161 1.69343C3.11553 1.89274 3.18181 2.25797 3.18181 2.75601C3.18181 3.45336 3.04924 3.9182 2.75096 4.18382Z" transform="translate(8.44531 21.4771)" fill="white"/>
<path d="M3.71217 0.531336C3.71217 0.365322 3.64589 0.232511 3.54646 0.132811C3.44704 0.0332025 3.28124 -1.11963e-07 3.08248 -1.11963e-07H0.762357C0.596647 -1.11963e-07 0.464079 0.0332032 0.331511 0.0997004C0.198851 0.166014 0.0995168 0.265622 0.0662833 0.398525C-5.56608e-07 0.531336 -4.69385e-07 0.664146 -4.69385e-07 0.83016V4.84797C-4.69385e-07 5.11359 0.0662832 5.31281 0.165709 5.44562C0.298277 5.57843 0.463987 5.67804 0.662839 5.67804C0.861691 5.67804 1.02749 5.61172 1.12683 5.44562C1.25939 5.31281 1.29254 5.11359 1.29254 4.84797V3.28726H2.75087C2.94973 3.28726 3.08229 3.22085 3.21486 3.12124C3.31429 3.02154 3.38057 2.88873 3.38057 2.72272C3.38057 2.5568 3.31429 2.42389 3.21486 2.32428C3.11534 2.22468 2.94963 2.15827 2.75087 2.15827H1.29254V1.16219H3.08238V1.12917H3.08229C3.28114 1.12917 3.44685 1.06276 3.54628 0.963156C3.64589 0.863456 3.71217 0.73046 3.71217 0.531336Z" transform="translate(14.1787 21.4766)" fill="white"/>
</svg>
