<svg width="81" height="76" viewBox="0 0 81 76" fill="none" xmlns="http://www.w3.org/2000/svg">
<g filter="url(#filter0_d)">
<path d="M0.185836 21.5529C0.272811 21.6178 0.383965 21.6402 0.482665 21.6854C0.509481 21.6976 0.536298 21.707 0.563113 21.707C0.718238 21.707 0.873363 21.6286 0.950925 21.5503C0.950925 21.5503 0.950925 21.5503 0.950925 21.5503L15.3775 6.97445C15.4551 6.89608 15.5326 6.73935 15.5326 6.58262C15.5326 6.42589 15.4551 6.26917 15.3775 6.1908C11.7321 2.4293 7.54372 0.470187 2.42461 0C2.37479 0 2.32497 0 2.27772 0.00519124C2.08488 0.0263782 1.93357 0.199464 1.86879 0.382329C1.83147 0.487682 1.79914 0.605699 1.78947 0.717048L0.0302635 20.964C0.0235617 21.0411 0.00205257 21.1171 0.00012098 21.1945C-0.00339422 21.3353 0.0702451 21.4667 0.185836 21.5529ZM2.79944 2.26884C2.84916 1.71139 3.34757 1.30065 3.90023 1.38896C7.48449 1.96171 10.6311 3.47911 13.3866 5.89402C13.8071 6.2626 13.8129 6.90764 13.4183 7.30391L3.21141 17.5542C2.55131 18.2171 1.42363 17.6916 1.50676 16.7598L2.79944 2.26884Z" transform="translate(39.9307 15)" fill="#99CEFF"/>
<path d="M41.5475 25.1645C41.5376 25.0454 41.4585 24.9347 41.397 24.8323C41.3202 24.7046 41.2101 24.6106 41.0668 24.5501C41.0272 24.5334 40.9853 24.5231 40.9431 24.5147L23.6577 21.0842C23.6409 21.0809 23.6241 21.0769 23.6073 21.0735C23.3056 21.0136 23.0099 21.2444 22.9344 21.5494C22.8588 21.8549 23.0778 22.1603 23.3762 22.2482C23.3918 22.2528 23.4078 22.2563 23.4238 22.2595L39.1583 25.4242C39.7054 25.5343 40.059 26.072 39.913 26.6106C37.3434 36.0927 28.027 42.345 18.2031 40.9055C12.9289 40.2002 8.27513 37.4574 5.09507 33.1474C1.91502 28.9157 0.596459 23.5869 1.29452 18.3365C2.07014 12.5375 5.40532 7.36542 10.3693 4.23083C13.5715 2.14585 17.2307 1.11625 21.0474 1.14203C21.6129 1.14585 22.0392 1.6415 21.9885 2.2047L21.2281 10.6563C21.228 10.6566 21.228 10.6569 21.228 10.6571L20.4564 19.3109C20.4537 19.3404 20.4519 19.3701 20.454 19.3997C20.4746 19.6976 20.6998 19.9821 20.9953 19.9821C20.9953 19.9821 20.9953 19.9821 21.0729 19.9821C21.3689 19.9821 21.5943 19.7682 21.6144 19.4763C21.6163 19.4479 21.6171 19.4194 21.6195 19.391L22.3138 11.2848C22.3139 11.284 22.3139 11.2833 22.314 11.2825L23.2408 0.748165C23.2434 0.719022 23.2448 0.689779 23.2445 0.660525C23.2442 0.623178 23.243 0.586251 23.2389 0.550819C23.2169 0.360763 23.0487 0.209094 22.8688 0.143804C22.7626 0.105226 22.6437 0.0723254 22.531 0.0635826C18.0137 -0.286798 13.5787 0.813986 9.74881 3.29046C4.55214 6.50341 1.06183 11.9889 0.208648 18.1797C-0.566975 23.7436 0.829146 29.3859 4.24189 33.8526C7.57707 38.3978 12.5411 41.2973 18.048 42.0809C19.0563 42.2376 19.987 42.316 20.9953 42.316C30.8218 42.316 39.5677 35.2974 41.5351 25.3055C41.5446 25.2572 41.5515 25.2135 41.5475 25.1645Z" transform="translate(15 18.6841)" fill="#99CEFF"/>
<path d="M15.3878 0.17632C15.1554 -0.0584527 14.7683 -0.0587733 14.5355 0.175358C14.5349 0.175995 14.5343 0.17664 14.5336 0.17728L0.186499 14.7512C0.185868 14.7518 0.185237 14.7524 0.184606 14.7531C0.0301133 14.9098 -0.0469762 15.1444 0.0304281 15.379C0.0997768 15.5892 0.23113 15.7368 0.424488 15.7657C0.471586 15.7727 0.519459 15.7743 0.566595 15.781L20.5912 18.6602C20.6383 18.667 20.6859 18.6704 20.7335 18.6704H20.7396C20.8947 18.6704 20.9722 18.592 21.1274 18.5136C21.2825 18.4353 21.3601 18.2785 21.3601 18.1218C22.2908 11.2257 20.2742 5.03492 15.3878 0.17632ZM20.3682 16.3179C20.3298 16.8783 19.816 17.274 19.2598 17.1961L3.78901 15.0288C2.97405 14.9146 2.63812 13.9199 3.21701 13.335L14.2694 2.16827C14.6683 1.76521 15.3243 1.77296 15.6923 2.20448C19.0999 6.20081 20.7304 11.0322 20.3682 16.3179Z" transform="translate(44.4189 22.1899)" fill="#99CEFF"/>
</g>
<defs>
<filter id="filter0_d" x="0" y="0" width="80.9997" height="76.0001" filterUnits="userSpaceOnUse" color-interpolation-filters="sRGB">
<feFlood flood-opacity="0" result="BackgroundImageFix"/>
<feColorMatrix in="SourceAlpha" type="matrix" values="0 0 0 0 0 0 0 0 0 0 0 0 0 0 0 0 0 0 255 0"/>
<feOffset/>
<feGaussianBlur stdDeviation="7.5"/>
<feColorMatrix type="matrix" values="0 0 0 0 0.423581 0 0 0 0 0.896245 0 0 0 0 1 0 0 0 1 0"/>
<feBlend mode="normal" in2="BackgroundImageFix" result="effect1_dropShadow"/>
<feBlend mode="normal" in="SourceGraphic" in2="effect1_dropShadow" result="shape"/>
</filter>
</defs>
</svg>
