<svg width="81" height="73" viewBox="0 0 81 73" fill="none" xmlns="http://www.w3.org/2000/svg">
<g filter="url(#filter0_d)">
<path d="M8.52808 0.00499984C3.70158 0.084716 -0.0791812 3.9908 0.00126041 8.77377C0.0817021 13.477 3.9429 17.2237 8.68896 17.2237C8.7694 17.2237 8.7694 17.2237 8.84984 17.2237C13.6763 17.144 17.4571 13.2379 17.3767 8.45491C17.3767 6.14314 16.4114 3.99081 14.7221 2.39648C13.1132 0.802161 10.8609 -0.0747163 8.52808 0.00499984ZM8.84984 16.0279C8.7694 16.0279 8.7694 16.0279 8.68896 16.0279C4.58643 16.0279 1.28833 12.7596 1.20789 8.69406C1.12744 4.62853 4.42555 1.20074 8.52808 1.12103C8.60852 1.12103 8.60852 1.12103 8.68896 1.12103C10.6196 1.12103 12.4697 1.83847 13.9177 3.19364C15.3656 4.54882 16.17 6.38229 16.17 8.37519C16.2505 12.6001 12.9524 15.9482 8.84984 16.0279Z" transform="translate(32.7764 23.8767)" fill="#99CEFF"/>
<path d="M50.9196 2.10564C50.964 2.10564 51.0006 2.06942 50.9948 2.02538C50.958 1.74748 50.7311 1.54763 50.4369 1.54763H40.1404C39.8186 1.54763 39.5773 1.78677 39.5773 2.10564C39.5773 2.4245 39.8186 2.66365 40.1404 2.66365H48.7934C49.3457 2.66365 49.7934 3.11137 49.7934 3.66365V32.3544C49.7934 32.9066 49.3457 33.3544 48.7934 33.3544H39.7792C38.8085 33.3544 38.3739 32.0629 39.0693 31.3857C39.1046 31.3513 39.1398 31.3167 39.1751 31.2817C39.4164 31.0426 39.4164 30.644 39.1751 30.4049L37.9279 29.1689C37.5463 28.7908 37.5345 28.1805 37.8774 27.7669C38.9547 26.4677 39.7816 25.0971 40.3891 23.5011C40.5801 22.9993 41.1131 22.7034 41.6314 22.8435L43.2631 23.2845C43.3262 23.3015 43.3868 23.33 43.4515 23.3396C43.5812 23.359 43.7109 23.2947 43.8407 23.2304C43.9709 23.1659 44.0485 23.0491 44.1159 22.9224C44.1478 22.8626 44.1715 22.7987 44.1889 22.7333C45.0488 19.5009 45.1189 16.4217 44.2429 13.1862C44.1627 12.8685 43.843 12.709 43.5224 12.7867C43.5201 12.7873 43.5178 12.7879 43.5155 12.7884L41.7939 13.202C41.2739 13.3269 40.7513 13.0189 40.5693 12.516C40.0079 10.9655 39.1948 9.56974 38.1299 8.26875C37.7843 7.8466 37.8029 7.22518 38.1985 6.8495L39.4087 5.70019C39.4138 5.6953 39.419 5.6904 39.4238 5.68526C39.5017 5.60332 39.5773 5.4488 39.5773 5.29428C39.5773 5.13485 39.4968 4.97542 39.4164 4.8957C37.0269 2.44884 34.4008 0.939825 31.1477 0.0591152C31.0833 0.0416643 31.0211 0.0126006 30.955 0.00319607C30.8259 -0.0151625 30.6969 0.0487866 30.5678 0.112736C30.4369 0.177585 30.3593 0.295189 30.2916 0.422632C30.2605 0.481176 30.2372 0.543513 30.2196 0.607432L29.7786 2.20982C29.6356 2.72963 29.1065 3.03876 28.5757 2.94455C26.9073 2.64848 25.3009 2.64156 23.6326 2.89316C23.101 2.97334 22.5835 2.64904 22.4557 2.12681L22.0419 0.435097C22.0413 0.432766 22.0407 0.430408 22.0401 0.428085C21.9582 0.111565 21.6376 -0.0464031 21.317 0.0330195C19.794 0.410347 18.4872 0.930559 17.192 1.59365C17.0479 1.66741 16.9032 1.64049 16.7419 1.62774C16.7386 1.62748 16.7352 1.62734 16.7319 1.62734C16.7319 1.62734 16.7319 1.62734 16.7319 1.62734H0.741677C0.676404 1.62734 0.611329 1.6188 0.546241 1.61391C0.202725 1.5881 0 1.81339 0 2.10564V33.9921C0 34.3109 0.241325 34.5501 0.563091 34.5501C0.563091 34.5501 0.563092 34.5501 0.563091 34.5501H12.3076C12.6293 34.5501 12.8707 34.3109 12.8707 33.9921C12.8707 33.6732 12.6293 33.4341 12.3076 33.4341H2.20662C1.65434 33.4341 1.20662 32.9864 1.20662 32.4341V3.66365C1.20662 3.11137 1.65434 2.66365 2.20662 2.66365H12.1022C13.0284 2.66365 13.4481 3.92491 12.7902 4.57684C12.7098 4.65655 12.6293 4.81599 12.6293 4.97542C12.6293 5.13485 12.7098 5.29428 12.7902 5.374C12.7902 5.374 12.7902 5.374 12.7902 5.374L14.0374 6.60991C14.419 6.98811 14.4308 7.59831 14.0879 8.01192C13.0106 9.3112 12.1837 10.6817 11.5762 12.2778C11.3852 12.7796 10.8522 13.0755 10.3339 12.9354L8.61744 12.4715C8.61065 12.4696 8.60381 12.4679 8.59696 12.4663C8.27865 12.3924 7.96286 12.5518 7.88328 12.8673C6.99842 16.1357 6.91798 19.2446 7.80284 22.513C7.88299 22.8307 8.20275 22.9901 8.52336 22.9124C8.52565 22.9118 8.52796 22.9113 8.53026 22.9107L10.2518 22.4971C10.7718 22.3722 11.2944 22.6802 11.4765 23.1831C12.0401 24.74 12.8576 26.1408 13.929 27.4464C14.2698 27.8617 14.2581 28.4719 13.8765 28.8501L12.6293 30.086C12.388 30.3251 12.388 30.7237 12.6293 30.9629C15.0426 33.4341 17.6972 34.9487 20.9953 35.8256C21.3135 35.9044 21.6317 35.7493 21.7165 35.4374C21.7184 35.4305 21.7202 35.4235 21.7221 35.4166L22.2887 33.3577C22.3747 33.0454 22.6934 32.8605 23.0092 32.9328C23.1357 32.9618 23.2683 32.9908 23.4108 33.0198C23.4562 33.029 23.489 33.0689 23.489 33.1152V40.884C23.489 41.4363 23.0412 41.884 22.489 41.884H11.7445C11.4227 41.884 11.1814 42.1231 11.1814 42.442C11.1814 42.7609 11.4227 43 11.7445 43H40.2208C40.5426 43 40.7839 42.7609 40.7839 42.442C40.7839 42.1231 40.5426 41.884 40.2208 41.884H29.5568C29.0045 41.884 28.5568 41.4363 28.5568 40.884V33.4124C28.5568 33.235 28.6719 33.0776 28.8467 33.0476C29.0831 33.007 29.3295 33.155 29.3865 33.388L29.8956 35.4693C29.9147 35.5471 29.9192 35.6295 29.9501 35.7033C29.9989 35.8197 30.105 35.925 30.1656 35.985C30.2461 36.0647 30.3265 36.0647 30.4874 36.0647C30.497 36.0647 30.5055 36.0647 30.5132 36.0647C30.6028 36.0647 30.6921 36.0527 30.7785 36.0286C32.1502 35.6451 33.447 35.1874 34.5999 34.5871C34.6463 34.5629 34.6977 34.5501 34.75 34.5501C34.7505 34.5501 34.7511 34.5501 34.7516 34.5501L50.3548 34.6298C50.3559 34.6298 50.357 34.6298 50.3581 34.6298C50.3624 34.6298 50.3667 34.6298 50.371 34.6298C50.5299 34.6292 50.7587 34.5496 50.7587 34.3907C50.7587 34.3109 50.8391 34.3109 50.8391 34.2312V34.1515C50.8391 34.0718 50.8391 34.0718 50.8391 33.9921V2.18608C50.8391 2.14165 50.8751 2.10564 50.9196 2.10564ZM27.3502 40.9637C27.3502 41.516 26.9024 41.9637 26.3502 41.9637H25.6151C25.0629 41.9637 24.6151 41.516 24.6151 40.9637V34.3688C24.6151 33.7811 25.1199 33.322 25.7075 33.3321C25.8907 33.3352 26.0746 33.3352 26.2578 33.3321C26.8454 33.322 27.3502 33.7811 27.3502 34.3688V40.9637ZM30.3535 32.2725C30.3356 32.1968 30.3315 32.1169 30.302 32.0449C30.2539 31.9272 30.1463 31.8206 30.0852 31.76C30.0047 31.6803 29.9243 31.6803 29.7634 31.6803C29.7478 31.6803 29.7352 31.6803 29.7245 31.6803C29.6435 31.6803 29.5625 31.6904 29.4837 31.7094C26.9588 32.3179 24.7363 32.307 22.2019 31.6006C21.885 31.5221 21.568 31.6756 21.4817 31.9849C21.4791 31.9943 21.4766 32.0039 21.4739 32.0133L21.0311 33.5734C20.8787 34.1104 20.3149 34.4216 19.7899 34.2318C17.8827 33.5425 16.2251 32.5725 14.681 31.2541C14.2522 30.888 14.2475 30.2362 14.6479 29.8393L15.847 28.6511C16.0883 28.412 16.0883 28.0134 15.847 27.7742C14.0229 25.888 12.9025 24.0018 12.2546 21.5044C12.2362 21.4332 12.2107 21.3637 12.177 21.2984C12.1456 21.2373 12.1141 21.1788 12.0826 21.1276C12.0264 21.0363 11.9381 20.9685 11.8337 20.9442C11.763 20.9278 11.6923 20.9219 11.6216 20.9198C11.5429 20.9175 11.4645 20.9279 11.388 20.9463L9.8235 21.3222C9.28548 21.4514 8.7415 21.1196 8.64212 20.5752C8.27511 18.565 8.28147 16.6582 8.69594 14.648C8.80833 14.103 9.36669 13.7865 9.90276 13.9359L11.4892 14.378C11.4985 14.3806 11.5079 14.3831 11.5173 14.3853C11.8343 14.4569 12.1479 14.2975 12.2271 13.9833C12.9511 11.4324 14.0773 9.51924 16.0079 7.68577C16.0883 7.60605 16.1688 7.44662 16.1688 7.28719C16.1688 7.12775 16.0883 6.96832 16.0079 6.8886L14.8233 5.7147C14.4173 5.3124 14.4288 4.64984 14.8706 4.28732C16.4501 2.99135 18.1025 2.07207 19.9945 1.39725C20.5338 1.20487 21.1095 1.53614 21.2455 2.09236L21.6379 3.69646C21.6385 3.69879 21.6391 3.70115 21.6397 3.70348C21.7216 4.02 22.0422 4.17796 22.3628 4.09854C24.9106 3.46733 27.1432 3.46088 29.6846 4.15648C29.7368 4.17079 29.7871 4.19394 29.8402 4.20484C29.855 4.20788 29.8698 4.20978 29.8846 4.21067C30.1254 4.22522 30.414 4.14816 30.5284 3.93578C30.5518 3.89249 30.5746 3.83558 30.588 3.78828L31.0146 2.28521C31.167 1.74819 31.7308 1.437 32.2558 1.62673C34.1631 2.31602 35.8206 3.2861 37.3647 4.60446C37.7935 4.97056 37.7983 5.62235 37.3978 6.01923L36.1987 7.20747C36.1183 7.28718 36.0379 7.44662 36.0379 7.60605C36.0379 7.76548 36.1183 7.92491 36.1987 8.00463C38.0228 9.89087 39.1432 11.7771 39.7911 14.2745C39.8096 14.3456 39.835 14.4152 39.8687 14.4805C39.9002 14.5415 39.9317 14.6001 39.9632 14.6513C40.0193 14.7426 40.1077 14.8104 40.212 14.8346C40.2828 14.851 40.3535 14.8569 40.4242 14.859C40.5028 14.8614 40.5812 14.8509 40.6577 14.8325L42.2222 14.4567C42.7603 14.3274 43.3042 14.6593 43.4036 15.2036C43.7706 17.2138 43.7643 19.1207 43.3498 21.1308C43.2374 21.6759 42.6791 21.9924 42.143 21.843L40.6335 21.4223C40.573 21.4054 40.5151 21.3781 40.4531 21.368C40.322 21.3468 40.191 21.4117 40.0599 21.4767C39.9278 21.5421 39.85 21.6613 39.7818 21.7901C39.7521 21.8463 39.7294 21.9064 39.7117 21.9675C38.9868 24.4724 37.8647 26.3615 35.9574 28.1728C35.7161 28.412 35.7161 28.8105 35.9574 29.0497V29.0497L37.142 30.2236C37.548 30.6259 37.5365 31.2884 37.0947 31.651C35.5171 32.9454 33.8668 33.864 31.9776 34.5386C31.4358 34.7321 30.858 34.397 30.7251 33.8372L30.3535 32.2725Z" transform="translate(15 15)" fill="#99CEFF"/>
</g>
<defs>
<filter id="filter0_d" x="0" y="0" width="80.9954" height="73" filterUnits="userSpaceOnUse" color-interpolation-filters="sRGB">
<feFlood flood-opacity="0" result="BackgroundImageFix"/>
<feColorMatrix in="SourceAlpha" type="matrix" values="0 0 0 0 0 0 0 0 0 0 0 0 0 0 0 0 0 0 255 0"/>
<feOffset/>
<feGaussianBlur stdDeviation="7.5"/>
<feColorMatrix type="matrix" values="0 0 0 0 0.423581 0 0 0 0 0.896245 0 0 0 0 1 0 0 0 1 0"/>
<feBlend mode="normal" in2="BackgroundImageFix" result="effect1_dropShadow"/>
<feBlend mode="normal" in="SourceGraphic" in2="effect1_dropShadow" result="shape"/>
</filter>
</defs>
</svg>
