<?xml version="1.0" encoding="utf-8"?>
<!-- Generator: Adobe Illustrator 22.1.0, SVG Export Plug-In . SVG Version: 6.00 Build 0)  -->
<svg version="1.1" id="Layer_1" xmlns="http://www.w3.org/2000/svg" xmlns:xlink="http://www.w3.org/1999/xlink" x="0px" y="0px"
	 viewBox="0 0 262 53" style="enable-background:new 0 0 262 53;" xml:space="preserve">
<style type="text/css">
	.st0{fill:#FFFFFF;}
</style>
<path class="st0" d="M41.8,16.5l1-5.2c0.1-0.3-0.2-0.6-0.4-0.6h-6.9l1-5.5c0.1-0.3-0.2-0.6-0.4-0.6h-6.5c-0.5,0-1,0.4-1.1,0.9
	l-2.3,11.8h-8l2.4-12.2c0.1-0.3-0.2-0.6-0.4-0.6h-6.5c-0.5,0-1,0.4-1.1,0.9l-1.2,5.3H4.9c-0.5,0-1,0.4-1.1,0.9l-1,5.2
	c-0.1,0.3,0.2,0.6,0.4,0.6H10l-1.3,6.7H2.2c-0.5,0-1,0.4-1.1,0.9l-1,5.2c-0.1,0.3,0.2,0.6,0.4,0.6h6.8l-1,5.5c0,0.3,0.2,0.6,0.5,0.6
	h6.5c0.5,0,1-0.4,1.1-0.9l2.3-11.8h8l-2.4,12.2c0,0.3,0.2,0.5,0.5,0.5h6.6c0.5,0,1-0.4,1.1-0.9l1-5.1h6.5c0.5,0,1-0.4,1.1-0.9l1-5.2
	c0.1-0.3-0.2-0.6-0.4-0.6H33l1.3-6.7h6.5C41.2,17.5,41.7,17.1,41.8,16.5z"/>
<path class="st0" d="M84.5,36.7c-0.2,0.3-0.4,0.3-1,0.3h-5.8c-0.8,0-1.1-0.3-1-1.1l2.7-13.8c0.3-1.6,0.3-2.7-0.1-3.2
	c-0.3-0.5-1-0.8-2.1-0.8c-0.6,0-1.5,0.2-2.4,0.5c-1,0.3-1.8,0.7-2.6,1l-0.4,2.4l-2.7,13.8c-0.1,0.3-0.2,0.5-0.3,0.8
	c-0.2,0.2-0.5,0.3-1,0.3h-5.8c-0.8,0-1-0.3-0.9-1.1l2.7-14c0.3-1.5,0.3-2.5-0.1-3c-0.3-0.5-1-0.8-2-0.8c-0.6,0-1.5,0.2-2.4,0.4
	c-1,0.3-1.8,0.7-2.7,1l-3.2,16.3c-0.1,0.3-0.2,0.5-0.3,0.8c-0.2,0.3-0.5,0.3-1,0.3h-5.8c-0.8,0-1-0.3-0.9-1.1l4.6-23.6
	c0.1-0.3,0.2-0.6,0.4-0.9c0.2-0.2,0.5-0.3,1-0.3h5.8c0.5,0,0.8,0.1,0.9,0.3c0.1,0.3,0.1,0.5,0,0.8L58,13.5l0.1,0.1
	c1.3-0.9,2.7-1.6,4.1-2.2c1.4-0.5,2.9-0.8,4.2-0.8c1.6,0,2.9,0.3,4,0.9c1.1,0.6,1.8,1.5,2.1,2.7c1.5-1,3-1.9,4.8-2.6
	c1.6-0.7,3.3-1,4.8-1c1.9,0,3.3,0.3,4.2,0.9c1,0.6,1.6,1.4,1.8,2.4c0.3,0.9,0.4,2.1,0.3,3.3c-0.1,1.2-0.3,2.4-0.5,3.7l-2.9,15
	C84.8,36.2,84.7,36.5,84.5,36.7z"/>
<path class="st0" d="M89.6,28.7c0-1.1,0.1-2.2,0.3-3.4c0.2-1.1,0.4-2.2,0.7-3.4c0.3-1.3,0.9-2.7,1.5-4c0.6-1.3,1.5-2.5,2.6-3.6
	c1.1-1.1,2.5-2,4.2-2.6c1.6-0.7,3.8-1,6.3-1c1.2,0,2.4,0.2,3.5,0.4c1.1,0.3,2.2,0.7,3,1.3c0.9,0.6,1.6,1.3,2.1,2.2
	c0.5,0.9,0.8,1.9,0.8,3.1c0,2.1-0.5,3.7-1.6,5c-1.1,1.3-2.5,2.2-4.2,2.9c-1.6,0.7-3.5,1.1-5.4,1.4c-1.9,0.3-4.2,0.4-5.9,0.5
	c-0.2,0.3-0.3,1.4-0.3,1.9c0,1.6,2.7,1.7,3.2,1.8c2,0.3,6.1-0.3,9-0.8c0.3-0.1,0.7-0.1,1,0c0.3,0.1,0.3,0.3,0.3,0.9V34
	c0,0.7-0.1,1.2-0.3,1.5c-0.3,0.3-0.7,0.6-1.5,0.9c-0.6,0.2-1.3,0.4-2.1,0.5c-0.8,0.2-1.6,0.3-2.4,0.3c-0.9,0.1-1.6,0.2-2.5,0.2
	c-0.9,0.1-1.6,0.1-2.3,0.1c-1.5,0-2.9-0.2-4.2-0.4c-1.2-0.3-2.2-0.9-3.2-1.6c-0.9-0.7-1.6-1.6-2.1-2.8
	C89.9,31.6,89.6,30.2,89.6,28.7z M107.1,18.8c0-0.7-0.3-1.2-0.7-1.6c-0.4-0.4-1.1-0.7-2-0.7c-0.9,0-2,0.3-2.6,0.7
	c-0.6,0.4-1.1,1-1.6,1.7c-0.4,0.7-0.8,1.5-1,2.3C99,22.1,99,22,98.8,22.8c4.3,0.2,7.1-1.2,7.6-1.8C106.8,20.4,107.1,19.7,107.1,18.8
	z"/>
<path class="st0" d="M132.9,34.6c0,0.3-0.1,0.8-0.3,1c-0.3,0.3-0.6,0.5-1,0.6c-0.7,0.2-1.4,0.3-2.2,0.5c-0.8,0.2-1.5,0.3-2.2,0.3
	c-0.7,0.1-1.4,0.2-2,0.2c-0.6,0-1.1,0.1-1.6,0.1c-1.6,0-2.9-0.3-3.9-0.7c-1-0.4-1.6-1.1-2-1.9c-0.4-0.8-0.6-1.6-0.6-2.7
	c0-1,0.1-2.1,0.3-3.1l2.3-11.7h-2.3c-0.4,0-0.7-0.1-0.8-0.3c-0.1-0.2-0.2-0.5-0.1-0.9l0.8-4c0.1-0.3,0.2-0.7,0.4-0.9
	c0.2-0.2,0.5-0.3,1-0.3h2.3l1-5c0.3-1,0.7-1.4,1.6-1.4h5.6c0.9,0,0.7,0.5,0.7,0.9l-1,5.4h5.4c0.5,0,0.8,0.1,0.9,0.3
	c0.1,0.2,0.1,0.4,0,0.9l-0.8,4c-0.1,0.3-0.2,0.7-0.3,0.9c-0.2,0.2-0.5,0.3-1,0.3h-5.4l-1.8,9.7c-0.1,0.5-0.2,0.9-0.2,1.3
	c0,0.3,0.1,0.6,0.2,0.9c0.2,0.3,0.4,0.4,0.9,0.5c0.4,0.1,1,0.2,1.7,0.2c0.4,0,1,0,1.6-0.1c0.7,0,1.4-0.1,2-0.2c0.3,0,0.6,0,0.8,0.1
	c0.2,0.1,0.3,0.4,0.3,1L132.9,34.6z"/>
<path class="st0" d="M159.1,35.9c0,0.3-0.2,0.5-0.3,0.8c-0.2,0.3-0.5,0.3-1,0.3h-6c-0.4,0-0.7-0.1-0.8-0.3c-0.1-0.2-0.1-0.4,0-0.8
	l0.3-1.3l-0.1-0.1c-1.5,0.9-2.9,1.7-4.2,2.2c-1.3,0.4-2.6,0.7-3.8,0.7c-2.6,0-4.4-0.7-5.4-2c-1-1.4-1.5-3.2-1.5-5.4
	c0-0.9,0.1-1.7,0.2-2.7s0.3-1.9,0.4-2.9c0.3-2.1,0.9-3.9,1.5-5.5c0.6-1.6,1.3-3.1,2.2-4.2c1-1.2,2.1-2.1,3.4-2.8
	c1.4-0.7,3-0.9,5-0.9c1,0,2,0.2,3.2,0.4c1.2,0.3,2.2,0.8,3.3,1.3l0.2-0.9c0.1-0.3,0.2-0.6,0.3-0.7c0.2-0.1,0.4-0.2,0.8-0.2h5.9
	c0.5,0,0.8,0.1,0.9,0.3c0.1,0.2,0.1,0.5,0,0.9L159.1,35.9z M150.4,17.6c-0.7,0-1.5,0.1-2,0.3c-0.5,0.3-1,0.5-1.4,1
	c-0.3,0.4-1,1.8-1.2,2.6c-0.3,0.8-0.5,1.6-0.7,2.7c-0.3,1.4-0.4,2.8-0.4,3.5c0,1.1,0.2,1.9,0.5,2.2c0.3,0.3,1,0.5,1.7,0.5
	c0.8,0,2-0.3,3-0.5c0.9-0.3,1.9-0.8,2.3-1l2.1-10.4C152.9,17.8,151.5,17.6,150.4,17.6z"/>
<path class="st0" d="M187,36.1c-0.1,0.6-0.4,0.9-1.1,0.9h-2.2c-0.6,0-0.9-0.3-0.7-0.9l3-15.5c0.2-1.2,0.3-2.2,0.3-2.9
	s-0.1-1.4-0.3-1.9c-0.3-0.4-0.6-0.8-1.1-0.9c-0.5-0.2-1.2-0.3-2-0.3c-0.6,0-1.4,0.1-2.3,0.3c-1,0.3-1.8,0.5-2.7,0.9
	c-0.9,0.3-1.7,0.6-2.6,0.9c-0.8,0.3-1.4,0.6-1.8,0.8l-3.6,18.6c-0.1,0.6-0.4,0.9-1.1,0.9h-2.2c-0.6,0-0.9-0.3-0.7-0.9l7-35.2
	c0.2-0.6,0.5-0.9,1-0.9h2.2c0.6,0,0.9,0.3,0.8,0.9l-2.6,13.4h0.1c0.5-0.3,1.1-0.6,1.9-1c0.8-0.3,1.6-0.8,2.5-1
	c0.9-0.3,1.8-0.6,2.8-0.9c1-0.3,1.9-0.3,2.9-0.3c1.7,0,3,0.3,3.9,0.8c1,0.5,1.6,1.2,1.9,2c0.3,0.9,0.5,1.9,0.4,3.1s-0.3,2.5-0.5,3.9
	L187,36.1z"/>
<path class="st0" d="M211.5,36.1c-0.1,0.6-0.4,0.9-1,0.9h-2.2c-0.6,0-0.9-0.3-0.8-0.9l0.3-2c-1.3,0.8-2.8,1.6-4.3,2.3
	c-1.6,0.7-3.4,1-5.4,1c-2.4,0-4.2-0.6-5.2-1.8c-1-1.2-1.6-3-1.6-5.3c0-0.9,0.1-1.8,0.2-2.8c0.1-1,0.3-2.1,0.5-3
	c0.4-2.2,1-4.1,1.6-5.8c0.6-1.6,1.4-3.1,2.3-4.2c1-1.1,2.2-2.1,3.5-2.6c1.4-0.6,3.1-0.9,5.2-0.9c1,0,2.1,0.2,3.4,0.5
	c1.3,0.3,2.5,0.8,3.8,1.5L212,13l0.2-0.8c0.1-0.3,0.2-0.5,0.3-0.6c0.2-0.1,0.4-0.1,0.8-0.1h2c0.3,0,0.6,0.1,0.8,0.2
	c0.1,0.1,0.1,0.3,0.1,0.8L211.5,36.1z M211.5,16.2c-2.5-1.1-4.9-1.6-7.3-1.6c-1.1,0-2.2,0.2-2.9,0.5c-0.9,0.3-1.6,0.9-2.2,1.6
	c-0.6,0.8-1.1,1.8-1.6,3.1c-0.4,1.3-0.9,2.8-1.2,4.7c-0.2,1.1-0.3,2.2-0.5,3c-0.1,0.9-0.2,1.6-0.2,2.2c0,1.6,0.3,2.7,1,3.2
	c0.6,0.5,1.6,0.8,2.8,0.8c0.6,0,1.4-0.1,2.2-0.3c0.9-0.2,1.7-0.4,2.6-0.8c0.9-0.3,1.7-0.6,2.5-0.9c0.8-0.3,1.5-0.6,1.9-0.9
	L211.5,16.2z"/>
<path class="st0" d="M237.1,14.5c-0.1,0.3-0.3,0.4-0.5,0.5c-0.3,0.1-0.6,0.1-1,0.1c-1-0.1-2.2-0.3-3.3-0.3c-1.1-0.1-2.2-0.2-3.4-0.2
	c-0.9,0-1.6,0.1-2.3,0.2c-0.7,0.1-1.4,0.3-1.9,0.7c-0.5,0.3-1,0.8-1.2,1.3c-0.3,0.5-0.4,1.2-0.4,2.1c0,0.6,0.2,1.1,0.4,1.5
	c0.3,0.3,0.6,0.7,1,0.9c0.4,0.3,1,0.4,1.6,0.6c0.6,0.2,1.1,0.3,1.7,0.4c0.5,0.1,1.3,0.3,2.2,0.5c0.9,0.3,1.7,0.6,2.5,1
	c0.8,0.4,1.5,1.1,2.1,1.9c0.5,0.8,0.9,1.8,0.9,3.1c0,1.7-0.3,3.2-0.9,4.3c-0.6,1.1-1.4,2-2.4,2.7c-1,0.7-2.2,1.1-3.5,1.4
	c-1.4,0.3-2.8,0.4-4.2,0.4c-0.7,0-1.4,0-2.2-0.1c-0.8-0.1-1.6-0.2-2.3-0.3c-0.8-0.1-1.5-0.3-2.1-0.3c-0.7-0.2-1.2-0.3-1.6-0.5
	c-0.4-0.3-0.5-0.6-0.3-1.1l0.4-1.1c0.2-0.3,0.3-0.5,0.5-0.6c0.2-0.1,0.4-0.1,0.8-0.1c0.5,0.1,1.1,0.2,1.7,0.2c0.7,0.1,1.3,0.2,2,0.2
	c0.7,0.1,1.3,0.1,2,0.2c0.6,0,1.1,0.1,1.6,0.1c1,0,1.7-0.1,2.6-0.2c0.8-0.2,1.5-0.3,2.1-0.7c0.6-0.3,1-0.8,1.4-1.4
	c0.3-0.6,0.5-1.4,0.5-2.3c0-1.3-0.4-2.2-1.3-2.7c-0.9-0.5-1.9-0.9-3.2-1c-0.8-0.1-1.6-0.3-2.5-0.5c-1-0.3-1.7-0.6-2.6-1
	c-0.8-0.4-1.5-1-2-1.8c-0.5-0.8-0.8-1.7-0.8-2.9c0-1.6,0.3-2.8,0.9-3.9c0.6-1,1.3-1.9,2.3-2.6c1-0.7,2.1-1.1,3.4-1.4
	c1.2-0.3,2.6-0.4,4-0.4c0.5,0,1.1,0,1.8,0.1c0.7,0,1.5,0.1,2.2,0.2c0.8,0.1,1.5,0.3,2.2,0.4c0.7,0.2,1.3,0.3,1.7,0.5
	c0.3,0.1,0.3,0.3,0.4,0.4c0,0.2,0,0.4-0.1,0.6L237.1,14.5z"/>
<path class="st0" d="M258.4,36.1c-0.1,0.6-0.4,0.9-1.1,0.9h-2.2c-0.6,0-0.9-0.3-0.7-0.9l3-15.5c0.2-1.2,0.3-2.2,0.3-2.9
	s-0.1-1.4-0.3-1.9c-0.3-0.4-0.6-0.8-1.1-0.9c-0.5-0.2-1.2-0.3-2-0.3c-0.6,0-1.4,0.1-2.3,0.3c-1,0.3-1.8,0.5-2.7,0.9
	c-0.9,0.3-1.7,0.6-2.6,0.9c-0.8,0.3-1.4,0.6-1.8,0.8l-3.5,18.6c-0.1,0.6-0.4,0.9-1.1,0.9H238c-0.6,0-0.9-0.3-0.7-0.9l6.9-35.2
	c0.2-0.6,0.5-0.9,1-0.9h2.2c0.6,0,0.9,0.3,0.8,0.9l-2.6,13.4h0.1c0.5-0.3,1.1-0.6,1.9-1c0.8-0.3,1.6-0.8,2.5-1
	c0.9-0.3,1.8-0.6,2.8-0.9c1-0.3,1.9-0.3,2.9-0.3c1.7,0,3,0.3,3.9,0.8c1,0.5,1.6,1.2,1.9,2c0.3,0.9,0.5,1.9,0.4,3.1
	c-0.1,1.2-0.3,2.5-0.5,3.9L258.4,36.1z"/>
<path class="st0" d="M8.5,44c0.2,0,0.3,0,0.5,0c0.2,0,0.4,0,0.6,0.1c0.3,0,0.4,0.1,0.7,0.1c0.3,0.1,0.4,0.1,0.6,0.2
	c0.1,0.1,0.2,0.1,0.2,0.2c0,0.1,0,0.1,0,0.2L11,45c0,0.1,0,0.1-0.1,0.1c0,0-0.1,0.1-0.2,0c-0.3-0.1-0.6-0.1-1-0.1
	c-0.4,0-0.8-0.1-1.2-0.1c-0.5,0-1,0.1-1.2,0.3c-0.3,0.2-0.5,0.4-0.7,0.8c-0.2,0.3-0.3,0.7-0.3,1.1c-0.1,0.4-0.1,0.9-0.1,1.4
	c0,0.4,0,0.9,0.1,1.3c0.1,0.4,0.2,0.8,0.3,1.1c0.2,0.3,0.4,0.6,0.7,0.8c0.3,0.2,0.7,0.3,1.2,0.3c0.4,0,0.8,0,1.2-0.1
	c0.3,0,0.7-0.1,1-0.1c0.1,0,0.2,0,0.2,0l0.1,0.1l0.1,0.3c0,0.1,0,0.1,0,0.2c0,0.1-0.1,0.1-0.2,0.1c-0.2,0.1-0.3,0.1-0.6,0.2
	c-0.3,0.1-0.4,0.1-0.7,0.1c-0.3,0-0.4,0.1-0.6,0.1c-0.2,0-0.3,0-0.5,0c-0.7,0-1.3-0.1-1.7-0.3c-0.4-0.3-0.8-0.6-1-0.9
	c-0.3-0.4-0.4-0.9-0.5-1.4c-0.1-0.5-0.1-0.9-0.1-1.5c0-0.6,0-1.1,0.1-1.7c0.1-0.5,0.3-1,0.5-1.5c0.3-0.4,0.6-0.8,1-1S7.8,44,8.5,44z
	"/>
<path class="st0" d="M20.9,48.3c0,0.5,0,1-0.1,1.6c-0.1,0.5-0.2,1-0.4,1.5c-0.3,0.4-0.6,0.9-1,1.1c-0.4,0.3-1.1,0.4-1.9,0.4
	c-0.5,0-1-0.1-1.3-0.2c-0.3-0.2-0.7-0.3-1-0.5c-0.3-0.3-0.4-0.5-0.6-0.8c-0.2-0.3-0.3-0.6-0.3-0.9c-0.1-0.3-0.2-0.7-0.2-1
	c0-0.3,0-0.7,0-1c0-0.3,0-0.6,0-0.9c0-0.3,0.1-0.7,0.2-0.9c0.1-0.3,0.2-0.6,0.3-0.9c0.2-0.3,0.3-0.6,0.6-0.8c0.3-0.3,0.5-0.4,1-0.5
	c0.3-0.2,0.8-0.2,1.3-0.2c0.8,0,1.4,0.1,1.8,0.3c0.4,0.3,0.8,0.6,1,1c0.3,0.4,0.4,0.9,0.4,1.4C20.9,47.3,20.9,47.8,20.9,48.3z
	 M19.8,48.4c0-0.6,0-1.1-0.1-1.6c-0.1-0.4-0.2-0.9-0.4-1.1c-0.2-0.3-0.4-0.5-0.8-0.7c-0.3-0.2-0.7-0.3-1.2-0.3
	c-0.4,0-0.8,0.1-1.1,0.3c-0.3,0.2-0.5,0.4-0.7,0.7c-0.2,0.3-0.3,0.7-0.3,1.1c-0.1,0.4-0.1,0.9-0.1,1.5c0,0.5,0,1,0.1,1.5
	c0.1,0.4,0.2,0.8,0.3,1.1c0.2,0.3,0.4,0.5,0.7,0.7c0.3,0.2,0.7,0.3,1.1,0.3c0.5,0,0.9-0.1,1.2-0.3c0.3-0.2,0.5-0.4,0.8-0.7
	c0.2-0.3,0.3-0.7,0.3-1.1C19.8,49.6,19.8,49,19.8,48.4z"/>
<path class="st0" d="M25.8,45.9v6.7c0,0.2-0.1,0.3-0.3,0.3H25c-0.2,0-0.3-0.1-0.3-0.3v-8.4c0-0.2,0.1-0.2,0.2-0.2h0.5
	c0.1,0,0.2,0,0.2,0.1c0,0,0.1,0.1,0.1,0.2l3.6,5.5L30,51v-6.6c0-0.1,0-0.2,0.1-0.2c0,0,0.1-0.1,0.2-0.1h0.5c0.1,0,0.1,0,0.2,0.1
	c0,0,0.1,0.1,0.1,0.2v8.4c0,0.2-0.1,0.2-0.2,0.2h-0.5c-0.1,0-0.2,0-0.2-0.1c-0.1,0-0.1-0.1-0.2-0.2l-3.5-5.5L25.8,45.9z"/>
<path class="st0" d="M38.3,44c0.2,0,0.3,0,0.5,0c0.2,0,0.4,0,0.6,0.1c0.3,0,0.4,0.1,0.7,0.1c0.3,0.1,0.4,0.1,0.6,0.2
	c0.1,0.1,0.2,0.1,0.2,0.2c0,0.1,0,0.1,0,0.2L40.8,45c0,0.1,0,0.1-0.1,0.1c0,0-0.1,0.1-0.2,0C40.3,45,40,45,39.5,45
	c-0.4,0-0.8-0.1-1.2-0.1c-0.5,0-1,0.1-1.2,0.3c-0.3,0.2-0.5,0.4-0.7,0.8c-0.2,0.3-0.3,0.7-0.3,1.1C36,47.5,36,47.9,36,48.4
	c0,0.4,0,0.9,0.1,1.3c0.1,0.4,0.2,0.8,0.3,1.1c0.2,0.3,0.4,0.6,0.7,0.8c0.3,0.2,0.7,0.3,1.2,0.3c0.4,0,0.8,0,1.2-0.1
	c0.3,0,0.7-0.1,1-0.1c0.1,0,0.2,0,0.2,0l0.1,0.1l0.1,0.3c0,0.1,0,0.1,0,0.2c0,0.1-0.1,0.1-0.2,0.1c-0.2,0.1-0.3,0.1-0.6,0.2
	c-0.3,0.1-0.4,0.1-0.7,0.1c-0.3,0-0.4,0.1-0.6,0.1s-0.3,0-0.5,0c-0.7,0-1.3-0.1-1.7-0.3c-0.4-0.3-0.8-0.6-1-0.9
	c-0.3-0.4-0.4-0.9-0.5-1.4c-0.1-0.5-0.2-1.1-0.2-1.6c0-0.6,0-1.1,0.1-1.7c0.1-0.5,0.3-1,0.5-1.5c0.3-0.4,0.6-0.8,1-1
	C37,44.1,37.6,44,38.3,44z"/>
<path class="st0" d="M50.7,48.3c0,0.5,0,1-0.1,1.6c-0.1,0.5-0.2,1-0.4,1.5c-0.3,0.4-0.6,0.9-1,1.1C48.7,52.8,48,53,47.2,53
	c-0.5,0-1-0.1-1.3-0.2c-0.3-0.2-0.7-0.3-1-0.5c-0.3-0.3-0.4-0.5-0.6-0.8c-0.2-0.3-0.3-0.6-0.3-0.9c-0.1-0.3-0.2-0.7-0.2-1
	c0-0.3,0-0.7,0-1c0-0.3,0-0.6,0-0.9c0-0.3,0.1-0.7,0.2-0.9c0.1-0.3,0.2-0.6,0.3-0.9c0.2-0.3,0.3-0.6,0.6-0.8c0.3-0.3,0.5-0.4,1-0.5
	c0.4-0.1,0.8-0.2,1.3-0.2c0.8,0,1.4,0.1,1.8,0.3s0.8,0.6,1,1c0.3,0.4,0.4,0.9,0.4,1.4C50.7,47.3,50.7,47.8,50.7,48.3z M49.7,48.4
	c0-0.6,0-1.1-0.1-1.6c-0.1-0.4-0.2-0.9-0.4-1.1c-0.2-0.3-0.4-0.5-0.8-0.7c-0.3-0.2-0.7-0.3-1.2-0.3c-0.4,0-0.8,0.1-1.1,0.3
	c-0.3,0.2-0.5,0.4-0.7,0.7c-0.2,0.3-0.3,0.7-0.3,1.1c0,0.5,0,1,0,1.6c0,0.5,0,1,0.1,1.5c0.1,0.4,0.2,0.8,0.3,1.1
	c0.2,0.3,0.4,0.5,0.7,0.7c0.3,0.2,0.7,0.3,1.1,0.3c0.5,0,0.9-0.1,1.2-0.3c0.3-0.2,0.5-0.4,0.8-0.7c0.2-0.3,0.3-0.7,0.3-1.1
	C49.7,49.6,49.7,49,49.7,48.4z"/>
<path class="st0" d="M60.1,52.7c0,0.1,0,0.1,0,0.2c0,0.1-0.1,0.1-0.1,0.1h-0.8c-0.1,0-0.1,0-0.2,0c-0.1,0-0.1-0.1-0.1-0.2l-1.7-3.5
	h-1.7v3.4c0,0.2-0.1,0.3-0.3,0.3h-0.6c-0.2,0-0.3-0.1-0.3-0.3v-8.4c0-0.2,0.1-0.2,0.3-0.2h2.7c0.3,0,0.7,0.1,1,0.2
	c0.3,0.1,0.6,0.3,0.9,0.4c0.3,0.2,0.4,0.4,0.6,0.8c0.2,0.3,0.2,0.7,0.2,1.1c0,0.3,0,0.5-0.1,0.8c-0.1,0.3-0.2,0.5-0.3,0.7
	c-0.2,0.3-0.3,0.4-0.5,0.6c-0.3,0.2-0.5,0.3-0.8,0.4L60.1,52.7z M58.9,46.5c0-0.3-0.1-0.6-0.2-0.8c-0.1-0.2-0.3-0.3-0.4-0.4
	c-0.2-0.1-0.3-0.2-0.5-0.3C57.6,45,57.4,45,57.2,45h-1.6v3.3h1.6c0.2,0,0.4,0,0.6-0.1c0.2,0,0.4-0.1,0.6-0.3
	c0.2-0.1,0.3-0.3,0.4-0.5C58.9,47.2,58.9,46.9,58.9,46.5z"/>
<path class="st0" d="M70.1,48.4c0,0.6-0.1,1.2-0.2,1.7c-0.1,0.5-0.3,1-0.5,1.4c-0.3,0.4-0.6,0.7-1.1,0.9c-0.4,0.3-1,0.3-1.8,0.3
	h-2.5c-0.1,0-0.2,0-0.3-0.1c0,0-0.1-0.1-0.1-0.2v-8.4c0-0.2,0.1-0.2,0.3-0.2h2.5c0.7,0,1.3,0.1,1.7,0.3c0.4,0.3,0.9,0.5,1.1,0.9
	c0.3,0.4,0.4,0.9,0.5,1.4C70,47.3,70.1,47.8,70.1,48.4z M68.9,48.6c0-0.8-0.1-1.4-0.2-1.8c-0.2-0.4-0.3-0.9-0.5-1.1
	c-0.3-0.3-0.5-0.4-0.8-0.5c-0.3-0.1-0.6-0.2-1-0.2h-1.7v6.9h1.6c0.3,0,0.6,0,1-0.1c0.3-0.1,0.6-0.3,0.9-0.4c0.3-0.3,0.4-0.6,0.6-1
	C68.9,49.9,68.9,49.3,68.9,48.6z"/>
<path class="st0" d="M74.7,52.9h-0.6c-0.2,0-0.3-0.1-0.3-0.3v-8.4c0-0.1,0-0.2,0.1-0.2c0,0,0.1-0.1,0.2-0.1h0.6c0.1,0,0.1,0,0.2,0.1
	c0,0,0.1,0.1,0.1,0.2v8.4C75,52.8,74.9,52.9,74.7,52.9z"/>
<path class="st0" d="M79.5,52.7c0,0.1-0.1,0.2-0.1,0.2c-0.1,0-0.1,0-0.2,0h-0.7c-0.1,0-0.2-0.1-0.1-0.2l2.8-8.4
	c0-0.2,0.1-0.2,0.3-0.2h0.8c0.1,0,0.2,0,0.2,0.1c0,0,0.1,0.1,0.1,0.2l2.8,8.4c0,0.1,0,0.2-0.1,0.2h-0.8c-0.1,0-0.1,0-0.2,0
	c0,0-0.1-0.1-0.1-0.2l-0.7-2.2h-3.3L79.5,52.7z M82.5,47.4l-0.6-2.2l-0.6,2.2l-0.7,2.2h2.7L82.5,47.4z"/>
<path class="st0" d="M99.6,52.7c0,0.1,0,0.1,0,0.2c0,0.1-0.1,0.1-0.1,0.1h-0.8c-0.1,0-0.1,0-0.2,0c-0.1,0-0.1-0.1-0.1-0.2l-1.7-3.5
	h-1.7v3.4c0,0.2-0.1,0.3-0.3,0.3h-0.5c-0.2,0-0.3-0.1-0.3-0.3v-8.4c0-0.2,0.1-0.2,0.3-0.2H97c0.3,0,0.7,0.1,1,0.2
	c0.3,0.1,0.6,0.3,0.9,0.4c0.3,0.2,0.4,0.4,0.6,0.8c0.2,0.3,0.2,0.7,0.2,1.1c0,0.3,0,0.5-0.1,0.8c-0.1,0.3-0.2,0.5-0.3,0.7
	c-0.2,0.3-0.3,0.4-0.5,0.6c-0.3,0.2-0.5,0.3-0.8,0.4L99.6,52.7z M98.4,46.5c0-0.3-0.1-0.6-0.2-0.8c-0.1-0.2-0.3-0.3-0.4-0.4
	c-0.2-0.1-0.3-0.2-0.5-0.3C97.1,45,96.9,45,96.7,45h-1.6v3.3h1.6c0.2,0,0.4,0,0.6-0.1c0.2,0,0.4-0.1,0.6-0.3
	c0.2-0.1,0.3-0.3,0.4-0.5C98.4,47.2,98.4,46.9,98.4,46.5z"/>
<path class="st0" d="M108.3,52.8c0,0-0.1,0-0.2,0h-4.7c-0.2,0-0.3-0.1-0.3-0.2v-8.4c0-0.2,0.1-0.3,0.3-0.3h4.6
	c0.2,0,0.3,0.1,0.3,0.2v0.6c0,0.2-0.1,0.3-0.3,0.3h-3.8v2.8h3.4c0.2,0,0.3,0.1,0.3,0.2v0.5c0,0.2-0.1,0.2-0.3,0.2h-3.4V52h3.9
	c0.2,0,0.2,0.1,0.2,0.3V52.8C108.4,52.7,108.3,52.8,108.3,52.8z"/>
<path class="st0" d="M117.5,50.4c0,0.5-0.1,0.9-0.3,1.2c-0.2,0.3-0.3,0.6-0.7,0.8c-0.3,0.2-0.6,0.3-1,0.4c-0.3,0.1-0.8,0.2-1.1,0.2
	c-0.2,0-0.4,0-0.6,0c-0.3,0-0.4,0-0.7-0.1c-0.3,0-0.4-0.1-0.7-0.1c-0.3-0.1-0.4-0.1-0.5-0.2c-0.1-0.1-0.2-0.1-0.2-0.2s0-0.1,0-0.2
	l0.1-0.3c0-0.1,0.1-0.2,0.3-0.2c0.2,0,0.4,0.1,0.6,0.1c0.3,0,0.4,0,0.7,0.1c0.3,0,0.4,0,0.6,0c0.2,0,0.3,0,0.5,0
	c0.7,0,1.2-0.1,1.5-0.3c0.3-0.3,0.5-0.6,0.5-1c0-0.3,0-0.5-0.1-0.8c-0.1-0.2-0.2-0.3-0.3-0.5c-0.2-0.1-0.3-0.3-0.6-0.3
	c-0.3-0.1-0.5-0.2-0.9-0.2c-0.4-0.1-0.8-0.2-1.1-0.3c-0.3-0.1-0.7-0.3-0.9-0.3c-0.3-0.2-0.4-0.3-0.6-0.7c-0.2-0.3-0.3-0.6-0.3-1
	c0-0.8,0.3-1.5,0.7-1.9c0.5-0.4,1.2-0.6,2.1-0.6c0.2,0,0.3,0,0.5,0c0.2,0,0.4,0,0.6,0.1c0.3,0,0.4,0.1,0.7,0.1
	c0.3,0.1,0.4,0.1,0.6,0.2c0.1,0,0.2,0.1,0.2,0.1c0,0.1,0,0.1,0,0.2l-0.1,0.3c0,0.1,0,0.1-0.1,0.1c0,0-0.1,0.1-0.2,0
	c-0.3-0.1-0.6-0.1-1-0.1s-0.8-0.1-1.2-0.1c-0.3,0-0.6,0-0.9,0.1c-0.3,0.1-0.4,0.2-0.5,0.3c-0.2,0.1-0.3,0.3-0.3,0.4
	c-0.1,0.2-0.1,0.4-0.1,0.6c0,0.3,0,0.5,0.1,0.6c0.1,0.2,0.2,0.3,0.3,0.3c0.2,0.1,0.3,0.2,0.6,0.3c0.3,0.1,0.5,0.1,0.9,0.2
	c0.3,0.1,0.8,0.2,1.1,0.3c0.3,0.1,0.6,0.3,0.9,0.4c0.3,0.2,0.4,0.4,0.6,0.7C117.5,49.6,117.5,50,117.5,50.4z"/>
<path class="st0" d="M132.2,46.6c0,0.3,0,0.6-0.1,0.9c-0.1,0.3-0.3,0.6-0.4,0.9c-0.2,0.3-0.5,0.4-0.9,0.6c-0.3,0.2-0.8,0.3-1.3,0.3
	h-1.7v3.4c0,0.2-0.1,0.3-0.3,0.3h-0.6c-0.2,0-0.3-0.1-0.3-0.3v-8.4c0-0.2,0.1-0.2,0.3-0.2h2.5c0.4,0,0.8,0.1,1.1,0.2
	c0.3,0.1,0.6,0.3,0.9,0.5c0.3,0.2,0.4,0.5,0.6,0.8C132.1,45.8,132.2,46.2,132.2,46.6z M131.1,46.6c0-0.5-0.2-0.9-0.5-1.2
	c-0.3-0.3-0.8-0.4-1.3-0.4h-1.6v3.4h1.7c0.3,0,0.6-0.1,0.9-0.2c0.3-0.1,0.4-0.3,0.5-0.4c0.1-0.2,0.3-0.3,0.3-0.5
	C131.1,47.1,131.1,46.9,131.1,46.6z"/>
<path class="st0" d="M135.5,52.7c0,0.1-0.1,0.2-0.1,0.2c-0.1,0-0.1,0-0.2,0h-0.7c-0.1,0-0.2-0.1-0.1-0.2l2.8-8.4
	c0-0.2,0.1-0.2,0.3-0.2h0.8c0.1,0,0.2,0,0.2,0.1c0,0,0.1,0.1,0.1,0.2l2.8,8.4c0,0.1,0,0.2-0.1,0.2h-0.8c-0.1,0-0.1,0-0.2,0
	c0,0-0.1-0.1-0.1-0.2l-0.7-2.2h-3.3L135.5,52.7z M138.5,47.4l-0.6-2.2l-0.6,2.2l-0.7,2.2h2.7L138.5,47.4z"/>
<path class="st0" d="M150.2,52.7c0,0.1,0,0.1,0,0.2c0,0.1-0.1,0.1-0.1,0.1h-0.8c-0.1,0-0.1,0-0.2,0c-0.1,0-0.1-0.1-0.1-0.2l-1.7-3.5
	h-1.7v3.4c0,0.2-0.1,0.3-0.3,0.3h-0.6c-0.2,0-0.3-0.1-0.3-0.3v-8.4c0-0.2,0.1-0.2,0.3-0.2h2.7c0.3,0,0.7,0.1,1,0.2
	c0.3,0.1,0.6,0.3,0.9,0.4c0.3,0.2,0.4,0.4,0.6,0.8c0.2,0.3,0.2,0.7,0.2,1.1c0,0.3,0,0.5-0.1,0.8c-0.1,0.3-0.2,0.5-0.3,0.7
	c-0.2,0.3-0.3,0.4-0.5,0.6c-0.3,0.2-0.5,0.3-0.8,0.4L150.2,52.7z M148.9,46.5c0-0.3-0.1-0.6-0.2-0.8c-0.1-0.2-0.3-0.3-0.4-0.4
	c-0.2-0.1-0.3-0.2-0.5-0.3c-0.2-0.1-0.4-0.1-0.6-0.1h-1.6v3.3h1.6c0.2,0,0.4,0,0.6-0.1c0.2,0,0.4-0.1,0.6-0.3
	c0.2-0.1,0.3-0.3,0.4-0.5C148.9,47.2,148.9,46.9,148.9,46.5z"/>
<path class="st0" d="M156.5,51.5l1-3.2l1.3-4.1c0-0.1,0.1-0.2,0.3-0.2h0.7c0.1,0,0.2,0.1,0.1,0.2l-2.8,8.4c0,0.1-0.1,0.2-0.3,0.2
	h-0.7c-0.1,0-0.2,0-0.2,0s-0.1-0.1-0.1-0.2l-2.8-8.4c-0.1-0.2,0-0.2,0.1-0.2h0.7c0.1,0,0.2,0,0.2,0s0.1,0.1,0.1,0.2l1.3,4.1
	L156.5,51.5z"/>
<path class="st0" d="M162.9,52.7c0,0.1-0.1,0.2-0.1,0.2c-0.1,0-0.1,0-0.2,0h-0.7c-0.1,0-0.2-0.1-0.1-0.2l2.8-8.4
	c0-0.2,0.1-0.2,0.3-0.2h0.8c0.1,0,0.2,0,0.2,0.1c0,0,0.1,0.1,0.1,0.2l2.8,8.4c0,0.1,0,0.2-0.1,0.2h-0.8c-0.1,0-0.1,0-0.2,0
	c0,0-0.1-0.1-0.1-0.2l-0.7-2.2h-3.3L162.9,52.7z M165.8,47.4l-0.6-2.2l-0.6,2.2l-0.7,2.2h2.7L165.8,47.4z"/>
<path class="st0" d="M177.1,52.8c0,0-0.1,0-0.2,0h-4.7c-0.2,0-0.3-0.1-0.3-0.2v-8.4c0-0.2,0.1-0.3,0.3-0.3h4.6
	c0.2,0,0.3,0.1,0.3,0.2v0.6c0,0.2-0.1,0.3-0.3,0.3H173v2.8h3.4c0.2,0,0.3,0.1,0.3,0.2v0.5c0,0.2-0.1,0.2-0.3,0.2H173V52h3.9
	c0.2,0,0.2,0.1,0.2,0.3V52.8C177.1,52.7,177.1,52.8,177.1,52.8z"/>
<path class="st0" d="M189.6,44c0.2,0,0.3,0,0.5,0c0.2,0,0.4,0,0.6,0.1c0.2,0.1,0.4,0.1,0.7,0.1c0.3,0.1,0.4,0.1,0.6,0.2
	c0.1,0.1,0.2,0.1,0.2,0.2c0,0.1,0,0.1,0,0.2l-0.1,0.3c0,0.1,0,0.1-0.1,0.1c0,0-0.1,0.1-0.2,0c-0.3-0.1-0.6-0.1-1-0.1
	s-0.8-0.1-1.2-0.1c-0.5,0-1,0.1-1.2,0.3c-0.3,0.2-0.5,0.4-0.7,0.8c-0.2,0.3-0.3,0.7-0.3,1.1c-0.1,0.4-0.1,0.9-0.1,1.4
	c0,0.4,0,0.9,0.1,1.3c0.1,0.4,0.2,0.8,0.3,1.1c0.2,0.3,0.4,0.6,0.7,0.8s0.7,0.3,1.2,0.3c0.4,0,0.8,0,1.2-0.1c0.3,0,0.7-0.1,1-0.1
	c0.1,0,0.2,0,0.2,0l0.1,0.1l0.1,0.3c0,0.1,0,0.1,0,0.2c0,0.1-0.1,0.1-0.2,0.1c-0.2,0.1-0.3,0.1-0.6,0.2c-0.3,0.1-0.4,0.1-0.7,0.1
	c-0.3,0-0.4,0.1-0.6,0.1c-0.2,0-0.3,0-0.5,0c-0.7,0-1.3-0.1-1.7-0.3c-0.4-0.3-0.8-0.6-1-0.9c-0.3-0.4-0.4-0.9-0.5-1.4
	c-0.1-0.5-0.2-1.1-0.2-1.6c0-0.6,0-1.1,0.1-1.7c0.1-0.5,0.3-1,0.5-1.5c0.3-0.4,0.6-0.8,1-1C188.3,44.1,188.9,44,189.6,44z"/>
<path class="st0" d="M201.2,52.7c0,0.1,0,0.1,0,0.2c0,0.1-0.1,0.1-0.1,0.1h-0.8c-0.1,0-0.1,0-0.2,0s-0.1-0.1-0.1-0.2l-1.7-3.5h-1.7
	v3.4c0,0.2-0.1,0.3-0.3,0.3h-0.6c-0.2,0-0.3-0.1-0.3-0.3v-8.4c0-0.2,0.1-0.2,0.3-0.2h2.7c0.3,0,0.7,0.1,1,0.2
	c0.3,0.1,0.6,0.3,0.9,0.4c0.3,0.2,0.4,0.4,0.6,0.8c0.2,0.3,0.2,0.7,0.2,1.1c0,0.3,0,0.5-0.1,0.8c-0.1,0.3-0.2,0.5-0.3,0.7
	c-0.2,0.3-0.3,0.4-0.5,0.6c-0.3,0.2-0.5,0.3-0.8,0.4L201.2,52.7z M200,46.5c0-0.3-0.1-0.6-0.2-0.8c-0.1-0.2-0.3-0.3-0.4-0.4
	c-0.2-0.1-0.3-0.2-0.5-0.3c-0.2-0.1-0.4-0.1-0.6-0.1h-1.6v3.3h1.6c0.2,0,0.4,0,0.6-0.1c0.2,0,0.4-0.1,0.6-0.3
	c0.2-0.1,0.3-0.3,0.4-0.5C199.9,47.2,200,46.9,200,46.5z"/>
<path class="st0" d="M209.8,52.8c0,0-0.1,0-0.2,0H205c-0.2,0-0.3-0.1-0.3-0.2v-8.4c0-0.2,0.1-0.3,0.3-0.3h4.6c0.2,0,0.3,0.1,0.3,0.2
	v0.6c0,0.2-0.1,0.3-0.3,0.3h-3.8v2.8h3.4c0.2,0,0.3,0.1,0.3,0.2v0.5c0,0.2-0.1,0.2-0.3,0.2h-3.4V52h3.9c0.2,0,0.2,0.1,0.2,0.3V52.8
	L209.8,52.8z"/>
<path class="st0" d="M219,50.4c0,0.5-0.1,0.9-0.3,1.2c-0.2,0.3-0.3,0.6-0.7,0.8c-0.3,0.2-0.6,0.3-1,0.4c-0.3,0.1-0.8,0.2-1.1,0.2
	c-0.2,0-0.4,0-0.6,0c-0.3,0-0.4,0-0.7-0.1c-0.3,0-0.4-0.1-0.7-0.1c-0.3-0.1-0.4-0.1-0.5-0.2c-0.1-0.1-0.2-0.1-0.2-0.2s0-0.1,0-0.2
	l0.1-0.3c0-0.1,0.1-0.2,0.3-0.2c0.2,0,0.4,0.1,0.6,0.1c0.2,0,0.4,0,0.7,0.1c0.3,0,0.4,0,0.6,0c0.2,0,0.3,0,0.5,0
	c0.7,0,1.2-0.1,1.5-0.3c0.3-0.3,0.5-0.6,0.5-1c0-0.3,0-0.5-0.1-0.8c-0.1-0.2-0.2-0.3-0.3-0.5c-0.2-0.1-0.3-0.3-0.6-0.3
	c-0.3-0.1-0.5-0.2-0.9-0.2c-0.4-0.1-0.8-0.2-1.1-0.3c-0.3-0.1-0.7-0.3-0.9-0.3c-0.3-0.2-0.4-0.3-0.6-0.7c-0.2-0.3-0.3-0.6-0.3-1
	c0-0.8,0.3-1.5,0.7-1.9c0.5-0.4,1.2-0.6,2.1-0.6c0.2,0,0.3,0,0.5,0c0.2,0,0.4,0,0.6,0.1c0.3,0,0.4,0.1,0.7,0.1
	c0.3,0.1,0.4,0.1,0.6,0.2c0.1,0,0.2,0.1,0.2,0.1c0,0.1,0,0.1,0,0.2l-0.1,0.3c0,0.1,0,0.1-0.1,0.1c0,0-0.1,0.1-0.2,0
	c-0.3-0.1-0.6-0.1-1-0.1c-0.4,0-0.8-0.1-1.2-0.1c-0.3,0-0.6,0-0.9,0.1c-0.3,0.1-0.4,0.2-0.5,0.3c-0.2,0.1-0.3,0.3-0.3,0.4
	c-0.1,0.2-0.1,0.4-0.1,0.6c0,0.3,0,0.5,0.1,0.6c0.1,0.2,0.2,0.3,0.3,0.3c0.2,0.1,0.3,0.2,0.6,0.3c0.3,0.1,0.5,0.1,0.9,0.2
	c0.3,0.1,0.8,0.2,1.1,0.3c0.3,0.1,0.6,0.3,0.9,0.4c0.3,0.2,0.4,0.4,0.6,0.7C218.9,49.6,219,50,219,50.4z"/>
<path class="st0" d="M225.8,44c0.2,0,0.3,0,0.5,0c0.2,0,0.4,0,0.6,0.1c0.3,0,0.4,0.1,0.7,0.1c0.3,0.1,0.4,0.1,0.6,0.2
	c0.1,0.1,0.2,0.1,0.2,0.2c0,0.1,0,0.1,0,0.2l-0.1,0.3c0,0.1,0,0.1-0.1,0.1c0,0-0.1,0.1-0.2,0c-0.3-0.1-0.6-0.1-1-0.1
	s-0.8-0.1-1.2-0.1c-0.5,0-1,0.1-1.2,0.3c-0.3,0.2-0.5,0.4-0.7,0.8c-0.2,0.3-0.3,0.7-0.3,1.1c-0.1,0.4-0.1,0.9-0.1,1.4
	c0,0.4,0,0.9,0.1,1.3c0.1,0.4,0.2,0.8,0.3,1.1c0.2,0.3,0.4,0.6,0.7,0.8c0.3,0.2,0.7,0.3,1.2,0.3c0.4,0,0.8,0,1.2-0.1
	c0.3,0,0.7-0.1,1-0.1c0.1,0,0.2,0,0.2,0l0.1,0.1l0.1,0.3c0,0.1,0,0.1,0,0.2c0,0.1-0.1,0.1-0.2,0.1c-0.2,0.1-0.3,0.1-0.6,0.2
	c-0.3,0.1-0.4,0.1-0.7,0.1s-0.4,0.1-0.6,0.1s-0.3,0-0.5,0c-0.7,0-1.3-0.1-1.7-0.3c-0.4-0.3-0.8-0.6-1-0.9c-0.3-0.4-0.4-0.9-0.5-1.4
	c-0.1-0.5-0.2-1.1-0.2-1.6c0-0.6,0-1.1,0.1-1.7c0.1-0.5,0.3-1,0.5-1.5c0.3-0.4,0.6-0.8,1-1C224.5,44.1,225.1,44,225.8,44z"/>
<path class="st0" d="M234.9,52.1c0.7,0,1.2-0.2,1.6-0.5c0.3-0.3,0.5-0.9,0.5-1.7v-5.4c0-0.1,0-0.2,0.1-0.2c0,0,0.1-0.1,0.2-0.1h0.6
	c0.1,0,0.1,0,0.2,0.1c0,0,0.1,0.1,0.1,0.2v5.3c0,0.3,0,0.5,0,0.8c0,0.3-0.1,0.5-0.2,0.8c-0.3,0.6-0.6,1-1.1,1.3
	c-0.5,0.3-1.1,0.4-1.7,0.4c-1.5,0-2.5-0.6-2.9-1.7c-0.1-0.3-0.2-0.5-0.2-0.8c0-0.3-0.1-0.5-0.1-0.9v-5.3c0-0.1,0-0.2,0.1-0.2
	c0,0,0.1-0.1,0.2-0.1h0.6c0.1,0,0.1,0,0.2,0.1c0,0,0.1,0.1,0.1,0.2v5.4c0,0.8,0.2,1.3,0.5,1.7C233.7,51.8,234.2,52.1,234.9,52.1z"/>
<path class="st0" d="M243.1,45.9v6.7c0,0.2-0.1,0.3-0.3,0.3h-0.5c-0.2,0-0.3-0.1-0.3-0.3v-8.4c0-0.2,0.1-0.2,0.2-0.2h0.5
	c0.1,0,0.2,0,0.2,0.1c0,0,0.1,0.1,0.1,0.2l3.6,5.5l0.7,1.1v-6.6c0-0.1,0-0.2,0.1-0.2c0,0,0.1-0.1,0.2-0.1h0.5c0.1,0,0.1,0,0.2,0.1
	c0,0,0.1,0.1,0.1,0.2v8.4c0,0.2-0.1,0.2-0.2,0.2h-0.5c-0.1,0-0.2,0-0.2-0.1c-0.1,0-0.1-0.1-0.2-0.2l-3.5-5.5L243.1,45.9z"/>
<path class="st0" d="M257.6,45h-2.2v7.7c0,0.2-0.1,0.3-0.2,0.3h-0.6c-0.2,0-0.3-0.1-0.3-0.3V45H252c-0.2,0-0.3-0.1-0.3-0.3v-0.5
	c0-0.2,0.1-0.2,0.3-0.2h5.5c0.2,0,0.3,0.1,0.3,0.2v0.6C257.8,44.9,257.7,45,257.6,45z"/>
</svg>
