<svg width="135" height="30" viewBox="0 0 135 30" version="1.1" xmlns="http://www.w3.org/2000/svg" xmlns:xlink="http://www.w3.org/1999/xlink">
<g id="Canvas" fill="none">
<g id="metahash-logo_cn@3x">
<g id="Vector">
<path fill-rule="evenodd" clip-rule="evenodd" d="M 39.3099 10.9182L 40.2615 6.1282C 40.2777 6.06336 40.2784 5.99564 40.2637 5.93045C 40.249 5.86527 40.2192 5.80444 40.1767 5.75284C 40.1343 5.70124 40.0803 5.66031 40.0192 5.63332C 39.9581 5.60633 39.8914 5.59404 39.8247 5.59743L 33.3645 5.59743L 34.372 0.530597C 34.3882 0.465394 34.3887 0.397307 34.3737 0.331849C 34.3586 0.26639 34.3283 0.205399 34.2853 0.153813C 34.2423 0.102227 34.1877 0.0614966 34.126 0.0349176C 34.0643 0.0083386 33.9973 -0.00334132 33.9302 0.000823043L 27.7918 0.000823043C 27.5399 0.00852358 27.2976 0.09923 27.1026 0.258844C 26.9075 0.418458 26.7707 0.638036 26.7133 0.883445L 24.5432 11.8028L 16.9585 11.8028L 19.1995 0.531596C 19.2157 0.46667 19.2165 0.398849 19.2017 0.333584C 19.1869 0.268319 19.157 0.20743 19.1145 0.155809C 19.0719 0.104188 19.0178 0.0632742 18.9565 0.036357C 18.8953 0.0094398 18.8285 -0.00273051 18.7617 0.000823043L 12.6213 0.000823043C 12.3694 0.00852358 12.1271 0.09923 11.9321 0.258844C 11.737 0.418458 11.6002 0.638036 11.5428 0.883445L 10.6072 5.59843L 4.54479 5.59843C 4.29305 5.60635 4.05096 5.69715 3.85612 5.85675C 3.66128 6.01635 3.52458 6.2358 3.46725 6.48105L 2.51465 11.271C 2.49845 11.3359 2.49771 11.4038 2.51249 11.469C 2.52726 11.5343 2.55713 11.5952 2.59971 11.6468C 2.64229 11.6984 2.69639 11.7393 2.75765 11.7662C 2.81891 11.7932 2.88565 11.8053 2.95247 11.8018L 9.37473 11.8018L 8.14124 18.0051L 2.04386 18.0051C 1.79195 18.0128 1.54964 18.1035 1.3546 18.2631C 1.15955 18.4228 1.02269 18.6423 0.965311 18.8878L 0.0127157 23.6777C -0.00348238 23.7426 -0.00422367 23.8105 0.0105499 23.8757C 0.0253235 23.941 0.0552128 24.0019 0.0977929 24.0535C 0.140373 24.1051 0.194466 24.146 0.25573 24.1729C 0.316994 24.1999 0.38371 24.212 0.450532 24.2085L 6.90978 24.2085L 5.9032 29.2753C 5.88681 29.3402 5.8859 29.408 5.90053 29.4733C 5.91517 29.5385 5.94495 29.5995 5.98746 29.6511C 6.02997 29.7028 6.08401 29.7437 6.14526 29.7706C 6.2065 29.7975 6.27321 29.8097 6.34001 29.8061L 12.4784 29.8061C 12.7303 29.7984 12.9726 29.7077 13.1677 29.5481C 13.3627 29.3884 13.4995 29.1689 13.5569 28.9235L 15.728 18.0041L 23.3118 18.0041L 21.0717 29.2753C 21.0553 29.3402 21.0544 29.408 21.0691 29.4733C 21.0837 29.5385 21.1135 29.5995 21.156 29.6511C 21.1985 29.7028 21.2525 29.7437 21.3138 29.7706C 21.375 29.7975 21.4417 29.8097 21.5085 29.8061L 27.6479 29.8061C 27.8996 29.7982 28.1417 29.7074 28.3366 29.5478C 28.5314 29.3882 28.6681 29.1687 28.7254 28.9235L 29.6631 24.2085L 35.7604 24.2085C 36.0123 24.2008 36.2547 24.1101 36.4497 23.9505C 36.6447 23.7908 36.7816 23.5713 36.839 23.3259L 37.7916 18.5359C 37.8078 18.471 37.8085 18.4032 37.7937 18.3379C 37.779 18.2726 37.7491 18.2117 37.7065 18.1601C 37.6639 18.1085 37.6098 18.0676 37.5486 18.0407C 37.4873 18.0137 37.4206 18.0016 37.3538 18.0051L 30.8945 18.0051L 32.128 11.8018L 38.2254 11.8018C 38.4785 11.7953 38.7223 11.7051 38.9185 11.5452C 39.1148 11.3852 39.2525 11.1647 39.3099 10.9182L 39.3099 10.9182ZM 68.4974 26.0627C 69.536 26.0627 69.7239 25.263 69.8818 20.8339C 70.9335 21.5506 72.1057 22.0717 73.3424 22.3723C 72.9645 27.8779 72.0209 29.4772 68.8123 29.4772L 65.0379 29.4772C 61.4834 29.4772 60.5718 28.3087 60.5718 24.7103L 60.5718 15.2943L 55.8529 15.2943C 55.2871 21.6916 53.8397 26.9513 46.3229 29.935C 45.7326 28.8086 44.944 27.7979 43.9949 26.9513C 50.5371 24.5523 51.4188 20.4001 51.7916 15.2943L 44.6826 15.2943L 44.6826 11.7258L 72.7396 11.7258L 72.7396 15.2943L 64.4362 15.2943L 64.4362 24.7063C 64.4362 25.8748 64.6251 26.0597 65.6627 26.0597L 68.4974 26.0597L 68.4974 26.0627ZM 69.8499 6.96185L 47.5134 6.96185L 47.5134 3.42536L 69.8459 3.42536L 69.8459 6.96285L 69.8499 6.96185ZM 96.4855 1.73308C 98.5296 5.33154 101.707 8.90002 104.947 10.4993C 104.169 11.6097 103.485 12.7825 102.902 14.0058C 101.811 13.3027 100.78 12.5107 99.8201 11.6378L 99.8201 14.1948L 89.9423 14.1948L 89.9423 11.6378C 88.9642 12.5546 87.9019 13.3772 86.7696 14.0948C 86.4932 13.461 86.1781 12.8447 85.826 12.2496L 85.826 21.9075L 79.6287 21.9075L 79.6287 24.4294L 76.1692 24.4294L 76.1692 4.34797L 85.825 4.34797L 85.825 10.1965C 88.8141 7.98694 91.2215 5.08421 92.84 1.73808L 96.4885 1.73808L 96.4855 1.73308ZM 82.3036 7.69753L 79.6297 7.69753L 79.6297 18.5269L 82.3036 18.5269L 82.3036 7.69753ZM 87.6822 16.8016L 102.529 16.8016L 102.529 29.966L 98.7225 29.966L 98.7225 28.6776L 91.3307 28.6776L 91.3307 30L 87.6822 30L 87.6822 16.8056L 87.6822 16.8016ZM 99.1004 10.9272C 97.4219 9.30653 95.9722 7.4647 94.7912 5.45249C 93.668 7.45291 92.2823 9.29411 90.671 10.9272L 99.1004 10.9272ZM 91.3307 20.0932L 91.3307 25.353L 98.7225 25.353L 98.7225 20.0922L 91.3307 20.0922L 91.3307 20.0932ZM 118.225 14.4027C 117.526 15.4484 116.77 16.4548 115.96 17.4174L 120.206 17.4174L 120.206 14.8945L 123.824 14.8945L 123.824 17.4164L 132.505 17.4164L 132.505 24.7063C 132.505 26.3366 132.191 27.1672 131.027 27.69C 129.469 28.1622 127.837 28.3394 126.215 28.2128C 125.993 27.117 125.612 26.0597 125.082 25.0751C 126.341 25.1371 127.787 25.1371 128.196 25.1371C 128.605 25.1371 128.762 25.0141 128.762 24.6753L 128.762 20.619L 123.824 20.619L 123.824 30L 120.206 30L 120.206 20.619L 115.74 20.619L 115.74 28.4317L 112.029 28.4317L 112.029 21.2028C 110.948 22.0911 109.778 22.8643 108.537 23.5098C 107.794 22.5232 106.963 21.6068 106.052 20.7719C 109.051 19.2308 111.68 17.0586 113.759 14.4047L 106.996 14.4047L 106.996 11.206L 115.897 11.206C 116.305 10.483 116.662 9.7329 116.967 8.96099C 114.668 9.57573 112.375 10.0375 110.205 10.4683C 109.435 9.38949 108.583 8.37157 107.657 7.42365C 110.676 6.99284 113.854 6.43907 116.841 5.70139C 114.388 4.93271 111.966 4.22502 109.764 3.67126L 112.375 1.54916C 115.268 2.22587 118.729 3.14848 122.095 4.16404C 124.464 3.42807 126.735 2.40525 128.857 1.11835L 131.97 3.20945C 130.354 4.16734 128.673 5.01007 126.938 5.73137C 129.265 6.53103 131.374 7.33069 133.036 8.09936L 130.174 10.6213C 127.568 9.42642 124.901 8.36908 122.184 7.45364C 121.335 7.73052 120.454 8.0074 119.543 8.2533L 121.272 8.7151C 120.918 9.56599 120.519 10.3975 120.077 11.206L 134.959 11.206L 134.959 14.4047L 118.225 14.4047L 118.225 14.4027Z" fill="white"/>
</g>
</g>
</g>
</svg>

