<svg id="TELEGRAM" xmlns="http://www.w3.org/2000/svg" width="122.91" height="123" viewBox="0 0 40.97 41"><defs><style>.cls-1{fill:#fff}.cls-2{fill:#35a7e5;fill-rule:evenodd}</style></defs><circle class="cls-1" cx="20.265" cy="20.297" r="19.705"/><path class="cls-2" d="M1098.67 338.713l-10.63 6.6a.49.49 0 0 0-.21.555l1.43 4.6a.092.092 0 0 0 .18-.014l.35-3.086a.475.475 0 0 1 .16-.309l9-7.965a.236.236 0 0 0-.28-.381zm10.75 18.489a20.513 20.513 0 1 0-4.18 3.95l8.7 3.014zm-6.71-20.494l-3.3 15.834a1.047 1.047 0 0 1-1.64.628l-5-3.671-2.54 2.6a.845.845 0 0 1-1.41-.337l-1.84-5.835-4.92-1.457a.707.707 0 0 1-.06-1.338l19.38-7.559a.992.992 0 0 1 1.33 1.135z" transform="translate(-1072.97 -323.938)"/></svg>